%FSTAX23Y23*%
%MOIN*%
%SFA1B1*%

%IPPOS*%
%AMD22*
4,1,8,-0.032900,-0.011800,0.032900,-0.011800,0.038800,-0.005900,0.038800,0.005900,0.032900,0.011800,-0.032900,0.011800,-0.038800,0.005900,-0.038800,-0.005900,-0.032900,-0.011800,0.0*
1,1,0.011811,-0.032900,-0.005900*
1,1,0.011811,0.032900,-0.005900*
1,1,0.011811,0.032900,0.005900*
1,1,0.011811,-0.032900,0.005900*
%
%AMD25*
4,1,8,0.023000,-0.011600,0.023000,0.011600,0.021400,0.013200,-0.021400,0.013200,-0.023000,0.011600,-0.023000,-0.011600,-0.021400,-0.013200,0.021400,-0.013200,0.023000,-0.011600,0.0*
1,1,0.003165,0.021400,-0.011600*
1,1,0.003165,0.021400,0.011600*
1,1,0.003165,-0.021400,0.011600*
1,1,0.003165,-0.021400,-0.011600*
%
%AMD26*
4,1,8,0.028000,0.005500,-0.028000,0.005500,-0.030700,0.002800,-0.030700,-0.002800,-0.028000,-0.005500,0.028000,-0.005500,0.030700,-0.002800,0.030700,0.002800,0.028000,0.005500,0.0*
1,1,0.005512,0.028000,0.002800*
1,1,0.005512,-0.028000,0.002800*
1,1,0.005512,-0.028000,-0.002800*
1,1,0.005512,0.028000,-0.002800*
%
%AMD27*
4,1,8,0.005500,-0.028000,0.005500,0.028000,0.002800,0.030700,-0.002800,0.030700,-0.005500,0.028000,-0.005500,-0.028000,-0.002800,-0.030700,0.002800,-0.030700,0.005500,-0.028000,0.0*
1,1,0.005512,0.002800,-0.028000*
1,1,0.005512,0.002800,0.028000*
1,1,0.005512,-0.002800,0.028000*
1,1,0.005512,-0.002800,-0.028000*
%
%AMD28*
4,1,8,0.023400,-0.045900,0.042200,-0.029500,0.043500,-0.011900,-0.005700,0.044700,-0.023400,0.045900,-0.042200,0.029500,-0.043500,0.011900,0.005700,-0.044700,0.023400,-0.045900,0.0*
1,1,0.025000,0.015200,-0.036500*
1,1,0.025000,0.034000,-0.020100*
1,1,0.025000,-0.015200,0.036500*
1,1,0.025000,-0.034000,0.020100*
%
%AMD30*
4,1,8,0.050000,-0.012500,0.050000,0.012500,0.037500,0.025000,-0.037500,0.025000,-0.050000,0.012500,-0.050000,-0.012500,-0.037500,-0.025000,0.037500,-0.025000,0.050000,-0.012500,0.0*
1,1,0.025000,0.037500,-0.012500*
1,1,0.025000,0.037500,0.012500*
1,1,0.025000,-0.037500,0.012500*
1,1,0.025000,-0.037500,-0.012500*
%
%AMD31*
4,1,8,0.042200,0.029500,0.023400,0.045900,0.005700,0.044700,-0.043500,-0.011900,-0.042200,-0.029500,-0.023400,-0.045900,-0.005700,-0.044700,0.043500,0.011900,0.042200,0.029500,0.0*
1,1,0.025000,0.034000,0.020100*
1,1,0.025000,0.015200,0.036500*
1,1,0.025000,-0.034000,-0.020100*
1,1,0.025000,-0.015200,-0.036500*
%
%ADD15C,0.020000*%
%ADD16R,0.070866X0.047244*%
%ADD17R,0.061024X0.023622*%
%ADD18R,0.047244X0.070866*%
%ADD19R,0.023622X0.061024*%
%ADD20R,0.023622X0.033465*%
%ADD21R,0.059055X0.078740*%
G04~CAMADD=22~8~0.0~0.0~775.6~236.2~59.1~0.0~15~0.0~0.0~0.0~0.0~0~0.0~0.0~0.0~0.0~0~0.0~0.0~0.0~180.0~776.0~236.0*
%ADD22D22*%
%ADD23R,0.035433X0.025591*%
%ADD24R,0.033465X0.023622*%
G04~CAMADD=25~8~0.0~0.0~263.8~460.6~15.8~0.0~15~0.0~0.0~0.0~0.0~0~0.0~0.0~0.0~0.0~0~0.0~0.0~0.0~270.0~461.0~264.0*
%ADD25D25*%
G04~CAMADD=26~8~0.0~0.0~614.2~110.2~27.6~0.0~15~0.0~0.0~0.0~0.0~0~0.0~0.0~0.0~0.0~0~0.0~0.0~0.0~0.0~614.2~110.2*
%ADD26D26*%
G04~CAMADD=27~8~0.0~0.0~614.2~110.2~27.6~0.0~15~0.0~0.0~0.0~0.0~0~0.0~0.0~0.0~0.0~0~0.0~0.0~0.0~270.0~110.0~614.0*
%ADD27D27*%
G04~CAMADD=28~8~0.0~0.0~500.0~1000.0~125.0~0.0~15~0.0~0.0~0.0~0.0~0~0.0~0.0~0.0~0.0~0~0.0~0.0~0.0~221.0~930.0~978.0*
%ADD28D28*%
%ADD29R,0.025591X0.035433*%
G04~CAMADD=30~8~0.0~0.0~500.0~1000.0~125.0~0.0~15~0.0~0.0~0.0~0.0~0~0.0~0.0~0.0~0.0~0~0.0~0.0~0.0~270.0~1000.0~500.0*
%ADD30D30*%
G04~CAMADD=31~8~0.0~0.0~500.0~1000.0~125.0~0.0~15~0.0~0.0~0.0~0.0~0~0.0~0.0~0.0~0.0~0~0.0~0.0~0.0~319.0~930.0~978.0*
%ADD31D31*%
%ADD51C,0.040000*%
%ADD52C,0.010000*%
%ADD53C,0.059055*%
%ADD54R,0.059055X0.059055*%
%ADD55C,0.077953*%
%ADD56C,0.019685*%
%ADD57C,0.050000*%
%ADD58C,0.118110*%
%LNhsmm-1*%
%LPD*%
G36*
X00735Y00974D02*
X00739Y00973D01*
X00748Y00973*
X00753Y00973*
X00757Y00963*
X00794Y00921*
X00817Y00941*
X00806Y00953*
X00812Y00961*
X00816Y0096*
X0084Y0095*
X00863Y00937*
X00885Y00922*
X00905Y00905*
X00922Y00885*
X00937Y00863*
X0095Y0084*
X0096Y00816*
X00967Y00791*
X00969Y0078*
X0096Y00776*
X00944Y00794*
X00921Y00774*
X00958Y00732*
X00964Y00737*
X00974Y00735*
X00974Y00734*
Y00525*
X00735*
X00731Y00535*
X00741Y00543*
X00746Y0055*
X00749Y00559*
X00747Y00567*
X00743Y00575*
X00722Y006*
X00695Y00577*
X00668Y00553*
X00684Y00535*
X0068Y00525*
X0047*
X00466Y00524*
X00462Y00522*
X0046Y00518*
X00459Y00515*
Y00382*
X00449Y00376*
X00445Y00379*
Y004*
X00443Y00403*
X0044Y00405*
X00365*
X00364Y00405*
X00354Y0041*
Y0043*
X00354Y00431*
X00354Y00432*
Y00432*
X00355Y00435*
X00354Y00437*
Y00437*
X00354Y00438*
X00354Y0044*
X00352Y00442*
X00352Y00443*
X00352Y00443*
X0035Y00445*
X00348Y00447*
X00348Y00447*
X00347Y00447*
X00345Y00449*
X00343Y00449*
X00342Y00449*
X00342*
X0034Y0045*
X00337Y00449*
X00337*
X00336Y00449*
X00334Y00449*
X00332Y00447*
X00331Y00447*
X00331Y00447*
X00329Y00445*
X00328Y00444*
X00324Y00439*
X00323Y00434*
Y00407*
X00316Y004*
X00312*
X00282*
X00277*
X00243*
Y00329*
X00244*
Y00199*
X00152Y00107*
X0015Y00103*
X00149Y001*
Y-00189*
X00147Y-00191*
X00145Y-00197*
Y-00202*
X00138Y-0021*
X00133Y-00212*
X00127Y-0021*
X00122*
X00116Y-00212*
X00112Y-00216*
X0011Y-00222*
Y-00227*
X00112Y-00233*
X00116Y-00237*
X00122Y-00239*
X00127*
X00133Y-00237*
X00135Y-00235*
X00165*
X00168Y-00234*
X00172Y-00232*
X00187Y-00217*
X00189Y-00214*
X0019Y-0021*
Y0007*
X00306Y00187*
X00309Y0019*
X00309Y00194*
Y00322*
X00316Y00329*
X00326*
X00351*
X00358Y00325*
X0036Y00321*
X00361Y00321*
X00365Y00319*
X0044*
X00443Y00321*
X00445Y00325*
Y0034*
X00449Y00343*
X00459Y00337*
Y-00515*
X0046Y-00518*
X00462Y-00522*
X00466Y-00524*
X0047Y-00525*
X00974*
Y-01104*
X-00628*
X-00635Y-01095*
Y-01089*
X-00637Y-01083*
X-00635Y-01077*
X-00632Y-01074*
X-00628*
X-00625Y-01073*
X-00621Y-01072*
X-00617Y-01073*
X-00614Y-01074*
X-00608*
X-00605Y-01073*
X-00601Y-01072*
X-00597Y-01073*
X-00594Y-01074*
X-00588*
X-00585Y-01073*
X-00583Y-01072*
X-00581Y-01069*
X-00581Y-01066*
Y-0101*
X-00581Y-01007*
X-00583Y-01005*
X-00585Y-01003*
X-00588Y-01002*
X-00594*
X-00597Y-01003*
X-00601Y-01004*
X-00605Y-01003*
X-00608Y-01002*
X-00614*
X-00617Y-01003*
X-00621Y-01004*
X-00625Y-01003*
X-00628Y-01002*
X-00633*
X-00636Y-01003*
X-0064Y-01004*
X-00645Y-01003*
X-00648Y-01002*
X-00653*
X-00656Y-01003*
X-0066Y-01004*
X-00664Y-01003*
X-00667Y-01002*
X-00673*
X-00676Y-01003*
X-0068Y-01004*
X-00684Y-01003*
X-00687Y-01002*
X-00692*
X-00699Y-00994*
X-00699Y-00994*
Y-00969*
X-00687Y-00956*
X-00684Y-00953*
X-00684Y-00949*
Y-0094*
X-00681Y-00938*
X-00679Y-00932*
Y-00927*
X-00681Y-00921*
X-00685Y-00917*
X-00691Y-00915*
X-00695*
X-00697Y-00914*
X-00705Y-00907*
Y-00907*
X-00707Y-00901*
X-00711Y-00897*
X-00717Y-00895*
X-00722*
X-00728Y-00897*
X-00732Y-00901*
X-00734Y-00907*
Y-0091*
X-00735Y-00913*
X-00742Y-0092*
X-00742*
X-00747Y-00922*
X-0075Y-0092*
X-00755Y-00915*
X-00754Y-00912*
Y-00907*
X-00756Y-00901*
X-0076Y-00897*
X-00766Y-00895*
X-00772*
X-00777Y-00897*
X-00781Y-00901*
X-00784Y-00907*
Y-00912*
X-00781Y-00918*
X-00783Y-00924*
X-00792Y-0093*
X-00797*
X-00805Y-00922*
Y-00917*
X-00807Y-00911*
X-00811Y-00907*
X-00817Y-00905*
X-00822*
X-00828Y-00907*
X-00832Y-00911*
X-00834Y-00917*
Y-00922*
X-00832Y-00928*
X-0083Y-0093*
Y-00962*
X-00829Y-00966*
X-00827Y-00969*
X-00818Y-00978*
Y-01008*
X-00818Y-0101*
Y-01066*
X-00818Y-01069*
X-00816Y-01072*
X-00814Y-01073*
X-00811Y-01074*
X-00805*
X-00802Y-01073*
X-00798Y-01072*
X-00794Y-01073*
X-00791Y-01074*
X-00785*
X-00782Y-01073*
X-00779Y-01072*
X-00773Y-0108*
X-00772Y-01083*
X-00774Y-01089*
Y-01095*
X-00781Y-01104*
X-00974*
Y-0052*
X-00589*
X-00588Y-00521*
X-00584Y-0053*
X-00584Y-00532*
Y-00537*
X-00582Y-00543*
X-00581Y-00544*
Y-00547*
X-00582Y-00548*
X-00588Y-00555*
X-00594*
X-00597Y-00556*
X-00601Y-00557*
X-00605Y-00556*
X-00608Y-00555*
X-00614*
X-00617Y-00556*
X-00621Y-00557*
X-00625Y-00556*
X-00628Y-00555*
X-00633*
X-00636Y-00556*
X-0064Y-00557*
X-00645Y-00556*
X-00648Y-00555*
X-00653*
X-00656Y-00556*
X-0066Y-00557*
X-00664Y-00556*
X-00667Y-00555*
X-00673*
X-00676Y-00556*
X-0068Y-00557*
X-00684Y-00556*
X-00687Y-00555*
X-00692*
X-00695Y-00556*
X-007Y-00557*
X-00704Y-00556*
X-00707Y-00555*
X-00712*
X-00715Y-00556*
X-00719Y-00557*
X-00723Y-00556*
X-00726Y-00555*
X-00732*
X-00735Y-00556*
X-00739Y-00557*
X-00743Y-00556*
X-00746Y-00555*
X-00751*
X-00754Y-00556*
X-00759Y-00557*
X-00763Y-00556*
X-00766Y-00555*
X-00771*
X-00774Y-00556*
X-00778Y-00557*
X-00782Y-00556*
X-00785Y-00555*
X-00791*
X-00794Y-00556*
X-00798Y-00557*
X-00802Y-00556*
X-00805Y-00555*
X-00811*
X-00814Y-00556*
X-00816Y-00557*
X-00818Y-0056*
X-00818Y-00563*
Y-00619*
X-00818Y-00622*
X-00816Y-00624*
X-00814Y-00626*
X-00811Y-00627*
X-00805*
X-00802Y-00626*
X-00798Y-00625*
X-00794Y-00626*
X-00791Y-00627*
X-00785*
X-00779Y-00635*
Y-0064*
X-0079Y-0065*
X-00792Y-00654*
X-00793Y-00658*
Y-00687*
X-00793Y-00687*
X-00797Y-00691*
X-00799Y-00697*
Y-00702*
X-00797Y-00708*
X-00793Y-00712*
X-00787Y-00714*
X-00782*
X-00776Y-00712*
X-00772Y-00708*
X-00768Y-00703*
X-00762Y-00704*
X-00756*
X-00751Y-00702*
X-00746Y-00697*
X-00744Y-00692*
Y-0069*
X-00743Y-00689*
X-00735Y-00684*
X-00732Y-00685*
X-00727*
X-00721Y-00683*
X-00717Y-00679*
X-00715Y-00673*
Y-00667*
X-00717Y-00662*
X-00719Y-0066*
Y-00635*
X-00719Y-00634*
X-00712Y-00627*
X-00707*
X-00704Y-00626*
X-007Y-00625*
X-00695Y-00626*
X-00692Y-00627*
X-00687*
X-0068Y-00634*
X-0068Y-00635*
Y-0066*
X-00682Y-00662*
X-00684Y-00667*
Y-00673*
X-00682Y-00679*
X-00678Y-00683*
X-00672Y-00685*
X-00667*
X-00661Y-00683*
X-00657Y-00679*
X-00655Y-00673*
Y-00667*
X-00657Y-00662*
X-0066Y-00659*
Y-00635*
X-00653Y-00627*
X-00648*
X-00645Y-00626*
X-0064Y-00625*
X-00636Y-00626*
X-00633Y-00627*
X-00628*
X-00625Y-00626*
X-00621Y-00625*
X-00617Y-00626*
X-00614Y-00627*
X-00608*
X-00605Y-00626*
X-00601Y-00625*
X-00597Y-00626*
X-00594Y-00627*
X-00588*
X-00585Y-00626*
X-00581Y-00625*
X-00577Y-00626*
X-00574Y-00627*
X-00569*
X-00566Y-00626*
X-00557Y-00633*
X-00557Y-00634*
X-00557Y-00636*
X-00559Y-00642*
Y-00647*
X-00557Y-00653*
X-00555Y-00655*
Y-0068*
X-00554Y-00683*
X-00552Y-00687*
X-00525Y-00713*
X-00522Y-00716*
X-0052Y-00716*
X-00517Y-00717*
X-00512Y-00723*
Y-00729*
X-00511Y-00732*
X-0051Y-00736*
X-00511Y-0074*
X-00512Y-00743*
Y-00748*
X-00511Y-00751*
X-0051Y-00755*
X-00511Y-0076*
X-00512Y-00763*
Y-00768*
X-00511Y-00771*
X-0051Y-00775*
X-00511Y-00779*
X-00512Y-00782*
Y-00788*
X-0052Y-00794*
X-0052Y-00794*
X-00548*
X-0055Y-00792*
Y-00792*
X-00552Y-00786*
X-00556Y-00782*
X-00562Y-0078*
X-00567*
X-00573Y-00782*
X-00577Y-00786*
X-00579Y-00792*
Y-00797*
X-00577Y-00803*
X-00574Y-00806*
X-00573Y-00807*
X-00572Y-00818*
X-00574Y-00823*
Y-00829*
X-00572Y-00835*
X-00568Y-00839*
X-00563Y-00841*
X-00557*
X-00551Y-00839*
X-00547Y-00835*
X-00547Y-00835*
X-0052*
X-0052Y-00835*
X-00512Y-00841*
Y-00847*
X-00511Y-0085*
X-0051Y-00854*
X-00511Y-00858*
X-00512Y-00861*
Y-00866*
X-00511Y-00869*
X-0051Y-00874*
X-00511Y-00878*
X-00512Y-00881*
Y-00886*
X-00511Y-00889*
X-0051Y-00893*
X-00511Y-00897*
X-00512Y-009*
Y-00906*
X-00511Y-00909*
X-0051Y-00913*
X-00511Y-00917*
X-00512Y-0092*
Y-00926*
X-00511Y-00929*
X-0051Y-00933*
X-00511Y-00937*
X-00512Y-0094*
Y-00945*
X-00511Y-00948*
X-0051Y-00952*
X-00511Y-00956*
X-00512Y-00959*
Y-00965*
X-00512Y-00966*
X-00514Y-0097*
X-00515Y-00972*
X-00519Y-00975*
X-00522*
X-00528Y-00977*
X-00532Y-00981*
X-00532Y-00982*
X-00538Y-00983*
X-00543Y-00982*
X-00545Y-0098*
X-00555Y-0097*
Y-00966*
X-00557Y-0096*
X-00561Y-00956*
X-00567Y-00954*
X-00572*
X-00578Y-00956*
X-00582Y-0096*
X-00584Y-00966*
Y-00972*
X-00582Y-00977*
X-00578Y-00981*
X-00572Y-00984*
X-0057*
X-00562Y-00991*
Y-01008*
X-00563Y-0101*
Y-01066*
X-00562Y-01069*
X-0056Y-01072*
X-00558Y-01073*
X-00555Y-01074*
X-00549*
X-00546Y-01073*
X-00544Y-01072*
X-00542Y-01069*
X-00541Y-01066*
Y-01033*
X-0054Y-01033*
X-00531Y-0103*
X-00529Y-01032*
X-00524Y-01035*
X-00518*
X-00512Y-01032*
X-00508Y-01028*
X-00506Y-01023*
Y-01017*
X-00508Y-01012*
X-00508Y-01011*
X-0051Y-01004*
X-00508Y-00999*
X-00507Y-00998*
X-00505Y-00992*
Y-00987*
X-00506Y-00983*
X-00506Y-00979*
X-00505Y-00979*
X-00501Y-00973*
X-00448*
X-00445Y-00972*
X-00442Y-0097*
X-00441Y-00968*
X-0044Y-00965*
Y-00959*
X-00441Y-00956*
X-00442Y-00952*
X-00441Y-00948*
X-0044Y-00945*
Y-0094*
X-00441Y-00937*
X-00442Y-00933*
X-00441Y-00929*
X-0044Y-00926*
Y-0092*
X-00441Y-00917*
X-00442Y-00913*
X-00441Y-00909*
X-0044Y-00906*
Y-009*
X-00432Y-00894*
X-00432Y-00894*
X-00415*
Y-00924*
X-00417Y-00926*
X-00419Y-00932*
Y-00937*
X-00417Y-00943*
X-00413Y-00947*
X-00407Y-00949*
X-00402*
X-00396Y-00947*
X-00392Y-00943*
X-0039Y-00937*
Y-00934*
X-00387Y-00932*
X-00383Y-00929*
X-0038Y-00928*
X-00377Y-00929*
X-00372*
X-00366Y-00927*
X-00362Y-00923*
X-0036Y-00917*
Y-00912*
X-00362Y-00906*
X-00361Y-00902*
X-00349Y-00899*
X-00342Y-00907*
X-00338Y-00909*
X-00336Y-00909*
X-00334Y-00913*
X-00332Y-0092*
X-00335Y-00922*
X-0034Y-00933*
X-00343Y-00944*
Y-00955*
X-0034Y-00966*
X-00335Y-00977*
X-00327Y-00985*
X-00316Y-0099*
X-00305Y-00993*
X-00294*
X-00283Y-0099*
X-00272Y-00985*
X-00264Y-00977*
X-00259Y-00966*
X-00256Y-00955*
Y-00944*
X-00259Y-00933*
X-00264Y-00922*
X-00267Y-0092*
X-00263Y-0091*
X-0025*
X-00246Y-00909*
X-00242Y-00907*
X-00225Y-0089*
X-00185*
X-00183Y-00891*
X-00183Y-00891*
X-00179Y-00897*
X-00179Y-009*
X-00179Y-00901*
X-00179Y-00902*
Y-00902*
X-0018Y-00905*
X-00179Y-00907*
Y-00907*
X-00179Y-00908*
X-00179Y-0091*
X-00177Y-00912*
X-00177Y-00913*
X-00177Y-00913*
X-00175Y-00915*
X-00173Y-00917*
X-00173Y-00917*
X-00172Y-00917*
X-0017Y-00919*
X-00168Y-00919*
X-00167Y-00919*
X-00167*
X-00165Y-0092*
X-00138*
X-00137Y-00921*
X-00132Y-00922*
X-00067*
X-00062Y-00921*
X-00059Y-00918*
X-00056Y-00915*
X-00056Y-0091*
Y-00899*
X-00049Y-0089*
X-00048Y-0089*
X00043*
X00044Y-0089*
X0005Y-00899*
Y-0091*
X00051Y-00915*
X00054Y-00918*
X00057Y-00921*
X00062Y-00922*
X00127*
X00132Y-00921*
X00133Y-0092*
X00165*
X00167Y-00919*
X00167*
X00168Y-00919*
X0017Y-00919*
X00172Y-00917*
X00173Y-00917*
X00173Y-00917*
X00175Y-00915*
X00177Y-00913*
X00177Y-00913*
X00177Y-00912*
X00179Y-0091*
X00179Y-00908*
X00179Y-00907*
Y-00907*
X0018Y-00905*
X00186Y-00898*
X00187Y-00897*
X00188Y-00896*
X00191Y-00896*
X00217Y-00921*
X00217Y-00931*
X00217Y-00932*
X00215Y-00934*
X00215Y-00936*
X00215Y-00937*
Y-00937*
X00214Y-0094*
Y-00949*
X00213Y-00951*
X00213Y-00951*
X00207Y-00954*
X00204Y-00955*
X00203Y-00955*
X00202Y-00955*
X00202*
X002Y-00954*
X00197Y-00955*
X00197*
X00196Y-00955*
X00194Y-00955*
X00192Y-00957*
X00191Y-00957*
X00191Y-00957*
X00189Y-00959*
X00185Y-00962*
X00183Y-00962*
X00182Y-00961*
X00175Y-00955*
X00174Y-00952*
Y-00952*
X00174Y-00951*
X00174Y-00949*
X00172Y-00947*
X00172Y-00946*
X00172Y-00946*
X0017Y-00944*
X00168Y-00942*
X00168Y-00942*
X00167Y-00942*
X00165Y-0094*
X00163Y-0094*
X00162Y-0094*
X00162*
X0016Y-00939*
X00133*
X00132Y-00938*
X00127Y-00937*
X00062*
X00057Y-00938*
X00054Y-00941*
X00051Y-00944*
X0005Y-00949*
Y-0096*
X00051Y-00965*
X00054Y-00968*
X00057Y-00971*
X00062Y-00972*
X00127*
X00132Y-00971*
X00133Y-0097*
X0016*
X00166Y-00977*
X00167Y-00978*
X00167Y-0098*
X00158Y-00989*
X00133*
X00132Y-00988*
X00127Y-00987*
X00062*
X00057Y-00988*
X00056Y-00989*
X00035*
X00029Y-0099*
X00024Y-00994*
X-00021Y-01039*
X-00061*
X-00062Y-01038*
X-00067Y-01037*
X-00132*
X-00137Y-01038*
X-0014Y-01041*
X-00143Y-01044*
X-00143Y-01049*
Y-0106*
X-00143Y-01065*
X-0014Y-01068*
X-00137Y-01071*
X-00132Y-01072*
X-00067*
X-00062Y-01071*
X-00061Y-0107*
X-00015*
X-00009Y-01069*
X-00004Y-01065*
X00041Y-0102*
X00056*
X00057Y-01021*
X00062Y-01022*
X00127*
X00132Y-01021*
X00133Y-0102*
X00165*
X00172Y-01028*
X00172Y-0103*
X00163Y-01039*
X00133*
X00132Y-01038*
X00127Y-01037*
X00062*
X00057Y-01038*
X00054Y-01041*
X00051Y-01044*
X0005Y-01049*
Y-0106*
X00051Y-01065*
X00054Y-01068*
X00057Y-01071*
X00062Y-01072*
X00127*
X00132Y-01071*
X00133Y-0107*
X0017*
X00175Y-01069*
X0018Y-01065*
X0024Y-01005*
X00244Y-01*
X00245Y-00995*
Y-0094*
X00244Y-00937*
Y-00937*
X00244Y-00936*
X00244Y-00934*
X00242Y-00932*
X00242Y-00931*
X00242Y-00931*
X0024Y-00929*
X00238Y-00927*
X00238Y-00927*
X00238Y-00927*
Y-00918*
X00237Y-00914*
X00235Y-0091*
X00197Y-00872*
X00193Y-0087*
X0019Y-00869*
X00185*
X00183Y-00868*
X00183Y-00868*
X00179Y-00862*
X00179Y-00859*
X00179Y-00858*
X00179Y-00857*
Y-00857*
X0018Y-00855*
X00187Y-00848*
X00188Y-00847*
X0019Y-00847*
X00204Y-0086*
X00209Y-00864*
X00215Y-00865*
X00258*
X00259Y-00866*
X00264Y-00877*
X00272Y-00885*
X00283Y-0089*
X00294Y-00893*
X00305*
X00316Y-0089*
X00327Y-00885*
X00335Y-00877*
X0034Y-00866*
X00343Y-00855*
Y-00844*
X0034Y-00833*
X00335Y-00822*
X00327Y-00814*
X00316Y-00809*
X00305Y-00806*
X00294*
X00283Y-00809*
X00272Y-00814*
X00264Y-00822*
X00259Y-00833*
X00258Y-00834*
X00221*
X0018Y-00794*
X00175Y-0079*
X0017Y-00789*
X00133*
X00132Y-00788*
X00127Y-00787*
X00062*
X00057Y-00788*
X00054Y-00791*
X00051Y-00794*
X0005Y-00799*
Y-0081*
X00051Y-00815*
X00054Y-00818*
X00057Y-00821*
X00062Y-00822*
X00127*
X00132Y-00821*
X00133Y-0082*
X00163*
X00172Y-00829*
X00172Y-00831*
X00171Y-00832*
X00165Y-00839*
X00133*
X00132Y-00838*
X00127Y-00837*
X00062*
X00057Y-00838*
X00054Y-00841*
X00051Y-00844*
X0005Y-00849*
Y-0086*
X00044Y-00869*
X00043Y-00869*
X-00048*
X-00049Y-00869*
X-00056Y-0086*
Y-00849*
X-00056Y-00844*
X-00059Y-00841*
X-00062Y-00838*
X-00067Y-00837*
X-00132*
X-00137Y-00838*
X-00138Y-00839*
X-00165*
X-00167Y-0084*
X-00167*
X-00168Y-0084*
X-0017Y-0084*
X-0018Y-00839*
X-00182Y-00838*
X-00185Y-00833*
X-00184Y-0083*
X-00184Y-0083*
X-00173Y-0082*
X-00138*
X-00137Y-00821*
X-00132Y-00822*
X-00067*
X-00062Y-00821*
X-00059Y-00818*
X-00056Y-00815*
X-00056Y-0081*
Y-00799*
X-00056Y-00794*
X-00059Y-00791*
X-00062Y-00788*
X-00067Y-00787*
X-00122*
X-00126Y-00779*
X-00121Y-00772*
X-00101*
X-00101Y-00772*
X-00067*
X-00062Y-00771*
X-00059Y-00768*
X-00056Y-00765*
X-00056Y-0076*
Y-00749*
X-00056Y-00744*
X-00059Y-00741*
X-00062Y-00738*
X-00067Y-00737*
X-00132*
X-00137Y-00738*
X-0014Y-00741*
X-00143Y-00744*
X-00143Y-00749*
Y-0075*
X-00154Y-0076*
X-00155Y-0076*
X-00157Y-00762*
X-00158Y-00762*
X-00158Y-00762*
X-0016Y-00764*
X-00162Y-00766*
X-00162Y-00766*
X-00162Y-00767*
X-00164Y-00769*
X-00164Y-00771*
X-00164Y-00772*
Y-00772*
X-00165Y-00775*
X-00164Y-00777*
Y-00777*
X-00164Y-00778*
X-00164Y-00779*
X-00165Y-00782*
X-00168Y-00788*
X-00168Y-00788*
X-0017Y-00789*
X-0018*
X-00185Y-0079*
X-0019Y-00794*
X-00205Y-00809*
X-00207Y-00811*
X-00207Y-00811*
X-00207Y-00812*
X-00209Y-00814*
X-00209Y-00816*
X-00209Y-00817*
Y-00817*
X-0021Y-0082*
X-00212Y-00824*
X-00223Y-00826*
X-00257Y-00792*
X-00261Y-0079*
X-00263Y-0079*
X-00265Y-00786*
X-00267Y-00779*
X-00264Y-00777*
X-00259Y-00766*
X-00256Y-00755*
Y-00749*
X-00246Y-00744*
X-00245Y-00745*
X-00175*
X-00171Y-00743*
X-00169Y-0074*
Y-00684*
X-00169Y-00684*
X-00164Y-0068*
X-00155Y-00671*
X-00145Y-00675*
Y-00683*
X-00144Y-00686*
X-00143Y-00688*
X-0014Y-00689*
X-00138Y-0069*
X-00095*
X-00092Y-00689*
X-0009Y-00688*
X-00089Y-00686*
X-00088Y-00683*
Y-0066*
X-00089Y-00657*
X-0009Y-00655*
X-00092Y-00654*
X-00095Y-00653*
X-00134*
X-00138*
X-00144Y-00645*
X-00144Y-00645*
Y-00624*
X-00144Y-00624*
X-00142Y-00621*
X-00132Y-00618*
X-00124Y-00623*
X-00114Y-00625*
X00065*
X00074Y-00623*
X00083Y-00618*
X00083Y-00617*
X00087*
Y-00611*
X00088Y-00609*
X0009Y-006*
X00088Y-0059*
X00087Y-00589*
Y-00582*
X00083*
X00083Y-00581*
X00074Y-00576*
X00065Y-00574*
X0006*
Y-00533*
X00058Y-00523*
X00056Y-00521*
Y-00516*
X00053*
X00053Y-00515*
X00044Y-0051*
X00044Y-00508*
Y-00501*
X00044Y-00499*
X00053Y-00494*
X00053Y-00493*
X00056*
Y-0049*
X0008*
X00082Y-00489*
X00082*
X00083Y-00489*
X00085Y-00489*
X00087Y-00487*
X00088Y-00487*
X00088Y-00487*
X0009Y-00485*
X00092Y-00483*
X00092Y-00483*
X00092Y-00482*
X00094Y-0048*
X00094Y-00478*
X00094Y-00477*
Y-00477*
X00095Y-00475*
X00094Y-00472*
Y-00472*
X00094Y-00471*
X00094Y-00469*
X00092Y-00467*
X00092Y-00466*
X00092Y-00466*
X0009Y-00464*
X00088Y-00462*
X00088Y-00462*
X00087Y-00462*
X00085Y-0046*
X00083Y-0046*
X00082Y-0046*
X00082*
X0008Y-00459*
X00056*
Y-00459*
X00056*
X00052Y-00455*
X00057Y-00445*
X00215*
X00218Y-00444*
X00222Y-00442*
X00276Y-00387*
X00283Y-0039*
X00294Y-00393*
X00305*
X00316Y-0039*
X00327Y-00385*
X00335Y-00377*
X0034Y-00366*
X00343Y-00355*
Y-00344*
X0034Y-00333*
X00335Y-00322*
X00327Y-00314*
X00316Y-00309*
X00305Y-00306*
X00294*
X00283Y-00309*
X00272Y-00314*
X00264Y-00322*
X00259Y-00333*
X00256Y-00344*
Y-00355*
X00259Y-00366*
X00262Y-00373*
X0021Y-00424*
X-00104*
X-00106Y-00422*
X-00112Y-0042*
X-00117*
X-00123Y-00422*
X-00127Y-00426*
X-00129Y-00432*
Y-00437*
X-00128Y-0044*
X-00131Y-00448*
X-00134Y-0045*
X-00194*
X-00206Y-00439*
X-00214Y-00433*
X-00224Y-00431*
X-00259*
X-00264Y-00422*
X-00267Y-0042*
X-00263Y-0041*
X-00194*
X-00179Y-00424*
Y-00427*
X-00177Y-00433*
X-00173Y-00437*
X-00167Y-00439*
X-00162*
X-00156Y-00437*
X-00152Y-00433*
X-0015Y-00427*
Y-00422*
X-00152Y-00416*
X-00156Y-00412*
X-00162Y-0041*
X-00165*
X-00182Y-00392*
X-00186Y-0039*
X-0019Y-00389*
X-00225*
X-00226Y-0038*
X-00218Y-00377*
X-00211Y-00374*
X-00205Y-00368*
X-00202Y-00361*
X-002Y-00353*
Y-00346*
X-00202Y-00338*
X-00205Y-00331*
X-00211Y-00325*
X-00218Y-00322*
X-00226Y-0032*
X-00233*
X-00241Y-00322*
X-00245Y-00324*
X-00263*
X-00264Y-00322*
X-00272Y-00314*
X-00283Y-00309*
X-00294Y-00306*
X-00305*
X-00316Y-00309*
X-00327Y-00314*
X-00335Y-00322*
X-0034Y-00333*
X-00343Y-00344*
Y-00355*
X-0034Y-00366*
X-00335Y-00377*
X-00331Y-0038*
X-00331Y-00383*
X-00334Y-00392*
X-00335Y-00392*
X-00447Y-00504*
X-00449Y-00507*
X-00449Y-00509*
X-00459Y-00508*
Y00154*
X-00449Y00158*
X-00448Y00157*
X-00442Y00155*
X-00437*
X-00431Y00157*
X-00427Y00161*
X-00425Y00167*
Y00172*
X-00427Y00178*
X-00431Y00182*
X-00437Y00184*
X-00442*
X-00448Y00182*
X-00449Y00181*
X-00459Y00185*
Y00515*
X-0046Y00518*
X-00462Y00522*
X-00466Y00524*
X-0047Y00525*
X-00683*
X-00687Y00535*
X-0067Y00555*
X-00697Y00578*
X-00723Y00601*
X-00745Y00577*
X-00749Y00569*
X-0075Y0056*
X-00748Y00552*
X-00742Y00544*
X-00731Y00535*
X-00735Y00525*
X-00974*
Y00585*
Y00732*
X-00974Y00733*
X-00972Y00734*
X-00963Y00736*
X-0096Y00733*
X-00923Y00775*
X-00946Y00795*
X-00958Y00782*
X-00967Y00786*
X-00967Y0079*
X-00959Y00815*
X-00949Y00839*
X-00936Y00862*
X-00921Y00884*
X-00904Y00904*
X-00884Y00921*
X-00862Y00936*
X-00839Y00949*
X-00818Y00958*
X-00812Y0095*
X-00818Y00942*
X-00792Y00919*
X-00765Y00896*
X-00744Y0092*
X-00739Y00928*
X-00738Y00937*
X-0074Y00946*
X-00746Y00953*
X-00756Y00961*
X-00752Y00972*
X-00747Y00972*
X-00738Y00972*
X-00734Y00973*
X-00732Y00974*
X00734*
X00735Y00974*
G37*
G36*
X0044Y00325D02*
X00365D01*
Y004*
X0044*
Y00325*
G37*
G36*
X00277Y00329D02*
X00279D01*
X00289Y00322*
Y00198*
X00187Y00097*
X00176Y001*
X00176Y00102*
X00262Y00187*
X00264Y00191*
X00265Y00195*
Y00329*
X00277*
G37*
G36*
X-00337Y-00473D02*
X-00335Y-00477D01*
X-00327Y-00485*
X-00316Y-0049*
X-00305Y-00493*
X-00294*
X-00283Y-0049*
X-00272Y-00485*
X-0027Y-00482*
X-00234*
X-00227Y-00489*
Y-00494*
X-00223*
X-00223Y-00494*
X-00214Y-005*
X-00205Y-00501*
X00014*
X00018Y-00511*
X00014Y-00516*
X00013*
Y-00521*
X00011Y-00523*
X00009Y-00533*
Y-00574*
X-00107*
X-00107Y-00574*
X-00116Y-00572*
X-00126Y-00574*
X-00134Y-00579*
X-00138*
X-0014Y-0058*
X-00143Y-00581*
X-00144Y-00583*
X-00145Y-00586*
Y-00594*
X-00155Y-00598*
X-00163Y-0059*
X-00167Y-00587*
X-00173Y-00585*
X-00184*
X-00185Y-00583*
X-00186Y-00581*
X-00189Y-0058*
X-00191Y-00579*
X-00234*
X-00237Y-0058*
X-00239Y-00581*
X-0024Y-00583*
X-00241Y-00586*
Y-00609*
X-0024Y-00612*
X-00239Y-00614*
X-00237Y-00615*
X-00234Y-00616*
X-0021*
X-00209Y-00616*
X-0018*
X-00175Y-00621*
Y-00648*
X-00181Y-00654*
X-00188*
X-00189Y-00654*
X-00191Y-00653*
X-00234*
X-00237Y-00654*
X-00237Y-00654*
X-00245*
X-00246Y-00655*
X-00256Y-0065*
Y-00644*
X-00259Y-00633*
X-00264Y-00622*
X-00272Y-00614*
X-00283Y-00609*
X-00294Y-00606*
X-00305*
X-00316Y-00609*
X-00327Y-00614*
X-00335Y-00622*
X-0034Y-00633*
X-00343Y-00644*
Y-00655*
X-0034Y-00666*
X-00335Y-00677*
X-00327Y-00685*
X-00316Y-0069*
X-00305Y-00693*
X-00294*
X-00283Y-0069*
X-00272Y-00685*
X-00264Y-00677*
X-0026Y-00669*
X-0025Y-00672*
Y-00727*
X-0026Y-0073*
X-00264Y-00722*
X-00272Y-00714*
X-00283Y-00709*
X-00294Y-00706*
X-00305*
X-00316Y-00709*
X-00327Y-00714*
X-00335Y-00722*
X-0034Y-00733*
X-00343Y-00744*
Y-00755*
X-0034Y-00766*
X-00335Y-00777*
X-00332Y-00779*
X-00336Y-00789*
X-004*
X-00412Y-00778*
X-00415Y-00776*
X-00419Y-00775*
X-00432*
X-00432Y-00775*
X-0044Y-00768*
Y-00763*
X-00441Y-0076*
X-00442Y-00755*
X-00441Y-00751*
X-0044Y-00748*
Y-00743*
X-00441Y-0074*
X-00442Y-00736*
X-00441Y-00732*
X-0044Y-00729*
Y-00723*
X-00441Y-0072*
X-00442Y-00716*
X-00441Y-00712*
X-0044Y-00709*
Y-00703*
X-00441Y-007*
X-00442Y-00698*
X-00445Y-00696*
X-00448Y-00696*
X-00504*
X-00506Y-00696*
X-00514*
X-00534Y-00675*
Y-00655*
X-00532Y-00653*
X-0053Y-00647*
Y-00642*
X-00532Y-00636*
X-00536Y-00632*
X-00537Y-00631*
X-00537Y-00631*
X-00541Y-00623*
X-00541Y-0062*
X-00541Y-00619*
Y-006*
X-0053*
X-00528Y-00602*
X-00522Y-00604*
X-00517*
X-00511Y-00602*
X-00507Y-00598*
X-00505Y-00592*
Y-00587*
X-00507Y-00581*
X-00511Y-00577*
X-00517Y-00575*
X-00522*
X-00528Y-00577*
X-0053Y-00579*
X-00541*
Y-00563*
X-00542Y-0056*
X-00544Y-00557*
X-00546Y-00556*
X-0055Y-00547*
X-0055Y-00545*
X-0055Y-00545*
X-00455*
X-00451Y-00544*
X-00447Y-00542*
X-00432Y-00527*
X-0043Y-00523*
X-0043Y-00522*
X-0042Y-00523*
Y-00616*
X-00423Y-00619*
X-00475*
X-00477Y-0062*
X-00477*
X-00478Y-0062*
X-0048Y-0062*
X-00482Y-00622*
X-00483Y-00622*
X-00483Y-00622*
X-00485Y-00624*
X-00487Y-00626*
X-00487Y-00626*
X-00487Y-00627*
X-00489Y-00629*
X-00489Y-00631*
X-00489Y-00632*
Y-00632*
X-0049Y-00635*
X-00489Y-00637*
Y-00637*
X-00489Y-00638*
X-00489Y-0064*
X-00487Y-00642*
X-00487Y-00643*
X-00487Y-00643*
X-00485Y-00645*
X-00485Y-00646*
Y-00656*
X-00504*
X-00507Y-00657*
X-00509Y-00659*
X-00511Y-00661*
X-00512Y-00664*
Y-0067*
X-00511Y-00673*
X-00509Y-00675*
X-00507Y-00677*
X-00504Y-00678*
X-00448*
X-00445Y-00677*
X-00442Y-00675*
X-00441Y-00673*
X-0044Y-0067*
Y-00664*
X-00441Y-00661*
X-00441Y-0066*
X-0044Y-00654*
X-00437Y-0065*
X-00416*
X-0041Y-00649*
X-00405Y-00645*
X-00394Y-00634*
X-0039Y-00629*
X-00389Y-00623*
Y-00511*
X-00349Y-00471*
X-00337Y-00473*
G37*
G36*
X-00175Y-0074D02*
X-00245D01*
Y-0066*
X-00175*
Y-0074*
G37*
G36*
X-00412Y-00807D02*
X-00408Y-00809D01*
X-00405Y-0081*
X-00336*
X-00332Y-0082*
X-00335Y-00822*
X-0034Y-00833*
X-00343Y-00844*
Y-00855*
X-00341Y-00864*
X-00347Y-00869*
X-00349Y-0087*
X-00383Y-00837*
X-00386Y-00834*
X-0039Y-00834*
X-00409*
X-00411Y-00831*
X-00417Y-00829*
X-00422*
X-00428Y-00831*
X-0043Y-00834*
X-00432*
X-00432Y-00834*
X-0044Y-00827*
Y-00822*
X-00441Y-00819*
X-00442Y-00815*
X-00441Y-0081*
X-0044Y-00807*
Y-00802*
X-00432Y-00795*
X-00432Y-00795*
X-00423*
X-00412Y-00807*
G37*
%LNhsmm-2*%
%LPC*%
G36*
X00267Y00957D02*
X00235D01*
Y00926*
X0029*
Y00934*
X00288Y00943*
X00283Y0095*
X00276Y00955*
X00267Y00957*
G37*
G36*
X00225D02*
X00192D01*
X00183Y00955*
X00176Y0095*
X00171Y00943*
X00169Y00934*
Y00926*
X00225*
Y00957*
G37*
G36*
X00452D02*
X0042D01*
Y00926*
X00475*
Y00934*
X00473Y00943*
X00468Y0095*
X00461Y00955*
X00452Y00957*
G37*
G36*
X0041D02*
X00377D01*
X00368Y00955*
X00361Y0095*
X00356Y00943*
X00354Y00934*
Y00926*
X0041*
Y00957*
G37*
G36*
X-00377Y00952D02*
X-0041D01*
Y00921*
X-00354*
Y00929*
X-00356Y00938*
X-00361Y00945*
X-00368Y0095*
X-00377Y00952*
G37*
G36*
X-0042D02*
X-00452D01*
X-00461Y0095*
X-00468Y00945*
X-00473Y00938*
X-00475Y00929*
Y00921*
X-0042*
Y00952*
G37*
G36*
X-00192D02*
X-00225D01*
Y00921*
X-00169*
Y00929*
X-00171Y00938*
X-00176Y00945*
X-00183Y0095*
X-00192Y00952*
G37*
G36*
X-00235D02*
X-00267D01*
X-00276Y0095*
X-00283Y00945*
X-00288Y00938*
X-0029Y00929*
Y00921*
X-00235*
Y00952*
G37*
G36*
X0075Y00956D02*
X00744Y00951D01*
X00739Y00944*
X00736Y00935*
X00737Y00926*
X00742Y00919*
X00763Y00894*
X00786Y00914*
X0075Y00956*
G37*
G36*
X0029Y00916D02*
X00235D01*
Y00886*
X00267*
X00276Y00888*
X00283Y00893*
X00288Y009*
X0029Y00909*
Y00916*
G37*
G36*
X00225D02*
X00169D01*
Y00909*
X00171Y009*
X00176Y00893*
X00183Y00888*
X00192Y00886*
X00225*
Y00916*
G37*
G36*
X00475D02*
X0042D01*
Y00886*
X00452*
X00461Y00888*
X00468Y00893*
X00473Y009*
X00475Y00909*
Y00916*
G37*
G36*
X0041D02*
X00354D01*
Y00909*
X00356Y009*
X00361Y00893*
X00368Y00888*
X00377Y00886*
X0041*
Y00916*
G37*
G36*
X-00354Y00911D02*
X-0041D01*
Y00881*
X-00377*
X-00368Y00883*
X-00361Y00888*
X-00356Y00895*
X-00354Y00904*
Y00911*
G37*
G36*
X-0042D02*
X-00475D01*
Y00904*
X-00473Y00895*
X-00468Y00888*
X-00461Y00883*
X-00452Y00881*
X-0042*
Y00911*
G37*
G36*
X-00169D02*
X-00225D01*
Y00881*
X-00192*
X-00183Y00883*
X-00176Y00888*
X-00171Y00895*
X-00169Y00904*
Y00911*
G37*
G36*
X-00235D02*
X-0029D01*
Y00904*
X-00288Y00895*
X-00283Y00888*
X-00276Y00883*
X-00267Y00881*
X-00235*
Y00911*
G37*
G36*
X-00825Y00935D02*
X-00846Y0091D01*
X-00851Y00902*
X-00852Y00894*
X-00849Y00885*
X-00844Y00878*
X-00838Y00873*
X-00802Y00915*
X-00825Y00935*
G37*
G36*
X00823Y00933D02*
X008Y00913D01*
X00836Y00871*
X00842Y00876*
X00848Y00883*
X0085Y00892*
X00849Y00901*
X00844Y00909*
X00823Y00933*
G37*
G36*
X-00794Y00908D02*
X-00831Y00866D01*
X-00825Y00861*
X-00817Y00857*
X-00808Y00856*
X-008Y00858*
X-00793Y00864*
X-00771Y00888*
X-00794Y00908*
G37*
G36*
X00793Y00907D02*
X0077Y00887D01*
X00791Y00862*
X00798Y00857*
X00807Y00854*
X00816Y00855*
X00823Y0086*
X00829Y00865*
X00793Y00907*
G37*
G36*
X00267Y00853D02*
X00192D01*
X00185Y00852*
X00179Y00848*
X00178Y00847*
X00157*
X00156Y00847*
X00148Y0085*
X00141*
X00133Y00847*
X00126Y00844*
X0012Y00838*
X00119Y00835*
X0007*
X00064Y00834*
X00059Y0083*
X00034Y00805*
X0003Y008*
X00029Y00795*
Y00626*
X-00036Y0056*
X-0018*
X-00185Y00559*
X-0019Y00555*
X-00232Y00513*
X-00236Y00508*
X-00237Y00503*
Y00407*
X-00244Y004*
X-00248*
X-00278*
X-00283*
X-00317*
Y00329*
X-0031*
Y00305*
X-0031Y00301*
X-00307Y00297*
X-00277Y00267*
X-00274Y00265*
X-00274Y00265*
X-00275Y00255*
X-00371*
X-00379Y00263*
Y00324*
X-00365*
X-00361Y00326*
X-00359Y0033*
Y00405*
X-00361Y00408*
X-00365Y0041*
X-00365*
X-00365Y0041*
X-0044*
X-00444Y00409*
X-00445Y00405*
Y0033*
X-00444Y00326*
X-0044Y00324*
X-0044*
X-0044Y00324*
X-0043*
Y00253*
X-00428Y00243*
X-00423Y00235*
X-00399Y00211*
X-00391Y00206*
X-00381Y00204*
X-002*
X-00196Y00202*
X-00188Y002*
X-00181*
X-00173Y00202*
X-00166Y00205*
X-0016Y00211*
X-00157Y00218*
X-00155Y00224*
X-00155Y00226*
X-00145Y00225*
X-00145Y00224*
Y-00224*
X-00147Y-00226*
X-00149Y-00232*
Y-00237*
X-00147Y-00243*
X-00143Y-00247*
X-00137Y-00249*
X-00132*
X-00126Y-00247*
X-00122Y-00243*
X-0012Y-00237*
Y-00232*
X-00121Y-00229*
X-0012Y-00224*
X-00119Y-00223*
X-00109Y-00219*
X-00107Y-00219*
X-00102*
X-00096Y-00217*
X-00092Y-00213*
X-0009Y-00207*
Y-00202*
X-00092Y-00196*
X-00094Y-00194*
Y0027*
X-00095Y00273*
X-00097Y00277*
X-00117Y00297*
X-00121Y00299*
X-00125Y003*
X-00235*
X-00248Y00313*
X-00248Y00324*
X-00243Y00329*
X-00234*
X-00209*
X-00202Y00326*
X-00199Y00321*
X-00199Y00321*
X-00198Y00321*
X-00198Y00321*
X-00195Y00319*
X-0012*
X-00116Y00321*
X-00114Y00325*
Y004*
X-00116Y00403*
X-00116Y00403*
X-00116Y00404*
X-0012Y00405*
X-00195*
X-00196Y00405*
X-00206Y00409*
Y00496*
X-00173Y00529*
X-0003*
X-00024Y0053*
X-00019Y00534*
X00055Y00609*
X00059Y00614*
X0006Y0062*
Y00788*
X00076Y00804*
X00119*
X0012Y00801*
X00126Y00795*
X00133Y00792*
X00141Y0079*
X00148*
X00156Y00792*
X00163Y00795*
X00163Y00796*
X00183*
X00185Y00794*
X00192Y00793*
X00267*
X00274Y00794*
X0028Y00798*
X00283Y00804*
X00285Y0081*
Y00835*
X00283Y00842*
X0028Y00848*
X00274Y00852*
X00267Y00853*
G37*
G36*
X-00661Y00945D02*
X-00668D01*
X-00676Y00942*
X-00683Y00939*
X-00689Y00933*
X-00692Y00926*
X-00695Y00918*
Y00918*
X-00708Y00905*
X-00713Y00903*
X-00719Y00899*
X-00768Y00842*
X-00772Y00836*
X-00772Y00829*
X-00771Y00823*
X-00766Y00817*
X-00747Y00801*
X-00741Y00797*
X-00735Y00796*
X-00728Y00798*
X-00722Y00802*
X-00673Y00859*
X-0067Y00865*
X-00669Y00871*
X-00654Y00886*
X-00653Y00887*
X-00646Y0089*
X-0064Y00896*
X-00637Y00903*
X-00635Y00911*
Y00918*
X-00637Y00926*
X-0064Y00933*
X-00646Y00939*
X-00653Y00942*
X-00661Y00945*
G37*
G36*
X00333Y00863D02*
X00326D01*
X00318Y0086*
X00311Y00857*
X00305Y00851*
X00302Y00844*
X003Y00836*
Y00829*
X00302Y00821*
X00305Y00814*
X00311Y00808*
X00318Y00805*
X00326Y00803*
X00333*
X00335Y00803*
X00337Y00802*
X00361*
X00364Y00798*
X0037Y00794*
X00377Y00793*
X00452*
X00459Y00794*
X00465Y00798*
X00468Y00804*
X0047Y0081*
Y00835*
X00468Y00842*
X00465Y00848*
X00459Y00852*
X00452Y00853*
X0041*
X0041Y00853*
X00351*
X00348Y00857*
X00341Y0086*
X00333Y00863*
G37*
G36*
X-0052Y00886D02*
X-0058D01*
X-00589Y00885*
X-00598Y00879*
X-00598Y00879*
X-00602*
Y00872*
X-00603Y00871*
X-00605Y00861*
X-00603Y00851*
X-00602Y0085*
Y00843*
X-00598*
X-00598Y00843*
X-00589Y00837*
X-0058Y00835*
X-00551*
X-0055Y00835*
X-00544Y00825*
X-00545Y00823*
Y00816*
X-00542Y00808*
X-00539Y00801*
X-00533Y00795*
X-00526Y00792*
X-00518Y0079*
X-00511*
X-00503Y00792*
X-005Y00793*
X-00465*
X-00465Y00793*
X-00459Y00789*
X-00452Y00788*
X-00377*
X-0037Y00789*
X-00364Y00793*
X-00361Y00799*
X-00359Y00805*
Y0083*
X-00361Y00837*
X-00364Y00843*
X-0037Y00847*
X-00377Y00848*
X-00452*
X-00459Y00847*
X-00463Y00844*
X-00491*
Y00858*
X-00493Y00868*
X-00497Y00873*
Y00879*
X-00501*
X-00501Y00879*
X-0051Y00885*
X-0052Y00886*
G37*
G36*
X-00306Y00853D02*
X-00313D01*
X-00321Y0085*
X-00328Y00847*
X-00334Y00841*
X-00337Y00834*
X-0034Y00826*
Y00819*
X-00337Y00811*
X-00334Y00804*
X-00328Y00798*
X-00321Y00795*
X-00313Y00793*
X-00306*
X-00298Y00795*
X-00297Y00795*
X-00281*
X-0028Y00793*
X-00274Y00789*
X-00267Y00788*
X-00192*
X-00185Y00789*
X-00179Y00793*
X-00176Y00799*
X-00174Y00805*
Y0083*
X-00176Y00837*
X-00179Y00843*
X-00185Y00847*
X-00192Y00848*
X-00267*
X-00274Y00847*
X-00275Y00846*
X-00291*
X-00291Y00847*
X-00298Y0085*
X-00306Y00853*
G37*
G36*
X-00903Y00835D02*
X-00911Y00833D01*
X-00918Y00827*
X-0094Y00803*
X-00917Y00783*
X-0088Y00825*
X-00886Y00829*
X-00894Y00834*
X-00903Y00835*
G37*
G36*
X00901Y00833D02*
X00892Y00832D01*
X00884Y00828*
X00879Y00823*
X00915Y00781*
X00938Y00801*
X00917Y00826*
X0091Y00831*
X00901Y00833*
G37*
G36*
X-00786Y008D02*
X-00793D01*
X-00801Y00797*
X-00808Y00794*
X-00814Y00788*
X-00817Y00781*
X-00819Y00774*
X-00828Y00765*
X-00828Y00765*
X-00835Y00764*
X-0084Y00759*
X-00889Y00703*
X-00893Y00697*
X-00894Y0069*
X-00892Y00683*
X-00888Y00677*
X-00869Y00661*
X-00863Y00658*
X-00856Y00657*
X-00849Y00659*
X-00844Y00663*
X-00794Y00719*
X-00791Y00725*
X-0079Y00731*
X-0078Y00741*
X-00778Y00742*
X-00771Y00745*
X-00765Y00751*
X-00762Y00758*
X-0076Y00766*
Y00773*
X-00762Y00781*
X-00765Y00788*
X-00771Y00794*
X-00778Y00797*
X-00786Y008*
G37*
G36*
X00638Y00955D02*
X00583D01*
X00573Y00953*
X00572Y00952*
X00565*
Y00948*
X00565Y00948*
X00559Y00939*
X00558Y0093*
X00559Y0092*
X00565Y00911*
X00565Y00911*
Y00907*
X00571*
X00575Y00905*
X00577Y00895*
X00571Y00892*
X00565*
Y00888*
X00565Y00888*
X00559Y00879*
X00558Y0087*
Y00857*
X00559Y00847*
X00565Y00839*
X00594Y0081*
X00593Y00806*
X00594Y00799*
X00597Y00793*
X00646Y00736*
X00652Y00732*
X00654Y00731*
X00665Y00721*
Y00721*
X00667Y00713*
X0067Y00706*
X00676Y007*
X00683Y00697*
X00691Y00695*
X00698*
X00706Y00697*
X00713Y007*
X00719Y00706*
X00722Y00713*
X00725Y00721*
Y00728*
X00722Y00736*
X00719Y00743*
X00713Y00749*
X00706Y00752*
X00705Y00753*
X00696Y00762*
X00696Y00763*
X00695Y0077*
X00692Y00776*
X00668Y00803*
X00668Y00805*
X00663Y00813*
X00609Y00867*
Y0087*
X00607Y00879*
X00601Y00888*
X00601Y00888*
Y00892*
X00597*
X00595Y00894*
X00599Y00904*
X00628*
X00668Y00864*
X00668Y00864*
X00671Y00857*
X0072Y00801*
X00726Y00797*
X00733Y00795*
X00734Y00795*
X0074Y00789*
X00742Y00783*
X00745Y00776*
X00751Y0077*
X00758Y00767*
X00766Y00765*
X00773*
X00781Y00767*
X00788Y0077*
X00794Y00776*
X00797Y00783*
X008Y00791*
Y00798*
X00797Y00806*
X00794Y00813*
X00788Y00819*
X00781Y00822*
X00777Y00823*
X0077Y0083*
X0077Y00835*
X00766Y00841*
X00717Y00897*
X00712Y00902*
X00705Y00903*
X00701Y00903*
X00656Y00948*
X00648Y00953*
X00638Y00955*
G37*
G36*
X-00873Y00818D02*
X-00909Y00776D01*
X-00886Y00756*
X-00865Y00781*
X-0086Y00788*
X-00859Y00797*
X-00862Y00806*
X-00867Y00813*
X-00873Y00818*
G37*
G36*
X00871Y00816D02*
X00865Y00811D01*
X0086Y00804*
X00858Y00796*
X00859Y00787*
X00863Y00779*
X00884Y00755*
X00907Y00775*
X00871Y00816*
G37*
G36*
X00267Y00755D02*
X00192D01*
X00185Y00753*
X0018Y0075*
X0016*
X00156Y00752*
X00148Y00755*
X00141*
X00133Y00752*
X00126Y00749*
X0012Y00743*
X00117Y00736*
X00115Y00728*
Y00721*
X00117Y00713*
X0012Y00706*
X00126Y007*
X00133Y00697*
X00141Y00695*
X00148*
X00156Y00697*
X0016Y00699*
X0018*
X00185Y00696*
X00192Y00694*
X00267*
X00274Y00696*
X0028Y00699*
X00283Y00705*
X00285Y00712*
Y00737*
X00283Y00744*
X0028Y0075*
X00274Y00753*
X00267Y00755*
G37*
G36*
X00452D02*
X00377D01*
X0037Y00753*
X00365Y0075*
X00345*
X00341Y00752*
X00333Y00755*
X00326*
X00318Y00752*
X00311Y00749*
X00305Y00743*
X00302Y00736*
X003Y00728*
Y00721*
X00302Y00713*
X00305Y00706*
X00311Y007*
X00318Y00697*
X00326Y00695*
X00333*
X00341Y00697*
X00345Y00699*
X00365*
X0037Y00696*
X00377Y00694*
X00452*
X00459Y00696*
X00465Y00699*
X00468Y00705*
X0047Y00712*
Y00737*
X00468Y00744*
X00465Y0075*
X00459Y00753*
X00452Y00755*
G37*
G36*
X-00192Y0075D02*
X-00267D01*
X-00274Y00748*
X-0028Y00745*
X-0028Y00743*
X-00296*
X-00298Y00744*
X-00306Y00747*
X-00313*
X-00321Y00744*
X-00328Y00741*
X-00334Y00735*
X-00337Y00728*
X-0034Y0072*
Y00713*
X-00337Y00705*
X-00334Y00698*
X-00328Y00692*
X-00321Y00689*
X-00313Y00687*
X-00306*
X-00298Y00689*
X-00291Y00692*
X-00291Y00693*
X-00277*
X-00274Y00691*
X-00267Y00689*
X-00192*
X-00185Y00691*
X-00179Y00694*
X-00176Y007*
X-00174Y00707*
Y00732*
X-00176Y00739*
X-00179Y00745*
X-00185Y00748*
X-00192Y0075*
G37*
G36*
X-00558Y00781D02*
X-00567Y00779D01*
X-00574Y00773*
X-00595Y00749*
X-00573Y00729*
X-00536Y0077*
X-00542Y00775*
X-0055Y0078*
X-00558Y00781*
G37*
G36*
X00557Y00779D02*
X00548Y00778D01*
X0054Y00774*
X00534Y00769*
X00571Y00727*
X00594Y00747*
X00572Y00771*
X00565Y00777*
X00557Y00779*
G37*
G36*
X-00916Y00769D02*
X-00952Y00727D01*
X-00946Y00722*
X-00939Y00717*
X-0093Y00716*
X-00921Y00719*
X-00914Y00724*
X-00893Y00749*
X-00916Y00769*
G37*
G36*
X00914Y00767D02*
X00891Y00747D01*
X00912Y00722*
X00919Y00717*
X00928Y00715*
X00937Y00716*
X00945Y0072*
X0095Y00725*
X00914Y00767*
G37*
G36*
X00527Y00762D02*
X00521Y00757D01*
X00516Y0075*
X00513Y00742*
X00514Y00733*
X00519Y00725*
X0054Y007*
X00563Y0072*
X00527Y00762*
G37*
G36*
X-00632Y0084D02*
X-00639Y00839D01*
X-00645Y00834*
X-00694Y00778*
X-00697Y00772*
X-00698Y00765*
X-00697Y00762*
X-00715Y00745*
X-00716Y00744*
X-00723Y00741*
X-00729Y00735*
X-00732Y00728*
X-00735Y0072*
Y00713*
X-00732Y00705*
X-0073Y007*
X-00737Y00693*
X-00741Y00696*
X-00747Y007*
X-00754Y00701*
X-0076Y00699*
X-00766Y00695*
X-00815Y00638*
X-00816Y00637*
X-00825Y00632*
X-00829Y00632*
X-00836Y00634*
X-0093*
X-00939Y00632*
X-00948Y00626*
X-00948Y00626*
X-00952*
Y00619*
X-00953Y00618*
X-00955Y00608*
X-00953Y00598*
X-00952Y00597*
Y0059*
X-00948*
X-00948Y0059*
X-00939Y00584*
X-0093Y00583*
X-00846*
X-00833Y00569*
X-00832Y00568*
X-00829Y00561*
X-00823Y00555*
X-00816Y00552*
X-00808Y0055*
X-00801*
X-00793Y00552*
X-00786Y00555*
X-0078Y00561*
X-00777Y00568*
X-00775Y00576*
Y00583*
X-00776Y00591*
X-0075Y00618*
X-00744Y00626*
X-00744Y00628*
X-0072Y00655*
X-00717Y00661*
X-00716Y00668*
X-00718Y00675*
X-00722Y0068*
X-00723Y00681*
X-00717Y00689*
X-00716Y00689*
X-00708Y00687*
X-00701*
X-00693Y00689*
X-00686Y00692*
X-0068Y00698*
X-00677Y00705*
X-00675Y00713*
Y00713*
X-00654Y00733*
X-00654Y00734*
X-00648Y00738*
X-00636Y00752*
X-00628Y00759*
X-00625Y00765*
X-00599Y00794*
X-00595Y00801*
X-00594Y00807*
X-00596Y00814*
X-00601Y0082*
X-00619Y00836*
X-00625Y0084*
X-00632Y0084*
G37*
G36*
X-00529Y00764D02*
X-00565Y00722D01*
X-00542Y00702*
X-0053Y00716*
X-00525Y00716*
X-00519Y00713*
X-00517Y00708*
X-00514Y00701*
X-00508Y00695*
X-00501Y00692*
X-00493Y0069*
X-00486*
X-00478Y00692*
X-00474Y00694*
X-00464*
X-00459Y00691*
X-00452Y00689*
X-00377*
X-0037Y00691*
X-00364Y00694*
X-00361Y007*
X-00359Y00707*
Y00732*
X-00361Y00739*
X-00364Y00745*
X-0037Y00748*
X-00377Y0075*
X-00452*
X-00459Y00748*
X-00464Y00745*
X-00474*
X-00478Y00747*
X-00486Y0075*
X-00493*
X-00501Y00747*
X-00506Y00745*
X-00514Y00747*
X-00517Y00749*
X-00517Y00752*
X-00523Y00759*
X-00529Y00764*
G37*
G36*
X-00602Y00741D02*
X-00623Y00716D01*
X-00628Y00709*
X-00629Y007*
X-00627Y00691*
X-00621Y00684*
X-00615Y00679*
X-00579Y00721*
X-00602Y00741*
G37*
G36*
X006Y00739D02*
X00577Y00719D01*
X00614Y00678*
X00619Y00683*
X00625Y0069*
X00627Y00698*
X00626Y00707*
X00622Y00715*
X006Y00739*
G37*
G36*
X-00572Y00714D02*
X-00608Y00673D01*
X-00602Y00668*
X-00594Y00663*
X-00586Y00662*
X-00577Y00664*
X-0057Y0067*
X-00549Y00694*
X-00572Y00714*
G37*
G36*
X0057Y00713D02*
X00547Y00693D01*
X00568Y00668*
X00575Y00663*
X00584Y00661*
X00593Y00662*
X006Y00666*
X00606Y00671*
X0057Y00713*
G37*
G36*
X00452Y00662D02*
X0042D01*
Y00631*
X00475*
Y00639*
X00473Y00647*
X00468Y00655*
X00461Y0066*
X00452Y00662*
G37*
G36*
X00267D02*
X00235D01*
Y00631*
X0029*
Y00639*
X00288Y00647*
X00283Y00655*
X00276Y0066*
X00267Y00662*
G37*
G36*
X0041D02*
X00377D01*
X00368Y0066*
X00361Y00655*
X00356Y00647*
X00354Y00639*
Y00631*
X0041*
Y00662*
G37*
G36*
X00225D02*
X00192D01*
X00183Y0066*
X00176Y00655*
X00171Y00647*
X00169Y00639*
Y00631*
X00225*
Y00662*
G37*
G36*
X-00192Y00657D02*
X-00225D01*
Y00626*
X-00169*
Y00634*
X-00171Y00642*
X-00176Y0065*
X-00183Y00655*
X-00192Y00657*
G37*
G36*
X-00377D02*
X-0041D01*
Y00626*
X-00354*
Y00634*
X-00356Y00642*
X-00361Y0065*
X-00368Y00655*
X-00377Y00657*
G37*
G36*
X-00235D02*
X-00267D01*
X-00276Y00655*
X-00283Y0065*
X-00288Y00642*
X-0029Y00634*
Y00626*
X-00235*
Y00657*
G37*
G36*
X-0042D02*
X-00452D01*
X-00461Y00655*
X-00468Y0065*
X-00473Y00642*
X-00475Y00634*
Y00626*
X-0042*
Y00657*
G37*
G36*
X00826Y00764D02*
X00819Y00763D01*
X00813Y00759*
X00794Y00743*
X0079Y00738*
X00788Y00731*
X00789Y00724*
X00793Y00718*
X00816Y00691*
X00817Y00689*
X00822Y00681*
X00865Y00638*
Y00631*
X00867Y00623*
X0087Y00616*
X00876Y0061*
X00883Y00607*
X00891Y00605*
X00898*
X00906Y00607*
X00913Y0061*
X00919Y00616*
X00922Y00623*
X00925Y00631*
Y00638*
X00922Y00646*
X00919Y00653*
X00916Y00655*
X00916Y00656*
X00911Y00664*
X00891Y00684*
X00892Y00688*
X00891Y00695*
X00888Y00701*
X00838Y00758*
X00833Y00762*
X00826Y00764*
G37*
G36*
X00475Y00621D02*
X0042D01*
Y00591*
X00452*
X00461Y00592*
X00468Y00597*
X00473Y00605*
X00475Y00614*
Y00621*
G37*
G36*
X0041D02*
X00354D01*
Y00614*
X00356Y00605*
X00361Y00597*
X00368Y00592*
X00377Y00591*
X0041*
Y00621*
G37*
G36*
X0029D02*
X00235D01*
Y00591*
X00267*
X00276Y00592*
X00283Y00597*
X00288Y00605*
X0029Y00614*
Y00621*
G37*
G36*
X00225D02*
X00169D01*
Y00614*
X00171Y00605*
X00176Y00597*
X00183Y00592*
X00192Y00591*
X00225*
Y00621*
G37*
G36*
X-0068Y00641D02*
X-00688Y00639D01*
X-00696Y00633*
X-00717Y00609*
X-00694Y00589*
X-00658Y00631*
X-00663Y00636*
X-00671Y0064*
X-0068Y00641*
G37*
G36*
X00678Y0064D02*
X00669Y00639D01*
X00661Y00634*
X00656Y00629*
X00692Y00587*
X00715Y00607*
X00694Y00632*
X00687Y00637*
X00678Y0064*
G37*
G36*
X-00169Y00616D02*
X-00225D01*
Y00586*
X-00192*
X-00183Y00587*
X-00176Y00592*
X-00171Y006*
X-00169Y00609*
Y00616*
G37*
G36*
X-00235D02*
X-0029D01*
Y00609*
X-00288Y006*
X-00283Y00592*
X-00276Y00587*
X-00267Y00586*
X-00235*
Y00616*
G37*
G36*
X-00354D02*
X-0041D01*
Y00586*
X-00377*
X-00368Y00587*
X-00361Y00592*
X-00356Y006*
X-00354Y00609*
Y00616*
G37*
G36*
X-0042D02*
X-00475D01*
Y00609*
X-00473Y006*
X-00468Y00592*
X-00461Y00587*
X-00452Y00586*
X-0042*
Y00616*
G37*
G36*
X-0065Y00624D02*
X-00686Y00582D01*
X-00663Y00562*
X-00642Y00587*
X-00638Y00595*
X-00636Y00604*
X-00639Y00612*
X-00644Y00619*
X-0065Y00624*
G37*
G36*
X00648Y00623D02*
X00643Y00618D01*
X00637Y00611*
X00635Y00602*
X00636Y00593*
X0064Y00585*
X00662Y00561*
X00685Y00581*
X00648Y00623*
G37*
G36*
X00752Y00699D02*
X00745Y00698D01*
X00739Y00695*
X0072Y00678*
X00716Y00673*
X00714Y00666*
X00715Y00659*
X00718Y00653*
X00742Y00626*
X00742Y00624*
X00748Y00616*
X0078Y00584*
Y00581*
X00782Y00573*
X00785Y00566*
X00791Y0056*
X00798Y00557*
X00806Y00555*
X00813*
X00821Y00557*
X00828Y0056*
X00834Y00566*
X00837Y00573*
X0084Y00581*
Y00588*
X00837Y00596*
X00834Y00603*
X00828Y00609*
X00826Y00609*
X00826Y0061*
X00817Y00619*
X00818Y00624*
X00817Y0063*
X00813Y00636*
X00764Y00693*
X00759Y00697*
X00752Y00699*
G37*
G36*
X00195Y00405D02*
X0012D01*
X00116Y00403*
X00114Y004*
Y00375*
X00112Y00373*
X0011Y00367*
Y00362*
X00112Y00356*
X00114Y00354*
Y00325*
X00116Y00321*
X0012Y00319*
X00195*
X00198Y00321*
X002Y00325*
Y004*
X00198Y00403*
X00195Y00405*
G37*
G36*
X-00412Y00149D02*
X-00417D01*
X-00423Y00147*
X-00427Y00143*
X-00429Y00137*
Y00132*
X-00427Y00126*
X-00423Y00122*
X-00417Y0012*
X-00412*
X-00406Y00122*
X-00402Y00126*
X-004Y00132*
Y00137*
X-00402Y00143*
X-00406Y00147*
X-00412Y00149*
G37*
G36*
X-00392Y00114D02*
X-00397D01*
X-00403Y00112*
X-00407Y00108*
X-00409Y00102*
Y00097*
X-00407Y00091*
X-00403Y00087*
X-00397Y00085*
X-00392*
X-00391Y00084*
X-00387Y00078*
X-00386Y00076*
X-00388Y00071*
Y00065*
X-00386Y0006*
X-00382Y00056*
X-00376Y00053*
X-0037*
X-00365Y00056*
X-00361Y0006*
X-00358Y00065*
Y00071*
X-00361Y00077*
X-00365Y00081*
X-0037Y00083*
X-00376*
X-00377Y00084*
X-00381Y0009*
X-00382Y00091*
X-0038Y00097*
Y00102*
X-00382Y00108*
X-00386Y00112*
X-00392Y00114*
G37*
G36*
X00305Y-00406D02*
X00294D01*
X00283Y-00409*
X00272Y-00414*
X00264Y-00422*
X00259Y-00433*
X00256Y-00444*
Y-00455*
X00259Y-00466*
X00264Y-00477*
X00272Y-00485*
X00283Y-0049*
X00294Y-00493*
X00305*
X00316Y-0049*
X00327Y-00485*
X00335Y-00477*
X0034Y-00466*
X00343Y-00455*
Y-00444*
X0034Y-00433*
X00335Y-00422*
X00327Y-00414*
X00316Y-00409*
X00305Y-00406*
G37*
G36*
Y-00506D02*
X00294D01*
X00283Y-00509*
X00272Y-00514*
X00264Y-00522*
X00259Y-00533*
X00256Y-00544*
Y-00555*
X00259Y-00566*
X00264Y-00577*
X00272Y-00585*
X00283Y-0059*
X00294Y-00593*
X00305*
X00316Y-0059*
X00327Y-00585*
X00335Y-00577*
X0034Y-00566*
X00343Y-00555*
Y-00544*
X0034Y-00533*
X00335Y-00522*
X00327Y-00514*
X00316Y-00509*
X00305Y-00506*
G37*
G36*
X00132Y-00555D02*
X00127D01*
X00121Y-00557*
X00117Y-00561*
X00115Y-00567*
Y-00572*
X00115Y-00574*
X00111Y-00583*
X0011Y-00584*
X00108*
Y-00618*
X00151*
Y-00584*
X0015*
X00148Y-00583*
X00144Y-00574*
X00144Y-00572*
Y-00567*
X00142Y-00561*
X00138Y-00557*
X00132Y-00555*
G37*
G36*
X-00844Y-00555D02*
X-0085D01*
X-00853Y-00556*
X-00855Y-00557*
X-00857Y-0056*
X-00858Y-00563*
X-00867Y-0057*
X-00872*
X-00878Y-00572*
X-00882Y-00576*
X-00884Y-00582*
Y-00587*
X-00882Y-00593*
X-00878Y-00597*
X-00872Y-00599*
X-00867*
X-00858Y-00607*
Y-00619*
X-00857Y-00622*
X-00855Y-00624*
X-00853Y-00626*
X-0085Y-00627*
X-00844*
X-00841Y-00626*
X-00839Y-00624*
X-00837Y-00622*
X-00836Y-00619*
Y-00563*
X-00837Y-0056*
X-00839Y-00557*
X-00841Y-00556*
X-00844Y-00555*
G37*
G36*
X00865Y-00588D02*
X00794D01*
Y-00622*
X00787Y-00629*
X00775*
X00772Y-0063*
X00772*
X00771Y-0063*
X00769Y-0063*
X00767Y-00632*
X00766Y-00632*
X00766Y-00632*
X00764Y-00634*
X00763Y-00634*
X00745*
X00741Y-00635*
X00737Y-00637*
X00727Y-00647*
X00725Y-00651*
X00724Y-00655*
Y-00685*
X00705Y-00704*
X0067*
Y-00634*
X0067*
Y-0061*
X00669Y-00607*
Y-00607*
X00669Y-00606*
X00669Y-00604*
X00667Y-00602*
X00667Y-00601*
X00667Y-00601*
X00665Y-00599*
X00663Y-00597*
X00663Y-00597*
X00662Y-00597*
X0066Y-00595*
X00658Y-00595*
X00657Y-00595*
X00657*
X00655Y-00594*
X00652Y-00595*
X00652*
X00651Y-00595*
X00649Y-00595*
X00647Y-00597*
X00646Y-00597*
X00646Y-00597*
X00644Y-00599*
X00642Y-00601*
X00642Y-00601*
X00642Y-00602*
X0064Y-00604*
X0064Y-00606*
X0064Y-00607*
X0063Y-00607*
X00629Y-00607*
X00629Y-00606*
X00629Y-00604*
X00627Y-00602*
X00627Y-00601*
X00627Y-00601*
X00625Y-00599*
X00623Y-00597*
X00623Y-00597*
X00622Y-00597*
X0062Y-00595*
X00618Y-00595*
X00617Y-00595*
X00617*
X00615Y-00594*
X00612Y-00595*
X00612*
X00611Y-00595*
X00609Y-00595*
X00607Y-00597*
X00606Y-00597*
X00606Y-00597*
X00604Y-00599*
X00603Y-00599*
X00602Y-00601*
X00602Y-00601*
X00602Y-00601*
X006Y-00604*
X00599Y-0061*
Y-00627*
X00592Y-00634*
X00587*
X00555*
X00548*
X00516*
X00509*
X00479*
Y-00654*
X00343*
Y-00644*
X0034Y-00633*
X00335Y-00622*
X00327Y-00614*
X00316Y-00609*
X00305Y-00606*
X00294*
X00283Y-00609*
X00272Y-00614*
X00264Y-00622*
X00259Y-00633*
X00256Y-00644*
Y-00655*
X00259Y-00666*
X00264Y-00677*
X00272Y-00685*
X00283Y-0069*
X00294Y-00693*
X00305*
X00316Y-0069*
X00327Y-00685*
X00328Y-00683*
X00329Y-00684*
X00335Y-00685*
X00479*
Y-00705*
X00484*
Y-00737*
X00473Y-00748*
X00454*
Y-00791*
X00461*
Y-00911*
X00462Y-00915*
X00464Y-00918*
X00482Y-00937*
X00486Y-00939*
X0049Y-0094*
X0061*
X00613Y-00939*
X00617Y-00937*
X00643Y-0091*
X00645Y-00907*
X00646Y-00903*
Y-00893*
X00714*
Y-00804*
X0071Y-00796*
Y-00753*
X00704Y-00743*
X00704Y-00742*
Y-00737*
X00704Y-00735*
X00708Y-00726*
X00709Y-00725*
X0071*
X00713Y-00724*
X00717Y-00722*
X00742Y-00697*
X00744Y-00693*
X00745Y-0069*
Y-00659*
X00749Y-00655*
X00763*
X00764Y-00655*
X00766Y-00657*
X00766Y-00657*
X00767Y-00657*
X00769Y-00659*
X00771Y-00659*
X00772Y-00659*
X00772Y-00669*
X00772Y-0067*
X00771Y-0067*
X00769Y-0067*
X00767Y-00672*
X00766Y-00672*
X00766Y-00672*
X00764Y-00674*
X00762Y-00676*
X00762Y-00676*
X00762Y-00677*
X0076Y-00679*
X0076Y-00681*
X0076Y-00682*
Y-00682*
X00759Y-00685*
X0076Y-00687*
Y-00687*
X0076Y-00688*
X0076Y-0069*
X00762Y-00692*
X00762Y-00693*
X00762Y-00693*
X00764Y-00695*
X00766Y-00697*
X00766Y-00697*
X00767Y-00697*
X00769Y-00699*
X0077Y-00709*
X0077Y-00709*
X0077Y-00709*
X00765Y-00712*
X00764Y-00714*
X00762Y-00716*
X00762Y-00716*
X00762Y-00717*
X0076Y-00719*
X0076Y-00721*
X0076Y-00722*
Y-00722*
X00759Y-00725*
X0076Y-00727*
Y-00727*
X0076Y-00728*
X0076Y-0073*
X00762Y-00732*
X00762Y-00733*
X00762Y-00733*
X00764Y-00735*
X00766Y-00737*
X00766Y-00737*
X00767Y-00737*
X00769Y-00739*
X00771Y-00739*
X00772Y-00739*
X00772*
X00775Y-0074*
X00777Y-00739*
X00777*
X00778Y-00739*
X0078Y-00739*
X0078Y-00739*
X00794*
Y-0074*
X00865*
Y-00704*
Y-00696*
Y-00664*
Y-00657*
Y-00628*
Y-00622*
Y-00588*
G37*
G36*
X00305Y-00706D02*
X00294D01*
X00283Y-00709*
X00272Y-00714*
X00264Y-00722*
X00259Y-00733*
X00256Y-00744*
Y-00755*
X00259Y-00766*
X00264Y-00777*
X00272Y-00785*
X00283Y-0079*
X00294Y-00793*
X00305*
X00316Y-0079*
X00327Y-00785*
X00335Y-00777*
X0034Y-00766*
X00343Y-00755*
Y-00744*
X0034Y-00733*
X00335Y-00722*
X00327Y-00714*
X00316Y-00709*
X00305Y-00706*
G37*
G36*
X-00917Y-0063D02*
X-00922D01*
X-00928Y-00632*
X-00932Y-00636*
X-00934Y-00642*
Y-00647*
X-00942Y-00656*
X-00951*
X-00954Y-00657*
X-00957Y-00659*
X-00958Y-00661*
X-00959Y-00664*
Y-0067*
X-00958Y-00673*
X-00957Y-00677*
X-00958Y-00681*
X-00959Y-00684*
Y-00689*
X-00958Y-00692*
X-00957Y-00696*
X-00958Y-007*
X-00959Y-00703*
Y-00709*
X-00958Y-00712*
X-00957Y-00716*
X-00958Y-0072*
X-00959Y-00723*
Y-00729*
X-00958Y-00732*
X-00957Y-00736*
X-00958Y-0074*
X-00959Y-00743*
Y-00748*
X-00958Y-00751*
X-00957Y-00755*
X-00958Y-0076*
X-00959Y-00763*
Y-00768*
X-00958Y-00771*
X-00957Y-00775*
X-00958Y-00779*
X-00959Y-00782*
Y-00788*
X-00958Y-00791*
X-00957Y-00795*
X-00958Y-00799*
X-00959Y-00802*
Y-00807*
X-00958Y-0081*
X-00957Y-00815*
X-00958Y-00819*
X-00959Y-00822*
Y-00827*
X-00958Y-0083*
X-00957Y-00834*
X-00958Y-00838*
X-00959Y-00841*
Y-00847*
X-00958Y-0085*
X-00957Y-00854*
X-00958Y-00858*
X-00959Y-00861*
Y-00866*
X-00958Y-00869*
X-00957Y-00872*
X-00954Y-00874*
X-00951Y-00874*
X-00895*
X-00893Y-00874*
X-00865*
X-00862Y-00878*
X-00862Y-00882*
X-00865Y-00888*
X-00866*
X-00872Y-00891*
X-00874Y-00893*
X-00893*
X-00895Y-00892*
X-00951*
X-00954Y-00893*
X-00957Y-00895*
X-00958Y-00897*
X-00959Y-009*
Y-00906*
X-00958Y-00909*
X-00957Y-00913*
X-00958Y-00917*
X-00959Y-0092*
Y-00926*
X-00958Y-00929*
X-00957Y-00933*
X-00958Y-00937*
X-00959Y-0094*
Y-00945*
X-00958Y-00948*
X-00957Y-00952*
X-00958Y-00956*
X-00959Y-00959*
Y-00965*
X-00958Y-00968*
X-00957Y-0097*
X-00954Y-00972*
X-00951Y-00973*
X-00942*
X-00939Y-00977*
Y-00982*
X-00937Y-00988*
X-00933Y-00992*
X-00927Y-00994*
X-00922*
X-00916Y-00992*
X-00912Y-00988*
X-0091Y-00982*
Y-00977*
X-00907Y-00973*
X-00895*
X-00892Y-00972*
X-0089Y-0097*
X-00888Y-00968*
X-00887Y-00965*
Y-00959*
X-00888Y-00956*
X-00889Y-00952*
X-00888Y-00948*
X-00887Y-00945*
Y-0094*
X-00888Y-00937*
X-00889Y-00933*
X-00888Y-00929*
X-00887Y-00926*
Y-0092*
X-00879Y-00913*
X-00879Y-00913*
X-00874*
X-00872Y-00916*
X-00866Y-00918*
X-0086*
X-00855Y-00916*
X-00851Y-00912*
X-00848Y-00906*
Y-00903*
X-00845Y-00898*
X-0084Y-00894*
X-00837*
X-00831Y-00892*
X-00827Y-00888*
X-00825Y-00882*
Y-00879*
X-00824Y-00876*
X-00817Y-00869*
X-00817*
X-00811Y-00867*
X-00807Y-00863*
X-00805Y-00857*
Y-00852*
X-00807Y-00846*
X-00806Y-00837*
X-00802Y-00833*
X-008Y-00827*
Y-00822*
X-00802Y-00816*
X-00806Y-00812*
X-00807Y-00803*
X-00805Y-00797*
Y-00792*
X-00805Y-0079*
X-00801Y-00781*
X-008Y-0078*
X-00659*
X-00614Y-00824*
Y-00827*
X-00612Y-00833*
X-00608Y-00837*
X-00602Y-00839*
X-00597*
X-00591Y-00837*
X-00587Y-00833*
X-00585Y-00827*
Y-00822*
X-00587Y-00816*
X-00591Y-00812*
X-00597Y-0081*
X-006*
X-00647Y-00762*
X-00651Y-0076*
X-00655Y-00759*
X-00842*
X-00846Y-0076*
X-00849Y-00762*
X-00862Y-00775*
X-00879*
X-00879Y-00775*
X-00887Y-00768*
Y-00763*
X-00888Y-0076*
X-00889Y-00755*
X-00888Y-00751*
X-00887Y-00748*
Y-00743*
X-00888Y-0074*
X-00889Y-00736*
X-00888Y-00732*
X-00887Y-00729*
Y-00723*
X-00888Y-0072*
X-00889Y-00716*
X-00888Y-00712*
X-00887Y-00709*
Y-00703*
X-00888Y-007*
X-00889Y-00696*
X-00888Y-00692*
X-00887Y-00689*
Y-00684*
X-00888Y-00681*
X-00889Y-00677*
X-00888Y-00673*
X-00887Y-0067*
Y-00664*
X-00888Y-00661*
X-0089Y-00659*
X-00892Y-00657*
X-00895Y-00656*
X-00897*
X-00905Y-00647*
Y-00642*
X-00907Y-00636*
X-00911Y-00632*
X-00917Y-0063*
G37*
G36*
X-00597Y-00865D02*
X-00602D01*
X-00608Y-00867*
X-00612Y-00871*
X-00614Y-00877*
Y-00882*
X-00612Y-00888*
X-00608Y-00892*
X-00602Y-00894*
X-00597*
X-00591Y-00892*
X-00587Y-00888*
X-00585Y-00882*
Y-00877*
X-00587Y-00871*
X-00591Y-00867*
X-00597Y-00865*
G37*
G36*
X-00617Y-0092D02*
X-00622D01*
X-00628Y-00922*
X-00632Y-00926*
X-00634Y-00932*
Y-00937*
X-00632Y-00943*
X-00628Y-00947*
X-00622Y-00949*
X-00617*
X-00611Y-00947*
X-00607Y-00943*
X-00605Y-00937*
Y-00932*
X-00607Y-00926*
X-00611Y-00922*
X-00617Y-0092*
G37*
G36*
X-00067Y-00937D02*
X-00132D01*
X-00137Y-00938*
X-00138Y-00939*
X-00165*
X-00167Y-0094*
X-00167*
X-00168Y-0094*
X-0017Y-0094*
X-00172Y-00942*
X-00173Y-00942*
X-00173Y-00942*
X-00175Y-00944*
X-00177Y-00946*
X-00177Y-00946*
X-00177Y-00947*
X-00179Y-00949*
X-00179Y-0095*
X-00179Y-0095*
X-00181Y-00952*
X-00187Y-00955*
X-00188Y-00955*
X-00188Y-00955*
X-00189Y-00955*
X-00191Y-00955*
X-00192Y-00955*
X-00192*
X-00195Y-00954*
X-00197Y-00955*
X-00197*
X-00198Y-00955*
X-002Y-00955*
X-00202Y-00957*
X-00203Y-00957*
X-00203Y-00957*
X-00205Y-00959*
X-00207Y-00961*
X-00207Y-00961*
X-00207Y-00962*
X-00209Y-00964*
X-00209Y-00966*
X-00209Y-00967*
Y-00967*
X-0021Y-0097*
X-00209Y-00972*
Y-00972*
X-00209Y-00973*
X-00209Y-00975*
X-00207Y-00977*
X-00207Y-00978*
X-00207Y-00978*
X-00205Y-0098*
X-0017Y-01015*
X-00165Y-01019*
X-0016Y-0102*
X-00138*
X-00137Y-01021*
X-00132Y-01022*
X-00067*
X-00062Y-01021*
X-00059Y-01018*
X-00056Y-01015*
X-00056Y-0101*
Y-00999*
X-00056Y-00994*
X-00059Y-00991*
X-00062Y-00988*
X-00067Y-00987*
X-00132*
X-00137Y-00988*
X-00138Y-00989*
X-00153*
X-00163Y-0098*
X-00158Y-0097*
X-00138*
X-00137Y-00971*
X-00132Y-00972*
X-00067*
X-00062Y-00971*
X-00059Y-00968*
X-00056Y-00965*
X-00056Y-0096*
Y-00949*
X-00056Y-00944*
X-00059Y-00941*
X-00062Y-00938*
X-00067Y-00937*
G37*
G36*
X00305Y-00906D02*
X00294D01*
X00283Y-00909*
X00272Y-00914*
X00264Y-00922*
X00259Y-00933*
X00256Y-00944*
Y-00955*
X00259Y-00966*
X00264Y-00977*
X00272Y-00985*
X00283Y-0099*
X00294Y-00993*
X00305*
X00316Y-0099*
X00327Y-00985*
X00335Y-00977*
X0034Y-00966*
X00343Y-00955*
Y-00944*
X0034Y-00933*
X00335Y-00922*
X00327Y-00914*
X00316Y-00909*
X00305Y-00906*
G37*
G36*
X00839Y-00955D02*
X0083D01*
X00821Y-00957*
X00813Y-00962*
X00807Y-00968*
X00803Y-00974*
X00802Y-00976*
X00792Y-0098*
X00787*
X00781Y-00982*
X00777Y-00986*
X00775Y-00992*
X00773Y-00998*
X00767Y-01*
X00761Y-01002*
X00757Y-01006*
X00755Y-01012*
Y-01017*
X00757Y-01023*
X00761Y-01027*
X00757Y-01031*
X00755Y-01037*
Y-01042*
X00757Y-01048*
X00761Y-01052*
X00767Y-01054*
X00772*
X00778Y-01052*
X00786Y-01057*
X00792Y-01059*
X00797*
X00803Y-01057*
X00807Y-01053*
X00811Y-01048*
X00817Y-01049*
X00822*
X00828Y-01047*
X00832Y-01043*
X00834Y-01037*
Y-01032*
X00842Y-01023*
X00848Y-01022*
X00856Y-01017*
X00862Y-01011*
X00867Y-01003*
X00869Y-00994*
Y-00985*
X00867Y-00976*
X00862Y-00968*
X00856Y-00962*
X00848Y-00957*
X00839Y-00955*
G37*
G36*
X-00844Y-01002D02*
X-0085D01*
X-00853Y-01003*
X-00855Y-01005*
X-00857Y-01007*
X-00858Y-0101*
Y-01017*
X-00867Y-01025*
X-00872*
X-00878Y-01027*
X-00882Y-01031*
X-00884Y-01037*
Y-01042*
X-00882Y-01048*
X-00878Y-01052*
X-00872Y-01054*
X-00867*
X-00858Y-01062*
Y-01066*
X-00857Y-01069*
X-00855Y-01072*
X-00853Y-01073*
X-0085Y-01074*
X-00844*
X-00841Y-01073*
X-00839Y-01072*
X-00837Y-01069*
X-00836Y-01066*
Y-0101*
X-00837Y-01007*
X-00839Y-01005*
X-00841Y-01003*
X-00844Y-01002*
G37*
%LNhsmm-3*%
%LPD*%
G36*
X-00365Y00405D02*
X-00365D01*
Y0033*
X-0044*
Y0033*
X-0044*
Y00405*
X-00365*
Y00405*
G37*
G36*
X-0012Y004D02*
X-0012D01*
Y00325*
X-00195*
Y00325*
X-00195*
Y004*
X-0012*
Y004*
G37*
G36*
X00195Y00325D02*
X0012D01*
Y004*
X00195*
Y00325*
G37*
G36*
X00627Y-00705D02*
X00631D01*
X00641*
X00645Y-00715*
X00629Y-00731*
X00627Y-00734*
X00626Y-00738*
Y-00753*
X00619*
Y-00796*
X00626*
Y-00899*
X00605Y-00919*
X00494*
X00481Y-00907*
Y-00893*
X00549*
Y-00875*
X00589*
X00591Y-00877*
X00597Y-00879*
X00602*
X00608Y-00877*
X00612Y-00873*
X00614Y-00867*
Y-00862*
X00612Y-00856*
X00608Y-00852*
X00602Y-0085*
X00597*
X00591Y-00852*
X00589Y-00854*
X00549*
Y-00804*
X00542*
Y-00791*
X00545*
Y-00749*
Y-00748*
X00545Y-00739*
X00545Y-00738*
X00547Y-00737*
X00548Y-00735*
X00548Y-00734*
X00549Y-00734*
X0055Y-00732*
X0056Y-0073*
X0056Y-0073*
X0056Y-0073*
X00562Y-00732*
X00562Y-00733*
X00562Y-00733*
X00564Y-00735*
X00566Y-00737*
X00566Y-00737*
X00567Y-00737*
X00569Y-00739*
X00571Y-00739*
X00572Y-00739*
X00572*
X00575Y-0074*
X00577Y-00739*
X00577*
X00578Y-00739*
X0058Y-00739*
X00582Y-00737*
X00583Y-00737*
X00583Y-00737*
X00585Y-00735*
X00586Y-00735*
X00587Y-00733*
X00587Y-00733*
X00587Y-00733*
X00589Y-0073*
X0059Y-00724*
Y-00711*
X00597Y-00705*
X00602*
X00627*
G37*
G54D15*
X-00221Y00365D02*
Y00503D01*
X-0018Y00545D02*
X-0003D01*
X00045Y0062D02*
Y00795D01*
X-00221Y00503D02*
X-0018Y00545D01*
X-0003D02*
X00045Y0062D01*
X0007Y0082D02*
X00145D01*
X00045Y00795D02*
X0007Y0082D01*
X00036Y-00475D02*
X0008D01*
X00035Y-00476D02*
X00036Y-00475D01*
X00094Y-01005D02*
X00165D01*
X00035D02*
X00094D01*
X-0016Y-00655D02*
Y-00615D01*
X-00173Y-00601D02*
X-0016Y-00615D01*
X-00209Y-00601D02*
X-00173D01*
X-00165Y-00855D02*
X-001D01*
X-00165Y-00905D02*
X-001D01*
X-00165Y-00955D02*
X-001D01*
X-00305Y-00445D02*
X-003Y-0045D01*
X-00345Y-00445D02*
X-00305D01*
X-00405Y-00623D02*
Y-00505D01*
X-00475Y-00635D02*
X-00416D01*
X-00405Y-00623*
Y-00505D02*
X-00345Y-00445D01*
X-00128Y-00756D02*
X-00101D01*
X-001Y-00755*
X-00146Y-00775D02*
X-00128Y-00756D01*
X-0015Y-00775D02*
X-00146D01*
X-00195Y-0082D02*
X-0018Y-00805D01*
X-001*
X-00213Y-00672D02*
X-00211Y-00673D01*
Y-00708D02*
Y-00673D01*
X00535Y-00725D02*
X00536Y-00726D01*
X00535Y-00725D02*
Y-00669D01*
X-0016Y-01005D02*
X-001D01*
X-00195Y-0097D02*
X-0016Y-01005D01*
X00575Y-00724D02*
Y-00669D01*
X00575Y-00725D02*
X00575Y-00724D01*
X00339Y00434D02*
X0034Y00435D01*
X00339Y00365D02*
Y00434D01*
X00776Y-00723D02*
X0083D01*
X00775Y-00725D02*
X00776Y-00723D01*
X00829Y-00685D02*
X0083Y-00684D01*
X00775Y-00685D02*
X00829D01*
X00775Y-00645D02*
X0083D01*
Y-00605*
X00655Y-00668D02*
Y-0061D01*
X00654Y-00669D02*
X00655Y-00668D01*
X00614Y-0061D02*
X00615Y-0061D01*
X00614Y-00669D02*
Y-0061D01*
X00335Y-00669D02*
X00496D01*
X00315Y-0065D02*
X00335Y-00669D01*
X003Y-0065D02*
X00315D01*
X0068Y-00848D02*
X00691Y-00836D01*
Y-00776*
X00526Y-00771D02*
X00528Y-0077D01*
X00515Y-00848D02*
X00526Y-00836D01*
Y-00771*
X00094Y-00955D02*
X0016D01*
X00165Y-01005D02*
X002Y-0097D01*
X0023Y-00995D02*
Y-0094D01*
X0017Y-01055D02*
X0023Y-00995D01*
X-00211Y-00708D02*
X-0021Y-0071D01*
X-00015Y-01055D02*
X00035Y-01005D01*
X00094Y-01055D02*
X0017D01*
X-001D02*
X-00015D01*
X-00211Y-0067D02*
X-00175D01*
X-00213Y-00672D02*
X-00211Y-0067D01*
X-00175D02*
X-0016Y-00655D01*
X-00213Y-00597D02*
X-00209Y-00601D01*
X00094Y-00905D02*
X00165D01*
X00094Y-00855D02*
X00165D01*
X00215Y-0085D02*
X003D01*
X00094Y-00805D02*
X0017D01*
X00215Y-0085*
G54D16*
X00929Y-00853D03*
Y-00554D03*
G54D17*
X0083Y-00802D03*
Y-00763D03*
Y-00723D03*
Y-00684D03*
Y-00645D03*
Y-00605D03*
G54D18*
X00744Y-0057D03*
X00445D03*
X-0043Y00464D03*
X-00131D03*
X0013Y00464D03*
X00429D03*
G54D19*
X00693Y-00669D03*
X00654D03*
X00614D03*
X00575D03*
X00535D03*
X00496D03*
X-00379Y00365D03*
X-0034D03*
X-003D03*
X-00261D03*
X-00221D03*
X-00182D03*
X00181Y00365D03*
X0022D03*
X0026D03*
X00299D03*
X00339D03*
X00378D03*
G54D20*
X00471Y-0077D03*
X00528D03*
X00636Y-00775D03*
X00693D03*
G54D21*
X0068Y-01061D03*
Y-00848D03*
X00515Y-01061D03*
Y-00848D03*
G54D22*
X-001Y-01055D03*
Y-01005D03*
Y-00955D03*
Y-00905D03*
Y-00855D03*
Y-00805D03*
Y-00755D03*
X00094D03*
Y-00805D03*
Y-00855D03*
Y-00905D03*
Y-00955D03*
Y-01005D03*
Y-01055D03*
G54D23*
X-00055Y-00658D03*
Y-00601D03*
X00005Y-00658D03*
Y-00601D03*
X00065Y-00657D03*
Y-006D03*
X-00025Y-00533D03*
Y-00476D03*
X-00085Y-00533D03*
Y-00476D03*
X-00145Y-00533D03*
Y-00476D03*
X-00205Y-00533D03*
Y-00476D03*
X-0052Y00918D03*
Y00861D03*
X-0058Y00918D03*
Y00861D03*
X-0093Y00608D03*
Y00551D03*
X-0087Y00608D03*
Y00551D03*
G54D24*
X0013Y-00601D03*
Y-00658D03*
X00035Y-00533D03*
Y-00476D03*
G54D25*
X-00116Y-00597D03*
Y-00672D03*
X-00213D03*
Y-00635D03*
Y-00597D03*
G54D26*
X-00476Y-00667D03*
Y-00687D03*
Y-00706D03*
Y-00726D03*
Y-00746D03*
Y-00765D03*
Y-00785D03*
Y-00805D03*
Y-00824D03*
Y-00844D03*
Y-00864D03*
Y-00883D03*
Y-00903D03*
Y-00923D03*
Y-00942D03*
Y-00962D03*
X-00923D03*
Y-00942D03*
Y-00923D03*
Y-00903D03*
Y-00883D03*
Y-00864D03*
Y-00844D03*
Y-00824D03*
Y-00805D03*
Y-00785D03*
Y-00765D03*
Y-00746D03*
Y-00726D03*
Y-00706D03*
Y-00687D03*
Y-00667D03*
G54D27*
X-00552Y-01038D03*
X-00572D03*
X-00591D03*
X-00611D03*
X-00631D03*
X-0065D03*
X-0067D03*
X-0069D03*
X-00709D03*
X-00729D03*
X-00749D03*
X-00768D03*
X-00788D03*
X-00808D03*
X-00827D03*
X-00847D03*
Y-00591D03*
X-00827D03*
X-00808D03*
X-00788D03*
X-00768D03*
X-00749D03*
X-00729D03*
X-00709D03*
X-0069D03*
X-0067D03*
X-0065D03*
X-00631D03*
X-00611D03*
X-00591D03*
X-00572D03*
X-00552D03*
G54D28*
X00914Y00774D03*
X0084Y00709D03*
X00766Y00645D03*
X00692Y0058D03*
X00793Y00914D03*
X00719Y00849D03*
X00645Y00785D03*
X0057Y0072D03*
G54D29*
X00526Y0087D03*
X00583D03*
X00526Y0093D03*
X00583D03*
G54D30*
X00415Y00921D03*
Y00823D03*
Y00725D03*
Y00626D03*
X0023Y00921D03*
Y00823D03*
Y00725D03*
Y00626D03*
X-0023Y00916D03*
Y00818D03*
Y0072D03*
Y00621D03*
X-00415Y00916D03*
Y00818D03*
Y0072D03*
Y00621D03*
G54D31*
X-00795Y00915D03*
X-00721Y00851D03*
X-00646Y00786D03*
X-00572Y00722D03*
X-00916Y00776D03*
X-00842Y00711D03*
X-00768Y00646D03*
X-00693Y00582D03*
G54D51*
X-00025Y-00476D02*
X00035D01*
X-00085D02*
X-00025D01*
X-00415Y00385D02*
X-00405Y00375D01*
Y00253D02*
Y00375D01*
Y00253D02*
X-00381Y0023D01*
X-00185*
X-003Y-0035D02*
X-0023D01*
X00645Y00777D02*
X00695Y00727D01*
Y00725D02*
Y00727D01*
X-0031Y00717D02*
X-00308Y00718D01*
X-00308Y00821D02*
X-00232D01*
X-0023Y00818*
X-0031Y00823D02*
X-00308Y00821D01*
X-00231Y00718D02*
X-0023Y0072D01*
X-00308Y00718D02*
X-00231D01*
X0041Y00828D02*
X00415Y00823D01*
X0033Y00833D02*
X00332D01*
X00337Y00828D02*
X0041D01*
X00332Y00833D02*
X00337Y00828D01*
X0077Y00795D02*
Y00795D01*
X00719Y00846D02*
Y00849D01*
Y00846D02*
X0077Y00795D01*
X00645Y00777D02*
Y00785D01*
X00766Y00634D02*
X00808Y00592D01*
Y00586D02*
Y00592D01*
Y00586D02*
X0081Y00585D01*
X00766Y00634D02*
Y00645D01*
X0084Y00699D02*
X00893Y00646D01*
Y00636D02*
X00895Y00635D01*
X0084Y00699D02*
Y00709D01*
X00893Y00636D02*
Y00646D01*
X0033Y00725D02*
X00415D01*
X00146Y00821D02*
X00228D01*
X00145Y0082D02*
X00146Y00821D01*
X00228D02*
X0023Y00823D01*
X00145Y00725D02*
X0023D01*
X00145D02*
D01*
X0023D02*
D01*
X00638Y0093D02*
X00719Y00849D01*
D01*
X00583Y0093D02*
X00638D01*
X00583Y00857D02*
Y0087D01*
X00645Y00785D02*
Y00795D01*
X00583Y00857D02*
X00645Y00795D01*
X-0087Y00608D02*
X-00836D01*
X-00768Y00636D02*
Y00646D01*
X-00803Y00601D02*
X-00768Y00636D01*
X-00803Y00581D02*
Y00601D01*
X-00805Y0058D02*
X-00803Y00581D01*
X-00807Y0058D02*
X-00805D01*
X-00836Y00608D02*
X-00807Y0058D01*
X-00646Y00777D02*
Y00786D01*
X-00705Y00719D02*
X-00646Y00777D01*
X-00705Y00717D02*
Y00719D01*
X-00516Y00821D02*
Y00858D01*
Y00821D02*
X-00515Y0082D01*
X-0052Y00861D02*
X-00516Y00858D01*
X-00415Y00819D02*
X-00415Y00818D01*
X-00514Y00819D02*
X-00415D01*
X-00515Y0082D02*
X-00514Y00819D01*
X-0049Y0072D02*
X-00415D01*
X-0058Y00861D02*
X-0052D01*
X-00665Y00912D02*
Y00915D01*
X-00721Y00851D02*
Y00856D01*
X-00665Y00912*
X-00842Y00715D02*
X-0079Y00768D01*
X-00842Y00711D02*
Y00715D01*
X-0079Y00768D02*
Y0077D01*
X-0093Y00608D02*
X-0087D01*
X00035Y-006D02*
Y-00533D01*
Y-006D02*
X00065D01*
X-00114D02*
X00035D01*
Y-00533D02*
D01*
X-00292Y-00457D02*
X-00224D01*
X-003Y-0045D02*
X-00292Y-00457D01*
X-00224D02*
X-00205Y-00476D01*
X-00145D02*
X-00085D01*
X-00205D02*
X-00145D01*
X-00116Y-00597D02*
X-00114Y-006D01*
G54D52*
X-00729Y-0067D02*
Y-00591D01*
X-0073Y-0067D02*
X-00729Y-0067D01*
X-00224Y-0084D02*
X-00203D01*
X-00189Y-00853D02*
X-00166D01*
X-00165Y-00855*
X-00203Y-0084D02*
X-00189Y-00853D01*
X-00265Y-008D02*
X-00224Y-0084D01*
X0013Y-00601D02*
Y-0057D01*
X-003Y00305D02*
Y00365D01*
X-0027Y00275D02*
X-0015D01*
X-003Y00305D02*
X-0027Y00275D01*
X-00261Y00311D02*
Y00365D01*
Y00311D02*
X-0024Y0029D01*
X-0015Y00275D02*
X-00135Y0026D01*
X-0024Y0029D02*
X-00125D01*
X-00105Y-00205D02*
Y0027D01*
X-00125Y0029D02*
X-00105Y0027D01*
X-00135Y-00235D02*
Y0026D01*
X00179Y-0021D02*
Y00074D01*
X00299Y00194*
X00125Y-00225D02*
X00165D01*
X00299Y00194D02*
Y00365D01*
X0016Y001D02*
X00255Y00195D01*
Y00359*
X00165Y-00225D02*
X00179Y-0021D01*
X00255Y00359D02*
X0026Y00365D01*
X0016Y-002D02*
Y001D01*
X-00328Y-004D02*
X-0019D01*
X-00165Y-00425*
X-00115Y-00435D02*
X00215D01*
X-0044Y-00511D02*
X-00328Y-004D01*
X-0044Y-0052D02*
Y-00511D01*
X-0057Y-00535D02*
X-00455D01*
X-0044Y-0052*
X-00552Y-00591D02*
Y-0059D01*
X-00551Y-0059*
X-0052*
X-00572Y-00591D02*
X-00571Y-0059D01*
Y-00536D02*
X-0057Y-00535D01*
X-00571Y-0059D02*
Y-00536D01*
X-00405Y-00935D02*
Y-00889D01*
X00215Y-00435D02*
X003Y-0035D01*
X00228Y-00938D02*
Y-00918D01*
X0019Y-0088D02*
X00228Y-00918D01*
Y-00938D02*
X0023Y-0094D01*
X-0023Y-0088D02*
X0019D01*
X-0025Y-009D02*
X-0023Y-0088D01*
X-00335Y-009D02*
X-0025D01*
X-0039Y-00844D02*
X-00335Y-009D01*
X-0042Y-00844D02*
X-0039D01*
X-00476Y-00864D02*
X-00395D01*
X-00375Y-00885*
Y-00915D02*
Y-00885D01*
X-00419Y-00785D02*
X-00405Y-008D01*
X-00265*
X-00476Y-00785D02*
X-00419D01*
X-00562Y-00795D02*
X-00552Y-00805D01*
X-00476*
X-0042Y-00844D02*
X-0042Y-00844D01*
X-00476Y-00844D02*
X-0042D01*
X-00476Y-00844D02*
X-00476Y-00844D01*
X-00476Y-00883D02*
X-0041D01*
X-00405Y-00889*
X-0056Y-00826D02*
X-00557D01*
X-00555Y-00824D02*
X-00476D01*
X-00565Y-00795D02*
X-00562D01*
X-00557Y-00826D02*
X-00555Y-00824D01*
X0061Y-0093D02*
X00636Y-00903D01*
Y-00775*
X0049Y-0093D02*
X0061D01*
X00471Y-00911D02*
X0049Y-0093D01*
X00471Y-00911D02*
Y-0077D01*
X00495Y-00741D02*
Y-00671D01*
X00496Y-00669*
X00471Y-0077D02*
Y-00765D01*
X00495Y-00741*
X00735Y-00655D02*
X00745Y-00645D01*
X00775*
X00735Y-0069D02*
Y-00655D01*
X0071Y-00715D02*
X00735Y-0069D01*
X0066Y-00715D02*
X0071D01*
X00636Y-00738D02*
X0066Y-00715D01*
X00636Y-00775D02*
Y-00738D01*
X-0067Y-0067D02*
Y-00591D01*
Y-0067D02*
X-0067Y-0067D01*
X-00544Y-0068D02*
Y-00645D01*
X-00545Y-00645D02*
X-00544Y-00645D01*
Y-0068D02*
X-00518Y-00706D01*
X-00923Y-00903D02*
X-00923Y-00903D01*
X-00863D02*
X-00863Y-00903D01*
X-00923Y-00903D02*
X-00863D01*
X00531Y-00865D02*
X006D01*
X00515Y-00848D02*
X00531Y-00865D01*
X00691Y-00776D02*
Y-00741D01*
X0069Y-0074D02*
X00691Y-00741D01*
X00691Y-00776D02*
X00691Y-00776D01*
X-0057Y-0097D02*
Y-00969D01*
Y-0097D02*
X-00552Y-00987D01*
X-00709Y-00964D02*
X-00694Y-00949D01*
Y-0093*
X-00842Y-0077D02*
X-00655D01*
X-006Y-00825*
X-0072Y-00912D02*
X-00717Y-00915D01*
Y-00946D02*
Y-00915D01*
X-00749Y-01038D02*
Y-00946D01*
X-0072Y-00912D02*
Y-0091D01*
X-0074Y-00937D02*
Y-00935D01*
X-00749Y-00946D02*
X-0074Y-00937D01*
X-00552Y-01038D02*
Y-00987D01*
X-00793Y-00963D02*
Y-00946D01*
X-00795Y-00945D02*
X-00793Y-00946D01*
Y-00963D02*
X-00788Y-00968D01*
X-00476Y-00666D02*
X-00476Y-00667D01*
X-00475Y-00666D02*
Y-00635D01*
X-00476Y-00667D02*
X-00475D01*
X-00475Y-00666*
X-00842Y-0088D02*
X-0084D01*
X-00822Y-00855D02*
X-0082D01*
X-00858Y-00864D02*
X-00842Y-0088D01*
X-00923Y-00824D02*
X-00815D01*
X-00832Y-00805D02*
X-00822Y-00795D01*
X-0082*
X-00923Y-00805D02*
X-00832D01*
X-00923Y-00864D02*
X-00858D01*
X-00815Y-00824D02*
X-00815Y-00825D01*
X-00833Y-00844D02*
X-00822Y-00855D01*
X-00923Y-00844D02*
X-00833D01*
X-00858Y-00785D02*
X-00842Y-0077D01*
X-00923Y-00785D02*
X-00858D01*
X-0067Y-00591D02*
X-0067Y-00591D01*
X-0082Y-00962D02*
Y-0092D01*
X-00769Y-0091D02*
X-00769Y-00909D01*
X-00769Y-01038D02*
X-00768Y-01038D01*
X-00769Y-01038D02*
Y-0091D01*
X-00518Y-00706D02*
X-00476D01*
X-0082Y-00962D02*
X-00808Y-00973D01*
X-00924Y-00962D02*
X-00923D01*
X-00925Y-00963D02*
X-00924Y-00962D01*
X-00925Y-0098D02*
Y-00963D01*
X-00729Y-00591D02*
X-00729Y-00591D01*
X-00759Y-00659D02*
X-00749Y-0065D01*
Y-00591*
X-00769Y-00644D02*
Y-00591D01*
X-00783Y-00658D02*
X-00769Y-00644D01*
X-00759Y-00689D02*
Y-00659D01*
X-00783Y-00698D02*
Y-00658D01*
X-00749Y-00591D02*
X-00749Y-00591D01*
X-00785Y-007D02*
X-00783Y-00698D01*
X-00769Y-00591D02*
X-00768Y-00591D01*
X-00848Y-00585D02*
X-00847Y-00585D01*
X-0087Y-00585D02*
X-00848D01*
X-00847Y-00591D02*
Y-00585D01*
X-0092Y-00667D02*
X-0092Y-00666D01*
X-00923Y-00667D02*
X-0092D01*
X-0092Y-00666D02*
Y-00645D01*
X-0087Y-0104D02*
X-00848D01*
X-00847Y-01039D02*
Y-01038D01*
X-00848Y-0104D02*
X-00847Y-01039D01*
X-00709Y-01038D02*
Y-00964D01*
X-00729Y-00959D02*
X-00717Y-00946D01*
X-00729Y-01038D02*
Y-00959D01*
X-00788Y-01038D02*
Y-00968D01*
X-00808Y-01038D02*
Y-00973D01*
X-00923Y-00824D02*
X-00923Y-00824D01*
G54D53*
X00835Y-0099D03*
G54D54*
X00935Y-0099D03*
G54D55*
X003Y-0095D03*
Y-0085D03*
Y-0075D03*
Y-0065D03*
Y-0055D03*
Y-0045D03*
Y-0035D03*
X-003D03*
Y-0045D03*
Y-0055D03*
Y-0065D03*
Y-0075D03*
Y-0085D03*
Y-0095D03*
G54D56*
X0008Y-00475D03*
X-0073Y-0067D03*
X-006Y-0088D03*
X-00225Y-0086D03*
X0013Y-0057D03*
X-00105Y-00205D03*
X00155Y0035D03*
X00125Y-00225D03*
X0016Y-002D03*
X-00135Y-00235D03*
X-00165Y-00425D03*
X-00195Y-0097D03*
X002D03*
X-00115Y-00435D03*
X-00165Y-00855D03*
Y-00955D03*
Y-00905D03*
X-0052Y-0059D03*
X-0057Y-00535D03*
X0044Y0036D03*
X00125Y00365D03*
X-00405Y-00935D03*
X00135Y0034D03*
Y0039D03*
X00155Y00375D03*
X-0015Y-00775D03*
X-00195Y-0082D03*
X-00135Y0034D03*
X-00155Y00355D03*
X-00405D03*
X-00135Y0039D03*
X-0042Y-00844D03*
X-00375Y-00915D03*
X-0056Y-00826D03*
X-0067Y-0067D03*
X-00545Y-00645D03*
X-00863Y-00903D03*
X-00705Y-01092D03*
X-0076D03*
X00536Y-00726D03*
X-00521Y-0102D03*
X-0052Y-0099D03*
X00575Y-00725D03*
X006Y-00865D03*
X-0057Y-00969D03*
X-0062Y-00935D03*
X0069Y-0074D03*
X-0065Y-01092D03*
X-00694Y-0093D03*
X-006Y-00825D03*
X-0074Y-00935D03*
X-00795Y-00945D03*
X-0072Y-0091D03*
X-00565Y-00795D03*
X-0044Y0017D03*
X-00415Y00135D03*
X-00395Y001D03*
X-00373Y00068D03*
X-00475Y-00635D03*
X-0082Y-00855D03*
X-0084Y-0088D03*
X-00815Y-00825D03*
X-0082Y-00795D03*
Y-0092D03*
X-00769Y-00909D03*
X-00405Y0038D03*
X-00425Y00395D03*
Y0037D03*
X-00925Y-0098D03*
X0077Y-0104D03*
X00795Y-01045D03*
X0077Y-01015D03*
X0079Y-00995D03*
X00795Y-0102D03*
X0082Y-01035D03*
X-00425Y00345D03*
X-00135Y00365D03*
X-00155Y0038D03*
X00425Y00335D03*
Y00385D03*
X00405Y00375D03*
Y0035D03*
X0034Y00435D03*
X00775Y-00725D03*
Y-00685D03*
Y-00645D03*
X00655Y-0061D03*
X00615D03*
X0016Y-00955D03*
X0023Y-0094D03*
X00165Y-00905D03*
Y-00855D03*
X-00759Y-00689D03*
X-00785Y-007D03*
X-0087Y-00585D03*
X-0092Y-00645D03*
X-0087Y-0104D03*
G54D57*
X-00185Y0023D03*
X-0021Y-0071D03*
X-0023Y-0035D03*
X00695Y00725D03*
X-0031Y00717D03*
Y00823D03*
X0033Y00833D03*
X0077Y00795D03*
X0081Y00585D03*
X00895Y00635D03*
X0033Y00725D03*
X00145Y0082D03*
Y00725D03*
X-00805Y0058D03*
X-00705Y00717D03*
X-00515Y0082D03*
X-0049Y0072D03*
X-00665Y00915D03*
X-0079Y0077D03*
G54D58*
X0012Y-00335D03*
X-0012D03*
X0Y0034D03*
M02*