%FSTAX23Y23*%
%MOIN*%
%SFA1B1*%

%IPPOS*%
%ADD10C,0.007874*%
%ADD11C,0.005512*%
%ADD12C,0.003000*%
%ADD13C,0.005000*%
%ADD14C,0.003937*%
%ADD15C,0.020000*%
%LNhsmm-1*%
%LPD*%
G36*
X00812Y-00913D02*
Y-00913D01*
Y-00913*
Y-00913*
Y-00913*
Y-00914*
X00812Y-00914*
X00812Y-00915*
X00812Y-00915*
X00812Y-00916*
X00812Y-00917*
X00812Y-00918*
Y-00918*
X00812Y-00918*
X00812Y-00918*
X00812Y-00918*
X00811Y-00918*
X00811Y-00919*
X00811Y-0092*
X0081Y-0092*
X0081Y-00921*
X00809Y-00921*
X00809*
X00809Y-00921*
X00809Y-00921*
X00809Y-00922*
X00808Y-00922*
X00808Y-00922*
X00808Y-00922*
X00808Y-00922*
X00807Y-00922*
X00807Y-00922*
X00806Y-00922*
X00805Y-00923*
X00804Y-00923*
X00803*
X00803Y-00923*
X00803Y-00923*
X00802Y-00923*
X00802Y-00922*
X00802Y-00922*
X00801Y-00922*
X008Y-00922*
X008Y-00922*
X00799Y-00921*
X00799Y-00921*
X00798Y-00921*
X00798Y-00921*
X00798Y-0092*
X00798Y-0092*
X00798Y-0092*
X00798Y-0092*
X00797Y-0092*
X00797Y-0092*
X00797Y-00919*
X00797Y-00919*
X00797Y-00919*
X00797Y-00918*
X00796Y-00918*
X00796Y-00917*
X00796Y-00916*
X00796Y-00916*
X00796Y-00915*
X00796Y-00914*
X00801Y-00914*
Y-00914*
Y-00914*
Y-00914*
X00801Y-00914*
Y-00914*
X00801Y-00915*
X00801Y-00915*
X00801Y-00916*
X00801Y-00916*
X00801Y-00917*
X00801Y-00917*
X00802Y-00917*
X00802Y-00917*
X00802Y-00918*
X00802Y-00918*
X00803Y-00918*
X00803Y-00918*
X00804Y-00918*
X00804*
X00805Y-00918*
X00805Y-00918*
X00805Y-00918*
X00806Y-00918*
X00806Y-00918*
X00806Y-00917*
X00806Y-00917*
X00806Y-00917*
X00807Y-00917*
X00807Y-00916*
X00807Y-00916*
X00807Y-00916*
X00807Y-00915*
X00807Y-00915*
X00807Y-00915*
X00807Y-00914*
X00807Y-00914*
Y-00913*
Y-00897*
X00812*
Y-00913*
G37*
G36*
X00853Y-00922D02*
X00848D01*
Y-00904*
X00848Y-00904*
X00848Y-00904*
X00848Y-00904*
X00848Y-00904*
X00847Y-00904*
X00847Y-00904*
X00847Y-00905*
X00846Y-00905*
X00846Y-00905*
X00845Y-00906*
X00845Y-00906*
X00844Y-00906*
X00843Y-00907*
X00842Y-00907*
Y-00903*
X00842*
X00842Y-00903*
X00842Y-00903*
X00842Y-00903*
X00843Y-00903*
X00843Y-00902*
X00844Y-00902*
X00844Y-00902*
X00845Y-00901*
X00846Y-00901*
X00846Y-009*
X00846Y-009*
X00846Y-009*
X00846Y-009*
X00847Y-009*
X00847Y-00899*
X00848Y-00899*
X00848Y-00898*
X00849Y-00897*
X00849Y-00896*
X00853*
Y-00922*
G37*
G36*
X00828Y-00897D02*
X00829D01*
X0083Y-00897*
X00831Y-00897*
X00831Y-00897*
X00832Y-00897*
X00832Y-00897*
X00832Y-00897*
X00832*
X00832Y-00897*
X00832Y-00897*
X00833Y-00897*
X00833Y-00897*
X00834Y-00897*
X00834Y-00898*
X00835Y-00898*
X00835Y-00899*
X00836Y-00899*
Y-00899*
X00836Y-009*
X00836Y-009*
X00836Y-009*
X00836Y-009*
X00836Y-009*
X00837Y-009*
X00837Y-00901*
X00837Y-00902*
X00837Y-00902*
X00837Y-00903*
X00837Y-00904*
Y-00904*
Y-00905*
Y-00905*
Y-00905*
X00837Y-00905*
Y-00905*
X00837Y-00906*
X00837Y-00906*
X00837Y-00907*
X00837Y-00908*
X00837Y-00908*
X00836Y-00908*
X00836Y-00909*
X00836Y-00909*
X00836Y-00909*
X00836Y-0091*
X00835Y-0091*
X00835Y-00911*
X00834Y-00911*
X00834Y-00911*
X00834Y-00911*
X00834Y-00911*
X00834Y-00911*
X00833Y-00912*
X00833Y-00912*
X00832Y-00912*
X00832Y-00912*
X00832*
X00831Y-00912*
X00831*
X00831Y-00912*
X00831Y-00912*
X00831Y-00912*
X0083*
X0083Y-00912*
X0083Y-00912*
X00829Y-00912*
X00829Y-00912*
X00828*
X00828Y-00912*
X00823*
Y-00922*
X00818*
Y-00897*
X00827*
X00828Y-00897*
G37*
G36*
X00812Y-00563D02*
Y-00563D01*
Y-00563*
Y-00563*
Y-00563*
Y-00564*
X00812Y-00564*
X00812Y-00565*
X00812Y-00565*
X00812Y-00566*
X00812Y-00567*
X00811Y-00568*
Y-00568*
X00811Y-00568*
X00811Y-00568*
X00811Y-00568*
X00811Y-00568*
X00811Y-00569*
X0081Y-0057*
X0081Y-0057*
X00809Y-00571*
X00809Y-00571*
X00809*
X00809Y-00571*
X00809Y-00571*
X00808Y-00572*
X00808Y-00572*
X00808Y-00572*
X00808Y-00572*
X00807Y-00572*
X00807Y-00572*
X00807Y-00572*
X00806Y-00572*
X00805Y-00573*
X00804Y-00573*
X00803*
X00803Y-00573*
X00803Y-00573*
X00802Y-00573*
X00802Y-00572*
X00801Y-00572*
X008Y-00572*
X008Y-00572*
X00799Y-00572*
X00799Y-00571*
X00799Y-00571*
X00798Y-00571*
X00798Y-00571*
X00798Y-0057*
X00798Y-0057*
X00798Y-0057*
X00797Y-0057*
X00797Y-0057*
X00797Y-0057*
X00797Y-00569*
X00797Y-00569*
X00797Y-00569*
X00796Y-00568*
X00796Y-00568*
X00796Y-00567*
X00796Y-00566*
X00796Y-00566*
X00796Y-00565*
X00796Y-00564*
X00801Y-00564*
Y-00564*
Y-00564*
Y-00564*
X00801Y-00564*
Y-00564*
X00801Y-00565*
X00801Y-00565*
X00801Y-00566*
X00801Y-00566*
X00801Y-00567*
X00801Y-00567*
X00801Y-00567*
X00802Y-00567*
X00802Y-00568*
X00802Y-00568*
X00803Y-00568*
X00803Y-00568*
X00804Y-00568*
X00804*
X00804Y-00568*
X00805Y-00568*
X00805Y-00568*
X00805Y-00568*
X00806Y-00568*
X00806Y-00567*
X00806Y-00567*
X00806Y-00567*
X00806Y-00567*
X00807Y-00566*
X00807Y-00566*
X00807Y-00566*
X00807Y-00565*
X00807Y-00565*
X00807Y-00565*
X00807Y-00564*
X00807Y-00564*
Y-00563*
Y-00547*
X00812*
Y-00563*
G37*
G36*
X00825Y-00546D02*
X00825Y-00546D01*
X00826Y-00546*
X00826Y-00547*
X00827Y-00547*
X00828Y-00547*
X00828Y-00547*
X00829Y-00547*
X00829Y-00548*
X00829Y-00548*
X0083Y-00548*
X0083Y-00549*
X0083Y-00549*
X0083Y-00549*
X00831Y-00549*
X00831Y-00549*
X00831Y-00549*
X00831Y-0055*
X00832Y-00551*
X00832Y-00551*
X00832Y-00552*
X00832Y-00553*
X00832Y-00553*
Y-00553*
Y-00553*
X00832Y-00553*
X00832Y-00554*
X00832Y-00554*
X00832Y-00554*
X00832Y-00555*
X00832Y-00555*
X00832Y-00555*
X00831Y-00556*
X00831Y-00556*
X00831Y-00557*
X0083Y-00557*
X0083Y-00558*
X00829Y-00558*
X00828Y-00558*
X00829*
X00829Y-00558*
X00829*
X00829Y-00558*
X00829Y-00559*
X0083Y-00559*
X0083Y-00559*
X00831Y-00559*
X00831Y-0056*
X00832Y-00561*
X00832Y-00561*
X00832Y-00561*
X00832Y-00561*
X00833Y-00562*
X00833Y-00562*
X00833Y-00563*
X00833Y-00564*
X00833Y-00564*
Y-00565*
Y-00565*
Y-00565*
X00833Y-00565*
X00833Y-00565*
X00833Y-00566*
X00833Y-00566*
X00833Y-00566*
X00833Y-00567*
X00833Y-00568*
X00832Y-00568*
X00832Y-00569*
X00832Y-00569*
X00831Y-0057*
X00831Y-0057*
X00831Y-0057*
X00831Y-0057*
X00831Y-0057*
X0083Y-00571*
X0083Y-00571*
X0083Y-00571*
X0083Y-00571*
X00829Y-00571*
X00829Y-00572*
X00828Y-00572*
X00828Y-00572*
X00827Y-00572*
X00827Y-00572*
X00826Y-00573*
X00825Y-00573*
X00825Y-00573*
X00824*
X00824Y-00573*
X00824Y-00573*
X00823Y-00573*
X00823Y-00572*
X00823Y-00572*
X00822Y-00572*
X00821Y-00572*
X0082Y-00572*
X0082Y-00571*
X00819Y-00571*
X00819Y-00571*
X00819Y-00571*
X00819Y-00571*
X00819Y-0057*
X00819Y-0057*
X00818Y-0057*
X00818Y-0057*
X00818Y-0057*
X00818Y-00569*
X00818Y-00569*
X00817Y-00568*
X00817Y-00568*
X00817Y-00567*
X00816Y-00566*
X00816Y-00565*
X00821Y-00565*
Y-00565*
Y-00565*
X00821Y-00565*
X00821Y-00565*
X00821Y-00566*
X00821Y-00566*
X00822Y-00567*
X00822Y-00567*
X00822Y-00568*
X00822Y-00568*
X00822Y-00568*
X00823Y-00568*
X00823Y-00568*
X00823Y-00568*
X00824Y-00568*
X00824Y-00569*
X00825Y-00569*
X00825*
X00825Y-00569*
X00825Y-00568*
X00826Y-00568*
X00826Y-00568*
X00826Y-00568*
X00827Y-00568*
X00827Y-00567*
X00827Y-00567*
X00827Y-00567*
X00828Y-00567*
X00828Y-00567*
X00828Y-00566*
X00828Y-00566*
X00828Y-00565*
X00828Y-00564*
Y-00564*
Y-00564*
Y-00564*
X00828Y-00564*
X00828Y-00563*
X00828Y-00563*
X00828Y-00562*
X00828Y-00562*
X00827Y-00561*
X00827Y-00561*
X00827Y-00561*
X00827Y-00561*
X00827Y-00561*
X00826Y-00561*
X00826Y-0056*
X00825Y-0056*
X00825Y-0056*
X00824*
X00824Y-0056*
X00824Y-0056*
X00823Y-0056*
X00823Y-0056*
X00823Y-00561*
X00823Y-00557*
X00823*
X00824Y-00557*
X00824Y-00557*
X00825Y-00556*
X00825Y-00556*
X00826Y-00556*
X00826Y-00556*
X00826Y-00556*
X00826Y-00556*
X00827Y-00555*
X00827Y-00555*
X00827Y-00555*
X00827Y-00554*
X00827Y-00554*
X00827Y-00553*
Y-00553*
Y-00553*
X00827Y-00553*
X00827Y-00553*
X00827Y-00552*
X00827Y-00552*
X00827Y-00552*
X00826Y-00551*
X00826Y-00551*
X00826Y-00551*
X00826Y-00551*
X00826Y-00551*
X00826Y-00551*
X00825Y-00551*
X00825Y-0055*
X00824Y-0055*
X00824*
X00824Y-0055*
X00824Y-00551*
X00823Y-00551*
X00823Y-00551*
X00823Y-00551*
X00822Y-00551*
X00822Y-00551*
X00822Y-00551*
X00822Y-00552*
X00822Y-00552*
X00822Y-00552*
X00821Y-00553*
X00821Y-00553*
X00821Y-00554*
X00817Y-00553*
Y-00553*
X00817Y-00553*
Y-00553*
X00817Y-00553*
X00817Y-00552*
X00817Y-00552*
X00817Y-00551*
X00817Y-00551*
X00818Y-0055*
X00818Y-00549*
X00818Y-00549*
X00818Y-00549*
X00818Y-00549*
X00819Y-00549*
X00819Y-00548*
X0082Y-00548*
X0082Y-00548*
X00821Y-00547*
X00821*
X00821Y-00547*
X00821Y-00547*
X00821Y-00547*
X00822Y-00547*
X00822Y-00547*
X00823Y-00546*
X00824Y-00546*
X00825Y-00546*
X00825*
X00825Y-00546*
G37*
G36*
X00432Y-00518D02*
Y-00518D01*
Y-00518*
Y-00518*
Y-00518*
Y-00519*
X00432Y-00519*
X00432Y-0052*
X00432Y-0052*
X00431Y-00521*
X00431Y-00522*
X00431Y-00523*
Y-00523*
X00431Y-00523*
X00431Y-00523*
X00431Y-00523*
X00431Y-00523*
X0043Y-00524*
X0043Y-00525*
X0043Y-00525*
X00429Y-00526*
X00428Y-00526*
X00428*
X00428Y-00526*
X00428Y-00526*
X00428Y-00526*
X00428Y-00527*
X00428Y-00527*
X00427Y-00527*
X00427Y-00527*
X00427Y-00527*
X00426Y-00527*
X00425Y-00527*
X00424Y-00528*
X00423Y-00528*
X00423*
X00423Y-00528*
X00422Y-00528*
X00422Y-00527*
X00421Y-00527*
X00421Y-00527*
X0042Y-00527*
X0042Y-00527*
X00419Y-00527*
X00419Y-00526*
X00418Y-00526*
X00418Y-00526*
X00417Y-00525*
X00417Y-00525*
X00417Y-00525*
X00417Y-00525*
X00417Y-00525*
X00417Y-00525*
X00417Y-00525*
X00417Y-00524*
X00416Y-00524*
X00416Y-00523*
X00416Y-00523*
X00416Y-00523*
X00416Y-00522*
X00416Y-00521*
X00415Y-00521*
X00415Y-0052*
X00415Y-00519*
X0042Y-00519*
Y-00519*
Y-00519*
Y-00519*
X0042Y-00519*
Y-00519*
X0042Y-0052*
X0042Y-0052*
X00421Y-00521*
X00421Y-00521*
X00421Y-00522*
X00421Y-00522*
X00421Y-00522*
X00421Y-00522*
X00421Y-00522*
X00422Y-00523*
X00422Y-00523*
X00423Y-00523*
X00423Y-00523*
X00424*
X00424Y-00523*
X00424Y-00523*
X00425Y-00523*
X00425Y-00523*
X00425Y-00523*
X00426Y-00522*
X00426Y-00522*
X00426Y-00522*
X00426Y-00522*
X00426Y-00521*
X00426Y-00521*
X00426Y-00521*
X00426Y-0052*
X00426Y-0052*
X00426Y-0052*
X00426Y-00519*
X00427Y-00519*
Y-00518*
Y-00502*
X00432*
Y-00518*
G37*
G36*
X00451Y-00518D02*
X00454D01*
Y-00522*
X00451*
Y-00527*
X00446*
Y-00522*
X00435*
Y-00518*
X00446Y-00501*
X00451*
Y-00518*
G37*
G36*
X00522Y-00715D02*
X00522Y-00715D01*
X00523Y-00715*
X00523Y-00715*
X00524Y-00715*
X00525Y-00715*
X00526Y-00715*
X00526Y-00716*
X00527Y-00716*
X00527Y-00716*
X00527Y-00717*
X00527Y-00717*
X00528Y-00717*
X00528Y-00717*
X00528Y-00717*
X00528Y-00717*
X00528Y-00717*
X00528Y-00718*
X00529Y-00718*
X00529Y-00719*
X00529Y-0072*
X00529Y-0072*
X0053Y-00721*
X0053Y-00721*
X0053Y-00722*
Y-00722*
Y-00722*
X0053Y-00722*
X0053Y-00723*
X00529Y-00723*
X00529Y-00724*
X00529Y-00724*
X00529Y-00725*
X00529Y-00725*
X00529Y-00725*
X00529Y-00726*
X00529Y-00726*
X00528Y-00727*
X00528Y-00727*
X00528Y-00728*
X00527Y-00728*
X00527Y-00728*
X00527Y-00729*
X00527Y-00729*
X00526Y-00729*
X00526Y-0073*
X00525Y-0073*
X00525Y-00731*
X00524Y-00732*
X00524Y-00732*
X00524Y-00732*
X00524Y-00732*
X00523Y-00732*
X00523Y-00732*
X00523Y-00733*
X00522Y-00733*
X00522Y-00734*
X00521Y-00734*
X00521Y-00734*
X00521Y-00734*
X00521Y-00734*
X00521Y-00735*
X00521Y-00735*
X0052Y-00735*
X0052Y-00735*
X0052Y-00736*
X0053*
Y-0074*
X00512*
Y-0074*
Y-0074*
X00512Y-0074*
X00513Y-0074*
X00513Y-0074*
X00513Y-00739*
X00513Y-00739*
X00513Y-00738*
X00513Y-00737*
X00514Y-00736*
X00514Y-00735*
Y-00735*
X00514Y-00735*
X00514Y-00735*
X00514Y-00735*
X00515Y-00735*
X00515Y-00735*
X00515Y-00734*
X00515Y-00734*
X00516Y-00733*
X00516Y-00733*
X00517Y-00732*
X00517Y-00732*
X00518Y-00731*
X00518Y-00731*
X00519Y-0073*
X0052Y-00729*
X0052Y-00729*
X0052Y-00729*
X0052Y-00729*
X0052Y-00729*
X0052Y-00729*
X00521Y-00728*
X00521Y-00728*
X00522Y-00727*
X00523Y-00726*
X00523Y-00726*
X00523Y-00726*
X00524Y-00725*
X00524Y-00725*
X00524Y-00725*
X00524Y-00725*
X00524Y-00725*
X00524Y-00724*
X00524Y-00724*
X00525Y-00723*
X00525Y-00723*
X00525Y-00722*
Y-00722*
Y-00722*
Y-00722*
X00525Y-00721*
X00525Y-00721*
X00524Y-00721*
X00524Y-0072*
X00524Y-0072*
X00524Y-0072*
X00524Y-00719*
X00524Y-00719*
X00523Y-00719*
X00523Y-00719*
X00523Y-00719*
X00522Y-00719*
X00522Y-00719*
X00521Y-00719*
X00521*
X00521Y-00719*
X0052Y-00719*
X0052Y-00719*
X0052Y-00719*
X00519Y-00719*
X00519Y-0072*
X00519Y-0072*
X00519Y-0072*
X00519Y-0072*
X00518Y-0072*
X00518Y-00721*
X00518Y-00721*
X00518Y-00722*
X00518Y-00723*
X00513Y-00722*
Y-00722*
X00513Y-00722*
Y-00722*
X00513Y-00721*
X00513Y-00721*
X00513Y-00721*
X00513Y-0072*
X00514Y-0072*
X00514Y-00719*
X00514Y-00718*
X00515Y-00718*
X00515Y-00717*
X00515Y-00717*
X00516Y-00716*
X00516Y-00716*
X00516Y-00716*
X00516Y-00716*
X00516Y-00716*
X00516Y-00716*
X00517Y-00716*
X00517Y-00716*
X00517Y-00715*
X00518Y-00715*
X00518Y-00715*
X00519Y-00715*
X0052Y-00715*
X00521Y-00715*
X00521Y-00715*
X00522*
X00522Y-00715*
G37*
G36*
X005Y-00715D02*
X00501D01*
X00501Y-00715*
X00502*
X00502Y-00715*
X00503Y-00715*
X00504Y-00715*
X00505Y-00715*
X00505Y-00715*
X00505*
X00505Y-00715*
X00505Y-00716*
X00506Y-00716*
X00506Y-00716*
X00507Y-00716*
X00507Y-00717*
X00508Y-00717*
X00508Y-00718*
Y-00718*
X00508Y-00718*
X00508Y-00718*
X00508Y-00718*
X00509Y-00719*
X00509Y-00719*
X00509Y-0072*
X00509Y-0072*
X00509Y-00721*
X00509Y-00722*
Y-00722*
Y-00722*
Y-00722*
X00509Y-00722*
Y-00723*
X00509Y-00723*
X00509Y-00724*
X00509Y-00724*
X00509Y-00725*
X00508Y-00726*
X00508Y-00726*
X00508Y-00727*
X00508Y-00727*
X00508Y-00727*
X00507Y-00727*
X00507Y-00727*
X00507Y-00727*
X00507Y-00727*
X00507Y-00727*
X00506Y-00728*
X00506Y-00728*
X00506Y-00728*
X00505Y-00728*
X00505Y-00728*
X00504Y-00729*
X00504Y-00729*
X00503Y-00729*
X00503Y-00729*
X00503*
X00503Y-00729*
X00503Y-00729*
X00503Y-00729*
X00503Y-0073*
X00504Y-0073*
X00504Y-0073*
X00505Y-00731*
X00505Y-00731*
X00505Y-00731*
X00505Y-00731*
X00506Y-00732*
X00506Y-00732*
X00506Y-00733*
X00507Y-00733*
X00507Y-00733*
X00507Y-00734*
X00508Y-00734*
X00508Y-00735*
X00508Y-00735*
X00511Y-0074*
X00505*
X00501Y-00735*
X00501Y-00735*
X00501Y-00735*
X00501Y-00734*
X00501Y-00734*
X00501Y-00734*
X00501Y-00734*
X005Y-00733*
X005Y-00733*
X00499Y-00732*
X00499Y-00731*
X00499Y-00731*
X00499Y-00731*
X00499Y-00731*
X00499Y-00731*
X00498Y-00731*
X00498Y-00731*
X00498Y-0073*
X00498Y-0073*
X00497Y-0073*
X00497Y-0073*
X00497*
X00497Y-0073*
X00497Y-0073*
X00497Y-0073*
X00496Y-0073*
X00496Y-0073*
X00495Y-0073*
X00494*
Y-0074*
X00488*
Y-00715*
X005*
X005Y-00715*
G37*
G36*
X00474D02*
X00475D01*
X00475Y-00715*
X00476*
X00477Y-00715*
X00478Y-00715*
X00479Y-00715*
X00479Y-00715*
X00479Y-00715*
X00479*
X00479Y-00715*
X0048Y-00716*
X0048Y-00716*
X0048Y-00716*
X00481Y-00716*
X00481Y-00717*
X00482Y-00717*
X00482Y-00718*
Y-00718*
X00482Y-00718*
X00482Y-00718*
X00482Y-00718*
X00483Y-00719*
X00483Y-00719*
X00483Y-0072*
X00483Y-0072*
X00483Y-00721*
X00483Y-00722*
Y-00722*
Y-00722*
Y-00722*
X00483Y-00722*
Y-00723*
X00483Y-00723*
X00483Y-00724*
X00483Y-00724*
X00483Y-00725*
X00482Y-00726*
X00482Y-00726*
X00482Y-00727*
X00482Y-00727*
X00482Y-00727*
X00482Y-00727*
X00481Y-00727*
X00481Y-00727*
X00481Y-00727*
X00481Y-00727*
X0048Y-00728*
X0048Y-00728*
X0048Y-00728*
X00479Y-00728*
X00479Y-00728*
X00478Y-00729*
X00478Y-00729*
X00477Y-00729*
X00477Y-00729*
X00477*
X00477Y-00729*
X00477Y-00729*
X00477Y-00729*
X00478Y-0073*
X00478Y-0073*
X00479Y-0073*
X00479Y-00731*
X00479Y-00731*
X00479Y-00731*
X0048Y-00731*
X0048Y-00732*
X0048Y-00732*
X00481Y-00733*
X00481Y-00733*
X00481Y-00733*
X00481Y-00734*
X00482Y-00734*
X00482Y-00735*
X00482Y-00735*
X00486Y-0074*
X00479*
X00476Y-00735*
X00476Y-00735*
X00476Y-00735*
X00475Y-00734*
X00475Y-00734*
X00475Y-00734*
X00475Y-00734*
X00475Y-00733*
X00474Y-00733*
X00474Y-00732*
X00473Y-00731*
X00473Y-00731*
X00473Y-00731*
X00473Y-00731*
X00473Y-00731*
X00473Y-00731*
X00472Y-00731*
X00472Y-0073*
X00472Y-0073*
X00472Y-0073*
X00471Y-0073*
X00471*
X00471Y-0073*
X00471Y-0073*
X00471Y-0073*
X0047Y-0073*
X0047Y-0073*
X00469Y-0073*
X00468*
Y-0074*
X00463*
Y-00715*
X00474*
X00474Y-00715*
G37*
G36*
X00691Y-00737D02*
X00686D01*
Y-00719*
X00686Y-00719*
X00686Y-00719*
X00686Y-00719*
X00686Y-00719*
X00685Y-00719*
X00685Y-0072*
X00685Y-0072*
X00684Y-0072*
X00684Y-00721*
X00683Y-00721*
X00683Y-00721*
X00682Y-00721*
X00681Y-00722*
X0068Y-00723*
Y-00718*
X0068*
X0068Y-00718*
X0068Y-00718*
X0068Y-00718*
X0068Y-00718*
X00681Y-00718*
X00682Y-00717*
X00682Y-00717*
X00683Y-00716*
X00684Y-00716*
X00684Y-00716*
X00684Y-00716*
X00684Y-00716*
X00684Y-00715*
X00685Y-00715*
X00685Y-00715*
X00686Y-00714*
X00686Y-00713*
X00687Y-00712*
X00687Y-00712*
X00691*
Y-00737*
G37*
G36*
X00666Y-00712D02*
X00666D01*
X00666Y-00712*
X00667*
X00668Y-00712*
X00669Y-00712*
X0067Y-00712*
X0067Y-00712*
X00671Y-00712*
X00671*
X00671Y-00713*
X00671Y-00713*
X00671Y-00713*
X00672Y-00713*
X00672Y-00713*
X00673Y-00714*
X00673Y-00714*
X00674Y-00715*
Y-00715*
X00674Y-00715*
X00674Y-00715*
X00674Y-00715*
X00674Y-00716*
X00674Y-00716*
X00674Y-00717*
X00675Y-00717*
X00675Y-00718*
X00675Y-00719*
Y-00719*
Y-00719*
Y-00719*
X00675Y-00719*
Y-0072*
X00675Y-0072*
X00675Y-00721*
X00674Y-00721*
X00674Y-00722*
X00674Y-00723*
X00673Y-00723*
X00673Y-00724*
X00673Y-00724*
X00673Y-00724*
X00673Y-00724*
X00673Y-00724*
X00673Y-00724*
X00672Y-00724*
X00672Y-00725*
X00672Y-00725*
X00671Y-00725*
X00671Y-00725*
X00671Y-00725*
X0067Y-00726*
X0067Y-00726*
X00669Y-00726*
X00669Y-00726*
X00668Y-00726*
X00668*
X00668Y-00726*
X00668Y-00726*
X00669Y-00726*
X00669Y-00727*
X00669Y-00727*
X0067Y-00727*
X0067Y-00728*
X00671Y-00728*
X00671Y-00728*
X00671Y-00728*
X00671Y-00729*
X00671Y-00729*
X00672Y-0073*
X00672Y-0073*
X00672Y-0073*
X00673Y-00731*
X00673Y-00731*
X00673Y-00732*
X00674Y-00732*
X00677Y-00737*
X00671*
X00667Y-00732*
X00667Y-00732*
X00667Y-00732*
X00667Y-00732*
X00667Y-00731*
X00666Y-00731*
X00666Y-00731*
X00666Y-0073*
X00665Y-0073*
X00665Y-00729*
X00664Y-00728*
X00664Y-00728*
X00664Y-00728*
X00664Y-00728*
X00664Y-00728*
X00664Y-00728*
X00664Y-00728*
X00663Y-00727*
X00663Y-00727*
X00663Y-00727*
X00663Y-00727*
X00663*
X00662Y-00727*
X00662Y-00727*
X00662Y-00727*
X00662Y-00727*
X00661Y-00727*
X00661Y-00727*
X00659*
Y-00737*
X00654*
Y-00712*
X00665*
X00666Y-00712*
G37*
G36*
X0064D02*
X0064D01*
X00641Y-00712*
X00641*
X00642Y-00712*
X00643Y-00712*
X00644Y-00712*
X00644Y-00712*
X00645Y-00712*
X00645*
X00645Y-00713*
X00645Y-00713*
X00645Y-00713*
X00646Y-00713*
X00646Y-00713*
X00647Y-00714*
X00647Y-00714*
X00648Y-00715*
Y-00715*
X00648Y-00715*
X00648Y-00715*
X00648Y-00715*
X00648Y-00716*
X00648Y-00716*
X00649Y-00717*
X00649Y-00717*
X00649Y-00718*
X00649Y-00719*
Y-00719*
Y-00719*
Y-00719*
X00649Y-00719*
Y-0072*
X00649Y-0072*
X00649Y-00721*
X00648Y-00721*
X00648Y-00722*
X00648Y-00723*
X00647Y-00723*
X00647Y-00724*
X00647Y-00724*
X00647Y-00724*
X00647Y-00724*
X00647Y-00724*
X00647Y-00724*
X00646Y-00724*
X00646Y-00725*
X00646Y-00725*
X00646Y-00725*
X00645Y-00725*
X00645Y-00725*
X00644Y-00726*
X00644Y-00726*
X00643Y-00726*
X00643Y-00726*
X00642Y-00726*
X00642*
X00642Y-00726*
X00642Y-00726*
X00643Y-00726*
X00643Y-00727*
X00644Y-00727*
X00644Y-00727*
X00644Y-00728*
X00645Y-00728*
X00645Y-00728*
X00645Y-00728*
X00645Y-00729*
X00646Y-00729*
X00646Y-0073*
X00646Y-0073*
X00647Y-0073*
X00647Y-00731*
X00647Y-00731*
X00647Y-00732*
X00648Y-00732*
X00651Y-00737*
X00645*
X00641Y-00732*
X00641Y-00732*
X00641Y-00732*
X00641Y-00732*
X00641Y-00731*
X00641Y-00731*
X0064Y-00731*
X0064Y-0073*
X0064Y-0073*
X00639Y-00729*
X00639Y-00728*
X00638Y-00728*
X00638Y-00728*
X00638Y-00728*
X00638Y-00728*
X00638Y-00728*
X00638Y-00728*
X00638Y-00727*
X00637Y-00727*
X00637Y-00727*
X00637Y-00727*
X00637*
X00637Y-00727*
X00636Y-00727*
X00636Y-00727*
X00636Y-00727*
X00635Y-00727*
X00635Y-00727*
X00633*
Y-00737*
X00628*
Y-00712*
X0064*
X0064Y-00712*
G37*
G36*
X00594Y-00801D02*
X00595Y-00801D01*
X00595Y-00801*
X00596Y-00801*
X00596Y-00801*
X00597Y-00802*
X00598Y-00802*
X00599Y-00802*
X00599Y-00802*
X006Y-00803*
X006Y-00803*
X00601Y-00803*
X00601Y-00803*
X00601Y-00803*
X00601Y-00804*
X00601Y-00804*
X00601Y-00804*
X00602Y-00804*
X00602Y-00805*
X00602Y-00805*
X00602Y-00805*
X00602Y-00806*
X00603Y-00806*
X00603Y-00807*
X00603Y-00807*
X00603Y-00808*
X00603Y-00808*
X00603Y-00809*
X00598Y-00809*
Y-00809*
Y-00809*
X00598Y-00809*
X00598Y-00809*
X00598Y-00808*
X00598Y-00808*
X00597Y-00807*
X00597Y-00807*
X00597Y-00806*
X00597Y-00806*
X00597Y-00806*
X00596Y-00806*
X00596Y-00806*
X00595Y-00806*
X00595Y-00806*
X00594Y-00806*
X00593Y-00806*
X00593*
X00593Y-00806*
X00592Y-00806*
X00592Y-00806*
X00591Y-00806*
X00591Y-00806*
X0059Y-00806*
X0059Y-00807*
X0059Y-00807*
X0059Y-00807*
X0059Y-00807*
X00589Y-00807*
X00589Y-00807*
X00589Y-00808*
X00589Y-00808*
Y-00808*
Y-00808*
X00589Y-00808*
X00589Y-00809*
X00589Y-00809*
X00589Y-00809*
X0059Y-00809*
X0059Y-0081*
X0059Y-0081*
X0059Y-0081*
X0059Y-0081*
X0059Y-0081*
X00591Y-0081*
X00591Y-0081*
X00591Y-0081*
X00592Y-0081*
X00592Y-00811*
X00592Y-00811*
X00593Y-00811*
X00593Y-00811*
X00594Y-00811*
X00595Y-00811*
X00595*
X00595Y-00811*
X00595Y-00811*
X00595Y-00811*
X00596Y-00812*
X00596Y-00812*
X00596Y-00812*
X00597Y-00812*
X00598Y-00812*
X00599Y-00812*
X00599Y-00813*
X006Y-00813*
X006Y-00813*
X006*
X006Y-00813*
X006Y-00813*
X00601Y-00814*
X00601Y-00814*
X00602Y-00814*
X00602Y-00815*
X00603Y-00815*
X00603Y-00816*
X00603Y-00816*
X00603Y-00816*
X00603Y-00816*
X00604Y-00817*
X00604Y-00817*
X00604Y-00818*
X00604Y-00819*
X00604Y-0082*
Y-0082*
Y-0082*
Y-0082*
Y-0082*
X00604Y-0082*
X00604Y-00821*
X00604Y-00821*
X00604Y-00822*
X00604Y-00823*
X00603Y-00823*
X00603Y-00824*
Y-00824*
X00603Y-00824*
X00603Y-00824*
X00602Y-00825*
X00602Y-00825*
X00601Y-00826*
X00601Y-00826*
X006Y-00826*
X00599Y-00827*
X00599*
X00599Y-00827*
X00599Y-00827*
X00599Y-00827*
X00599Y-00827*
X00598Y-00827*
X00598Y-00827*
X00598Y-00827*
X00597Y-00827*
X00597Y-00827*
X00596Y-00828*
X00595Y-00828*
X00594Y-00828*
X00593*
X00593Y-00828*
X00593Y-00828*
X00592Y-00828*
X00592Y-00828*
X00591Y-00827*
X0059Y-00827*
X00589Y-00827*
X00589Y-00827*
X00588Y-00827*
X00587Y-00826*
X00587Y-00826*
X00586Y-00826*
X00586Y-00826*
X00586Y-00825*
X00586Y-00825*
X00586Y-00825*
X00586Y-00825*
X00585Y-00825*
X00585Y-00824*
X00585Y-00824*
X00585Y-00823*
X00584Y-00823*
X00584Y-00822*
X00584Y-00822*
X00584Y-00821*
X00584Y-0082*
X00583Y-0082*
X00583Y-00819*
X00588Y-00818*
Y-00819*
X00588Y-00819*
Y-00819*
X00588Y-00819*
X00589Y-00819*
X00589Y-0082*
X00589Y-00821*
X00589Y-00821*
X0059Y-00822*
X0059Y-00822*
X0059Y-00822*
X0059Y-00822*
X00591Y-00823*
X00591Y-00823*
X00592Y-00823*
X00592Y-00823*
X00593Y-00823*
X00594Y-00823*
X00594*
X00595Y-00823*
X00595Y-00823*
X00596Y-00823*
X00597Y-00823*
X00597Y-00823*
X00598Y-00822*
X00598Y-00822*
X00598Y-00822*
X00598Y-00822*
X00598Y-00822*
X00598Y-00821*
X00599Y-00821*
X00599Y-0082*
X00599Y-0082*
Y-0082*
Y-0082*
X00599Y-0082*
X00599Y-00819*
X00599Y-00819*
X00599Y-00819*
X00599Y-00819*
X00598Y-00818*
X00598Y-00818*
X00598Y-00818*
X00598Y-00818*
X00598Y-00818*
X00598Y-00818*
X00597Y-00818*
X00597Y-00817*
X00597Y-00817*
X00596*
X00596Y-00817*
X00596Y-00817*
X00596Y-00817*
X00596Y-00817*
X00595Y-00817*
X00595Y-00817*
X00595Y-00817*
X00594Y-00817*
X00594Y-00817*
X00593Y-00816*
X00593Y-00816*
X00592Y-00816*
X00592*
X00592Y-00816*
X00592Y-00816*
X00592Y-00816*
X00591Y-00816*
X00591Y-00816*
X00591Y-00816*
X0059Y-00815*
X00589Y-00815*
X00588Y-00815*
X00588Y-00814*
X00587Y-00814*
X00587Y-00814*
X00587Y-00814*
X00587Y-00814*
X00586Y-00813*
X00586Y-00813*
X00586Y-00813*
X00586Y-00813*
X00586Y-00813*
X00586Y-00812*
X00585Y-00812*
X00585Y-00811*
X00585Y-0081*
X00584Y-0081*
X00584Y-0081*
X00584Y-00809*
X00584Y-00808*
Y-00808*
Y-00808*
Y-00808*
Y-00808*
X00584Y-00808*
X00584Y-00807*
X00584Y-00807*
X00585Y-00806*
X00585Y-00805*
X00585Y-00805*
Y-00805*
X00585Y-00805*
X00586Y-00804*
X00586Y-00804*
X00586Y-00804*
X00587Y-00803*
X00587Y-00803*
X00588Y-00803*
X00588Y-00802*
X00589*
X00589Y-00802*
X00589Y-00802*
X00589Y-00802*
X00589Y-00802*
X00589Y-00802*
X0059Y-00802*
X0059Y-00802*
X00591Y-00802*
X00592Y-00801*
X00592Y-00801*
X00594Y-00801*
X00594*
X00594Y-00801*
G37*
G36*
X00646Y-00827D02*
X00641D01*
Y-00809*
X00641Y-00809*
X00641Y-00809*
X00641Y-00809*
X0064Y-00809*
X0064Y-00809*
X0064Y-0081*
X00639Y-0081*
X00639Y-0081*
X00639Y-0081*
X00638Y-00811*
X00638Y-00811*
X00637Y-00811*
X00636Y-00812*
X00635Y-00812*
Y-00808*
X00635*
X00635Y-00808*
X00635Y-00808*
X00635Y-00808*
X00635Y-00808*
X00636Y-00808*
X00636Y-00807*
X00637Y-00807*
X00638Y-00806*
X00639Y-00806*
X00639Y-00806*
X00639Y-00806*
X00639Y-00806*
X00639Y-00805*
X00639Y-00805*
X0064Y-00805*
X0064Y-00804*
X00641Y-00803*
X00641Y-00802*
X00642Y-00802*
X00646*
Y-00827*
G37*
G36*
X0062Y-00802D02*
X00621D01*
X00621Y-00802*
X00622*
X00623Y-00802*
X00624Y-00802*
X00625Y-00802*
X00625Y-00802*
X00625Y-00802*
X00625*
X00625Y-00802*
X00626Y-00803*
X00626Y-00803*
X00626Y-00803*
X00627Y-00803*
X00627Y-00804*
X00628Y-00804*
X00628Y-00805*
Y-00805*
X00628Y-00805*
X00628Y-00805*
X00628Y-00805*
X00629Y-00806*
X00629Y-00806*
X00629Y-00807*
X00629Y-00807*
X00629Y-00808*
X00629Y-00809*
Y-00809*
Y-00809*
Y-00809*
X00629Y-00809*
Y-0081*
X00629Y-0081*
X00629Y-00811*
X00629Y-00811*
X00629Y-00812*
X00628Y-00813*
X00628Y-00813*
X00628Y-00814*
X00628Y-00814*
X00628Y-00814*
X00628Y-00814*
X00627Y-00814*
X00627Y-00814*
X00627Y-00814*
X00627Y-00814*
X00626Y-00815*
X00626Y-00815*
X00626Y-00815*
X00625Y-00815*
X00625Y-00815*
X00624Y-00816*
X00624Y-00816*
X00623Y-00816*
X00623Y-00816*
X00623*
X00623Y-00816*
X00623Y-00816*
X00623Y-00816*
X00624Y-00817*
X00624Y-00817*
X00625Y-00817*
X00625Y-00818*
X00625Y-00818*
X00625Y-00818*
X00626Y-00818*
X00626Y-00819*
X00626Y-00819*
X00627Y-0082*
X00627Y-0082*
X00627Y-0082*
X00627Y-00821*
X00628Y-00821*
X00628Y-00822*
X00628Y-00822*
X00632Y-00827*
X00625*
X00622Y-00822*
X00622Y-00822*
X00622Y-00822*
X00621Y-00821*
X00621Y-00821*
X00621Y-00821*
X00621Y-00821*
X00621Y-0082*
X0062Y-00819*
X0062Y-00819*
X00619Y-00818*
X00619Y-00818*
X00619Y-00818*
X00619Y-00818*
X00619Y-00818*
X00619Y-00818*
X00618Y-00818*
X00618Y-00817*
X00618Y-00817*
X00618Y-00817*
X00617Y-00817*
X00617*
X00617Y-00817*
X00617Y-00817*
X00617Y-00817*
X00616Y-00817*
X00616Y-00817*
X00615Y-00817*
X00614*
Y-00827*
X00608*
Y-00802*
X0062*
X0062Y-00802*
G37*
G36*
X00417Y-00801D02*
X00418Y-00801D01*
X00418Y-00801*
X00419Y-00801*
X00419Y-00801*
X0042Y-00802*
X00421Y-00802*
X00422Y-00802*
X00422Y-00802*
X00423Y-00803*
X00423Y-00803*
X00424Y-00803*
X00424Y-00803*
X00424Y-00803*
X00424Y-00804*
X00424Y-00804*
X00424Y-00804*
X00425Y-00804*
X00425Y-00805*
X00425Y-00805*
X00425Y-00805*
X00425Y-00806*
X00426Y-00806*
X00426Y-00807*
X00426Y-00807*
X00426Y-00808*
X00426Y-00808*
X00426Y-00809*
X00421Y-00809*
Y-00809*
Y-00809*
X00421Y-00809*
X00421Y-00809*
X00421Y-00808*
X00421Y-00808*
X0042Y-00807*
X0042Y-00807*
X0042Y-00806*
X0042Y-00806*
X0042Y-00806*
X00419Y-00806*
X00419Y-00806*
X00418Y-00806*
X00418Y-00806*
X00417Y-00806*
X00416Y-00806*
X00416*
X00416Y-00806*
X00415Y-00806*
X00415Y-00806*
X00414Y-00806*
X00413Y-00806*
X00413Y-00806*
X00413Y-00807*
X00413Y-00807*
X00413Y-00807*
X00413Y-00807*
X00412Y-00807*
X00412Y-00807*
X00412Y-00808*
X00412Y-00808*
Y-00808*
Y-00808*
X00412Y-00808*
X00412Y-00809*
X00412Y-00809*
X00412Y-00809*
X00413Y-00809*
X00413Y-0081*
X00413Y-0081*
X00413Y-0081*
X00413Y-0081*
X00413Y-0081*
X00414Y-0081*
X00414Y-0081*
X00414Y-0081*
X00414Y-0081*
X00415Y-00811*
X00415Y-00811*
X00416Y-00811*
X00416Y-00811*
X00417Y-00811*
X00418Y-00811*
X00418*
X00418Y-00811*
X00418Y-00811*
X00418Y-00811*
X00419Y-00812*
X00419Y-00812*
X00419Y-00812*
X0042Y-00812*
X00421Y-00812*
X00422Y-00812*
X00422Y-00813*
X00423Y-00813*
X00423Y-00813*
X00423*
X00423Y-00813*
X00423Y-00813*
X00424Y-00814*
X00424Y-00814*
X00425Y-00814*
X00425Y-00815*
X00426Y-00815*
X00426Y-00816*
X00426Y-00816*
X00426Y-00816*
X00426Y-00816*
X00427Y-00817*
X00427Y-00817*
X00427Y-00818*
X00427Y-00819*
X00427Y-0082*
Y-0082*
Y-0082*
Y-0082*
Y-0082*
X00427Y-0082*
X00427Y-00821*
X00427Y-00821*
X00427Y-00822*
X00427Y-00823*
X00426Y-00823*
X00426Y-00824*
Y-00824*
X00426Y-00824*
X00426Y-00824*
X00425Y-00825*
X00425Y-00825*
X00424Y-00826*
X00424Y-00826*
X00423Y-00826*
X00422Y-00827*
X00422*
X00422Y-00827*
X00422Y-00827*
X00422Y-00827*
X00422Y-00827*
X00421Y-00827*
X00421Y-00827*
X00421Y-00827*
X0042Y-00827*
X0042Y-00827*
X00419Y-00828*
X00418Y-00828*
X00417Y-00828*
X00416*
X00416Y-00828*
X00416Y-00828*
X00415Y-00828*
X00415Y-00828*
X00414Y-00827*
X00413Y-00827*
X00412Y-00827*
X00412Y-00827*
X00411Y-00827*
X0041Y-00826*
X0041Y-00826*
X00409Y-00826*
X00409Y-00826*
X00409Y-00825*
X00409Y-00825*
X00409Y-00825*
X00409Y-00825*
X00408Y-00825*
X00408Y-00824*
X00408Y-00824*
X00408Y-00823*
X00407Y-00823*
X00407Y-00822*
X00407Y-00822*
X00407Y-00821*
X00406Y-0082*
X00406Y-0082*
X00406Y-00819*
X00411Y-00818*
Y-00819*
X00411Y-00819*
Y-00819*
X00411Y-00819*
X00411Y-00819*
X00412Y-0082*
X00412Y-00821*
X00412Y-00821*
X00413Y-00822*
X00413Y-00822*
X00413Y-00822*
X00413Y-00822*
X00414Y-00823*
X00414Y-00823*
X00415Y-00823*
X00415Y-00823*
X00416Y-00823*
X00417Y-00823*
X00417*
X00418Y-00823*
X00418Y-00823*
X00419Y-00823*
X00419Y-00823*
X0042Y-00823*
X00421Y-00822*
X00421Y-00822*
X00421Y-00822*
X00421Y-00822*
X00421Y-00822*
X00421Y-00821*
X00422Y-00821*
X00422Y-0082*
X00422Y-0082*
Y-0082*
Y-0082*
X00422Y-0082*
X00422Y-00819*
X00422Y-00819*
X00422Y-00819*
X00422Y-00819*
X00421Y-00818*
X00421Y-00818*
X00421Y-00818*
X00421Y-00818*
X00421Y-00818*
X00421Y-00818*
X0042Y-00818*
X0042Y-00817*
X00419Y-00817*
X00419*
X00419Y-00817*
X00419Y-00817*
X00419Y-00817*
X00419Y-00817*
X00418Y-00817*
X00418Y-00817*
X00418Y-00817*
X00417Y-00817*
X00417Y-00817*
X00416Y-00816*
X00416Y-00816*
X00415Y-00816*
X00415*
X00415Y-00816*
X00415Y-00816*
X00415Y-00816*
X00414Y-00816*
X00414Y-00816*
X00414Y-00816*
X00413Y-00815*
X00412Y-00815*
X00411Y-00815*
X00411Y-00814*
X0041Y-00814*
X0041Y-00814*
X0041Y-00814*
X00409Y-00814*
X00409Y-00813*
X00409Y-00813*
X00409Y-00813*
X00409Y-00813*
X00409Y-00813*
X00409Y-00812*
X00408Y-00812*
X00408Y-00811*
X00408Y-0081*
X00407Y-0081*
X00407Y-0081*
X00407Y-00809*
X00407Y-00808*
Y-00808*
Y-00808*
Y-00808*
Y-00808*
X00407Y-00808*
X00407Y-00807*
X00407Y-00807*
X00408Y-00806*
X00408Y-00805*
X00408Y-00805*
Y-00805*
X00408Y-00805*
X00408Y-00804*
X00409Y-00804*
X00409Y-00804*
X0041Y-00803*
X0041Y-00803*
X00411Y-00803*
X00411Y-00802*
X00411*
X00412Y-00802*
X00412Y-00802*
X00412Y-00802*
X00412Y-00802*
X00412Y-00802*
X00413Y-00802*
X00413Y-00802*
X00414Y-00802*
X00414Y-00801*
X00415Y-00801*
X00417Y-00801*
X00417*
X00417Y-00801*
G37*
G36*
X00465Y-00802D02*
X00466Y-00802D01*
X00466Y-00802*
X00466Y-00802*
X00467Y-00802*
X00468Y-00802*
X00469Y-00802*
X00469Y-00803*
X0047Y-00803*
X0047Y-00803*
X00471Y-00804*
X00471Y-00804*
X00471Y-00804*
X00471Y-00804*
X00471Y-00804*
X00471Y-00804*
X00471Y-00804*
X00471Y-00805*
X00472Y-00805*
X00472Y-00806*
X00472Y-00807*
X00473Y-00807*
X00473Y-00808*
X00473Y-00808*
X00473Y-00809*
Y-00809*
Y-00809*
X00473Y-00809*
X00473Y-0081*
X00473Y-0081*
X00473Y-00811*
X00472Y-00811*
X00472Y-00812*
X00472Y-00812*
X00472Y-00812*
X00472Y-00813*
X00472Y-00813*
X00471Y-00814*
X00471Y-00814*
X00471Y-00815*
X0047Y-00815*
X0047Y-00815*
X0047Y-00816*
X0047Y-00816*
X00469Y-00816*
X00469Y-00817*
X00468Y-00817*
X00468Y-00818*
X00467Y-00819*
X00467Y-00819*
X00467Y-00819*
X00467Y-00819*
X00467Y-00819*
X00466Y-00819*
X00466Y-0082*
X00465Y-0082*
X00465Y-00821*
X00464Y-00821*
X00464Y-00821*
X00464Y-00821*
X00464Y-00821*
X00464Y-00822*
X00464Y-00822*
X00464Y-00822*
X00463Y-00822*
X00463Y-00823*
X00473*
Y-00827*
X00456*
Y-00827*
Y-00827*
X00456Y-00827*
X00456Y-00827*
X00456Y-00827*
X00456Y-00826*
X00456Y-00826*
X00456Y-00825*
X00456Y-00824*
X00457Y-00823*
X00457Y-00822*
Y-00822*
X00457Y-00822*
X00457Y-00822*
X00458Y-00822*
X00458Y-00822*
X00458Y-00821*
X00458Y-00821*
X00458Y-00821*
X00459Y-0082*
X00459Y-0082*
X0046Y-00819*
X0046Y-00819*
X00461Y-00818*
X00461Y-00818*
X00462Y-00817*
X00463Y-00816*
X00463Y-00816*
X00463Y-00816*
X00463Y-00816*
X00463Y-00816*
X00464Y-00816*
X00464Y-00815*
X00465Y-00815*
X00465Y-00814*
X00466Y-00813*
X00466Y-00813*
X00466Y-00813*
X00467Y-00812*
X00467Y-00812*
X00467Y-00812*
X00467Y-00812*
X00467Y-00812*
X00467Y-00811*
X00468Y-00811*
X00468Y-0081*
X00468Y-0081*
X00468Y-00809*
Y-00809*
Y-00809*
Y-00809*
X00468Y-00808*
X00468Y-00808*
X00468Y-00808*
X00467Y-00807*
X00467Y-00807*
X00467Y-00807*
X00467Y-00806*
X00467Y-00806*
X00467Y-00806*
X00466Y-00806*
X00466Y-00806*
X00466Y-00806*
X00465Y-00806*
X00465Y-00806*
X00464*
X00464Y-00806*
X00464Y-00806*
X00463Y-00806*
X00463Y-00806*
X00462Y-00806*
X00462Y-00807*
X00462Y-00807*
X00462Y-00807*
X00462Y-00807*
X00462Y-00807*
X00461Y-00808*
X00461Y-00808*
X00461Y-00809*
X00461Y-0081*
X00456Y-00809*
Y-00809*
X00456Y-00809*
Y-00809*
X00456Y-00808*
X00456Y-00808*
X00456Y-00808*
X00457Y-00807*
X00457Y-00807*
X00457Y-00806*
X00457Y-00805*
X00458Y-00805*
X00458Y-00804*
X00458Y-00804*
X00459Y-00803*
X00459Y-00803*
X00459Y-00803*
X00459Y-00803*
X00459Y-00803*
X00459Y-00803*
X0046Y-00803*
X0046Y-00803*
X0046Y-00802*
X00461Y-00802*
X00461Y-00802*
X00462Y-00802*
X00463Y-00802*
X00464Y-00802*
X00465Y-00802*
X00465*
X00465Y-00802*
G37*
G36*
X00443Y-00802D02*
X00444D01*
X00444Y-00802*
X00445*
X00446Y-00802*
X00447Y-00802*
X00448Y-00802*
X00448Y-00802*
X00448Y-00802*
X00448*
X00448Y-00802*
X00449Y-00803*
X00449Y-00803*
X00449Y-00803*
X0045Y-00803*
X0045Y-00804*
X00451Y-00804*
X00451Y-00805*
Y-00805*
X00451Y-00805*
X00451Y-00805*
X00451Y-00805*
X00452Y-00806*
X00452Y-00806*
X00452Y-00807*
X00452Y-00807*
X00452Y-00808*
X00452Y-00809*
Y-00809*
Y-00809*
Y-00809*
X00452Y-00809*
Y-0081*
X00452Y-0081*
X00452Y-00811*
X00452Y-00811*
X00452Y-00812*
X00451Y-00813*
X00451Y-00813*
X00451Y-00814*
X00451Y-00814*
X00451Y-00814*
X00451Y-00814*
X0045Y-00814*
X0045Y-00814*
X0045Y-00814*
X0045Y-00814*
X00449Y-00815*
X00449Y-00815*
X00449Y-00815*
X00448Y-00815*
X00448Y-00815*
X00447Y-00816*
X00447Y-00816*
X00446Y-00816*
X00446Y-00816*
X00446*
X00446Y-00816*
X00446Y-00816*
X00446Y-00816*
X00447Y-00817*
X00447Y-00817*
X00447Y-00817*
X00448Y-00818*
X00448Y-00818*
X00448Y-00818*
X00449Y-00818*
X00449Y-00819*
X00449Y-00819*
X0045Y-0082*
X0045Y-0082*
X0045Y-0082*
X0045Y-00821*
X00451Y-00821*
X00451Y-00822*
X00451Y-00822*
X00454Y-00827*
X00448*
X00445Y-00822*
X00445Y-00822*
X00444Y-00822*
X00444Y-00821*
X00444Y-00821*
X00444Y-00821*
X00444Y-00821*
X00443Y-0082*
X00443Y-00819*
X00443Y-00819*
X00442Y-00818*
X00442Y-00818*
X00442Y-00818*
X00442Y-00818*
X00442Y-00818*
X00442Y-00818*
X00441Y-00818*
X00441Y-00817*
X00441Y-00817*
X00441Y-00817*
X0044Y-00817*
X0044*
X0044Y-00817*
X0044Y-00817*
X0044Y-00817*
X00439Y-00817*
X00439Y-00817*
X00438Y-00817*
X00437*
Y-00827*
X00431*
Y-00802*
X00443*
X00443Y-00802*
G37*
G36*
X-0012Y-0073D02*
Y-0073D01*
Y-0073*
Y-0073*
Y-00731*
Y-00731*
X-0012Y-00732*
Y-00732*
Y-00733*
X-0012Y-00734*
X-0012Y-00735*
X-0012Y-00735*
X-0012Y-00736*
X-0012Y-00736*
X-0012Y-00737*
Y-00737*
X-0012Y-00737*
Y-00737*
X-0012Y-00737*
X-00121Y-00737*
X-00121Y-00738*
X-00121Y-00738*
X-00121Y-00739*
X-00121Y-00739*
X-00122Y-0074*
X-00122Y-0074*
X-00122Y-0074*
X-00122Y-0074*
X-00123Y-00741*
X-00123Y-00741*
X-00124Y-00741*
X-00124Y-00742*
X-00125Y-00742*
X-00125*
X-00125Y-00742*
X-00125Y-00742*
X-00125Y-00742*
X-00125Y-00742*
X-00126Y-00742*
X-00126Y-00742*
X-00126Y-00742*
X-00127Y-00742*
X-00128Y-00743*
X-00129Y-00743*
X-0013Y-00743*
X-0013*
X-00131Y-00743*
X-00131*
X-00131Y-00743*
X-00132Y-00743*
X-00133Y-00742*
X-00134Y-00742*
X-00135Y-00742*
X-00135Y-00742*
X-00135Y-00742*
X-00135*
X-00135Y-00742*
X-00136Y-00742*
X-00136Y-00741*
X-00136Y-00741*
X-00137Y-00741*
X-00137Y-00741*
X-00138Y-0074*
X-00138Y-0074*
X-00138Y-0074*
X-00139Y-00739*
X-00139Y-00739*
X-00139Y-00739*
X-00139Y-00738*
X-00139Y-00738*
X-0014Y-00737*
X-0014Y-00737*
Y-00737*
X-0014Y-00737*
Y-00737*
X-0014Y-00736*
X-0014Y-00736*
X-0014Y-00736*
X-0014Y-00735*
X-0014Y-00735*
X-0014Y-00735*
X-0014Y-00734*
X-0014Y-00734*
X-0014Y-00733*
X-0014Y-00732*
Y-00732*
X-0014Y-00731*
Y-0073*
Y-00717*
X-00135*
Y-0073*
Y-0073*
Y-00731*
Y-00731*
Y-00731*
Y-00731*
Y-00732*
X-00135Y-00732*
Y-00733*
X-00135Y-00734*
X-00135Y-00734*
Y-00734*
X-00135Y-00735*
X-00135Y-00735*
Y-00735*
X-00135Y-00735*
X-00135Y-00735*
X-00135Y-00736*
X-00134Y-00736*
X-00134Y-00736*
X-00134Y-00737*
X-00133Y-00737*
X-00133Y-00737*
X-00133Y-00737*
X-00133Y-00738*
X-00133Y-00738*
X-00132Y-00738*
X-00131Y-00738*
X-00131Y-00738*
X-0013Y-00738*
X-0013*
X-00129Y-00738*
X-00129Y-00738*
X-00128Y-00738*
X-00128Y-00738*
X-00127Y-00738*
X-00127Y-00737*
X-00127Y-00737*
X-00126Y-00737*
X-00126Y-00737*
X-00126Y-00737*
X-00126Y-00736*
X-00126Y-00736*
X-00125Y-00736*
X-00125Y-00735*
Y-00735*
X-00125Y-00735*
X-00125Y-00735*
X-00125Y-00734*
Y-00734*
X-00125Y-00733*
Y-00733*
X-00125Y-00733*
Y-00732*
X-00125Y-00732*
Y-00731*
Y-00731*
Y-00717*
X-0012*
Y-0073*
G37*
G36*
X-00107Y-00716D02*
X-00107Y-00716D01*
X-00106Y-00716*
X-00106Y-00717*
X-00105Y-00717*
X-00104Y-00717*
X-00104Y-00717*
X-00103Y-00717*
X-00103Y-00718*
X-00103Y-00718*
X-00102Y-00718*
X-00102Y-00719*
X-00102Y-00719*
X-00102Y-00719*
X-00101Y-00719*
X-00101Y-00719*
X-00101Y-00719*
X-00101Y-0072*
X-001Y-00721*
X-001Y-00721*
X-001Y-00722*
X-001Y-00723*
X-001Y-00723*
Y-00723*
Y-00723*
X-001Y-00723*
X-001Y-00724*
X-001Y-00724*
X-001Y-00724*
X-001Y-00725*
X-001Y-00725*
X-00101Y-00725*
X-00101Y-00726*
X-00101Y-00726*
X-00101Y-00727*
X-00102Y-00727*
X-00102Y-00728*
X-00103Y-00728*
X-00104Y-00728*
X-00103*
X-00103Y-00728*
X-00103*
X-00103Y-00728*
X-00103Y-00729*
X-00102Y-00729*
X-00102Y-00729*
X-00101Y-00729*
X-00101Y-0073*
X-001Y-00731*
X-001Y-00731*
X-001Y-00731*
X-001Y-00731*
X-00099Y-00732*
X-00099Y-00732*
X-00099Y-00733*
X-00099Y-00734*
X-00099Y-00734*
Y-00735*
Y-00735*
Y-00735*
X-00099Y-00735*
X-00099Y-00735*
X-00099Y-00736*
X-00099Y-00736*
X-00099Y-00736*
X-00099Y-00737*
X-001Y-00738*
X-001Y-00738*
X-001Y-00739*
X-001Y-00739*
X-00101Y-0074*
X-00101Y-0074*
X-00101Y-0074*
X-00101Y-0074*
X-00101Y-0074*
X-00102Y-00741*
X-00102Y-00741*
X-00102Y-00741*
X-00103Y-00741*
X-00103Y-00741*
X-00103Y-00742*
X-00104Y-00742*
X-00104Y-00742*
X-00105Y-00742*
X-00105Y-00742*
X-00106Y-00743*
X-00107Y-00743*
X-00107Y-00743*
X-00108*
X-00108Y-00743*
X-00108Y-00743*
X-00109Y-00743*
X-00109Y-00742*
X-00109Y-00742*
X-0011Y-00742*
X-00111Y-00742*
X-00112Y-00742*
X-00112Y-00741*
X-00113Y-00741*
X-00113Y-00741*
X-00113Y-00741*
X-00113Y-00741*
X-00113Y-0074*
X-00113Y-0074*
X-00114Y-0074*
X-00114Y-0074*
X-00114Y-0074*
X-00114Y-00739*
X-00114Y-00739*
X-00115Y-00738*
X-00115Y-00738*
X-00115Y-00737*
X-00116Y-00736*
X-00116Y-00735*
X-00111Y-00735*
Y-00735*
Y-00735*
X-00111Y-00735*
X-00111Y-00735*
X-00111Y-00736*
X-00111Y-00736*
X-0011Y-00737*
X-0011Y-00737*
X-0011Y-00738*
X-0011Y-00738*
X-0011Y-00738*
X-00109Y-00738*
X-00109Y-00738*
X-00109Y-00738*
X-00108Y-00738*
X-00108Y-00739*
X-00107Y-00739*
X-00107*
X-00107Y-00739*
X-00107Y-00738*
X-00106Y-00738*
X-00106Y-00738*
X-00106Y-00738*
X-00105Y-00738*
X-00105Y-00737*
X-00105Y-00737*
X-00105Y-00737*
X-00104Y-00737*
X-00104Y-00737*
X-00104Y-00736*
X-00104Y-00736*
X-00104Y-00735*
X-00104Y-00734*
Y-00734*
Y-00734*
Y-00734*
X-00104Y-00734*
X-00104Y-00733*
X-00104Y-00733*
X-00104Y-00732*
X-00104Y-00732*
X-00105Y-00731*
X-00105Y-00731*
X-00105Y-00731*
X-00105Y-00731*
X-00105Y-00731*
X-00106Y-00731*
X-00106Y-0073*
X-00107Y-0073*
X-00107Y-0073*
X-00108*
X-00108Y-0073*
X-00108Y-0073*
X-00109Y-0073*
X-00109Y-0073*
X-00109Y-00731*
X-00109Y-00727*
X-00109*
X-00108Y-00727*
X-00108Y-00727*
X-00107Y-00726*
X-00107Y-00726*
X-00106Y-00726*
X-00106Y-00726*
X-00106Y-00726*
X-00106Y-00726*
X-00105Y-00725*
X-00105Y-00725*
X-00105Y-00725*
X-00105Y-00724*
X-00105Y-00724*
X-00105Y-00723*
Y-00723*
Y-00723*
X-00105Y-00723*
X-00105Y-00723*
X-00105Y-00722*
X-00105Y-00722*
X-00105Y-00722*
X-00106Y-00721*
X-00106Y-00721*
X-00106Y-00721*
X-00106Y-00721*
X-00106Y-00721*
X-00106Y-00721*
X-00107Y-00721*
X-00107Y-0072*
X-00108Y-0072*
X-00108*
X-00108Y-0072*
X-00108Y-00721*
X-00109Y-00721*
X-00109Y-00721*
X-00109Y-00721*
X-0011Y-00721*
X-0011Y-00721*
X-0011Y-00721*
X-0011Y-00722*
X-0011Y-00722*
X-0011Y-00722*
X-00111Y-00723*
X-00111Y-00723*
X-00111Y-00724*
X-00115Y-00723*
Y-00723*
X-00115Y-00723*
Y-00723*
X-00115Y-00723*
X-00115Y-00722*
X-00115Y-00722*
X-00115Y-00721*
X-00115Y-00721*
X-00114Y-0072*
X-00114Y-00719*
X-00114Y-00719*
X-00114Y-00719*
X-00114Y-00719*
X-00113Y-00719*
X-00113Y-00718*
X-00112Y-00718*
X-00112Y-00718*
X-00111Y-00717*
X-00111*
X-00111Y-00717*
X-00111Y-00717*
X-00111Y-00717*
X-0011Y-00717*
X-0011Y-00717*
X-00109Y-00716*
X-00108Y-00716*
X-00107Y-00716*
X-00107*
X-00107Y-00716*
G37*
G36*
X-00063Y-00681D02*
X-00063Y-00681D01*
X-00062Y-00681*
X-00062Y-00681*
X-00061Y-00682*
X-00061Y-00682*
X-0006Y-00682*
X-00059Y-00682*
X-00059Y-00682*
X-00058Y-00683*
X-00058Y-00683*
X-00057Y-00684*
X-00056Y-00684*
X-00056*
X-00056Y-00684*
X-00056Y-00684*
X-00056Y-00684*
X-00056Y-00684*
X-00056Y-00685*
X-00055Y-00685*
X-00055Y-00686*
X-00055Y-00687*
X-00054Y-00688*
X-00054Y-00689*
X-00059Y-0069*
Y-0069*
X-00059Y-0069*
Y-0069*
X-00059Y-0069*
X-00059Y-00689*
X-00059Y-00689*
X-0006Y-00688*
X-0006Y-00688*
X-0006Y-00687*
X-00061Y-00687*
X-00061Y-00687*
X-00061Y-00687*
X-00061Y-00686*
X-00062Y-00686*
X-00062Y-00686*
X-00063Y-00686*
X-00064Y-00686*
X-00064Y-00686*
X-00065*
X-00065Y-00686*
X-00065Y-00686*
X-00065Y-00686*
X-00066Y-00686*
X-00067Y-00686*
X-00067Y-00687*
X-00068Y-00687*
X-00068Y-00687*
X-00069Y-00687*
X-00069Y-00688*
Y-00688*
X-00069Y-00688*
X-00069Y-00688*
X-00069Y-00688*
X-00069Y-00688*
X-00069Y-00689*
X-0007Y-00689*
X-0007Y-00689*
X-0007Y-0069*
X-0007Y-0069*
X-0007Y-00691*
X-0007Y-00691*
X-00071Y-00692*
X-00071Y-00693*
X-00071Y-00694*
X-00071Y-00694*
Y-00694*
Y-00695*
Y-00695*
X-00071Y-00695*
Y-00696*
X-00071Y-00696*
X-00071Y-00697*
X-0007Y-00697*
X-0007Y-00698*
X-0007Y-00699*
X-0007Y-007*
X-00069Y-007*
X-00069Y-00701*
X-00069Y-00701*
X-00069Y-00701*
X-00069Y-00701*
X-00069Y-00701*
X-00069Y-00702*
X-00068Y-00702*
X-00068Y-00702*
X-00067Y-00703*
X-00066Y-00703*
X-00065Y-00703*
X-00065Y-00703*
X-00064Y-00703*
X-00064*
X-00064Y-00703*
X-00064Y-00703*
X-00063Y-00703*
X-00063Y-00703*
X-00062Y-00703*
X-00061Y-00702*
X-00061Y-00702*
X-00061Y-00702*
X-00061Y-00702*
X-0006Y-00701*
X-0006Y-00701*
X-0006Y-007*
X-00059Y-007*
X-00059Y-00699*
X-00059Y-00698*
X-00054Y-00699*
Y-00699*
X-00054Y-007*
X-00054Y-007*
X-00054Y-007*
X-00054Y-007*
X-00054Y-00701*
X-00054Y-00701*
X-00055Y-00702*
X-00055Y-00703*
X-00056Y-00704*
X-00057Y-00705*
X-00057Y-00705*
X-00058Y-00706*
X-00058Y-00706*
X-00058Y-00706*
X-00058Y-00706*
X-00058Y-00706*
X-00058Y-00706*
X-00059Y-00706*
X-00059Y-00707*
X-00059Y-00707*
X-0006Y-00707*
X-0006Y-00707*
X-00061Y-00707*
X-00062Y-00707*
X-00062Y-00708*
X-00063Y-00708*
X-00064Y-00708*
X-00064Y-00708*
X-00065*
X-00065Y-00708*
X-00065Y-00708*
X-00066Y-00708*
X-00066Y-00708*
X-00067Y-00707*
X-00067Y-00707*
X-00068Y-00707*
X-00069Y-00707*
X-00069Y-00707*
X-0007Y-00706*
X-00071Y-00706*
X-00071Y-00705*
X-00072Y-00705*
X-00073Y-00704*
X-00073Y-00704*
X-00073Y-00704*
X-00073Y-00704*
X-00073Y-00704*
X-00073Y-00703*
X-00074Y-00703*
X-00074Y-00702*
X-00074Y-00702*
X-00075Y-00701*
X-00075Y-007*
X-00075Y-007*
X-00075Y-00699*
X-00076Y-00698*
X-00076Y-00697*
X-00076Y-00696*
X-00076Y-00695*
Y-00695*
Y-00695*
Y-00694*
X-00076Y-00694*
Y-00694*
X-00076Y-00693*
X-00076Y-00693*
X-00076Y-00692*
X-00076Y-00691*
X-00075Y-0069*
X-00075Y-00689*
X-00075Y-00689*
X-00075Y-00688*
X-00074Y-00687*
X-00074Y-00686*
X-00073Y-00685*
X-00073Y-00685*
X-00073Y-00685*
X-00073Y-00685*
X-00072Y-00684*
X-00072Y-00684*
X-00072Y-00684*
X-00071Y-00684*
X-00071Y-00683*
X-0007Y-00683*
X-0007Y-00683*
X-00069Y-00682*
X-00068Y-00682*
X-00068Y-00682*
X-00067Y-00682*
X-00066Y-00681*
X-00065Y-00681*
X-00064Y-00681*
X-00064*
X-00063Y-00681*
G37*
G36*
X-00034Y-00687D02*
X-00043D01*
X-00044Y-00691*
X-00044*
X-00044Y-00691*
X-00044Y-00691*
X-00044Y-00691*
X-00043Y-00691*
X-00043Y-0069*
X-00042Y-0069*
X-00041Y-0069*
X-00041Y-0069*
X-00041*
X-0004Y-0069*
X-0004Y-0069*
X-0004Y-0069*
X-00039Y-0069*
X-00039Y-0069*
X-00038Y-00691*
X-00038Y-00691*
X-00037Y-00691*
X-00037Y-00691*
X-00036Y-00692*
X-00036Y-00692*
X-00035Y-00693*
X-00035Y-00693*
X-00035Y-00693*
X-00035Y-00693*
X-00035Y-00693*
X-00035Y-00693*
X-00035Y-00694*
X-00034Y-00694*
X-00034Y-00694*
X-00034Y-00695*
X-00034Y-00695*
X-00034Y-00696*
X-00033Y-00696*
X-00033Y-00697*
X-00033Y-00697*
X-00033Y-00698*
X-00033Y-00699*
Y-00699*
Y-00699*
Y-00699*
X-00033Y-00699*
Y-007*
X-00033Y-007*
X-00033Y-007*
X-00033Y-00701*
X-00033Y-00701*
X-00034Y-00702*
X-00034Y-00703*
X-00034Y-00703*
X-00035Y-00704*
X-00035Y-00704*
X-00035Y-00704*
X-00035Y-00705*
X-00035Y-00705*
X-00035Y-00705*
X-00036Y-00705*
X-00036Y-00705*
X-00036Y-00706*
X-00037Y-00706*
X-00037Y-00706*
X-00038Y-00707*
X-00038Y-00707*
X-00039Y-00707*
X-0004Y-00707*
X-0004Y-00708*
X-00041Y-00708*
X-00042Y-00708*
X-00042*
X-00042Y-00708*
X-00043Y-00708*
X-00043Y-00708*
X-00043Y-00708*
X-00044Y-00708*
X-00045Y-00707*
X-00046Y-00707*
X-00046Y-00707*
X-00047Y-00707*
X-00047Y-00706*
X-00048Y-00706*
X-00048Y-00706*
X-00048Y-00706*
X-00048Y-00706*
X-00048Y-00706*
X-00048Y-00705*
X-00048Y-00705*
X-00049Y-00705*
X-00049Y-00705*
X-00049Y-00704*
X-00049Y-00704*
X-0005Y-00703*
X-0005Y-00702*
X-0005Y-00701*
X-0005Y-00701*
X-00045Y-007*
Y-007*
X-00045Y-00701*
X-00045Y-00701*
X-00045Y-00701*
X-00045Y-00702*
X-00045Y-00702*
X-00044Y-00702*
X-00044Y-00703*
X-00044Y-00703*
X-00044Y-00703*
X-00044Y-00703*
X-00043Y-00703*
X-00043Y-00704*
X-00043Y-00704*
X-00042Y-00704*
X-00042Y-00704*
X-00042*
X-00041Y-00704*
X-00041Y-00704*
X-00041Y-00704*
X-0004Y-00704*
X-0004Y-00703*
X-0004Y-00703*
X-00039Y-00703*
X-00039Y-00703*
X-00039Y-00702*
X-00039Y-00702*
X-00039Y-00702*
X-00038Y-00701*
X-00038Y-007*
X-00038Y-007*
X-00038Y-00699*
Y-00699*
Y-00699*
Y-00699*
Y-00698*
X-00038Y-00698*
X-00038Y-00697*
X-00038Y-00697*
X-00038Y-00696*
X-00039Y-00696*
X-00039Y-00695*
X-00039Y-00695*
X-00039Y-00695*
X-0004Y-00695*
X-0004Y-00695*
X-0004Y-00694*
X-00041Y-00694*
X-00041Y-00694*
X-00042Y-00694*
X-00042*
X-00042Y-00694*
X-00043Y-00694*
X-00043Y-00694*
X-00044Y-00695*
X-00044Y-00695*
X-00045Y-00695*
X-00045Y-00695*
X-00045Y-00696*
X-00046Y-00696*
X-0005Y-00695*
X-00047Y-00682*
X-00034*
Y-00687*
G37*
G36*
X-00003Y-00681D02*
X-00003Y-00681D01*
X-00003Y-00681*
X-00002Y-00681*
X-00001Y-00682*
X-00001Y-00682*
X0Y-00682*
X0Y-00682*
X0Y-00682*
X00001Y-00683*
X00001Y-00683*
X00002Y-00684*
X00002Y-00684*
X00003*
X00003Y-00684*
X00003Y-00684*
X00003Y-00684*
X00003Y-00684*
X00003Y-00685*
X00003Y-00685*
X00004Y-00686*
X00004Y-00687*
X00005Y-00688*
X00005Y-00689*
X0Y-0069*
Y-0069*
X0Y-0069*
Y-0069*
X0Y-0069*
X0Y-00689*
X0Y-00689*
X0Y-00688*
X0Y-00688*
X0Y-00687*
X-00001Y-00687*
X-00001Y-00687*
X-00001Y-00687*
X-00001Y-00686*
X-00002Y-00686*
X-00002Y-00686*
X-00003Y-00686*
X-00004Y-00686*
X-00004Y-00686*
X-00005*
X-00005Y-00686*
X-00005Y-00686*
X-00005Y-00686*
X-00006Y-00686*
X-00007Y-00686*
X-00008Y-00687*
X-00008Y-00687*
X-00008Y-00687*
X-00009Y-00687*
X-00009Y-00688*
Y-00688*
X-00009Y-00688*
X-00009Y-00688*
X-00009Y-00688*
X-00009Y-00688*
X-0001Y-00689*
X-0001Y-00689*
X-0001Y-00689*
X-0001Y-0069*
X-0001Y-0069*
X-0001Y-00691*
X-00011Y-00691*
X-00011Y-00692*
X-00011Y-00693*
X-00011Y-00694*
X-00011Y-00694*
Y-00694*
Y-00695*
Y-00695*
X-00011Y-00695*
Y-00696*
X-00011Y-00696*
X-00011Y-00697*
X-00011Y-00697*
X-0001Y-00698*
X-0001Y-00699*
X-0001Y-007*
X-0001Y-007*
X-00009Y-00701*
X-00009Y-00701*
X-00009Y-00701*
X-00009Y-00701*
X-00009Y-00702*
X-00009Y-00702*
X-00008Y-00702*
X-00008Y-00702*
X-00007Y-00703*
X-00006Y-00703*
X-00006Y-00703*
X-00005Y-00703*
X-00005Y-00703*
X-00004*
X-00004Y-00703*
X-00004Y-00703*
X-00003Y-00703*
X-00003Y-00703*
X-00002Y-00703*
X-00002Y-00703*
X-00001Y-00702*
X-00001Y-00702*
X-00001Y-00702*
X0Y-00702*
X0Y-00701*
X0Y-007*
X0Y-007*
X0Y-00699*
X0Y-00698*
X00005Y-00699*
Y-007*
X00005Y-007*
X00005Y-007*
X00005Y-007*
X00005Y-00701*
X00005Y-00701*
X00004Y-00701*
X00004Y-00702*
X00004Y-00703*
X00003Y-00704*
X00002Y-00705*
X00002Y-00705*
X00001Y-00706*
X00001Y-00706*
X00001Y-00706*
X00001Y-00706*
X00001Y-00706*
X00001Y-00706*
X0Y-00706*
X0Y-00707*
X0Y-00707*
X0Y-00707*
X-00001Y-00707*
X-00001Y-00707*
X-00002Y-00707*
X-00002Y-00708*
X-00003Y-00708*
X-00004Y-00708*
X-00004Y-00708*
X-00005*
X-00005Y-00708*
X-00005Y-00708*
X-00006Y-00708*
X-00006Y-00708*
X-00007Y-00707*
X-00007Y-00707*
X-00008Y-00707*
X-00009Y-00707*
X-00009Y-00707*
X-0001Y-00706*
X-00011Y-00706*
X-00012Y-00705*
X-00012Y-00705*
X-00013Y-00704*
X-00013Y-00704*
X-00013Y-00704*
X-00013Y-00704*
X-00013Y-00704*
X-00014Y-00703*
X-00014Y-00703*
X-00014Y-00702*
X-00014Y-00702*
X-00015Y-00701*
X-00015Y-007*
X-00015Y-007*
X-00016Y-00699*
X-00016Y-00698*
X-00016Y-00697*
X-00016Y-00696*
X-00016Y-00695*
Y-00695*
Y-00695*
Y-00694*
X-00016Y-00694*
Y-00694*
X-00016Y-00693*
X-00016Y-00693*
X-00016Y-00692*
X-00016Y-00691*
X-00016Y-0069*
X-00015Y-00689*
X-00015Y-00689*
X-00015Y-00688*
X-00014Y-00687*
X-00014Y-00686*
X-00013Y-00685*
X-00013Y-00685*
X-00013Y-00685*
X-00013Y-00685*
X-00012Y-00684*
X-00012Y-00684*
X-00012Y-00684*
X-00011Y-00684*
X-00011Y-00683*
X-0001Y-00683*
X-0001Y-00683*
X-00009Y-00682*
X-00009Y-00682*
X-00008Y-00682*
X-00007Y-00682*
X-00006Y-00681*
X-00005Y-00681*
X-00004Y-00681*
X-00004*
X-00003Y-00681*
G37*
G36*
X00023Y-00698D02*
X00026D01*
Y-00702*
X00023*
Y-00707*
X00018*
Y-00702*
X00008*
Y-00698*
X00019Y-00682*
X00023*
Y-00698*
G37*
G36*
X00079Y-00682D02*
X00079D01*
X00079Y-00682*
X0008Y-00682*
X00081Y-00682*
X00081Y-00682*
X00082Y-00683*
X00083Y-00683*
X00083Y-00683*
X00083*
X00083Y-00683*
X00083Y-00683*
X00083Y-00684*
X00083Y-00684*
X00084Y-00684*
X00084Y-00684*
X00084Y-00685*
X00085Y-00686*
X00085Y-00687*
X00085Y-00688*
X00081Y-00688*
Y-00688*
X00081Y-00688*
X00081Y-00688*
X0008Y-00688*
X0008Y-00687*
X0008Y-00687*
X0008Y-00687*
X0008Y-00686*
X0008Y-00686*
X0008Y-00686*
X00079Y-00686*
X00079Y-00686*
X00079Y-00686*
X00079Y-00686*
X00078Y-00686*
X00078Y-00686*
X00078*
X00078Y-00686*
X00077Y-00686*
X00077Y-00686*
X00076Y-00686*
X00076Y-00686*
X00076Y-00687*
X00075Y-00687*
X00075Y-00687*
X00075Y-00687*
X00075Y-00687*
X00075Y-00687*
X00075Y-00688*
X00075Y-00688*
X00075Y-00688*
X00074Y-00689*
X00074Y-00689*
X00074Y-0069*
X00074Y-0069*
X00074Y-00691*
X00074Y-00691*
X00074Y-00692*
X00074Y-00693*
X00074Y-00693*
X00074Y-00693*
X00074Y-00693*
X00074Y-00693*
X00074Y-00692*
X00075Y-00692*
X00075Y-00692*
X00076Y-00691*
X00077Y-00691*
X00077Y-00691*
X00077Y-00691*
X00078Y-00691*
X00078Y-00691*
X00079*
X00079Y-00691*
X00079Y-00691*
X00079Y-00691*
X0008Y-00691*
X0008Y-00691*
X00081Y-00691*
X00081Y-00691*
X00082Y-00692*
X00082Y-00692*
X00083Y-00692*
X00083Y-00693*
X00084Y-00693*
X00084Y-00693*
X00084Y-00693*
X00084Y-00693*
X00084Y-00693*
X00084Y-00694*
X00084Y-00694*
X00085Y-00694*
X00085Y-00695*
X00085Y-00695*
X00085Y-00696*
X00085Y-00696*
X00086Y-00697*
X00086Y-00697*
X00086Y-00698*
X00086Y-00698*
X00086Y-00699*
Y-00699*
Y-00699*
Y-00699*
X00086Y-007*
X00086Y-007*
X00086Y-007*
X00086Y-00701*
X00086Y-00701*
X00085Y-00702*
X00085Y-00703*
X00085Y-00703*
X00085Y-00704*
X00084Y-00704*
X00084Y-00705*
X00084Y-00705*
X00084Y-00705*
X00083Y-00706*
X00083Y-00706*
X00083Y-00706*
X00083Y-00706*
X00083Y-00706*
X00082Y-00706*
X00082Y-00707*
X00082Y-00707*
X00081Y-00707*
X00081Y-00707*
X0008Y-00707*
X0008Y-00708*
X00079Y-00708*
X00078Y-00708*
X00078Y-00708*
X00077*
X00077Y-00708*
X00077*
X00077Y-00708*
X00076Y-00708*
X00076Y-00708*
X00075Y-00707*
X00075Y-00707*
X00074Y-00707*
X00074Y-00707*
X00073Y-00707*
X00073Y-00706*
X00072Y-00706*
X00072Y-00705*
X00071Y-00705*
X00071Y-00705*
X00071Y-00705*
X00071Y-00704*
X00071Y-00704*
X00071Y-00704*
X0007Y-00703*
X0007Y-00703*
X0007Y-00702*
X0007Y-00702*
X0007Y-00701*
X00069Y-007*
X00069Y-00699*
X00069Y-00698*
X00069Y-00697*
X00069Y-00696*
X00069Y-00695*
Y-00695*
Y-00695*
Y-00695*
Y-00695*
Y-00694*
X00069Y-00694*
X00069Y-00693*
X00069Y-00692*
X00069Y-00692*
X00069Y-00691*
X00069Y-0069*
X00069Y-00689*
X0007Y-00688*
X0007Y-00688*
X0007Y-00687*
X0007Y-00686*
X00071Y-00685*
X00071Y-00685*
X00071Y-00685*
X00071Y-00685*
X00072Y-00684*
X00072Y-00684*
X00072Y-00684*
X00072Y-00684*
X00073Y-00683*
X00073Y-00683*
X00074Y-00683*
X00074Y-00683*
X00075Y-00682*
X00075Y-00682*
X00076Y-00682*
X00077Y-00682*
X00077Y-00682*
X00078Y-00682*
X00078*
X00079Y-00682*
G37*
G36*
X00056Y-00681D02*
X00056Y-00681D01*
X00057Y-00681*
X00057Y-00681*
X00058Y-00682*
X00058Y-00682*
X00059Y-00682*
X0006Y-00682*
X0006Y-00682*
X00061Y-00683*
X00062Y-00683*
X00062Y-00684*
X00063Y-00684*
X00063*
X00063Y-00684*
X00063Y-00684*
X00063Y-00684*
X00063Y-00684*
X00063Y-00685*
X00064Y-00685*
X00064Y-00686*
X00065Y-00687*
X00065Y-00688*
X00065Y-00689*
X0006Y-0069*
Y-0069*
X0006Y-0069*
Y-0069*
X0006Y-0069*
X0006Y-00689*
X0006Y-00689*
X0006Y-00688*
X00059Y-00688*
X00059Y-00687*
X00058Y-00687*
X00058Y-00687*
X00058Y-00687*
X00058Y-00686*
X00057Y-00686*
X00057Y-00686*
X00056Y-00686*
X00056Y-00686*
X00055Y-00686*
X00055*
X00054Y-00686*
X00054Y-00686*
X00054Y-00686*
X00053Y-00686*
X00052Y-00686*
X00052Y-00687*
X00051Y-00687*
X00051Y-00687*
X00051Y-00687*
X0005Y-00688*
Y-00688*
X0005Y-00688*
X0005Y-00688*
X0005Y-00688*
X0005Y-00688*
X0005Y-00689*
X00049Y-00689*
X00049Y-00689*
X00049Y-0069*
X00049Y-0069*
X00049Y-00691*
X00049Y-00691*
X00049Y-00692*
X00049Y-00693*
X00048Y-00694*
X00048Y-00694*
Y-00694*
Y-00695*
Y-00695*
X00048Y-00695*
Y-00696*
X00049Y-00696*
X00049Y-00697*
X00049Y-00697*
X00049Y-00698*
X00049Y-00699*
X00049Y-007*
X0005Y-007*
X0005Y-00701*
X0005Y-00701*
X0005Y-00701*
X0005Y-00701*
X0005Y-00701*
X00051Y-00702*
X00051Y-00702*
X00051Y-00702*
X00052Y-00703*
X00053Y-00703*
X00054Y-00703*
X00054Y-00703*
X00055Y-00703*
X00055*
X00055Y-00703*
X00055Y-00703*
X00056Y-00703*
X00056Y-00703*
X00057Y-00703*
X00058Y-00702*
X00058Y-00702*
X00058Y-00702*
X00058Y-00702*
X00059Y-00701*
X00059Y-00701*
X00059Y-007*
X0006Y-007*
X0006Y-00699*
X0006Y-00698*
X00065Y-00699*
Y-00699*
X00065Y-007*
X00065Y-007*
X00065Y-007*
X00065Y-007*
X00065Y-00701*
X00065Y-00701*
X00064Y-00702*
X00064Y-00703*
X00063Y-00704*
X00062Y-00705*
X00062Y-00705*
X00062Y-00706*
X00062Y-00706*
X00061Y-00706*
X00061Y-00706*
X00061Y-00706*
X00061Y-00706*
X0006Y-00706*
X0006Y-00707*
X0006Y-00707*
X00059Y-00707*
X00059Y-00707*
X00058Y-00707*
X00058Y-00707*
X00057Y-00708*
X00056Y-00708*
X00056Y-00708*
X00055Y-00708*
X00055*
X00054Y-00708*
X00054Y-00708*
X00053Y-00708*
X00053Y-00708*
X00052Y-00707*
X00052Y-00707*
X00051Y-00707*
X0005Y-00707*
X0005Y-00707*
X00049Y-00706*
X00048Y-00706*
X00048Y-00705*
X00047Y-00705*
X00046Y-00704*
X00046Y-00704*
X00046Y-00704*
X00046Y-00704*
X00046Y-00704*
X00046Y-00703*
X00045Y-00703*
X00045Y-00702*
X00045Y-00702*
X00044Y-00701*
X00044Y-007*
X00044Y-007*
X00044Y-00699*
X00043Y-00698*
X00043Y-00697*
X00043Y-00696*
X00043Y-00695*
Y-00695*
Y-00695*
Y-00694*
X00043Y-00694*
Y-00694*
X00043Y-00693*
X00043Y-00693*
X00043Y-00692*
X00044Y-00691*
X00044Y-0069*
X00044Y-00689*
X00044Y-00689*
X00045Y-00688*
X00045Y-00687*
X00045Y-00686*
X00046Y-00685*
X00046Y-00685*
X00046Y-00685*
X00047Y-00685*
X00047Y-00684*
X00047Y-00684*
X00047Y-00684*
X00048Y-00684*
X00048Y-00683*
X00049Y-00683*
X00049Y-00683*
X0005Y-00682*
X00051Y-00682*
X00051Y-00682*
X00052Y-00682*
X00053Y-00681*
X00054Y-00681*
X00055Y-00681*
X00056*
X00056Y-00681*
G37*
G36*
X00148Y-00577D02*
X00143D01*
Y-00559*
X00143Y-00559*
X00143Y-00559*
X00143Y-00559*
X00143Y-00559*
X00142Y-00559*
X00142Y-0056*
X00142Y-0056*
X00141Y-0056*
X00141Y-00561*
X0014Y-00561*
X0014Y-00561*
X00139Y-00561*
X00138Y-00562*
X00137Y-00563*
Y-00558*
X00137*
X00137Y-00558*
X00137Y-00558*
X00137Y-00558*
X00138Y-00558*
X00138Y-00558*
X00139Y-00557*
X00139Y-00557*
X0014Y-00556*
X00141Y-00556*
X00141Y-00556*
X00141Y-00556*
X00141Y-00556*
X00141Y-00555*
X00142Y-00555*
X00142Y-00555*
X00143Y-00554*
X00143Y-00553*
X00144Y-00552*
X00144Y-00552*
X00148*
Y-00577*
G37*
G36*
X00123Y-00552D02*
X00123D01*
X00124Y-00552*
X00124*
X00125Y-00552*
X00126Y-00552*
X00127Y-00552*
X00127Y-00552*
X00128Y-00552*
X00128*
X00128Y-00553*
X00128Y-00553*
X00128Y-00553*
X00129Y-00553*
X00129Y-00553*
X0013Y-00554*
X0013Y-00554*
X00131Y-00555*
Y-00555*
X00131Y-00555*
X00131Y-00555*
X00131Y-00555*
X00131Y-00556*
X00131Y-00556*
X00131Y-00557*
X00132Y-00557*
X00132Y-00558*
X00132Y-00559*
Y-00559*
Y-00559*
Y-00559*
X00132Y-00559*
Y-0056*
X00132Y-0056*
X00132Y-00561*
X00131Y-00561*
X00131Y-00562*
X00131Y-00563*
X0013Y-00563*
X0013Y-00564*
X0013Y-00564*
X0013Y-00564*
X0013Y-00564*
X0013Y-00564*
X0013Y-00564*
X00129Y-00564*
X00129Y-00565*
X00129Y-00565*
X00129Y-00565*
X00128Y-00565*
X00128Y-00565*
X00127Y-00566*
X00127Y-00566*
X00126Y-00566*
X00126Y-00566*
X00125Y-00566*
X00125*
X00125Y-00566*
X00125Y-00566*
X00126Y-00566*
X00126Y-00567*
X00126Y-00567*
X00127Y-00567*
X00127Y-00568*
X00128Y-00568*
X00128Y-00568*
X00128Y-00568*
X00128Y-00569*
X00129Y-00569*
X00129Y-0057*
X00129Y-0057*
X00129Y-0057*
X0013Y-00571*
X0013Y-00571*
X0013Y-00572*
X00131Y-00572*
X00134Y-00577*
X00128*
X00124Y-00572*
X00124Y-00572*
X00124Y-00572*
X00124Y-00572*
X00124Y-00571*
X00123Y-00571*
X00123Y-00571*
X00123Y-0057*
X00122Y-0057*
X00122Y-00569*
X00122Y-00568*
X00121Y-00568*
X00121Y-00568*
X00121Y-00568*
X00121Y-00568*
X00121Y-00568*
X00121Y-00568*
X00121Y-00567*
X0012Y-00567*
X0012Y-00567*
X0012Y-00567*
X0012*
X0012Y-00567*
X00119Y-00567*
X00119Y-00567*
X00119Y-00567*
X00118Y-00567*
X00118Y-00567*
X00116*
Y-00577*
X00111*
Y-00552*
X00122*
X00123Y-00552*
G37*
G36*
X-00033Y-00421D02*
X-00032Y-00421D01*
X-00032Y-00421*
X-00031Y-00421*
X-00031Y-00422*
X-0003Y-00422*
X-0003Y-00422*
X-00029Y-00422*
X-00028Y-00422*
X-00028Y-00423*
X-00027Y-00423*
X-00027Y-00424*
X-00026Y-00424*
X-00026*
X-00026Y-00424*
X-00026Y-00424*
X-00026Y-00424*
X-00026Y-00424*
X-00025Y-00425*
X-00025Y-00425*
X-00025Y-00426*
X-00024Y-00427*
X-00024Y-00428*
X-00023Y-00429*
X-00028Y-0043*
Y-0043*
X-00029Y-0043*
Y-0043*
X-00029Y-0043*
X-00029Y-00429*
X-00029Y-00429*
X-00029Y-00428*
X-00029Y-00428*
X-0003Y-00427*
X-0003Y-00427*
X-0003Y-00427*
X-00031Y-00427*
X-00031Y-00426*
X-00031Y-00426*
X-00032Y-00426*
X-00032Y-00426*
X-00033Y-00426*
X-00034Y-00426*
X-00034*
X-00034Y-00426*
X-00035Y-00426*
X-00035Y-00426*
X-00036Y-00426*
X-00036Y-00426*
X-00037Y-00427*
X-00037Y-00427*
X-00038Y-00427*
X-00038Y-00427*
X-00039Y-00428*
Y-00428*
X-00039Y-00428*
X-00039Y-00428*
X-00039Y-00428*
X-00039Y-00428*
X-00039Y-00429*
X-00039Y-00429*
X-00039Y-00429*
X-0004Y-0043*
X-0004Y-0043*
X-0004Y-00431*
X-0004Y-00431*
X-0004Y-00432*
X-0004Y-00433*
X-0004Y-00434*
X-0004Y-00434*
Y-00434*
Y-00435*
Y-00435*
X-0004Y-00435*
Y-00436*
X-0004Y-00436*
X-0004Y-00436*
X-0004Y-00437*
X-0004Y-00438*
X-0004Y-00439*
X-00039Y-0044*
X-00039Y-0044*
X-00039Y-00441*
X-00039Y-00441*
X-00038Y-00441*
X-00038Y-00441*
X-00038Y-00441*
X-00038Y-00442*
X-00038Y-00442*
X-00037Y-00442*
X-00037Y-00443*
X-00036Y-00443*
X-00035Y-00443*
X-00035Y-00443*
X-00034Y-00443*
X-00034*
X-00034Y-00443*
X-00033Y-00443*
X-00033Y-00443*
X-00032Y-00443*
X-00032Y-00443*
X-00031Y-00442*
X-0003Y-00442*
X-0003Y-00442*
X-0003Y-00442*
X-0003Y-00441*
X-0003Y-00441*
X-00029Y-0044*
X-00029Y-0044*
X-00029Y-00439*
X-00028Y-00438*
X-00023Y-00439*
Y-00439*
X-00023Y-0044*
X-00023Y-0044*
X-00024Y-0044*
X-00024Y-0044*
X-00024Y-00441*
X-00024Y-00441*
X-00024Y-00442*
X-00025Y-00443*
X-00025Y-00444*
X-00026Y-00445*
X-00027Y-00445*
X-00027Y-00446*
X-00027Y-00446*
X-00027Y-00446*
X-00027Y-00446*
X-00028Y-00446*
X-00028Y-00446*
X-00028Y-00446*
X-00029Y-00447*
X-00029Y-00447*
X-00029Y-00447*
X-0003Y-00447*
X-00031Y-00447*
X-00031Y-00447*
X-00032Y-00448*
X-00032Y-00448*
X-00033Y-00448*
X-00034Y-00448*
X-00034*
X-00034Y-00448*
X-00035Y-00448*
X-00035Y-00448*
X-00036Y-00448*
X-00036Y-00447*
X-00037Y-00447*
X-00038Y-00447*
X-00038Y-00447*
X-00039Y-00447*
X-0004Y-00446*
X-0004Y-00446*
X-00041Y-00445*
X-00042Y-00445*
X-00042Y-00444*
X-00042Y-00444*
X-00042Y-00444*
X-00043Y-00444*
X-00043Y-00444*
X-00043Y-00443*
X-00043Y-00443*
X-00044Y-00442*
X-00044Y-00442*
X-00044Y-00441*
X-00045Y-0044*
X-00045Y-0044*
X-00045Y-00439*
X-00045Y-00438*
X-00045Y-00437*
X-00046Y-00436*
X-00046Y-00435*
Y-00435*
Y-00435*
Y-00434*
X-00046Y-00434*
Y-00434*
X-00045Y-00433*
X-00045Y-00433*
X-00045Y-00432*
X-00045Y-00431*
X-00045Y-0043*
X-00045Y-00429*
X-00045Y-00429*
X-00044Y-00428*
X-00044Y-00427*
X-00043Y-00426*
X-00043Y-00425*
X-00042Y-00425*
X-00042Y-00425*
X-00042Y-00425*
X-00042Y-00424*
X-00042Y-00424*
X-00041Y-00424*
X-00041Y-00424*
X-00041Y-00423*
X-0004Y-00423*
X-00039Y-00423*
X-00039Y-00422*
X-00038Y-00422*
X-00037Y-00422*
X-00036Y-00422*
X-00036Y-00421*
X-00035Y-00421*
X-00034Y-00421*
X-00033*
X-00033Y-00421*
G37*
G36*
X-00007Y-00447D02*
X-00012D01*
Y-00429*
X-00012Y-00429*
X-00012Y-00429*
X-00013Y-00429*
X-00013Y-00429*
X-00013Y-00429*
X-00013Y-0043*
X-00014Y-0043*
X-00014Y-0043*
X-00015Y-0043*
X-00015Y-00431*
X-00016Y-00431*
X-00016Y-00431*
X-00017Y-00432*
X-00019Y-00432*
Y-00428*
X-00019*
X-00019Y-00428*
X-00018Y-00428*
X-00018Y-00428*
X-00018Y-00428*
X-00017Y-00428*
X-00017Y-00427*
X-00016Y-00427*
X-00015Y-00426*
X-00015Y-00426*
X-00014Y-00426*
X-00014Y-00426*
X-00014Y-00426*
X-00014Y-00425*
X-00014Y-00425*
X-00013Y-00425*
X-00013Y-00424*
X-00012Y-00423*
X-00012Y-00422*
X-00011Y-00422*
X-00007*
Y-00447*
G37*
G36*
X00008Y-00422D02*
X00008Y-00422D01*
X00009Y-00422*
X00009Y-00422*
X00009Y-00422*
X0001Y-00422*
X0001Y-00422*
X00011Y-00422*
X00011Y-00423*
X00012Y-00423*
X00012Y-00423*
X00013Y-00424*
X00013Y-00424*
X00013Y-00424*
X00013Y-00424*
X00013Y-00425*
X00013Y-00425*
X00014Y-00425*
X00014Y-00426*
X00014Y-00426*
X00014Y-00427*
X00015Y-00427*
X00015Y-00428*
X00015Y-00429*
X00015Y-0043*
X00015Y-00431*
X00015Y-00432*
X00016Y-00433*
X00016Y-00435*
Y-00435*
Y-00435*
Y-00435*
Y-00435*
Y-00435*
X00016Y-00436*
X00016Y-00436*
X00015Y-00437*
X00015Y-00438*
X00015Y-00439*
X00015Y-0044*
X00015Y-0044*
X00015Y-00441*
X00015Y-00442*
X00014Y-00443*
X00014Y-00444*
X00014Y-00445*
X00013Y-00445*
X00013Y-00445*
X00013Y-00445*
X00013Y-00445*
X00013Y-00446*
X00012Y-00446*
X00012Y-00446*
X00012Y-00446*
X00012Y-00446*
X00011Y-00447*
X00011Y-00447*
X0001Y-00447*
X0001Y-00447*
X00009Y-00448*
X00009Y-00448*
X00008Y-00448*
X00007Y-00448*
X00007*
X00007Y-00448*
X00007*
X00006Y-00448*
X00006Y-00448*
X00006Y-00448*
X00005Y-00447*
X00005Y-00447*
X00004Y-00447*
X00004Y-00447*
X00003Y-00447*
X00003Y-00446*
X00002Y-00446*
X00002Y-00445*
X00001Y-00445*
X00001Y-00445*
X00001Y-00445*
X00001Y-00445*
X00001Y-00444*
X00001Y-00444*
X00001Y-00444*
X0Y-00443*
X0Y-00443*
X0Y-00442*
X0Y-00441*
X0Y-0044*
X0Y-00439*
X0Y-00438*
X0Y-00437*
X0Y-00436*
X0Y-00435*
Y-00435*
Y-00435*
Y-00434*
Y-00434*
Y-00434*
X0Y-00433*
X0Y-00433*
X0Y-00432*
X0Y-00431*
X0Y-00431*
X0Y-0043*
X0Y-00429*
X0Y-00428*
X0Y-00427*
X0Y-00426*
X00001Y-00426*
X00001Y-00425*
X00001Y-00424*
X00001Y-00424*
X00002Y-00424*
X00002Y-00424*
X00002Y-00424*
X00002Y-00424*
X00002Y-00423*
X00003Y-00423*
X00003Y-00423*
X00003Y-00423*
X00004Y-00422*
X00004Y-00422*
X00005Y-00422*
X00005Y-00422*
X00006Y-00422*
X00007Y-00422*
X00007Y-00422*
X00008*
X00008Y-00422*
G37*
G36*
X00061Y-00447D02*
X00056D01*
Y-00429*
X00056Y-00429*
X00056Y-00429*
X00056Y-00429*
X00056Y-00429*
X00055Y-00429*
X00055Y-0043*
X00055Y-0043*
X00054Y-0043*
X00054Y-00431*
X00053Y-00431*
X00053Y-00431*
X00052Y-00431*
X00051Y-00432*
X0005Y-00433*
Y-00428*
X0005*
X0005Y-00428*
X0005Y-00428*
X0005Y-00428*
X00051Y-00428*
X00051Y-00428*
X00052Y-00427*
X00052Y-00427*
X00053Y-00426*
X00054Y-00426*
X00054Y-00426*
X00054Y-00426*
X00054Y-00426*
X00054Y-00425*
X00055Y-00425*
X00055Y-00425*
X00056Y-00424*
X00056Y-00423*
X00057Y-00422*
X00057Y-00422*
X00061*
Y-00447*
G37*
G36*
X00045Y-00426D02*
X00033D01*
Y-00432*
X00044*
Y-00436*
X00033*
Y-00447*
X00028*
Y-00422*
X00045*
Y-00426*
G37*
G36*
X-00098Y-00421D02*
X-00097Y-00421D01*
X-00097Y-00421*
X-00096Y-00421*
X-00096Y-00422*
X-00095Y-00422*
X-00095Y-00422*
X-00094Y-00422*
X-00093Y-00422*
X-00093Y-00423*
X-00092Y-00423*
X-00092Y-00424*
X-00091Y-00424*
X-00091*
X-00091Y-00424*
X-00091Y-00424*
X-00091Y-00424*
X-00091Y-00424*
X-0009Y-00425*
X-0009Y-00425*
X-0009Y-00426*
X-00089Y-00427*
X-00089Y-00428*
X-00088Y-00429*
X-00093Y-0043*
Y-0043*
X-00094Y-0043*
Y-0043*
X-00094Y-0043*
X-00094Y-00429*
X-00094Y-00429*
X-00094Y-00428*
X-00094Y-00428*
X-00095Y-00427*
X-00095Y-00427*
X-00095Y-00427*
X-00096Y-00427*
X-00096Y-00426*
X-00096Y-00426*
X-00097Y-00426*
X-00097Y-00426*
X-00098Y-00426*
X-00099Y-00426*
X-00099*
X-00099Y-00426*
X-001Y-00426*
X-001Y-00426*
X-001Y-00426*
X-00101Y-00426*
X-00102Y-00427*
X-00102Y-00427*
X-00103Y-00427*
X-00103Y-00427*
X-00103Y-00428*
Y-00428*
X-00104Y-00428*
X-00104Y-00428*
X-00104Y-00428*
X-00104Y-00428*
X-00104Y-00429*
X-00104Y-00429*
X-00104Y-00429*
X-00105Y-0043*
X-00105Y-0043*
X-00105Y-00431*
X-00105Y-00431*
X-00105Y-00432*
X-00105Y-00433*
X-00105Y-00434*
X-00105Y-00434*
Y-00434*
Y-00435*
Y-00435*
X-00105Y-00435*
Y-00436*
X-00105Y-00436*
X-00105Y-00437*
X-00105Y-00437*
X-00105Y-00438*
X-00104Y-00439*
X-00104Y-0044*
X-00104Y-0044*
X-00104Y-00441*
X-00103Y-00441*
X-00103Y-00441*
X-00103Y-00441*
X-00103Y-00442*
X-00103Y-00442*
X-00103Y-00442*
X-00102Y-00442*
X-00102Y-00443*
X-00101Y-00443*
X-001Y-00443*
X-001Y-00443*
X-00099Y-00443*
X-00099*
X-00099Y-00443*
X-00098Y-00443*
X-00098Y-00443*
X-00097Y-00443*
X-00097Y-00443*
X-00096Y-00443*
X-00095Y-00442*
X-00095Y-00442*
X-00095Y-00442*
X-00095Y-00442*
X-00095Y-00441*
X-00094Y-0044*
X-00094Y-0044*
X-00094Y-00439*
X-00093Y-00438*
X-00088Y-00439*
Y-0044*
X-00088Y-0044*
X-00088Y-0044*
X-00089Y-0044*
X-00089Y-00441*
X-00089Y-00441*
X-00089Y-00441*
X-00089Y-00442*
X-0009Y-00443*
X-0009Y-00444*
X-00091Y-00445*
X-00092Y-00445*
X-00092Y-00446*
X-00092Y-00446*
X-00092Y-00446*
X-00092Y-00446*
X-00093Y-00446*
X-00093Y-00446*
X-00093Y-00446*
X-00094Y-00447*
X-00094Y-00447*
X-00094Y-00447*
X-00095Y-00447*
X-00096Y-00447*
X-00096Y-00447*
X-00097Y-00448*
X-00097Y-00448*
X-00098Y-00448*
X-00099Y-00448*
X-00099*
X-00099Y-00448*
X-001Y-00448*
X-001Y-00448*
X-00101Y-00448*
X-00101Y-00447*
X-00102Y-00447*
X-00103Y-00447*
X-00103Y-00447*
X-00104Y-00447*
X-00105Y-00446*
X-00105Y-00446*
X-00106Y-00445*
X-00107Y-00445*
X-00107Y-00444*
X-00107Y-00444*
X-00107Y-00444*
X-00108Y-00444*
X-00108Y-00444*
X-00108Y-00443*
X-00108Y-00443*
X-00109Y-00442*
X-00109Y-00442*
X-00109Y-00441*
X-0011Y-0044*
X-0011Y-0044*
X-0011Y-00439*
X-0011Y-00438*
X-0011Y-00437*
X-00111Y-00436*
X-00111Y-00435*
Y-00435*
Y-00435*
Y-00434*
X-00111Y-00434*
Y-00434*
X-0011Y-00433*
X-0011Y-00433*
X-0011Y-00432*
X-0011Y-00431*
X-0011Y-0043*
X-0011Y-00429*
X-00109Y-00429*
X-00109Y-00428*
X-00109Y-00427*
X-00108Y-00426*
X-00108Y-00425*
X-00107Y-00425*
X-00107Y-00425*
X-00107Y-00425*
X-00107Y-00424*
X-00107Y-00424*
X-00106Y-00424*
X-00106Y-00424*
X-00105Y-00423*
X-00105Y-00423*
X-00104Y-00423*
X-00104Y-00422*
X-00103Y-00422*
X-00102Y-00422*
X-00101Y-00422*
X-00101Y-00421*
X-001Y-00421*
X-00099Y-00421*
X-00098*
X-00098Y-00421*
G37*
G36*
X-00056Y-00422D02*
X-00056Y-00422D01*
X-00055Y-00422*
X-00055Y-00422*
X-00054Y-00422*
X-00053Y-00422*
X-00052Y-00422*
X-00052Y-00423*
X-00052Y-00423*
X-00051Y-00423*
X-00051Y-00424*
X-00051Y-00424*
X-00051Y-00424*
X-0005Y-00424*
X-0005Y-00424*
X-0005Y-00424*
X-0005Y-00424*
X-0005Y-00425*
X-0005Y-00425*
X-00049Y-00426*
X-00049Y-00427*
X-00049Y-00427*
X-00049Y-00428*
X-00048Y-00428*
X-00048Y-00429*
Y-00429*
Y-00429*
X-00048Y-00429*
X-00049Y-0043*
X-00049Y-0043*
X-00049Y-00431*
X-00049Y-00431*
X-00049Y-00432*
X-00049Y-00432*
X-00049Y-00432*
X-00049Y-00433*
X-0005Y-00433*
X-0005Y-00434*
X-0005Y-00434*
X-00051Y-00435*
X-00051Y-00435*
X-00051Y-00435*
X-00051Y-00436*
X-00051Y-00436*
X-00052Y-00436*
X-00052Y-00437*
X-00053Y-00437*
X-00053Y-00438*
X-00054Y-00439*
X-00054Y-00439*
X-00054Y-00439*
X-00054Y-00439*
X-00055Y-00439*
X-00055Y-00439*
X-00056Y-0044*
X-00056Y-0044*
X-00056Y-00441*
X-00057Y-00441*
X-00057Y-00441*
X-00057Y-00441*
X-00057Y-00441*
X-00057Y-00442*
X-00057Y-00442*
X-00058Y-00442*
X-00058Y-00442*
X-00058Y-00443*
X-00048*
Y-00447*
X-00066*
Y-00447*
Y-00447*
X-00066Y-00447*
X-00066Y-00447*
X-00066Y-00447*
X-00065Y-00446*
X-00065Y-00446*
X-00065Y-00445*
X-00065Y-00444*
X-00064Y-00443*
X-00064Y-00442*
Y-00442*
X-00064Y-00442*
X-00064Y-00442*
X-00064Y-00442*
X-00064Y-00442*
X-00063Y-00442*
X-00063Y-00441*
X-00063Y-00441*
X-00062Y-0044*
X-00062Y-0044*
X-00062Y-00439*
X-00061Y-00439*
X-00061Y-00438*
X-0006Y-00438*
X-00059Y-00437*
X-00058Y-00436*
X-00058Y-00436*
X-00058Y-00436*
X-00058Y-00436*
X-00058Y-00436*
X-00058Y-00436*
X-00057Y-00435*
X-00057Y-00435*
X-00056Y-00434*
X-00055Y-00433*
X-00055Y-00433*
X-00055Y-00433*
X-00055Y-00432*
X-00054Y-00432*
X-00054Y-00432*
X-00054Y-00432*
X-00054Y-00432*
X-00054Y-00431*
X-00054Y-00431*
X-00054Y-0043*
X-00053Y-0043*
X-00053Y-00429*
Y-00429*
Y-00429*
Y-00429*
X-00053Y-00428*
X-00053Y-00428*
X-00054Y-00428*
X-00054Y-00427*
X-00054Y-00427*
X-00054Y-00427*
X-00054Y-00426*
X-00054Y-00426*
X-00055Y-00426*
X-00055Y-00426*
X-00055Y-00426*
X-00056Y-00426*
X-00056Y-00426*
X-00057Y-00426*
X-00057*
X-00057Y-00426*
X-00058Y-00426*
X-00058Y-00426*
X-00058Y-00426*
X-00059Y-00426*
X-00059Y-00427*
X-00059Y-00427*
X-00059Y-00427*
X-00059Y-00427*
X-0006Y-00427*
X-0006Y-00428*
X-0006Y-00428*
X-0006Y-00429*
X-0006Y-0043*
X-00065Y-00429*
Y-00429*
X-00065Y-00429*
Y-00429*
X-00065Y-00428*
X-00065Y-00428*
X-00065Y-00428*
X-00065Y-00427*
X-00065Y-00427*
X-00064Y-00426*
X-00064Y-00425*
X-00063Y-00425*
X-00063Y-00424*
X-00063Y-00424*
X-00062Y-00423*
X-00062Y-00423*
X-00062Y-00423*
X-00062Y-00423*
X-00062Y-00423*
X-00062Y-00423*
X-00061Y-00423*
X-00061Y-00423*
X-00061Y-00422*
X-0006Y-00422*
X-0006Y-00422*
X-00059Y-00422*
X-00058Y-00422*
X-00057Y-00422*
X-00057Y-00422*
X-00056*
X-00056Y-00422*
G37*
G36*
X-00072Y-00447D02*
X-00077D01*
Y-00429*
X-00077Y-00429*
X-00077Y-00429*
X-00078Y-00429*
X-00078Y-00429*
X-00078Y-00429*
X-00078Y-0043*
X-00079Y-0043*
X-00079Y-0043*
X-0008Y-0043*
X-0008Y-00431*
X-00081Y-00431*
X-00081Y-00431*
X-00082Y-00432*
X-00084Y-00432*
Y-00428*
X-00084*
X-00084Y-00428*
X-00083Y-00428*
X-00083Y-00428*
X-00083Y-00428*
X-00082Y-00428*
X-00082Y-00427*
X-00081Y-00427*
X-0008Y-00426*
X-00079Y-00426*
X-00079Y-00426*
X-00079Y-00426*
X-00079Y-00426*
X-00079Y-00425*
X-00079Y-00425*
X-00078Y-00425*
X-00078Y-00424*
X-00077Y-00423*
X-00077Y-00422*
X-00076Y-00422*
X-00072*
Y-00447*
G37*
G36*
X-00163Y-00421D02*
X-00163Y-00421D01*
X-00162Y-00421*
X-00162Y-00421*
X-00161Y-00422*
X-0016Y-00422*
X-0016Y-00422*
X-00159Y-00422*
X-00159Y-00422*
X-00158Y-00423*
X-00157Y-00423*
X-00157Y-00424*
X-00156Y-00424*
X-00156*
X-00156Y-00424*
X-00156Y-00424*
X-00156Y-00424*
X-00156Y-00424*
X-00156Y-00425*
X-00155Y-00425*
X-00155Y-00426*
X-00154Y-00427*
X-00154Y-00428*
X-00153Y-00429*
X-00159Y-0043*
Y-0043*
X-00159Y-0043*
Y-0043*
X-00159Y-0043*
X-00159Y-00429*
X-00159Y-00429*
X-00159Y-00428*
X-0016Y-00428*
X-0016Y-00427*
X-00161Y-00427*
X-00161Y-00427*
X-00161Y-00427*
X-00161Y-00426*
X-00161Y-00426*
X-00162Y-00426*
X-00163Y-00426*
X-00163Y-00426*
X-00164Y-00426*
X-00164*
X-00164Y-00426*
X-00165Y-00426*
X-00165Y-00426*
X-00166Y-00426*
X-00166Y-00426*
X-00167Y-00427*
X-00168Y-00427*
X-00168Y-00427*
X-00168Y-00427*
X-00169Y-00428*
Y-00428*
X-00169Y-00428*
X-00169Y-00428*
X-00169Y-00428*
X-00169Y-00428*
X-00169Y-00429*
X-00169Y-00429*
X-00169Y-00429*
X-0017Y-0043*
X-0017Y-0043*
X-0017Y-00431*
X-0017Y-00431*
X-0017Y-00432*
X-0017Y-00433*
X-0017Y-00434*
X-0017Y-00434*
Y-00434*
Y-00435*
Y-00435*
X-0017Y-00435*
Y-00436*
X-0017Y-00436*
X-0017Y-00436*
X-0017Y-00437*
X-0017Y-00438*
X-0017Y-00439*
X-00169Y-0044*
X-00169Y-0044*
X-00169Y-00441*
X-00169Y-00441*
X-00169Y-00441*
X-00169Y-00441*
X-00168Y-00441*
X-00168Y-00442*
X-00168Y-00442*
X-00167Y-00442*
X-00167Y-00443*
X-00166Y-00443*
X-00165Y-00443*
X-00165Y-00443*
X-00164Y-00443*
X-00164*
X-00164Y-00443*
X-00163Y-00443*
X-00163Y-00443*
X-00162Y-00443*
X-00162Y-00443*
X-00161Y-00442*
X-00161Y-00442*
X-00161Y-00442*
X-0016Y-00442*
X-0016Y-00441*
X-0016Y-00441*
X-00159Y-0044*
X-00159Y-0044*
X-00159Y-00439*
X-00158Y-00438*
X-00153Y-00439*
Y-00439*
X-00153Y-0044*
X-00154Y-0044*
X-00154Y-0044*
X-00154Y-0044*
X-00154Y-00441*
X-00154Y-00441*
X-00154Y-00442*
X-00155Y-00443*
X-00156Y-00444*
X-00156Y-00445*
X-00157Y-00445*
X-00157Y-00446*
X-00157Y-00446*
X-00157Y-00446*
X-00158Y-00446*
X-00158Y-00446*
X-00158Y-00446*
X-00158Y-00446*
X-00159Y-00447*
X-00159Y-00447*
X-0016Y-00447*
X-0016Y-00447*
X-00161Y-00447*
X-00161Y-00447*
X-00162Y-00448*
X-00163Y-00448*
X-00163Y-00448*
X-00164Y-00448*
X-00164*
X-00165Y-00448*
X-00165Y-00448*
X-00165Y-00448*
X-00166Y-00448*
X-00166Y-00447*
X-00167Y-00447*
X-00168Y-00447*
X-00168Y-00447*
X-00169Y-00447*
X-0017Y-00446*
X-0017Y-00446*
X-00171Y-00445*
X-00172Y-00445*
X-00172Y-00444*
X-00172Y-00444*
X-00173Y-00444*
X-00173Y-00444*
X-00173Y-00444*
X-00173Y-00443*
X-00173Y-00443*
X-00174Y-00442*
X-00174Y-00442*
X-00174Y-00441*
X-00175Y-0044*
X-00175Y-0044*
X-00175Y-00439*
X-00175Y-00438*
X-00176Y-00437*
X-00176Y-00436*
X-00176Y-00435*
Y-00435*
Y-00435*
Y-00434*
X-00176Y-00434*
Y-00434*
X-00176Y-00433*
X-00176Y-00433*
X-00175Y-00432*
X-00175Y-00431*
X-00175Y-0043*
X-00175Y-00429*
X-00175Y-00429*
X-00174Y-00428*
X-00174Y-00427*
X-00173Y-00426*
X-00173Y-00425*
X-00172Y-00425*
X-00172Y-00425*
X-00172Y-00425*
X-00172Y-00424*
X-00172Y-00424*
X-00171Y-00424*
X-00171Y-00424*
X-00171Y-00423*
X-0017Y-00423*
X-00169Y-00423*
X-00169Y-00422*
X-00168Y-00422*
X-00167Y-00422*
X-00167Y-00422*
X-00166Y-00421*
X-00165Y-00421*
X-00164Y-00421*
X-00163*
X-00163Y-00421*
G37*
G36*
X-00121Y-00422D02*
X-00121Y-00422D01*
X-00121Y-00422*
X-0012Y-00422*
X-0012Y-00422*
X-00119Y-00422*
X-00119Y-00422*
X-00118Y-00423*
X-00118Y-00423*
X-00117Y-00423*
X-00117Y-00423*
X-00116Y-00424*
X-00116Y-00424*
X-00116Y-00424*
X-00116Y-00424*
X-00116Y-00424*
X-00116Y-00425*
X-00115Y-00425*
X-00115Y-00426*
X-00115Y-00426*
X-00115Y-00427*
X-00114Y-00428*
X-00114Y-00428*
Y-00428*
Y-00428*
X-00114Y-00428*
X-00115Y-00429*
X-00115Y-00429*
X-00115Y-00429*
X-00115Y-0043*
X-00115Y-0043*
X-00115Y-00431*
X-00115Y-00431*
X-00116Y-00431*
X-00116Y-00432*
X-00116Y-00432*
X-00117Y-00433*
X-00117Y-00433*
X-00118Y-00434*
X-00118*
X-00118Y-00434*
X-00118*
X-00118Y-00434*
X-00117Y-00434*
X-00117Y-00434*
X-00116Y-00434*
X-00116Y-00435*
X-00115Y-00435*
X-00115Y-00436*
X-00115Y-00436*
X-00114Y-00436*
X-00114Y-00436*
X-00114Y-00437*
X-00114Y-00437*
X-00114Y-00438*
X-00113Y-00439*
X-00113Y-0044*
Y-0044*
Y-0044*
Y-0044*
X-00113Y-0044*
X-00113Y-0044*
X-00113Y-00441*
X-00114Y-00441*
X-00114Y-00442*
X-00114Y-00443*
X-00114Y-00443*
X-00114Y-00444*
X-00115Y-00444*
X-00115Y-00444*
X-00115Y-00445*
X-00116Y-00445*
X-00116Y-00445*
X-00116Y-00446*
X-00116Y-00446*
X-00116Y-00446*
X-00116Y-00446*
X-00117Y-00446*
X-00117Y-00446*
X-00117Y-00447*
X-00118Y-00447*
X-00118Y-00447*
X-00119Y-00447*
X-00119Y-00447*
X-0012Y-00448*
X-00121Y-00448*
X-00121Y-00448*
X-00122Y-00448*
X-00122*
X-00123Y-00448*
X-00123Y-00448*
X-00123Y-00448*
X-00124Y-00448*
X-00124Y-00448*
X-00125Y-00447*
X-00126Y-00447*
X-00126Y-00447*
X-00127Y-00446*
X-00127Y-00446*
X-00128Y-00446*
X-00128Y-00446*
X-00128Y-00446*
X-00128Y-00446*
X-00128Y-00445*
X-00128Y-00445*
X-00128Y-00445*
X-00129Y-00445*
X-00129Y-00444*
X-00129Y-00444*
X-00129Y-00444*
X-0013Y-00443*
X-0013Y-00442*
X-0013Y-00441*
X-0013Y-00441*
X-00126Y-0044*
Y-0044*
Y-0044*
X-00126Y-0044*
X-00125Y-00441*
X-00125Y-00441*
X-00125Y-00441*
X-00125Y-00442*
X-00125Y-00442*
X-00124Y-00443*
X-00124Y-00443*
X-00124Y-00443*
X-00124Y-00443*
X-00124Y-00443*
X-00123Y-00443*
X-00123Y-00444*
X-00122Y-00444*
X-00122Y-00444*
X-00122*
X-00122Y-00444*
X-00121Y-00444*
X-00121Y-00444*
X-00121Y-00443*
X-0012Y-00443*
X-0012Y-00443*
X-00119Y-00443*
X-00119Y-00443*
X-00119Y-00442*
X-00119Y-00442*
X-00119Y-00442*
X-00119Y-00441*
X-00118Y-00441*
X-00118Y-0044*
X-00118Y-00439*
Y-00439*
Y-00439*
Y-00439*
X-00118Y-00439*
X-00118Y-00438*
X-00119Y-00438*
X-00119Y-00437*
X-00119Y-00437*
X-00119Y-00436*
X-00119Y-00436*
X-0012Y-00436*
X-0012Y-00436*
X-0012Y-00436*
X-0012Y-00436*
X-00121Y-00436*
X-00121Y-00435*
X-00122Y-00435*
X-00122*
X-00122Y-00435*
X-00123Y-00435*
X-00123Y-00436*
X-00124Y-00436*
X-00124Y-00436*
X-00124Y-00432*
X-00123*
X-00123Y-00432*
X-00122Y-00432*
X-00122Y-00432*
X-00121Y-00431*
X-00121Y-00431*
X-0012Y-00431*
X-0012Y-00431*
X-0012Y-00431*
X-0012Y-00431*
X-0012Y-0043*
X-0012Y-0043*
X-0012Y-0043*
X-00119Y-00429*
X-00119Y-00428*
Y-00428*
Y-00428*
X-00119Y-00428*
X-00119Y-00428*
X-0012Y-00427*
X-0012Y-00427*
X-0012Y-00427*
X-0012Y-00426*
X-0012Y-00426*
X-0012Y-00426*
X-0012Y-00426*
X-00121Y-00426*
X-00121Y-00426*
X-00121Y-00426*
X-00122Y-00426*
X-00122Y-00426*
X-00122*
X-00123Y-00426*
X-00123Y-00426*
X-00123Y-00426*
X-00124Y-00426*
X-00124Y-00426*
X-00124Y-00427*
X-00124Y-00427*
X-00125Y-00427*
X-00125Y-00427*
X-00125Y-00427*
X-00125Y-00428*
X-00125Y-00428*
X-00125Y-00428*
X-00125Y-00429*
X-0013Y-00428*
Y-00428*
X-0013Y-00428*
Y-00428*
X-0013Y-00428*
X-0013Y-00428*
X-0013Y-00427*
X-00129Y-00426*
X-00129Y-00426*
X-00129Y-00425*
X-00129Y-00425*
X-00129Y-00425*
X-00128Y-00424*
X-00128Y-00424*
X-00128Y-00424*
X-00127Y-00423*
X-00127Y-00423*
X-00126Y-00423*
X-00126Y-00422*
X-00126*
X-00126Y-00422*
X-00126Y-00422*
X-00125Y-00422*
X-00125Y-00422*
X-00124Y-00422*
X-00124Y-00422*
X-00123Y-00422*
X-00122Y-00422*
X-00122*
X-00121Y-00422*
G37*
G36*
X-00138Y-00447D02*
X-00142D01*
Y-00429*
X-00142Y-00429*
X-00143Y-00429*
X-00143Y-00429*
X-00143Y-00429*
X-00143Y-00429*
X-00143Y-0043*
X-00144Y-0043*
X-00144Y-0043*
X-00145Y-0043*
X-00145Y-00431*
X-00146Y-00431*
X-00146Y-00431*
X-00147Y-00432*
X-00149Y-00432*
Y-00428*
X-00149*
X-00149Y-00428*
X-00149Y-00428*
X-00148Y-00428*
X-00148Y-00428*
X-00148Y-00428*
X-00147Y-00427*
X-00146Y-00427*
X-00145Y-00426*
X-00145Y-00426*
X-00145Y-00426*
X-00145Y-00426*
X-00144Y-00426*
X-00144Y-00425*
X-00144Y-00425*
X-00143Y-00425*
X-00143Y-00424*
X-00142Y-00423*
X-00142Y-00422*
X-00142Y-00422*
X-00138*
Y-00447*
G37*
G36*
X-00231Y-00421D02*
X-0023Y-00421D01*
X-0023Y-00421*
X-00229Y-00421*
X-00229Y-00422*
X-00228Y-00422*
X-00228Y-00422*
X-00227Y-00422*
X-00226Y-00422*
X-00226Y-00423*
X-00225Y-00423*
X-00225Y-00424*
X-00224Y-00424*
X-00224*
X-00224Y-00424*
X-00224Y-00424*
X-00224Y-00424*
X-00224Y-00424*
X-00223Y-00425*
X-00223Y-00425*
X-00223Y-00426*
X-00222Y-00427*
X-00222Y-00428*
X-00221Y-00429*
X-00226Y-0043*
Y-0043*
X-00226Y-0043*
Y-0043*
X-00227Y-0043*
X-00227Y-00429*
X-00227Y-00429*
X-00227Y-00428*
X-00227Y-00428*
X-00228Y-00427*
X-00228Y-00427*
X-00228Y-00427*
X-00229Y-00427*
X-00229Y-00426*
X-00229Y-00426*
X-0023Y-00426*
X-0023Y-00426*
X-00231Y-00426*
X-00232Y-00426*
X-00232*
X-00232Y-00426*
X-00233Y-00426*
X-00233Y-00426*
X-00233Y-00426*
X-00234Y-00426*
X-00235Y-00427*
X-00235Y-00427*
X-00236Y-00427*
X-00236Y-00427*
X-00236Y-00428*
Y-00428*
X-00237Y-00428*
X-00237Y-00428*
X-00237Y-00428*
X-00237Y-00428*
X-00237Y-00429*
X-00237Y-00429*
X-00237Y-00429*
X-00238Y-0043*
X-00238Y-0043*
X-00238Y-00431*
X-00238Y-00431*
X-00238Y-00432*
X-00238Y-00433*
X-00238Y-00434*
X-00238Y-00434*
Y-00434*
Y-00435*
Y-00435*
X-00238Y-00435*
Y-00436*
X-00238Y-00436*
X-00238Y-00437*
X-00238Y-00437*
X-00238Y-00438*
X-00237Y-00439*
X-00237Y-0044*
X-00237Y-0044*
X-00237Y-00441*
X-00236Y-00441*
X-00236Y-00441*
X-00236Y-00441*
X-00236Y-00442*
X-00236Y-00442*
X-00236Y-00442*
X-00235Y-00442*
X-00235Y-00443*
X-00234Y-00443*
X-00233Y-00443*
X-00232Y-00443*
X-00232Y-00443*
X-00232*
X-00232Y-00443*
X-00231Y-00443*
X-00231Y-00443*
X-0023Y-00443*
X-0023Y-00443*
X-00229Y-00443*
X-00228Y-00442*
X-00228Y-00442*
X-00228Y-00442*
X-00228Y-00442*
X-00228Y-00441*
X-00227Y-0044*
X-00227Y-0044*
X-00227Y-00439*
X-00226Y-00438*
X-00221Y-00439*
Y-0044*
X-00221Y-0044*
X-00221Y-0044*
X-00221Y-0044*
X-00222Y-00441*
X-00222Y-00441*
X-00222Y-00441*
X-00222Y-00442*
X-00223Y-00443*
X-00223Y-00444*
X-00224Y-00445*
X-00225Y-00445*
X-00225Y-00446*
X-00225Y-00446*
X-00225Y-00446*
X-00225Y-00446*
X-00226Y-00446*
X-00226Y-00446*
X-00226Y-00446*
X-00227Y-00447*
X-00227Y-00447*
X-00227Y-00447*
X-00228Y-00447*
X-00229Y-00447*
X-00229Y-00447*
X-0023Y-00448*
X-0023Y-00448*
X-00231Y-00448*
X-00232Y-00448*
X-00232*
X-00232Y-00448*
X-00233Y-00448*
X-00233Y-00448*
X-00234Y-00448*
X-00234Y-00447*
X-00235Y-00447*
X-00236Y-00447*
X-00236Y-00447*
X-00237Y-00447*
X-00238Y-00446*
X-00238Y-00446*
X-00239Y-00445*
X-0024Y-00445*
X-0024Y-00444*
X-0024Y-00444*
X-0024Y-00444*
X-00241Y-00444*
X-00241Y-00444*
X-00241Y-00443*
X-00241Y-00443*
X-00242Y-00442*
X-00242Y-00442*
X-00242Y-00441*
X-00243Y-0044*
X-00243Y-0044*
X-00243Y-00439*
X-00243Y-00438*
X-00243Y-00437*
X-00244Y-00436*
X-00244Y-00435*
Y-00435*
Y-00435*
Y-00434*
X-00244Y-00434*
Y-00434*
X-00243Y-00433*
X-00243Y-00433*
X-00243Y-00432*
X-00243Y-00431*
X-00243Y-0043*
X-00243Y-00429*
X-00242Y-00429*
X-00242Y-00428*
X-00242Y-00427*
X-00241Y-00426*
X-00241Y-00425*
X-0024Y-00425*
X-0024Y-00425*
X-0024Y-00425*
X-0024Y-00424*
X-0024Y-00424*
X-00239Y-00424*
X-00239Y-00424*
X-00238Y-00423*
X-00238Y-00423*
X-00237Y-00423*
X-00237Y-00422*
X-00236Y-00422*
X-00235Y-00422*
X-00234Y-00422*
X-00234Y-00421*
X-00233Y-00421*
X-00232Y-00421*
X-00231*
X-00231Y-00421*
G37*
G36*
X-00185Y-00447D02*
X-0019D01*
Y-00429*
X-0019Y-00429*
X-0019Y-00429*
X-00191Y-00429*
X-00191Y-00429*
X-00191Y-00429*
X-00191Y-0043*
X-00192Y-0043*
X-00192Y-0043*
X-00193Y-0043*
X-00193Y-00431*
X-00194Y-00431*
X-00194Y-00431*
X-00195Y-00432*
X-00197Y-00432*
Y-00428*
X-00197*
X-00197Y-00428*
X-00197Y-00428*
X-00196Y-00428*
X-00196Y-00428*
X-00195Y-00428*
X-00195Y-00427*
X-00194Y-00427*
X-00193Y-00426*
X-00193Y-00426*
X-00193Y-00426*
X-00192Y-00426*
X-00192Y-00426*
X-00192Y-00425*
X-00192Y-00425*
X-00191Y-00425*
X-00191Y-00424*
X-0019Y-00423*
X-0019Y-00422*
X-00189Y-00422*
X-00185*
Y-00447*
G37*
G36*
X-00205D02*
X-0021D01*
Y-00429*
X-0021Y-00429*
X-0021Y-00429*
X-00211Y-00429*
X-00211Y-00429*
X-00211Y-00429*
X-00211Y-0043*
X-00212Y-0043*
X-00212Y-0043*
X-00213Y-0043*
X-00213Y-00431*
X-00214Y-00431*
X-00214Y-00431*
X-00215Y-00432*
X-00217Y-00432*
Y-00428*
X-00217*
X-00217Y-00428*
X-00216Y-00428*
X-00216Y-00428*
X-00216Y-00428*
X-00215Y-00428*
X-00215Y-00427*
X-00214Y-00427*
X-00213Y-00426*
X-00212Y-00426*
X-00212Y-00426*
X-00212Y-00426*
X-00212Y-00426*
X-00212Y-00425*
X-00212Y-00425*
X-00211Y-00425*
X-00211Y-00424*
X-0021Y-00423*
X-0021Y-00422*
X-00209Y-00422*
X-00205*
Y-00447*
G37*
G36*
X-00157Y-00621D02*
X-00175D01*
X-00175Y-00621*
X-00175Y-00621*
X-00175Y-00621*
X-00175Y-00621*
X-00175Y-00621*
X-00175Y-00622*
X-00174Y-00622*
X-00174Y-00623*
X-00174Y-00623*
X-00173Y-00623*
X-00173Y-00624*
X-00173Y-00625*
X-00172Y-00626*
X-00172Y-00627*
X-00176*
Y-00627*
X-00176Y-00627*
X-00176Y-00627*
X-00176Y-00627*
X-00176Y-00626*
X-00177Y-00626*
X-00177Y-00625*
X-00177Y-00625*
X-00178Y-00624*
X-00178Y-00623*
X-00179Y-00623*
X-00179Y-00623*
X-00179Y-00623*
X-00179Y-00623*
X-00179Y-00622*
X-0018Y-00622*
X-0018Y-00621*
X-00181Y-00621*
X-00182Y-0062*
X-00183Y-0062*
Y-00616*
X-00157*
Y-00621*
G37*
G36*
X-00167Y-00633D02*
X-00167D01*
X-00166*
X-00165Y-00633*
X-00164Y-00633*
X-00164Y-00633*
X-00163Y-00633*
X-00163Y-00633*
X-00162Y-00633*
X-00162*
X-00162Y-00633*
X-00162*
X-00162Y-00633*
X-00162Y-00633*
X-00161Y-00634*
X-00161Y-00634*
X-0016Y-00634*
X-0016Y-00634*
X-00159Y-00635*
X-00159Y-00635*
X-00159Y-00635*
X-00159Y-00635*
X-00158Y-00636*
X-00158Y-00636*
X-00158Y-00636*
X-00157Y-00637*
X-00157Y-00638*
Y-00638*
X-00157Y-00638*
X-00157Y-00638*
X-00157Y-00638*
X-00157Y-00638*
X-00157Y-00638*
X-00157Y-00639*
X-00157Y-00639*
X-00157Y-0064*
X-00156Y-00641*
X-00156Y-00642*
X-00156Y-00643*
Y-00643*
X-00156Y-00644*
Y-00644*
X-00156Y-00644*
X-00156Y-00645*
X-00157Y-00646*
X-00157Y-00647*
X-00157Y-00647*
X-00157Y-00648*
X-00157Y-00648*
Y-00648*
X-00157Y-00648*
X-00157Y-00649*
X-00158Y-00649*
X-00158Y-00649*
X-00158Y-0065*
X-00158Y-0065*
X-00159Y-00651*
X-00159Y-00651*
X-00159Y-00651*
X-0016Y-00651*
X-0016Y-00652*
X-0016Y-00652*
X-00161Y-00652*
X-00161Y-00652*
X-00162Y-00653*
X-00162Y-00653*
X-00162*
X-00162Y-00653*
X-00162*
X-00163Y-00653*
X-00163Y-00653*
X-00163Y-00653*
X-00164Y-00653*
X-00164Y-00653*
X-00164Y-00653*
X-00165Y-00653*
X-00165Y-00653*
X-00166Y-00653*
X-00167Y-00653*
X-00167*
X-00168Y-00653*
X-00169*
X-00182*
Y-00648*
X-00169*
X-00169*
X-00168*
X-00168*
X-00168*
X-00168*
X-00167*
X-00167Y-00648*
X-00166*
X-00165Y-00648*
X-00165Y-00648*
X-00165*
X-00164Y-00648*
X-00164Y-00648*
X-00164*
X-00164Y-00648*
X-00164Y-00648*
X-00163Y-00647*
X-00163Y-00647*
X-00163Y-00647*
X-00162Y-00647*
X-00162Y-00646*
X-00162Y-00646*
X-00162Y-00646*
X-00161Y-00646*
X-00161Y-00645*
X-00161Y-00645*
X-00161Y-00644*
X-00161Y-00644*
X-00161Y-00643*
Y-00642*
X-00161Y-00642*
X-00161Y-00642*
X-00161Y-00641*
X-00161Y-00641*
X-00161Y-0064*
X-00162Y-0064*
X-00162Y-00639*
X-00162Y-00639*
X-00162Y-00639*
X-00162Y-00639*
X-00163Y-00639*
X-00163Y-00638*
X-00163Y-00638*
X-00164Y-00638*
X-00164*
X-00164Y-00638*
X-00164Y-00638*
X-00165Y-00638*
X-00165*
X-00166Y-00638*
X-00166*
X-00166Y-00638*
X-00167*
X-00167Y-00638*
X-00168*
X-00168*
X-00182*
Y-00633*
X-00169*
X-00169*
X-00169*
X-00169*
X-00168*
X-00168*
X-00167Y-00633*
G37*
G36*
X-00375Y-00325D02*
Y-00325D01*
Y-00325*
Y-00325*
Y-00326*
Y-00326*
X-00375Y-00327*
Y-00327*
Y-00328*
X-00375Y-00329*
X-00375Y-0033*
X-00375Y-0033*
X-00375Y-00331*
X-00375Y-00331*
X-00375Y-00332*
Y-00332*
X-00375Y-00332*
Y-00332*
X-00375Y-00332*
X-00375Y-00332*
X-00376Y-00333*
X-00376Y-00333*
X-00376Y-00334*
X-00376Y-00334*
X-00377Y-00335*
X-00377Y-00335*
X-00377Y-00335*
X-00377Y-00335*
X-00378Y-00336*
X-00378Y-00336*
X-00378Y-00336*
X-00379Y-00337*
X-0038Y-00337*
X-0038*
X-0038Y-00337*
X-0038Y-00337*
X-0038Y-00337*
X-0038Y-00337*
X-0038Y-00337*
X-00381Y-00337*
X-00381Y-00337*
X-00382Y-00337*
X-00383Y-00338*
X-00384Y-00338*
X-00385Y-00338*
X-00385*
X-00386Y-00338*
X-00386*
X-00386Y-00338*
X-00387Y-00338*
X-00388Y-00337*
X-00389Y-00337*
X-00389Y-00337*
X-0039Y-00337*
X-0039Y-00337*
X-0039*
X-0039Y-00337*
X-00391Y-00337*
X-00391Y-00336*
X-00391Y-00336*
X-00392Y-00336*
X-00392Y-00336*
X-00393Y-00335*
X-00393Y-00335*
X-00393Y-00335*
X-00393Y-00334*
X-00394Y-00334*
X-00394Y-00334*
X-00394Y-00333*
X-00394Y-00333*
X-00395Y-00332*
X-00395Y-00332*
Y-00332*
X-00395Y-00332*
Y-00332*
X-00395Y-00331*
X-00395Y-00331*
X-00395Y-00331*
X-00395Y-0033*
X-00395Y-0033*
X-00395Y-0033*
X-00395Y-00329*
X-00395Y-00329*
X-00395Y-00328*
X-00395Y-00327*
Y-00327*
X-00395Y-00326*
Y-00325*
Y-00312*
X-0039*
Y-00325*
Y-00325*
Y-00326*
Y-00326*
Y-00326*
Y-00326*
Y-00327*
X-0039Y-00327*
Y-00328*
X-0039Y-00329*
X-0039Y-00329*
Y-00329*
X-0039Y-0033*
X-0039Y-0033*
Y-0033*
X-0039Y-0033*
X-0039Y-0033*
X-00389Y-00331*
X-00389Y-00331*
X-00389Y-00331*
X-00389Y-00332*
X-00388Y-00332*
X-00388Y-00332*
X-00388Y-00332*
X-00388Y-00333*
X-00387Y-00333*
X-00387Y-00333*
X-00386Y-00333*
X-00386Y-00333*
X-00385Y-00333*
X-00384*
X-00384Y-00333*
X-00384Y-00333*
X-00383Y-00333*
X-00383Y-00333*
X-00382Y-00333*
X-00382Y-00332*
X-00381Y-00332*
X-00381Y-00332*
X-00381Y-00332*
X-00381Y-00332*
X-00381Y-00331*
X-0038Y-00331*
X-0038Y-00331*
X-0038Y-0033*
Y-0033*
X-0038Y-0033*
X-0038Y-0033*
X-0038Y-00329*
Y-00329*
X-0038Y-00328*
Y-00328*
X-0038Y-00328*
Y-00327*
X-0038Y-00327*
Y-00326*
Y-00326*
Y-00312*
X-00375*
Y-00325*
G37*
G36*
X-00361Y-00311D02*
X-00361Y-00311D01*
X-00361Y-00311*
X-0036Y-00312*
X-0036Y-00312*
X-00359Y-00312*
X-00358Y-00312*
X-00357Y-00312*
X-00357Y-00313*
X-00356Y-00313*
X-00356Y-00313*
X-00356Y-00313*
X-00356Y-00314*
X-00356Y-00314*
X-00356Y-00314*
X-00355Y-00314*
X-00355Y-00314*
X-00355Y-00315*
X-00355Y-00315*
X-00355Y-00316*
X-00354Y-00316*
X-00354Y-00317*
X-00354Y-00317*
X-00354Y-00318*
X-00354Y-00319*
Y-00319*
Y-00319*
X-00354Y-00319*
X-00354Y-0032*
X-00354Y-0032*
X-00354Y-00321*
X-00354Y-00321*
X-00354Y-00322*
X-00354Y-00322*
X-00355Y-00322*
X-00355Y-00322*
X-00355Y-00323*
X-00355Y-00323*
X-00356Y-00324*
X-00356Y-00324*
X-00356Y-00325*
X-00356Y-00325*
X-00357Y-00325*
X-00357Y-00326*
X-00357Y-00326*
X-00358Y-00326*
X-00358Y-00327*
X-00359Y-00328*
X-0036Y-00328*
X-0036Y-00328*
X-0036Y-00328*
X-0036Y-00329*
X-0036Y-00329*
X-0036Y-00329*
X-00361Y-0033*
X-00361Y-0033*
X-00362Y-00331*
X-00362Y-00331*
X-00362Y-00331*
X-00363Y-00331*
X-00363Y-00331*
X-00363Y-00331*
X-00363Y-00332*
X-00363Y-00332*
X-00363Y-00332*
X-00364Y-00333*
X-00354*
Y-00337*
X-00371*
Y-00337*
Y-00337*
X-00371Y-00337*
X-00371Y-00337*
X-00371Y-00336*
X-00371Y-00336*
X-00371Y-00336*
X-00371Y-00335*
X-0037Y-00334*
X-0037Y-00333*
X-00369Y-00332*
Y-00332*
X-00369Y-00332*
X-00369Y-00332*
X-00369Y-00332*
X-00369Y-00332*
X-00369Y-00331*
X-00368Y-00331*
X-00368Y-00331*
X-00368Y-0033*
X-00367Y-0033*
X-00367Y-00329*
X-00366Y-00329*
X-00366Y-00328*
X-00365Y-00327*
X-00365Y-00327*
X-00364Y-00326*
X-00364Y-00326*
X-00364Y-00326*
X-00364Y-00326*
X-00363Y-00326*
X-00363Y-00325*
X-00363Y-00325*
X-00362Y-00324*
X-00361Y-00324*
X-00361Y-00323*
X-0036Y-00323*
X-0036Y-00322*
X-0036Y-00322*
X-0036Y-00322*
X-0036Y-00322*
X-0036Y-00322*
X-00359Y-00321*
X-00359Y-00321*
X-00359Y-0032*
X-00359Y-0032*
X-00359Y-00319*
X-00359Y-00319*
Y-00319*
Y-00319*
Y-00319*
X-00359Y-00318*
X-00359Y-00318*
X-00359Y-00318*
X-00359Y-00317*
X-00359Y-00317*
X-0036Y-00316*
X-0036Y-00316*
X-0036Y-00316*
X-0036Y-00316*
X-0036Y-00316*
X-00361Y-00316*
X-00361Y-00316*
X-00362Y-00315*
X-00362Y-00315*
X-00362*
X-00363Y-00315*
X-00363Y-00316*
X-00363Y-00316*
X-00364Y-00316*
X-00364Y-00316*
X-00365Y-00316*
X-00365Y-00316*
X-00365Y-00317*
X-00365Y-00317*
X-00365Y-00317*
X-00365Y-00318*
X-00365Y-00318*
X-00365Y-00319*
X-00366Y-00319*
X-0037Y-00319*
Y-00319*
X-0037Y-00319*
Y-00319*
X-0037Y-00318*
X-0037Y-00318*
X-0037Y-00318*
X-0037Y-00317*
X-0037Y-00317*
X-0037Y-00316*
X-00369Y-00315*
X-00369Y-00314*
X-00369Y-00314*
X-00368Y-00314*
X-00368Y-00313*
X-00368Y-00313*
X-00368Y-00313*
X-00368Y-00313*
X-00367Y-00313*
X-00367Y-00313*
X-00367Y-00313*
X-00367Y-00312*
X-00366Y-00312*
X-00366Y-00312*
X-00365Y-00312*
X-00364Y-00312*
X-00363Y-00311*
X-00363Y-00311*
X-00362Y-00311*
X-00362*
X-00361Y-00311*
G37*
G36*
X-00905Y-0059D02*
Y-0059D01*
Y-0059*
Y-0059*
Y-00591*
Y-00591*
X-00905Y-00592*
Y-00592*
Y-00593*
X-00905Y-00594*
X-00905Y-00595*
X-00905Y-00595*
X-00905Y-00596*
X-00905Y-00596*
X-00905Y-00597*
Y-00597*
X-00905Y-00597*
Y-00597*
X-00905Y-00597*
X-00906Y-00597*
X-00906Y-00598*
X-00906Y-00598*
X-00906Y-00599*
X-00906Y-00599*
X-00907Y-006*
X-00907Y-006*
X-00907Y-006*
X-00907Y-006*
X-00908Y-00601*
X-00908Y-00601*
X-00909Y-00601*
X-00909Y-00602*
X-0091Y-00602*
X-0091*
X-0091Y-00602*
X-0091Y-00602*
X-0091Y-00602*
X-0091Y-00602*
X-00911Y-00602*
X-00911Y-00602*
X-00911Y-00602*
X-00912Y-00602*
X-00913Y-00603*
X-00914Y-00603*
X-00915Y-00603*
X-00915*
X-00916Y-00603*
X-00916*
X-00916Y-00603*
X-00917Y-00603*
X-00918Y-00602*
X-00919Y-00602*
X-0092Y-00602*
X-0092Y-00602*
X-0092Y-00602*
X-0092*
X-0092Y-00602*
X-00921Y-00602*
X-00921Y-00601*
X-00921Y-00601*
X-00922Y-00601*
X-00922Y-00601*
X-00923Y-006*
X-00923Y-006*
X-00923Y-006*
X-00924Y-00599*
X-00924Y-00599*
X-00924Y-00599*
X-00924Y-00598*
X-00924Y-00598*
X-00925Y-00597*
X-00925Y-00597*
Y-00597*
X-00925Y-00597*
Y-00597*
X-00925Y-00596*
X-00925Y-00596*
X-00925Y-00596*
X-00925Y-00595*
X-00925Y-00595*
X-00925Y-00595*
X-00925Y-00594*
X-00925Y-00594*
X-00925Y-00593*
X-00925Y-00592*
Y-00592*
X-00925Y-00591*
Y-0059*
Y-00577*
X-0092*
Y-0059*
Y-0059*
Y-00591*
Y-00591*
Y-00591*
Y-00591*
Y-00592*
X-0092Y-00592*
Y-00593*
X-0092Y-00594*
X-0092Y-00594*
Y-00594*
X-0092Y-00595*
X-0092Y-00595*
Y-00595*
X-0092Y-00595*
X-0092Y-00595*
X-0092Y-00596*
X-00919Y-00596*
X-00919Y-00596*
X-00919Y-00597*
X-00918Y-00597*
X-00918Y-00597*
X-00918Y-00597*
X-00918Y-00598*
X-00917Y-00598*
X-00917Y-00598*
X-00916Y-00598*
X-00916Y-00598*
X-00915Y-00598*
X-00915*
X-00914Y-00598*
X-00914Y-00598*
X-00913Y-00598*
X-00913Y-00598*
X-00912Y-00598*
X-00912Y-00597*
X-00912Y-00597*
X-00911Y-00597*
X-00911Y-00597*
X-00911Y-00597*
X-00911Y-00596*
X-00911Y-00596*
X-0091Y-00596*
X-0091Y-00595*
Y-00595*
X-0091Y-00595*
X-0091Y-00595*
X-0091Y-00594*
Y-00594*
X-0091Y-00593*
Y-00593*
X-0091Y-00593*
Y-00592*
X-0091Y-00592*
Y-00591*
Y-00591*
Y-00577*
X-00905*
Y-0059*
G37*
G36*
X-00892Y-00576D02*
X-00891Y-00576D01*
X-00891Y-00576*
X-00891Y-00577*
X-0089Y-00577*
X-00889Y-00577*
X-00888Y-00577*
X-00888Y-00577*
X-00887Y-00578*
X-00887Y-00578*
X-00887Y-00578*
X-00887Y-00578*
X-00886Y-00578*
X-00886Y-00578*
X-00886Y-00579*
X-00886Y-00579*
X-00886Y-00579*
X-00886Y-0058*
X-00885Y-0058*
X-00885Y-00581*
X-00885Y-00582*
X-00885Y-00582*
X-00885Y-00583*
Y-00583*
Y-00583*
Y-00583*
X-00885Y-00584*
X-00885Y-00584*
X-00885Y-00585*
X-00885Y-00585*
X-00885Y-00586*
X-00885Y-00586*
X-00886Y-00586*
X-00886Y-00586*
X-00886Y-00587*
X-00886Y-00587*
X-00887Y-00587*
X-00887Y-00588*
X-00887Y-00588*
X-00888Y-00588*
X-00888*
X-00888Y-00588*
X-00888Y-00588*
X-00888Y-00588*
X-00887Y-00589*
X-00887Y-00589*
X-00886Y-00589*
X-00886Y-0059*
X-00885Y-0059*
X-00885Y-00591*
X-00885Y-00591*
X-00885Y-00591*
X-00884Y-00591*
X-00884Y-00592*
X-00884Y-00592*
X-00884Y-00593*
X-00884Y-00594*
X-00884Y-00595*
Y-00595*
Y-00595*
Y-00595*
X-00884Y-00595*
X-00884Y-00596*
X-00884Y-00596*
X-00884Y-00596*
X-00884Y-00597*
X-00884Y-00598*
X-00884Y-00598*
X-00885Y-00599*
X-00885Y-00599*
X-00885Y-006*
X-00886Y-006*
X-00886Y-006*
X-00886Y-006*
X-00886Y-00601*
X-00886Y-00601*
X-00886Y-00601*
X-00887Y-00601*
X-00887Y-00601*
X-00887Y-00601*
X-00888Y-00602*
X-00888Y-00602*
X-00888Y-00602*
X-00889Y-00602*
X-00889Y-00602*
X-0089Y-00602*
X-00891Y-00603*
X-00891Y-00603*
X-00892Y-00603*
X-00892*
X-00893Y-00603*
X-00893Y-00603*
X-00893Y-00603*
X-00894Y-00602*
X-00894Y-00602*
X-00895Y-00602*
X-00896Y-00602*
X-00896Y-00602*
X-00897Y-00601*
X-00897Y-00601*
X-00898Y-00601*
X-00898Y-00601*
X-00898Y-00601*
X-00898Y-00601*
X-00898Y-006*
X-00898Y-006*
X-00899Y-006*
X-00899Y-006*
X-00899Y-00599*
X-00899Y-00599*
X-009Y-00598*
X-009Y-00598*
X-009Y-00597*
X-009Y-00597*
X-009Y-00596*
X-00901Y-00596*
X-00901Y-00595*
Y-00595*
Y-00595*
Y-00595*
Y-00594*
X-00901Y-00594*
X-009Y-00594*
X-009Y-00593*
X-009Y-00592*
X-009Y-00592*
X-009Y-00591*
Y-00591*
X-009Y-00591*
X-00899Y-00591*
X-00899Y-0059*
X-00899Y-0059*
X-00898Y-0059*
X-00898Y-00589*
X-00897Y-00589*
X-00896Y-00588*
X-00896*
X-00896Y-00588*
X-00897Y-00588*
X-00897Y-00588*
X-00897Y-00588*
X-00898Y-00587*
X-00898Y-00587*
X-00899Y-00587*
X-00899Y-00586*
X-00899Y-00586*
X-00899Y-00586*
X-00899Y-00586*
X-009Y-00585*
X-009Y-00585*
X-009Y-00584*
X-009Y-00584*
X-009Y-00583*
Y-00583*
Y-00583*
Y-00583*
X-009Y-00583*
X-009Y-00582*
X-009Y-00582*
X-009Y-00581*
X-00899Y-00581*
X-00899Y-0058*
X-00899Y-00579*
X-00899Y-00579*
X-00898Y-00579*
X-00898Y-00578*
X-00898Y-00578*
X-00898Y-00578*
X-00898Y-00578*
X-00898Y-00578*
X-00897Y-00578*
X-00897Y-00578*
X-00897Y-00577*
X-00896Y-00577*
X-00896Y-00577*
X-00896Y-00577*
X-00895Y-00577*
X-00895Y-00577*
X-00894Y-00577*
X-00894Y-00576*
X-00893Y-00576*
X-00892Y-00576*
X-00892*
X-00892Y-00576*
G37*
G36*
X-00385Y00511D02*
Y00511D01*
Y00511*
Y00511*
Y00511*
Y0051*
X-00385Y0051*
X-00385Y00509*
X-00385Y00509*
X-00385Y00508*
X-00385Y00507*
X-00385Y00506*
Y00506*
X-00385Y00506*
X-00385Y00506*
X-00386Y00506*
X-00386Y00506*
X-00386Y00505*
X-00386Y00504*
X-00387Y00504*
X-00387Y00503*
X-00388Y00503*
X-00388*
X-00388Y00503*
X-00388Y00503*
X-00388Y00502*
X-00389Y00502*
X-00389Y00502*
X-00389Y00502*
X-00389Y00502*
X-0039Y00502*
X-0039Y00502*
X-00391Y00502*
X-00392Y00501*
X-00393Y00501*
X-00394*
X-00394Y00501*
X-00394Y00501*
X-00395Y00501*
X-00395Y00502*
X-00395Y00502*
X-00396Y00502*
X-00397Y00502*
X-00397Y00502*
X-00398Y00503*
X-00398Y00503*
X-00399Y00503*
X-00399Y00503*
X-00399Y00504*
X-00399Y00504*
X-00399Y00504*
X-00399Y00504*
X-004Y00504*
X-004Y00504*
X-004Y00505*
X-004Y00505*
X-004Y00505*
X-00401Y00506*
X-00401Y00506*
X-00401Y00507*
X-00401Y00508*
X-00401Y00508*
X-00401Y00509*
X-00401Y0051*
X-00396Y0051*
Y0051*
Y0051*
Y0051*
X-00396Y0051*
Y0051*
X-00396Y00509*
X-00396Y00509*
X-00396Y00508*
X-00396Y00508*
X-00396Y00507*
X-00396Y00507*
X-00395Y00507*
X-00395Y00507*
X-00395Y00506*
X-00395Y00506*
X-00394Y00506*
X-00394Y00506*
X-00393Y00506*
X-00393*
X-00393Y00506*
X-00392Y00506*
X-00392Y00506*
X-00391Y00506*
X-00391Y00506*
X-00391Y00507*
X-00391Y00507*
X-00391Y00507*
X-0039Y00507*
X-0039Y00508*
X-0039Y00508*
X-0039Y00508*
X-0039Y00509*
X-0039Y00509*
X-0039Y00509*
X-0039Y0051*
X-0039Y0051*
Y00511*
Y00527*
X-00385*
Y00511*
G37*
G36*
X-00368Y00502D02*
X-00373D01*
Y0052*
X-00373Y0052*
X-00373Y0052*
X-00373Y0052*
X-00373Y0052*
X-00373Y0052*
X-00374Y0052*
X-00374Y00519*
X-00375Y00519*
X-00375Y00519*
X-00375Y00518*
X-00376Y00518*
X-00377Y00518*
X-00378Y00517*
X-00379Y00517*
Y00521*
X-00379*
X-00379Y00521*
X-00379Y00521*
X-00379Y00521*
X-00378Y00521*
X-00378Y00522*
X-00377Y00522*
X-00377Y00522*
X-00376Y00523*
X-00375Y00523*
X-00375Y00524*
X-00375Y00524*
X-00375Y00524*
X-00375Y00524*
X-00374Y00524*
X-00374Y00525*
X-00373Y00525*
X-00373Y00526*
X-00372Y00527*
X-00372Y00528*
X-00368*
Y00502*
G37*
G36*
X00182Y00511D02*
Y00511D01*
Y00511*
Y00511*
Y00511*
Y0051*
X00182Y0051*
X00182Y00509*
X00182Y00509*
X00182Y00508*
X00182Y00507*
X00182Y00506*
Y00506*
X00182Y00506*
X00182Y00506*
X00181Y00506*
X00181Y00506*
X00181Y00505*
X00181Y00504*
X0018Y00504*
X0018Y00503*
X00179Y00503*
X00179*
X00179Y00503*
X00179Y00503*
X00179Y00502*
X00178Y00502*
X00178Y00502*
X00178Y00502*
X00178Y00502*
X00177Y00502*
X00177Y00502*
X00176Y00502*
X00175Y00501*
X00174Y00501*
X00173*
X00173Y00501*
X00173Y00501*
X00172Y00501*
X00172Y00502*
X00172Y00502*
X00171Y00502*
X0017Y00502*
X0017Y00502*
X00169Y00503*
X00169Y00503*
X00168Y00503*
X00168Y00503*
X00168Y00504*
X00168Y00504*
X00168Y00504*
X00168Y00504*
X00167Y00504*
X00167Y00504*
X00167Y00505*
X00167Y00505*
X00167Y00505*
X00166Y00506*
X00166Y00506*
X00166Y00507*
X00166Y00508*
X00166Y00508*
X00166Y00509*
X00166Y0051*
X00171Y0051*
Y0051*
Y0051*
Y0051*
X00171Y0051*
Y0051*
X00171Y00509*
X00171Y00509*
X00171Y00508*
X00171Y00508*
X00171Y00507*
X00171Y00507*
X00172Y00507*
X00172Y00507*
X00172Y00506*
X00172Y00506*
X00173Y00506*
X00173Y00506*
X00174Y00506*
X00174*
X00174Y00506*
X00175Y00506*
X00175Y00506*
X00176Y00506*
X00176Y00506*
X00176Y00507*
X00176Y00507*
X00176Y00507*
X00177Y00507*
X00177Y00508*
X00177Y00508*
X00177Y00508*
X00177Y00509*
X00177Y00509*
X00177Y00509*
X00177Y0051*
X00177Y0051*
Y00511*
Y00527*
X00182*
Y00511*
G37*
G36*
X00196Y00528D02*
X00196Y00528D01*
X00196Y00528*
X00197Y00527*
X00197Y00527*
X00198Y00527*
X00199Y00527*
X002Y00527*
X002Y00526*
X00201Y00526*
X00201Y00526*
X00201Y00526*
X00201Y00525*
X00201Y00525*
X00201Y00525*
X00202Y00525*
X00202Y00525*
X00202Y00524*
X00202Y00524*
X00202Y00523*
X00203Y00523*
X00203Y00522*
X00203Y00522*
X00203Y00521*
X00203Y0052*
Y0052*
Y0052*
X00203Y0052*
X00203Y00519*
X00203Y00519*
X00203Y00518*
X00203Y00518*
X00203Y00517*
X00203Y00517*
X00202Y00517*
X00202Y00517*
X00202Y00516*
X00202Y00516*
X00201Y00515*
X00201Y00515*
X00201Y00514*
X00201Y00514*
X002Y00514*
X002Y00513*
X002Y00513*
X00199Y00513*
X00199Y00512*
X00198Y00511*
X00197Y00511*
X00197Y00511*
X00197Y00511*
X00197Y0051*
X00197Y0051*
X00197Y0051*
X00196Y00509*
X00196Y00509*
X00195Y00508*
X00195Y00508*
X00195Y00508*
X00194Y00508*
X00194Y00508*
X00194Y00508*
X00194Y00507*
X00194Y00507*
X00194Y00507*
X00193Y00506*
X00203*
Y00502*
X00186*
Y00502*
Y00502*
X00186Y00502*
X00186Y00502*
X00186Y00503*
X00186Y00503*
X00186Y00503*
X00187Y00504*
X00187Y00505*
X00187Y00506*
X00188Y00507*
Y00507*
X00188Y00507*
X00188Y00507*
X00188Y00507*
X00188Y00507*
X00188Y00508*
X00189Y00508*
X00189Y00508*
X00189Y00509*
X0019Y00509*
X0019Y0051*
X00191Y0051*
X00191Y00511*
X00192Y00512*
X00192Y00512*
X00193Y00513*
X00193Y00513*
X00193Y00513*
X00193Y00513*
X00194Y00513*
X00194Y00514*
X00194Y00514*
X00195Y00515*
X00196Y00515*
X00196Y00516*
X00197Y00516*
X00197Y00517*
X00197Y00517*
X00197Y00517*
X00197Y00517*
X00197Y00517*
X00198Y00518*
X00198Y00518*
X00198Y00519*
X00198Y00519*
X00198Y0052*
X00198Y0052*
Y0052*
Y0052*
Y0052*
X00198Y00521*
X00198Y00521*
X00198Y00521*
X00198Y00522*
X00198Y00522*
X00197Y00523*
X00197Y00523*
X00197Y00523*
X00197Y00523*
X00197Y00523*
X00196Y00523*
X00196Y00523*
X00195Y00524*
X00195Y00524*
X00195*
X00194Y00524*
X00194Y00523*
X00194Y00523*
X00193Y00523*
X00193Y00523*
X00192Y00523*
X00192Y00523*
X00192Y00522*
X00192Y00522*
X00192Y00522*
X00192Y00521*
X00192Y00521*
X00192Y0052*
X00191Y0052*
X00187Y0052*
Y0052*
X00187Y0052*
Y0052*
X00187Y00521*
X00187Y00521*
X00187Y00521*
X00187Y00522*
X00187Y00522*
X00187Y00523*
X00188Y00524*
X00188Y00525*
X00188Y00525*
X00189Y00525*
X00189Y00526*
X00189Y00526*
X00189Y00526*
X00189Y00526*
X0019Y00526*
X0019Y00526*
X0019Y00526*
X0019Y00527*
X00191Y00527*
X00191Y00527*
X00192Y00527*
X00193Y00527*
X00194Y00528*
X00194Y00528*
X00195Y00528*
X00195*
X00196Y00528*
G37*
G36*
X00844Y00929D02*
Y00929D01*
Y00929*
Y00929*
Y00928*
Y00928*
X00844Y00927*
Y00927*
Y00927*
X00844Y00925*
X00844Y00924*
X00844Y00924*
X00844Y00923*
X00844Y00923*
X00844Y00923*
Y00922*
X00844Y00922*
Y00922*
X00844Y00922*
X00844Y00922*
X00843Y00921*
X00843Y00921*
X00843Y0092*
X00843Y0092*
X00842Y00919*
X00842Y00919*
X00842Y00919*
X00842Y00919*
X00841Y00919*
X00841Y00918*
X0084Y00918*
X0084Y00918*
X00839Y00917*
X00839*
X00839Y00917*
X00839Y00917*
X00839Y00917*
X00839Y00917*
X00838Y00917*
X00838Y00917*
X00838Y00917*
X00837Y00917*
X00836Y00917*
X00835Y00916*
X00834Y00916*
X00834*
X00833Y00916*
X00833*
X00833Y00917*
X00832Y00917*
X00831Y00917*
X0083Y00917*
X00829Y00917*
X00829Y00917*
X00829Y00917*
X00829*
X00829Y00917*
X00828Y00917*
X00828Y00918*
X00828Y00918*
X00827Y00918*
X00827Y00919*
X00826Y00919*
X00826Y00919*
X00826Y0092*
X00825Y0092*
X00825Y0092*
X00825Y0092*
X00825Y00921*
X00825Y00921*
X00824Y00922*
X00824Y00922*
Y00922*
X00824Y00922*
Y00923*
X00824Y00923*
X00824Y00923*
X00824Y00923*
X00824Y00924*
X00824Y00924*
X00824Y00924*
X00824Y00925*
X00824Y00925*
X00824Y00926*
X00824Y00927*
Y00927*
X00824Y00928*
Y00929*
Y00943*
X00829*
Y00929*
Y00929*
Y00928*
Y00928*
Y00928*
Y00928*
Y00928*
X00829Y00927*
Y00926*
X00829Y00925*
X00829Y00925*
Y00925*
X00829Y00925*
X00829Y00924*
Y00924*
X00829Y00924*
X00829Y00924*
X00829Y00923*
X0083Y00923*
X0083Y00923*
X0083Y00922*
X00831Y00922*
X00831Y00922*
X00831Y00922*
X00831Y00921*
X00832Y00921*
X00832Y00921*
X00833Y00921*
X00833Y00921*
X00834Y00921*
X00834*
X00835Y00921*
X00835Y00921*
X00836Y00921*
X00836Y00921*
X00837Y00921*
X00837Y00922*
X00837Y00922*
X00838Y00922*
X00838Y00922*
X00838Y00922*
X00838Y00923*
X00838Y00923*
X00839Y00923*
X00839Y00924*
Y00924*
X00839Y00924*
X00839Y00925*
X00839Y00925*
Y00925*
X00839Y00926*
Y00926*
X00839Y00926*
Y00927*
X00839Y00927*
Y00928*
Y00928*
Y00943*
X00844*
Y00929*
G37*
G36*
X00865Y00939D02*
X00865Y00939D01*
X00865Y00939*
X00865Y00938*
X00865Y00938*
X00865Y00938*
X00865Y00938*
X00864Y00938*
X00864Y00937*
X00864Y00937*
X00863Y00936*
X00863Y00936*
X00863Y00935*
X00862Y00935*
X00862Y00934*
X00861Y00933*
X00861Y00933*
X00861Y00933*
X00861Y00933*
X00861Y00932*
X00861Y00932*
X00861Y00932*
X0086Y00931*
X0086Y00931*
X0086Y0093*
X0086Y0093*
X00859Y00929*
X00859Y00928*
X00859Y00928*
X00858Y00926*
X00858Y00925*
Y00925*
X00858Y00924*
X00858Y00924*
X00858Y00924*
X00857Y00923*
X00857Y00923*
X00857Y00923*
X00857Y00922*
X00857Y00921*
X00857Y00921*
X00857Y0092*
X00857Y00918*
X00857Y00917*
X00852*
Y00917*
Y00917*
X00852Y00917*
Y00918*
X00852Y00918*
X00852Y00919*
X00852Y0092*
X00852Y0092*
X00852Y00921*
X00853Y00922*
X00853Y00923*
X00853Y00924*
X00853Y00925*
X00853Y00926*
X00854Y00927*
X00854Y00928*
X00854Y00928*
X00854Y00928*
X00854Y00928*
X00854Y00929*
X00855Y00929*
X00855Y0093*
X00855Y0093*
X00856Y00931*
X00856Y00932*
X00856Y00933*
X00857Y00933*
X00857Y00934*
X00858Y00936*
X0086Y00938*
X00848*
Y00942*
X00865*
Y00939*
G37*
G36*
X00471Y00883D02*
X00471Y00883D01*
X00472Y00883*
X00472Y00883*
X00473Y00882*
X00474Y00882*
X00474Y00882*
X00475Y00882*
X00475Y00882*
X00476Y00881*
X00477Y00881*
X00477Y0088*
X00478Y0088*
X00478*
X00478Y0088*
X00478Y0088*
X00478Y0088*
X00478Y0088*
X00478Y00879*
X00479Y00879*
X00479Y00878*
X0048Y00877*
X0048Y00876*
X0048Y00875*
X00475Y00874*
Y00874*
X00475Y00874*
Y00874*
X00475Y00874*
X00475Y00875*
X00475Y00875*
X00475Y00876*
X00474Y00876*
X00474Y00877*
X00473Y00877*
X00473Y00877*
X00473Y00877*
X00473Y00878*
X00472Y00878*
X00472Y00878*
X00471Y00878*
X00471Y00878*
X0047Y00878*
X0047*
X00469Y00878*
X00469Y00878*
X00469Y00878*
X00468Y00878*
X00468Y00878*
X00467Y00877*
X00466Y00877*
X00466Y00877*
X00466Y00877*
X00465Y00876*
Y00876*
X00465Y00876*
X00465Y00876*
X00465Y00876*
X00465Y00876*
X00465Y00875*
X00465Y00875*
X00464Y00875*
X00464Y00874*
X00464Y00874*
X00464Y00873*
X00464Y00873*
X00464Y00872*
X00464Y00871*
X00464Y00871*
X00464Y0087*
Y0087*
Y00869*
Y00869*
X00464Y00869*
Y00868*
X00464Y00868*
X00464Y00868*
X00464Y00867*
X00464Y00866*
X00464Y00865*
X00465Y00864*
X00465Y00864*
X00465Y00863*
X00465Y00863*
X00465Y00863*
X00465Y00863*
X00466Y00863*
X00466Y00862*
X00466Y00862*
X00467Y00862*
X00467Y00861*
X00468Y00861*
X00469Y00861*
X00469Y00861*
X0047Y00861*
X0047*
X0047Y00861*
X00471Y00861*
X00471Y00861*
X00472Y00861*
X00472Y00861*
X00473Y00862*
X00473Y00862*
X00473Y00862*
X00474Y00862*
X00474Y00863*
X00474Y00863*
X00475Y00864*
X00475Y00864*
X00475Y00865*
X00476Y00866*
X00481Y00865*
Y00865*
X00481Y00864*
X0048Y00864*
X0048Y00864*
X0048Y00864*
X0048Y00863*
X0048Y00863*
X0048Y00862*
X00479Y00861*
X00478Y0086*
X00478Y00859*
X00477Y00859*
X00477Y00858*
X00477Y00858*
X00477Y00858*
X00476Y00858*
X00476Y00858*
X00476Y00858*
X00476Y00858*
X00475Y00857*
X00475Y00857*
X00474Y00857*
X00474Y00857*
X00473Y00857*
X00473Y00857*
X00472Y00856*
X00471Y00856*
X00471Y00856*
X0047Y00856*
X0047*
X00469Y00856*
X00469Y00856*
X00469Y00856*
X00468Y00856*
X00468Y00857*
X00467Y00857*
X00466Y00857*
X00466Y00857*
X00465Y00857*
X00464Y00858*
X00464Y00858*
X00463Y00859*
X00462Y00859*
X00462Y0086*
X00461Y0086*
X00461Y0086*
X00461Y0086*
X00461Y0086*
X00461Y00861*
X0046Y00861*
X0046Y00862*
X0046Y00862*
X0046Y00863*
X00459Y00864*
X00459Y00864*
X00459Y00865*
X00459Y00866*
X00458Y00867*
X00458Y00868*
X00458Y00869*
Y00869*
Y00869*
Y0087*
X00458Y0087*
Y0087*
X00458Y00871*
X00458Y00872*
X00459Y00872*
X00459Y00873*
X00459Y00874*
X00459Y00875*
X00459Y00875*
X0046Y00876*
X0046Y00877*
X0046Y00878*
X00461Y00879*
X00462Y00879*
X00462Y00879*
X00462Y00879*
X00462Y0088*
X00462Y0088*
X00462Y0088*
X00463Y0088*
X00463Y00881*
X00464Y00881*
X00464Y00881*
X00465Y00882*
X00466Y00882*
X00467Y00882*
X00467Y00882*
X00468Y00883*
X00469Y00883*
X0047Y00883*
X00471*
X00471Y00883*
G37*
G36*
X00493Y00882D02*
X00493Y00882D01*
X00493Y00882*
X00494Y00882*
X00494Y00882*
X00495Y00882*
X00495Y00882*
X00496Y00881*
X00496Y00881*
X00497Y00881*
X00497Y00881*
X00498Y0088*
X00498Y0088*
X00498Y0088*
X00498Y0088*
X00498Y0088*
X00498Y00879*
X00499Y00879*
X00499Y00878*
X00499Y00878*
X005Y00877*
X005Y00876*
X005Y00876*
Y00876*
Y00876*
X005Y00876*
X005Y00875*
X00499Y00875*
X00499Y00875*
X00499Y00874*
X00499Y00874*
X00499Y00873*
X00499Y00873*
X00498Y00873*
X00498Y00872*
X00498Y00872*
X00497Y00871*
X00497Y00871*
X00496Y0087*
X00496*
X00496Y0087*
X00496*
X00496Y0087*
X00497Y0087*
X00497Y0087*
X00498Y0087*
X00498Y00869*
X00499Y00869*
X00499Y00868*
X00499Y00868*
X005Y00868*
X005Y00868*
X005Y00867*
X005Y00867*
X00501Y00866*
X00501Y00865*
X00501Y00864*
Y00864*
Y00864*
Y00864*
X00501Y00864*
X00501Y00864*
X00501Y00863*
X00501Y00863*
X005Y00862*
X005Y00861*
X005Y00861*
X005Y0086*
X00499Y0086*
X00499Y0086*
X00499Y00859*
X00498Y00859*
X00498Y00859*
X00498Y00858*
X00498Y00858*
X00498Y00858*
X00498Y00858*
X00497Y00858*
X00497Y00858*
X00497Y00857*
X00496Y00857*
X00496Y00857*
X00495Y00857*
X00495Y00857*
X00494Y00856*
X00493Y00856*
X00493Y00856*
X00492Y00856*
X00492*
X00492Y00856*
X00491Y00856*
X00491Y00856*
X00491Y00856*
X0049Y00856*
X00489Y00857*
X00488Y00857*
X00488Y00857*
X00487Y00858*
X00487Y00858*
X00486Y00858*
X00486Y00858*
X00486Y00858*
X00486Y00858*
X00486Y00859*
X00486Y00859*
X00486Y00859*
X00485Y00859*
X00485Y0086*
X00485Y0086*
X00485Y0086*
X00484Y00861*
X00484Y00862*
X00484Y00863*
X00484Y00863*
X00488Y00864*
Y00864*
Y00864*
X00488Y00864*
X00489Y00863*
X00489Y00863*
X00489Y00863*
X00489Y00862*
X00489Y00862*
X0049Y00861*
X0049Y00861*
X0049Y00861*
X0049Y00861*
X0049Y00861*
X00491Y00861*
X00491Y0086*
X00492Y0086*
X00492Y0086*
X00492*
X00492Y0086*
X00493Y0086*
X00493Y0086*
X00493Y00861*
X00494Y00861*
X00494Y00861*
X00495Y00861*
X00495Y00861*
X00495Y00862*
X00495Y00862*
X00495Y00862*
X00495Y00863*
X00496Y00863*
X00496Y00864*
X00496Y00865*
Y00865*
Y00865*
Y00865*
X00496Y00865*
X00496Y00866*
X00495Y00866*
X00495Y00867*
X00495Y00867*
X00495Y00868*
X00495Y00868*
X00494Y00868*
X00494Y00868*
X00494Y00868*
X00494Y00868*
X00493Y00868*
X00493Y00869*
X00492Y00869*
X00492*
X00492Y00869*
X00491Y00869*
X00491Y00869*
X0049Y00868*
X0049Y00868*
X00491Y00872*
X00491*
X00491Y00872*
X00492Y00872*
X00492Y00872*
X00493Y00873*
X00493Y00873*
X00494Y00873*
X00494Y00873*
X00494Y00873*
X00494Y00873*
X00494Y00874*
X00494Y00874*
X00495Y00874*
X00495Y00875*
X00495Y00876*
Y00876*
Y00876*
X00495Y00876*
X00495Y00876*
X00494Y00877*
X00494Y00877*
X00494Y00877*
X00494Y00878*
X00494Y00878*
X00494Y00878*
X00494Y00878*
X00493Y00878*
X00493Y00878*
X00493Y00878*
X00492Y00878*
X00492Y00878*
X00492*
X00491Y00878*
X00491Y00878*
X00491Y00878*
X0049Y00878*
X0049Y00878*
X0049Y00877*
X0049Y00877*
X0049Y00877*
X00489Y00877*
X00489Y00877*
X00489Y00876*
X00489Y00876*
X00489Y00876*
X00489Y00875*
X00484Y00876*
Y00876*
X00484Y00876*
Y00876*
X00484Y00876*
X00484Y00876*
X00484Y00877*
X00485Y00878*
X00485Y00878*
X00485Y00879*
X00485Y00879*
X00486Y00879*
X00486Y0088*
X00486Y0088*
X00486Y0088*
X00487Y00881*
X00487Y00881*
X00488Y00881*
X00488Y00882*
X00488*
X00488Y00882*
X00488Y00882*
X00489Y00882*
X00489Y00882*
X0049Y00882*
X0049Y00882*
X00491Y00882*
X00492Y00882*
X00492*
X00493Y00882*
G37*
G36*
X00471Y00943D02*
X00471Y00943D01*
X00472Y00943*
X00472Y00943*
X00473Y00942*
X00474Y00942*
X00474Y00942*
X00475Y00942*
X00475Y00942*
X00476Y00941*
X00477Y00941*
X00477Y0094*
X00478Y0094*
X00478*
X00478Y0094*
X00478Y0094*
X00478Y0094*
X00478Y0094*
X00478Y00939*
X00479Y00939*
X00479Y00938*
X0048Y00937*
X0048Y00936*
X0048Y00935*
X00475Y00934*
Y00934*
X00475Y00934*
Y00934*
X00475Y00934*
X00475Y00935*
X00475Y00935*
X00475Y00936*
X00474Y00936*
X00474Y00937*
X00473Y00937*
X00473Y00937*
X00473Y00937*
X00473Y00938*
X00472Y00938*
X00472Y00938*
X00471Y00938*
X00471Y00938*
X0047Y00938*
X0047*
X00469Y00938*
X00469Y00938*
X00469Y00938*
X00468Y00938*
X00468Y00938*
X00467Y00937*
X00466Y00937*
X00466Y00937*
X00466Y00937*
X00465Y00936*
Y00936*
X00465Y00936*
X00465Y00936*
X00465Y00936*
X00465Y00936*
X00465Y00935*
X00465Y00935*
X00464Y00935*
X00464Y00934*
X00464Y00934*
X00464Y00933*
X00464Y00933*
X00464Y00932*
X00464Y00931*
X00464Y00931*
X00464Y0093*
Y0093*
Y00929*
Y00929*
X00464Y00929*
Y00928*
X00464Y00928*
X00464Y00928*
X00464Y00927*
X00464Y00926*
X00464Y00925*
X00465Y00924*
X00465Y00924*
X00465Y00923*
X00465Y00923*
X00465Y00923*
X00465Y00923*
X00466Y00923*
X00466Y00922*
X00466Y00922*
X00467Y00922*
X00467Y00921*
X00468Y00921*
X00469Y00921*
X00469Y00921*
X0047Y00921*
X0047*
X0047Y00921*
X00471Y00921*
X00471Y00921*
X00472Y00921*
X00472Y00921*
X00473Y00922*
X00473Y00922*
X00473Y00922*
X00474Y00922*
X00474Y00923*
X00474Y00923*
X00475Y00924*
X00475Y00924*
X00475Y00925*
X00476Y00926*
X00481Y00925*
Y00925*
X00481Y00924*
X0048Y00924*
X0048Y00924*
X0048Y00924*
X0048Y00923*
X0048Y00923*
X0048Y00922*
X00479Y00921*
X00478Y0092*
X00478Y00919*
X00477Y00919*
X00477Y00918*
X00477Y00918*
X00477Y00918*
X00476Y00918*
X00476Y00918*
X00476Y00918*
X00476Y00918*
X00475Y00917*
X00475Y00917*
X00474Y00917*
X00474Y00917*
X00473Y00917*
X00473Y00917*
X00472Y00916*
X00471Y00916*
X00471Y00916*
X0047Y00916*
X0047*
X00469Y00916*
X00469Y00916*
X00469Y00916*
X00468Y00916*
X00468Y00917*
X00467Y00917*
X00466Y00917*
X00466Y00917*
X00465Y00917*
X00464Y00918*
X00464Y00918*
X00463Y00919*
X00462Y00919*
X00462Y0092*
X00462Y0092*
X00461Y0092*
X00461Y0092*
X00461Y0092*
X00461Y00921*
X00461Y00921*
X0046Y00922*
X0046Y00922*
X0046Y00923*
X00459Y00924*
X00459Y00924*
X00459Y00925*
X00459Y00926*
X00458Y00927*
X00458Y00928*
X00458Y00929*
Y00929*
Y00929*
Y0093*
X00458Y0093*
Y0093*
X00458Y00931*
X00458Y00932*
X00459Y00932*
X00459Y00933*
X00459Y00934*
X00459Y00935*
X00459Y00935*
X0046Y00936*
X0046Y00937*
X00461Y00938*
X00461Y00939*
X00462Y00939*
X00462Y00939*
X00462Y00939*
X00462Y0094*
X00462Y0094*
X00463Y0094*
X00463Y0094*
X00463Y00941*
X00464Y00941*
X00464Y00941*
X00465Y00942*
X00466Y00942*
X00467Y00942*
X00467Y00942*
X00468Y00943*
X00469Y00943*
X0047Y00943*
X00471*
X00471Y00943*
G37*
G36*
X00493Y00942D02*
X00493Y00942D01*
X00493Y00942*
X00494Y00942*
X00494Y00942*
X00495Y00942*
X00496Y00942*
X00497Y00941*
X00497Y00941*
X00497Y00941*
X00498Y00941*
X00498Y00941*
X00498Y0094*
X00498Y0094*
X00498Y0094*
X00498Y0094*
X00499Y0094*
X00499Y00939*
X00499Y00939*
X005Y00938*
X005Y00937*
X005Y00936*
X005Y00936*
Y00936*
Y00936*
Y00936*
X005Y00935*
X005Y00935*
X005Y00934*
X005Y00934*
X00499Y00933*
X00499Y00933*
X00499Y00933*
X00499Y00932*
X00499Y00932*
X00498Y00932*
X00498Y00932*
X00497Y00931*
X00497Y00931*
X00496Y00931*
X00496*
X00496Y00931*
X00497Y0093*
X00497Y0093*
X00497Y0093*
X00498Y0093*
X00498Y0093*
X00499Y00929*
X00499Y00929*
X005Y00928*
X005Y00928*
X005Y00928*
X005Y00927*
X005Y00927*
X005Y00926*
X00501Y00926*
X00501Y00925*
X00501Y00924*
Y00924*
Y00924*
Y00924*
X00501Y00924*
X00501Y00923*
X00501Y00923*
X00501Y00923*
X005Y00922*
X005Y00921*
X005Y00921*
X005Y0092*
X005Y0092*
X00499Y00919*
X00499Y00919*
X00498Y00918*
X00498Y00918*
X00498Y00918*
X00498Y00918*
X00498Y00918*
X00498Y00918*
X00498Y00918*
X00497Y00918*
X00497Y00917*
X00496Y00917*
X00496Y00917*
X00495Y00917*
X00495Y00917*
X00494Y00916*
X00494Y00916*
X00493Y00916*
X00492Y00916*
X00492*
X00492Y00916*
X00492Y00916*
X00491Y00916*
X00491Y00916*
X0049Y00916*
X00489Y00917*
X00488Y00917*
X00488Y00917*
X00488Y00917*
X00487Y00918*
X00487Y00918*
X00487Y00918*
X00486Y00918*
X00486Y00918*
X00486Y00918*
X00486Y00919*
X00486Y00919*
X00485Y00919*
X00485Y0092*
X00485Y0092*
X00485Y0092*
X00484Y00921*
X00484Y00921*
X00484Y00922*
X00484Y00923*
X00484Y00923*
X00484Y00924*
Y00924*
Y00924*
Y00924*
Y00924*
X00484Y00925*
X00484Y00925*
X00484Y00926*
X00484Y00927*
X00485Y00927*
X00485Y00928*
Y00928*
X00485Y00928*
X00485Y00928*
X00485Y00928*
X00486Y00929*
X00486Y00929*
X00487Y0093*
X00487Y0093*
X00488Y00931*
X00488*
X00488Y00931*
X00488Y00931*
X00487Y00931*
X00487Y00931*
X00487Y00931*
X00486Y00932*
X00486Y00932*
X00485Y00933*
X00485Y00933*
X00485Y00933*
X00485Y00933*
X00485Y00934*
X00485Y00934*
X00485Y00935*
X00485Y00935*
X00484Y00936*
Y00936*
Y00936*
Y00936*
X00485Y00936*
X00485Y00937*
X00485Y00937*
X00485Y00937*
X00485Y00938*
X00485Y00939*
X00486Y00939*
X00486Y0094*
X00486Y0094*
X00486Y00941*
X00487Y00941*
X00487Y00941*
X00487Y00941*
X00487Y00941*
X00487Y00941*
X00487Y00941*
X00488Y00941*
X00488Y00942*
X00488Y00942*
X00489Y00942*
X00489Y00942*
X0049Y00942*
X0049Y00942*
X00491Y00942*
X00492Y00942*
X00492Y00942*
X00493*
X00493Y00942*
G37*
G36*
X00258Y00978D02*
X00258D01*
X00259Y00978*
X00259Y00977*
X0026Y00977*
X00261Y00977*
X00262Y00977*
X00262Y00976*
X00263Y00976*
X00263*
X00263Y00976*
X00263Y00976*
X00263Y00976*
X00263Y00975*
X00263Y00975*
X00264Y00975*
X00264Y00974*
X00264Y00973*
X00265Y00972*
X00265Y00971*
X0026Y00971*
Y00971*
X0026Y00971*
X0026Y00971*
X0026Y00972*
X0026Y00972*
X0026Y00972*
X0026Y00973*
X00259Y00973*
X00259Y00973*
X00259Y00973*
X00259Y00973*
X00259Y00973*
X00259Y00973*
X00258Y00973*
X00258Y00974*
X00257Y00974*
X00257*
X00257Y00974*
X00257Y00973*
X00256Y00973*
X00256Y00973*
X00256Y00973*
X00255Y00973*
X00255Y00972*
X00255Y00972*
X00255Y00972*
X00255Y00972*
X00255Y00972*
X00254Y00971*
X00254Y00971*
X00254Y00971*
X00254Y00971*
X00254Y0097*
X00254Y0097*
X00254Y00969*
X00254Y00969*
X00254Y00968*
X00253Y00967*
X00253Y00966*
X00253Y00966*
X00253Y00966*
X00254Y00967*
X00254Y00967*
X00254Y00967*
X00254Y00967*
X00255Y00967*
X00255Y00968*
X00256Y00968*
X00257Y00968*
X00257Y00968*
X00257Y00968*
X00258Y00969*
X00258*
X00259Y00968*
X00259Y00968*
X00259Y00968*
X00259Y00968*
X0026Y00968*
X00261Y00968*
X00261Y00968*
X00262Y00968*
X00262Y00967*
X00262Y00967*
X00263Y00967*
X00263Y00966*
X00263Y00966*
X00263Y00966*
X00263Y00966*
X00264Y00966*
X00264Y00965*
X00264Y00965*
X00264Y00965*
X00264Y00965*
X00265Y00964*
X00265Y00964*
X00265Y00963*
X00265Y00963*
X00265Y00962*
X00265Y00961*
X00265Y00961*
X00265Y0096*
Y0096*
Y0096*
Y0096*
X00265Y00959*
X00265Y00959*
X00265Y00959*
X00265Y00958*
X00265Y00958*
X00265Y00957*
X00265Y00956*
X00264Y00956*
X00264Y00955*
X00264Y00955*
X00264Y00954*
X00263Y00954*
X00263Y00954*
X00263Y00954*
X00263Y00954*
X00263Y00953*
X00263Y00953*
X00262Y00953*
X00262Y00953*
X00262Y00953*
X00261Y00952*
X00261Y00952*
X0026Y00952*
X0026Y00952*
X00259Y00952*
X00259Y00951*
X00258Y00951*
X00257Y00951*
X00257*
X00257Y00951*
X00257*
X00256Y00951*
X00256Y00952*
X00255Y00952*
X00255Y00952*
X00254Y00952*
X00254Y00952*
X00253Y00952*
X00253Y00953*
X00252Y00953*
X00252Y00953*
X00251Y00954*
X00251Y00954*
X00251Y00954*
X00251Y00955*
X00251Y00955*
X0025Y00955*
X0025Y00955*
X0025Y00956*
X0025Y00956*
X0025Y00957*
X00249Y00957*
X00249Y00958*
X00249Y00959*
X00249Y0096*
X00249Y00961*
X00248Y00962*
X00248Y00963*
X00248Y00964*
Y00964*
Y00964*
Y00964*
Y00965*
Y00965*
X00248Y00965*
X00248Y00966*
X00248Y00967*
X00249Y00967*
X00249Y00968*
X00249Y00969*
X00249Y0097*
X00249Y00971*
X00249Y00972*
X0025Y00972*
X0025Y00973*
X0025Y00974*
X00251Y00974*
X00251Y00975*
X00251Y00975*
X00251Y00975*
X00251Y00975*
X00252Y00975*
X00252Y00975*
X00252Y00976*
X00253Y00976*
X00253Y00976*
X00254Y00977*
X00254Y00977*
X00255Y00977*
X00256Y00977*
X00256Y00977*
X00257Y00978*
X00258Y00978*
X00258*
X00258Y00978*
G37*
G36*
X00244Y00964D02*
Y00964D01*
Y00964*
Y00964*
Y00963*
Y00963*
X00244Y00962*
Y00962*
Y00961*
X00244Y0096*
X00244Y00959*
X00244Y00959*
X00244Y00958*
X00244Y00958*
X00244Y00957*
Y00957*
X00243Y00957*
Y00957*
X00243Y00957*
X00243Y00957*
X00243Y00956*
X00243Y00956*
X00243Y00955*
X00242Y00955*
X00242Y00954*
X00242Y00954*
X00242Y00954*
X00242Y00954*
X00241Y00953*
X00241Y00953*
X0024Y00953*
X0024Y00952*
X00239Y00952*
X00239*
X00239Y00952*
X00239Y00952*
X00239Y00952*
X00238Y00952*
X00238Y00952*
X00238Y00952*
X00238Y00952*
X00237Y00952*
X00236Y00951*
X00235Y00951*
X00234Y00951*
X00233*
X00233Y00951*
X00233*
X00232Y00951*
X00232Y00951*
X00231Y00952*
X0023Y00952*
X00229Y00952*
X00229Y00952*
X00228Y00952*
X00228*
X00228Y00952*
X00228Y00952*
X00228Y00953*
X00227Y00953*
X00227Y00953*
X00226Y00953*
X00226Y00954*
X00225Y00954*
X00225Y00954*
X00225Y00955*
X00225Y00955*
X00225Y00955*
X00225Y00956*
X00224Y00956*
X00224Y00957*
X00224Y00957*
Y00957*
X00224Y00957*
Y00957*
X00224Y00958*
X00224Y00958*
X00224Y00958*
X00224Y00959*
X00224Y00959*
X00224Y00959*
X00224Y0096*
X00224Y0096*
X00224Y00961*
X00224Y00962*
Y00962*
X00224Y00963*
Y00964*
Y00977*
X00229*
Y00964*
Y00964*
Y00963*
Y00963*
Y00963*
Y00963*
Y00962*
X00229Y00962*
Y00961*
X00229Y0096*
X00229Y0096*
Y0096*
X00229Y00959*
X00229Y00959*
Y00959*
X00229Y00959*
X00229Y00959*
X00229Y00958*
X00229Y00958*
X0023Y00958*
X0023Y00957*
X0023Y00957*
X00231Y00957*
X00231Y00957*
X00231Y00956*
X00231Y00956*
X00232Y00956*
X00232Y00956*
X00233Y00956*
X00234Y00956*
X00234*
X00235Y00956*
X00235Y00956*
X00236Y00956*
X00236Y00956*
X00237Y00956*
X00237Y00957*
X00237Y00957*
X00237Y00957*
X00238Y00957*
X00238Y00957*
X00238Y00958*
X00238Y00958*
X00238Y00958*
X00239Y00959*
Y00959*
X00239Y00959*
X00239Y00959*
X00239Y0096*
Y0096*
X00239Y00961*
Y00961*
X00239Y00961*
Y00962*
X00239Y00962*
Y00963*
Y00963*
Y00977*
X00244*
Y00964*
G37*
G36*
X-004Y00959D02*
Y00959D01*
Y00959*
Y00959*
Y00958*
Y00958*
X-004Y00957*
Y00957*
Y00957*
X-004Y00955*
X-004Y00954*
X-004Y00954*
X-004Y00953*
X-00401Y00953*
X-00401Y00953*
Y00952*
X-00401Y00952*
Y00952*
X-00401Y00952*
X-00401Y00952*
X-00401Y00951*
X-00401Y00951*
X-00401Y0095*
X-00402Y0095*
X-00402Y00949*
X-00402Y00949*
X-00402Y00949*
X-00403Y00949*
X-00403Y00949*
X-00403Y00948*
X-00404Y00948*
X-00404Y00948*
X-00405Y00947*
X-00405*
X-00405Y00947*
X-00405Y00947*
X-00405Y00947*
X-00406Y00947*
X-00406Y00947*
X-00406Y00947*
X-00406Y00947*
X-00407Y00947*
X-00408Y00947*
X-00409Y00946*
X-0041Y00946*
X-00411*
X-00411Y00946*
X-00411*
X-00412Y00947*
X-00412Y00947*
X-00413Y00947*
X-00414Y00947*
X-00415Y00947*
X-00415Y00947*
X-00416Y00947*
X-00416*
X-00416Y00947*
X-00416Y00947*
X-00416Y00948*
X-00417Y00948*
X-00417Y00948*
X-00418Y00949*
X-00418Y00949*
X-00419Y00949*
X-00419Y0095*
X-00419Y0095*
X-00419Y0095*
X-00419Y0095*
X-00419Y00951*
X-0042Y00951*
X-0042Y00952*
X-0042Y00952*
Y00952*
X-0042Y00952*
Y00953*
X-0042Y00953*
X-0042Y00953*
X-0042Y00953*
X-0042Y00954*
X-0042Y00954*
X-0042Y00954*
X-0042Y00955*
X-0042Y00955*
X-0042Y00956*
X-00421Y00957*
Y00957*
X-00421Y00958*
Y00959*
Y00973*
X-00415*
Y00959*
Y00959*
Y00958*
Y00958*
Y00958*
Y00958*
Y00958*
X-00415Y00957*
Y00956*
X-00415Y00955*
X-00415Y00955*
Y00955*
X-00415Y00955*
X-00415Y00954*
Y00954*
X-00415Y00954*
X-00415Y00954*
X-00415Y00953*
X-00415Y00953*
X-00414Y00953*
X-00414Y00952*
X-00414Y00952*
X-00414Y00952*
X-00413Y00952*
X-00413Y00951*
X-00413Y00951*
X-00412Y00951*
X-00412Y00951*
X-00411Y00951*
X-0041Y00951*
X-0041*
X-00409Y00951*
X-00409Y00951*
X-00408Y00951*
X-00408Y00951*
X-00407Y00951*
X-00407Y00952*
X-00407Y00952*
X-00407Y00952*
X-00407Y00952*
X-00406Y00952*
X-00406Y00953*
X-00406Y00953*
X-00406Y00953*
X-00406Y00954*
Y00954*
X-00406Y00954*
X-00405Y00955*
X-00405Y00955*
Y00955*
X-00405Y00956*
Y00956*
X-00405Y00956*
Y00957*
X-00405Y00957*
Y00958*
Y00958*
Y00973*
X-004*
Y00959*
G37*
G36*
X-0038Y00968D02*
X-00389D01*
X-0039Y00963*
X-0039*
X-0039Y00963*
X-00389Y00963*
X-00389Y00964*
X-00389Y00964*
X-00388Y00964*
X-00388Y00964*
X-00387Y00964*
X-00386Y00964*
X-00386*
X-00386Y00964*
X-00385Y00964*
X-00385Y00964*
X-00385Y00964*
X-00384Y00964*
X-00384Y00964*
X-00383Y00963*
X-00383Y00963*
X-00382Y00963*
X-00382Y00962*
X-00381Y00962*
X-00381Y00962*
X-00381Y00962*
X-00381Y00962*
X-00381Y00961*
X-0038Y00961*
X-0038Y00961*
X-0038Y00961*
X-0038Y0096*
X-0038Y0096*
X-00379Y0096*
X-00379Y00959*
X-00379Y00959*
X-00379Y00958*
X-00379Y00958*
X-00379Y00957*
X-00378Y00956*
X-00378Y00956*
Y00955*
Y00955*
Y00955*
X-00378Y00955*
Y00955*
X-00379Y00954*
X-00379Y00954*
X-00379Y00954*
X-00379Y00953*
X-00379Y00952*
X-00379Y00951*
X-0038Y00951*
X-0038Y0095*
X-0038Y0095*
X-0038Y0095*
X-0038Y0095*
X-00381Y0095*
X-00381Y00949*
X-00381Y00949*
X-00381Y00949*
X-00382Y00948*
X-00382Y00948*
X-00383Y00948*
X-00383Y00948*
X-00384Y00947*
X-00384Y00947*
X-00385Y00947*
X-00386Y00947*
X-00386Y00946*
X-00387Y00946*
X-00388*
X-00388Y00946*
X-00388Y00947*
X-00389Y00947*
X-00389Y00947*
X-00389Y00947*
X-0039Y00947*
X-00391Y00947*
X-00392Y00947*
X-00392Y00948*
X-00393Y00948*
X-00393Y00948*
X-00393Y00948*
X-00393Y00948*
X-00393Y00949*
X-00393Y00949*
X-00394Y00949*
X-00394Y00949*
X-00394Y00949*
X-00394Y0095*
X-00394Y0095*
X-00395Y0095*
X-00395Y00951*
X-00395Y00952*
X-00396Y00953*
X-00396Y00953*
X-00391Y00954*
Y00954*
X-00391Y00954*
X-00391Y00953*
X-00391Y00953*
X-0039Y00953*
X-0039Y00952*
X-0039Y00952*
X-0039Y00951*
X-0039Y00951*
X-00389Y00951*
X-00389Y00951*
X-00389Y00951*
X-00389Y00951*
X-00388Y00951*
X-00388Y0095*
X-00387Y0095*
X-00387*
X-00387Y0095*
X-00387Y0095*
X-00386Y00951*
X-00386Y00951*
X-00385Y00951*
X-00385Y00951*
X-00385Y00952*
X-00385Y00952*
X-00384Y00952*
X-00384Y00952*
X-00384Y00953*
X-00384Y00953*
X-00384Y00954*
X-00384Y00955*
X-00383Y00955*
Y00955*
Y00956*
Y00956*
Y00956*
X-00384Y00956*
X-00384Y00957*
X-00384Y00957*
X-00384Y00958*
X-00384Y00958*
X-00385Y00959*
X-00385Y00959*
X-00385Y00959*
X-00385Y00959*
X-00385Y0096*
X-00386Y0096*
X-00386Y0096*
X-00387Y0096*
X-00387Y0096*
X-00388*
X-00388Y0096*
X-00388Y0096*
X-00389Y0096*
X-00389Y0096*
X-0039Y00959*
X-0039Y00959*
X-0039Y00959*
X-00391Y00959*
X-00391Y00958*
X-00395Y00959*
X-00393Y00972*
X-0038*
Y00968*
G37*
G36*
X-00528Y00973D02*
X-00528Y00973D01*
X-00527Y00973*
X-00527Y00973*
X-00526Y00972*
X-00525Y00972*
X-00525Y00972*
X-00524Y00972*
X-00524Y00972*
X-00523Y00971*
X-00522Y00971*
X-00522Y0097*
X-00521Y0097*
X-00521*
X-00521Y0097*
X-00521Y0097*
X-00521Y0097*
X-00521Y0097*
X-00521Y00969*
X-0052Y00969*
X-0052Y00968*
X-00519Y00967*
X-00519Y00966*
X-00519Y00965*
X-00524Y00964*
Y00964*
X-00524Y00964*
Y00964*
X-00524Y00964*
X-00524Y00965*
X-00524Y00965*
X-00524Y00966*
X-00525Y00966*
X-00525Y00967*
X-00526Y00967*
X-00526Y00967*
X-00526Y00967*
X-00526Y00968*
X-00527Y00968*
X-00527Y00968*
X-00528Y00968*
X-00528Y00968*
X-00529Y00968*
X-00529*
X-0053Y00968*
X-0053Y00968*
X-0053Y00968*
X-00531Y00968*
X-00531Y00968*
X-00532Y00967*
X-00533Y00967*
X-00533Y00967*
X-00533Y00967*
X-00534Y00966*
Y00966*
X-00534Y00966*
X-00534Y00966*
X-00534Y00966*
X-00534Y00966*
X-00534Y00965*
X-00534Y00965*
X-00535Y00965*
X-00535Y00964*
X-00535Y00964*
X-00535Y00963*
X-00535Y00963*
X-00535Y00962*
X-00535Y00961*
X-00535Y0096*
X-00535Y0096*
Y0096*
Y00959*
Y00959*
X-00535Y00959*
Y00958*
X-00535Y00958*
X-00535Y00957*
X-00535Y00957*
X-00535Y00956*
X-00535Y00955*
X-00534Y00954*
X-00534Y00954*
X-00534Y00953*
X-00534Y00953*
X-00534Y00953*
X-00534Y00953*
X-00533Y00952*
X-00533Y00952*
X-00533Y00952*
X-00532Y00952*
X-00532Y00951*
X-00531Y00951*
X-0053Y00951*
X-0053Y00951*
X-00529Y00951*
X-00529*
X-00529Y00951*
X-00528Y00951*
X-00528Y00951*
X-00527Y00951*
X-00527Y00951*
X-00526Y00951*
X-00526Y00952*
X-00526Y00952*
X-00525Y00952*
X-00525Y00952*
X-00525Y00953*
X-00524Y00954*
X-00524Y00954*
X-00524Y00955*
X-00523Y00956*
X-00518Y00955*
Y00954*
X-00518Y00954*
X-00519Y00954*
X-00519Y00954*
X-00519Y00953*
X-00519Y00953*
X-00519Y00953*
X-00519Y00952*
X-0052Y00951*
X-00521Y0095*
X-00521Y00949*
X-00522Y00949*
X-00522Y00948*
X-00522Y00948*
X-00522Y00948*
X-00523Y00948*
X-00523Y00948*
X-00523Y00948*
X-00523Y00948*
X-00524Y00947*
X-00524Y00947*
X-00525Y00947*
X-00525Y00947*
X-00526Y00947*
X-00526Y00947*
X-00527Y00946*
X-00528Y00946*
X-00528Y00946*
X-00529Y00946*
X-00529*
X-0053Y00946*
X-0053Y00946*
X-0053Y00946*
X-00531Y00946*
X-00531Y00947*
X-00532Y00947*
X-00533Y00947*
X-00533Y00947*
X-00534Y00947*
X-00535Y00948*
X-00535Y00948*
X-00536Y00949*
X-00537Y00949*
X-00537Y0095*
X-00538Y0095*
X-00538Y0095*
X-00538Y0095*
X-00538Y0095*
X-00538Y00951*
X-00539Y00951*
X-00539Y00952*
X-00539Y00952*
X-00539Y00953*
X-0054Y00954*
X-0054Y00954*
X-0054Y00955*
X-0054Y00956*
X-00541Y00957*
X-00541Y00958*
X-00541Y00959*
Y00959*
Y00959*
Y0096*
X-00541Y0096*
Y0096*
X-00541Y00961*
X-00541Y00961*
X-0054Y00962*
X-0054Y00963*
X-0054Y00964*
X-0054Y00965*
X-0054Y00965*
X-00539Y00966*
X-00539Y00967*
X-00539Y00968*
X-00538Y00969*
X-00537Y00969*
X-00537Y00969*
X-00537Y00969*
X-00537Y0097*
X-00537Y0097*
X-00537Y0097*
X-00536Y0097*
X-00536Y00971*
X-00535Y00971*
X-00535Y00971*
X-00534Y00972*
X-00533Y00972*
X-00532Y00972*
X-00532Y00972*
X-00531Y00973*
X-0053Y00973*
X-00529Y00973*
X-00528*
X-00528Y00973*
G37*
G36*
X-00498Y00968D02*
X-00498Y00968D01*
X-00498Y00968*
X-00499Y00968*
X-00499Y00968*
X-00499Y00968*
X-00499Y00968*
X-00499Y00967*
X-005Y00967*
X-005Y00966*
X-005Y00966*
X-00501Y00966*
X-00501Y00965*
X-00501Y00964*
X-00502Y00964*
X-00502Y00963*
X-00503Y00962*
X-00503Y00962*
X-00503Y00962*
X-00503Y00962*
X-00503Y00962*
X-00503Y00961*
X-00503Y00961*
X-00503Y00961*
X-00504Y0096*
X-00504Y00959*
X-00504Y00959*
X-00505Y00958*
X-00505Y00957*
X-00505Y00956*
X-00506Y00954*
Y00954*
X-00506Y00954*
X-00506Y00954*
X-00506Y00954*
X-00506Y00953*
X-00506Y00953*
X-00506Y00952*
X-00506Y00952*
X-00506Y00951*
X-00507Y00951*
X-00507Y00949*
X-00507Y00948*
X-00507Y00947*
X-00512*
Y00947*
Y00947*
X-00512Y00947*
Y00948*
X-00512Y00948*
X-00511Y00949*
X-00511Y00949*
X-00511Y0095*
X-00511Y00951*
X-00511Y00952*
X-00511Y00953*
X-00511Y00953*
X-0051Y00954*
X-0051Y00955*
X-0051Y00956*
X-00509Y00957*
X-00509Y00958*
X-00509Y00958*
X-00509Y00958*
X-00509Y00958*
X-00509Y00959*
X-00509Y00959*
X-00508Y0096*
X-00508Y00961*
X-00508Y00962*
X-00507Y00962*
X-00507Y00963*
X-00506Y00964*
X-00505Y00966*
X-00504Y00967*
X-00515*
Y00972*
X-00498*
Y00968*
G37*
G36*
X-00588Y00973D02*
X-00588Y00973D01*
X-00587Y00973*
X-00587Y00973*
X-00586Y00972*
X-00585Y00972*
X-00585Y00972*
X-00584Y00972*
X-00584Y00972*
X-00583Y00971*
X-00582Y00971*
X-00582Y0097*
X-00581Y0097*
X-00581*
X-00581Y0097*
X-00581Y0097*
X-00581Y0097*
X-00581Y0097*
X-00581Y00969*
X-0058Y00969*
X-0058Y00968*
X-00579Y00967*
X-00579Y00966*
X-00578Y00965*
X-00584Y00964*
Y00964*
X-00584Y00964*
Y00964*
X-00584Y00964*
X-00584Y00965*
X-00584Y00965*
X-00584Y00966*
X-00585Y00966*
X-00585Y00967*
X-00586Y00967*
X-00586Y00967*
X-00586Y00967*
X-00586Y00968*
X-00586Y00968*
X-00587Y00968*
X-00588Y00968*
X-00588Y00968*
X-00589Y00968*
X-00589*
X-00589Y00968*
X-0059Y00968*
X-0059Y00968*
X-00591Y00968*
X-00591Y00968*
X-00592Y00967*
X-00593Y00967*
X-00593Y00967*
X-00593Y00967*
X-00594Y00966*
Y00966*
X-00594Y00966*
X-00594Y00966*
X-00594Y00966*
X-00594Y00966*
X-00594Y00965*
X-00594Y00965*
X-00594Y00965*
X-00595Y00964*
X-00595Y00964*
X-00595Y00963*
X-00595Y00963*
X-00595Y00962*
X-00595Y00961*
X-00595Y00961*
X-00595Y0096*
Y0096*
Y00959*
Y00959*
X-00595Y00959*
Y00958*
X-00595Y00958*
X-00595Y00958*
X-00595Y00957*
X-00595Y00956*
X-00595Y00955*
X-00594Y00954*
X-00594Y00954*
X-00594Y00953*
X-00594Y00953*
X-00594Y00953*
X-00594Y00953*
X-00593Y00953*
X-00593Y00952*
X-00593Y00952*
X-00592Y00952*
X-00592Y00951*
X-00591Y00951*
X-0059Y00951*
X-0059Y00951*
X-00589Y00951*
X-00589*
X-00589Y00951*
X-00588Y00951*
X-00588Y00951*
X-00587Y00951*
X-00587Y00951*
X-00586Y00952*
X-00586Y00952*
X-00586Y00952*
X-00585Y00952*
X-00585Y00953*
X-00585Y00953*
X-00584Y00954*
X-00584Y00954*
X-00584Y00955*
X-00583Y00956*
X-00578Y00955*
Y00955*
X-00578Y00954*
X-00579Y00954*
X-00579Y00954*
X-00579Y00954*
X-00579Y00953*
X-00579Y00953*
X-00579Y00952*
X-0058Y00951*
X-00581Y0095*
X-00581Y00949*
X-00582Y00949*
X-00582Y00948*
X-00582Y00948*
X-00582Y00948*
X-00583Y00948*
X-00583Y00948*
X-00583Y00948*
X-00583Y00948*
X-00584Y00947*
X-00584Y00947*
X-00585Y00947*
X-00585Y00947*
X-00586Y00947*
X-00586Y00947*
X-00587Y00946*
X-00588Y00946*
X-00588Y00946*
X-00589Y00946*
X-00589*
X-0059Y00946*
X-0059Y00946*
X-0059Y00946*
X-00591Y00946*
X-00591Y00947*
X-00592Y00947*
X-00593Y00947*
X-00593Y00947*
X-00594Y00947*
X-00595Y00948*
X-00595Y00948*
X-00596Y00949*
X-00597Y00949*
X-00597Y0095*
X-00597Y0095*
X-00598Y0095*
X-00598Y0095*
X-00598Y0095*
X-00598Y00951*
X-00598Y00951*
X-00599Y00952*
X-00599Y00952*
X-00599Y00953*
X-006Y00954*
X-006Y00954*
X-006Y00955*
X-006Y00956*
X-00601Y00957*
X-00601Y00958*
X-00601Y00959*
Y00959*
Y00959*
Y0096*
X-00601Y0096*
Y0096*
X-00601Y00961*
X-006Y00961*
X-006Y00962*
X-006Y00963*
X-006Y00964*
X-006Y00965*
X-006Y00965*
X-00599Y00966*
X-00599Y00967*
X-00598Y00968*
X-00598Y00969*
X-00597Y00969*
X-00597Y00969*
X-00597Y00969*
X-00597Y0097*
X-00597Y0097*
X-00596Y0097*
X-00596Y0097*
X-00596Y00971*
X-00595Y00971*
X-00594Y00971*
X-00594Y00972*
X-00593Y00972*
X-00592Y00972*
X-00592Y00972*
X-00591Y00973*
X-0059Y00973*
X-00589Y00973*
X-00588*
X-00588Y00973*
G37*
G36*
X-00567Y00972D02*
X-00567D01*
X-00566Y00972*
X-00566Y00972*
X-00565Y00972*
X-00565Y00972*
X-00564Y00972*
X-00564Y00972*
X-00563Y00971*
X-00563Y00971*
X-00562Y00971*
X-00562Y0097*
X-00561Y0097*
X-00561Y00969*
X-00561Y00969*
X-00561Y00969*
X-00561Y00969*
X-0056Y00969*
X-0056Y00968*
X-0056Y00968*
X-0056Y00968*
X-0056Y00967*
X-00559Y00966*
X-00559Y00966*
X-00559Y00965*
X-00559Y00964*
X-00559Y00963*
X-00558Y00962*
X-00558Y00961*
X-00558Y00959*
Y00959*
Y00959*
Y00959*
Y00959*
Y00959*
X-00558Y00958*
X-00558Y00958*
X-00558Y00957*
X-00559Y00956*
X-00559Y00956*
X-00559Y00955*
X-00559Y00954*
X-00559Y00953*
X-00559Y00952*
X-0056Y00951*
X-0056Y00951*
X-0056Y0095*
X-00561Y00949*
X-00561Y00949*
X-00561Y00949*
X-00561Y00949*
X-00561Y00949*
X-00562Y00949*
X-00562Y00948*
X-00562Y00948*
X-00563Y00948*
X-00563Y00947*
X-00564Y00947*
X-00564Y00947*
X-00565Y00947*
X-00566Y00947*
X-00566Y00946*
X-00567Y00946*
X-00568Y00946*
X-00568*
X-00568Y00946*
X-00568*
X-00569Y00946*
X-00569Y00946*
X-0057Y00947*
X-00571Y00947*
X-00572Y00947*
X-00572Y00948*
X-00573Y00948*
X-00573Y00948*
X-00573Y00948*
X-00573Y00948*
X-00573Y00948*
X-00573Y00948*
X-00573Y00948*
X-00573Y00949*
X-00574Y00949*
X-00574Y00949*
X-00574Y0095*
X-00574Y0095*
X-00574Y00951*
X-00574Y00951*
X-00575Y00951*
X-00575Y00952*
X-00575Y00953*
X-0057Y00953*
Y00953*
X-0057Y00953*
X-0057Y00953*
X-0057Y00952*
X-0057Y00952*
X-0057Y00952*
X-0057Y00951*
X-00569Y00951*
X-00569Y00951*
X-00569Y00951*
X-00569Y00951*
X-00569Y00951*
X-00568Y00951*
X-00568Y0095*
X-00568Y0095*
X-00567Y0095*
X-00567*
X-00567Y0095*
X-00567Y0095*
X-00566Y0095*
X-00566Y00951*
X-00566Y00951*
X-00565Y00951*
X-00565Y00952*
X-00565Y00952*
X-00565Y00952*
X-00565Y00952*
X-00565Y00952*
X-00564Y00952*
X-00564Y00953*
X-00564Y00953*
X-00564Y00953*
X-00564Y00954*
X-00564Y00954*
X-00564Y00955*
X-00564Y00955*
X-00564Y00956*
X-00563Y00957*
X-00563Y00957*
X-00563Y00957*
X-00563Y00957*
X-00564Y00957*
X-00564Y00957*
X-00564Y00957*
X-00564Y00957*
X-00565Y00956*
X-00565Y00956*
X-00566Y00956*
X-00567Y00956*
X-00567Y00955*
X-00568Y00955*
X-00568Y00955*
X-00568*
X-00569Y00955*
X-00569Y00955*
X-00569Y00955*
X-0057Y00956*
X-00571Y00956*
X-00571Y00956*
X-00571Y00956*
X-00572Y00957*
X-00572Y00957*
X-00573Y00957*
X-00573Y00958*
X-00573Y00958*
X-00573Y00958*
X-00573Y00958*
X-00574Y00958*
X-00574Y00958*
X-00574Y00959*
X-00574Y00959*
X-00574Y00959*
X-00575Y0096*
X-00575Y0096*
X-00575Y00961*
X-00575Y00961*
X-00575Y00962*
X-00575Y00962*
X-00575Y00963*
X-00575Y00964*
Y00964*
Y00964*
Y00964*
X-00575Y00964*
X-00575Y00965*
X-00575Y00965*
X-00575Y00966*
X-00575Y00966*
X-00575Y00967*
X-00575Y00968*
X-00574Y00968*
X-00574Y00969*
X-00574Y00969*
X-00574Y0097*
X-00573Y0097*
X-00573Y0097*
X-00573Y0097*
X-00573Y0097*
X-00573Y0097*
X-00572Y00971*
X-00572Y00971*
X-00572Y00971*
X-00571Y00971*
X-00571Y00971*
X-00571Y00972*
X-0057Y00972*
X-0057Y00972*
X-00569Y00972*
X-00568Y00972*
X-00568Y00972*
X-00567Y00972*
X-00567*
X-00567Y00972*
G37*
G36*
X-0094Y00819D02*
Y00819D01*
Y00819*
Y00819*
Y00818*
Y00818*
X-0094Y00817*
Y00817*
Y00816*
X-0094Y00815*
X-0094Y00814*
X-0094Y00814*
X-00941Y00813*
X-00941Y00813*
X-00941Y00812*
Y00812*
X-00941Y00812*
Y00812*
X-00941Y00812*
X-00941Y00812*
X-00941Y00811*
X-00941Y00811*
X-00942Y0081*
X-00942Y0081*
X-00942Y00809*
X-00942Y00809*
X-00942Y00809*
X-00943Y00809*
X-00943Y00809*
X-00943Y00808*
X-00944Y00808*
X-00945Y00807*
X-00945Y00807*
X-00945*
X-00945Y00807*
X-00945Y00807*
X-00946Y00807*
X-00946Y00807*
X-00946Y00807*
X-00946Y00807*
X-00947Y00807*
X-00947Y00807*
X-00948Y00807*
X-00949Y00806*
X-0095Y00806*
X-00951*
X-00951Y00806*
X-00951*
X-00952Y00806*
X-00952Y00807*
X-00953Y00807*
X-00954Y00807*
X-00955Y00807*
X-00955Y00807*
X-00956Y00807*
X-00956*
X-00956Y00807*
X-00956Y00807*
X-00956Y00808*
X-00957Y00808*
X-00957Y00808*
X-00958Y00809*
X-00958Y00809*
X-00959Y00809*
X-00959Y0081*
X-00959Y0081*
X-00959Y0081*
X-00959Y0081*
X-0096Y00811*
X-0096Y00811*
X-0096Y00812*
X-0096Y00812*
Y00812*
X-0096Y00812*
Y00813*
X-0096Y00813*
X-0096Y00813*
X-0096Y00813*
X-0096Y00814*
X-0096Y00814*
X-0096Y00814*
X-00961Y00815*
X-00961Y00815*
X-00961Y00816*
X-00961Y00817*
Y00817*
X-00961Y00818*
Y00819*
Y00832*
X-00956*
Y00819*
Y00819*
Y00818*
Y00818*
Y00818*
Y00818*
Y00817*
X-00955Y00817*
Y00816*
X-00955Y00815*
X-00955Y00815*
Y00815*
X-00955Y00815*
X-00955Y00814*
Y00814*
X-00955Y00814*
X-00955Y00814*
X-00955Y00813*
X-00955Y00813*
X-00955Y00813*
X-00954Y00812*
X-00954Y00812*
X-00954Y00812*
X-00954Y00812*
X-00953Y00811*
X-00953Y00811*
X-00952Y00811*
X-00952Y00811*
X-00951Y00811*
X-0095Y00811*
X-0095*
X-0095Y00811*
X-00949Y00811*
X-00949Y00811*
X-00948Y00811*
X-00947Y00811*
X-00947Y00812*
X-00947Y00812*
X-00947Y00812*
X-00947Y00812*
X-00946Y00812*
X-00946Y00813*
X-00946Y00813*
X-00946Y00813*
X-00946Y00814*
Y00814*
X-00946Y00814*
X-00946Y00814*
X-00946Y00815*
Y00815*
X-00946Y00816*
Y00816*
X-00945Y00816*
Y00817*
X-00945Y00817*
Y00818*
Y00818*
Y00832*
X-0094*
Y00819*
G37*
G36*
X-00922Y00816D02*
X-00918D01*
Y00812*
X-00922*
Y00807*
X-00926*
Y00812*
X-00937*
Y00816*
X-00926Y00833*
X-00922*
Y00816*
G37*
G36*
X-00946Y00679D02*
X-00945Y00679D01*
X-00945Y00678*
X-00944Y00678*
X-00944Y00678*
X-00943Y00678*
X-00943Y00678*
X-00942Y00678*
X-00941Y00677*
X-00941Y00677*
X-0094Y00677*
X-00939Y00676*
X-00939Y00676*
X-00939*
X-00939Y00676*
X-00939Y00676*
X-00939Y00676*
X-00938Y00675*
X-00938Y00675*
X-00938Y00675*
X-00938Y00674*
X-00937Y00673*
X-00937Y00672*
X-00936Y00671*
X-00941Y0067*
Y0067*
X-00941Y0067*
Y0067*
X-00942Y0067*
X-00942Y00671*
X-00942Y00671*
X-00942Y00672*
X-00942Y00672*
X-00943Y00673*
X-00943Y00673*
X-00943Y00673*
X-00944Y00673*
X-00944Y00673*
X-00944Y00674*
X-00945Y00674*
X-00945Y00674*
X-00946Y00674*
X-00947Y00674*
X-00947*
X-00947Y00674*
X-00948Y00674*
X-00948Y00674*
X-00948Y00674*
X-00949Y00674*
X-0095Y00673*
X-0095Y00673*
X-00951Y00673*
X-00951Y00672*
X-00951Y00672*
Y00672*
X-00952Y00672*
X-00952Y00672*
X-00952Y00672*
X-00952Y00671*
X-00952Y00671*
X-00952Y00671*
X-00952Y00671*
X-00952Y0067*
X-00953Y0067*
X-00953Y00669*
X-00953Y00668*
X-00953Y00668*
X-00953Y00667*
X-00953Y00666*
X-00953Y00665*
Y00665*
Y00665*
Y00665*
X-00953Y00665*
Y00664*
X-00953Y00664*
X-00953Y00663*
X-00953Y00663*
X-00953Y00662*
X-00952Y0066*
X-00952Y0066*
X-00952Y00659*
X-00952Y00659*
X-00951Y00658*
X-00951Y00658*
X-00951Y00658*
X-00951Y00658*
X-00951Y00658*
X-00951Y00658*
X-0095Y00657*
X-0095Y00657*
X-00949Y00657*
X-00948Y00657*
X-00947Y00656*
X-00947Y00656*
X-00947*
X-00947Y00656*
X-00946Y00657*
X-00946Y00657*
X-00945Y00657*
X-00945Y00657*
X-00944Y00657*
X-00943Y00658*
X-00943Y00658*
X-00943Y00658*
X-00943Y00658*
X-00943Y00659*
X-00942Y00659*
X-00942Y0066*
X-00942Y00661*
X-00941Y00662*
X-00936Y0066*
Y0066*
X-00936Y0066*
X-00936Y0066*
X-00936Y0066*
X-00937Y00659*
X-00937Y00659*
X-00937Y00658*
X-00937Y00658*
X-00938Y00657*
X-00938Y00656*
X-00939Y00655*
X-0094Y00654*
X-0094Y00654*
X-0094Y00654*
X-0094Y00654*
X-0094Y00654*
X-00941Y00654*
X-00941Y00654*
X-00941Y00653*
X-00942Y00653*
X-00942Y00653*
X-00942Y00653*
X-00943Y00653*
X-00943Y00653*
X-00944Y00652*
X-00945Y00652*
X-00945Y00652*
X-00946Y00652*
X-00947Y00652*
X-00947*
X-00947Y00652*
X-00948Y00652*
X-00948Y00652*
X-00949Y00652*
X-00949Y00652*
X-0095Y00653*
X-0095Y00653*
X-00951Y00653*
X-00952Y00653*
X-00953Y00654*
X-00953Y00654*
X-00954Y00654*
X-00955Y00655*
X-00955Y00656*
X-00955Y00656*
X-00955Y00656*
X-00956Y00656*
X-00956Y00656*
X-00956Y00657*
X-00956Y00657*
X-00957Y00657*
X-00957Y00658*
X-00957Y00659*
X-00957Y00659*
X-00958Y0066*
X-00958Y00661*
X-00958Y00662*
X-00958Y00663*
X-00958Y00664*
X-00959Y00665*
Y00665*
Y00665*
Y00665*
X-00958Y00666*
Y00666*
X-00958Y00667*
X-00958Y00667*
X-00958Y00668*
X-00958Y00669*
X-00958Y0067*
X-00958Y0067*
X-00957Y00671*
X-00957Y00672*
X-00957Y00673*
X-00956Y00674*
X-00956Y00674*
X-00955Y00675*
X-00955Y00675*
X-00955Y00675*
X-00955Y00675*
X-00955Y00676*
X-00954Y00676*
X-00954Y00676*
X-00953Y00676*
X-00953Y00677*
X-00952Y00677*
X-00952Y00677*
X-00951Y00678*
X-0095Y00678*
X-00949Y00678*
X-00948Y00678*
X-00948Y00679*
X-00947Y00679*
X-00946*
X-00946Y00679*
G37*
G36*
X-00924Y00678D02*
X-00923Y00678D01*
X-00923Y00678*
X-00923Y00678*
X-00922Y00678*
X-00921Y00678*
X-0092Y00677*
X-0092Y00677*
X-00919Y00677*
X-00919Y00677*
X-00918Y00676*
X-00918Y00676*
X-00918Y00676*
X-00918Y00676*
X-00918Y00676*
X-00918Y00676*
X-00918Y00675*
X-00918Y00675*
X-00917Y00675*
X-00917Y00674*
X-00917Y00673*
X-00916Y00673*
X-00916Y00672*
X-00916Y00672*
X-00916Y00671*
Y00671*
Y00671*
X-00916Y0067*
X-00916Y0067*
X-00916Y0067*
X-00917Y00669*
X-00917Y00668*
X-00917Y00668*
X-00917Y00668*
X-00917Y00668*
X-00917Y00667*
X-00917Y00667*
X-00918Y00666*
X-00918Y00666*
X-00918Y00665*
X-00919Y00665*
X-00919Y00664*
X-00919Y00664*
X-00919Y00664*
X-0092Y00664*
X-0092Y00663*
X-00921Y00663*
X-00921Y00662*
X-00922Y00661*
X-00922Y00661*
X-00922Y00661*
X-00922Y00661*
X-00922Y00661*
X-00923Y00661*
X-00923Y0066*
X-00924Y0066*
X-00924Y00659*
X-00925Y00659*
X-00925Y00659*
X-00925Y00658*
X-00925Y00658*
X-00925Y00658*
X-00925Y00658*
X-00925Y00658*
X-00926Y00658*
X-00926Y00657*
X-00916*
Y00653*
X-00933*
Y00653*
Y00653*
X-00933Y00653*
X-00933Y00653*
X-00933Y00653*
X-00933Y00653*
X-00933Y00654*
X-00933Y00655*
X-00933Y00656*
X-00932Y00657*
X-00932Y00657*
Y00657*
X-00932Y00657*
X-00932Y00658*
X-00932Y00658*
X-00931Y00658*
X-00931Y00658*
X-00931Y00659*
X-00931Y00659*
X-0093Y00659*
X-0093Y0066*
X-00929Y0066*
X-00929Y00661*
X-00928Y00662*
X-00928Y00662*
X-00927Y00663*
X-00926Y00664*
X-00926Y00664*
X-00926Y00664*
X-00926Y00664*
X-00926Y00664*
X-00925Y00664*
X-00925Y00665*
X-00925Y00665*
X-00924Y00666*
X-00923Y00667*
X-00923Y00667*
X-00923Y00667*
X-00922Y00668*
X-00922Y00668*
X-00922Y00668*
X-00922Y00668*
X-00922Y00668*
X-00922Y00669*
X-00922Y00669*
X-00921Y0067*
X-00921Y0067*
X-00921Y00671*
Y00671*
Y00671*
Y00671*
X-00921Y00671*
X-00921Y00672*
X-00921Y00672*
X-00922Y00673*
X-00922Y00673*
X-00922Y00673*
X-00922Y00673*
X-00922Y00673*
X-00922Y00674*
X-00923Y00674*
X-00923Y00674*
X-00923Y00674*
X-00924Y00674*
X-00925Y00674*
X-00925*
X-00925Y00674*
X-00925Y00674*
X-00926Y00674*
X-00926Y00674*
X-00927Y00674*
X-00927Y00673*
X-00927Y00673*
X-00927Y00673*
X-00927Y00673*
X-00927Y00673*
X-00928Y00672*
X-00928Y00672*
X-00928Y00671*
X-00928Y0067*
X-00933Y00671*
Y00671*
X-00933Y00671*
Y00671*
X-00933Y00671*
X-00933Y00672*
X-00933Y00672*
X-00933Y00672*
X-00932Y00673*
X-00932Y00674*
X-00932Y00675*
X-00931Y00675*
X-00931Y00676*
X-00931Y00676*
X-0093Y00676*
X-0093Y00677*
X-0093Y00677*
X-0093Y00677*
X-0093Y00677*
X-0093Y00677*
X-00929Y00677*
X-00929Y00677*
X-00929Y00677*
X-00928Y00678*
X-00928Y00678*
X-00927Y00678*
X-00926Y00678*
X-00925Y00678*
X-00924Y00678*
X-00924*
X-00924Y00678*
G37*
G36*
X-00886Y00679D02*
X-00885Y00679D01*
X-00885Y00678*
X-00884Y00678*
X-00884Y00678*
X-00883Y00678*
X-00883Y00678*
X-00882Y00678*
X-00881Y00677*
X-00881Y00677*
X-0088Y00677*
X-00879Y00676*
X-00879Y00676*
X-00879*
X-00879Y00676*
X-00879Y00676*
X-00879Y00676*
X-00878Y00675*
X-00878Y00675*
X-00878Y00675*
X-00878Y00674*
X-00877Y00673*
X-00877Y00672*
X-00876Y00671*
X-00881Y0067*
Y0067*
X-00881Y0067*
Y0067*
X-00882Y0067*
X-00882Y00671*
X-00882Y00671*
X-00882Y00672*
X-00882Y00672*
X-00883Y00673*
X-00883Y00673*
X-00883Y00673*
X-00884Y00673*
X-00884Y00673*
X-00884Y00674*
X-00885Y00674*
X-00885Y00674*
X-00886Y00674*
X-00887Y00674*
X-00887*
X-00887Y00674*
X-00888Y00674*
X-00888Y00674*
X-00888Y00674*
X-00889Y00674*
X-0089Y00673*
X-0089Y00673*
X-00891Y00673*
X-00891Y00672*
X-00891Y00672*
Y00672*
X-00892Y00672*
X-00892Y00672*
X-00892Y00672*
X-00892Y00671*
X-00892Y00671*
X-00892Y00671*
X-00892Y00671*
X-00892Y0067*
X-00893Y0067*
X-00893Y00669*
X-00893Y00668*
X-00893Y00668*
X-00893Y00667*
X-00893Y00666*
X-00893Y00665*
Y00665*
Y00665*
Y00665*
X-00893Y00665*
Y00664*
X-00893Y00664*
X-00893Y00663*
X-00893Y00663*
X-00893Y00662*
X-00892Y0066*
X-00892Y0066*
X-00892Y00659*
X-00892Y00659*
X-00891Y00658*
X-00891Y00658*
X-00891Y00658*
X-00891Y00658*
X-00891Y00658*
X-00891Y00658*
X-0089Y00657*
X-0089Y00657*
X-00889Y00657*
X-00888Y00657*
X-00887Y00656*
X-00887Y00656*
X-00887*
X-00887Y00656*
X-00886Y00657*
X-00886Y00657*
X-00885Y00657*
X-00885Y00657*
X-00884Y00657*
X-00883Y00658*
X-00883Y00658*
X-00883Y00658*
X-00883Y00658*
X-00883Y00659*
X-00882Y00659*
X-00882Y0066*
X-00882Y00661*
X-00881Y00662*
X-00876Y0066*
Y0066*
X-00876Y0066*
X-00876Y0066*
X-00876Y0066*
X-00877Y00659*
X-00877Y00659*
X-00877Y00658*
X-00877Y00658*
X-00878Y00657*
X-00878Y00656*
X-00879Y00655*
X-0088Y00654*
X-0088Y00654*
X-0088Y00654*
X-0088Y00654*
X-0088Y00654*
X-00881Y00654*
X-00881Y00654*
X-00881Y00653*
X-00882Y00653*
X-00882Y00653*
X-00882Y00653*
X-00883Y00653*
X-00883Y00653*
X-00884Y00652*
X-00885Y00652*
X-00885Y00652*
X-00886Y00652*
X-00887Y00652*
X-00887*
X-00887Y00652*
X-00888Y00652*
X-00888Y00652*
X-00889Y00652*
X-00889Y00652*
X-0089Y00653*
X-0089Y00653*
X-00891Y00653*
X-00892Y00653*
X-00893Y00654*
X-00893Y00654*
X-00894Y00654*
X-00895Y00655*
X-00895Y00656*
X-00895Y00656*
X-00895Y00656*
X-00896Y00656*
X-00896Y00656*
X-00896Y00657*
X-00896Y00657*
X-00897Y00657*
X-00897Y00658*
X-00897Y00659*
X-00897Y00659*
X-00898Y0066*
X-00898Y00661*
X-00898Y00662*
X-00898Y00663*
X-00898Y00664*
X-00899Y00665*
Y00665*
Y00665*
Y00665*
X-00898Y00666*
Y00666*
X-00898Y00667*
X-00898Y00667*
X-00898Y00668*
X-00898Y00669*
X-00898Y0067*
X-00898Y0067*
X-00897Y00671*
X-00897Y00672*
X-00897Y00673*
X-00896Y00674*
X-00896Y00674*
X-00895Y00675*
X-00895Y00675*
X-00895Y00675*
X-00895Y00675*
X-00895Y00676*
X-00894Y00676*
X-00894Y00676*
X-00893Y00676*
X-00893Y00677*
X-00892Y00677*
X-00892Y00677*
X-00891Y00678*
X-0089Y00678*
X-00889Y00678*
X-00888Y00678*
X-00888Y00679*
X-00887Y00679*
X-00886*
X-00886Y00679*
G37*
G36*
X-0086Y00653D02*
X-00865D01*
Y00671*
X-00865Y00671*
X-00865Y00671*
X-00865Y00671*
X-00866Y00671*
X-00866Y0067*
X-00866Y0067*
X-00867Y0067*
X-00867Y0067*
X-00867Y00669*
X-00868Y00669*
X-00868Y00669*
X-00869Y00668*
X-0087Y00668*
X-00872Y00667*
Y00672*
X-00872*
X-00871Y00672*
X-00871Y00672*
X-00871Y00672*
X-00871Y00672*
X-0087Y00672*
X-0087Y00673*
X-00869Y00673*
X-00868Y00674*
X-00867Y00674*
X-00867Y00674*
X-00867Y00674*
X-00867Y00674*
X-00867Y00674*
X-00867Y00675*
X-00866Y00675*
X-00866Y00676*
X-00865Y00677*
X-00865Y00677*
X-00864Y00678*
X-0086*
Y00653*
G37*
%LNhsmm-2*%
%LPC*%
G36*
X00827Y-00901D02*
X00823D01*
Y-00908*
X00827*
X00827Y-00908*
X00827*
X00828Y-00908*
X00829Y-00908*
X00829Y-00908*
X0083Y-00908*
X0083Y-00908*
X0083Y-00908*
X0083Y-00908*
X0083Y-00908*
X0083Y-00907*
X00831Y-00907*
X00831Y-00907*
X00831Y-00907*
X00831Y-00907*
X00832Y-00906*
X00832Y-00906*
X00832Y-00906*
X00832Y-00906*
X00832Y-00906*
X00832Y-00905*
X00832Y-00905*
X00832Y-00905*
Y-00904*
Y-00904*
X00832Y-00904*
X00832Y-00904*
X00832Y-00903*
X00832Y-00903*
X00832Y-00903*
X00831Y-00902*
X00831Y-00902*
X00831Y-00902*
X00831Y-00902*
X00831Y-00902*
X0083Y-00901*
X0083Y-00901*
X0083Y-00901*
X00829Y-00901*
X00829*
X00829Y-00901*
X00829Y-00901*
X00828Y-00901*
X00828*
X00828Y-00901*
X00827*
X00827Y-00901*
G37*
G36*
X00446Y-00509D02*
X0044Y-00518D01*
X00446*
Y-00509*
G37*
G36*
X00499Y-00719D02*
X00494D01*
Y-00726*
X00499*
X00499Y-00726*
X005Y-00725*
X00501Y-00725*
X00501Y-00725*
X00501Y-00725*
X00502Y-00725*
X00502Y-00725*
X00502*
X00502Y-00725*
X00502Y-00725*
X00502Y-00725*
X00503Y-00725*
X00503Y-00724*
X00503Y-00724*
X00503Y-00724*
X00503Y-00724*
X00504Y-00724*
X00504Y-00724*
X00504Y-00723*
X00504Y-00723*
X00504Y-00723*
X00504Y-00722*
Y-00722*
Y-00722*
X00504Y-00722*
X00504Y-00722*
X00504Y-00721*
X00504Y-00721*
X00503Y-0072*
X00503Y-0072*
X00503Y-0072*
X00503Y-0072*
X00503Y-0072*
X00503Y-0072*
X00502Y-0072*
X00502Y-00719*
X00502Y-00719*
X00501Y-00719*
X00501*
X00501Y-00719*
X00501*
X00501Y-00719*
X005*
X00499Y-00719*
G37*
G36*
X00474D02*
X00468D01*
Y-00726*
X00473*
X00473Y-00726*
X00474Y-00725*
X00475Y-00725*
X00475Y-00725*
X00476Y-00725*
X00476Y-00725*
X00476Y-00725*
X00476*
X00476Y-00725*
X00476Y-00725*
X00477Y-00725*
X00477Y-00725*
X00477Y-00724*
X00478Y-00724*
X00478Y-00724*
X00478Y-00724*
X00478Y-00724*
X00478Y-00724*
X00478Y-00723*
X00478Y-00723*
X00478Y-00723*
X00478Y-00722*
Y-00722*
Y-00722*
X00478Y-00722*
X00478Y-00722*
X00478Y-00721*
X00478Y-00721*
X00478Y-0072*
X00477Y-0072*
X00477Y-0072*
X00477Y-0072*
X00477Y-0072*
X00477Y-0072*
X00477Y-0072*
X00476Y-00719*
X00476Y-00719*
X00475Y-00719*
X00475*
X00475Y-00719*
X00475*
X00475Y-00719*
X00474*
X00474Y-00719*
G37*
G36*
X00665Y-00716D02*
X00659D01*
Y-00723*
X00664*
X00665Y-00723*
X00666Y-00723*
X00666Y-00723*
X00667Y-00722*
X00667Y-00722*
X00667Y-00722*
X00667Y-00722*
X00667*
X00668Y-00722*
X00668Y-00722*
X00668Y-00722*
X00668Y-00722*
X00669Y-00722*
X00669Y-00721*
X00669Y-00721*
X00669Y-00721*
X00669Y-00721*
X00669Y-00721*
X00669Y-0072*
X00669Y-0072*
X00669Y-0072*
X00669Y-00719*
Y-00719*
Y-00719*
X00669Y-00719*
X00669Y-00719*
X00669Y-00718*
X00669Y-00718*
X00669Y-00718*
X00669Y-00717*
X00669Y-00717*
X00669Y-00717*
X00668Y-00717*
X00668Y-00717*
X00668Y-00717*
X00668Y-00716*
X00667Y-00716*
X00667Y-00716*
X00667*
X00667Y-00716*
X00666*
X00666Y-00716*
X00665*
X00665Y-00716*
G37*
G36*
X00639D02*
X00633D01*
Y-00723*
X00638*
X00639Y-00723*
X0064Y-00723*
X0064Y-00723*
X00641Y-00722*
X00641Y-00722*
X00641Y-00722*
X00642Y-00722*
X00642*
X00642Y-00722*
X00642Y-00722*
X00642Y-00722*
X00643Y-00722*
X00643Y-00722*
X00643Y-00721*
X00643Y-00721*
X00643Y-00721*
X00643Y-00721*
X00643Y-00721*
X00643Y-0072*
X00643Y-0072*
X00644Y-0072*
X00644Y-00719*
Y-00719*
Y-00719*
X00644Y-00719*
X00643Y-00719*
X00643Y-00718*
X00643Y-00718*
X00643Y-00718*
X00643Y-00717*
X00643Y-00717*
X00643Y-00717*
X00643Y-00717*
X00642Y-00717*
X00642Y-00717*
X00642Y-00716*
X00641Y-00716*
X00641Y-00716*
X00641*
X00641Y-00716*
X00641*
X0064Y-00716*
X00639*
X00639Y-00716*
G37*
G36*
X0062Y-00806D02*
X00614D01*
Y-00813*
X00619*
X00619Y-00813*
X0062Y-00812*
X00621Y-00812*
X00621Y-00812*
X00622Y-00812*
X00622Y-00812*
X00622Y-00812*
X00622*
X00622Y-00812*
X00622Y-00812*
X00623Y-00812*
X00623Y-00812*
X00623Y-00811*
X00624Y-00811*
X00624Y-00811*
X00624Y-00811*
X00624Y-00811*
X00624Y-00811*
X00624Y-0081*
X00624Y-0081*
X00624Y-0081*
X00624Y-00809*
Y-00809*
Y-00809*
X00624Y-00809*
X00624Y-00809*
X00624Y-00808*
X00624Y-00808*
X00624Y-00807*
X00623Y-00807*
X00623Y-00807*
X00623Y-00807*
X00623Y-00807*
X00623Y-00807*
X00623Y-00807*
X00622Y-00806*
X00622Y-00806*
X00621Y-00806*
X00621*
X00621Y-00806*
X00621*
X00621Y-00806*
X0062*
X0062Y-00806*
G37*
G36*
X00443D02*
X00437D01*
Y-00813*
X00442*
X00442Y-00813*
X00443Y-00812*
X00444Y-00812*
X00444Y-00812*
X00445Y-00812*
X00445Y-00812*
X00445Y-00812*
X00445*
X00445Y-00812*
X00445Y-00812*
X00446Y-00812*
X00446Y-00812*
X00446Y-00811*
X00447Y-00811*
X00447Y-00811*
X00447Y-00811*
X00447Y-00811*
X00447Y-00811*
X00447Y-0081*
X00447Y-0081*
X00447Y-0081*
X00447Y-00809*
Y-00809*
Y-00809*
X00447Y-00809*
X00447Y-00809*
X00447Y-00808*
X00447Y-00808*
X00447Y-00807*
X00446Y-00807*
X00446Y-00807*
X00446Y-00807*
X00446Y-00807*
X00446Y-00807*
X00446Y-00807*
X00445Y-00806*
X00445Y-00806*
X00444Y-00806*
X00444*
X00444Y-00806*
X00444*
X00444Y-00806*
X00443*
X00443Y-00806*
G37*
G36*
X00018Y-00689D02*
X00012Y-00698D01*
X00018*
Y-00689*
G37*
G36*
X00078Y-00694D02*
X00077D01*
X00077Y-00694*
X00077Y-00694*
X00076Y-00695*
X00076Y-00695*
X00076Y-00695*
X00075Y-00695*
X00075Y-00695*
X00075Y-00696*
X00075Y-00696*
X00075Y-00696*
X00075Y-00697*
X00074Y-00697*
X00074Y-00698*
X00074Y-00699*
Y-00699*
Y-00699*
Y-00699*
Y-00699*
X00074Y-007*
X00074Y-007*
X00075Y-00701*
X00075Y-00701*
X00075Y-00702*
X00075Y-00702*
X00075Y-00702*
X00076Y-00703*
X00076Y-00703*
X00076Y-00703*
X00076Y-00703*
X00077Y-00703*
X00077Y-00704*
X00078Y-00704*
X00078*
X00078Y-00704*
X00079Y-00704*
X00079Y-00703*
X00079Y-00703*
X0008Y-00703*
X0008Y-00703*
X0008Y-00703*
X0008Y-00702*
X0008Y-00702*
X00081Y-00702*
X00081Y-00701*
X00081Y-00701*
X00081Y-007*
X00081Y-00699*
Y-00699*
Y-00699*
Y-00699*
Y-00699*
X00081Y-00698*
X00081Y-00698*
X00081Y-00697*
X00081Y-00697*
X0008Y-00696*
X0008Y-00695*
X0008Y-00695*
X0008Y-00695*
X0008Y-00695*
X00079Y-00695*
X00079Y-00695*
X00079Y-00694*
X00078Y-00694*
X00078Y-00694*
G37*
G36*
X00122Y-00556D02*
X00116D01*
Y-00563*
X00121*
X00122Y-00563*
X00123Y-00563*
X00123Y-00563*
X00124Y-00562*
X00124Y-00562*
X00124Y-00562*
X00124Y-00562*
X00125*
X00125Y-00562*
X00125Y-00562*
X00125Y-00562*
X00125Y-00562*
X00126Y-00562*
X00126Y-00561*
X00126Y-00561*
X00126Y-00561*
X00126Y-00561*
X00126Y-00561*
X00126Y-0056*
X00126Y-0056*
X00126Y-0056*
X00126Y-00559*
Y-00559*
Y-00559*
X00126Y-00559*
X00126Y-00559*
X00126Y-00558*
X00126Y-00558*
X00126Y-00558*
X00126Y-00557*
X00126Y-00557*
X00126Y-00557*
X00125Y-00557*
X00125Y-00557*
X00125Y-00557*
X00125Y-00556*
X00124Y-00556*
X00124Y-00556*
X00124*
X00124Y-00556*
X00123*
X00123Y-00556*
X00122*
X00122Y-00556*
G37*
G36*
X00007Y-00426D02*
X00007D01*
X00007Y-00426*
X00007Y-00426*
X00006Y-00426*
X00006Y-00426*
X00006Y-00426*
X00006Y-00426*
X00006Y-00426*
X00006Y-00426*
X00005Y-00426*
X00005Y-00427*
X00005Y-00427*
X00005Y-00427*
X00005Y-00428*
X00005Y-00428*
Y-00428*
X00005Y-00428*
Y-00428*
X00005Y-00429*
X00005Y-00429*
X00004Y-00429*
X00004Y-00429*
X00004Y-0043*
X00004Y-0043*
X00004Y-00431*
X00004Y-00431*
X00004Y-00432*
X00004Y-00432*
Y-00433*
X00004Y-00434*
Y-00435*
Y-00435*
Y-00435*
Y-00435*
Y-00435*
Y-00436*
X00004Y-00436*
Y-00437*
X00004Y-00437*
X00004Y-00438*
X00004Y-00439*
X00004Y-0044*
X00004Y-0044*
X00005Y-00441*
X00005Y-00441*
X00005Y-00441*
X00005Y-00441*
X00005Y-00441*
X00005Y-00442*
X00005Y-00442*
X00005Y-00443*
X00005Y-00443*
X00006Y-00443*
X00006Y-00443*
X00006Y-00443*
X00006Y-00443*
X00006Y-00443*
X00006Y-00444*
X00007Y-00444*
X00007Y-00444*
X00007Y-00444*
X00007*
X00008Y-00444*
X00008Y-00444*
X00008Y-00444*
X00008Y-00443*
X00009Y-00443*
X00009Y-00443*
X00009Y-00443*
X00009Y-00443*
X00009Y-00443*
X00009Y-00443*
X00009Y-00442*
X0001Y-00442*
X0001Y-00442*
X0001Y-00441*
Y-00441*
X0001Y-00441*
Y-00441*
X0001Y-00441*
X0001Y-00441*
X0001Y-0044*
X0001Y-0044*
X0001Y-0044*
X0001Y-00439*
X0001Y-00439*
X0001Y-00438*
X0001Y-00438*
X0001Y-00437*
Y-00436*
X0001Y-00436*
Y-00435*
Y-00435*
Y-00435*
Y-00434*
Y-00434*
Y-00434*
X0001Y-00433*
Y-00433*
X0001Y-00432*
X0001Y-00431*
X0001Y-0043*
X0001Y-0043*
X0001Y-00429*
X0001Y-00429*
X0001Y-00428*
Y-00428*
X0001Y-00428*
X0001Y-00428*
X0001Y-00428*
X0001Y-00428*
X00009Y-00427*
X00009Y-00427*
X00009Y-00426*
X00009Y-00426*
X00009Y-00426*
X00009Y-00426*
X00009Y-00426*
X00008Y-00426*
X00008Y-00426*
X00008Y-00426*
X00008Y-00426*
X00007Y-00426*
G37*
G36*
X-00892Y-0058D02*
X-00892D01*
X-00893Y-0058*
X-00893Y-0058*
X-00893Y-0058*
X-00894Y-00581*
X-00894Y-00581*
X-00894Y-00581*
X-00895Y-00581*
X-00895Y-00581*
X-00895Y-00581*
X-00895Y-00582*
X-00895Y-00582*
X-00895Y-00582*
X-00895Y-00583*
X-00895Y-00583*
Y-00583*
Y-00584*
X-00895Y-00584*
X-00895Y-00584*
X-00895Y-00585*
X-00895Y-00585*
X-00895Y-00585*
X-00894Y-00586*
X-00894Y-00586*
X-00894Y-00586*
X-00894Y-00586*
X-00894Y-00586*
X-00894Y-00586*
X-00893Y-00586*
X-00893Y-00586*
X-00892Y-00586*
X-00892*
X-00892Y-00586*
X-00891Y-00586*
X-00891Y-00586*
X-00891Y-00586*
X-0089Y-00586*
X-0089Y-00586*
X-0089Y-00586*
X-0089Y-00586*
X-0089Y-00585*
X-0089Y-00585*
X-00889Y-00585*
X-00889Y-00584*
X-00889Y-00584*
X-00889Y-00583*
Y-00583*
Y-00583*
X-00889Y-00583*
X-00889Y-00583*
X-00889Y-00582*
X-0089Y-00582*
X-0089Y-00581*
X-0089Y-00581*
X-0089Y-00581*
X-0089Y-00581*
X-0089Y-00581*
X-00891Y-00581*
X-00891Y-00581*
X-00891Y-0058*
X-00892Y-0058*
X-00892Y-0058*
G37*
G36*
X-00892Y-0059D02*
X-00892D01*
X-00893Y-0059*
X-00893Y-00591*
X-00894Y-00591*
X-00894Y-00591*
X-00895Y-00591*
X-00895Y-00592*
X-00895Y-00592*
X-00895Y-00592*
X-00895Y-00592*
X-00895Y-00592*
X-00895Y-00593*
X-00896Y-00593*
X-00896Y-00594*
X-00896Y-00594*
Y-00594*
Y-00594*
Y-00595*
Y-00595*
X-00896Y-00595*
X-00896Y-00596*
X-00895Y-00596*
X-00895Y-00597*
X-00895Y-00597*
X-00895Y-00598*
X-00895Y-00598*
X-00895Y-00598*
X-00894Y-00598*
X-00894Y-00598*
X-00894Y-00598*
X-00893Y-00598*
X-00893Y-00599*
X-00892Y-00599*
X-00892*
X-00892Y-00599*
X-00891Y-00599*
X-00891Y-00598*
X-0089Y-00598*
X-0089Y-00598*
X-0089Y-00598*
X-0089Y-00598*
X-00889Y-00597*
X-00889Y-00597*
X-00889Y-00597*
X-00889Y-00596*
X-00889Y-00596*
X-00889Y-00595*
X-00889Y-00594*
Y-00594*
Y-00594*
Y-00594*
X-00889Y-00594*
X-00889Y-00593*
X-00889Y-00593*
X-00889Y-00592*
X-00889Y-00592*
X-0089Y-00591*
X-0089Y-00591*
X-0089Y-00591*
X-0089Y-00591*
X-0089Y-00591*
X-00891Y-00591*
X-00891Y-00591*
X-00892Y-0059*
X-00892Y-0059*
G37*
G36*
X00492Y00939D02*
X00492D01*
X00492Y00939*
X00491Y00938*
X00491Y00938*
X00491Y00938*
X0049Y00938*
X0049Y00938*
X0049Y00938*
X0049Y00938*
X0049Y00937*
X0049Y00937*
X00489Y00937*
X00489Y00936*
X00489Y00936*
X00489Y00935*
Y00935*
Y00935*
X00489Y00935*
X00489Y00935*
X00489Y00934*
X00489Y00934*
X0049Y00933*
X0049Y00933*
X0049Y00933*
X0049Y00933*
X0049Y00933*
X00491Y00933*
X00491Y00933*
X00491Y00932*
X00492Y00932*
X00492Y00932*
X00492*
X00493Y00932*
X00493Y00932*
X00493Y00933*
X00494Y00933*
X00494Y00933*
X00494Y00933*
X00494Y00933*
X00495Y00933*
X00495Y00933*
X00495Y00934*
X00495Y00934*
X00495Y00934*
X00495Y00935*
X00495Y00935*
Y00936*
Y00936*
X00495Y00936*
X00495Y00936*
X00495Y00937*
X00495Y00937*
X00495Y00937*
X00494Y00938*
X00494Y00938*
X00494Y00938*
X00494Y00938*
X00494Y00938*
X00494Y00938*
X00493Y00938*
X00493Y00939*
X00492Y00939*
G37*
G36*
X00492Y00928D02*
X00492D01*
X00492Y00928*
X00491Y00928*
X00491Y00928*
X0049Y00928*
X0049Y00928*
X0049Y00927*
X0049Y00927*
X00489Y00927*
X00489Y00927*
X00489Y00926*
X00489Y00926*
X00489Y00926*
X00489Y00925*
X00489Y00925*
Y00924*
Y00924*
Y00924*
Y00924*
X00489Y00924*
X00489Y00923*
X00489Y00923*
X00489Y00922*
X00489Y00922*
X0049Y00921*
X0049Y00921*
X0049Y00921*
X0049Y00921*
X0049Y00921*
X00491Y00921*
X00491Y0092*
X00492Y0092*
X00492Y0092*
X00493*
X00493Y0092*
X00493Y0092*
X00494Y0092*
X00494Y00921*
X00494Y00921*
X00495Y00921*
X00495Y00921*
X00495Y00921*
X00495Y00922*
X00495Y00922*
X00496Y00923*
X00496Y00923*
X00496Y00924*
X00496Y00924*
Y00924*
Y00925*
Y00925*
X00496Y00925*
X00496Y00925*
X00496Y00926*
X00495Y00926*
X00495Y00927*
X00495Y00927*
X00495Y00927*
X00495Y00928*
X00494Y00928*
X00494Y00928*
X00494Y00928*
X00493Y00928*
X00493Y00928*
X00492Y00928*
G37*
G36*
X00257Y00965D02*
X00257D01*
X00257Y00965*
X00256Y00965*
X00256Y00965*
X00256Y00964*
X00255Y00964*
X00255Y00964*
X00255Y00964*
X00255Y00964*
X00255Y00963*
X00254Y00963*
X00254Y00962*
X00254Y00962*
X00254Y00961*
X00254Y0096*
Y0096*
Y0096*
Y0096*
Y0096*
X00254Y0096*
X00254Y00959*
X00254Y00958*
X00254Y00958*
X00255Y00957*
X00255Y00957*
X00255Y00957*
X00255Y00957*
X00255Y00956*
X00256Y00956*
X00256Y00956*
X00256Y00956*
X00257Y00956*
X00257Y00955*
X00258*
X00258Y00956*
X00258Y00956*
X00259Y00956*
X00259Y00956*
X00259Y00956*
X0026Y00956*
X0026Y00957*
X0026Y00957*
X0026Y00957*
X0026Y00957*
X0026Y00958*
X00261Y00958*
X00261Y00959*
X00261Y0096*
Y0096*
Y0096*
Y0096*
Y0096*
X00261Y00961*
X00261Y00961*
X0026Y00962*
X0026Y00963*
X0026Y00963*
X0026Y00964*
X0026Y00964*
X00259Y00964*
X00259Y00964*
X00259Y00964*
X00259Y00965*
X00258Y00965*
X00258Y00965*
X00257Y00965*
G37*
G36*
X-00567Y00968D02*
X-00568D01*
X-00568Y00968*
X-00568Y00968*
X-00569Y00968*
X-00569Y00968*
X-00569Y00968*
X-0057Y00967*
X-0057Y00967*
X-0057Y00967*
X-0057Y00967*
X-0057Y00966*
X-0057Y00966*
X-0057Y00965*
X-00571Y00965*
X-00571Y00964*
Y00964*
Y00964*
Y00963*
Y00963*
X-00571Y00963*
X-0057Y00962*
X-0057Y00962*
X-0057Y00961*
X-0057Y00961*
X-0057Y0096*
X-0057Y0096*
X-00569Y0096*
X-00569Y0096*
X-00569Y0096*
X-00569Y00959*
X-00568Y00959*
X-00568Y00959*
X-00567Y00959*
X-00567*
X-00567Y00959*
X-00567Y00959*
X-00566Y00959*
X-00566Y00959*
X-00566Y00959*
X-00565Y0096*
X-00565Y0096*
X-00565Y0096*
X-00565Y0096*
X-00564Y00961*
X-00564Y00961*
X-00564Y00961*
X-00564Y00962*
X-00564Y00963*
X-00564Y00963*
Y00963*
Y00963*
Y00964*
Y00964*
X-00564Y00964*
X-00564Y00965*
X-00564Y00965*
X-00564Y00966*
X-00565Y00966*
X-00565Y00967*
X-00565Y00967*
X-00565Y00967*
X-00565Y00967*
X-00566Y00968*
X-00566Y00968*
X-00566Y00968*
X-00567Y00968*
X-00567Y00968*
G37*
G36*
X-00926Y00825D02*
X-00932Y00816D01*
X-00926*
Y00825*
G37*
%LNhsmm-3*%
%LPD*%
G54D10*
X00775Y-00605D02*
D01*
X00775Y-00605*
X00775Y-00605*
X00775Y-00604*
X00775Y-00604*
X00775Y-00604*
X00775Y-00604*
X00775Y-00603*
X00775Y-00603*
X00775Y-00603*
X00774Y-00603*
X00774Y-00602*
X00774Y-00602*
X00774Y-00602*
X00774Y-00602*
X00773Y-00602*
X00773Y-00602*
X00773Y-00601*
X00773Y-00601*
X00772Y-00601*
X00772Y-00601*
X00772Y-00601*
X00772Y-00601*
X00771*
X00771Y-00601*
X00771Y-00601*
X0077Y-00601*
X0077Y-00601*
X0077Y-00601*
X0077Y-00602*
X00769Y-00602*
X00769Y-00602*
X00769Y-00602*
X00769Y-00602*
X00769Y-00602*
X00768Y-00603*
X00768Y-00603*
X00768Y-00603*
X00768Y-00603*
X00768Y-00604*
X00768Y-00604*
X00768Y-00604*
X00768Y-00604*
X00768Y-00605*
X00768Y-00605*
X00767Y-00605*
X00768Y-00605*
X00768Y-00606*
X00768Y-00606*
X00768Y-00606*
X00768Y-00606*
X00768Y-00607*
X00768Y-00607*
X00768Y-00607*
X00768Y-00607*
X00768Y-00608*
X00769Y-00608*
X00769Y-00608*
X00769Y-00608*
X00769Y-00608*
X00769Y-00609*
X0077Y-00609*
X0077Y-00609*
X0077Y-00609*
X0077Y-00609*
X00771Y-00609*
X00771Y-00609*
X00771Y-00609*
X00772*
X00772Y-00609*
X00772Y-00609*
X00772Y-00609*
X00773Y-00609*
X00773Y-00609*
X00773Y-00609*
X00773Y-00609*
X00774Y-00608*
X00774Y-00608*
X00774Y-00608*
X00774Y-00608*
X00774Y-00608*
X00775Y-00607*
X00775Y-00607*
X00775Y-00607*
X00775Y-00607*
X00775Y-00606*
X00775Y-00606*
X00775Y-00606*
X00775Y-00606*
X00775Y-00605*
X00775Y-00605*
X005Y-00727D02*
D01*
X005Y-00727*
X005Y-00727*
X005Y-00727*
X005Y-00726*
X005Y-00726*
X005Y-00726*
X005Y-00726*
X00499Y-00725*
X00499Y-00725*
X00499Y-00725*
X00499Y-00725*
X00499Y-00725*
X00498Y-00724*
X00498Y-00724*
X00498Y-00724*
X00498Y-00724*
X00498Y-00724*
X00497Y-00724*
X00497Y-00724*
X00497Y-00724*
X00496Y-00724*
X00496Y-00724*
X00496*
X00496Y-00724*
X00495Y-00724*
X00495Y-00724*
X00495Y-00724*
X00495Y-00724*
X00494Y-00724*
X00494Y-00724*
X00494Y-00724*
X00494Y-00724*
X00493Y-00725*
X00493Y-00725*
X00493Y-00725*
X00493Y-00725*
X00493Y-00725*
X00493Y-00726*
X00492Y-00726*
X00492Y-00726*
X00492Y-00726*
X00492Y-00727*
X00492Y-00727*
X00492Y-00727*
X00492Y-00727*
X00492Y-00728*
X00492Y-00728*
X00492Y-00728*
X00492Y-00729*
X00492Y-00729*
X00492Y-00729*
X00493Y-00729*
X00493Y-0073*
X00493Y-0073*
X00493Y-0073*
X00493Y-0073*
X00493Y-0073*
X00494Y-00731*
X00494Y-00731*
X00494Y-00731*
X00494Y-00731*
X00495Y-00731*
X00495Y-00731*
X00495Y-00731*
X00495Y-00731*
X00496Y-00731*
X00496Y-00731*
X00496*
X00496Y-00731*
X00497Y-00731*
X00497Y-00731*
X00497Y-00731*
X00498Y-00731*
X00498Y-00731*
X00498Y-00731*
X00498Y-00731*
X00498Y-00731*
X00499Y-0073*
X00499Y-0073*
X00499Y-0073*
X00499Y-0073*
X00499Y-0073*
X005Y-00729*
X005Y-00729*
X005Y-00729*
X005Y-00729*
X005Y-00728*
X005Y-00728*
X005Y-00728*
X005Y-00727*
X0016Y-01066D02*
D01*
X0016Y-01066*
X0016Y-01065*
X0016Y-01065*
X0016Y-01065*
X0016Y-01065*
X0016Y-01064*
X0016Y-01064*
X0016Y-01064*
X0016Y-01064*
X00159Y-01063*
X00159Y-01063*
X00159Y-01063*
X00159Y-01063*
X00159Y-01063*
X00158Y-01063*
X00158Y-01062*
X00158Y-01062*
X00158Y-01062*
X00157Y-01062*
X00157Y-01062*
X00157Y-01062*
X00157Y-01062*
X00156*
X00156Y-01062*
X00156Y-01062*
X00155Y-01062*
X00155Y-01062*
X00155Y-01062*
X00155Y-01062*
X00154Y-01063*
X00154Y-01063*
X00154Y-01063*
X00154Y-01063*
X00154Y-01063*
X00153Y-01063*
X00153Y-01064*
X00153Y-01064*
X00153Y-01064*
X00153Y-01064*
X00153Y-01065*
X00153Y-01065*
X00153Y-01065*
X00152Y-01065*
X00152Y-01066*
X00152Y-01066*
X00152Y-01066*
X00152Y-01066*
X00153Y-01067*
X00153Y-01067*
X00153Y-01067*
X00153Y-01068*
X00153Y-01068*
X00153Y-01068*
X00153Y-01068*
X00153Y-01068*
X00154Y-01069*
X00154Y-01069*
X00154Y-01069*
X00154Y-01069*
X00154Y-01069*
X00155Y-01069*
X00155Y-0107*
X00155Y-0107*
X00155Y-0107*
X00156Y-0107*
X00156Y-0107*
X00156Y-0107*
X00157*
X00157Y-0107*
X00157Y-0107*
X00157Y-0107*
X00158Y-0107*
X00158Y-0107*
X00158Y-01069*
X00158Y-01069*
X00159Y-01069*
X00159Y-01069*
X00159Y-01069*
X00159Y-01069*
X00159Y-01068*
X0016Y-01068*
X0016Y-01068*
X0016Y-01068*
X0016Y-01068*
X0016Y-01067*
X0016Y-01067*
X0016Y-01067*
X0016Y-01066*
X0016Y-01066*
X0016Y-01066*
X-00296Y-00277D02*
D01*
X-00296Y-00277*
X-00296Y-00277*
X-00296Y-00276*
X-00296Y-00276*
X-00296Y-00276*
X-00296Y-00276*
X-00296Y-00275*
X-00296Y-00275*
X-00296Y-00275*
X-00296Y-00275*
X-00297Y-00274*
X-00297Y-00274*
X-00297Y-00274*
X-00297Y-00274*
X-00298Y-00274*
X-00298Y-00274*
X-00298Y-00273*
X-00298Y-00273*
X-00299Y-00273*
X-00299Y-00273*
X-00299Y-00273*
X-00299Y-00273*
X-003*
X-003Y-00273*
X-003Y-00273*
X-003Y-00273*
X-00301Y-00273*
X-00301Y-00273*
X-00301Y-00274*
X-00301Y-00274*
X-00302Y-00274*
X-00302Y-00274*
X-00302Y-00274*
X-00302Y-00274*
X-00303Y-00275*
X-00303Y-00275*
X-00303Y-00275*
X-00303Y-00275*
X-00303Y-00276*
X-00303Y-00276*
X-00303Y-00276*
X-00303Y-00276*
X-00303Y-00277*
X-00303Y-00277*
X-00303Y-00277*
X-00303Y-00277*
X-00303Y-00278*
X-00303Y-00278*
X-00303Y-00278*
X-00303Y-00278*
X-00303Y-00279*
X-00303Y-00279*
X-00303Y-00279*
X-00303Y-00279*
X-00303Y-0028*
X-00302Y-0028*
X-00302Y-0028*
X-00302Y-0028*
X-00302Y-0028*
X-00301Y-00281*
X-00301Y-00281*
X-00301Y-00281*
X-00301Y-00281*
X-003Y-00281*
X-003Y-00281*
X-003Y-00281*
X-003Y-00281*
X-00299*
X-00299Y-00281*
X-00299Y-00281*
X-00299Y-00281*
X-00298Y-00281*
X-00298Y-00281*
X-00298Y-00281*
X-00298Y-00281*
X-00297Y-0028*
X-00297Y-0028*
X-00297Y-0028*
X-00297Y-0028*
X-00296Y-0028*
X-00296Y-00279*
X-00296Y-00279*
X-00296Y-00279*
X-00296Y-00279*
X-00296Y-00278*
X-00296Y-00278*
X-00296Y-00278*
X-00296Y-00278*
X-00296Y-00277*
X-00296Y-00277*
X-00971Y-00667D02*
D01*
X-00971Y-00667*
X-00971Y-00666*
X-00971Y-00666*
X-00971Y-00666*
X-00971Y-00666*
X-00971Y-00665*
X-00972Y-00665*
X-00972Y-00665*
X-00972Y-00665*
X-00972Y-00664*
X-00972Y-00664*
X-00972Y-00664*
X-00973Y-00664*
X-00973Y-00664*
X-00973Y-00663*
X-00973Y-00663*
X-00974Y-00663*
X-00974Y-00663*
X-00974Y-00663*
X-00974Y-00663*
X-00975Y-00663*
X-00975Y-00663*
X-00975*
X-00976Y-00663*
X-00976Y-00663*
X-00976Y-00663*
X-00976Y-00663*
X-00977Y-00663*
X-00977Y-00663*
X-00977Y-00663*
X-00977Y-00664*
X-00978Y-00664*
X-00978Y-00664*
X-00978Y-00664*
X-00978Y-00664*
X-00978Y-00665*
X-00978Y-00665*
X-00979Y-00665*
X-00979Y-00665*
X-00979Y-00666*
X-00979Y-00666*
X-00979Y-00666*
X-00979Y-00666*
X-00979Y-00667*
X-00979Y-00667*
X-00979Y-00667*
X-00979Y-00667*
X-00979Y-00668*
X-00979Y-00668*
X-00979Y-00668*
X-00979Y-00668*
X-00979Y-00669*
X-00978Y-00669*
X-00978Y-00669*
X-00978Y-00669*
X-00978Y-0067*
X-00978Y-0067*
X-00978Y-0067*
X-00977Y-0067*
X-00977Y-0067*
X-00977Y-0067*
X-00977Y-00671*
X-00976Y-00671*
X-00976Y-00671*
X-00976Y-00671*
X-00976Y-00671*
X-00975Y-00671*
X-00975*
X-00975Y-00671*
X-00974Y-00671*
X-00974Y-00671*
X-00974Y-00671*
X-00974Y-00671*
X-00973Y-0067*
X-00973Y-0067*
X-00973Y-0067*
X-00973Y-0067*
X-00972Y-0067*
X-00972Y-0067*
X-00972Y-00669*
X-00972Y-00669*
X-00972Y-00669*
X-00972Y-00669*
X-00971Y-00668*
X-00971Y-00668*
X-00971Y-00668*
X-00971Y-00668*
X-00971Y-00667*
X-00971Y-00667*
X-00971Y-00667*
X-00375Y00306D02*
D01*
X-00375Y00307*
X-00375Y00307*
X-00375Y00307*
X-00375Y00308*
X-00375Y00308*
X-00375Y00308*
X-00375Y00308*
X-00376Y00309*
X-00376Y00309*
X-00376Y00309*
X-00376Y00309*
X-00376Y00309*
X-00376Y0031*
X-00377Y0031*
X-00377Y0031*
X-00377Y0031*
X-00377Y0031*
X-00378Y0031*
X-00378Y0031*
X-00378Y0031*
X-00378Y0031*
X-00379Y0031*
X-00379*
X-00379Y0031*
X-0038Y0031*
X-0038Y0031*
X-0038Y0031*
X-0038Y0031*
X-00381Y0031*
X-00381Y0031*
X-00381Y0031*
X-00381Y0031*
X-00382Y00309*
X-00382Y00309*
X-00382Y00309*
X-00382Y00309*
X-00382Y00309*
X-00382Y00308*
X-00382Y00308*
X-00383Y00308*
X-00383Y00308*
X-00383Y00307*
X-00383Y00307*
X-00383Y00307*
X-00383Y00306*
X-00383Y00306*
X-00383Y00306*
X-00383Y00306*
X-00383Y00305*
X-00383Y00305*
X-00382Y00305*
X-00382Y00305*
X-00382Y00304*
X-00382Y00304*
X-00382Y00304*
X-00382Y00304*
X-00382Y00304*
X-00381Y00303*
X-00381Y00303*
X-00381Y00303*
X-00381Y00303*
X-0038Y00303*
X-0038Y00303*
X-0038Y00303*
X-0038Y00303*
X-00379Y00303*
X-00379Y00302*
X-00379*
X-00378Y00303*
X-00378Y00303*
X-00378Y00303*
X-00378Y00303*
X-00377Y00303*
X-00377Y00303*
X-00377Y00303*
X-00377Y00303*
X-00376Y00303*
X-00376Y00304*
X-00376Y00304*
X-00376Y00304*
X-00376Y00304*
X-00376Y00304*
X-00375Y00305*
X-00375Y00305*
X-00375Y00305*
X-00375Y00305*
X-00375Y00306*
X-00375Y00306*
X-00375Y00306*
X-00375Y00306*
X00185Y00307D02*
D01*
X00185Y00307*
X00185Y00307*
X00185Y00307*
X00185Y00308*
X00185Y00308*
X00185Y00308*
X00185Y00308*
X00184Y00309*
X00184Y00309*
X00184Y00309*
X00184Y00309*
X00184Y00309*
X00183Y0031*
X00183Y0031*
X00183Y0031*
X00183Y0031*
X00183Y0031*
X00182Y0031*
X00182Y0031*
X00182Y0031*
X00181Y0031*
X00181Y0031*
X00181*
X00181Y0031*
X0018Y0031*
X0018Y0031*
X0018Y0031*
X0018Y0031*
X00179Y0031*
X00179Y0031*
X00179Y0031*
X00179Y0031*
X00178Y00309*
X00178Y00309*
X00178Y00309*
X00178Y00309*
X00178Y00309*
X00178Y00308*
X00177Y00308*
X00177Y00308*
X00177Y00308*
X00177Y00307*
X00177Y00307*
X00177Y00307*
X00177Y00307*
X00177Y00306*
X00177Y00306*
X00177Y00306*
X00177Y00305*
X00177Y00305*
X00177Y00305*
X00178Y00305*
X00178Y00304*
X00178Y00304*
X00178Y00304*
X00178Y00304*
X00178Y00304*
X00179Y00303*
X00179Y00303*
X00179Y00303*
X00179Y00303*
X0018Y00303*
X0018Y00303*
X0018Y00303*
X0018Y00303*
X00181Y00303*
X00181Y00303*
X00181*
X00181Y00303*
X00182Y00303*
X00182Y00303*
X00182Y00303*
X00183Y00303*
X00183Y00303*
X00183Y00303*
X00183Y00303*
X00183Y00303*
X00184Y00304*
X00184Y00304*
X00184Y00304*
X00184Y00304*
X00184Y00304*
X00185Y00305*
X00185Y00305*
X00185Y00305*
X00185Y00305*
X00185Y00306*
X00185Y00306*
X00185Y00306*
X00185Y00307*
X00784Y-0093D02*
X00985D01*
X00784Y-01115D02*
Y-00887D01*
X00985*
Y-01115D02*
Y-00887D01*
X00784Y-01115D02*
X00985D01*
X00611Y-00836D02*
X00642D01*
X00611Y-01073D02*
X00642D01*
X00717D02*
X00748D01*
X00717Y-00836D02*
X00748D01*
X00611Y-01073D02*
Y-00836D01*
X00748Y-01073D02*
Y-00836D01*
X00446D02*
X00477D01*
X00446Y-01073D02*
X00477D01*
X00552D02*
X00583D01*
X00552Y-00836D02*
X00583D01*
X00446Y-01073D02*
Y-00836D01*
X00583Y-01073D02*
Y-00836D01*
G54D11*
X-00217Y-00572D02*
D01*
X-00217Y-00571*
X-00217Y-00571*
X-00217Y-00571*
X-00217Y-00571*
X-00217Y-00571*
X-00217Y-0057*
X-00217Y-0057*
X-00217Y-0057*
X-00217Y-0057*
X-00218Y-0057*
X-00218Y-0057*
X-00218Y-00569*
X-00218Y-00569*
X-00218Y-00569*
X-00218Y-00569*
X-00218Y-00569*
X-00219Y-00569*
X-00219Y-00569*
X-00219Y-00569*
X-00219Y-00569*
X-00219Y-00569*
X-0022Y-00569*
X-0022*
X-0022Y-00569*
X-0022Y-00569*
X-0022Y-00569*
X-0022Y-00569*
X-00221Y-00569*
X-00221Y-00569*
X-00221Y-00569*
X-00221Y-00569*
X-00221Y-00569*
X-00221Y-00569*
X-00222Y-0057*
X-00222Y-0057*
X-00222Y-0057*
X-00222Y-0057*
X-00222Y-0057*
X-00222Y-0057*
X-00222Y-00571*
X-00222Y-00571*
X-00222Y-00571*
X-00222Y-00571*
X-00222Y-00571*
X-00222Y-00572*
X-00222Y-00572*
X-00222Y-00572*
X-00222Y-00572*
X-00222Y-00572*
X-00222Y-00572*
X-00222Y-00573*
X-00222Y-00573*
X-00222Y-00573*
X-00222Y-00573*
X-00222Y-00573*
X-00222Y-00573*
X-00221Y-00574*
X-00221Y-00574*
X-00221Y-00574*
X-00221Y-00574*
X-00221Y-00574*
X-00221Y-00574*
X-0022Y-00574*
X-0022Y-00574*
X-0022Y-00574*
X-0022Y-00574*
X-0022Y-00574*
X-0022*
X-00219Y-00574*
X-00219Y-00574*
X-00219Y-00574*
X-00219Y-00574*
X-00219Y-00574*
X-00218Y-00574*
X-00218Y-00574*
X-00218Y-00574*
X-00218Y-00574*
X-00218Y-00574*
X-00218Y-00573*
X-00218Y-00573*
X-00217Y-00573*
X-00217Y-00573*
X-00217Y-00573*
X-00217Y-00573*
X-00217Y-00572*
X-00217Y-00572*
X-00217Y-00572*
X-00217Y-00572*
X-00217Y-00572*
X-00217Y-00572*
G54D12*
X00309Y00242D02*
Y00248D01*
X00306Y00236D02*
Y00251D01*
X00303Y0023D02*
Y00254D01*
X003Y00245D02*
Y00257D01*
Y00227D02*
Y00242D01*
X00297Y00245D02*
Y00257D01*
Y00221D02*
Y00236D01*
X00294Y00242D02*
Y00257D01*
Y00218D02*
Y00233D01*
X00291Y00242D02*
Y00254D01*
Y00215D02*
Y00227D01*
X00288Y00239D02*
Y00254D01*
Y00212D02*
Y00224D01*
X00285Y00239D02*
Y00251D01*
Y00209D02*
Y00221D01*
X00282Y00239D02*
Y00251D01*
Y00206D02*
Y00218D01*
X00279Y00236D02*
Y00248D01*
Y002D02*
Y00215D01*
X00276Y00233D02*
Y00245D01*
Y00197D02*
Y00209D01*
X00273Y0023D02*
Y00242D01*
Y00194D02*
Y00206D01*
X0027Y00224D02*
Y00239D01*
Y00191D02*
Y00203D01*
X00267Y00218D02*
Y00236D01*
Y00188D02*
Y002D01*
X00264Y00212D02*
Y0023D01*
Y00185D02*
Y00197D01*
X00261Y00215D02*
Y00221D01*
Y00182D02*
Y00194D01*
X00258Y00179D02*
Y00191D01*
X00255Y00176D02*
Y00188D01*
X00252Y00173D02*
Y00185D01*
X00249Y0017D02*
Y00182D01*
X00246Y00167D02*
Y00179D01*
X00243Y00164D02*
Y00176D01*
X0024Y00161D02*
Y00173D01*
X00237Y00158D02*
Y0017D01*
X00234Y00155D02*
Y00167D01*
X00231Y00152D02*
Y00164D01*
X00228Y00149D02*
Y00161D01*
X00225Y00146D02*
Y00161D01*
X00222Y00146D02*
Y00158D01*
X00219Y00143D02*
Y00155D01*
X00216Y0014D02*
Y00149D01*
X00213Y00137D02*
Y00149D01*
X0021Y00134D02*
Y00146D01*
X00207Y00131D02*
Y00143D01*
X00204Y00128D02*
Y0014D01*
X00201Y00125D02*
Y00137D01*
X00198Y00122D02*
Y00134D01*
X00195Y00119D02*
Y00131D01*
X00192Y00116D02*
Y00128D01*
X00189Y00113D02*
Y00125D01*
X00186Y0011D02*
Y00122D01*
X00183Y00107D02*
Y00119D01*
X0018Y00107D02*
Y00116D01*
X00177Y00104D02*
Y00113D01*
X00174Y00101D02*
Y00113D01*
X00171Y00098D02*
Y0011D01*
X00168Y00095D02*
Y00107D01*
X00165Y00092D02*
Y00104D01*
X00162Y00089D02*
Y00101D01*
X00159Y00086D02*
Y00098D01*
X00156Y00083D02*
Y00095D01*
X00153Y0008D02*
Y00092D01*
X0015Y00077D02*
Y00089D01*
X00147Y00074D02*
Y00086D01*
X00144Y00071D02*
Y00083D01*
X00141Y00068D02*
Y0008D01*
X00138Y00065D02*
Y00077D01*
X00135Y00062D02*
Y00074D01*
X00132Y00059D02*
Y00071D01*
X00129Y00104D02*
Y00134D01*
Y00056D02*
Y00068D01*
X00126Y00104D02*
Y00143D01*
Y00053D02*
Y00065D01*
X00123Y00131D02*
Y00149D01*
Y00101D02*
Y00125D01*
Y0005D02*
Y00065D01*
X0012Y0014D02*
Y00152D01*
Y00101D02*
Y00116D01*
Y00047D02*
Y00059D01*
X00117Y00146D02*
Y00152D01*
Y00104D02*
Y00119D01*
Y00047D02*
Y00056D01*
X00114Y00146D02*
Y00155D01*
Y00107D02*
Y00125D01*
Y00044D02*
Y00053D01*
X00111Y00143D02*
Y00155D01*
Y0011D02*
Y00128D01*
Y00041D02*
Y00053D01*
X00108Y00137D02*
Y00152D01*
Y00116D02*
Y00134D01*
Y00038D02*
Y0005D01*
X00105Y00119D02*
Y00152D01*
Y00035D02*
Y00047D01*
X00102Y00125D02*
Y00149D01*
Y00032D02*
Y00044D01*
X00099Y0011D02*
Y00149D01*
Y00029D02*
Y00041D01*
X00096Y00095D02*
Y00146D01*
Y00026D02*
Y00038D01*
X00093Y00083D02*
Y00149D01*
Y00023D02*
Y00035D01*
X0009Y00137D02*
Y00152D01*
Y00071D02*
Y00113D01*
Y0002D02*
Y00032D01*
X00087Y00143D02*
Y00155D01*
Y00122D02*
Y00137D01*
Y00062D02*
Y00089D01*
Y00017D02*
Y00029D01*
X00084Y0011D02*
Y00158D01*
Y00056D02*
Y00077D01*
Y00014D02*
Y00026D01*
X00081Y00134D02*
Y00161D01*
Y00101D02*
Y00125D01*
Y0005D02*
Y00068D01*
Y00011D02*
Y00023D01*
X00078Y00143D02*
Y00167D01*
Y00098D02*
Y00116D01*
Y00041D02*
Y00062D01*
Y00008D02*
Y0002D01*
X00075Y00152D02*
Y00173D01*
Y00095D02*
Y00107D01*
Y00038D02*
Y00053D01*
Y00005D02*
Y00017D01*
X00072Y00158D02*
Y00179D01*
Y00095D02*
Y00113D01*
Y00032D02*
Y00044D01*
Y00002D02*
Y00014D01*
X00069Y00164D02*
Y00182D01*
Y00089D02*
Y00116D01*
Y00026D02*
Y00041D01*
Y-00001D02*
Y00011D01*
X00066Y0017D02*
Y00188D01*
Y0008D02*
Y00116D01*
Y00023D02*
Y00032D01*
Y-00004D02*
Y00008D01*
X00063Y00176D02*
Y00188D01*
Y00101D02*
Y00116D01*
Y00074D02*
Y00095D01*
Y-00007D02*
Y00005D01*
X0006Y00179D02*
Y00185D01*
Y00104D02*
Y00113D01*
Y00071D02*
Y00101D01*
Y-0001D02*
Y00005D01*
X00057Y00089D02*
Y00104D01*
Y00068D02*
Y00083D01*
Y-00013D02*
Y-00001D01*
X00054Y00092D02*
Y00107D01*
Y00068D02*
Y00077D01*
Y-00016D02*
Y-00001D01*
X00051Y00095D02*
Y0011D01*
Y00068D02*
Y00077D01*
Y-00019D02*
Y-00007D01*
X00048Y00068D02*
Y0011D01*
Y-00022D02*
Y-00007D01*
X00045Y00068D02*
Y0011D01*
Y-00022D02*
Y-00013D01*
X00042Y00065D02*
Y00107D01*
Y-00025D02*
Y-00013D01*
X00039Y00053D02*
Y00071D01*
Y-00031D02*
Y-00016D01*
X00036Y0005D02*
Y00071D01*
Y-00034D02*
Y-00019D01*
X00033Y00044D02*
Y00062D01*
Y-00034D02*
Y-00022D01*
X0003Y00044D02*
Y00056D01*
Y-00037D02*
Y-00025D01*
X00027Y00044D02*
Y00056D01*
Y-0004D02*
Y-00028D01*
X00024Y00032D02*
Y00056D01*
Y-00043D02*
Y-00031D01*
X00021Y00029D02*
Y00059D01*
Y-00046D02*
Y-00031D01*
X00018Y00029D02*
Y00041D01*
Y-00049D02*
Y-00037D01*
X00015Y00029D02*
Y0005D01*
Y-00052D02*
Y-0004D01*
X00012Y00032D02*
Y0005D01*
Y00017D02*
Y00023D01*
Y-00055D02*
Y-00043D01*
X00009Y00035D02*
Y0005D01*
Y00011D02*
Y00023D01*
Y-00058D02*
Y-00043D01*
X00006Y00041D02*
Y0005D01*
Y00008D02*
Y0002D01*
Y-00061D02*
Y-00049D01*
X00003Y00008D02*
Y00017D01*
Y-00064D02*
Y-00049D01*
X0Y00008D02*
Y0002D01*
Y-00067D02*
Y-00052D01*
X-00003Y00053D02*
Y00065D01*
Y00008D02*
Y00026D01*
Y-0007D02*
Y-00055D01*
X-00006Y-00001D02*
Y00068D01*
Y-00073D02*
Y-00058D01*
X-00009Y-00004D02*
Y00065D01*
Y-00076D02*
Y-00061D01*
X-00012Y-00001D02*
Y00047D01*
Y-00079D02*
Y-00064D01*
X-00015Y00005D02*
Y00026D01*
Y-00082D02*
Y-00067D01*
X-00018Y00014D02*
Y00032D01*
Y-00085D02*
Y-0007D01*
X-00021Y0002D02*
Y00035D01*
Y-00088D02*
Y-00073D01*
X-00024Y00023D02*
Y00035D01*
Y-00013D02*
Y-00001D01*
Y-00091D02*
Y-00076D01*
X-00027Y-00013D02*
Y00005D01*
Y-00094D02*
Y-00079D01*
X-0003Y-0001D02*
Y00008D01*
Y-00031D02*
Y-00025D01*
Y-00097D02*
Y-00082D01*
X-00033Y-00004D02*
Y00008D01*
Y-00031D02*
Y-00019D01*
Y-001D02*
Y-00085D01*
X-00036Y-00028D02*
Y-00013D01*
Y-00103D02*
Y-00088D01*
X-00039Y00032D02*
Y00038D01*
Y-00028D02*
Y-00004D01*
Y-00106D02*
Y-00091D01*
X-00042Y00032D02*
Y00038D01*
Y-0004D02*
Y-00001D01*
Y-00109D02*
Y-00097D01*
Y-00124D02*
Y-00118D01*
X-00045Y00032D02*
Y00041D01*
Y-00016D02*
Y00002D01*
Y-00046D02*
Y-00028D01*
Y-00112D02*
Y-00097D01*
Y-00127D02*
Y-00118D01*
X-00048Y00032D02*
Y00041D01*
Y-0001D02*
Y00002D01*
Y-00046D02*
Y-00034D01*
Y-00115D02*
Y-00103D01*
Y-0013D02*
Y-00121D01*
X-00051Y00032D02*
Y00038D01*
Y-00004D02*
Y-00001D01*
Y-00049D02*
Y-0004D01*
Y-00118D02*
Y-00103D01*
Y-0013D02*
Y-00121D01*
X-00054Y-00049D02*
Y-0004D01*
Y-00133D02*
Y-00109D01*
X-00057Y-00058D02*
Y-00016D01*
Y-00136D02*
Y-00109D01*
X-0006Y-00058D02*
Y-00013D01*
Y-00145D02*
Y-00097D01*
X-00063Y-0004D02*
Y-00013D01*
Y-00055D02*
Y-00043D01*
Y-00166D02*
Y-00079D01*
X-00066Y-00052D02*
Y-00043D01*
Y-00169D02*
Y-0007D01*
X-00069Y-00052D02*
Y-00043D01*
Y-00094D02*
Y-00058D01*
Y-00139D02*
Y-00127D01*
Y-00172D02*
Y-00154D01*
X-00072Y-00079D02*
Y-00046D01*
Y-00175D02*
Y-00166D01*
X-00075Y-0007D02*
Y-00046D01*
Y-00172D02*
Y-00163D01*
X-00078Y-00061D02*
Y-00037D01*
Y-00172D02*
Y-0016D01*
X-00081Y-00064D02*
Y-00028D01*
Y-00172D02*
Y-0016D01*
X-00084Y-00067D02*
Y-00019D01*
Y-00172D02*
Y-00157D01*
X-00087Y-0007D02*
Y-00016D01*
Y-00166D02*
Y-00154D01*
X-0009Y-00034D02*
Y-00019D01*
Y-00076D02*
Y-00046D01*
Y-0016D02*
Y-00148D01*
X-00093Y-00058D02*
Y-00049D01*
Y-00082D02*
Y-00061D01*
Y-0016D02*
Y-00142D01*
X-00096Y-00028D02*
Y-00022D01*
Y-00058D02*
Y-00046D01*
Y-00088D02*
Y-00067D01*
Y-00154D02*
Y-00136D01*
X-00099Y-00028D02*
Y-00022D01*
Y-00058D02*
Y-00043D01*
Y-00148D02*
Y-00073D01*
X-00102Y-00028D02*
Y-00019D01*
Y-00052D02*
Y-0004D01*
Y-00139D02*
Y-00079D01*
X-00105Y-00052D02*
Y-00019D01*
Y-00127D02*
Y-00082D01*
X-00108Y-00046D02*
Y-00019D01*
Y-001D02*
Y-00073D01*
X-00111Y-00043D02*
Y-00019D01*
Y-00094D02*
Y-00055D01*
Y-00106D02*
Y-001D01*
X-00114Y-00037D02*
Y-00019D01*
Y-00088D02*
Y-00043D01*
Y-00109D02*
Y-001D01*
X-00117Y-00025D02*
Y-00022D01*
Y-00082D02*
Y-00034D01*
Y-00112D02*
Y-00103D01*
X-0012Y-00055D02*
Y-00028D01*
Y-00076D02*
Y-00061D01*
Y-00115D02*
Y-00106D01*
X-00123Y-00046D02*
Y-00019D01*
Y-00073D02*
Y-00058D01*
Y-00118D02*
Y-00109D01*
X-00126Y-00037D02*
Y-00013D01*
Y-00067D02*
Y-00055D01*
Y-00121D02*
Y-00112D01*
X-00129Y-00031D02*
Y-00007D01*
Y-00064D02*
Y-00052D01*
Y-00124D02*
Y-00112D01*
X-00132Y-00025D02*
Y-00001D01*
Y-00061D02*
Y-00049D01*
Y-00124D02*
Y-00115D01*
X-00135Y-00016D02*
Y00002D01*
Y-00058D02*
Y-00046D01*
Y-00076D02*
Y-00064D01*
Y-00127D02*
Y-00118D01*
X-00138Y-00013D02*
Y00008D01*
Y-00109D02*
Y-00025D01*
Y-0013D02*
Y-00121D01*
X-00141Y-00004D02*
Y00014D01*
Y-0013D02*
Y-0001D01*
X-00144Y-00052D02*
Y0002D01*
Y-00139D02*
Y-00091D01*
X-00147Y-00019D02*
Y00026D01*
Y-00049D02*
Y-00037D01*
Y-00148D02*
Y-00115D01*
X-0015Y-00004D02*
Y00035D01*
Y-00046D02*
Y-00037D01*
Y-00163D02*
Y-00127D01*
X-00153Y00011D02*
Y00041D01*
Y-00046D02*
Y-00034D01*
Y-00136D02*
Y-00127D01*
Y-00172D02*
Y-00139D01*
X-00156Y00023D02*
Y00047D01*
Y-00043D02*
Y-00034D01*
Y-00136D02*
Y-00127D01*
Y-00181D02*
Y-00151D01*
X-00159Y00032D02*
Y0005D01*
Y-00043D02*
Y-00034D01*
Y-00136D02*
Y-00127D01*
Y-00187D02*
Y-0016D01*
X-00162Y00035D02*
Y0005D01*
Y-00046D02*
Y-00034D01*
Y-00136D02*
Y-00127D01*
Y-00193D02*
Y-00172D01*
X-00165Y00041D02*
Y0005D01*
Y-00049D02*
Y-00037D01*
Y-00136D02*
Y-00127D01*
Y-00196D02*
Y-00178D01*
X-00168Y-00052D02*
Y-00037D01*
Y-00136D02*
Y-00124D01*
Y-00199D02*
Y-00187D01*
X-00171Y-00055D02*
Y-00037D01*
Y-00133D02*
Y-00121D01*
Y-00202D02*
Y-0019D01*
X-00174Y-00058D02*
Y-0004D01*
Y-00133D02*
Y-00118D01*
Y-00205D02*
Y-00193D01*
X-00177Y-00061D02*
Y-00043D01*
Y-0013D02*
Y-00115D01*
Y-00205D02*
Y-00196D01*
X-0018Y-00073D02*
Y-00046D01*
Y-00127D02*
Y-00109D01*
Y-00205D02*
Y-00196D01*
X-00183Y-00124D02*
Y-00052D01*
Y-00205D02*
Y-00196D01*
X-00186Y-00118D02*
Y-00061D01*
Y-00205D02*
Y-00196D01*
X-00189Y-00106D02*
Y-00073D01*
Y-00205D02*
Y-00196D01*
X-00192Y-00202D02*
Y-00193D01*
X-00195Y-00202D02*
Y-0019D01*
X-00198Y-00199D02*
Y-00187D01*
X-00201Y-00199D02*
Y-00184D01*
X-00204Y-00193D02*
Y-00181D01*
X-00207Y-0019D02*
Y-00175D01*
X-0021Y-00184D02*
Y-00169D01*
X-00213Y-00151D02*
Y-00145D01*
Y-00178D02*
Y-00166D01*
X-00216Y-00175D02*
Y-00145D01*
X-00219Y-00169D02*
Y-00151D01*
X-00222Y-00163D02*
Y-00151D01*
G54D13*
X00842Y-00861D02*
X00881D01*
X00842Y-00581D02*
Y-00546D01*
Y-00861D02*
Y-00826D01*
Y-00546D02*
X00881D01*
X00956Y-00817D02*
Y-0059D01*
X00752Y-00657D02*
Y-00618D01*
X00437Y-00657D02*
X00472D01*
X00717D02*
X00752D01*
X00437D02*
Y-00618D01*
X00481Y-00542D02*
X00708D01*
X-00048Y-01075D02*
X00043D01*
X-00048Y-00734D02*
X00043D01*
X0035Y-011D02*
X004D01*
X-004D02*
X-0035D01*
X0035Y-003D02*
X004D01*
X-004D02*
X-0035D01*
X-00255D02*
X00255D01*
X-00255Y-011D02*
X00255D01*
X004D02*
Y-003D01*
X-004Y-011D02*
Y-003D01*
X-00499Y-0065D02*
Y-00614D01*
Y-01015D02*
Y-00979D01*
X-009Y-0065D02*
Y-00614D01*
Y-01015D02*
Y-00979D01*
X-00535Y-00614D02*
X-00499D01*
X-00535Y-01015D02*
X-00499D01*
X-009Y-00614D02*
X-00864D01*
X-009Y-01015D02*
X-00864D01*
X-00394Y00491D02*
X-00167D01*
X-00438Y00377D02*
Y00416D01*
X-00158Y00377D02*
X-00123D01*
X-00438D02*
X-00403D01*
X-00123D02*
Y00416D01*
X00166Y00492D02*
X00393D01*
X00122Y00377D02*
Y00416D01*
X00402Y00377D02*
X00437D01*
X00122D02*
X00157D01*
X00437D02*
Y00416D01*
G54D14*
X00451Y-00745D02*
X00475D01*
X00524D02*
X00548D01*
X00451Y-00794D02*
X00475D01*
X00524D02*
X00548D01*
Y-00745*
X00451Y-00794D02*
Y-00745D01*
X00498Y-00757D02*
X00501D01*
X00498Y-00782D02*
X00501D01*
X00616Y-0075D02*
X0064D01*
X00689D02*
X00713D01*
X00616Y-00799D02*
X0064D01*
X00689D02*
X00713D01*
Y-0075*
X00616Y-00799D02*
Y-0075D01*
X00663Y-00762D02*
X00666D01*
X00663Y-00787D02*
X00666D01*
X-00068Y-00633D02*
Y-00626D01*
X-00041Y-00633D02*
Y-00626D01*
X-0008Y-00679D02*
X-00029D01*
X-0008Y-0058D02*
X-00029D01*
X-0008Y-00679D02*
Y-00654D01*
Y-00605D02*
Y-0058D01*
X-00029Y-00679D02*
Y-00654D01*
Y-00605D02*
Y-0058D01*
X-00008Y-00633D02*
Y-00626D01*
X00018Y-00633D02*
Y-00626D01*
X-0002Y-00679D02*
X0003D01*
X-0002Y-0058D02*
X0003D01*
X-0002Y-00679D02*
Y-00654D01*
Y-00605D02*
Y-0058D01*
X0003Y-00679D02*
Y-00654D01*
Y-00605D02*
Y-0058D01*
X00051Y-00632D02*
Y-00624D01*
X00078Y-00632D02*
Y-00624D01*
X00039Y-00677D02*
X0009D01*
X00039Y-00579D02*
X0009D01*
X00039Y-00677D02*
Y-00653D01*
Y-00603D02*
Y-00579D01*
X0009Y-00677D02*
Y-00653D01*
Y-00603D02*
Y-00579D01*
X00154Y-00605D02*
Y-00581D01*
Y-00678D02*
Y-00654D01*
X00105Y-00605D02*
Y-00581D01*
Y-00678D02*
Y-00654D01*
Y-00678D02*
X00154D01*
X00105Y-00581D02*
X00154D01*
X00142Y-00631D02*
Y-00628D01*
X00117Y-00631D02*
Y-00628D01*
X-00038Y-00508D02*
Y-00501D01*
X-00011Y-00508D02*
Y-00501D01*
X-0005Y-00554D02*
X0D01*
X-0005Y-00455D02*
X0D01*
X-0005Y-00554D02*
Y-00529D01*
Y-0048D02*
Y-00455D01*
X0Y-00554D02*
Y-00529D01*
Y-0048D02*
Y-00455D01*
X00022Y-00506D02*
Y-00503D01*
X00047Y-00506D02*
Y-00503D01*
X0001Y-00456D02*
X00059D01*
X0001Y-00553D02*
X00059D01*
X0001D02*
Y-00529D01*
Y-0048D02*
Y-00456D01*
X00059Y-00553D02*
Y-00529D01*
Y-0048D02*
Y-00456D01*
X-00098Y-00508D02*
Y-00501D01*
X-00071Y-00508D02*
Y-00501D01*
X-0011Y-00554D02*
X-00059D01*
X-0011Y-00455D02*
X-00059D01*
X-0011Y-00554D02*
Y-00529D01*
Y-0048D02*
Y-00455D01*
X-00059Y-00554D02*
Y-00529D01*
Y-0048D02*
Y-00455D01*
X-00158Y-00508D02*
Y-00501D01*
X-00131Y-00508D02*
Y-00501D01*
X-0017Y-00554D02*
X-00119D01*
X-0017Y-00455D02*
X-00119D01*
X-0017Y-00554D02*
Y-00529D01*
Y-0048D02*
Y-00455D01*
X-00119Y-00554D02*
Y-00529D01*
Y-0048D02*
Y-00455D01*
X-00218Y-00508D02*
Y-00501D01*
X-00191Y-00508D02*
Y-00501D01*
X-0023Y-00554D02*
X-00179D01*
X-0023Y-00455D02*
X-00179D01*
X-0023Y-00554D02*
Y-00529D01*
Y-0048D02*
Y-00455D01*
X-00179Y-00554D02*
Y-00529D01*
Y-0048D02*
Y-00455D01*
X00551Y00883D02*
X00558D01*
X00551Y00856D02*
X00558D01*
X00505Y00844D02*
Y00895D01*
X00604Y00844D02*
Y00895D01*
X00505D02*
X0053D01*
X00579D02*
X00604D01*
X00505Y00844D02*
X0053D01*
X00579D02*
X00604D01*
X00551Y00943D02*
X00558D01*
X00551Y00916D02*
X00558D01*
X00505Y00904D02*
Y00955D01*
X00604Y00904D02*
Y00955D01*
X00505D02*
X0053D01*
X00579D02*
X00604D01*
X00505Y00904D02*
X0053D01*
X00579D02*
X00604D01*
X-00506Y00886D02*
Y00893D01*
X-00533Y00886D02*
Y00893D01*
X-00545Y00939D02*
X-00494D01*
X-00545Y0084D02*
X-00494D01*
Y00914D02*
Y00939D01*
Y0084D02*
Y00865D01*
X-00545Y00914D02*
Y00939D01*
Y0084D02*
Y00865D01*
X-00566Y00886D02*
Y00893D01*
X-00593Y00886D02*
Y00893D01*
X-00605Y00939D02*
X-00554D01*
X-00605Y0084D02*
X-00554D01*
Y00914D02*
Y00939D01*
Y0084D02*
Y00865D01*
X-00605Y00914D02*
Y00939D01*
Y0084D02*
Y00865D01*
X-00904Y00604D02*
Y00629D01*
Y0053D02*
Y00555D01*
X-00955Y00604D02*
Y00629D01*
Y0053D02*
Y00555D01*
Y00629D02*
X-00904D01*
X-00955Y0053D02*
X-00904D01*
X-00916Y00576D02*
Y00583D01*
X-00943Y00576D02*
Y00583D01*
X-00844Y00604D02*
Y00629D01*
Y0053D02*
Y00555D01*
X-00895Y00604D02*
Y00629D01*
Y0053D02*
Y00555D01*
Y00629D02*
X-00844D01*
X-00895Y0053D02*
X-00844D01*
X-00856Y00576D02*
Y00583D01*
X-00883Y00576D02*
Y00583D01*
G54D15*
X00871Y00909D02*
X00917Y00856D01*
X00604Y00584D02*
X00917Y00856D01*
X00558Y00636D02*
X00604Y00584D01*
X00558Y00636D02*
X00871Y00909D01*
X00285Y00977D02*
X00355D01*
Y00562D02*
Y00977D01*
X00285Y00562D02*
X00355D01*
X00285D02*
Y00977D01*
X-00359Y00972D02*
X-00289D01*
Y00557D02*
Y00972D01*
X-00359Y00557D02*
X-00289D01*
X-00359D02*
Y00972D01*
X-00922Y00854D02*
X-00876Y00907D01*
X-00563Y00634*
X-00609Y00582D02*
X-00563Y00634D01*
X-00922Y00854D02*
X-00609Y00582D01*
M02*