%FSTAX23Y23*%
%MOIN*%
%SFA1B1*%

%IPPOS*%
%ADD51C,0.040000*%
%ADD52C,0.010000*%
%ADD53C,0.059055*%
%ADD54R,0.059055X0.059055*%
%ADD55C,0.077953*%
%ADD56C,0.019685*%
%ADD57C,0.050000*%
%ADD58C,0.118110*%
%LNhsmm-1*%
%LPD*%
G36*
X00735Y00974D02*
X00739Y00973D01*
X00748Y00973*
X00765Y00972*
X00791Y00967*
X00816Y0096*
X0084Y0095*
X00863Y00937*
X00885Y00922*
X00905Y00905*
X00922Y00885*
X00937Y00863*
X0095Y0084*
X0096Y00816*
X00967Y00791*
X00972Y00765*
X00973Y00748*
X00973Y00739*
X00974Y00735*
X00974Y00734*
Y00525*
X0047*
X00466Y00524*
X00462Y00522*
X0046Y00518*
X00459Y00515*
Y00389*
X00449Y00388*
X00448Y00394*
X00443Y00403*
X00434Y00408*
X00425Y0041*
X00415Y00408*
X00406Y00403*
X00401Y00394*
X004Y00389*
X00396Y00387*
X00392Y00383*
X0039Y00377*
Y00372*
X00392Y00366*
X00396Y00362*
X00392Y00358*
X0039Y00352*
Y00347*
X00392Y00341*
X00394Y00339*
X00391Y00334*
X00389Y00325*
Y0025*
X00094Y-00044*
X-00152*
X-00157Y-00034*
X-00154Y-0003*
X-0003*
X-0002Y-00028*
X-00011Y-00023*
X00153Y00141*
X00158Y0015*
X0016Y0016*
Y00336*
X00163Y00337*
X00167Y00341*
X00169Y00347*
Y00352*
X00167Y00358*
X00163Y00362*
X00167Y00366*
X00169Y00372*
Y00377*
X00167Y00383*
X00163Y00387*
X0016Y00388*
Y0039*
X00158Y00399*
X00153Y00408*
X00144Y00413*
X00135Y00415*
X00125Y00413*
X00116Y00408*
X00111Y00399*
X00109Y0039*
Y0034*
Y0017*
X-0004Y0002*
X-0017*
X-00179Y00018*
X-00188Y00013*
X-00438Y-00236*
X-00443Y-00245*
X-00445Y-00255*
Y-00694*
X-00498Y-00746*
X-00503Y-00755*
X-00505Y-00765*
Y-00935*
X-00503Y-00944*
X-00498Y-00953*
X-00481Y-00969*
X-00485Y-00979*
X-00509*
X-00511Y-00977*
X-00517Y-00975*
X-00522*
X-00528Y-00977*
X-00532Y-00981*
X-00534Y-00987*
Y-00992*
X-00532Y-00998*
X-0053Y-01005*
X-00532Y-01011*
X-00533Y-01011*
X-00535Y-01017*
Y-01023*
X-00534Y-01025*
X-00543Y-01031*
X-00615Y-00959*
X-00615Y-00958*
X-00612Y-00947*
X-00611Y-00947*
X-00607Y-00943*
X-00605Y-00937*
Y-00932*
X-00607Y-00926*
X-00611Y-00922*
X-00617Y-0092*
X-00619*
Y-009*
X-0062Y-00896*
X-00622Y-00892*
X-00675Y-0084*
X-00674Y-00832*
X-00664Y-00829*
X-00614Y-00879*
Y-00882*
X-00612Y-00888*
X-00608Y-00892*
X-00602Y-00894*
X-00597*
X-00591Y-00892*
X-00587Y-00888*
X-00585Y-00882*
Y-00877*
X-00587Y-00871*
X-00591Y-00867*
X-00597Y-00865*
X-006*
X-00649Y-00815*
Y-00707*
X-00642Y-00701*
X-0064Y-00697*
X-00639Y-00693*
Y-00634*
X-0064Y-0063*
X-00642Y-00627*
X-00652Y-00617*
X-00656Y-00615*
X-0066Y-00614*
X-0076*
X-00763Y-00615*
X-00767Y-00617*
X-00792Y-00642*
X-00794Y-00646*
X-00795Y-0065*
Y-00689*
X-00797Y-00691*
X-00799Y-00697*
Y-00702*
X-00797Y-00708*
X-00793Y-00712*
X-00787Y-00714*
X-00782*
X-00776Y-00712*
X-00772Y-00708*
X-00768Y-00703*
X-00762Y-00704*
X-00756*
X-00751Y-00702*
X-0075Y-00701*
X-0074Y-00705*
Y-0085*
X-00739Y-00854*
X-00737Y-00858*
X-00705Y-0089*
X-00711Y-00897*
X-00717Y-00895*
X-00722*
X-00728Y-00897*
X-00732Y-00901*
X-00734Y-00907*
Y-0091*
X-00735Y-00913*
X-00742Y-0092*
X-00742*
X-00747Y-00922*
X-0075Y-0092*
X-00755Y-00915*
X-00755Y-00915*
X-00754Y-00912*
Y-00907*
X-00756Y-00901*
X-0076Y-00897*
X-00766Y-00895*
X-00772*
X-00777Y-00897*
X-00781Y-00901*
X-00784Y-00907*
Y-00912*
X-00781Y-00918*
X-00777Y-00922*
X-00772Y-00924*
X-00766*
X-00761Y-00922*
X-00758Y-00924*
X-00753Y-00929*
X-00753Y-00929*
X-00754Y-00932*
Y-00937*
X-00752Y-00943*
X-00748Y-00947*
X-00742Y-00949*
X-00737*
X-00731Y-00947*
X-00727Y-00943*
X-00725Y-00937*
Y-00934*
X-00724Y-00931*
X-00717Y-00925*
X-00716Y-00925*
X-00709Y-00932*
Y-00932*
X-00706Y-00938*
X-00702Y-00942*
X-00702Y-00942*
Y-00947*
X-00701Y-00951*
X-00699Y-00954*
X-00581Y-01072*
X-00585Y-01081*
X-00639*
X-00641Y-01079*
X-00647Y-01077*
X-00652*
X-00658Y-01079*
X-00662Y-01083*
X-00664Y-01089*
Y-01095*
X-00671Y-01104*
X-00683*
X-0069Y-01095*
Y-01089*
X-00692Y-01083*
X-00696Y-01079*
X-00702Y-01077*
X-00707*
X-00713Y-01079*
X-00717Y-01083*
X-00719Y-01089*
Y-01095*
X-00726Y-01104*
X-00738*
X-00745Y-01095*
Y-01089*
X-00747Y-01083*
X-00751Y-01079*
X-00757Y-01077*
X-00762*
X-00768Y-01079*
X-00772Y-01083*
X-00774Y-01089*
Y-01095*
X-00781Y-01104*
X-00974*
Y-0052*
X-00589*
X-00588Y-00521*
X-00584Y-0053*
X-00584Y-00532*
Y-00537*
X-00582Y-00543*
X-00578Y-00547*
X-00572Y-00549*
X-00567*
X-00561Y-00547*
X-00557Y-00543*
X-00555Y-00537*
Y-00532*
X-00555Y-0053*
X-00551Y-00521*
X-0055Y-0052*
X-0047*
X-00466Y-00519*
X-00462Y-00517*
X-0046Y-00513*
X-00459Y-0051*
Y00154*
X-00449Y00158*
X-00448Y00157*
X-00442Y00155*
X-00437*
X-00434Y00156*
X-0043Y00154*
X-00427Y00143*
X-00429Y00137*
Y00132*
X-00427Y00126*
X-00423Y00122*
X-00417Y0012*
X-00412*
X-00408Y00121*
X-00407Y00121*
X-00406Y00119*
X-00405Y0011*
X-00405Y0011*
X-00407Y00108*
X-00409Y00102*
Y00097*
X-00407Y00091*
X-00403Y00087*
X-00397Y00085*
X-00392*
X-00391Y00084*
X-00387Y00078*
X-00386Y00076*
X-00388Y00071*
Y00065*
X-00386Y0006*
X-00382Y00056*
X-00376Y00053*
X-0037*
X-00365Y00056*
X-00361Y0006*
X-00358Y00065*
Y00069*
X-00234Y00193*
X-00232Y00196*
X-00231Y002*
Y00468*
X-001Y00599*
X0021*
X00213Y006*
X00217Y00602*
X00239Y00624*
X00805*
X00806Y00615*
X00804Y00614*
X00798Y00612*
X00791Y00609*
X00785Y00603*
X00782Y00596*
X0078Y00588*
Y00581*
X00782Y00573*
X00785Y00566*
X00791Y0056*
X00798Y00557*
X00806Y00555*
X00813*
X00821Y00557*
X00828Y0056*
X00834Y00566*
X00837Y00573*
X0084Y00581*
Y00588*
X00837Y00596*
X00834Y00603*
X00828Y00609*
X00821Y00612*
X00815Y00614*
X00813Y00615*
X00814Y00624*
X00866*
X00867Y00623*
X0087Y00616*
X00876Y0061*
X00883Y00607*
X00891Y00605*
X00898*
X00906Y00607*
X00913Y0061*
X00919Y00616*
X00922Y00623*
X00925Y00631*
Y00638*
X00922Y00646*
X00919Y00653*
X00913Y00659*
X00906Y00662*
X00898Y00665*
X00891*
X00883Y00662*
X00876Y00659*
X0087Y00653*
X00867Y00646*
X00866Y00645*
X00235*
X00231Y00644*
X00227Y00642*
X00205Y0062*
X00172*
X00171Y0063*
X00173Y0063*
X00177Y00632*
X00252Y00707*
X00254Y00711*
X00255Y00715*
Y0081*
X00267Y00822*
X00301*
X00302Y00821*
X00305Y00814*
X00311Y00808*
X00318Y00805*
X00326Y00803*
X00333*
X00341Y00805*
X00348Y00808*
X00354Y00814*
X00357Y00821*
X0036Y00829*
Y00836*
X00357Y00844*
X00354Y00851*
X00348Y00857*
X00341Y0086*
X00333Y00863*
X00326*
X00318Y0086*
X00311Y00857*
X00305Y00851*
X00302Y00844*
X00301Y00843*
X00263*
X00259Y00842*
X00255Y0084*
X00237Y00822*
X00235Y00818*
X00234Y00815*
Y00719*
X00165Y0065*
X-0012*
X-00123Y00649*
X-00127Y00647*
X-00267Y00507*
X-00269Y00503*
X-0027Y005*
Y00483*
X-0028Y00479*
X-00409Y00609*
Y00708*
X-00322Y00795*
X-00321Y00795*
X-00313Y00793*
X-00306*
X-00298Y00795*
X-00291Y00798*
X-00285Y00804*
X-00282Y00811*
X-0028Y00819*
Y00826*
X-00282Y00834*
X-00285Y00841*
X-00291Y00847*
X-00298Y0085*
X-00306Y00853*
X-00313*
X-00321Y0085*
X-00328Y00847*
X-00334Y00841*
X-00337Y00834*
X-0034Y00826*
Y00819*
X-00337Y00811*
X-00337Y0081*
X-00427Y0072*
X-00429Y00716*
X-0043Y00713*
Y00605*
X-00429Y00601*
X-00427Y00597*
X-0029Y0046*
Y00448*
X-0029Y00447*
X-003Y00444*
X-00502Y00647*
X-00506Y00649*
X-0051Y0065*
X-00625*
X-00654Y00679*
Y00886*
X-00653Y00887*
X-00646Y0089*
X-0064Y00896*
X-00637Y00903*
X-00635Y00911*
Y00918*
X-00637Y00926*
X-0064Y00933*
X-00646Y00939*
X-00653Y00942*
X-00661Y00945*
X-00668*
X-00676Y00942*
X-00683Y00939*
X-00689Y00933*
X-00692Y00926*
X-00695Y00918*
Y00911*
X-00692Y00903*
X-00689Y00896*
X-00683Y0089*
X-00676Y00887*
X-00675Y00886*
Y00743*
X-00685Y00739*
X-00686Y00741*
X-00693Y00744*
X-00701Y00747*
X-00708*
X-00716Y00744*
X-00723Y00741*
X-00729Y00735*
X-00732Y00728*
X-00735Y0072*
Y00713*
X-00732Y00705*
X-00729Y00698*
X-00723Y00692*
X-00716Y00689*
X-00708Y00687*
X-00701*
X-00693Y00689*
X-00686Y00692*
X-00685Y00694*
X-00675Y0069*
Y00675*
X-00674Y00671*
X-00672Y00667*
X-00637Y00632*
X-00633Y0063*
X-0063Y00629*
X-00514*
X-00315Y0043*
Y00214*
X-00351Y00178*
X-00427*
X-00427Y00178*
X-00431Y00182*
X-00437Y00184*
X-00442*
X-00448Y00182*
X-00449Y00181*
X-00459Y00185*
Y00515*
X-0046Y00518*
X-00462Y00522*
X-00466Y00524*
X-0047Y00525*
X-00974*
Y00585*
Y00732*
X-00973Y00734*
X-00972Y00738*
X-00972Y00747*
X-00971Y00764*
X-00967Y0079*
X-00959Y00815*
X-00949Y00839*
X-00936Y00862*
X-00921Y00884*
X-00904Y00904*
X-00884Y00921*
X-00862Y00936*
X-00839Y00949*
X-00815Y00959*
X-0079Y00967*
X-00764Y00971*
X-00747Y00972*
X-00738Y00972*
X-00734Y00973*
X-00732Y00974*
X00734*
X00735Y00974*
G37*
G36*
X00459Y0033D02*
Y-00515D01*
X0046Y-00518*
X00462Y-00522*
X00466Y-00524*
X0047Y-00525*
X00974*
Y-01104*
X00562*
X00558Y-01095*
X00697Y-00957*
X00699Y-00953*
X007Y-0095*
Y-0075*
X00702Y-00748*
X00704Y-00742*
Y-00737*
X00702Y-00731*
X00698Y-00727*
X00692Y-00725*
X00687*
X00681Y-00727*
X00677Y-00731*
X00675Y-00737*
Y-00742*
X00677Y-00748*
X00679Y-0075*
Y-00945*
X00618Y-01007*
X00609Y-01001*
X0061Y-01*
Y-00875*
X00612Y-00873*
X00614Y-00867*
Y-00862*
X00612Y-00856*
X00608Y-00852*
X00602Y-0085*
X00597*
X00595Y-0085*
X00586Y-00846*
X00585Y-00845*
Y-00735*
X00587Y-00733*
X00589Y-00727*
Y-00722*
X00587Y-00716*
X00583Y-00712*
X00577Y-0071*
X00572*
X00566Y-00712*
X00562Y-00716*
X0056Y-00721*
X00556Y-00721*
X0055Y-00721*
X00548Y-00717*
X00545Y-00714*
X00544Y-00713*
X00542Y-00702*
X00564Y-0068*
X00625*
X00628Y-00679*
X00632Y-00677*
X00662Y-00647*
X00664Y-00643*
X00665Y-0064*
Y-0062*
X00667Y-00618*
X00669Y-00612*
Y-00607*
X00667Y-00601*
X00663Y-00597*
X00657Y-00595*
X00652*
X00646Y-00597*
X00642Y-00601*
X0064Y-00607*
Y-00612*
X00642Y-00618*
X00644Y-0062*
Y-00635*
X00633Y-00647*
X00624Y-00641*
X00625Y-0064*
Y-0062*
X00627Y-00618*
X00629Y-00612*
Y-00607*
X00627Y-00601*
X00623Y-00597*
X00617Y-00595*
X00612*
X00606Y-00597*
X00602Y-00601*
X006Y-00607*
Y-00612*
X00602Y-00618*
X00604Y-0062*
Y-00635*
X006Y-00639*
X00555*
X00551Y-0064*
X00547Y-00642*
X00486Y-00703*
X00484Y-00707*
X00483Y-0071*
Y-0098*
X00449Y-01014*
X00262*
X00258Y-01005*
X00276Y-00987*
X00283Y-0099*
X00294Y-00993*
X00305*
X00316Y-0099*
X00327Y-00985*
X00335Y-00977*
X0034Y-00966*
X00343Y-00955*
Y-00944*
X0034Y-00933*
X00335Y-00922*
X00327Y-00914*
X00316Y-00909*
X00305Y-00906*
X00294*
X00283Y-00909*
X00272Y-00914*
X00264Y-00922*
X00259Y-00933*
X00256Y-00944*
Y-00955*
X00259Y-00966*
X00262Y-00973*
X00235Y-00999*
X00203*
X00198Y-00989*
X00202Y-00984*
X00202*
X00208Y-00982*
X00212Y-00978*
X00214Y-00972*
Y-00967*
X00212Y-00961*
X00208Y-00957*
X00202Y-00955*
X00197*
X00191Y-00957*
X00187Y-00961*
X00185Y-00967*
Y-0097*
X00175Y-00979*
X00163*
X00162Y-00969*
X00168Y-00967*
X00172Y-00963*
X00174Y-00957*
Y-00954*
X00205Y-00923*
X00216Y-00926*
X00217Y-00931*
X00215Y-00937*
Y-00942*
X00217Y-00948*
X00221Y-00952*
X00227Y-00954*
X00232*
X00238Y-00952*
X00242Y-00948*
X00244Y-00942*
Y-00937*
X00242Y-00931*
X0024Y-00929*
Y-00579*
X0025Y-00569*
X0026*
X00264Y-00577*
X00272Y-00585*
X00283Y-0059*
X00294Y-00593*
X00305*
X00316Y-0059*
X00327Y-00585*
X00335Y-00577*
X0034Y-00566*
X00343Y-00555*
Y-00544*
X0034Y-00533*
X00335Y-00522*
X00327Y-00514*
X00316Y-00509*
X00305Y-00506*
X00294*
X00283Y-00509*
X00272Y-00514*
X00264Y-00522*
X00259Y-00533*
X00256Y-00544*
Y-00548*
X00246*
X00242Y-00549*
X00238Y-00551*
X00234Y-00556*
X00225Y-00552*
Y-00539*
X00276Y-00487*
X00283Y-0049*
X00294Y-00493*
X00305*
X00316Y-0049*
X00327Y-00485*
X00335Y-00477*
X0034Y-00466*
X00343Y-00455*
Y-00444*
X0034Y-00433*
X00335Y-00422*
X00327Y-00414*
X00316Y-00409*
X00305Y-00406*
X00294*
X00283Y-00409*
X00272Y-00414*
X00264Y-00422*
X00259Y-00433*
X00256Y-00444*
Y-00455*
X00259Y-00466*
X00262Y-00473*
X00207Y-00527*
X00205Y-00531*
X00204Y-00535*
Y-00895*
X00189Y-00911*
X00183Y-00909*
X00179Y-00906*
Y-00902*
X00177Y-00896*
X00173Y-00892*
X00167Y-0089*
X00162*
X00156Y-00892*
X00152Y-00896*
X0015Y-00902*
Y-00907*
X00152Y-00913*
X00156Y-00917*
X00162Y-00919*
X00166*
X00169Y-00923*
X00171Y-00929*
X0016Y-0094*
X00157*
X00151Y-00942*
X00147Y-00946*
X00145Y-00952*
Y-00957*
X00147Y-00963*
X00151Y-00967*
X00157Y-00969*
X00156Y-00979*
X00104*
X00082Y-00958*
Y-00903*
X00104Y-00881*
X00146*
X0015Y-0088*
X00153Y-00878*
X00161Y-00869*
X00162Y-00869*
X00167*
X00173Y-00867*
X00177Y-00863*
X00179Y-00857*
Y-00852*
X00177Y-00846*
X00173Y-00842*
X00167Y-0084*
X00162*
X00156Y-00842*
X00152Y-00846*
X0015Y-00852*
Y-00852*
X00142Y-0086*
X001*
X00096Y-00861*
X00093Y-00863*
X00065Y-00891*
X00063Y-00895*
X00062Y-00899*
Y-00962*
X00063Y-00966*
X00065Y-00969*
X00085Y-00989*
X00081Y-00999*
X-00066*
X-0007Y-00989*
X00032Y-00887*
X00034Y-00883*
X00035Y-0088*
Y-00274*
X00074Y-00235*
X00114*
X00116Y-00237*
X00122Y-00239*
X00127*
X00133Y-00237*
X00137Y-00233*
X00139Y-00227*
Y-00222*
X00146Y-00213*
X00151Y-00212*
X00151Y-00212*
X00157Y-00214*
X00162*
X00168Y-00212*
X00172Y-00208*
X00174Y-00202*
Y-00197*
X00172Y-00191*
X00168Y-00187*
X00162Y-00185*
X00157*
X00151Y-00187*
X0015Y-00188*
X0006*
X00056Y-00189*
X00053Y-00191*
X00002Y-00242*
X00002Y-00243*
X-00006Y-00246*
X-00009Y-00245*
X-00057Y-00197*
X-00061Y-00195*
X-00065Y-00194*
X-00094*
X-00096Y-00192*
X-00102Y-0019*
X-00107*
X-00113Y-00192*
X-00117Y-00196*
X-00119Y-00202*
Y-00207*
X-00119Y-00209*
X-00123Y-00219*
X-00124Y-0022*
X-00129Y-00221*
X-00132Y-0022*
X-00137*
X-00143Y-00222*
X-00147Y-00226*
X-00149Y-00232*
Y-00237*
X-00147Y-00243*
X-00143Y-00247*
X-00137Y-00249*
X-00132*
X-00126Y-00247*
X-00124Y-00245*
X-00064*
X-0004Y-00269*
Y-00755*
X-00094Y-00809*
X-00184*
X-00186Y-00807*
X-00192Y-00805*
X-00197*
X-00203Y-00807*
X-00207Y-00811*
X-00209Y-00817*
Y-00822*
X-00207Y-00828*
X-00203Y-00832*
X-00197Y-00834*
X-00192*
X-00186Y-00832*
X-00184Y-0083*
X-00168*
X-00167Y-0084*
X-00173Y-00842*
X-00177Y-00846*
X-00179Y-00852*
Y-00857*
X-00177Y-00863*
X-00173Y-00867*
X-00167Y-00869*
X-00162*
X-00156Y-00867*
X-00154Y-00865*
X-00086*
X-00082Y-00864*
X-00079Y-00862*
X-0001Y-00793*
X0Y-00797*
Y-0082*
X-00124Y-00944*
X-00154*
X-00156Y-00942*
X-00162Y-0094*
X-00167*
X-00173Y-00942*
X-00177Y-00946*
X-00179Y-0095*
X-00181Y-00952*
X-00189Y-00956*
X-00192Y-00955*
X-00197*
X-00203Y-00957*
X-00207Y-00961*
X-00209Y-00966*
X-00209Y-00966*
X-00219Y-00962*
Y-00935*
X-0022Y-00931*
X-00222Y-00927*
X-00257Y-00892*
X-00261Y-0089*
X-00263Y-0088*
X-00263Y-00879*
X-00261Y-00877*
X-00252Y-00877*
X-00216Y-00913*
X-00213Y-00915*
X-00209Y-00916*
X-00174*
X-00173Y-00917*
X-00167Y-00919*
X-00162*
X-00156Y-00917*
X-00152Y-00913*
X-0015Y-00907*
Y-00902*
X-00152Y-00896*
X-00156Y-00892*
X-00162Y-0089*
X-00167*
X-00173Y-00892*
X-00176Y-00895*
X-00204*
X-00217Y-00883*
X-00216Y-00872*
X-00212Y-00868*
X-0021Y-00862*
Y-00857*
X-00212Y-00851*
X-00216Y-00847*
X-00222Y-00845*
X-00227*
X-00234Y-00837*
Y-00741*
X-00234Y-0074*
X-00224Y-00736*
X-00221Y-00737*
X-00213Y-0074*
X-00206*
X-00198Y-00737*
X-00191Y-00734*
X-00185Y-00728*
X-00182Y-00721*
X-0018Y-00713*
Y-00706*
X-00182Y-00698*
X-00185Y-00691*
X-00191Y-00685*
X-00198Y-00682*
X-00206Y-0068*
X-00213*
X-00221Y-00682*
X-00224Y-00683*
X-00234Y-00679*
X-00234Y-00678*
Y-00509*
X-00165Y-00439*
X-00162*
X-00156Y-00437*
X-00152Y-00433*
X-0015Y-00427*
Y-00422*
X-00152Y-00416*
X-00156Y-00412*
X-00162Y-0041*
X-00167*
X-00173Y-00412*
X-00177Y-00416*
X-00179Y-00422*
Y-00425*
X-00252Y-00497*
X-00254Y-00501*
X-00255Y-00505*
Y-00619*
X-00263Y-00622*
X-00265Y-00622*
X-00272Y-00614*
X-00283Y-00609*
X-00294Y-00606*
X-00305*
X-00316Y-00609*
X-00327Y-00614*
X-00335Y-00622*
X-00339Y-0063*
X-00349Y-00627*
Y-00472*
X-00339Y-00469*
X-00335Y-00477*
X-00327Y-00485*
X-00316Y-0049*
X-00305Y-00493*
X-00294*
X-00283Y-0049*
X-00272Y-00485*
X-00264Y-00477*
X-00259Y-00466*
X-00256Y-00455*
Y-00444*
X-00259Y-00433*
X-00264Y-00422*
X-00272Y-00414*
X-00283Y-00409*
X-00294Y-00406*
X-00305*
X-00316Y-00409*
X-00327Y-00414*
X-00335Y-00422*
X-00339Y-0043*
X-00349Y-00427*
Y-00372*
X-00339Y-00369*
X-00335Y-00377*
X-00327Y-00385*
X-00316Y-0039*
X-00305Y-00393*
X-00294*
X-00283Y-0039*
X-00272Y-00385*
X-00264Y-00377*
X-00262Y-00373*
X-00261Y-00372*
X-0025Y-00372*
X-00248Y-00374*
X-00241Y-00377*
X-00233Y-0038*
X-00226*
X-00218Y-00377*
X-00211Y-00374*
X-00205Y-00368*
X-00202Y-00361*
X-002Y-00353*
Y-00346*
X-00202Y-00338*
X-00205Y-00331*
X-00211Y-00325*
X-00218Y-00322*
X-00226Y-0032*
X-00233*
X-00241Y-00322*
X-00248Y-00325*
X-0025Y-00327*
X-00261Y-00327*
X-00262Y-00326*
X-00264Y-00322*
X-00272Y-00314*
X-00283Y-00309*
X-00294Y-00306*
X-00305*
X-00316Y-00309*
X-00327Y-00314*
X-00335Y-00322*
X-00339Y-0033*
X-00349Y-00327*
Y-0029*
X-00154Y-00095*
X00105*
X00114Y-00093*
X00123Y-00088*
X00433Y00221*
X00438Y0023*
X0044Y0024*
Y00314*
X00443Y00316*
X00448Y00325*
X00449Y00331*
X00459Y0033*
G37*
G36*
X-00335Y-00677D02*
X-00327Y-00685D01*
X-00316Y-0069*
X-00305Y-00693*
X-00294*
X-00283Y-0069*
X-00272Y-00685*
X-00265Y-00677*
X-00263Y-00677*
X-00255Y-0068*
Y-00719*
X-00263Y-00722*
X-00265Y-00722*
X-00272Y-00714*
X-00283Y-00709*
X-00294Y-00706*
X-00305*
X-00316Y-00709*
X-00327Y-00714*
X-00335Y-00722*
X-00339Y-0073*
X-00349Y-00727*
Y-00672*
X-00339Y-00669*
X-00335Y-00677*
G37*
G36*
Y-00777D02*
X-00327Y-00785D01*
X-00316Y-0079*
X-00305Y-00793*
X-00294*
X-00283Y-0079*
X-00272Y-00785*
X-00265Y-00777*
X-00263Y-00777*
X-00255Y-0078*
Y-00819*
X-00263Y-00822*
X-00265Y-00822*
X-00272Y-00814*
X-00283Y-00809*
X-00294Y-00806*
X-00305*
X-00316Y-00809*
X-00327Y-00814*
X-00329Y-00817*
X-00341*
X-00349Y-00808*
Y-00772*
X-00339Y-00769*
X-00335Y-00777*
G37*
G36*
X-004Y-00735D02*
Y-00819D01*
X-00398Y-00829*
X-00393Y-00837*
X-00369Y-0086*
X-00361Y-00866*
X-00351Y-00868*
X-0034*
X-00335Y-00877*
X-00332Y-00879*
X-00336Y-00889*
X-00357*
X-00361Y-0089*
X-00364Y-00892*
X-00371Y-009*
X-00372Y-009*
X-00377*
X-00383Y-00902*
X-00387Y-00906*
X-00389Y-00912*
Y-00915*
X-00392Y-00917*
X-00396Y-0092*
X-00399Y-00921*
X-00402Y-0092*
X-00407*
X-00413Y-00922*
X-00417Y-00926*
X-00419Y-00932*
Y-00937*
X-00427Y-00944*
X-00434*
X-00454Y-00924*
Y-00775*
X-0041Y-00731*
X-004Y-00735*
G37*
G36*
X00014Y-00847D02*
Y-00875D01*
X-00087Y-00978*
X-00147*
X-00151Y-00968*
X-00149Y-00965*
X-0012*
X-00116Y-00964*
X-00112Y-00962*
X00005Y-00843*
X00014Y-00847*
G37*
G36*
X-0024Y-00939D02*
Y-00974D01*
X-00239Y-00978*
X-00237Y-00981*
X-00212Y-01005*
X-00216Y-01014*
X-00432*
X-00442Y-01005*
X-00438Y-00995*
X-0039*
X-0038Y-00993*
X-00372Y-00988*
X-00367Y-00982*
X-00329*
X-00327Y-00985*
X-00316Y-0099*
X-00305Y-00993*
X-00294*
X-00283Y-0099*
X-00272Y-00985*
X-00264Y-00977*
X-00259Y-00966*
X-00256Y-00955*
Y-00944*
X-00258Y-00935*
X-00252Y-0093*
X-0025Y-00929*
X-0024Y-00939*
G37*
G36*
X0056Y-00729D02*
X00562Y-00733D01*
X00564Y-00735*
Y-00985*
X00555Y-00995*
X00545Y-00991*
Y-00738*
X00548Y-00734*
X0055Y-0073*
X00554Y-00729*
X0056Y-00729*
G37*
%LNhsmm-2*%
%LPC*%
G36*
X00148Y0085D02*
X00141D01*
X00133Y00847*
X00126Y00844*
X0012Y00838*
X00117Y00831*
X00115Y00823*
Y00816*
X00117Y00808*
X0012Y00801*
X00126Y00795*
X00133Y00792*
X00141Y0079*
X00148*
X00156Y00792*
X00163Y00795*
X00169Y00801*
X00172Y00808*
X00175Y00816*
Y00823*
X00172Y00831*
X00169Y00838*
X00163Y00844*
X00156Y00847*
X00148Y0085*
G37*
G36*
X-00511D02*
X-00518D01*
X-00526Y00847*
X-00533Y00844*
X-00539Y00838*
X-00542Y00831*
X-00545Y00823*
Y00816*
X-00542Y00808*
X-00539Y00801*
X-00533Y00795*
X-00526Y00792*
X-00518Y0079*
X-00511*
X-00503Y00792*
X-00496Y00795*
X-0049Y00801*
X-00487Y00808*
X-00485Y00816*
Y00823*
X-00487Y00831*
X-0049Y00838*
X-00496Y00844*
X-00503Y00847*
X-00511Y0085*
G37*
G36*
X00773Y00825D02*
X00766D01*
X00758Y00822*
X00751Y00819*
X00745Y00813*
X00742Y00806*
X0074Y00798*
Y00791*
X00742Y00783*
X00745Y00776*
X00751Y0077*
X00758Y00767*
X00766Y00765*
X00773*
X00781Y00767*
X00788Y0077*
X00794Y00776*
X00797Y00783*
X008Y00791*
Y00798*
X00797Y00806*
X00794Y00813*
X00788Y00819*
X00781Y00822*
X00773Y00825*
G37*
G36*
X-00786Y008D02*
X-00793D01*
X-00801Y00797*
X-00808Y00794*
X-00814Y00788*
X-00817Y00781*
X-0082Y00773*
Y00766*
X-00817Y00758*
X-00814Y00751*
X-00808Y00745*
X-00801Y00742*
X-00793Y0074*
X-00786*
X-00778Y00742*
X-00771Y00745*
X-00765Y00751*
X-00762Y00758*
X-0076Y00766*
Y00773*
X-00762Y00781*
X-00765Y00788*
X-00771Y00794*
X-00778Y00797*
X-00786Y008*
G37*
G36*
X00698Y00755D02*
X00691D01*
X00683Y00752*
X00676Y00749*
X0067Y00743*
X00667Y00736*
X00665Y00728*
Y00721*
X00667Y00713*
X0067Y00706*
X00676Y007*
X00683Y00697*
X00691Y00695*
X00698*
X00706Y00697*
X00713Y007*
X00719Y00706*
X00722Y00713*
X00725Y00721*
Y00728*
X00722Y00736*
X00719Y00743*
X00713Y00749*
X00706Y00752*
X00698Y00755*
G37*
G36*
X00333D02*
X00326D01*
X00318Y00752*
X00311Y00749*
X00305Y00743*
X00302Y00736*
X003Y00728*
Y00721*
X00302Y00713*
X00305Y00706*
X00311Y007*
X00318Y00697*
X00326Y00695*
X00333*
X00341Y00697*
X00348Y007*
X00354Y00706*
X00357Y00713*
X0036Y00721*
Y00728*
X00357Y00736*
X00354Y00743*
X00348Y00749*
X00341Y00752*
X00333Y00755*
G37*
G36*
X00148D02*
X00141D01*
X00133Y00752*
X00126Y00749*
X0012Y00743*
X00117Y00736*
X00115Y00728*
Y00721*
X00117Y00713*
X0012Y00706*
X00126Y007*
X00133Y00697*
X00141Y00695*
X00148*
X00156Y00697*
X00163Y007*
X00169Y00706*
X00172Y00713*
X00175Y00721*
Y00728*
X00172Y00736*
X00169Y00743*
X00163Y00749*
X00156Y00752*
X00148Y00755*
G37*
G36*
X-00486Y0075D02*
X-00493D01*
X-00501Y00747*
X-00508Y00744*
X-00514Y00738*
X-00517Y00731*
X-0052Y00723*
Y00716*
X-00517Y00708*
X-00514Y00701*
X-00508Y00695*
X-00501Y00692*
X-00493Y0069*
X-00486*
X-00478Y00692*
X-00471Y00695*
X-00465Y00701*
X-00462Y00708*
X-0046Y00716*
Y00723*
X-00462Y00731*
X-00465Y00738*
X-00471Y00744*
X-00478Y00747*
X-00486Y0075*
G37*
G36*
X-00306Y00747D02*
X-00313D01*
X-00321Y00744*
X-00328Y00741*
X-00334Y00735*
X-00337Y00728*
X-0034Y0072*
Y00713*
X-00337Y00705*
X-00334Y00698*
X-00328Y00692*
X-00321Y00689*
X-00313Y00687*
X-00306*
X-00298Y00689*
X-00291Y00692*
X-00285Y00698*
X-00282Y00705*
X-0028Y00713*
Y0072*
X-00282Y00728*
X-00285Y00735*
X-00291Y00741*
X-00298Y00744*
X-00306Y00747*
G37*
G36*
X-00801Y0061D02*
X-00808D01*
X-00816Y00607*
X-00823Y00604*
X-00829Y00598*
X-00832Y00591*
X-00835Y00583*
Y00576*
X-00832Y00568*
X-00829Y00561*
X-00823Y00555*
X-00816Y00552*
X-00808Y0055*
X-00801*
X-00793Y00552*
X-00786Y00555*
X-0078Y00561*
X-00777Y00568*
X-00775Y00576*
Y00583*
X-00777Y00591*
X-0078Y00598*
X-00786Y00604*
X-00793Y00607*
X-00801Y0061*
G37*
G36*
X00342Y00449D02*
X00337D01*
X00331Y00447*
X00327Y00443*
X00325Y00437*
Y00432*
X00327Y00426*
X00331Y00422*
X00337Y0042*
X00342*
X00348Y00422*
X00352Y00426*
X00354Y00432*
Y00437*
X00352Y00443*
X00348Y00447*
X00342Y00449*
G37*
G36*
X-00132Y00404D02*
X-00137D01*
X-00143Y00402*
X-00147Y00398*
X-00149Y00393*
X-00152Y00394*
X-00157*
X-00163Y00392*
X-00167Y00388*
X-00169Y00382*
Y00377*
X-00167Y00371*
X-00163Y00367*
X-00167Y00363*
X-00169Y00357*
Y00352*
X-00167Y00346*
X-00163Y00342*
X-00157Y0034*
X-00152*
X-00147Y00331*
X-00143Y00327*
X-00137Y00325*
X-00132*
X-00126Y00327*
X-00122Y00331*
X-0012Y00337*
Y00342*
X-00122Y00348*
X-00126Y00352*
X-00122Y00356*
X-0012Y00362*
Y00367*
X-00122Y00373*
X-00126Y00377*
X-00122Y00381*
X-0012Y00387*
Y00392*
X-00122Y00398*
X-00126Y00402*
X-00132Y00404*
G37*
G36*
X-00422Y00409D02*
X-00427D01*
X-00433Y00407*
X-00437Y00403*
X-00439Y00397*
Y00392*
X-00437Y00386*
X-00433Y00382*
X-00437Y00378*
X-00439Y00372*
Y00367*
X-00437Y00361*
X-00433Y00357*
X-00437Y00353*
X-00439Y00347*
Y00342*
X-00437Y00336*
X-00433Y00332*
X-00427Y0033*
X-00422*
X-00416Y00332*
X-00412Y00336*
X-0041Y00341*
X-00407Y0034*
X-00402*
X-00396Y00342*
X-00392Y00346*
X-0039Y00352*
Y00357*
X-00392Y00363*
X-00396Y00367*
X-00392Y00371*
X-0039Y00377*
Y00382*
X-00392Y00388*
X-00396Y00392*
X-00402Y00394*
X-00407*
X-00412Y00403*
X-00416Y00407*
X-00422Y00409*
G37*
G36*
X-00181Y0026D02*
X-00188D01*
X-00196Y00257*
X-00203Y00254*
X-00209Y00248*
X-00212Y00241*
X-00215Y00233*
Y00226*
X-00212Y00218*
X-00209Y00211*
X-00203Y00205*
X-00196Y00202*
X-00188Y002*
X-00181*
X-00173Y00202*
X-00166Y00205*
X-0016Y00211*
X-00157Y00218*
X-00155Y00226*
Y00233*
X-00157Y00241*
X-0016Y00248*
X-00166Y00254*
X-00173Y00257*
X-00181Y0026*
G37*
G36*
X-00867Y-0057D02*
X-00872D01*
X-00878Y-00572*
X-00882Y-00576*
X-00884Y-00582*
Y-00587*
X-00882Y-00593*
X-00878Y-00597*
X-00872Y-00599*
X-00867*
X-00861Y-00597*
X-00857Y-00593*
X-00855Y-00587*
Y-00582*
X-00857Y-00576*
X-00861Y-00572*
X-00867Y-0057*
G37*
G36*
X-00517Y-00575D02*
X-00522D01*
X-00528Y-00577*
X-00532Y-00581*
X-00534Y-00587*
Y-00592*
X-00532Y-00598*
X-00528Y-00602*
X-00522Y-00604*
X-00517*
X-00511Y-00602*
X-00507Y-00598*
X-00505Y-00592*
Y-00587*
X-00507Y-00581*
X-00511Y-00577*
X-00517Y-00575*
G37*
G36*
X-00472Y-0062D02*
X-00477D01*
X-00483Y-00622*
X-00487Y-00626*
X-00489Y-00632*
Y-00637*
X-00487Y-00643*
X-00483Y-00647*
X-00477Y-00649*
X-00472*
X-00466Y-00647*
X-00462Y-00643*
X-0046Y-00637*
Y-00632*
X-00462Y-00626*
X-00466Y-00622*
X-00472Y-0062*
G37*
G36*
X-00542Y-0063D02*
X-00547D01*
X-00553Y-00632*
X-00557Y-00636*
X-00559Y-00642*
Y-00647*
X-00557Y-00653*
X-00553Y-00657*
X-00547Y-00659*
X-00542*
X-00536Y-00657*
X-00532Y-00653*
X-0053Y-00647*
Y-00642*
X-00532Y-00636*
X-00536Y-00632*
X-00542Y-0063*
G37*
G36*
X-00917D02*
X-00922D01*
X-00928Y-00632*
X-00932Y-00636*
X-00934Y-00642*
Y-00647*
X-00932Y-00653*
X-00928Y-00657*
X-00922Y-00659*
X-00917*
X-00911Y-00657*
X-00907Y-00653*
X-00905Y-00647*
Y-00642*
X-00907Y-00636*
X-00911Y-00632*
X-00917Y-0063*
G37*
G36*
X-00597Y-0081D02*
X-00602D01*
X-00608Y-00812*
X-00612Y-00816*
X-00614Y-00822*
Y-00827*
X-00612Y-00833*
X-00608Y-00837*
X-00602Y-00839*
X-00597*
X-00591Y-00837*
X-00587Y-00833*
X-00585Y-00827*
Y-00822*
X-00587Y-00816*
X-00591Y-00812*
X-00597Y-0081*
G37*
G36*
X-00562Y-0078D02*
X-00567D01*
X-00573Y-00782*
X-00577Y-00786*
X-00579Y-00792*
Y-00797*
X-00577Y-00803*
X-00574Y-00806*
X-00573Y-00807*
X-00572Y-00818*
X-00572Y-00818*
X-00574Y-00823*
Y-00829*
X-00572Y-00835*
X-00568Y-00839*
X-00563Y-00841*
X-00557*
X-00551Y-00839*
X-00547Y-00835*
X-00545Y-00829*
Y-00823*
X-00547Y-00818*
X-0055Y-00815*
X-00551Y-00814*
X-00552Y-00803*
X-00552Y-00803*
X-0055Y-00797*
Y-00792*
X-00552Y-00786*
X-00556Y-00782*
X-00562Y-0078*
G37*
G36*
X-00817D02*
X-00822D01*
X-00828Y-00782*
X-00832Y-00786*
X-00834Y-00792*
Y-00797*
X-00832Y-00803*
X-00828Y-00807*
X-00828Y-0081*
X-00827Y-00817*
X-00829Y-00822*
Y-00827*
X-00827Y-00832*
X-00828Y-00839*
X-00828Y-00842*
X-00832Y-00846*
X-00834Y-00852*
Y-00855*
X-00835Y-00858*
X-00842Y-00865*
X-00842*
X-00848Y-00867*
X-00852Y-00871*
X-00854Y-00877*
Y-0088*
X-00858Y-00885*
X-00863Y-00888*
X-00866*
X-00872Y-00891*
X-00876Y-00895*
X-00878Y-009*
Y-00906*
X-00876Y-00912*
X-00872Y-00916*
X-00866Y-00918*
X-0086*
X-00855Y-00916*
X-00851Y-00912*
X-00848Y-00906*
Y-00903*
X-00845Y-00898*
X-0084Y-00894*
X-00837*
X-00831Y-00892*
X-00827Y-00888*
X-00825Y-00882*
Y-00879*
X-00824Y-00876*
X-00817Y-00869*
X-00817*
X-00811Y-00867*
X-00807Y-00863*
X-00805Y-00857*
Y-00852*
X-00807Y-00847*
X-00806Y-0084*
X-00806Y-00837*
X-00802Y-00833*
X-008Y-00827*
Y-00822*
X-00802Y-00816*
X-00806Y-00812*
X-00806Y-00809*
X-00807Y-00802*
X-00805Y-00797*
Y-00792*
X-00807Y-00786*
X-00811Y-00782*
X-00817Y-0078*
G37*
G36*
Y-00905D02*
X-00822D01*
X-00828Y-00907*
X-00832Y-00911*
X-00834Y-00917*
Y-00922*
X-00832Y-00928*
X-00828Y-00932*
X-00822Y-00934*
X-00817*
X-00809Y-00942*
Y-00947*
X-00807Y-00953*
X-00803Y-00957*
X-00797Y-00959*
X-00792*
X-00786Y-00957*
X-00782Y-00953*
X-0078Y-00947*
Y-00942*
X-00782Y-00936*
X-00786Y-00932*
X-00792Y-0093*
X-00797*
X-00805Y-00922*
Y-00917*
X-00807Y-00911*
X-00811Y-00907*
X-00817Y-00905*
G37*
G36*
X-00567Y-00954D02*
X-00572D01*
X-00578Y-00956*
X-00582Y-0096*
X-00584Y-00966*
Y-00972*
X-00582Y-00977*
X-00578Y-00981*
X-00572Y-00984*
X-00567*
X-00561Y-00981*
X-00557Y-00977*
X-00555Y-00972*
Y-00966*
X-00557Y-0096*
X-00561Y-00956*
X-00567Y-00954*
G37*
G36*
X-00922Y-00965D02*
X-00927D01*
X-00933Y-00967*
X-00937Y-00971*
X-00939Y-00977*
Y-00982*
X-00937Y-00988*
X-00933Y-00992*
X-00927Y-00994*
X-00922*
X-00916Y-00992*
X-00912Y-00988*
X-0091Y-00982*
Y-00977*
X-00912Y-00971*
X-00916Y-00967*
X-00922Y-00965*
G37*
G36*
X-00867Y-01025D02*
X-00872D01*
X-00878Y-01027*
X-00882Y-01031*
X-00884Y-01037*
Y-01042*
X-00882Y-01048*
X-00878Y-01052*
X-00872Y-01054*
X-00867*
X-00861Y-01052*
X-00857Y-01048*
X-00855Y-01042*
Y-01037*
X-00857Y-01031*
X-00861Y-01027*
X-00867Y-01025*
G37*
G36*
X00305Y-00306D02*
X00294D01*
X00283Y-00309*
X00272Y-00314*
X00264Y-00322*
X00259Y-00333*
X00256Y-00344*
Y-00355*
X00259Y-00366*
X00264Y-00377*
X00272Y-00385*
X00283Y-0039*
X00294Y-00393*
X00305*
X00316Y-0039*
X00327Y-00385*
X00335Y-00377*
X0034Y-00366*
X00343Y-00355*
Y-00344*
X0034Y-00333*
X00335Y-00322*
X00327Y-00314*
X00316Y-00309*
X00305Y-00306*
G37*
G36*
X-00112Y-0042D02*
X-00117D01*
X-00123Y-00422*
X-00127Y-00426*
X-00129Y-00432*
Y-00437*
X-00127Y-00443*
X-00123Y-00447*
X-00117Y-00449*
X-00112*
X-00106Y-00447*
X-00102Y-00443*
X-001Y-00437*
Y-00432*
X-00102Y-00426*
X-00106Y-00422*
X-00112Y-0042*
G37*
G36*
X00082Y-0046D02*
X00077D01*
X00071Y-00462*
X00067Y-00466*
X00065Y-00472*
Y-00477*
X00067Y-00483*
X00071Y-00487*
X00077Y-00489*
X00082*
X00088Y-00487*
X00092Y-00483*
X00094Y-00477*
Y-00472*
X00092Y-00466*
X00088Y-00462*
X00082Y-0046*
G37*
G36*
X00132Y-00555D02*
X00127D01*
X00121Y-00557*
X00117Y-00561*
X00115Y-00567*
Y-00572*
X00117Y-00578*
X00121Y-00582*
X00127Y-00584*
X00132*
X00138Y-00582*
X00142Y-00578*
X00144Y-00572*
Y-00567*
X00142Y-00561*
X00138Y-00557*
X00132Y-00555*
G37*
G36*
X00777Y-0063D02*
X00772D01*
X00766Y-00632*
X00762Y-00636*
X0076Y-00642*
Y-00647*
X00762Y-00653*
X00766Y-00657*
X00772Y-00659*
X00777*
X00783Y-00657*
X00787Y-00653*
X00789Y-00647*
Y-00642*
X00787Y-00636*
X00783Y-00632*
X00777Y-0063*
G37*
G36*
X00305Y-00606D02*
X00294D01*
X00283Y-00609*
X00272Y-00614*
X00264Y-00622*
X00259Y-00633*
X00256Y-00644*
Y-00655*
X00259Y-00666*
X00264Y-00677*
X00272Y-00685*
X00283Y-0069*
X00294Y-00693*
X00305*
X00316Y-0069*
X00327Y-00685*
X00335Y-00677*
X0034Y-00666*
X00343Y-00655*
Y-00644*
X0034Y-00633*
X00335Y-00622*
X00327Y-00614*
X00316Y-00609*
X00305Y-00606*
G37*
G36*
X00777Y-0067D02*
X00772D01*
X00766Y-00672*
X00762Y-00676*
X0076Y-00682*
Y-00687*
X00762Y-00693*
X00766Y-00697*
X00772Y-00699*
X00777*
X00783Y-00697*
X00787Y-00693*
X00789Y-00687*
Y-00682*
X00787Y-00676*
X00783Y-00672*
X00777Y-0067*
G37*
G36*
Y-0071D02*
X00772D01*
X00766Y-00712*
X00762Y-00716*
X0076Y-00722*
Y-00727*
X00762Y-00733*
X00766Y-00737*
X00772Y-00739*
X00777*
X00783Y-00737*
X00787Y-00733*
X00789Y-00727*
Y-00722*
X00787Y-00716*
X00783Y-00712*
X00777Y-0071*
G37*
G36*
X-00147Y-0076D02*
X-00152D01*
X-00158Y-00762*
X-00162Y-00766*
X-00164Y-00772*
Y-00777*
X-00162Y-00783*
X-00158Y-00787*
X-00152Y-00789*
X-00147*
X-00141Y-00787*
X-00137Y-00783*
X-00135Y-00777*
Y-00772*
X-00137Y-00766*
X-00141Y-00762*
X-00147Y-0076*
G37*
G36*
X00305Y-00706D02*
X00294D01*
X00283Y-00709*
X00272Y-00714*
X00264Y-00722*
X00259Y-00733*
X00256Y-00744*
Y-00755*
X00259Y-00766*
X00264Y-00777*
X00272Y-00785*
X00283Y-0079*
X00294Y-00793*
X00305*
X00316Y-0079*
X00327Y-00785*
X00335Y-00777*
X0034Y-00766*
X00343Y-00755*
Y-00744*
X0034Y-00733*
X00335Y-00722*
X00327Y-00714*
X00316Y-00709*
X00305Y-00706*
G37*
G36*
Y-00806D02*
X00294D01*
X00283Y-00809*
X00272Y-00814*
X00264Y-00822*
X00259Y-00833*
X00256Y-00844*
Y-00855*
X00259Y-00866*
X00264Y-00877*
X00272Y-00885*
X00283Y-0089*
X00294Y-00893*
X00305*
X00316Y-0089*
X00327Y-00885*
X00335Y-00877*
X0034Y-00866*
X00343Y-00855*
Y-00844*
X0034Y-00833*
X00335Y-00822*
X00327Y-00814*
X00316Y-00809*
X00305Y-00806*
G37*
G36*
X00839Y-00955D02*
X0083D01*
X00821Y-00957*
X00813Y-00962*
X00807Y-00968*
X00803Y-00974*
X00802Y-00976*
X00792Y-0098*
X00787*
X00781Y-00982*
X00777Y-00986*
X00775Y-00992*
X00773Y-00998*
X00767Y-01*
X00761Y-01002*
X00757Y-01006*
X00755Y-01012*
Y-01017*
X00757Y-01023*
X00761Y-01027*
X00757Y-01031*
X00755Y-01037*
Y-01042*
X00757Y-01048*
X00761Y-01052*
X00767Y-01054*
X00772*
X00778Y-01052*
X00786Y-01057*
X00792Y-01059*
X00797*
X00803Y-01057*
X00807Y-01053*
X00811Y-01048*
X00817Y-01049*
X00822*
X00828Y-01047*
X00832Y-01043*
X00834Y-01037*
Y-01032*
X00842Y-01023*
X00848Y-01022*
X00856Y-01017*
X00862Y-01011*
X00867Y-01003*
X00869Y-00994*
Y-00985*
X00867Y-00976*
X00862Y-00968*
X00856Y-00962*
X00848Y-00957*
X00839Y-00955*
G37*
G36*
X-00417Y-00829D02*
X-00422D01*
X-00428Y-00831*
X-00432Y-00835*
X-00434Y-00841*
Y-00847*
X-00432Y-00852*
X-00428Y-00856*
X-00422Y-00859*
X-00417*
X-00411Y-00856*
X-00407Y-00852*
X-00405Y-00847*
Y-00841*
X-00407Y-00835*
X-00411Y-00831*
X-00417Y-00829*
G37*
%LNhsmm-3*%
%LPD*%
G54D51*
X00135Y0034D02*
Y0039D01*
X00415Y00325D02*
X00425Y00335D01*
Y00385*
X00135Y0016D02*
Y0034D01*
X-0003Y-00005D02*
X00135Y0016D01*
X-0017Y-00005D02*
X-0003D01*
X-0042Y-00255D02*
X-0017Y-00005D01*
X-00375Y-0028D02*
X-00165Y-0007D01*
X00105*
X00415Y0024*
X-0042Y-00705D02*
Y-00255D01*
X-0048Y-00935D02*
Y-00765D01*
X-0042Y-00705*
X-0048Y-00935D02*
X-00445Y-0097D01*
X-0039*
X-00377Y-00957D02*
X-00307D01*
X-003Y-0095*
X-0039Y-0097D02*
X-00377Y-00957D01*
X00415Y0024D02*
Y00325D01*
X-00375Y-00819D02*
Y-0028D01*
Y-00819D02*
X-00351Y-00842D01*
X-00307*
X-003Y-0085*
G54D52*
X0023Y-00575D02*
X00246Y-00558D01*
X0023Y-0094D02*
Y-00575D01*
X00291Y-00558D02*
X003Y-0055D01*
X00246Y-00558D02*
X00291D01*
X00215Y-00535D02*
X003Y-0045D01*
X0016Y-00955D02*
X00215Y-009D01*
Y-00535*
X00072Y-00962D02*
X001Y-0099D01*
X001Y-0087D02*
X00146D01*
X00072Y-00962D02*
Y-00899D01*
X001Y-0087*
X00162Y-00855D02*
X00165D01*
X00146Y-0087D02*
X00162Y-00855D01*
X0018Y-0099D02*
X002Y-0097D01*
X001Y-0099D02*
X0018D01*
X-00785Y-0065D02*
X-0076Y-00625D01*
X-00785Y-007D02*
Y-0065D01*
X-00759Y-00645D02*
X-00753Y-0064D01*
X-00705Y-0085D02*
Y-00645D01*
X-00759Y-00689D02*
Y-00645D01*
X-00753Y-0064D02*
X-0071D01*
X-00705Y-00645*
X-0076Y-00625D02*
X-0066D01*
X-0073Y-0085D02*
Y-0067D01*
X-00687Y-00707D02*
X-00671Y-00691D01*
X-0066Y-00625D02*
X-0065Y-00634D01*
X-00671Y-00672D02*
X-0067Y-0067D01*
X-0065Y-00693D02*
Y-00634D01*
X-0066Y-0082D02*
Y-00703D01*
X-00671Y-00691D02*
Y-00672D01*
X-0066Y-00703D02*
X-0065Y-00693D01*
X-0066Y-0082D02*
X-006Y-0088D01*
X-00245Y-0087D02*
X-00209Y-00905D01*
X-00245Y-0087D02*
Y-00505D01*
X-0001Y-00778D02*
Y-0026D01*
X-00083Y-00988D02*
X00025Y-0088D01*
X-00086Y-00855D02*
X-0001Y-00778D01*
X00025Y-0088D02*
Y-0027D01*
X-00195Y-0082D02*
X-0009D01*
X-00165Y-00855D02*
X-00086D01*
X-00176Y-00988D02*
X-00083D01*
X-0003Y-0076D02*
Y-00265D01*
X-0009Y-0082D02*
X-0003Y-0076D01*
X0001Y-00825D02*
Y-0025D01*
X-0012Y-00955D02*
X0001Y-00825D01*
X-00105Y-00205D02*
X-00065D01*
X-00387Y00104D02*
X-00367D01*
X-0026Y00212*
Y005*
X-00415Y00135D02*
X-00358D01*
X-0028Y00213*
X-00438Y00168D02*
X-00346D01*
X-00305Y0021D02*
Y00435D01*
X-00346Y00168D02*
X-00305Y0021D01*
X-0028Y00213D02*
Y00465D01*
X-00373Y00068D02*
X-00242Y002D01*
Y00473*
X-0044Y0017D02*
X-00438Y00168D01*
X-0051Y0064D02*
X-00305Y00435D01*
X-00392Y001D02*
X-00387Y00104D01*
X-00395Y001D02*
X-00392D01*
X-00165Y-00955D02*
X-0012D01*
X00025Y-0027D02*
X0007Y-00225D01*
X00125*
X-00195Y-0097D02*
X-00176Y-00988D01*
X00159Y-00199D02*
X0016Y-002D01*
X0001Y-0025D02*
X0006Y-00199D01*
X00159*
X-00065Y-00205D02*
X-0001Y-0026D01*
X-0006Y-00235D02*
X-0003Y-00265D01*
X-00135Y-00235D02*
X-0006D01*
X-00165Y-00905D02*
X-00165Y-00905D01*
X-00209Y-00905D02*
X-00165D01*
X-00245Y-00505D02*
X-00165Y-00425D01*
X-00194Y-0101D02*
X0024D01*
X003Y-0095*
X-00437Y-01025D02*
X00454D01*
X00494Y-00985*
X-00472Y-0099D02*
X-00437Y-01025D01*
X-0023Y-00974D02*
X-00194Y-0101D01*
X-0023Y-00974D02*
Y-00935D01*
X-00501Y-0104D02*
X00474D01*
X-00534Y-01055D02*
X00484D01*
X-00544Y-0107D02*
X00495D01*
X-0065Y-01092D02*
X-00569D01*
X00474Y-0104D02*
X00512Y-01002D01*
X00515Y-01085D02*
X006Y-01D01*
X0054Y-011D02*
X0069Y-0095D01*
X-00555Y-01085D02*
X00515D01*
X-00521Y-0102D02*
X-00501Y-0104D01*
X00495Y-0107D02*
X00575Y-0099D01*
X00484Y-01055D02*
X00535Y-01004D01*
X-00561Y-011D02*
X0054D01*
X-00692Y-00947D02*
X-00555Y-01085D01*
X-00668Y-00946D02*
X-00544Y-0107D01*
X-00569Y-01092D02*
X-00561Y-011D01*
X-0065Y-00939D02*
X-00534Y-01055D01*
X-00357Y-009D02*
X-00265D01*
X-0023Y-00935*
X-00372Y-00915D02*
X-00357Y-009D01*
X-00375Y-00915D02*
X-00372D01*
X00605Y-0065D02*
X00615Y-0064D01*
Y-0061*
X00555Y-0065D02*
X00605D01*
X00494Y-0071D02*
X00555Y-0065D01*
X00535Y-01004D02*
Y-00727D01*
X00536Y-00726*
X00512Y-00718D02*
X0056Y-0067D01*
X00625*
X00512Y-01002D02*
Y-00718D01*
X00494Y-00985D02*
Y-0071D01*
X-0052Y-0099D02*
X-00472D01*
X00655Y-0064D02*
Y-0061D01*
X00625Y-0067D02*
X00655Y-0064D01*
X00575Y-0099D02*
Y-00725D01*
X006Y-01D02*
Y-00865D01*
X0069Y-0095D02*
Y-0074D01*
X-00692Y-00947D02*
Y-00931D01*
X-00694Y-0093D02*
X-00692Y-00931D01*
X-0063Y-00925D02*
X-0062Y-00935D01*
X-0073Y-0085D02*
X-00668Y-00912D01*
X-0065Y-00939D02*
Y-00905D01*
X-00668Y-00946D02*
Y-00912D01*
X-00705Y-0085D02*
X-0065Y-00905D01*
X-00687Y-00843D02*
Y-00707D01*
Y-00843D02*
X-0063Y-009D01*
Y-00925D02*
Y-009D01*
X-00242Y00473D02*
X-00105Y0061D01*
X0021*
X00235Y00635*
X00895*
X-0026Y005D02*
X-0012Y0064D01*
X0017*
X00245Y00715*
Y00815*
X00263Y00833D02*
X0033D01*
X00245Y00815D02*
X00263Y00833D01*
X-0042Y00605D02*
X-0028Y00465D01*
X-0042Y00713D02*
X-0031Y00823D01*
X-0042Y00605D02*
Y00713D01*
X-0063Y0064D02*
X-0051D01*
X-00665Y00675D02*
X-0063Y0064D01*
X-00665Y00675D02*
Y00915D01*
G54D53*
X00835Y-0099D03*
G54D54*
X00935Y-0099D03*
G54D55*
X003Y-0095D03*
Y-0085D03*
Y-0075D03*
Y-0065D03*
Y-0055D03*
Y-0045D03*
Y-0035D03*
X-003D03*
Y-0045D03*
Y-0055D03*
Y-0065D03*
Y-0075D03*
Y-0085D03*
Y-0095D03*
G54D56*
X0008Y-00475D03*
X-0073Y-0067D03*
X-006Y-0088D03*
X-00225Y-0086D03*
X0013Y-0057D03*
X-00105Y-00205D03*
X00155Y0035D03*
X00125Y-00225D03*
X0016Y-002D03*
X-00135Y-00235D03*
X-00165Y-00425D03*
X-00195Y-0097D03*
X002D03*
X-00115Y-00435D03*
X-00165Y-00855D03*
Y-00955D03*
Y-00905D03*
X-0052Y-0059D03*
X-0057Y-00535D03*
X0044Y0036D03*
X00125Y00365D03*
X-00405Y-00935D03*
X00135Y0034D03*
Y0039D03*
X00155Y00375D03*
X-0015Y-00775D03*
X-00195Y-0082D03*
X-00135Y0034D03*
X-00155Y00355D03*
X-00405D03*
X-00135Y0039D03*
X-0042Y-00844D03*
X-00375Y-00915D03*
X-0056Y-00826D03*
X-0067Y-0067D03*
X-00545Y-00645D03*
X-00863Y-00903D03*
X-00705Y-01092D03*
X-0076D03*
X00536Y-00726D03*
X-00521Y-0102D03*
X-0052Y-0099D03*
X00575Y-00725D03*
X006Y-00865D03*
X-0057Y-00969D03*
X-0062Y-00935D03*
X0069Y-0074D03*
X-0065Y-01092D03*
X-00694Y-0093D03*
X-006Y-00825D03*
X-0074Y-00935D03*
X-00795Y-00945D03*
X-0072Y-0091D03*
X-00565Y-00795D03*
X-0044Y0017D03*
X-00415Y00135D03*
X-00395Y001D03*
X-00373Y00068D03*
X-00475Y-00635D03*
X-0082Y-00855D03*
X-0084Y-0088D03*
X-00815Y-00825D03*
X-0082Y-00795D03*
Y-0092D03*
X-00769Y-00909D03*
X-00405Y0038D03*
X-00425Y00395D03*
Y0037D03*
X-00925Y-0098D03*
X0077Y-0104D03*
X00795Y-01045D03*
X0077Y-01015D03*
X0079Y-00995D03*
X00795Y-0102D03*
X0082Y-01035D03*
X-00425Y00345D03*
X-00135Y00365D03*
X-00155Y0038D03*
X00425Y00335D03*
Y00385D03*
X00405Y00375D03*
Y0035D03*
X0034Y00435D03*
X00775Y-00725D03*
Y-00685D03*
Y-00645D03*
X00655Y-0061D03*
X00615D03*
X0016Y-00955D03*
X0023Y-0094D03*
X00165Y-00905D03*
Y-00855D03*
X-00759Y-00689D03*
X-00785Y-007D03*
X-0087Y-00585D03*
X-0092Y-00645D03*
X-0087Y-0104D03*
G54D57*
X-00185Y0023D03*
X-0021Y-0071D03*
X-0023Y-0035D03*
X00695Y00725D03*
X-0031Y00717D03*
Y00823D03*
X0033Y00833D03*
X0077Y00795D03*
X0081Y00585D03*
X00895Y00635D03*
X0033Y00725D03*
X00145Y0082D03*
Y00725D03*
X-00805Y0058D03*
X-00705Y00717D03*
X-00515Y0082D03*
X-0049Y0072D03*
X-00665Y00915D03*
X-0079Y0077D03*
G54D58*
X0012Y-00335D03*
X-0012D03*
X0Y0034D03*
M02*