%FSTAX23Y23*%
%MOIN*%
%SFA1B1*%

%IPPOS*%
%AMD38*
4,1,8,-0.032900,-0.015800,0.032900,-0.015800,0.042800,-0.005900,0.042800,0.005900,0.032900,0.015800,-0.032900,0.015800,-0.042800,0.005900,-0.042800,-0.005900,-0.032900,-0.015800,0.0*
1,1,0.019811,-0.032900,-0.005900*
1,1,0.019811,0.032900,-0.005900*
1,1,0.019811,0.032900,0.005900*
1,1,0.019811,-0.032900,0.005900*
%
%AMD41*
4,1,8,0.027000,-0.011600,0.027000,0.011600,0.021400,0.017200,-0.021400,0.017200,-0.027000,0.011600,-0.027000,-0.011600,-0.021400,-0.017200,0.021400,-0.017200,0.027000,-0.011600,0.0*
1,1,0.011165,0.021400,-0.011600*
1,1,0.011165,0.021400,0.011600*
1,1,0.011165,-0.021400,0.011600*
1,1,0.011165,-0.021400,-0.011600*
%
%AMD42*
4,1,8,0.028000,0.009500,-0.028000,0.009500,-0.034700,0.002800,-0.034700,-0.002800,-0.028000,-0.009500,0.028000,-0.009500,0.034700,-0.002800,0.034700,0.002800,0.028000,0.009500,0.0*
1,1,0.013512,0.028000,0.002800*
1,1,0.013512,-0.028000,0.002800*
1,1,0.013512,-0.028000,-0.002800*
1,1,0.013512,0.028000,-0.002800*
%
%AMD43*
4,1,8,0.009500,-0.028000,0.009500,0.028000,0.002800,0.034700,-0.002800,0.034700,-0.009500,0.028000,-0.009500,-0.028000,-0.002800,-0.034700,0.002800,-0.034700,0.009500,-0.028000,0.0*
1,1,0.013512,0.002800,-0.028000*
1,1,0.013512,0.002800,0.028000*
1,1,0.013512,-0.002800,0.028000*
1,1,0.013512,-0.002800,-0.028000*
%
%AMD44*
4,1,8,0.026000,-0.049000,0.044900,-0.032600,0.046500,-0.009300,-0.002700,0.047300,-0.026000,0.049000,-0.044900,0.032600,-0.046500,0.009300,0.002700,-0.047300,0.026000,-0.049000,0.0*
1,1,0.033000,0.015200,-0.036500*
1,1,0.033000,0.034000,-0.020100*
1,1,0.033000,-0.015200,0.036500*
1,1,0.033000,-0.034000,0.020100*
%
%AMD46*
4,1,8,0.054000,-0.012500,0.054000,0.012500,0.037500,0.029000,-0.037500,0.029000,-0.054000,0.012500,-0.054000,-0.012500,-0.037500,-0.029000,0.037500,-0.029000,0.054000,-0.012500,0.0*
1,1,0.033000,0.037500,-0.012500*
1,1,0.033000,0.037500,0.012500*
1,1,0.033000,-0.037500,0.012500*
1,1,0.033000,-0.037500,-0.012500*
%
%AMD47*
4,1,8,0.044900,0.032600,0.026000,0.049000,0.002700,0.047300,-0.046500,-0.009300,-0.044900,-0.032600,-0.026000,-0.049000,-0.002700,-0.047300,0.046500,0.009300,0.044900,0.032600,0.0*
1,1,0.033000,0.034000,0.020100*
1,1,0.033000,0.015200,0.036500*
1,1,0.033000,-0.034000,-0.020100*
1,1,0.033000,-0.015200,-0.036500*
%
%ADD32R,0.078866X0.055244*%
%ADD33R,0.069023X0.031622*%
%ADD34R,0.055244X0.078866*%
%ADD35R,0.031622X0.069023*%
%ADD36R,0.031622X0.041464*%
%ADD37R,0.067055X0.086740*%
G04~CAMADD=38~8~0.0~0.0~855.6~316.2~99.1~0.0~15~0.0~0.0~0.0~0.0~0~0.0~0.0~0.0~0.0~0~0.0~0.0~0.0~180.0~856.0~316.0*
%ADD38D38*%
%ADD39R,0.043433X0.033590*%
%ADD40R,0.041464X0.031622*%
G04~CAMADD=41~8~0.0~0.0~343.8~540.6~55.8~0.0~15~0.0~0.0~0.0~0.0~0~0.0~0.0~0.0~0.0~0~0.0~0.0~0.0~270.0~541.0~344.0*
%ADD41D41*%
G04~CAMADD=42~8~0.0~0.0~694.2~190.2~67.6~0.0~15~0.0~0.0~0.0~0.0~0~0.0~0.0~0.0~0.0~0~0.0~0.0~0.0~0.0~694.2~190.2*
%ADD42D42*%
G04~CAMADD=43~8~0.0~0.0~694.2~190.2~67.6~0.0~15~0.0~0.0~0.0~0.0~0~0.0~0.0~0.0~0.0~0~0.0~0.0~0.0~270.0~190.0~694.0*
%ADD43D43*%
G04~CAMADD=44~8~0.0~0.0~580.0~1080.0~165.0~0.0~15~0.0~0.0~0.0~0.0~0~0.0~0.0~0.0~0.0~0~0.0~0.0~0.0~221.0~1010.0~1059.0*
%ADD44D44*%
%ADD45R,0.033590X0.043433*%
G04~CAMADD=46~8~0.0~0.0~580.0~1080.0~165.0~0.0~15~0.0~0.0~0.0~0.0~0~0.0~0.0~0.0~0.0~0~0.0~0.0~0.0~270.0~1080.0~580.0*
%ADD46D46*%
G04~CAMADD=47~8~0.0~0.0~580.0~1080.0~165.0~0.0~15~0.0~0.0~0.0~0.0~0~0.0~0.0~0.0~0.0~0~0.0~0.0~0.0~319.0~1010.0~1059.0*
%ADD47D47*%
%ADD48C,0.067055*%
%ADD49R,0.067055X0.067055*%
%ADD50C,0.085953*%
%LNhsmm-1*%
%LPD*%
G54D32*
X00929Y-00853D03*
Y-00554D03*
G54D33*
X0083Y-00802D03*
Y-00763D03*
Y-00723D03*
Y-00684D03*
Y-00645D03*
Y-00605D03*
G54D34*
X00744Y-0057D03*
X00445D03*
X-0043Y00464D03*
X-00131D03*
X0013Y00464D03*
X00429D03*
G54D35*
X00693Y-00669D03*
X00654D03*
X00614D03*
X00575D03*
X00535D03*
X00496D03*
X-00379Y00365D03*
X-0034D03*
X-003D03*
X-00261D03*
X-00221D03*
X-00182D03*
X00181Y00365D03*
X0022D03*
X0026D03*
X00299D03*
X00339D03*
X00378D03*
G54D36*
X00471Y-0077D03*
X00528D03*
X00636Y-00775D03*
X00693D03*
G54D37*
X0068Y-01061D03*
Y-00848D03*
X00515Y-01061D03*
Y-00848D03*
G54D38*
X-001Y-01055D03*
Y-01005D03*
Y-00955D03*
Y-00905D03*
Y-00855D03*
Y-00805D03*
Y-00755D03*
X00094D03*
Y-00805D03*
Y-00855D03*
Y-00905D03*
Y-00955D03*
Y-01005D03*
Y-01055D03*
G54D39*
X-00055Y-00658D03*
Y-00601D03*
X00005Y-00658D03*
Y-00601D03*
X00065Y-00657D03*
Y-006D03*
X-00025Y-00533D03*
Y-00476D03*
X-00085Y-00533D03*
Y-00476D03*
X-00145Y-00533D03*
Y-00476D03*
X-00205Y-00533D03*
Y-00476D03*
X-0052Y00918D03*
Y00861D03*
X-0058Y00918D03*
Y00861D03*
X-0093Y00608D03*
Y00551D03*
X-0087Y00608D03*
Y00551D03*
G54D40*
X0013Y-00601D03*
Y-00658D03*
X00035Y-00533D03*
Y-00476D03*
G54D41*
X-00116Y-00597D03*
Y-00672D03*
X-00213D03*
Y-00635D03*
Y-00597D03*
G54D42*
X-00476Y-00667D03*
Y-00687D03*
Y-00706D03*
Y-00726D03*
Y-00746D03*
Y-00765D03*
Y-00785D03*
Y-00805D03*
Y-00824D03*
Y-00844D03*
Y-00864D03*
Y-00883D03*
Y-00903D03*
Y-00923D03*
Y-00942D03*
Y-00962D03*
X-00923D03*
Y-00942D03*
Y-00923D03*
Y-00903D03*
Y-00883D03*
Y-00864D03*
Y-00844D03*
Y-00824D03*
Y-00805D03*
Y-00785D03*
Y-00765D03*
Y-00746D03*
Y-00726D03*
Y-00706D03*
Y-00687D03*
Y-00667D03*
G54D43*
X-00552Y-01038D03*
X-00572D03*
X-00591D03*
X-00611D03*
X-00631D03*
X-0065D03*
X-0067D03*
X-0069D03*
X-00709D03*
X-00729D03*
X-00749D03*
X-00768D03*
X-00788D03*
X-00808D03*
X-00827D03*
X-00847D03*
Y-00591D03*
X-00827D03*
X-00808D03*
X-00788D03*
X-00768D03*
X-00749D03*
X-00729D03*
X-00709D03*
X-0069D03*
X-0067D03*
X-0065D03*
X-00631D03*
X-00611D03*
X-00591D03*
X-00572D03*
X-00552D03*
G54D44*
X00914Y00774D03*
X0084Y00709D03*
X00766Y00645D03*
X00692Y0058D03*
X00793Y00914D03*
X00719Y00849D03*
X00645Y00785D03*
X0057Y0072D03*
G54D45*
X00526Y0087D03*
X00583D03*
X00526Y0093D03*
X00583D03*
G54D46*
X00415Y00921D03*
Y00823D03*
Y00725D03*
Y00626D03*
X0023Y00921D03*
Y00823D03*
Y00725D03*
Y00626D03*
X-0023Y00916D03*
Y00818D03*
Y0072D03*
Y00621D03*
X-00415Y00916D03*
Y00818D03*
Y0072D03*
Y00621D03*
G54D47*
X-00795Y00915D03*
X-00721Y00851D03*
X-00646Y00786D03*
X-00572Y00722D03*
X-00916Y00776D03*
X-00842Y00711D03*
X-00768Y00646D03*
X-00693Y00582D03*
G54D48*
X00835Y-0099D03*
G54D49*
X00935Y-0099D03*
G54D50*
X003Y-0095D03*
Y-0085D03*
Y-0075D03*
Y-0065D03*
Y-0055D03*
Y-0045D03*
Y-0035D03*
X-003D03*
Y-0045D03*
Y-0055D03*
Y-0065D03*
Y-0075D03*
Y-0085D03*
Y-0095D03*
M02*