%FSTAX23Y23*%
%MOIN*%
%SFA1B1*%

%IPPOS*%
%ADD51C,0.040000*%
%ADD52C,0.010000*%
%ADD53C,0.059055*%
%ADD54R,0.059055X0.059055*%
%ADD55C,0.077953*%
%ADD56C,0.019685*%
%ADD57C,0.050000*%
%ADD58C,0.118110*%
%LNhsmm-1*%
%LPD*%
G36*
X00735Y00974D02*
X00739Y00973D01*
X00748Y00973*
X00765Y00972*
X00791Y00967*
X00816Y0096*
X0084Y0095*
X00863Y00937*
X00885Y00922*
X00905Y00905*
X00922Y00885*
X00937Y00863*
X0095Y0084*
X0096Y00816*
X00967Y00791*
X00972Y00765*
X00973Y00748*
X00973Y00739*
X00974Y00735*
X00974Y00734*
Y00525*
X0047*
X00466Y00524*
X00462Y00522*
X0046Y00518*
X00459Y00515*
Y00375*
X00449Y00371*
X00448Y00372*
X00442Y00374*
X00439Y00382*
Y00387*
X00437Y00393*
X00433Y00397*
X00427Y00399*
X00422*
X00416Y00397*
X00412Y00393*
X0041Y00388*
X00407Y00389*
X00402*
X00396Y00387*
X00392Y00383*
X0039Y00377*
Y00372*
X00392Y00366*
X00396Y00362*
X00392Y00358*
X0039Y00352*
Y00347*
X00392Y00341*
X00396Y00337*
X00402Y00335*
X00407*
X00412Y00326*
X00416Y00322*
X00422Y0032*
X00427*
X00433Y00322*
X00437Y00326*
X00439Y00332*
Y00337*
X00442Y00345*
X00448Y00347*
X00449Y00348*
X00459Y00344*
Y-00515*
X0046Y-00518*
X00462Y-00522*
X00466Y-00524*
X0047Y-00525*
X00974*
Y-01104*
X00476*
X00472Y-01094*
X00565Y-01002*
X00567Y-00998*
X00568Y-00995*
Y-00839*
X00665Y-00742*
X00668Y-00742*
X00676Y-00745*
X00677Y-00748*
X00681Y-00752*
X00687Y-00754*
X00692*
X00698Y-00752*
X00702Y-00748*
X00704Y-00742*
Y-00737*
X00702Y-00731*
X00698Y-00727*
X00697Y-00716*
X00699Y-00714*
X00701Y-00713*
X00748*
X0076Y-00724*
Y-00727*
X00762Y-00733*
X00766Y-00737*
X00772Y-00739*
X00777*
X00783Y-00737*
X00787Y-00733*
X00789Y-00727*
Y-00722*
X00787Y-00716*
X00783Y-00712*
X00777Y-0071*
X00777Y-007*
X00777Y-00699*
X00783Y-00697*
X00787Y-00693*
X00789Y-00687*
Y-00682*
X00787Y-00676*
X00783Y-00672*
X00777Y-0067*
X00772*
X00766Y-00672*
X00764Y-00674*
X0068*
X00676Y-00675*
X00672Y-00677*
X00532Y-00817*
X0053Y-00821*
X00529Y-00825*
Y-00983*
X00444Y-01068*
X-00556*
X-00581Y-01044*
X-00584Y-01041*
X-00588Y-01041*
X-00719*
X-00723Y-01041*
X-00726Y-01044*
X-00759Y-01077*
X-00762*
X-00768Y-01079*
X-00772Y-01083*
X-00774Y-01089*
Y-01095*
X-00781Y-01104*
X-00974*
Y-0052*
X-00589*
X-00588Y-00521*
X-00584Y-0053*
X-00584Y-00532*
Y-00537*
X-00582Y-00543*
X-00579Y-00546*
X-00579Y-00549*
X-00581Y-00556*
X-00852*
X-00856Y-00557*
X-00859Y-00559*
X-00869Y-0057*
X-00872*
X-00878Y-00572*
X-00882Y-00576*
X-00884Y-00582*
Y-00587*
X-00882Y-00593*
X-00919Y-0063*
X-00922*
X-00928Y-00632*
X-00932Y-00636*
X-00934Y-00642*
Y-00647*
X-00932Y-00653*
X-0093Y-00655*
Y-0085*
X-00929Y-00853*
X-00927Y-00857*
X-00893Y-00891*
X-0089Y-00893*
X-00887Y-00893*
X-00878Y-00903*
Y-00906*
X-00876Y-00912*
X-00872Y-00916*
X-00866Y-00918*
X-0086*
X-00855Y-00916*
X-00854Y-00915*
X-00841*
X-00834Y-00922*
Y-00922*
X-00832Y-00928*
X-0083Y-0093*
Y-00959*
X-00829Y-00963*
X-00829Y-00963*
X-00832Y-00972*
X-00834Y-00974*
X-00834Y-00974*
X-00836Y-00972*
X-00839Y-0097*
X-00843Y-00969*
X-00914*
X-00916Y-00967*
X-00922Y-00965*
X-00927*
X-00933Y-00967*
X-00937Y-00971*
X-00939Y-00977*
Y-00982*
X-00937Y-00988*
X-00933Y-00992*
X-00927Y-00994*
X-00922*
X-00916Y-00992*
X-00914Y-0099*
X-00855*
X-00847Y-00999*
X-00847Y-01002*
X-00869Y-01025*
X-00872*
X-00878Y-01027*
X-00882Y-01031*
X-00884Y-01037*
Y-01042*
X-00882Y-01048*
X-00878Y-01052*
X-00872Y-01054*
X-00867*
X-00861Y-01052*
X-00857Y-01048*
X-00855Y-01042*
Y-01039*
X-00835Y-0102*
X-00538*
X-00535Y-01022*
Y-01023*
X-00533Y-01028*
X-00529Y-01032*
X-00524Y-01035*
X-00518*
X-00512Y-01032*
X-00508Y-01028*
X-00506Y-01023*
Y-01017*
X-00508Y-01011*
X-0051Y-01004*
X-00508Y-00999*
X-00507Y-00998*
X-00505Y-00992*
Y-00987*
X-00507Y-00981*
X-00511Y-00977*
X-00517Y-00975*
X-00522*
X-00528Y-00977*
X-0053Y-00979*
X-00547*
X-00555Y-00972*
Y-00966*
X-00548Y-00956*
X-00502*
X-00447Y-01012*
X-00443Y-01014*
X-0044Y-01015*
X-00205*
X-00201Y-01014*
X-00197Y-01012*
X-00187Y-01002*
X-00185Y-00998*
X-00184Y-00995*
Y-0098*
X-00182Y-00978*
X-0018Y-00974*
X-00178Y-00972*
X-0017Y-00968*
X-00167Y-00969*
X-00162*
X-00156Y-00967*
X-00152Y-00963*
X-0015Y-00957*
Y-00952*
X-00152Y-00946*
X-00156Y-00942*
X-00162Y-0094*
X-00167*
X-00173Y-00942*
X-00177Y-00946*
X-00179Y-0095*
X-00181Y-00952*
X-00189Y-00956*
X-00192Y-00955*
X-00197*
X-00203Y-00957*
X-00207Y-00961*
X-00209Y-00967*
Y-00972*
X-00207Y-00978*
X-00205Y-0098*
Y-0099*
X-00209Y-00994*
X-00269*
X-00272Y-00986*
X-00272Y-00984*
X-00264Y-00977*
X-00259Y-00966*
X-00256Y-00955*
Y-00944*
X-00259Y-00933*
X-00264Y-00922*
X-00267Y-0092*
X-00263Y-0091*
X-00245*
X-00241Y-00909*
X-00238Y-00907*
X-00226Y-00895*
X-00187*
X-00179Y-00902*
Y-00907*
X-00177Y-00913*
X-00173Y-00917*
X-00167Y-00919*
X-00162*
X-00156Y-00917*
X-00152Y-00913*
X-0015Y-00907*
Y-00902*
X-00142Y-00895*
X-00139*
X-00122Y-00912*
X-00118Y-00914*
X-00115Y-00915*
X00154*
X00156Y-00917*
X00162Y-00919*
X00167*
X00173Y-00917*
X00177Y-00913*
X00179Y-00907*
Y-00902*
X00177Y-00896*
X00173Y-00892*
X00167Y-0089*
X00162*
X00156Y-00892*
X00154Y-00894*
X-0011*
X-00127Y-00877*
X-0013Y-00875*
X-00134Y-00874*
X-0015*
X-00153Y-00864*
X-00152Y-00863*
X-0015Y-00857*
Y-00852*
X-00152Y-00846*
X-00156Y-00842*
X-00157Y-00832*
X-0015Y-00825*
X-00115*
X-00111Y-00824*
X-00107Y-00822*
X00129Y-00584*
X00132*
X00138Y-00582*
X00142Y-00578*
X00144Y-00572*
Y-00567*
X00142Y-00561*
X00138Y-00557*
X00132Y-00555*
X00127*
X00121Y-00557*
X00117Y-00561*
X00115Y-00567*
Y-0057*
X-00119Y-00804*
X-00146*
X-00151Y-00794*
X-00147Y-00789*
X-00147*
X-00141Y-00787*
X-00137Y-00783*
X-00135Y-00777*
Y-00772*
X-00137Y-00766*
X-00141Y-00762*
X-00144Y-0075*
X00028Y-00578*
X00033Y-0057*
X00035Y-0056*
Y00115*
X00033Y00124*
X00028Y00133*
X-00119Y0028*
Y00355*
Y0038*
X-0012Y00385*
X-0012Y00387*
Y00392*
X-00122Y00398*
X-00126Y00402*
X-00132Y00404*
X-00137*
X-00139Y00404*
X-00145Y00405*
X-00154Y00403*
X-00163Y00398*
X-00168Y00389*
X-0017Y0038*
Y00355*
Y0027*
X-00169Y00266*
X-00178Y00259*
X-00181Y0026*
X-00188*
X-00196Y00257*
X-00203Y00254*
X-00209Y00248*
X-00212Y00241*
X-00215Y00233*
Y00226*
X-00212Y00218*
X-00209Y00211*
X-00203Y00205*
X-00196Y00202*
X-00191Y002*
X-00061Y0007*
Y-00485*
X-002Y-00624*
X-00263*
X-00264Y-00622*
X-00272Y-00614*
X-00283Y-00609*
X-00294Y-00606*
X-00305*
X-00316Y-00609*
X-00327Y-00614*
X-00335Y-00622*
X-0034Y-00633*
X-00343Y-00644*
Y-00655*
X-0034Y-00666*
X-00335Y-00677*
X-00327Y-00685*
X-00316Y-0069*
X-00305Y-00693*
X-00294*
X-00283Y-0069*
X-00272Y-00685*
X-00264Y-00677*
X-00263Y-00675*
X-0023*
X-00227Y-00685*
X-00228Y-00685*
X-00234Y-00691*
X-00237Y-00698*
X-0024Y-00706*
Y-00713*
X-00237Y-00721*
X-00237Y-00721*
X-00243Y-00731*
X-00259*
X-00264Y-00722*
X-00272Y-00714*
X-00283Y-00709*
X-00294Y-00706*
X-00305*
X-00316Y-00709*
X-00327Y-00714*
X-00335Y-00722*
X-0034Y-00733*
X-00343Y-00744*
Y-00755*
X-0034Y-00766*
X-00335Y-00777*
X-00333Y-00778*
X-00337Y-00788*
X-00417*
X-00421Y-00789*
X-00424Y-00791*
X-00424Y-00791*
X-00543*
X-00543*
X-0055*
X-00552Y-00786*
X-00556Y-00782*
X-00562Y-0078*
X-00567*
X-00573Y-00782*
X-00577Y-00786*
X-00579Y-00792*
Y-00797*
X-00577Y-00803*
X-00574Y-00806*
X-00573Y-00807*
X-00572Y-00818*
X-00574Y-00823*
Y-00829*
X-00572Y-00835*
X-00568Y-00839*
X-00563Y-00841*
X-00557*
X-00551Y-00839*
X-00549Y-00837*
X-00449*
X-00445Y-00836*
X-00443Y-00834*
X-00442*
X-00434Y-00841*
Y-00847*
X-00432Y-00852*
X-00428Y-00856*
X-00422Y-00859*
X-00417*
X-00411Y-00856*
X-00407Y-00852*
X-00395Y-0085*
X-00339Y-00907*
X-00335Y-00909*
X-00335Y-00909*
X-00332Y-00918*
X-00332Y-0092*
X-00335Y-00922*
X-0034Y-00933*
X-00343Y-00944*
Y-00955*
X-0034Y-00966*
X-00335Y-00977*
X-00327Y-00984*
X-00327Y-00986*
X-0033Y-00994*
X-00435*
X-00491Y-00939*
X-00494Y-00936*
X-00498Y-00936*
X-00561*
X-0057Y-00927*
X-00573Y-00925*
X-00577Y-00924*
X-00609*
X-00611Y-00922*
X-00617Y-0092*
X-00622*
X-00628Y-00922*
X-00632Y-00926*
X-00634Y-00932*
Y-00937*
X-00632Y-00943*
X-00628Y-00947*
X-00622Y-00949*
X-00623Y-00959*
X-00736*
X-00737Y-00949*
X-00731Y-00947*
X-00727Y-00943*
X-00725Y-00937*
Y-00934*
X-00724Y-00931*
X-00717Y-00925*
X-00716Y-00925*
X-00709Y-00932*
Y-00932*
X-00706Y-00938*
X-00702Y-00942*
X-00697Y-00944*
X-00691*
X-00685Y-00942*
X-00681Y-00938*
X-00679Y-00932*
Y-00927*
X-00681Y-00921*
X-00685Y-00917*
X-00691Y-00915*
X-00695*
X-00697Y-00914*
X-00705Y-00907*
Y-00907*
X-00707Y-00901*
X-00709Y-00899*
Y-00864*
X-00615Y-00769*
X-00449*
X-00445Y-00768*
X-00442Y-00766*
X-00367Y-00692*
X-00365Y-00688*
X-00364Y-00685*
Y-00045*
X-00232Y00086*
X-0023Y00089*
X-00229Y00093*
Y0047*
X-00125Y00574*
X00781*
X00782Y00573*
X00785Y00566*
X00791Y0056*
X00798Y00557*
X00806Y00555*
X00813*
X00821Y00557*
X00828Y0056*
X00834Y00566*
X00837Y00573*
X0084Y00581*
Y00588*
X00837Y00596*
X00834Y00603*
X00828Y00609*
X00821Y00612*
X00813Y00615*
X00806*
X00798Y00612*
X00791Y00609*
X00785Y00603*
X00782Y00596*
X00781Y00595*
X-0013*
X-00133Y00594*
X-00137Y00592*
X-00238Y0049*
X-00248Y00494*
X-00249Y005*
X-00115Y00634*
X00175*
X00178Y00635*
X00182Y00637*
X00259Y00714*
X00301*
X00302Y00713*
X00305Y00706*
X00311Y007*
X00318Y00697*
X00326Y00695*
X00333*
X00341Y00697*
X00348Y007*
X00354Y00706*
X00357Y00713*
X0036Y00721*
Y00728*
X00357Y00736*
X00354Y00743*
X00348Y00749*
X00341Y00752*
X00333Y00755*
X00326*
X00318Y00752*
X00311Y00749*
X00305Y00743*
X00302Y00736*
X00301Y00735*
X00255*
X00251Y00734*
X00247Y00732*
X0017Y00655*
X-0012*
X-00123Y00654*
X-00127Y00652*
X-00261Y00517*
X-00272Y00517*
X-00299Y00544*
Y00688*
X-00298Y00689*
X-00291Y00692*
X-00285Y00698*
X-00282Y00705*
X-0028Y00713*
Y0072*
X-00282Y00728*
X-00285Y00735*
X-00291Y00741*
X-00298Y00744*
X-00306Y00747*
X-00313*
X-00321Y00744*
X-00328Y00741*
X-00334Y00735*
X-00337Y00728*
X-0034Y0072*
Y00713*
X-00337Y00705*
X-00334Y00698*
X-00328Y00692*
X-00321Y00689*
X-0032Y00688*
Y0054*
X-00319Y00536*
X-00317Y00532*
X-0029Y00505*
Y00448*
X-0029Y00447*
X-003Y00444*
X-00502Y00647*
X-00506Y00649*
X-0051Y0065*
X-00623*
X-00677Y00704*
X-00677Y00705*
X-00675Y00713*
Y0072*
X-00677Y00728*
X-0068Y00735*
X-00686Y00741*
X-00693Y00744*
X-00701Y00747*
X-00708*
X-00716Y00744*
X-00723Y00741*
X-00729Y00735*
X-00732Y00728*
X-00735Y0072*
Y00713*
X-00732Y00705*
X-00729Y00698*
X-00723Y00692*
X-00716Y00689*
X-00708Y00687*
X-00701*
X-00693Y00689*
X-00692Y00689*
X-00635Y00632*
X-00631Y0063*
X-00628Y00629*
X-00514*
X-00315Y0043*
Y00109*
X-00349Y00074*
X-00361Y00077*
X-00361Y00077*
X-00365Y00081*
X-0037Y00083*
X-00376*
X-00377Y00084*
X-00381Y0009*
X-00382Y00091*
X-0038Y00097*
Y00102*
X-00382Y00108*
X-00386Y00112*
X-00392Y00114*
X-00397*
X-00403Y00112*
X-00407Y00108*
X-00409Y00102*
Y00097*
X-00407Y00091*
X-00403Y00087*
X-00397Y00085*
X-00392*
X-00391Y00084*
X-00387Y00078*
X-00386Y00076*
X-00388Y00071*
Y00065*
X-00386Y0006*
X-00382Y00056*
X-00379Y00044*
X-00442Y-00017*
X-00444Y-00021*
X-00445Y-00025*
Y-00655*
X-00478Y-00688*
X-00639*
X-00643Y-00689*
X-00646Y-00691*
X-00795Y-0084*
X-00802Y-00833*
X-008Y-00827*
Y-00822*
X-00802Y-00816*
X-00806Y-00812*
X-00806Y-00809*
X-00807Y-00802*
X-00805Y-00797*
Y-00792*
X-00807Y-00786*
X-00811Y-00782*
X-00817Y-0078*
X-00822*
X-00828Y-00782*
X-00832Y-00786*
X-00834Y-00792*
Y-00797*
X-00832Y-00803*
X-00828Y-00807*
X-00828Y-0081*
X-00827Y-00817*
X-00829Y-00822*
Y-00827*
X-00827Y-00832*
X-00828Y-00839*
X-00828Y-00842*
X-00832Y-00846*
X-00834Y-00852*
Y-00855*
X-00835Y-00858*
X-00842Y-00865*
X-00842*
X-00848Y-00867*
X-00852Y-00871*
X-00854Y-00877*
Y-0088*
X-00856Y-00882*
X-00867Y-00885*
X-00876Y-00876*
X-00879Y-00874*
X-00881Y-00874*
X-00909Y-00845*
Y-00655*
X-00907Y-00653*
X-00905Y-00647*
Y-00644*
X-00864Y-00604*
X-00862Y-006*
X-00861Y-00597*
X-00861Y-00597*
X-00857Y-00593*
X-00855Y-00587*
Y-00584*
X-00847Y-00577*
X-00541*
X-00534Y-00587*
Y-00592*
X-00532Y-00598*
X-00528Y-00602*
X-00522Y-00604*
X-00517*
X-00511Y-00602*
X-00507Y-00598*
X-00495Y-00596*
X-00485Y-00606*
Y-00624*
X-00487Y-00626*
X-00489Y-00632*
Y-00637*
X-00487Y-00643*
X-00483Y-00647*
X-00477Y-00649*
X-00472*
X-00466Y-00647*
X-00462Y-00643*
X-0046Y-00637*
Y-00632*
X-00462Y-00626*
X-00464Y-00624*
Y-00602*
X-00465Y-00598*
X-00467Y-00595*
X-00503Y-00559*
X-00506Y-00557*
X-0051Y-00556*
X-00558*
X-0056Y-00549*
X-0056Y-00546*
X-00557Y-00543*
X-00555Y-00537*
Y-00532*
X-00555Y-0053*
X-00551Y-00521*
X-0055Y-0052*
X-0047*
X-00466Y-00519*
X-00462Y-00517*
X-0046Y-00513*
X-00459Y-0051*
Y00154*
X-00449Y00158*
X-00448Y00157*
X-00442Y00155*
X-00437*
X-00431Y00157*
X-00427Y00161*
X-00425Y00167*
Y00172*
X-00427Y00178*
X-00431Y00182*
X-00437Y00184*
X-00442*
X-00448Y00182*
X-00449Y00181*
X-00459Y00185*
Y00515*
X-0046Y00518*
X-00462Y00522*
X-00466Y00524*
X-0047Y00525*
X-00974*
Y00585*
Y00732*
X-00973Y00734*
X-00972Y00738*
X-00972Y00747*
X-00971Y00764*
X-00967Y0079*
X-00959Y00815*
X-00949Y00839*
X-00936Y00862*
X-00921Y00884*
X-00904Y00904*
X-00884Y00921*
X-00862Y00936*
X-00839Y00949*
X-00815Y00959*
X-0079Y00967*
X-00764Y00971*
X-00747Y00972*
X-00738Y00972*
X-00734Y00973*
X-00732Y00974*
X00734*
X00735Y00974*
G37*
G36*
X-00015Y-00525D02*
Y-0055D01*
X-0017Y-00705*
X-0017Y-00705*
X-00181Y-00701*
X-00182Y-00698*
X-00185Y-00691*
X-00191Y-00685*
X-00192Y-00685*
X-0019Y-00675*
X-00189Y-00675*
X-0018Y-00673*
X-00171Y-00668*
X-00025Y-00521*
X-00015Y-00525*
G37*
G36*
X-00209Y-00817D02*
Y-00822D01*
X-00207Y-00828*
X-00203Y-00832*
X-00202Y-00842*
X-00206Y-00846*
X-00216Y-00847*
X-00222Y-00845*
X-00227*
X-00233Y-00847*
X-00237Y-00851*
X-00239Y-00857*
Y-00862*
X-00238Y-00866*
X-00237Y-00868*
X-00238Y-00877*
X-00239Y-00879*
X-0025Y-00889*
X-00263*
X-00267Y-00879*
X-00264Y-00877*
X-00259Y-00866*
X-00256Y-00855*
Y-00844*
X-00259Y-00833*
X-00264Y-00822*
X-00268Y-00819*
X-00264Y-00809*
X-00217*
X-00209Y-00817*
G37*
%LNhsmm-2*%
%LPC*%
G36*
X-00661Y00945D02*
X-00668D01*
X-00676Y00942*
X-00683Y00939*
X-00689Y00933*
X-00692Y00926*
X-00695Y00918*
Y00911*
X-00692Y00903*
X-00689Y00896*
X-00683Y0089*
X-00676Y00887*
X-00668Y00885*
X-00661*
X-00653Y00887*
X-00646Y0089*
X-0064Y00896*
X-00637Y00903*
X-00635Y00911*
Y00918*
X-00637Y00926*
X-0064Y00933*
X-00646Y00939*
X-00653Y00942*
X-00661Y00945*
G37*
G36*
X00333Y00863D02*
X00326D01*
X00318Y0086*
X00311Y00857*
X00305Y00851*
X00302Y00844*
X003Y00836*
Y00829*
X00302Y00821*
X00305Y00814*
X00311Y00808*
X00318Y00805*
X00326Y00803*
X00333*
X00341Y00805*
X00348Y00808*
X00354Y00814*
X00357Y00821*
X0036Y00829*
Y00836*
X00357Y00844*
X00354Y00851*
X00348Y00857*
X00341Y0086*
X00333Y00863*
G37*
G36*
X-00306Y00853D02*
X-00313D01*
X-00321Y0085*
X-00328Y00847*
X-00334Y00841*
X-00337Y00834*
X-0034Y00826*
Y00819*
X-00337Y00811*
X-00334Y00804*
X-00328Y00798*
X-00321Y00795*
X-00313Y00793*
X-00306*
X-00298Y00795*
X-00291Y00798*
X-00285Y00804*
X-00282Y00811*
X-0028Y00819*
Y00826*
X-00282Y00834*
X-00285Y00841*
X-00291Y00847*
X-00298Y0085*
X-00306Y00853*
G37*
G36*
X00148Y0085D02*
X00141D01*
X00133Y00847*
X00126Y00844*
X0012Y00838*
X00117Y00831*
X00115Y00823*
Y00816*
X00117Y00808*
X0012Y00801*
X00126Y00795*
X00133Y00792*
X00141Y0079*
X00148*
X00156Y00792*
X00163Y00795*
X00169Y00801*
X00172Y00808*
X00175Y00816*
Y00823*
X00172Y00831*
X00169Y00838*
X00163Y00844*
X00156Y00847*
X00148Y0085*
G37*
G36*
X-00511D02*
X-00518D01*
X-00526Y00847*
X-00533Y00844*
X-00539Y00838*
X-00542Y00831*
X-00545Y00823*
Y00816*
X-00542Y00808*
X-00539Y00801*
X-00533Y00795*
X-00526Y00792*
X-00518Y0079*
X-00511*
X-00503Y00792*
X-00496Y00795*
X-0049Y00801*
X-00487Y00808*
X-00485Y00816*
Y00823*
X-00487Y00831*
X-0049Y00838*
X-00496Y00844*
X-00503Y00847*
X-00511Y0085*
G37*
G36*
X00773Y00825D02*
X00766D01*
X00758Y00822*
X00751Y00819*
X00745Y00813*
X00742Y00806*
X0074Y00798*
Y00791*
X00742Y00783*
X00745Y00776*
X00751Y0077*
X00758Y00767*
X00766Y00765*
X00773*
X00781Y00767*
X00788Y0077*
X00794Y00776*
X00797Y00783*
X008Y00791*
Y00798*
X00797Y00806*
X00794Y00813*
X00788Y00819*
X00781Y00822*
X00773Y00825*
G37*
G36*
X-00786Y008D02*
X-00793D01*
X-00801Y00797*
X-00808Y00794*
X-00814Y00788*
X-00817Y00781*
X-0082Y00773*
Y00766*
X-00817Y00758*
X-00814Y00751*
X-00808Y00745*
X-00801Y00742*
X-00793Y0074*
X-00786*
X-00778Y00742*
X-00771Y00745*
X-00765Y00751*
X-00762Y00758*
X-0076Y00766*
Y00773*
X-00762Y00781*
X-00765Y00788*
X-00771Y00794*
X-00778Y00797*
X-00786Y008*
G37*
G36*
X00698Y00755D02*
X00691D01*
X00683Y00752*
X00676Y00749*
X0067Y00743*
X00667Y00736*
X00665Y00728*
Y00721*
X00667Y00713*
X0067Y00706*
X00676Y007*
X00683Y00697*
X00691Y00695*
X00698*
X00706Y00697*
X00713Y007*
X00719Y00706*
X00722Y00713*
X00725Y00721*
Y00728*
X00722Y00736*
X00719Y00743*
X00713Y00749*
X00706Y00752*
X00698Y00755*
G37*
G36*
X00148D02*
X00141D01*
X00133Y00752*
X00126Y00749*
X0012Y00743*
X00117Y00736*
X00115Y00728*
Y00721*
X00117Y00713*
X0012Y00706*
X00126Y007*
X00133Y00697*
X00141Y00695*
X00148*
X00156Y00697*
X00163Y007*
X00169Y00706*
X00172Y00713*
X00175Y00721*
Y00728*
X00172Y00736*
X00169Y00743*
X00163Y00749*
X00156Y00752*
X00148Y00755*
G37*
G36*
X-00486Y0075D02*
X-00493D01*
X-00501Y00747*
X-00508Y00744*
X-00514Y00738*
X-00517Y00731*
X-0052Y00723*
Y00716*
X-00517Y00708*
X-00514Y00701*
X-00508Y00695*
X-00501Y00692*
X-00493Y0069*
X-00486*
X-00478Y00692*
X-00471Y00695*
X-00465Y00701*
X-00462Y00708*
X-0046Y00716*
Y00723*
X-00462Y00731*
X-00465Y00738*
X-00471Y00744*
X-00478Y00747*
X-00486Y0075*
G37*
G36*
X00898Y00665D02*
X00891D01*
X00883Y00662*
X00876Y00659*
X0087Y00653*
X00867Y00646*
X00865Y00638*
Y00631*
X00867Y00623*
X0087Y00616*
X00876Y0061*
X00883Y00607*
X00891Y00605*
X00898*
X00906Y00607*
X00913Y0061*
X00919Y00616*
X00922Y00623*
X00925Y00631*
Y00638*
X00922Y00646*
X00919Y00653*
X00913Y00659*
X00906Y00662*
X00898Y00665*
G37*
G36*
X-00801Y0061D02*
X-00808D01*
X-00816Y00607*
X-00823Y00604*
X-00829Y00598*
X-00832Y00591*
X-00835Y00583*
Y00576*
X-00832Y00568*
X-00829Y00561*
X-00823Y00555*
X-00816Y00552*
X-00808Y0055*
X-00801*
X-00793Y00552*
X-00786Y00555*
X-0078Y00561*
X-00777Y00568*
X-00775Y00576*
Y00583*
X-00777Y00591*
X-0078Y00598*
X-00786Y00604*
X-00793Y00607*
X-00801Y0061*
G37*
G36*
X00342Y00449D02*
X00337D01*
X00331Y00447*
X00327Y00443*
X00325Y00437*
Y00432*
X00327Y00426*
X00331Y00422*
X00337Y0042*
X00342*
X00348Y00422*
X00352Y00426*
X00354Y00432*
Y00437*
X00352Y00443*
X00348Y00447*
X00342Y00449*
G37*
G36*
X-00422Y00409D02*
X-00427D01*
X-00433Y00407*
X-00437Y00403*
X-00439Y00397*
Y00392*
X-00437Y00386*
X-00433Y00382*
X-00437Y00378*
X-00439Y00372*
Y00367*
X-00437Y00361*
X-00433Y00357*
X-00437Y00353*
X-00439Y00347*
Y00342*
X-00437Y00336*
X-00433Y00332*
X-00427Y0033*
X-00422*
X-00416Y00332*
X-00412Y00336*
X-0041Y00341*
X-00407Y0034*
X-00402*
X-00396Y00342*
X-00392Y00346*
X-0039Y00352*
Y00357*
X-00392Y00363*
X-00396Y00367*
X-00392Y00371*
X-0039Y00377*
Y00382*
X-00392Y00388*
X-00396Y00392*
X-00402Y00394*
X-00407*
X-00412Y00403*
X-00416Y00407*
X-00422Y00409*
G37*
G36*
X00137Y00404D02*
X00132D01*
X00126Y00402*
X00122Y00398*
X0012Y00392*
Y00387*
X00121Y00381*
X00116Y00377*
X00112Y00373*
X0011Y00367*
Y00362*
X00112Y00356*
X00116Y00352*
X00121Y00348*
X0012Y00342*
Y00337*
X00122Y00331*
X00126Y00327*
X00132Y00325*
X00137*
X00143Y00327*
X00147Y00331*
X00149Y00336*
X00152Y00335*
X00157*
X00163Y00337*
X00167Y00341*
X00169Y00347*
Y00352*
X00167Y00358*
X00163Y00362*
X00167Y00366*
X00169Y00372*
Y00377*
X00167Y00383*
X00163Y00387*
X00157Y00389*
X00152*
X00147Y00398*
X00143Y00402*
X00137Y00404*
G37*
G36*
X-00412Y00149D02*
X-00417D01*
X-00423Y00147*
X-00427Y00143*
X-00429Y00137*
Y00132*
X-00427Y00126*
X-00423Y00122*
X-00417Y0012*
X-00412*
X-00406Y00122*
X-00402Y00126*
X-004Y00132*
Y00137*
X-00402Y00143*
X-00406Y00147*
X-00412Y00149*
G37*
G36*
X00162Y-00185D02*
X00157D01*
X00151Y-00187*
X00147Y-00191*
X00145Y-00197*
Y-00202*
X00147Y-00208*
X00151Y-00212*
X00157Y-00214*
X00162*
X00168Y-00212*
X00172Y-00208*
X00174Y-00202*
Y-00197*
X00172Y-00191*
X00168Y-00187*
X00162Y-00185*
G37*
G36*
X-00102Y-0019D02*
X-00107D01*
X-00113Y-00192*
X-00117Y-00196*
X-00119Y-00202*
Y-00207*
X-00117Y-00213*
X-00113Y-00217*
X-00107Y-00219*
X-00102*
X-00096Y-00217*
X-00092Y-00213*
X-0009Y-00207*
Y-00202*
X-00092Y-00196*
X-00096Y-00192*
X-00102Y-0019*
G37*
G36*
X00127Y-0021D02*
X00122D01*
X00116Y-00212*
X00112Y-00216*
X0011Y-00222*
Y-00227*
X00112Y-00233*
X00116Y-00237*
X00122Y-00239*
X00127*
X00133Y-00237*
X00137Y-00233*
X00139Y-00227*
Y-00222*
X00137Y-00216*
X00133Y-00212*
X00127Y-0021*
G37*
G36*
X-00132Y-0022D02*
X-00137D01*
X-00143Y-00222*
X-00147Y-00226*
X-00149Y-00232*
Y-00237*
X-00147Y-00243*
X-00143Y-00247*
X-00137Y-00249*
X-00132*
X-00126Y-00247*
X-00122Y-00243*
X-0012Y-00237*
Y-00232*
X-00122Y-00226*
X-00126Y-00222*
X-00132Y-0022*
G37*
G36*
X-00294Y-00306D02*
X-00305D01*
X-00316Y-00309*
X-00327Y-00314*
X-00335Y-00322*
X-0034Y-00333*
X-00343Y-00344*
Y-00355*
X-0034Y-00366*
X-00335Y-00377*
X-00327Y-00385*
X-00316Y-0039*
X-00305Y-00393*
X-00294*
X-00283Y-0039*
X-00272Y-00385*
X-00264Y-00377*
X-00262Y-00373*
X-00261Y-00372*
X-0025Y-00372*
X-00248Y-00374*
X-00241Y-00377*
X-00233Y-0038*
X-00226*
X-00218Y-00377*
X-00211Y-00374*
X-00205Y-00368*
X-00202Y-00361*
X-002Y-00353*
Y-00346*
X-00202Y-00338*
X-00205Y-00331*
X-00211Y-00325*
X-00218Y-00322*
X-00226Y-0032*
X-00233*
X-00241Y-00322*
X-00248Y-00325*
X-0025Y-00327*
X-00261Y-00327*
X-00262Y-00326*
X-00264Y-00322*
X-00272Y-00314*
X-00283Y-00309*
X-00294Y-00306*
G37*
G36*
X00305D02*
X00294D01*
X00283Y-00309*
X00272Y-00314*
X00264Y-00322*
X00259Y-00333*
X00256Y-00344*
Y-00355*
X00259Y-00366*
X00264Y-00377*
X00272Y-00385*
X00283Y-0039*
X00294Y-00393*
X00305*
X00316Y-0039*
X00327Y-00385*
X00335Y-00377*
X0034Y-00366*
X00343Y-00355*
Y-00344*
X0034Y-00333*
X00335Y-00322*
X00327Y-00314*
X00316Y-00309*
X00305Y-00306*
G37*
G36*
X-00162Y-0041D02*
X-00167D01*
X-00173Y-00412*
X-00177Y-00416*
X-00179Y-00422*
Y-00427*
X-00177Y-00433*
X-00173Y-00437*
X-00167Y-00439*
X-00162*
X-00156Y-00437*
X-00152Y-00433*
X-0015Y-00427*
Y-00422*
X-00152Y-00416*
X-00156Y-00412*
X-00162Y-0041*
G37*
G36*
X-00112Y-0042D02*
X-00117D01*
X-00123Y-00422*
X-00127Y-00426*
X-00129Y-00432*
Y-00437*
X-00127Y-00443*
X-00123Y-00447*
X-00117Y-00449*
X-00112*
X-00106Y-00447*
X-00102Y-00443*
X-001Y-00437*
Y-00432*
X-00102Y-00426*
X-00106Y-00422*
X-00112Y-0042*
G37*
G36*
X00082Y-0046D02*
X00077D01*
X00071Y-00462*
X00067Y-00466*
X00065Y-00472*
Y-00477*
X00067Y-00483*
X00071Y-00487*
X00077Y-00489*
X00082*
X00088Y-00487*
X00092Y-00483*
X00094Y-00477*
Y-00472*
X00092Y-00466*
X00088Y-00462*
X00082Y-0046*
G37*
G36*
X00305Y-00406D02*
X00294D01*
X00283Y-00409*
X00272Y-00414*
X00264Y-00422*
X00259Y-00433*
X00256Y-00444*
Y-00455*
X00259Y-00466*
X00264Y-00477*
X00272Y-00485*
X00283Y-0049*
X00294Y-00493*
X00305*
X00316Y-0049*
X00327Y-00485*
X00335Y-00477*
X0034Y-00466*
X00343Y-00455*
Y-00444*
X0034Y-00433*
X00335Y-00422*
X00327Y-00414*
X00316Y-00409*
X00305Y-00406*
G37*
G36*
X-00294D02*
X-00305D01*
X-00316Y-00409*
X-00327Y-00414*
X-00335Y-00422*
X-0034Y-00433*
X-00343Y-00444*
Y-00455*
X-0034Y-00466*
X-00335Y-00477*
X-00327Y-00485*
X-00316Y-0049*
X-00305Y-00493*
X-00294*
X-00283Y-0049*
X-00272Y-00485*
X-00264Y-00477*
X-00259Y-00466*
X-00256Y-00455*
Y-00444*
X-00259Y-00433*
X-00264Y-00422*
X-00272Y-00414*
X-00283Y-00409*
X-00294Y-00406*
G37*
G36*
X00305Y-00506D02*
X00294D01*
X00283Y-00509*
X00272Y-00514*
X00264Y-00522*
X00259Y-00533*
X00256Y-00544*
Y-00555*
X00259Y-00566*
X00264Y-00577*
X00272Y-00585*
X00283Y-0059*
X00294Y-00593*
X00305*
X00316Y-0059*
X00327Y-00585*
X00335Y-00577*
X0034Y-00566*
X00343Y-00555*
Y-00544*
X0034Y-00533*
X00335Y-00522*
X00327Y-00514*
X00316Y-00509*
X00305Y-00506*
G37*
G36*
X00657Y-00595D02*
X00652D01*
X00646Y-00597*
X00642Y-00601*
X0064Y-00607*
Y-00612*
X00642Y-00618*
X00646Y-00622*
X00652Y-00624*
X00657*
X00663Y-00622*
X00667Y-00618*
X00669Y-00612*
Y-00607*
X00667Y-00601*
X00663Y-00597*
X00657Y-00595*
G37*
G36*
X00617D02*
X00612D01*
X00606Y-00597*
X00602Y-00601*
X006Y-00607*
Y-00612*
X00602Y-00618*
X00606Y-00622*
X00612Y-00624*
X00617*
X00623Y-00622*
X00627Y-00618*
X00629Y-00612*
Y-00607*
X00627Y-00601*
X00623Y-00597*
X00617Y-00595*
G37*
G36*
X00777Y-0063D02*
X00772D01*
X00766Y-00632*
X00762Y-00636*
X0076Y-00642*
Y-00647*
X00762Y-00653*
X00766Y-00657*
X00772Y-00659*
X00777*
X00783Y-00657*
X00787Y-00653*
X00789Y-00647*
Y-00642*
X00787Y-00636*
X00783Y-00632*
X00777Y-0063*
G37*
G36*
X-00542D02*
X-00547D01*
X-00553Y-00632*
X-00557Y-00636*
X-00559Y-00642*
Y-00647*
X-00557Y-00653*
X-00553Y-00657*
X-00547Y-00659*
X-00542*
X-00536Y-00657*
X-00532Y-00653*
X-0053Y-00647*
Y-00642*
X-00532Y-00636*
X-00536Y-00632*
X-00542Y-0063*
G37*
G36*
X-00727Y-00656D02*
X-00732D01*
X-00738Y-00658*
X-00742Y-00662*
X-00744Y-00667*
Y-00669*
X-00745Y-0067*
X-00754Y-00675*
X-00756Y-00674*
X-00762*
X-00767Y-00676*
X-00772Y-00681*
X-00775Y-00686*
X-00782Y-00685*
X-00787*
X-00793Y-00687*
X-00797Y-00691*
X-00799Y-00697*
Y-00702*
X-00797Y-00708*
X-00793Y-00712*
X-00787Y-00714*
X-00782*
X-00776Y-00712*
X-00772Y-00708*
X-00768Y-00703*
X-00762Y-00704*
X-00756*
X-00751Y-00702*
X-00746Y-00697*
X-00744Y-00692*
Y-0069*
X-00743Y-00689*
X-00735Y-00684*
X-00732Y-00685*
X-00727*
X-00721Y-00683*
X-00717Y-00679*
X-00715Y-00673*
Y-00667*
X-00717Y-00662*
X-00721Y-00658*
X-00727Y-00656*
G37*
G36*
X-00667D02*
X-00672D01*
X-00678Y-00658*
X-00682Y-00662*
X-00684Y-00667*
Y-00673*
X-00682Y-00679*
X-00678Y-00683*
X-00672Y-00685*
X-00667*
X-00661Y-00683*
X-00657Y-00679*
X-00655Y-00673*
Y-00667*
X-00657Y-00662*
X-00661Y-00658*
X-00667Y-00656*
G37*
G36*
X00305Y-00606D02*
X00294D01*
X00283Y-00609*
X00272Y-00614*
X00264Y-00622*
X00259Y-00633*
X00256Y-00644*
Y-00655*
X00259Y-00666*
X00264Y-00677*
X00272Y-00685*
X00283Y-0069*
X00294Y-00693*
X00305*
X00316Y-0069*
X00327Y-00685*
X00335Y-00677*
X0034Y-00666*
X00343Y-00655*
Y-00644*
X0034Y-00633*
X00335Y-00622*
X00327Y-00614*
X00316Y-00609*
X00305Y-00606*
G37*
G36*
X00577Y-0071D02*
X00572D01*
X00566Y-00712*
X00562Y-00716*
X00561Y-00719*
X0056Y-00721*
X00556Y-00721*
X0055Y-00721*
X0055Y-00721*
X00549Y-0072*
X00548Y-00717*
X00544Y-00713*
X00539Y-00711*
X00533*
X00527Y-00713*
X00523Y-00717*
X00521Y-00723*
Y-00729*
X00523Y-00734*
X00527Y-00738*
X00533Y-00741*
X00539*
X00544Y-00738*
X00548Y-00734*
X0055Y-00731*
X0055Y-0073*
X00554Y-00729*
X0056Y-00729*
X00561Y-0073*
X00561Y-00731*
X00562Y-00733*
X00566Y-00737*
X00572Y-00739*
X00577*
X00583Y-00737*
X00587Y-00733*
X00589Y-00727*
Y-00722*
X00587Y-00716*
X00583Y-00712*
X00577Y-0071*
G37*
G36*
X00305Y-00706D02*
X00294D01*
X00283Y-00709*
X00272Y-00714*
X00264Y-00722*
X00259Y-00733*
X00256Y-00744*
Y-00755*
X00259Y-00766*
X00264Y-00777*
X00272Y-00785*
X00283Y-0079*
X00294Y-00793*
X00305*
X00316Y-0079*
X00327Y-00785*
X00335Y-00777*
X0034Y-00766*
X00343Y-00755*
Y-00744*
X0034Y-00733*
X00335Y-00722*
X00327Y-00714*
X00316Y-00709*
X00305Y-00706*
G37*
G36*
X-00597Y-0081D02*
X-00602D01*
X-00608Y-00812*
X-00612Y-00816*
X-00614Y-00822*
Y-00827*
X-00612Y-00833*
X-00608Y-00837*
X-00602Y-00839*
X-00597*
X-00591Y-00837*
X-00587Y-00833*
X-00585Y-00827*
Y-00822*
X-00587Y-00816*
X-00591Y-00812*
X-00597Y-0081*
G37*
G36*
X00167Y-0084D02*
X00162D01*
X00156Y-00842*
X00152Y-00846*
X0015Y-00852*
Y-00857*
X00152Y-00863*
X00156Y-00867*
X00162Y-00869*
X00167*
X00173Y-00867*
X00177Y-00863*
X00179Y-00857*
Y-00852*
X00177Y-00846*
X00173Y-00842*
X00167Y-0084*
G37*
G36*
X00602Y-0085D02*
X00597D01*
X00591Y-00852*
X00587Y-00856*
X00585Y-00862*
Y-00867*
X00587Y-00873*
X00591Y-00877*
X00597Y-00879*
X00602*
X00608Y-00877*
X00612Y-00873*
X00614Y-00867*
Y-00862*
X00612Y-00856*
X00608Y-00852*
X00602Y-0085*
G37*
G36*
X00305Y-00806D02*
X00294D01*
X00283Y-00809*
X00272Y-00814*
X00264Y-00822*
X00259Y-00833*
X00256Y-00844*
Y-00855*
X00259Y-00866*
X00264Y-00877*
X00272Y-00885*
X00283Y-0089*
X00294Y-00893*
X00305*
X00316Y-0089*
X00327Y-00885*
X00335Y-00877*
X0034Y-00866*
X00343Y-00855*
Y-00844*
X0034Y-00833*
X00335Y-00822*
X00327Y-00814*
X00316Y-00809*
X00305Y-00806*
G37*
G36*
X-00597Y-00865D02*
X-00602D01*
X-00608Y-00867*
X-00612Y-00871*
X-00614Y-00877*
Y-00882*
X-00612Y-00888*
X-00608Y-00892*
X-00602Y-00894*
X-00597*
X-00591Y-00892*
X-00587Y-00888*
X-00585Y-00882*
Y-00877*
X-00587Y-00871*
X-00591Y-00867*
X-00597Y-00865*
G37*
G36*
X-00372Y-009D02*
X-00377D01*
X-00383Y-00902*
X-00387Y-00906*
X-00389Y-00912*
Y-00915*
X-00392Y-00917*
X-00396Y-0092*
X-00399Y-00921*
X-00402Y-0092*
X-00407*
X-00413Y-00922*
X-00417Y-00926*
X-00419Y-00932*
Y-00937*
X-00417Y-00943*
X-00413Y-00947*
X-00407Y-00949*
X-00402*
X-00396Y-00947*
X-00392Y-00943*
X-0039Y-00937*
Y-00934*
X-00387Y-00932*
X-00383Y-00929*
X-0038Y-00928*
X-00377Y-00929*
X-00372*
X-00366Y-00927*
X-00362Y-00923*
X-0036Y-00917*
Y-00912*
X-00362Y-00906*
X-00366Y-00902*
X-00372Y-009*
G37*
G36*
X00232Y-00925D02*
X00227D01*
X00221Y-00927*
X00217Y-00931*
X00215Y-00937*
Y-00942*
X00217Y-00948*
X00221Y-00952*
X00227Y-00954*
X00232*
X00238Y-00952*
X00242Y-00948*
X00244Y-00942*
Y-00937*
X00242Y-00931*
X00238Y-00927*
X00232Y-00925*
G37*
G36*
X00162Y-0094D02*
X00157D01*
X00151Y-00942*
X00147Y-00946*
X00145Y-00952*
Y-00957*
X00147Y-00963*
X00151Y-00967*
X00157Y-00969*
X00162*
X00168Y-00967*
X00172Y-00963*
X00174Y-00957*
Y-00952*
X00172Y-00946*
X00168Y-00942*
X00162Y-0094*
G37*
G36*
X00202Y-00955D02*
X00197D01*
X00191Y-00957*
X00187Y-00961*
X00185Y-00967*
Y-00972*
X00187Y-00978*
X00191Y-00982*
X00197Y-00984*
X00202*
X00208Y-00982*
X00212Y-00978*
X00214Y-00972*
Y-00967*
X00212Y-00961*
X00208Y-00957*
X00202Y-00955*
G37*
G36*
X00305Y-00906D02*
X00294D01*
X00283Y-00909*
X00272Y-00914*
X00264Y-00922*
X00259Y-00933*
X00256Y-00944*
Y-00955*
X00259Y-00966*
X00264Y-00977*
X00272Y-00985*
X00283Y-0099*
X00294Y-00993*
X00305*
X00316Y-0099*
X00327Y-00985*
X00335Y-00977*
X0034Y-00966*
X00343Y-00955*
Y-00944*
X0034Y-00933*
X00335Y-00922*
X00327Y-00914*
X00316Y-00909*
X00305Y-00906*
G37*
G36*
X00839Y-00955D02*
X0083D01*
X00821Y-00957*
X00813Y-00962*
X00807Y-00968*
X00803Y-00974*
X00802Y-00976*
X00792Y-0098*
X00787*
X00781Y-00982*
X00777Y-00986*
X00775Y-00992*
X00773Y-00998*
X00767Y-01*
X00761Y-01002*
X00757Y-01006*
X00755Y-01012*
Y-01017*
X00757Y-01023*
X00761Y-01027*
X00757Y-01031*
X00755Y-01037*
Y-01042*
X00757Y-01048*
X00761Y-01052*
X00767Y-01054*
X00772*
X00778Y-01052*
X00786Y-01057*
X00792Y-01059*
X00797*
X00803Y-01057*
X00807Y-01053*
X00811Y-01048*
X00817Y-01049*
X00822*
X00828Y-01047*
X00832Y-01043*
X00834Y-01037*
Y-01032*
X00842Y-01023*
X00848Y-01022*
X00856Y-01017*
X00862Y-01011*
X00867Y-01003*
X00869Y-00994*
Y-00985*
X00867Y-00976*
X00862Y-00968*
X00856Y-00962*
X00848Y-00957*
X00839Y-00955*
G37*
%LNhsmm-3*%
%LPD*%
G54D51*
X-00035Y-00495D02*
Y0008D01*
X-00189Y-0076D02*
X0001Y-0056D01*
Y00115*
X-0019Y-0065D02*
X-00035Y-00495D01*
X-00145Y00355D02*
Y0038D01*
Y0027D02*
Y00355D01*
X-00185Y0023D02*
X-00035Y0008D01*
X-00145Y0027D02*
X0001Y00115D01*
X-0023Y-0076D02*
X-00189D01*
X-00292Y-00757D02*
X-00233D01*
X-0023Y-0076*
X-003Y-0075D02*
X-00292Y-00757D01*
X-003Y-0065D02*
X-0019D01*
G54D52*
X-00156Y-00815D02*
X-00115D01*
X-00223Y-00858D02*
X-002D01*
X-00225Y-0086D02*
X-00223Y-00858D01*
X-002D02*
X-00156Y-00815D01*
X-00115D02*
X0013Y-0057D01*
X-00195Y-00995D02*
Y-0097D01*
X-00134Y-00885D02*
X-00115Y-00905D01*
X-0023Y-00885D02*
X-00134D01*
X-00115Y-00905D02*
X00165D01*
X-00245Y-009D02*
X-0023Y-00885D01*
X-00417Y-00798D02*
X-00173D01*
X-0015Y-00775*
X-00565Y-00795D02*
X-00562D01*
X-00543Y-00802D02*
D01*
X-0042D02*
X-00417Y-00798D01*
X-00555Y-00802D02*
X-00543D01*
X-00562Y-00795D02*
X-00555Y-00802D01*
X-00543D02*
X-0042D01*
X-00446Y-00824D02*
X-00407D01*
X-00331Y-009*
X-00449Y-00826D02*
X-00446Y-00824D01*
X-0056Y-00826D02*
X-00449D01*
X-00331Y-009D02*
X-00245D01*
X-0044Y-01005D02*
X-00205D01*
X-00619Y-00759D02*
X-00449D01*
X-0072Y-0086D02*
X-00619Y-00759D01*
X-00449D02*
X-00375Y-00685D01*
X-00886Y-00883D02*
X-00883D01*
X-0092Y-0085D02*
X-00886Y-00883D01*
X-00883D02*
X-00863Y-00903D01*
X-00705Y-01092D02*
X-00682Y-01069D01*
X-00595*
X-00719Y-01051D02*
X-00588D01*
X-0076Y-01092D02*
X-00719Y-01051D01*
X-00595Y-01069D02*
X-00568Y-01097D01*
X-00588Y-01051D02*
X-0056Y-01079D01*
X00448*
X-0084Y-0101D02*
X-00533D01*
X-0081Y-0097D02*
X-0057D01*
X-00831Y-00992D02*
X-0056D01*
X-00568Y-01097D02*
X00456D01*
X00558Y-00995*
X0054Y-00987D02*
Y-00825D01*
X00448Y-01079D02*
X0054Y-00987D01*
X00558Y-00995D02*
Y-00835D01*
X0054Y-00825D02*
X0068Y-00685D01*
X00775*
X00558Y-00835D02*
X0069Y-00703D01*
X00753D02*
X00775Y-00725D01*
X0069Y-00703D02*
X00753D01*
X-00205Y-01005D02*
X-00195Y-00995D01*
X-00523Y-0102D02*
X-00521D01*
X-00533Y-0101D02*
X-00523Y-0102D01*
X-0056Y-00992D02*
X-00558Y-0099D01*
X-0052*
X-00498Y-00946D02*
X-0044Y-01005D01*
X-00565Y-00946D02*
X-00498D01*
X-00843Y-0098D02*
X-00831Y-00992D01*
X-0087Y-0104D02*
X-0084Y-0101D01*
X-00577Y-00935D02*
X-00565Y-00946D01*
X-0057Y-0097D02*
X-0057Y-00969D01*
X-0062Y-00935D02*
X-00577D01*
X-0082Y-00959D02*
X-0081Y-0097D01*
X-00741Y-00933D02*
X-0074Y-00935D01*
X-00741Y-00933D02*
Y-0092D01*
X-0082Y-00959D02*
Y-0092D01*
X-00795Y-00945D02*
Y-00854D01*
X-00742Y-00919D02*
Y-00857D01*
Y-00919D02*
X-00741Y-0092D01*
X-0072Y-0091D02*
Y-0086D01*
X-00925Y-0098D02*
X-00843D01*
X-00475Y-00635D02*
Y-00602D01*
X-0024Y00093D02*
Y00475D01*
X-00395Y-00035D02*
X-00262Y00097D01*
X-00435Y-00025D02*
X-00305Y00105D01*
X-00395Y-00679D02*
Y-00035D01*
X-00262Y00097D02*
Y00503D01*
X-00375Y-00685D02*
Y-00041D01*
X-00435Y-00659D02*
Y-00025D01*
X-0028Y00104D02*
Y0051D01*
X-00413Y-00663D02*
Y-00028D01*
X-00305Y00105D02*
Y00435D01*
X-00413Y-00028D02*
X-0028Y00104D01*
X-00375Y-00041D02*
X-0024Y00093D01*
X-00742Y-00857D02*
X-0062Y-00735D01*
X-00467Y-00717D02*
X-00413Y-00663D01*
X-0045Y-00735D02*
X-00395Y-00679D01*
X-00474Y-00699D02*
X-00435Y-00659D01*
X-00639Y-00699D02*
X-00474D01*
X-0062Y-00735D02*
X-0045D01*
X-00632Y-00717D02*
X-00467D01*
X-00769Y-00854D02*
X-00632Y-00717D01*
X-00795Y-00854D02*
X-00639Y-00699D01*
X-0051Y0064D02*
X-00305Y00435D01*
X-00769Y-00909D02*
Y-00854D01*
X-00628Y0064D02*
X-0051D01*
X-00705Y00717D02*
X-00628Y0064D01*
X-0031Y0054D02*
Y00717D01*
Y0054D02*
X-0028Y0051D01*
X-00822Y-0092D02*
X-0082D01*
X-0024Y00475D02*
X-0013Y00585D01*
X0081*
X-00262Y00503D02*
X-0012Y00645D01*
X00175*
X00255Y00725D02*
X0033D01*
X00175Y00645D02*
X00255Y00725D01*
X-00837Y-00905D02*
X-00822Y-0092D01*
X-00865Y-00905D02*
X-00837D01*
X-0092Y-0085D02*
Y-00645D01*
X-0087Y-00585D02*
X-00852Y-00567D01*
X-0051*
X-00475Y-00602*
X-00871Y-00596D02*
Y-00586D01*
X-0092Y-00645D02*
X-00871Y-00596D01*
Y-00586D02*
X-0087Y-00585D01*
G54D53*
X00835Y-0099D03*
G54D54*
X00935Y-0099D03*
G54D55*
X003Y-0095D03*
Y-0085D03*
Y-0075D03*
Y-0065D03*
Y-0055D03*
Y-0045D03*
Y-0035D03*
X-003D03*
Y-0045D03*
Y-0055D03*
Y-0065D03*
Y-0075D03*
Y-0085D03*
Y-0095D03*
G54D56*
X0008Y-00475D03*
X-0073Y-0067D03*
X-006Y-0088D03*
X-00225Y-0086D03*
X0013Y-0057D03*
X-00105Y-00205D03*
X00155Y0035D03*
X00125Y-00225D03*
X0016Y-002D03*
X-00135Y-00235D03*
X-00165Y-00425D03*
X-00195Y-0097D03*
X002D03*
X-00115Y-00435D03*
X-00165Y-00855D03*
Y-00955D03*
Y-00905D03*
X-0052Y-0059D03*
X-0057Y-00535D03*
X0044Y0036D03*
X00125Y00365D03*
X-00405Y-00935D03*
X00135Y0034D03*
Y0039D03*
X00155Y00375D03*
X-0015Y-00775D03*
X-00195Y-0082D03*
X-00135Y0034D03*
X-00155Y00355D03*
X-00405D03*
X-00135Y0039D03*
X-0042Y-00844D03*
X-00375Y-00915D03*
X-0056Y-00826D03*
X-0067Y-0067D03*
X-00545Y-00645D03*
X-00863Y-00903D03*
X-00705Y-01092D03*
X-0076D03*
X00536Y-00726D03*
X-00521Y-0102D03*
X-0052Y-0099D03*
X00575Y-00725D03*
X006Y-00865D03*
X-0057Y-00969D03*
X-0062Y-00935D03*
X0069Y-0074D03*
X-0065Y-01092D03*
X-00694Y-0093D03*
X-006Y-00825D03*
X-0074Y-00935D03*
X-00795Y-00945D03*
X-0072Y-0091D03*
X-00565Y-00795D03*
X-0044Y0017D03*
X-00415Y00135D03*
X-00395Y001D03*
X-00373Y00068D03*
X-00475Y-00635D03*
X-0082Y-00855D03*
X-0084Y-0088D03*
X-00815Y-00825D03*
X-0082Y-00795D03*
Y-0092D03*
X-00769Y-00909D03*
X-00405Y0038D03*
X-00425Y00395D03*
Y0037D03*
X-00925Y-0098D03*
X0077Y-0104D03*
X00795Y-01045D03*
X0077Y-01015D03*
X0079Y-00995D03*
X00795Y-0102D03*
X0082Y-01035D03*
X-00425Y00345D03*
X-00135Y00365D03*
X-00155Y0038D03*
X00425Y00335D03*
Y00385D03*
X00405Y00375D03*
Y0035D03*
X0034Y00435D03*
X00775Y-00725D03*
Y-00685D03*
Y-00645D03*
X00655Y-0061D03*
X00615D03*
X0016Y-00955D03*
X0023Y-0094D03*
X00165Y-00905D03*
Y-00855D03*
X-00759Y-00689D03*
X-00785Y-007D03*
X-0087Y-00585D03*
X-0092Y-00645D03*
X-0087Y-0104D03*
G54D57*
X-00185Y0023D03*
X-0021Y-0071D03*
X-0023Y-0035D03*
X00695Y00725D03*
X-0031Y00717D03*
Y00823D03*
X0033Y00833D03*
X0077Y00795D03*
X0081Y00585D03*
X00895Y00635D03*
X0033Y00725D03*
X00145Y0082D03*
Y00725D03*
X-00805Y0058D03*
X-00705Y00717D03*
X-00515Y0082D03*
X-0049Y0072D03*
X-00665Y00915D03*
X-0079Y0077D03*
G54D58*
X0012Y-00335D03*
X-0012D03*
X0Y0034D03*
M02*