%FSTAX23Y23*%
%MOIN*%
%SFA1B1*%

%IPPOS*%
%ADD9500C,0.011811*%
%ADD9501C,0.039370*%
%ADD9502C,0.078740*%
%LNhsmm-1*%
%LPD*%
G54D9500*
X-00255Y-0096D03*
X-0026Y-00935D03*
X-002Y-00965D03*
X-0018Y-00875D03*
X-00145D03*
X-00115Y-0088D03*
X-00085Y-0087D03*
X-00055Y-00845D03*
X-0002Y-00835D03*
X-00003Y-00896D03*
X00003Y-00924D03*
X00105Y-0092D03*
X00114Y-0083D03*
X00075Y-0083D03*
X00051Y-00767D03*
X00098Y-00735D03*
X00082Y-00704D03*
X00066Y-00672D03*
Y-00609D03*
X00082Y-00578D03*
X0007Y-00515D03*
X0013Y-00535D03*
X00161Y-00609D03*
X0016Y-00645D03*
X00161Y-00672D03*
X00192D03*
X00177Y-00704D03*
X00208D03*
X00215Y-00745D03*
X00224Y-00798D03*
X00192D03*
X00161D03*
X0016Y-00834D03*
X00155Y-00755D03*
X00185Y-009D03*
X00195Y-0097D03*
X00245Y-01005D03*
X0026Y-01065D03*
X00303Y-01082D03*
X0044Y-0107D03*
Y-0105D03*
X00465Y-01045D03*
Y-0107D03*
X0049D03*
Y-01045D03*
X00523Y-01082D03*
X00565Y-01065D03*
Y-01045D03*
X0059D03*
Y-01065D03*
X00615D03*
Y-01045D03*
X00585Y-0102D03*
X00595Y-0099D03*
X0057Y-00975D03*
Y-0095D03*
Y-00925D03*
Y-009D03*
X00546Y-00903D03*
Y-00928D03*
Y-00953D03*
X00545Y-0098D03*
X00525Y-0097D03*
Y-00945D03*
Y-0092D03*
X00485Y-00915D03*
X00495Y-009D03*
X0047D03*
X00447D03*
X0046Y-0092D03*
X00435D03*
Y-0095D03*
X0046D03*
X00485D03*
X0047Y-0097D03*
X00445D03*
X0061Y-00965D03*
X00627Y-00905D03*
X0061Y-00869D03*
X0059Y-00838D03*
X00565Y-00815D03*
X00566Y-00786D03*
Y-00766D03*
X00591D03*
Y-00786D03*
X00616D03*
Y-00766D03*
X00641D03*
Y-00786D03*
X00541D03*
Y-00766D03*
X00516D03*
Y-00786D03*
X0047Y-00795D03*
X00445Y-008D03*
X0043Y-00785D03*
X00455Y-0078D03*
X0044Y-00765D03*
X00415Y-0076D03*
X00413Y-00678D03*
X00378Y-00669D03*
X00402Y-00612D03*
X0035Y-00575D03*
X00355Y-0053D03*
X0038Y-005D03*
Y-00455D03*
X00429Y-00452D03*
X00444Y-0042D03*
X00413D03*
X00429Y-00389D03*
X00444Y-00357D03*
X00429Y-00326D03*
X00444Y-00294D03*
X00413D03*
X00397Y-00263D03*
X00429D03*
X00444Y-00231D03*
X00413D03*
X00381D03*
X0035D03*
X00318D03*
X00334Y-00263D03*
X00366D03*
X00318Y-00294D03*
X00145Y-00263D03*
X00146Y-00372D03*
X00161Y-0042D03*
X00066Y-00357D03*
X-0002Y-0039D03*
X-0008Y-0038D03*
X-001Y-004D03*
X-00125Y-0038D03*
X-00106Y-00326D03*
X-0009Y-00294D03*
X-00122D03*
X-00106Y-00263D03*
X-0009Y-00231D03*
X-00122D03*
X-00027D03*
X-00011Y-00263D03*
X-00027Y-00294D03*
X-00311D03*
Y-00231D03*
Y-0042D03*
X-00235Y-00395D03*
X-00255Y-0064D03*
X-00225Y-00705D03*
Y-00755D03*
X-002Y-00767D03*
X-00137D03*
Y-00704D03*
X-00125Y-00569D03*
X-00011Y-00578D03*
X-00027Y-00609D03*
X-00255Y-00785D03*
X-0009Y-0099D03*
X-00011Y-01019D03*
X00019D03*
X00051D03*
X00082D03*
X00114D03*
X00715Y-0105D03*
Y-0107D03*
X0074D03*
Y-0105D03*
X00765D03*
Y-0107D03*
X008Y-01055D03*
Y-01035D03*
X00825D03*
Y-01055D03*
X0085D03*
Y-01035D03*
X00917Y-0105D03*
X00948D03*
X00932Y-01082D03*
X00901D03*
X00917Y-00924D03*
X00948D03*
X00932Y-00893D03*
X00901D03*
X0086Y-00895D03*
Y-00875D03*
X00835D03*
Y-00895D03*
X0081D03*
Y-00875D03*
X0078D03*
Y-00895D03*
X00755D03*
Y-00875D03*
X0073D03*
Y-00895D03*
Y-00925D03*
Y-00945D03*
X00755D03*
Y-00925D03*
X0078D03*
Y-00945D03*
X00805D03*
Y-00925D03*
X0083D03*
Y-00945D03*
X00855D03*
Y-00925D03*
X00785Y-00975D03*
Y-00995D03*
X0076D03*
Y-00975D03*
X00735D03*
Y-00995D03*
X0074Y-0084D03*
X0076D03*
Y-00815D03*
X0074D03*
Y-0079D03*
X0076D03*
X0082Y-00715D03*
X0082Y-00605D03*
X00854Y-00609D03*
X00885D03*
X00917D03*
X00901Y-00578D03*
X00869D03*
X00838D03*
X00854Y-00546D03*
X00885D03*
X00822D03*
X00791D03*
X0078Y-00605D03*
X007D03*
X00515Y-00594D03*
X00444Y-00483D03*
X00932Y-00641D03*
X00948Y-00672D03*
X00932Y-00704D03*
X-00515D03*
X-00547D03*
X-00578D03*
X-0061D03*
X-00641D03*
X-00673D03*
X-00657Y-00672D03*
X-00626D03*
X-00641Y-00641D03*
X-0061D03*
X-0065Y-00765D03*
X-00657Y-00861D03*
X-00673Y-00893D03*
X-00657Y-00924D03*
X-00689D03*
X-0072D03*
X-00752D03*
X-00783D03*
X-00815D03*
X-00846D03*
X-00878D03*
X-00909D03*
X-00941D03*
X-00956Y-00893D03*
Y-0083D03*
Y-00767D03*
X-00941Y-00735D03*
X-00909D03*
X-00925Y-00704D03*
X-00956D03*
X-00941Y-00672D03*
X-00956Y-00641D03*
X-00925D03*
X-00909Y-00609D03*
X-00893Y-00578D03*
X-00878Y-00546D03*
X-00846D03*
X-00855Y-00595D03*
X-00815Y-006D03*
X-00775D03*
X-00735D03*
X-00815Y-00735D03*
X-00855Y-0074D03*
Y-00845D03*
X-0083Y-0083D03*
X-00799D03*
X-00815Y-00861D03*
X-0083Y-00893D03*
X-00799D03*
Y-00956D03*
X-00767D03*
X-00736D03*
X-00704D03*
X-00673D03*
X-00657Y-00987D03*
X-00689D03*
X-0072D03*
X-00752D03*
X-00783D03*
X-00815D03*
X-00846D03*
X-00878D03*
X-00909D03*
X-00941D03*
X-00956Y-00956D03*
X-00925D03*
X-00893D03*
X-00862D03*
X-0083D03*
Y-01019D03*
X-00799D03*
X-00815Y-0105D03*
X-00846D03*
X-0083Y-01082D03*
X-00799D03*
X-00673D03*
X-00657Y-0105D03*
X-00689D03*
X-00673Y-01019D03*
X-0055Y-01015D03*
Y-00965D03*
X-00545Y-00915D03*
X-0055Y-00865D03*
Y-00815D03*
X-00455D03*
Y-00865D03*
Y-00915D03*
X-00465Y-00985D03*
Y-01065D03*
X-00484Y-01082D03*
X-00515Y-01065D03*
X-00345Y-0098D03*
X-0069Y-00845D03*
X-00956Y-01019D03*
Y-01082D03*
X-00421Y-00515D03*
X-00385Y-00525D03*
X-00374Y-00483D03*
X-00437D03*
Y-0042D03*
X-00405D03*
X-00437Y-00357D03*
Y-00294D03*
X-00405D03*
X-00421Y-00263D03*
X-00389D03*
X-00358D03*
X-00326D03*
X-00342Y-00231D03*
X-00374D03*
X-00405D03*
X-00437D03*
X-00421Y-002D03*
X-00389D03*
X-00358D03*
X-00326D03*
X-00342Y-00168D03*
X-00374D03*
X-00405D03*
X-00437D03*
X-00421Y-00137D03*
X-00389D03*
X-00358D03*
X-00326D03*
X-00342Y-00105D03*
X-00374D03*
X-00405D03*
X-00437D03*
X-00421Y-00074D03*
X-00389D03*
X-00358D03*
X-00326D03*
X-00342Y-00042D03*
X-00374D03*
X-00405D03*
X-00437D03*
X-00421Y-00011D03*
X-00389D03*
X-00358D03*
X-00326D03*
X-00342Y0002D03*
X-00374D03*
X-00405D03*
X-00437D03*
X-00421Y00051D03*
X-00389D03*
X-00358D03*
X-00326D03*
X-00342Y00083D03*
X-00374D03*
X-00405D03*
X-00437D03*
X-00421Y00114D03*
X-00389D03*
X-00358D03*
X-00374Y00146D03*
X-00405D03*
X-00437D03*
X-00421Y00177D03*
X-00437Y00209D03*
X-00415Y00265D03*
Y0029D03*
Y00315D03*
Y0034D03*
Y00365D03*
Y0039D03*
X-00389Y00429D03*
X-00358D03*
X-00326D03*
X-00342Y00461D03*
X-00374D03*
X-00389Y00492D03*
X-00358D03*
X-00326D03*
X-00342Y00524D03*
X-00374D03*
X-00405D03*
X-00437D03*
X-00578Y00555D03*
X-0061D03*
X-00641D03*
X-00626Y00587D03*
X-00594D03*
X-00752D03*
X-00767Y00555D03*
X-00799D03*
X-0083D03*
X-00878Y0065D03*
X-00909D03*
X-00941D03*
X-00956Y00681D03*
X-00925D03*
X-00909Y00712D03*
X-00846Y00775D03*
X-0083Y00807D03*
X-00815Y00838D03*
X-00783D03*
X-00767Y0087D03*
X-00862D03*
X-00893D03*
X-00878Y00901D03*
Y00838D03*
X-00846D03*
X-00795Y0077D03*
X-00767Y00744D03*
X-00725Y00705D03*
X-00594Y00775D03*
X-00531D03*
X-00468D03*
X-00437D03*
X-00405D03*
X-00374D03*
X-00342D03*
X-00345Y0082D03*
X-00358Y0087D03*
X-00326D03*
X-00342Y00901D03*
X-00326Y00933D03*
X-00389Y0087D03*
X-00421D03*
X-00641D03*
X-00626Y00901D03*
X-00657D03*
X-00673Y00933D03*
X-00641D03*
X-00704D03*
X-00345Y00715D03*
X-00325Y00665D03*
X-00326Y00303D03*
X-00342Y00272D03*
X-00326Y0024D03*
X-00385Y00265D03*
Y0029D03*
Y00315D03*
X-00311Y00209D03*
Y00083D03*
Y0002D03*
Y-00042D03*
Y-00105D03*
Y-00168D03*
X-00122D03*
X-0009D03*
X-00106Y-00137D03*
X-00122Y-00105D03*
X-00106Y-00011D03*
X-0009Y0002D03*
X-00122D03*
X-00106Y00051D03*
X-00122Y00083D03*
X-00059Y00146D03*
X-00027D03*
X00003D03*
X00035D03*
X00019Y00177D03*
X00051D03*
X00035Y00209D03*
X00003D03*
X-00027D03*
X-00059D03*
X-00043Y0024D03*
X-00011D03*
X00019D03*
X00051D03*
X00145Y00265D03*
Y0029D03*
Y00315D03*
Y0034D03*
Y00365D03*
Y0039D03*
X00177Y00429D03*
X00208D03*
X00235Y0044D03*
X00275Y00455D03*
X0028Y005D03*
X00287Y00524D03*
X00255D03*
X00224D03*
X00192D03*
X00161D03*
X00177Y00555D03*
X00208D03*
X0024D03*
X00271D03*
X00305Y00545D03*
X00334Y00555D03*
X0035Y00524D03*
X00381D03*
X00413D03*
X00444D03*
X00495Y00575D03*
X00523Y00555D03*
X00555D03*
X00586D03*
X00617D03*
X00649D03*
X00775D03*
X00806D03*
X00838D03*
X00869D03*
X00901D03*
X00932D03*
X00948Y00587D03*
X00917D03*
X00885D03*
X00854D03*
X00822D03*
X00838Y00618D03*
X00869D03*
X00901D03*
X00932D03*
X00948Y0065D03*
X00917D03*
X00885D03*
X00901Y00681D03*
X00932D03*
X00869Y00744D03*
X00854Y00775D03*
X00822D03*
X00791D03*
X00759D03*
X00728D03*
X0068Y00807D03*
X00665Y00838D03*
X0067Y009D03*
X00728Y00901D03*
X00712Y00933D03*
X00838D03*
X00885Y00901D03*
X00869Y0087D03*
X00901D03*
X00917Y00838D03*
X00854D03*
X00822D03*
X00791D03*
X00775Y00807D03*
X00806D03*
X00838D03*
X00806Y00681D03*
X00822Y0065D03*
X00759Y00587D03*
X00535Y006D03*
X00507Y0065D03*
X00492Y00681D03*
X00523D03*
X00507Y00712D03*
X0046Y00681D03*
X00429D03*
X00397D03*
X0034Y0068D03*
X00305Y00725D03*
Y00825D03*
X00271Y0087D03*
X0024D03*
X00208D03*
X00177D03*
X00145D03*
X00114D03*
X00082D03*
X00051D03*
X00019D03*
X-00011D03*
X-00043D03*
X-00074D03*
X-00106D03*
X-00137D03*
X-00169D03*
X-002D03*
X-00232D03*
X-00263D03*
X-00295D03*
X-00311Y00901D03*
Y00775D03*
X-00279D03*
X-00248D03*
X-00216D03*
X-00185D03*
X-00153D03*
X-00059D03*
X-00027D03*
X00003D03*
X00035D03*
X00066D03*
Y00901D03*
X00098D03*
X00129D03*
X00114Y00933D03*
X00145D03*
X00082D03*
X00051D03*
X00019D03*
X-00011D03*
X-00043D03*
X-00074D03*
X-00106D03*
X-00137D03*
X-00122Y00901D03*
X-0009D03*
X-00059D03*
X-00027D03*
X00003D03*
X00035D03*
X-00153D03*
X-0012Y00665D03*
X-0009Y0065D03*
X-00059D03*
X-00074Y00618D03*
X-00043D03*
X-00027Y00524D03*
X00003D03*
X00035D03*
X00019Y00492D03*
X00051D03*
X00035Y00461D03*
X00003D03*
X-00027D03*
X-00059D03*
X-00043Y00492D03*
X-00011D03*
Y00429D03*
X00019D03*
X00051D03*
X00035Y00398D03*
X00003D03*
X-00027D03*
X-00059D03*
X-00043Y00429D03*
X-0014Y00395D03*
Y0037D03*
Y00345D03*
Y0032D03*
Y00295D03*
Y0027D03*
X-00175Y00265D03*
Y0029D03*
Y00315D03*
X-00225Y0042D03*
X-0026D03*
X-003D03*
X-00311Y00461D03*
X-00279D03*
X-00295Y00492D03*
X-00263D03*
X-00311Y00524D03*
X-00153D03*
X00123Y00576D03*
X00165Y0059D03*
X00177Y00492D03*
X00208D03*
X0024D03*
X00192Y00461D03*
X00185Y00315D03*
Y0029D03*
Y00265D03*
X00161Y00209D03*
X00145Y00177D03*
X00161Y00146D03*
X00145Y00114D03*
X00066Y00083D03*
X00082Y00051D03*
X00066Y0002D03*
Y-00105D03*
Y-00168D03*
X0014Y-002D03*
X00162Y-00211D03*
X00334Y-002D03*
X00366D03*
X00397D03*
X00429D03*
X00444Y-00168D03*
X00413D03*
X00381D03*
X0035D03*
X00318D03*
X00334Y-00137D03*
X00366D03*
X00397D03*
X00429D03*
X00444Y-00105D03*
X00413D03*
X00381D03*
X0035D03*
X00318D03*
X00334Y-00074D03*
X00366D03*
X00397D03*
X00429D03*
X00444Y-00042D03*
X00413D03*
X00381D03*
X0035D03*
X00397Y-00011D03*
X00429D03*
X00444Y0002D03*
X00413D03*
X00429Y00051D03*
X00444Y00083D03*
X00413D03*
X00381D03*
X00366Y00114D03*
X00397D03*
X00429D03*
X00444Y00146D03*
X00413D03*
X00381D03*
X0035D03*
X00397Y00177D03*
X00429D03*
X00444Y00209D03*
X00413D03*
X00415Y00265D03*
Y0029D03*
Y00315D03*
Y0034D03*
Y00365D03*
Y0039D03*
X00366Y00429D03*
X00381Y00461D03*
X0035D03*
X00366Y00492D03*
X00375Y00315D03*
Y0029D03*
Y00265D03*
X-00059Y00272D03*
X-00043Y00177D03*
X-00011D03*
Y00114D03*
X-00027Y-00042D03*
X-00011Y-00074D03*
X-00106Y-002D03*
X00085Y0065D03*
X00318Y00901D03*
X00303Y00933D03*
X00334D03*
X0061Y00775D03*
X00633Y00712D03*
G54D9501*
X00835Y-0099D03*
X00935D03*
G54D9502*
X0036Y-0036D03*
X-0036D03*
X0Y0032D03*
M02*