%FSTAX23Y23*%
%MOIN*%
%SFA1B1*%

%IPPOS*%
%ADD16C,0.010000*%
%ADD19C,0.020000*%
%ADD28R,0.025591X0.035433*%
%ADD36R,0.035433X0.025591*%
%ADD58C,0.040000*%
%ADD59C,0.059055*%
%ADD60R,0.059055X0.059055*%
%ADD61C,0.019685*%
%ADD62C,0.118110*%
%ADD63R,0.033465X0.023622*%
%ADD64R,0.034252X0.053937*%
%LNhsmm-1*%
%LPD*%
G36*
X00735Y00974D02*
X00739Y00973D01*
X00748Y00973*
X00765Y00972*
X00791Y00967*
X00816Y0096*
X0084Y0095*
X00863Y00937*
X00885Y00922*
X00905Y00905*
X00922Y00885*
X00937Y00863*
X0095Y0084*
X0096Y00816*
X00967Y00791*
X00972Y00765*
X00973Y00748*
X00973Y00739*
X00974Y00735*
X00974Y00734*
Y00525*
X0047*
X00466Y00524*
X00462Y00522*
X0046Y00518*
X00459Y00515*
Y-00515*
X0046Y-00518*
X00462Y-00522*
X00466Y-00524*
X0047Y-00525*
X00974*
Y-01104*
X-00974*
Y-0052*
X-0047*
X-00466Y-00519*
X-00462Y-00517*
X-0046Y-00513*
X-00459Y-0051*
Y00515*
X-0046Y00518*
X-00462Y00522*
X-00466Y00524*
X-0047Y00525*
X-00974*
Y00585*
Y00732*
X-00973Y00734*
X-00972Y00738*
X-00972Y00747*
X-00971Y00764*
X-00967Y0079*
X-00959Y00815*
X-00949Y00839*
X-00936Y00862*
X-00921Y00884*
X-00904Y00904*
X-00884Y00921*
X-00862Y00936*
X-00839Y00949*
X-00815Y00959*
X-0079Y00967*
X-00764Y00971*
X-00747Y00972*
X-00738Y00972*
X-00734Y00973*
X-00732Y00974*
X00734*
X00735Y00974*
G37*
%LNhsmm-2*%
%LPC*%
G36*
X0067Y00925D02*
X0038D01*
X0037Y00923*
X00361Y00918*
X00289Y00845*
X-00745*
X-00754Y00843*
X-00763Y00838*
X-00813Y00788*
X-00818Y00779*
X-0082Y0077*
X-00818Y0076*
X-00813Y00751*
X-0081Y0075*
Y00655*
X-00809Y00649*
X-00805Y00644*
X-00785Y00624*
X-0078Y0062*
X-00775Y00619*
X-00371*
X-0024Y00488*
Y00435*
X-0025Y00431*
X-00251Y00432*
X-00257Y00434*
X-00262*
X-00268Y00432*
X-00272Y00428*
X-00274Y00422*
Y00417*
X-00272Y00411*
X-00268Y00407*
X-00262Y00405*
X-00257*
X-00251Y00407*
X-0025Y00408*
X-0024Y00404*
Y-00378*
X-00245Y-00384*
X-00247Y-00386*
X-00247Y-00386*
X-00247Y-00387*
X-00249Y-00389*
X-00249Y-00391*
X-00249Y-00392*
Y-00392*
X-0025Y-00395*
X-00249Y-00397*
Y-00397*
X-00249Y-00398*
X-00249Y-004*
X-00247Y-00402*
X-00247Y-00403*
X-00247Y-00403*
X-00245Y-00405*
X-00243Y-00407*
X-00243Y-00407*
X-00242Y-00407*
X-0024Y-00409*
X-00238Y-00409*
X-00237Y-00409*
X-00237*
X-00235Y-0041*
X-00232Y-00409*
X-00232*
X-00231Y-00409*
X-00229Y-00409*
X-00227Y-00407*
X-00226Y-00407*
X-00226Y-00407*
X-00224Y-00405*
X-00214Y-00395*
X-0021Y-0039*
X-00209Y-00385*
Y00222*
X-002Y00226*
X-0019Y00215*
Y-00864*
X-00192Y-00866*
X-00194Y-00872*
Y-00877*
X-00192Y-00883*
X-00188Y-00887*
X-00182Y-00889*
X-00177*
X-00171Y-00887*
X-00168Y-00884*
X-00162Y-00883*
X-00156Y-00884*
X-00153Y-00887*
X-00147Y-00889*
X-00142*
X-00136Y-00887*
X-00127Y-00888*
X-00123Y-00892*
X-00117Y-00894*
X-00112*
X-00106Y-00892*
X-00102Y-00888*
X-00102Y-00887*
X-00094Y-00883*
X-0009Y-00883*
X-00087Y-00884*
X-00082*
X-00076Y-00882*
X-00072Y-00878*
X-0007Y-00872*
Y-00867*
X-00071Y-00863*
X-00063Y-00857*
X-00063Y-00857*
X-00057Y-00859*
X-00052*
X-00046Y-00857*
X-00042Y-00853*
X-0004Y-00848*
X-0004Y-00848*
X-00036Y-00847*
X-0003Y-00845*
X-00028Y-00847*
X-00022Y-00849*
X-00017*
X-00011Y-00847*
X-00007Y-00843*
X-00005Y-00837*
Y-00832*
X-00007Y-00826*
X-00009Y-00824*
Y-00709*
X00047Y-00652*
X00049Y-00648*
X0005Y-00645*
Y-0053*
X0006Y-00526*
X00061Y-00527*
X00067Y-00529*
X00072*
X00074Y-00529*
X00083Y-00533*
X00084Y-00534*
Y-00549*
X00085Y-00553*
X00087Y-00556*
X00094Y-00563*
Y-00705*
X00095Y-00708*
X00097Y-00712*
X0014Y-00754*
Y-00757*
X00142Y-00763*
X00146Y-00767*
X00152Y-00769*
X00157*
X00163Y-00767*
X00167Y-00763*
X00169Y-00757*
X00172Y-00756*
X00179Y-00753*
X00181Y-00754*
X00185Y-00755*
X00204*
X00206Y-00757*
X00212Y-00759*
X00218*
X00223Y-00757*
X00227Y-00753*
X0023Y-00747*
Y-00742*
X00227Y-00736*
X00223Y-00732*
X00218Y-0073*
X00212*
X00206Y-00732*
X00204Y-00734*
X00189*
X0014Y-00685*
Y-0066*
X0015Y-00656*
X00151Y-00657*
X00157Y-00659*
X00162*
X00168Y-00657*
X00172Y-00653*
X00174Y-00647*
Y-00645*
X00182Y-00638*
X00221*
X00225Y-00637*
X00229Y-00635*
X0024Y-00623*
X00242Y-0062*
X00243Y-00616*
Y-00597*
X00251*
Y-00552*
X00215*
Y-00597*
X00223*
Y-00612*
X00217Y-00617*
X00178*
X00174Y-00618*
X00171Y-0062*
X00161Y-0063*
X00157*
X00151Y-00632*
X0015Y-00633*
X0014Y-00629*
Y-00563*
X00139Y-00559*
X00138Y-00558*
X00138Y-00547*
X00142Y-00543*
X00144Y-00537*
Y-00532*
X00142Y-00526*
X00138Y-00522*
X00132Y-0052*
X00127*
X0012Y-00512*
Y-00351*
X00127Y-00344*
X00129Y-0034*
X0013Y-00336*
Y-00222*
X00137Y-00214*
X00142*
X00149Y-00219*
X00153Y-00223*
X00159Y-00225*
X00165*
X0017Y-00223*
X00174Y-00219*
X00176Y-00213*
Y-00208*
X00174Y-00202*
X00172Y-002*
Y-00089*
X00171Y-00085*
X0017Y-00083*
Y00026*
X00274Y0013*
X00284Y00126*
Y00011*
X00219Y-00054*
X00215Y-00059*
X00214Y-00065*
Y-00405*
X00215Y-0041*
X00219Y-00415*
X00308Y-00505*
X00305Y-00514*
X00251*
Y-00492*
X00215*
Y-00524*
X00215Y-00525*
X00215Y-00525*
Y-00537*
X00251*
Y-00535*
X00338*
X00344Y-0054*
X00346Y-00542*
X00346Y-00542*
X00347Y-00542*
X00349Y-00544*
X00351Y-00544*
X00352Y-00544*
X00352*
X00355Y-00545*
X00357Y-00544*
X00357*
X00358Y-00544*
X0036Y-00544*
X00362Y-00542*
X00363Y-00542*
X00363Y-00542*
X00365Y-0054*
X00367Y-00538*
X00367Y-00538*
X00367Y-00537*
X00369Y-00535*
X00369Y-00533*
X00369Y-00532*
Y-00532*
X0037Y-0053*
X00369Y-00527*
Y-00527*
X00369Y-00526*
X00369Y-00524*
X00367Y-00522*
X00367Y-00521*
X00368Y-00519*
X00374Y-00513*
X00377Y-00514*
X00382*
X00388Y-00512*
X00389Y-00511*
X00399Y-00515*
Y-00587*
X00392Y-00589*
X00384Y-00594*
X00378Y-00602*
X00376Y-00612*
X00378Y-00622*
X00384Y-0063*
X00392Y-00636*
X00402Y-00638*
X00424*
X00432Y-00646*
Y-00705*
X00434Y-00714*
X00436Y-00716*
Y-00736*
X00436*
X00438Y-0074*
X00438Y-00743*
X00434Y-00751*
X00431Y-00752*
X00423Y-00747*
X00417Y-00745*
X00412*
X00406Y-00747*
X00402Y-00751*
X004Y-00757*
Y-00762*
X00402Y-00768*
X00406Y-00772*
X00412Y-00774*
X00415Y-00782*
Y-00787*
X00417Y-00793*
X00421Y-00797*
X00427Y-00799*
X0043*
Y-00802*
X00432Y-00808*
X00433Y-00809*
X00429Y-00819*
X0019*
X00186Y-0082*
X00182Y-00822*
X00181Y-00824*
X00171*
X00168Y-00822*
X00163Y-00819*
X00157*
X00151Y-00822*
X00147Y-00826*
X00145Y-00831*
Y-00837*
X00146Y-00839*
X00142Y-00848*
X0014Y-00849*
X0009*
X00086Y-00839*
X00087Y-00838*
X00089Y-00832*
Y-00827*
X00087Y-00821*
X00083Y-00817*
X00077Y-00815*
X00072*
X00066Y-00817*
X00062Y-00821*
X0006Y-00827*
Y-00832*
X00062Y-00838*
X00063Y-00839*
X00059Y-00849*
X00005*
X00001Y-0085*
X-00002Y-00852*
X-00097Y-00947*
X-00099Y-00951*
X-001Y-00955*
Y-00979*
X-00102Y-00981*
X-00104Y-00987*
Y-00992*
X-00102Y-00998*
X-00098Y-01002*
X-00092Y-01004*
X-00087*
X-00081Y-01002*
X-00077Y-00998*
X-00075Y-00992*
Y-00987*
X-00077Y-00981*
X-00079Y-00979*
Y-00959*
X-00026Y-00905*
X-00016Y-00904*
X-00011Y-00909*
X-00006Y-00911*
X0*
X00004Y-00909*
X00009Y-00904*
X00011Y-00899*
Y-00893*
X00011Y-00893*
X00015Y-00889*
X00016Y-00888*
X00019Y-00885*
X00165*
X00166Y-00886*
X0017Y-00895*
X0017Y-00897*
Y-00902*
X00162Y-00909*
X00115*
X00113Y-00907*
X00107Y-00905*
X00102*
X00096Y-00907*
X00092Y-00911*
X0009Y-00917*
Y-00922*
X00092Y-00928*
X00096Y-00932*
X00102Y-00934*
X00107*
X00113Y-00932*
X00115Y-0093*
X0025*
X0027Y-00949*
X00266Y-00959*
X00205*
X00203Y-00957*
X00197Y-00955*
X00192*
X00186Y-00957*
X00182Y-00961*
X0018Y-00967*
Y-00972*
X00182Y-00978*
X00186Y-00982*
X0019Y-00984*
X00193Y-00989*
X00195Y-00994*
Y-01037*
X00231*
Y-01025*
X00231Y-01025*
X00241Y-01019*
X00242Y-01019*
X00247*
X00253Y-01017*
X00257Y-01013*
X00259Y-01007*
Y-01002*
X00257Y-00996*
X00253Y-00992*
X00251Y-00991*
X00251Y-0098*
X00251Y-0098*
X0027*
X00317Y-01027*
X00321Y-01029*
X00325Y-0103*
X00424*
X00428Y-0104*
X00427Y-01041*
X00425Y-01047*
Y-01052*
X00427Y-01058*
X00429Y-0106*
X00427Y-01061*
X00425Y-01067*
Y-01072*
X00427Y-01078*
X00431Y-01082*
X00437Y-01084*
X00442*
X00448Y-01082*
X00452Y-01078*
X00456Y-01082*
X00462Y-01084*
X00467*
X00473Y-01082*
X00477Y-01078*
X00481Y-01082*
X00487Y-01084*
X00492*
X00498Y-01082*
X00502Y-01078*
X00504Y-01072*
Y-01067*
X00502Y-01061*
X00498Y-01057*
X00502Y-01053*
X00504Y-01047*
Y-01042*
X00504Y-0104*
X00508Y-01031*
X00509Y-0103*
X00545*
X00546Y-01031*
X0055Y-0104*
X0055Y-01042*
Y-01047*
X00552Y-01053*
X00554Y-01055*
X00552Y-01056*
X0055Y-01062*
Y-01067*
X00552Y-01073*
X00556Y-01077*
X00562Y-01079*
X00567*
X00573Y-01077*
X00577Y-01073*
X00581Y-01077*
X00587Y-01079*
X00592*
X00598Y-01077*
X00602Y-01073*
X00606Y-01077*
X00612Y-01079*
X00617*
X00623Y-01077*
X00627Y-01073*
X00629Y-01067*
Y-01062*
X00627Y-01056*
X00625Y-01055*
X00627Y-01053*
X00629Y-01047*
Y-01042*
X00627Y-01036*
X00623Y-01032*
X00617Y-0103*
X00612*
X00606Y-01032*
X00599Y-01026*
X00599Y-01022*
Y-01017*
X00598Y-01014*
X00598Y-0101*
X00602Y-01002*
X00603Y-01002*
X00607Y-00998*
X00609Y-00992*
Y-00987*
X00612Y-00979*
X00618Y-00977*
X00622Y-00973*
X00624Y-00967*
Y-00962*
X00622Y-00956*
X00618Y-00952*
X00618Y-00952*
Y-00927*
X00625Y-00919*
X0063*
X00636Y-00917*
X0064Y-00913*
X00642Y-00907*
Y-00902*
X0064Y-00896*
X00636Y-00892*
X0063Y-0089*
X00625*
X00622Y-00891*
X00618Y-00882*
X00622Y-00877*
X00624Y-00872*
Y-00866*
X00622Y-00861*
X00618Y-00856*
X00612Y-00854*
X00609*
X00604Y-00849*
X00603Y-00845*
X00605Y-00841*
X00605Y-00841*
Y-00835*
X00602Y-00829*
X00598Y-00825*
X00593Y-00823*
X00588*
X00585Y-00821*
X00579Y-00815*
Y-00812*
X00577Y-00806*
X00583Y-00799*
X00588Y-00801*
X00594*
X006Y-00799*
X00604Y-00794*
X00608Y-00799*
X00613Y-00801*
X00619*
X00625Y-00799*
X00629Y-00794*
X00633Y-00799*
X00638Y-00801*
X00644*
X0065Y-00799*
X00654Y-00794*
X00656Y-00789*
Y-00783*
X00654Y-00778*
X00652Y-00776*
X00654Y-00774*
X00656Y-00769*
Y-00763*
X00654Y-00758*
X0065Y-00753*
X00644Y-00751*
X00638*
X00633Y-00753*
X00629Y-00757*
X00625Y-00753*
X00619Y-00751*
X00613*
X00608Y-00753*
X00604Y-00757*
X006Y-00753*
X00594Y-00751*
X00588*
X00583Y-00753*
X00579Y-00757*
X00575Y-00753*
X00569Y-00751*
X00563*
X00558Y-00753*
X00554Y-00757*
X0055Y-00753*
X00544Y-00751*
X00538*
X00533Y-00753*
X00527Y-00755*
X00525Y-00754*
X00525Y-00753*
X00524Y-00753*
X00522Y-00752*
X0052Y-00751*
X00519Y-00751*
X00519*
X00516Y-00751*
X00486*
X00479Y-00742*
X0048Y-00736*
Y-00721*
X00482Y-00719*
X00492Y-00723*
Y-00734*
X00537*
Y-00732*
X00552*
Y-00736*
X00597*
Y-00732*
X00612*
Y-00736*
X00657*
Y-007*
X00612*
Y-00701*
X00597*
Y-007*
X00552*
Y-00701*
X00537*
Y-00699*
X00493*
X00492*
X00483Y-00695*
Y-00681*
X00492Y-00677*
X00493*
X00496*
X00496Y-00678*
X00505Y-00683*
X00515Y-00685*
X00516Y-00685*
X00566*
X00575Y-00686*
X00755*
X00802Y-00733*
X0081Y-00739*
X0082Y-00741*
X0083Y-00739*
X00838Y-00733*
X00844Y-00725*
X00846Y-00715*
X00844Y-00705*
X00838Y-00697*
X00784Y-00643*
X00776Y-00637*
X00766Y-00635*
X00582*
X00573Y-00634*
X0054*
Y-00594*
X00538Y-00585*
X00533Y-00576*
X00524Y-00571*
X00515Y-00569*
X00505Y-00571*
X00496Y-00576*
X00491Y-00585*
X00489Y-00594*
Y-00619*
X00479Y-00622*
X00476Y-00617*
X00452Y-00594*
X00444Y-00589*
X00434Y-00587*
X0043*
Y-0049*
X00429Y-00484*
X00425Y-00479*
X0039Y-00444*
X00388Y-00442*
X00388Y-00442*
X00387Y-00442*
X00385Y-0044*
X00383Y-0044*
X00382Y-0044*
X00382*
X0038Y-00439*
X00331*
X00275Y-00383*
Y-00096*
X00335Y-00035*
X00339Y-0003*
X0034Y-00025*
Y00525*
X00339Y0053*
X00335Y00535*
X00315Y00555*
X00313Y00557*
X00313Y00557*
X00312Y00557*
X0031Y00559*
X00308Y00559*
X00307Y00559*
X00307*
X00305Y0056*
X00302Y00559*
X00302*
X00301Y00559*
X00299Y00559*
X00297Y00557*
X00296Y00557*
X00296Y00557*
X00294Y00555*
X00292Y00553*
X00292Y00553*
X00292Y00552*
X0029Y0055*
X0029Y00548*
X0029Y00547*
Y00547*
X00289Y00545*
X0029Y00542*
Y00542*
X0029Y00541*
X0029Y00539*
X00292Y00537*
X00292Y00536*
X00292Y00536*
X00294Y00534*
X00309Y00518*
Y00504*
X003Y00501*
X0029Y0051*
X00288Y00512*
X00288Y00512*
X00287Y00512*
X00285Y00514*
X00283Y00514*
X00282Y00514*
X00282*
X0028Y00515*
X00277Y00514*
X00277*
X00276Y00514*
X00274Y00514*
X00272Y00512*
X00271Y00512*
X00271Y00512*
X00269Y0051*
X00267Y00508*
X00267Y00508*
X00267Y00507*
X00265Y00505*
X00265Y00503*
X00265Y00502*
Y00502*
X00264Y005*
X00265Y00497*
Y00497*
X00265Y00496*
X00265Y00494*
X00267Y00492*
X00267Y00491*
X00267Y00491*
X00269Y00489*
X00278Y00479*
X00274Y00469*
X00272*
X00266Y00467*
X00262Y00463*
X0026Y00457*
Y00452*
X00262Y00446*
X00262Y00444*
X00251Y0044*
X00249Y00441*
Y00442*
X00247Y00448*
X00243Y00452*
X00237Y00454*
X00232*
X00226Y00452*
X00222Y00448*
X0022Y00442*
Y00437*
X00222Y00431*
X00226Y00427*
X00232Y00425*
X00235*
X00249Y0041*
Y00169*
X0014Y00059*
X0013Y00063*
Y00245*
X00131Y00246*
X0014Y0025*
X00142Y0025*
X00147*
X00153Y00252*
X00157Y00256*
X00159Y00262*
Y00267*
X00157Y00273*
X00153Y00277*
X00157Y00281*
X00159Y00287*
Y00292*
X00157Y00298*
X00153Y00302*
X00157Y00306*
X00159Y00312*
Y00317*
X00157Y00323*
X00153Y00327*
X00157Y00331*
X00159Y00337*
Y00342*
X00157Y00348*
X00153Y00352*
X00157Y00356*
X00159Y00362*
Y00367*
X00157Y00373*
X00153Y00377*
X00157Y00381*
X00159Y00387*
Y00392*
X00157Y00398*
X00153Y00402*
X00147Y00404*
X00142*
X0014Y00404*
X00131Y00408*
X0013Y00409*
Y0054*
X00164Y00575*
X00167*
X00173Y00577*
X00177Y00581*
X00179Y00587*
Y00592*
X00187Y00599*
X00308*
X0034Y00567*
X00343Y00565*
X00347Y00564*
X00484*
X00486Y00562*
X00492Y0056*
X00497*
X00503Y00562*
X00507Y00566*
X00509Y00572*
Y00577*
X00509Y00579*
X00513Y00588*
X00514Y00589*
X00524*
X00526Y00587*
X00532Y00585*
X00537*
X00543Y00587*
X00547Y00591*
X00549Y00597*
Y00602*
X00547Y00608*
X00543Y00612*
X00537Y00614*
X00532*
X00526Y00612*
X00524Y0061*
X00364*
X00309Y00665*
X00312Y00674*
X00326*
X00327Y00671*
X00331Y00667*
X00337Y00665*
X00342*
X00348Y00667*
X00352Y00671*
X00354Y00677*
Y00682*
X00352Y00688*
X00348Y00692*
X00342Y00694*
X00337*
X00336Y00694*
X00335Y00695*
X00325*
X00321Y00705*
X00365Y00749*
X0061*
X00619Y00751*
X00628Y00756*
X00633Y00765*
X00635Y00775*
X00633Y00784*
X00628Y00793*
X00619Y00798*
X0061Y008*
X00355*
X00345Y00798*
X00336Y00793*
X00284Y0074*
X-00715*
X-00724Y00738*
X-00733Y00733*
X-00743Y00723*
X-00748Y00714*
X-0075Y00705*
X-00748Y00695*
X-00743Y00686*
X-00734Y00681*
X-00725Y00679*
X-00715Y00681*
X-00706Y00686*
X-00704Y00689*
X-00331*
X-0033Y00689*
X-00331Y00678*
X-00333Y00677*
X-00337Y00673*
X-00339Y00667*
Y00662*
X-00337Y00656*
X-00333Y00652*
X-00327Y0065*
X-00324*
X-00215Y0054*
Y00519*
X-00224Y00516*
X-00354Y00645*
X-00359Y00649*
X-00365Y0065*
X-00768*
X-00779Y00661*
Y0075*
X-00776Y00751*
X-00734Y00794*
X003*
X00309Y00796*
X00318Y00801*
X00323Y00806*
X0039Y00874*
X0067*
X00679Y00876*
X00688Y00881*
X00693Y0089*
X00695Y009*
X00693Y00909*
X00688Y00918*
X00679Y00923*
X0067Y00925*
G37*
G36*
X-00297Y00434D02*
X-00302D01*
X-00308Y00432*
X-00312Y00428*
X-00314Y00422*
Y00417*
X-00312Y00411*
X-00308Y00407*
X-00302Y00405*
X-00297*
X-00291Y00407*
X-00287Y00411*
X-00285Y00417*
Y00422*
X-00287Y00428*
X-00291Y00432*
X-00297Y00434*
G37*
G36*
X00417Y00404D02*
X00412D01*
X00406Y00402*
X00402Y00398*
X004Y00392*
Y00387*
X00402Y00381*
X00406Y00377*
X00402Y00373*
X004Y00367*
Y00362*
X00402Y00356*
X00406Y00352*
X00402Y00348*
X004Y00342*
Y00337*
X00402Y00331*
X00406Y00327*
X00402Y00323*
X004Y00317*
Y00312*
X00402Y00306*
X00406Y00302*
X00402Y00298*
X004Y00292*
Y00287*
X00402Y00281*
X00406Y00277*
X00402Y00273*
X004Y00267*
Y00262*
X00402Y00256*
X00406Y00252*
X00412Y0025*
X00417*
X00423Y00252*
X00427Y00256*
X00429Y00262*
Y00267*
X00427Y00273*
X00423Y00277*
X00427Y00281*
X00429Y00287*
Y00292*
X00427Y00298*
X00423Y00302*
X00427Y00306*
X00429Y00312*
Y00317*
X00427Y00323*
X00423Y00327*
X00427Y00331*
X00429Y00337*
Y00342*
X00427Y00348*
X00423Y00352*
X00427Y00356*
X00429Y00362*
Y00367*
X00427Y00373*
X00423Y00377*
X00427Y00381*
X00429Y00387*
Y00392*
X00427Y00398*
X00423Y00402*
X00417Y00404*
G37*
G36*
X00377Y00329D02*
X00372D01*
X00366Y00327*
X00362Y00323*
X0036Y00317*
Y00312*
X00362Y00306*
X00366Y00302*
X00362Y00298*
X0036Y00292*
Y00287*
X00362Y00281*
X00366Y00277*
X00362Y00273*
X0036Y00267*
Y00262*
X00362Y00256*
X00366Y00252*
X00372Y0025*
X00377*
X00383Y00252*
X00387Y00256*
X00389Y00262*
Y00267*
X00387Y00273*
X00383Y00277*
X00387Y00281*
X00389Y00287*
Y00292*
X00387Y00298*
X00383Y00302*
X00387Y00306*
X00389Y00312*
Y00317*
X00387Y00323*
X00383Y00327*
X00377Y00329*
G37*
G36*
X00187D02*
X00182D01*
X00176Y00327*
X00172Y00323*
X0017Y00317*
Y00312*
X00172Y00306*
X00176Y00302*
X00172Y00298*
X0017Y00292*
Y00287*
X00172Y00281*
X00176Y00277*
X00172Y00273*
X0017Y00267*
Y00262*
X00172Y00256*
X00176Y00252*
X00182Y0025*
X00187*
X00193Y00252*
X00197Y00256*
X00199Y00262*
Y00267*
X00197Y00273*
X00193Y00277*
X00197Y00281*
X00199Y00287*
Y00292*
X00197Y00298*
X00193Y00302*
X00197Y00306*
X00199Y00312*
Y00317*
X00197Y00323*
X00193Y00327*
X00187Y00329*
G37*
G36*
X-00412Y00404D02*
X-00417D01*
X-00423Y00402*
X-00427Y00398*
X-00429Y00392*
Y00387*
X-00427Y00381*
X-00423Y00377*
X-00427Y00373*
X-00429Y00367*
Y00362*
X-00427Y00356*
X-00423Y00352*
X-00427Y00348*
X-00429Y00342*
Y00337*
X-00427Y00331*
X-00423Y00327*
X-00427Y00323*
X-00429Y00317*
Y00312*
X-00427Y00306*
X-00423Y00302*
X-00427Y00298*
X-00429Y00292*
Y00287*
X-00427Y00281*
X-00423Y00277*
X-00427Y00273*
X-00429Y00267*
Y00262*
X-00427Y00256*
X-00423Y00252*
X-00417Y0025*
X-00412*
X-00406Y00252*
X-00406Y00252*
X-004Y00255*
X-00393Y00252*
X-00393Y00252*
X-00387Y0025*
X-00382*
X-00376Y00252*
X-00372Y00256*
X-0037Y00262*
Y00267*
X-00372Y00273*
X-00376Y00277*
X-00372Y00281*
X-0037Y00287*
Y00292*
X-00372Y00298*
X-00376Y00302*
X-00372Y00306*
X-0037Y00312*
Y00317*
X-00372Y00323*
X-00376Y00327*
X-00382Y00329*
X-00387*
X-00393Y00327*
X-00393Y00327*
X-00401Y00333*
X-004Y00337*
Y00342*
X-00402Y00348*
X-00406Y00352*
X-00402Y00356*
X-004Y00362*
Y00367*
X-00402Y00373*
X-00406Y00377*
X-00402Y00381*
X-004Y00387*
Y00392*
X-00402Y00398*
X-00406Y00402*
X-00412Y00404*
G37*
G36*
X00149Y-00357D02*
X00143D01*
X00138Y-00359*
X00133Y-00364*
X00131Y-00369*
Y-00375*
X00133Y-0038*
X00138Y-00385*
X00143Y-00387*
X00149*
X00154Y-00385*
X00159Y-0038*
X00161Y-00375*
Y-00369*
X00159Y-00364*
X00154Y-00359*
X00149Y-00357*
G37*
G36*
X-00382Y-0051D02*
X-00387D01*
X-00393Y-00512*
X-00397Y-00516*
X-00399Y-00522*
Y-00527*
X-00397Y-00533*
X-00393Y-00537*
X-00387Y-00539*
X-00382*
X-00376Y-00537*
X-00372Y-00533*
X-0037Y-00527*
Y-00522*
X-00372Y-00516*
X-00376Y-00512*
X-00382Y-0051*
G37*
G36*
X00352Y-0056D02*
X00347D01*
X00341Y-00562*
X00337Y-00566*
X00335Y-00572*
Y-00577*
X00337Y-00583*
X00341Y-00587*
X00347Y-00589*
X00352*
X00358Y-00587*
X00362Y-00583*
X00364Y-00577*
Y-00572*
X00362Y-00566*
X00358Y-00562*
X00352Y-0056*
G37*
G36*
X-00852Y-0058D02*
X-00857D01*
X-00863Y-00582*
X-00867Y-00586*
X-00869Y-00592*
Y-00597*
X-00867Y-00603*
X-00863Y-00607*
X-00857Y-00609*
X-00852*
X-00846Y-00607*
X-00842Y-00603*
X-0084Y-00597*
Y-00592*
X-00842Y-00586*
X-00846Y-00582*
X-00852Y-0058*
G37*
G36*
X-00732Y-00585D02*
X-00737D01*
X-00743Y-00587*
X-00747Y-00591*
X-00749Y-00597*
Y-00602*
X-00747Y-00608*
X-00743Y-00612*
X-00737Y-00614*
X-00732*
X-00726Y-00612*
X-00722Y-00608*
X-0072Y-00602*
Y-00597*
X-00722Y-00591*
X-00726Y-00587*
X-00732Y-00585*
G37*
G36*
X-00772D02*
X-00777D01*
X-00783Y-00587*
X-00787Y-00591*
X-00789Y-00597*
Y-00602*
X-00787Y-00608*
X-00783Y-00612*
X-00777Y-00614*
X-00772*
X-00766Y-00612*
X-00762Y-00608*
X-0076Y-00602*
Y-00597*
X-00762Y-00591*
X-00766Y-00587*
X-00772Y-00585*
G37*
G36*
X-00812D02*
X-00817D01*
X-00823Y-00587*
X-00827Y-00591*
X-00829Y-00597*
Y-00602*
X-00827Y-00608*
X-00823Y-00612*
X-00817Y-00614*
X-00812*
X-00806Y-00612*
X-00802Y-00608*
X-008Y-00602*
Y-00597*
X-00802Y-00591*
X-00806Y-00587*
X-00812Y-00585*
G37*
G36*
X00822Y-0059D02*
X00817D01*
X00811Y-00592*
X00807Y-00596*
X00805Y-00602*
Y-00607*
X00807Y-00613*
X00811Y-00617*
X00817Y-00619*
X00822*
X00828Y-00617*
X00832Y-00613*
X00834Y-00607*
Y-00602*
X00832Y-00596*
X00828Y-00592*
X00822Y-0059*
G37*
G36*
X00782D02*
X00777D01*
X00771Y-00592*
X00767Y-00596*
X00765Y-00602*
Y-00607*
X00767Y-00613*
X00771Y-00617*
X00777Y-00619*
X00782*
X00788Y-00617*
X00792Y-00613*
X00794Y-00607*
Y-00602*
X00792Y-00596*
X00788Y-00592*
X00782Y-0059*
G37*
G36*
X00702D02*
X00697D01*
X00691Y-00592*
X00687Y-00596*
X00685Y-00602*
Y-00607*
X00687Y-00613*
X00691Y-00617*
X00697Y-00619*
X00702*
X00708Y-00617*
X00712Y-00613*
X00714Y-00607*
Y-00602*
X00712Y-00596*
X00708Y-00592*
X00702Y-0059*
G37*
G36*
X-00252Y-00625D02*
X-00257D01*
X-00263Y-00627*
X-00267Y-00631*
X-00269Y-00637*
Y-00642*
X-00267Y-00648*
X-00263Y-00652*
X-00257Y-00654*
X-00252*
X-00246Y-00652*
X-00242Y-00648*
X-0024Y-00642*
Y-00637*
X-00242Y-00631*
X-00246Y-00627*
X-00252Y-00625*
G37*
G36*
X-00222Y-0069D02*
X-00227D01*
X-00233Y-00692*
X-00237Y-00696*
X-00239Y-00702*
Y-00707*
X-00237Y-00713*
X-00233Y-00717*
X-00227Y-00719*
X-00222*
X-00216Y-00717*
X-00212Y-00713*
X-0021Y-00707*
Y-00702*
X-00212Y-00696*
X-00216Y-00692*
X-00222Y-0069*
G37*
G36*
X00378Y-00644D02*
X00368Y-00646D01*
X0036Y-00651*
X00355Y-00659*
X00353Y-00669*
X00353Y-0067*
Y-00698*
X00355Y-00707*
X00359Y-00714*
Y-00736*
X00403*
Y-007*
X00404Y-00698*
Y-00669*
X00402Y-0066*
X00396Y-00651*
X00396Y-00651*
X00388Y-00646*
X00378Y-00644*
G37*
G36*
X-00222Y-0074D02*
X-00227D01*
X-00233Y-00742*
X-00237Y-00746*
X-00239Y-00752*
Y-00757*
X-00237Y-00763*
X-00233Y-00767*
X-00227Y-00769*
X-00222*
X-00216Y-00767*
X-00212Y-00763*
X-0021Y-00757*
Y-00752*
X-00212Y-00746*
X-00216Y-00742*
X-00222Y-0074*
G37*
G36*
X00762Y-00775D02*
X00757D01*
X00751Y-00777*
X0075Y-00779*
X00748Y-00777*
X00742Y-00775*
X00737*
X00731Y-00777*
X00727Y-00781*
X00725Y-00787*
Y-00792*
X00727Y-00798*
X00731Y-00802*
X00727Y-00806*
X00725Y-00812*
Y-00817*
X00727Y-00823*
X00731Y-00827*
X00727Y-00831*
X00725Y-00837*
Y-00842*
X00727Y-00848*
X00729Y-0085*
X00727Y-00856*
X00726Y-0086*
X00726Y-0086*
X00721Y-00862*
X00717Y-00866*
X00715Y-00872*
Y-00877*
X00717Y-00883*
X00719Y-00885*
X00717Y-00886*
X00715Y-00892*
Y-00897*
X00717Y-00903*
X00717Y-00903*
X0072Y-0091*
X00717Y-00916*
X00717Y-00916*
X00715Y-00922*
Y-00927*
X00717Y-00933*
X00719Y-00935*
X00717Y-00936*
X00715Y-00942*
Y-00947*
X00717Y-00953*
X00721Y-00957*
X00721Y-0096*
X00722Y-00967*
X0072Y-00972*
Y-00977*
X00722Y-00983*
X00724Y-00985*
X00722Y-00986*
X0072Y-00992*
Y-00997*
X00722Y-01003*
X00726Y-01007*
X00732Y-01009*
X00737*
X00743Y-01007*
X00747Y-01003*
X00751Y-01007*
X00757Y-01009*
X00762*
X00768Y-01007*
X00772Y-01003*
X00776Y-01007*
X00782Y-01009*
X00787*
X00793Y-01007*
X00799Y-01011*
X00798Y-01013*
X00794Y-01021*
X00791Y-01022*
X00787Y-01026*
X00785Y-01032*
Y-01035*
X00776Y-01039*
X00775Y-01039*
X00773Y-01037*
X00767Y-01035*
X00762*
X00756Y-01037*
X00752Y-01041*
X00748Y-01037*
X00742Y-01035*
X00737*
X00731Y-01037*
X00727Y-01041*
X00723Y-01037*
X00717Y-01035*
X00712*
X00706Y-01037*
X00702Y-01041*
X007Y-01047*
Y-01052*
X00702Y-01058*
X00704Y-0106*
X00702Y-01061*
X007Y-01067*
Y-01072*
X00702Y-01078*
X00706Y-01082*
X00712Y-01084*
X00717*
X00723Y-01082*
X00727Y-01078*
X00731Y-01082*
X00737Y-01084*
X00742*
X00748Y-01082*
X00752Y-01078*
X00756Y-01082*
X00762Y-01084*
X00767*
X00773Y-01082*
X00777Y-01078*
X00779Y-01072*
Y-01069*
X00788Y-01065*
X00789Y-01065*
X00791Y-01067*
X00797Y-01069*
X00802*
X00808Y-01067*
X00812Y-01063*
X00816Y-01067*
X00822Y-01069*
X00827*
X00833Y-01067*
X00837Y-01063*
X00841Y-01067*
X00847Y-01069*
X00852*
X00858Y-01067*
X00862Y-01063*
X00864Y-01057*
Y-01052*
X00862Y-01046*
X0086Y-01045*
X00862Y-01043*
X00864Y-01037*
Y-01032*
X00862Y-01026*
X00861Y-01025*
X00858Y-01021*
X00861Y-01012*
X00862Y-01011*
X00867Y-01003*
X00869Y-00994*
Y-00985*
X00867Y-00976*
X00862Y-00968*
X00862Y-00968*
X00863Y-00957*
X00867Y-00953*
X00869Y-00947*
Y-00942*
X00867Y-00936*
X00865Y-00935*
X00867Y-00933*
X00869Y-00927*
Y-00922*
X00867Y-00917*
X00868Y-0091*
X00868Y-00907*
X00872Y-00903*
X00874Y-00897*
Y-00892*
X00872Y-00886*
X0087Y-00885*
X00872Y-00883*
X00874Y-00877*
Y-00872*
X00872Y-00866*
X00868Y-00862*
X00862Y-0086*
X00857*
X00851Y-00862*
X00847Y-00866*
X00843Y-00862*
X00837Y-0086*
X00832*
X00826Y-00862*
X00822Y-00866*
X00818Y-00862*
X00812Y-0086*
X00807*
X00801Y-00862*
X00801Y-00862*
X00795Y-00865*
X00788Y-00862*
X00788Y-00862*
X00782Y-0086*
X00777*
X00775Y-0086*
X00774Y-0086*
X00771Y-00849*
X00772Y-00848*
X00774Y-00842*
Y-00837*
X00772Y-00831*
X00768Y-00827*
X00772Y-00823*
X00774Y-00817*
Y-00812*
X00772Y-00806*
X00768Y-00802*
X00772Y-00798*
X00774Y-00792*
Y-00787*
X00772Y-00781*
X00768Y-00777*
X00762Y-00775*
G37*
G36*
X-00252Y-0077D02*
X-00257D01*
X-00263Y-00772*
X-00267Y-00776*
X-00269Y-00782*
Y-00787*
X-00267Y-00793*
X-00263Y-00797*
X-00257Y-00799*
X-00252*
X-00246Y-00797*
X-00242Y-00793*
X-0024Y-00787*
Y-00782*
X-00242Y-00776*
X-00246Y-00772*
X-00252Y-0077*
G37*
G36*
X-00687Y-0083D02*
X-00692D01*
X-00698Y-00832*
X-00702Y-00836*
X-00704Y-00842*
Y-00847*
X-00702Y-00853*
X-00698Y-00857*
X-00692Y-00859*
X-00687*
X-00681Y-00857*
X-00677Y-00853*
X-00675Y-00847*
Y-00842*
X-00677Y-00836*
X-00681Y-00832*
X-00687Y-0083*
G37*
G36*
X-00852D02*
X-00857D01*
X-00863Y-00832*
X-00867Y-00836*
X-00869Y-00842*
Y-00847*
X-00867Y-00853*
X-00863Y-00857*
X-00857Y-00859*
X-00852*
X-00846Y-00857*
X-00842Y-00853*
X-0084Y-00847*
Y-00842*
X-00842Y-00836*
X-00846Y-00832*
X-00852Y-0083*
G37*
G36*
X-00547Y-0085D02*
X-00552D01*
X-00558Y-00852*
X-00562Y-00856*
X-00564Y-00862*
Y-00867*
X-00562Y-00873*
X-00558Y-00877*
X-00552Y-00879*
X-00547*
X-00541Y-00877*
X-00537Y-00873*
X-00535Y-00867*
Y-00862*
X-00537Y-00856*
X-00541Y-00852*
X-00547Y-0085*
G37*
G36*
X-00855Y-00724D02*
X-00857Y-00725D01*
X-00857*
X-00858Y-00725*
X-0086Y-00725*
X-00862Y-00727*
X-00863Y-00727*
X-00863Y-00727*
X-00865Y-00729*
X-00867Y-00731*
X-00867Y-00731*
X-00867Y-00732*
X-00869Y-00734*
X-00869Y-00736*
X-00869Y-00737*
Y-00737*
X-0087Y-0074*
Y-0077*
X-00869Y-00775*
X-00865Y-0078*
X-00845Y-008*
X-0084Y-00804*
X-00835Y-00805*
X-00572*
X-00564Y-00812*
Y-00817*
X-00562Y-00823*
X-00558Y-00827*
X-00552Y-00829*
X-00547*
X-00541Y-00827*
X-00537Y-00823*
X-00535Y-00819*
X-00529Y-00817*
X-00525Y-00816*
X-00465Y-00875*
X-00463Y-00877*
X-00463Y-00877*
X-00462Y-00877*
X-0046Y-00879*
X-00458Y-00879*
X-00457Y-00879*
X-00457*
X-00455Y-0088*
X-00452Y-00879*
X-00452*
X-00451Y-00879*
X-00449Y-00879*
X-00447Y-00877*
X-00446Y-00877*
X-00446Y-00877*
X-00444Y-00875*
X-00442Y-00873*
X-00442Y-00873*
X-00442Y-00872*
X-0044Y-0087*
X-0044Y-00868*
X-0044Y-00867*
Y-00867*
X-00439Y-00865*
X-0044Y-00862*
Y-00862*
X-0044Y-00861*
X-0044Y-00859*
X-00442Y-00857*
X-00442Y-00856*
X-00442Y-00856*
X-00444Y-00854*
X-00458Y-00839*
X-00454Y-00829*
X-00452*
X-00446Y-00827*
X-00442Y-00823*
X-0044Y-00817*
Y-00812*
X-00442Y-00806*
X-00446Y-00802*
X-00452Y-008*
X-00457*
X-00463Y-00802*
X-00467Y-00806*
X-00469Y-00812*
Y-00814*
X-00479Y-00818*
X-00519Y-00779*
X-00524Y-00775*
X-0053Y-00774*
X-00627*
X-00635Y-00767*
Y-00762*
X-00637Y-00756*
X-00641Y-00752*
X-00647Y-0075*
X-00652*
X-00658Y-00752*
X-00662Y-00756*
X-00664Y-00762*
Y-00767*
X-00672Y-00774*
X-00828*
X-00839Y-00763*
Y-0074*
X-0084Y-00737*
Y-00737*
X-0084Y-00736*
X-0084Y-00734*
X-00842Y-00732*
X-00842Y-00731*
X-00842Y-00731*
X-00844Y-00729*
X-00846Y-00727*
X-00846Y-00727*
X-00847Y-00727*
X-00849Y-00725*
X-00851Y-00725*
X-00852Y-00725*
X-00852*
X-00855Y-00724*
G37*
G36*
X-00197Y-0091D02*
X-00242D01*
Y-00918*
X-0025*
X-00254Y-00919*
X-00256Y-0092*
X-00257Y-0092*
X-00262*
X-00268Y-00922*
X-00272Y-00926*
X-00274Y-00932*
Y-00937*
X-00272Y-00943*
X-00268Y-00947*
X-00269Y-00957*
Y-00962*
X-00267Y-00968*
X-00263Y-00972*
X-00257Y-00974*
X-00252*
X-00246Y-00972*
X-00242Y-00968*
X-0024Y-00962*
Y-00957*
X-0024Y-00956*
X-00234Y-00946*
X-00234Y-00946*
X-00216*
X-00212Y-00956*
X-00212Y-00956*
X-00214Y-00962*
Y-00967*
X-00219Y-00977*
Y-01022*
X-00183*
Y-01011*
X-00166*
Y-0102*
X-00123*
Y-00986*
X-00166*
Y-00991*
X-00183*
Y-00977*
X-00185Y-00967*
Y-00962*
X-00187Y-00956*
X-0019Y-00953*
X-00191Y-00952*
X-00194Y-00948*
X-0019Y-0094*
X-00188Y-00938*
X-00172*
X-00166Y-00944*
Y-00963*
X-00123*
Y-00929*
X-00152*
X-0016Y-00921*
X-00163Y-00919*
X-00167Y-00918*
X-00197*
Y-0091*
G37*
G36*
X-00452Y-009D02*
X-00457D01*
X-00463Y-00902*
X-00467Y-00906*
X-00469Y-00912*
Y-00917*
X-00467Y-00923*
X-00463Y-00927*
X-00457Y-00929*
X-00452*
X-00446Y-00927*
X-00442Y-00923*
X-0044Y-00917*
Y-00912*
X-00442Y-00906*
X-00446Y-00902*
X-00452Y-009*
G37*
G36*
X-00542D02*
X-00547D01*
X-00553Y-00902*
X-00557Y-00906*
X-00559Y-00912*
Y-00917*
X-00557Y-00923*
X-00553Y-00927*
X-00547Y-00929*
X-00542*
X-00536Y-00927*
X-00532Y-00923*
X-0053Y-00917*
Y-00912*
X-00532Y-00906*
X-00536Y-00902*
X-00542Y-009*
G37*
G36*
X-00547Y-0095D02*
X-00552D01*
X-00558Y-00952*
X-00562Y-00956*
X-00564Y-00962*
Y-00967*
X-00562Y-00973*
X-00558Y-00977*
X-00552Y-00979*
X-00547*
X-00541Y-00977*
X-00537Y-00973*
X-00535Y-00967*
Y-00962*
X-00537Y-00956*
X-00541Y-00952*
X-00547Y-0095*
G37*
G36*
X-00342Y-00965D02*
X-00347D01*
X-00353Y-00967*
X-00357Y-00971*
X-00359Y-00977*
Y-00982*
X-00357Y-00988*
X-00353Y-00992*
X-00347Y-00994*
X-00342*
X-00336Y-00992*
X-00332Y-00988*
X-0033Y-00982*
Y-00977*
X-00332Y-00971*
X-00336Y-00967*
X-00342Y-00965*
G37*
G36*
X-00462Y-0097D02*
X-00467D01*
X-00473Y-00972*
X-00477Y-00976*
X-00479Y-00982*
Y-00987*
X-00477Y-00993*
X-00473Y-00997*
X-00467Y-00999*
X-00462*
X-00456Y-00997*
X-00452Y-00993*
X-0045Y-00987*
Y-00982*
X-00452Y-00976*
X-00456Y-00972*
X-00462Y-0097*
G37*
G36*
X-00547Y-01D02*
X-00552D01*
X-00558Y-01002*
X-00562Y-01006*
X-00564Y-01012*
Y-01017*
X-00562Y-01023*
X-00558Y-01027*
X-00552Y-01029*
X-00547*
X-00541Y-01027*
X-00537Y-01023*
X-00535Y-01017*
Y-01012*
X-00537Y-01006*
X-00541Y-01002*
X-00547Y-01*
G37*
G36*
X00262Y-0105D02*
X00257D01*
X00251Y-01052*
X00247Y-01056*
X00245Y-01062*
Y-01067*
X00247Y-01073*
X00251Y-01077*
X00257Y-01079*
X00262*
X00268Y-01077*
X00272Y-01073*
X00274Y-01067*
Y-01062*
X00272Y-01056*
X00268Y-01052*
X00262Y-0105*
G37*
G36*
X-00462D02*
X-00467D01*
X-00473Y-01052*
X-00477Y-01056*
X-00479Y-01062*
Y-01067*
X-00477Y-01073*
X-00473Y-01077*
X-00467Y-01079*
X-00462*
X-00456Y-01077*
X-00452Y-01073*
X-0045Y-01067*
Y-01062*
X-00452Y-01056*
X-00456Y-01052*
X-00462Y-0105*
G37*
G36*
X-00512D02*
X-00517D01*
X-00523Y-01052*
X-00527Y-01056*
X-00529Y-01062*
Y-01067*
X-00527Y-01073*
X-00523Y-01077*
X-00517Y-01079*
X-00512*
X-00506Y-01077*
X-00502Y-01073*
X-005Y-01067*
Y-01062*
X-00502Y-01056*
X-00506Y-01052*
X-00512Y-0105*
G37*
%LNhsmm-3*%
%LPD*%
G36*
X00316Y00629D02*
X00313Y00622D01*
X00311Y0062*
X00128*
X00124Y00619*
X00121Y00617*
X00104Y00599*
X00095Y00603*
Y00639*
X00097Y00641*
X00099Y00647*
Y00652*
X00107Y00659*
X00285*
X00316Y00629*
G37*
G36*
X0004Y0068D02*
X-00099Y00539D01*
X-00109Y00543*
Y00654*
X-00107Y00656*
X-00105Y00662*
Y00667*
X-00107Y00673*
X-00111Y00677*
X-00117Y00679*
X-00116Y00689*
X00037*
X0004Y0068*
G37*
G36*
X-00122Y00679D02*
X-00128Y00677D01*
X-00132Y00673*
X-00134Y00667*
Y00662*
X-00132Y00656*
X-0013Y00654*
Y00446*
X-00129Y00442*
X-00127Y00439*
X-00125Y00437*
Y00414*
X-00126Y00413*
X-00135Y00409*
X-00137Y00409*
X-00142*
X-00148Y00407*
X-00152Y00403*
X-00154Y00397*
Y00392*
X-00152Y00386*
X-00148Y00382*
X-00152Y00378*
X-00154Y00372*
Y00367*
X-00152Y00361*
X-00148Y00357*
X-00152Y00353*
X-00154Y00347*
Y00342*
X-00152Y00336*
X-00152Y00336*
X-00155Y00328*
X-00165Y00326*
X-00166Y00327*
X-00172Y00329*
X-00177*
X-00183Y00327*
X-00184Y00326*
X-00194Y0033*
Y00545*
X-00195Y00548*
X-00197Y00552*
X-0031Y00664*
Y00667*
X-00312Y00673*
X-00316Y00677*
X-00318Y00678*
X-00319Y00689*
X-00318Y00689*
X-00123*
X-00122Y00679*
G37*
G36*
X-00095Y00197D02*
Y0012D01*
X-00094Y00116*
X-00092Y00112*
X-0007Y0009*
Y-00357*
X-00077Y-00365*
X-00082*
X-00088Y-00367*
X-00092Y-00371*
X-00094Y-00377*
X-00095Y-00379*
X-00101Y-0038*
X-0011Y-00377*
X-00112Y-00371*
X-00116Y-00367*
X-00122Y-00365*
X-00127*
X-00129Y-00365*
X-00138Y-00361*
X-00139Y-0036*
Y00165*
X-00104Y00201*
X-00095Y00197*
G37*
G36*
X00094Y00116D02*
Y00012D01*
X00087Y00005*
X00085Y00001*
X00084Y-00001*
Y-00495*
X00083Y-00496*
X00074Y-005*
X00072Y-005*
X00067*
X00061Y-00502*
X0006Y-00503*
X0005Y-00499*
Y00084*
X00085Y00119*
X00094Y00116*
G37*
G36*
X-00127Y-00394D02*
X-00124D01*
X-00121Y-00395*
X-00114Y-00402*
Y-00402*
X-00112Y-00408*
X-00108Y-00412*
X-00102Y-00414*
X-00097*
X-00091Y-00412*
X-00087Y-00408*
X-00085Y-00402*
X-00084Y-00401*
X-00078Y-00399*
X-0007Y-00407*
Y-00664*
X-00092Y-00686*
X-00094Y-00689*
X-00094Y-00691*
X-00104Y-0069*
Y-00688*
X-00105Y-00684*
X-00107Y-00681*
X-00139Y-00649*
Y-00589*
X-00139Y-00588*
X-00129Y-00583*
X-00128Y-00584*
X-00122*
X-00116Y-00582*
X-00112Y-00578*
X-0011Y-00572*
Y-00566*
X-00112Y-00561*
X-00116Y-00557*
X-00122Y-00554*
X-00128*
X-00129Y-00555*
X-00139Y-0055*
X-00139Y-00549*
Y-00399*
X-00138Y-00398*
X-00129Y-00394*
X-00127Y-00394*
G37*
G36*
X00065Y00648D02*
X0007Y00645D01*
X00072Y00641*
X00074Y00639*
Y00577*
X00067Y0057*
X00065Y00567*
X00064Y00563*
Y00149*
X00012Y00097*
X0001Y00093*
X00009Y0009*
Y-0062*
X-0004Y-0067*
X-00043Y-00669*
X-00049Y-00666*
Y00095*
X-0005Y00098*
X-00052Y00102*
X-00074Y00124*
Y00514*
X0006Y00649*
X00065Y00648*
G37*
G36*
X00474Y-0067D02*
X00476Y-00674D01*
X00478Y-00677*
X00478Y-0068*
X00478Y-0068*
X00478Y-00681*
Y-00695*
X00478Y-00696*
X00478Y-00698*
X00479Y-00698*
X00479Y-00699*
X0048Y-007*
X00481Y-007*
X00484Y-00702*
X00485Y-00704*
X00483Y-00708*
X0048Y-00714*
X00479Y-00715*
X00478Y-00715*
X00476Y-00717*
X00475Y-00719*
X00474Y-00721*
Y-00736*
X00474Y-00741*
X00474Y-00742*
X00474Y-00742*
X00474Y-00744*
X00475Y-00745*
X00475Y-00745*
X00475Y-00746*
X00482Y-00754*
X00483Y-00754*
X00483Y-00754*
X00484Y-00755*
X00486Y-00756*
X00486Y-00756*
X00486Y-00756*
X00516*
X00517Y-00756*
X00518Y-00756*
X00518Y-00756*
X00518*
X00519Y-00757*
X00519*
X00519Y-00757*
X0052Y-00757*
X00521Y-00758*
X00521Y-00758*
X00521Y-00758*
X00522Y-00758*
X00522Y-00758*
X00522Y-00758*
X00522Y-00758*
X00524Y-0076*
X00524Y-0076*
X00525Y-0076*
X00526Y-0076*
X00528Y-0076*
X00528Y-0076*
X00529Y-0076*
X00534Y-00759*
X00535Y-00758*
X00535*
X00539Y-00757*
X00543*
X00547Y-00758*
X0055Y-00761*
X00554Y-00763*
X00558Y-00761*
X00561Y-00758*
X00564Y-00757*
X00568*
X00572Y-00758*
X00575Y-00761*
X00579Y-00763*
X00583Y-00761*
X00586Y-00758*
X00589Y-00757*
X00593*
X00597Y-00758*
X006Y-00761*
X00604Y-00763*
X00608Y-00761*
X00611Y-00758*
X00614Y-00757*
X00618*
X00622Y-00758*
X00625Y-00761*
X00629Y-00763*
X00633Y-00761*
X00636Y-00758*
X00639Y-00757*
X00643*
X00647Y-00758*
X00649Y-00761*
X00651Y-00764*
Y-00768*
X00649Y-00771*
X00648Y-00772*
X00647Y-00776*
X00648Y-0078*
X00649Y-00781*
X00651Y-00784*
Y-00788*
X00649Y-00791*
X00647Y-00794*
X00643Y-00795*
X00639*
X00636Y-00794*
X00633Y-00791*
X00633*
X00629Y-00789*
X00625Y-00791*
X00622Y-00794*
X00618Y-00795*
X00614*
X00611Y-00794*
X00608Y-00791*
X00604Y-00789*
X006Y-00791*
X00597Y-00794*
X00593Y-00795*
X00589*
X00585Y-00794*
X00583*
X00582Y-00793*
X00581Y-00794*
X00581*
X0058Y-00795*
X00579Y-00795*
X00576Y-00799*
X00525Y-00799*
X00443Y-00743*
X00443Y-0074*
X00443Y-00738*
X00442Y-00736*
X00441Y-00735*
Y-00716*
X0044Y-00715*
X0044Y-00713*
X00439Y-00712*
X00438Y-00704*
Y-0067*
X00473*
X00474Y-0067*
G37*
G36*
X-00125Y-00692D02*
Y-00859D01*
X-00135Y-00863*
X-00136Y-00862*
X-00142Y-0086*
X-00145*
X-00154Y-0085*
Y-00676*
X-00145Y-00672*
X-00125Y-00692*
G37*
G36*
X00597Y-00902D02*
Y-00956D01*
X00597Y-00956*
X00595Y-00962*
Y-00967*
X00592Y-00975*
X00586Y-00977*
X00582Y-00981*
X0058Y-00987*
Y-00989*
X0058Y-00989*
X00485*
X00481Y-00979*
X00482Y-00978*
X00484Y-00972*
Y-00967*
X00493Y-00962*
X00497Y-00958*
X00499Y-00952*
Y-00947*
X00497Y-00941*
X00494Y-00938*
X00493Y-00932*
X00494Y-00926*
X00497Y-00923*
X00499Y-00918*
Y-00914*
X00503Y-00912*
X00507Y-00908*
X00509Y-00902*
Y-00897*
X00509Y-00895*
X00513Y-00886*
X00514Y-00885*
X0058*
X00597Y-00902*
G37*
G36*
X00428Y-00886D02*
X00433Y-00895D01*
X00432Y-00897*
Y-00902*
X00426Y-00907*
X00422Y-00911*
X0042Y-00917*
Y-00922*
X00422Y-00928*
X00422Y-00928*
X00425Y-00935*
X00422Y-00941*
X00422Y-00941*
X0042Y-00947*
Y-00952*
X00422Y-00958*
X00426Y-00962*
X00431Y-00964*
X0043Y-00967*
Y-00972*
X00432Y-00978*
X00433Y-00979*
X00429Y-00989*
X00339*
X00269Y-0092*
X00273Y-0091*
X00315*
X00318Y-00909*
X00322Y-00907*
X00344Y-00885*
X00427*
X00428Y-00886*
G37*
%LNhsmm-4*%
%LPC*%
G36*
X-00017Y-00375D02*
X-00022D01*
X-00028Y-00377*
X-00032Y-00381*
X-00034Y-00387*
Y-00392*
X-00032Y-00398*
X-00028Y-00402*
X-00022Y-00404*
X-00017*
X-00011Y-00402*
X-00007Y-00398*
X-00005Y-00392*
Y-00387*
X-00007Y-00381*
X-00011Y-00377*
X-00017Y-00375*
G37*
%LNhsmm-5*%
%LPD*%
G36*
X00765Y-00782D02*
X00767Y-00784D01*
X00769Y-00788*
Y-00791*
X00767Y-00795*
X00764Y-00798*
X00763Y-00802*
X00764Y-00806*
X00764*
X00767Y-00809*
X00769Y-00813*
Y-00816*
X00767Y-0082*
X00764Y-00823*
X00763Y-00827*
X00764Y-00831*
X00764*
X00767Y-00834*
X00769Y-00838*
Y-00841*
X00767Y-00845*
X00767Y-00845*
X00767Y-00846*
X00766Y-00846*
X00766Y-00848*
X00766Y-00849*
X00766Y-0085*
X00766Y-0085*
X00768Y-00861*
X00768Y-00861*
X00769Y-00861*
X00769Y-00861*
X00769Y-00862*
X00769*
X0077Y-00863*
X00771Y-00864*
X00771Y-00864*
X00771Y-00865*
X00773Y-00865*
X00773Y-00865*
X00773Y-00865*
X00775*
X00777Y-00865*
X00777Y-00865*
X00777*
X00777Y-00865*
X00778Y-00865*
X00781*
X00786Y-00867*
X00786Y-00867*
X00792Y-0087*
X00792Y-0087*
X00793Y-0087*
X00795Y-0087*
X00796Y-0087*
X00797Y-0087*
X00797Y-0087*
X00803Y-00867*
X00803Y-00867*
X00808Y-00865*
X00811*
X00815Y-00867*
X00818Y-0087*
X00822Y-00871*
X00826Y-0087*
X00829Y-00867*
X00833Y-00865*
X00836*
X0084Y-00867*
X00843Y-0087*
X00847Y-00871*
X00851Y-0087*
X00854Y-00867*
X00858Y-00865*
X00861*
X00865Y-00867*
X00867Y-00869*
X00869Y-00873*
Y-00876*
X00867Y-0088*
X00867Y-00881*
X00865Y-00885*
X00867Y-00888*
X00867Y-00889*
X00869Y-00893*
Y-00896*
X00867Y-009*
X00864Y-00903*
X00864Y-00905*
X00863Y-00906*
X00862Y-0091*
X00862Y-0091*
X00862Y-0091*
X00862Y-00917*
X00862Y-00918*
Y-00919*
X00864Y-00923*
Y-00926*
X00862Y-0093*
X00862Y-00931*
X0086Y-00935*
X00862Y-00938*
X00862Y-00939*
X00864Y-00943*
Y-00946*
X00862Y-0095*
X00859Y-00953*
X00858Y-00955*
X00858Y-00957*
X00857Y-00968*
X00857Y-00968*
X00857Y-00968*
X00857Y-0097*
X00857Y-00971*
X00862Y-00978*
X00864Y-00986*
Y-00993*
X00862Y-01001*
X00858Y-01007*
X00857Y-01008*
X00856Y-0101*
X00855Y-01011*
X00853Y-01019*
X00853Y-0102*
X00853Y-0102*
X00853Y-01022*
X00853Y-01023*
X00854Y-01024*
X00854Y-01024*
X00857Y-01028*
Y-01028*
X00857Y-01028*
X00857Y-01029*
X00857Y-01029*
X00857Y-01029*
X00859Y-01033*
Y-01036*
X00857Y-0104*
X00857Y-01041*
X00855Y-01045*
X00857Y-01048*
X00857Y-01049*
X00859Y-01053*
Y-01056*
X00857Y-0106*
X00855Y-01062*
X00851Y-01064*
X00848*
X00844Y-01062*
X00841Y-01059*
X00837Y-01058*
X00833Y-01059*
X0083Y-01062*
X00826Y-01064*
X00823*
X00819Y-01062*
X00816Y-01059*
X00812Y-01058*
X00808Y-01059*
Y-01059*
X00805Y-01062*
X00801Y-01064*
X00798*
X00794Y-01062*
X00792Y-01061*
X00792Y-01061*
X00792Y-0106*
X0079Y-0106*
X0079Y-0106*
X0079Y-0106*
X00789Y-01059*
X00788Y-01059*
X00787Y-01059*
X00787Y-01059*
X00786Y-0106*
X00786Y-0106*
X00777Y-01064*
X00776Y-01065*
X00776Y-01065*
X00775Y-01066*
X00774Y-01067*
X00774Y-01068*
X00774Y-01069*
Y-01071*
X00772Y-01075*
X0077Y-01077*
X00766Y-01079*
X00763*
X00759Y-01077*
X00756Y-01074*
X00752Y-01073*
X00748Y-01074*
X00745Y-01077*
X00741Y-01079*
X00738*
X00734Y-01077*
X00731Y-01074*
X00727Y-01073*
X00723Y-01074*
Y-01074*
X0072Y-01077*
X00716Y-01079*
X00713*
X00709Y-01077*
X00707Y-01075*
X00705Y-01071*
Y-01068*
X00707Y-01064*
X00707Y-01063*
X00709Y-0106*
X00707Y-01056*
X00707Y-01055*
X00705Y-01051*
Y-01048*
X00707Y-01044*
X00709Y-01042*
X00713Y-0104*
X00716*
X0072Y-01042*
X00723Y-01045*
X00727Y-01046*
X00731Y-01045*
X00734Y-01042*
X00738Y-0104*
X00741*
X00745Y-01042*
X00748Y-01045*
X00752Y-01046*
X00756Y-01045*
X00759Y-01042*
X00763Y-0104*
X00766*
X0077Y-01042*
X00772Y-01043*
X00772Y-01043*
X00772Y-01044*
X00774Y-01044*
X00774Y-01044*
X00774Y-01044*
X00775Y-01045*
X00776Y-01045*
X00777Y-01045*
X00777Y-01045*
X00778Y-01044*
X00778Y-01044*
X00787Y-0104*
X00788Y-01039*
X00788Y-01039*
X00789Y-01038*
X0079Y-01037*
X0079Y-01036*
X0079Y-01035*
Y-01033*
X00792Y-01029*
X00794Y-01027*
X00796Y-01026*
X00797Y-01025*
X00799Y-01023*
X00803Y-01015*
X00803Y-01014*
X00804Y-01014*
X00804Y-01013*
X00804Y-01011*
X00804Y-0101*
X00804Y-0101*
X00803Y-01009*
Y-01009*
X00802Y-01008*
X00802Y-01007*
X008Y-01005*
X00796Y-01003*
X00795Y-01003*
X00795Y-01002*
X00793*
X00792Y-01002*
X00791Y-01002*
X00791*
X00786Y-01004*
X00783*
X00779Y-01002*
X00776Y-00999*
X00772Y-00998*
X00768Y-00999*
X00765Y-01002*
X00761Y-01004*
X00758*
X00754Y-01002*
X00751Y-00999*
X00747Y-00998*
X00743Y-00999*
X0074Y-01002*
X00736Y-01004*
X00733*
X00729Y-01002*
X00727Y-01*
X00725Y-00996*
Y-00993*
X00727Y-00989*
X00727Y-00988*
X00729Y-00985*
X00727Y-00981*
X00727Y-0098*
X00725Y-00976*
Y-00973*
X00727Y-00969*
Y-00968*
X00727Y-00967*
X00727Y-0096*
X00727Y-0096*
X00727Y-0096*
X00726Y-00956*
X00725Y-00955*
X00725Y-00953*
X00722Y-0095*
X0072Y-00946*
Y-00943*
X00722Y-00939*
X00722Y-00938*
X00724Y-00935*
X00722Y-00931*
X00722Y-0093*
X0072Y-00926*
Y-00923*
X00722Y-00918*
X00722Y-00918*
X00725Y-00912*
X00725Y-00912*
X00725Y-00911*
X00725Y-0091*
X00725Y-00908*
X00725Y-00907*
X00725Y-00907*
X00722Y-00901*
X00722Y-00901*
X0072Y-00896*
Y-00893*
X00722Y-00889*
X00722Y-00888*
X00724Y-00885*
X00722Y-00881*
X00722Y-0088*
X0072Y-00876*
Y-00873*
X00722Y-00869*
X00724Y-00867*
X00728Y-00865*
X00728Y-00865*
X00728Y-00865*
X00729Y-00864*
X0073Y-00863*
X0073Y-00863*
X00731Y-00862*
X00731Y-00862*
Y-00862*
X00731Y-00862*
X00732Y-00858*
X00732Y-00858*
X00733Y-00857*
X00734Y-00851*
X00734Y-0085*
X00734Y-0085*
X00733Y-00848*
X00733Y-00847*
X00733Y-00846*
X00732Y-00846*
X00732Y-00845*
X0073Y-00841*
Y-00838*
X00732Y-00834*
X00735Y-00831*
X00736Y-00827*
X00735Y-00823*
X00732Y-0082*
X0073Y-00816*
Y-00813*
X00732Y-00809*
X00735Y-00806*
X00736Y-00802*
X00735Y-00798*
X00732Y-00795*
X0073Y-00791*
Y-00788*
X00732Y-00784*
X00734Y-00782*
X00738Y-0078*
X00741*
X00745Y-00782*
X00746Y-00782*
X0075Y-00784*
X00753Y-00782*
X00754Y-00782*
X00758Y-0078*
X00761*
X00765Y-00782*
G37*
G54D16*
X00275Y00145D02*
Y00455D01*
X0014Y00045D02*
X0026Y00165D01*
Y00415*
X00235Y0044D02*
X0026Y00415D01*
X0016Y0003D02*
X00275Y00145D01*
X00007Y-00882D02*
Y-00882D01*
X-00003Y-00893D02*
X00007Y-00882D01*
X-00003Y-00896D02*
Y-00893D01*
X-0009Y-0099D02*
Y-00955D01*
X00005Y-0086D02*
X00251D01*
X00007Y-00882D02*
X00015Y-00875D01*
X-0009Y-00955D02*
X00005Y-0086D01*
X00251D02*
X00266Y-00844D01*
X00225Y-00525D02*
X0035D01*
X00335Y-01D02*
X00584D01*
X00594Y-0099D02*
X00595D01*
X00584Y-01D02*
X00594Y-0099D01*
X00584Y-00874D02*
X00608Y-00898D01*
X0034Y-00874D02*
X00584D01*
X00608Y-00963D02*
Y-00898D01*
Y-00963D02*
X0061Y-00965D01*
X-002Y-01001D02*
Y-00965D01*
X00162Y-00211D02*
Y-00089D01*
X00075Y00145D02*
Y00563D01*
X0002Y0009D02*
X00075Y00145D01*
X0004Y00088D02*
X0009Y00138D01*
Y00557*
X00095Y-00549D02*
Y-00001D01*
X00105Y00007*
X00085Y00573D02*
Y0065D01*
X001Y00567D02*
Y00581D01*
X0009Y00557D02*
X001Y00567D01*
X0012Y-00336D02*
Y00545D01*
X00105Y00007D02*
Y00551D01*
X00115Y00561*
Y00565*
X00075Y00563D02*
X00085Y00573D01*
X0012Y00545D02*
X00165Y0059D01*
X0002Y-00625D02*
Y0009D01*
X0004Y-00645D02*
Y00088D01*
X00123Y00573D02*
Y00576D01*
X00128Y00609D02*
X00312D01*
X001Y00581D02*
X00128Y00609D01*
X00115Y00565D02*
X00123Y00573D01*
X-0018Y-00875D02*
Y0022D01*
X-00325Y00665D02*
X-00205Y00545D01*
Y00245D02*
Y00545D01*
Y00245D02*
X-0018Y0022D01*
X-00115Y00226D02*
Y00441D01*
X-0012Y00446D02*
Y00665D01*
Y00446D02*
X-00115Y00441D01*
X-001Y00525D02*
X0006Y00685D01*
X-00085Y0012D02*
Y00518D01*
X0006Y00685D02*
X00065D01*
X-00085Y00518D02*
X00066Y00669D01*
X-001Y0022D02*
Y00525D01*
X00065Y00684D02*
X00335D01*
X-00165Y-00855D02*
Y00176D01*
X-00115Y00226*
X-0015Y0017D02*
X-001Y0022D01*
X-00085Y0012D02*
X-0006Y00095D01*
X00066Y00669D02*
X0029D01*
X-0015Y-00653D02*
Y0017D01*
X00221Y-01005D02*
X00245D01*
X00185Y-009D02*
X00315D01*
X0014Y-002D02*
Y00045D01*
X0016Y-00087D02*
Y0003D01*
Y-00087D02*
X00162Y-00089D01*
X0011Y-00346D02*
X0012Y-00336D01*
X0011Y-00543D02*
Y-00346D01*
X00312Y00609D02*
X00347Y00575D01*
X00495*
X00335Y00684D02*
X0034Y0068D01*
X0029Y00669D02*
X0036Y006D01*
X00535*
X00095Y-00549D02*
X00105Y-00559D01*
X0011Y-00543D02*
X0013Y-00563D01*
X00185Y-00745D02*
X00215D01*
X00178Y-00628D02*
X00221D01*
X00233Y-00616D02*
Y-00575D01*
X00221Y-00628D02*
X00233Y-00616D01*
X0016Y-00645D02*
X00161D01*
X00178Y-00628*
X-00201Y-01001D02*
X-00146D01*
X00225Y-00525D02*
X00233Y-00517D01*
Y-00515*
X-0002Y-00705D02*
X0004Y-00645D01*
X00015Y-00875D02*
X00318D01*
X00105Y-00705D02*
Y-00559D01*
Y-00705D02*
X00155Y-00755D01*
X0013Y-0069D02*
Y-00563D01*
Y-0069D02*
X00185Y-00745D01*
X-00055Y-007D02*
X0002Y-00625D01*
X-0002Y-00835D02*
Y-00705D01*
X-00055Y-00845D02*
Y-007D01*
X-00085Y-00693D02*
X-0006Y-00668D01*
Y00095*
X-00085Y-0087D02*
Y-00693D01*
X-00115Y-0088D02*
Y-00688D01*
X-0015Y-00653D02*
X-00115Y-00688D01*
X-00165Y-00855D02*
X-00145Y-00875D01*
X00333Y-00859D02*
X00597D01*
X00607Y-00869*
X0019Y-00829D02*
X0055D01*
X00562Y-00838D02*
X0059D01*
X00556Y-00844D02*
X00562Y-00838D01*
X0055Y-00829D02*
X00565Y-00815D01*
X00318Y-00875D02*
X00333Y-00859D01*
X00315Y-009D02*
X0034Y-00874D01*
X00266Y-00844D02*
X00556D01*
X00607Y-00869D02*
X0061D01*
X00325Y-0102D02*
X00585D01*
X00275Y-0097D02*
X00325Y-0102D01*
X00105Y-0092D02*
X00255D01*
X00335Y-01*
X00195Y-0097D02*
X00275D01*
X-0026Y-00935D02*
X-00257D01*
X-0025Y-00928D02*
X-0022D01*
X-00257Y-00935D02*
X-0025Y-00928D01*
X-00167D02*
X-00149Y-00946D01*
X-0022Y-00928D02*
X-00167D01*
X-002Y-00965D02*
X-002Y-00965D01*
X-00201Y-01001D02*
X-002Y-01001D01*
X-00149Y-00946D02*
X-00145D01*
X-00146Y-01001D02*
X-00145Y-01003D01*
X00213Y-01015D02*
Y-01012D01*
X00221Y-01005*
X00185Y-00834D02*
X0019Y-00829D01*
X0016Y-00834D02*
X00185D01*
G54D19*
X00325Y-00025D02*
Y00525D01*
X0026Y-0009D02*
X00325Y-00025D01*
X0028Y005D02*
X003Y0048D01*
X0026Y-0039D02*
Y-0009D01*
X003Y00005D02*
Y0048D01*
X00305Y00545D02*
X00325Y00525D01*
X0023Y-00065D02*
X003Y00005D01*
X0023Y-00405D02*
Y-00065D01*
X00458Y-00705D02*
X00459Y-00706D01*
Y-00749D02*
Y-00706D01*
Y-00749D02*
X00476Y-00766D01*
X00516*
X00412Y-00612D02*
X00415Y-0061D01*
X00405Y-0062D02*
X00412Y-00612D01*
X00515Y-00717D02*
X00635D01*
Y-00718D02*
Y-00717D01*
X-00855Y-0077D02*
Y-0074D01*
Y-0077D02*
X-00835Y-0079D01*
X-0053*
X-00455Y-00865*
X0023Y-00405D02*
X0035Y-00525D01*
X0026Y-0039D02*
X00325Y-00455D01*
X0038*
X0035Y-00525D02*
X00355Y-0053D01*
X00415Y-0061D02*
Y-0049D01*
X0038Y-00455D02*
X00415Y-0049D01*
X-00235Y-00395D02*
X-00225Y-00385D01*
Y0042*
X-00795Y00655D02*
Y0077D01*
Y00655D02*
X-00775Y00635D01*
X-00365*
X-00225Y00495*
Y0042D02*
Y00495D01*
G54D28*
X00233Y-00575D03*
X00176D03*
X00233Y-00515D03*
X00176D03*
X00213Y-01015D03*
X00156D03*
X-00201Y-01D03*
X-00258D03*
G54D36*
X-0022Y-00871D03*
Y-00928D03*
X00635Y-00661D03*
Y-00718D03*
X00575Y-00661D03*
Y-00718D03*
X00515Y-0066D03*
Y-00717D03*
G54D58*
X00412Y-00612D02*
X00434D01*
X00402D02*
X00412D01*
X00434D02*
X00458Y-00635D01*
Y-00705D02*
Y-00635D01*
X00378Y-00669D02*
X00378Y-00669D01*
Y-00698D02*
Y-00669D01*
X00766Y-00661D02*
X0082Y-00715D01*
X00575Y-00661D02*
X00766D01*
X-00345Y00715D02*
X00295D01*
X00305Y00725*
X00355Y00775*
X00515Y-0066D02*
Y-00594D01*
X-00715Y00715D02*
X-00345D01*
Y0082D02*
X003D01*
X00305Y00825D02*
X0038Y009D01*
X003Y0082D02*
X00305Y00825D01*
X00515Y-00659D02*
X00573D01*
X00575Y-00661*
X00515Y-0066D02*
X00515Y-00659D01*
X0038Y009D02*
X0067D01*
X00355Y00775D02*
X0061D01*
X-00795Y0077D02*
X-00745Y0082D01*
X-00345*
X-00725Y00705D02*
X-00715Y00715D01*
G54D59*
X00835Y-0099D03*
G54D60*
X00935Y-0099D03*
G54D61*
X00287Y00524D03*
X00275Y00455D03*
X0028Y005D03*
X00208Y00429D03*
X00235Y0044D03*
X-0069Y-00845D03*
X00932Y00681D03*
X00948Y0065D03*
X00932Y00618D03*
X00948Y00587D03*
X00932Y00555D03*
Y-00641D03*
X00948Y-00672D03*
X00932Y-00704D03*
Y-00893D03*
X00948Y-00924D03*
Y-0105D03*
X00932Y-01082D03*
X00901Y0087D03*
X00917Y00838D03*
X00901Y00681D03*
X00917Y0065D03*
X00901Y00618D03*
X00917Y00587D03*
X00901Y00555D03*
Y-00578D03*
X00917Y-00609D03*
X00901Y-00893D03*
X00917Y-00924D03*
Y-0105D03*
X00901Y-01082D03*
X00885Y00901D03*
X00869Y0087D03*
Y00744D03*
X00885Y0065D03*
X00869Y00618D03*
X00885Y00587D03*
X00869Y00555D03*
X00885Y-00546D03*
X00869Y-00578D03*
X00885Y-00609D03*
X00838Y00933D03*
X00854Y00838D03*
X00838Y00807D03*
X00854Y00775D03*
X00838Y00618D03*
X00854Y00587D03*
X00838Y00555D03*
X00854Y-00546D03*
X00838Y-00578D03*
X00854Y-00609D03*
X00822Y00838D03*
X00806Y00807D03*
X00822Y00775D03*
X00806Y00681D03*
X00822Y0065D03*
Y00587D03*
X00806Y00555D03*
X00822Y-00546D03*
X00791Y00838D03*
X00775Y00807D03*
X00791Y00775D03*
X00775Y00555D03*
X00791Y-00546D03*
X00759Y00775D03*
Y00587D03*
X00712Y00933D03*
X00728Y00901D03*
Y00775D03*
X0068Y00807D03*
X00665Y00838D03*
X00649Y00555D03*
X00633Y00712D03*
X00617Y00555D03*
X00586D03*
X00555D03*
X00523Y00681D03*
Y00555D03*
Y-01082D03*
X00507Y00712D03*
X00492Y00681D03*
X00507Y0065D03*
X0046Y00681D03*
X00429D03*
X00444Y00524D03*
Y00209D03*
X00429Y00177D03*
X00444Y00146D03*
X00429Y00114D03*
X00444Y00083D03*
X00429Y00051D03*
X00444Y0002D03*
X00429Y-00011D03*
X00444Y-00042D03*
X00429Y-00074D03*
X00444Y-00105D03*
X00429Y-00137D03*
X00444Y-00168D03*
X00429Y-002D03*
X00444Y-00231D03*
X00429Y-00263D03*
X00444Y-00294D03*
X00429Y-00326D03*
X00444Y-00357D03*
X00429Y-00389D03*
X00444Y-0042D03*
X00429Y-00452D03*
X00444Y-00483D03*
X00397Y00681D03*
X00413Y00524D03*
Y00209D03*
X00397Y00177D03*
X00413Y00146D03*
X00397Y00114D03*
X00413Y00083D03*
Y0002D03*
X00397Y-00011D03*
X00413Y-00042D03*
X00397Y-00074D03*
X00413Y-00105D03*
X00397Y-00137D03*
X00413Y-00168D03*
X00397Y-002D03*
X00413Y-00231D03*
X00397Y-00263D03*
X00413Y-00294D03*
Y-0042D03*
X00381Y00524D03*
X00366Y00492D03*
X00381Y00461D03*
X00366Y00429D03*
X00381Y00146D03*
X00366Y00114D03*
X00381Y00083D03*
Y-00042D03*
X00366Y-00074D03*
X00381Y-00105D03*
X00366Y-00137D03*
X00381Y-00168D03*
X00366Y-002D03*
X00381Y-00231D03*
X00366Y-00263D03*
X00334Y00933D03*
Y00555D03*
X0035Y00524D03*
Y00461D03*
Y00146D03*
Y-00042D03*
X00334Y-00074D03*
X0035Y-00105D03*
X00334Y-00137D03*
X0035Y-00168D03*
X00334Y-002D03*
X0035Y-00231D03*
X00334Y-00263D03*
X00303Y00933D03*
X00318Y00901D03*
Y-00105D03*
Y-00168D03*
Y-00231D03*
Y-00294D03*
X00303Y-01082D03*
X00271Y0087D03*
Y00555D03*
X0024Y0087D03*
Y00555D03*
X00255Y00524D03*
X0024Y00492D03*
X00208Y0087D03*
Y00555D03*
X00224Y00524D03*
X00208Y00492D03*
Y-00704D03*
X00224Y-00798D03*
X00177Y0087D03*
Y00555D03*
X00192Y00524D03*
X00177Y00492D03*
X00192Y00461D03*
X00177Y00429D03*
X00192Y-00672D03*
X00177Y-00704D03*
X00192Y-00798D03*
X00145Y00933D03*
Y0087D03*
X00161Y00524D03*
Y00209D03*
X00145Y00177D03*
X00161Y00146D03*
X00145Y00114D03*
Y-00263D03*
X00161Y-0042D03*
Y-00609D03*
Y-00672D03*
Y-00798D03*
X00114Y00933D03*
X00129Y00901D03*
X00114Y0087D03*
Y-0083D03*
Y-01019D03*
X00082Y00933D03*
X00098Y00901D03*
X00082Y0087D03*
Y00051D03*
Y-00578D03*
Y-00704D03*
X00098Y-00735D03*
X00082Y-01019D03*
X00051Y00933D03*
X00066Y00901D03*
X00051Y0087D03*
X00066Y00775D03*
X00051Y00492D03*
Y00429D03*
Y0024D03*
Y00177D03*
X00066Y00083D03*
Y0002D03*
Y-00105D03*
Y-00168D03*
Y-00357D03*
Y-00609D03*
Y-00672D03*
X00051Y-00767D03*
Y-01019D03*
X00019Y00933D03*
X00035Y00901D03*
X00019Y0087D03*
X00035Y00775D03*
Y00524D03*
X00019Y00492D03*
X00035Y00461D03*
X00019Y00429D03*
X00035Y00398D03*
X00019Y0024D03*
X00035Y00209D03*
X00019Y00177D03*
X00035Y00146D03*
X00019Y-01019D03*
X-00011Y00933D03*
X00003Y00901D03*
X-00011Y0087D03*
X00003Y00775D03*
Y00524D03*
X-00011Y00492D03*
X00003Y00461D03*
X-00011Y00429D03*
X00003Y00398D03*
X-00011Y0024D03*
X00003Y00209D03*
X-00011Y00177D03*
X00003Y00146D03*
X-00011Y00114D03*
Y-00074D03*
Y-00263D03*
Y-00578D03*
X00003Y-00924D03*
X-00011Y-01019D03*
X-00043Y00933D03*
X-00027Y00901D03*
X-00043Y0087D03*
X-00027Y00775D03*
X-00043Y00618D03*
X-00027Y00524D03*
X-00043Y00492D03*
X-00027Y00461D03*
X-00043Y00429D03*
X-00027Y00398D03*
X-00043Y0024D03*
X-00027Y00209D03*
X-00043Y00177D03*
X-00027Y00146D03*
Y-00042D03*
Y-00231D03*
Y-00294D03*
Y-00609D03*
X-00074Y00933D03*
X-00059Y00901D03*
X-00074Y0087D03*
X-00059Y00775D03*
Y0065D03*
X-00074Y00618D03*
X-00059Y00461D03*
Y00398D03*
Y00272D03*
Y00209D03*
Y00146D03*
X-00106Y00933D03*
X-0009Y00901D03*
X-00106Y0087D03*
X-0009Y0065D03*
X-00106Y00051D03*
X-0009Y0002D03*
X-00106Y-00011D03*
Y-00137D03*
X-0009Y-00168D03*
X-00106Y-002D03*
X-0009Y-00231D03*
X-00106Y-00263D03*
X-0009Y-00294D03*
X-00106Y-00326D03*
X-00137Y00933D03*
X-00122Y00901D03*
X-00137Y0087D03*
X-00122Y00083D03*
Y0002D03*
Y-00105D03*
Y-00168D03*
Y-00231D03*
Y-00294D03*
X-00137Y-00704D03*
Y-00767D03*
X-00153Y00901D03*
X-00169Y0087D03*
X-00153Y00775D03*
Y00524D03*
X-002Y0087D03*
X-00185Y00775D03*
X-002Y-00767D03*
X-00232Y0087D03*
X-00216Y00775D03*
X-00263Y0087D03*
X-00248Y00775D03*
X-00263Y00492D03*
X-00295Y0087D03*
X-00279Y00775D03*
X-00295Y00492D03*
X-00279Y00461D03*
X-00326Y00933D03*
X-00311Y00901D03*
X-00326Y0087D03*
X-00311Y00775D03*
Y00524D03*
X-00326Y00492D03*
X-00311Y00461D03*
X-00326Y00429D03*
Y00303D03*
Y0024D03*
X-00311Y00209D03*
Y00083D03*
X-00326Y00051D03*
X-00311Y0002D03*
X-00326Y-00011D03*
X-00311Y-00042D03*
X-00326Y-00074D03*
X-00311Y-00105D03*
X-00326Y-00137D03*
X-00311Y-00168D03*
X-00326Y-002D03*
X-00311Y-00231D03*
X-00326Y-00263D03*
X-00311Y-00294D03*
Y-0042D03*
X-00342Y00901D03*
X-00358Y0087D03*
X-00342Y00775D03*
Y00524D03*
X-00358Y00492D03*
X-00342Y00461D03*
X-00358Y00429D03*
X-00342Y00272D03*
X-00358Y00114D03*
X-00342Y00083D03*
X-00358Y00051D03*
X-00342Y0002D03*
X-00358Y-00011D03*
X-00342Y-00042D03*
X-00358Y-00074D03*
X-00342Y-00105D03*
X-00358Y-00137D03*
X-00342Y-00168D03*
X-00358Y-002D03*
X-00342Y-00231D03*
X-00358Y-00263D03*
X-00389Y0087D03*
X-00374Y00775D03*
Y00524D03*
X-00389Y00492D03*
X-00374Y00461D03*
X-00389Y00429D03*
X-00374Y00146D03*
X-00389Y00114D03*
X-00374Y00083D03*
X-00389Y00051D03*
X-00374Y0002D03*
X-00389Y-00011D03*
X-00374Y-00042D03*
X-00389Y-00074D03*
X-00374Y-00105D03*
X-00389Y-00137D03*
X-00374Y-00168D03*
X-00389Y-002D03*
X-00374Y-00231D03*
X-00389Y-00263D03*
X-00374Y-00483D03*
X-00421Y0087D03*
X-00405Y00775D03*
Y00524D03*
X-00421Y00177D03*
X-00405Y00146D03*
X-00421Y00114D03*
X-00405Y00083D03*
X-00421Y00051D03*
X-00405Y0002D03*
X-00421Y-00011D03*
X-00405Y-00042D03*
X-00421Y-00074D03*
X-00405Y-00105D03*
X-00421Y-00137D03*
X-00405Y-00168D03*
X-00421Y-002D03*
X-00405Y-00231D03*
X-00421Y-00263D03*
X-00405Y-00294D03*
Y-0042D03*
X-00421Y-00515D03*
X-00437Y00775D03*
Y00524D03*
Y00209D03*
Y00146D03*
Y00083D03*
Y0002D03*
Y-00042D03*
Y-00105D03*
Y-00168D03*
Y-00231D03*
Y-00294D03*
Y-00357D03*
Y-0042D03*
Y-00483D03*
X-00468Y00775D03*
X-00484Y-01082D03*
X-00515Y-00704D03*
X-00531Y00775D03*
X-00547Y-00704D03*
X-00578Y00555D03*
Y-00704D03*
X-00594Y00775D03*
Y00587D03*
X-0061Y00555D03*
Y-00641D03*
Y-00704D03*
X-00641Y00933D03*
X-00626Y00901D03*
X-00641Y0087D03*
X-00626Y00587D03*
X-00641Y00555D03*
Y-00641D03*
X-00626Y-00672D03*
X-00641Y-00704D03*
X-00673Y00933D03*
X-00657Y00901D03*
Y-00672D03*
X-00673Y-00704D03*
X-00657Y-00861D03*
X-00673Y-00893D03*
X-00657Y-00924D03*
X-00673Y-00956D03*
X-00657Y-00987D03*
X-00673Y-01019D03*
X-00657Y-0105D03*
X-00673Y-01082D03*
X-00704Y00933D03*
X-00689Y-00924D03*
X-00704Y-00956D03*
X-00689Y-00987D03*
Y-0105D03*
X-0072Y-00924D03*
X-00736Y-00956D03*
X-0072Y-00987D03*
X-00767Y0087D03*
Y00744D03*
X-00752Y00587D03*
X-00767Y00555D03*
X-00752Y-00924D03*
X-00767Y-00956D03*
X-00752Y-00987D03*
X-00783Y00838D03*
X-00799Y00555D03*
Y-0083D03*
Y-00893D03*
X-00783Y-00924D03*
X-00799Y-00956D03*
X-00783Y-00987D03*
X-00799Y-01019D03*
Y-01082D03*
X-00815Y00838D03*
X-0083Y00807D03*
Y00555D03*
X-00815Y-00735D03*
X-0083Y-0083D03*
X-00815Y-00861D03*
X-0083Y-00893D03*
X-00815Y-00924D03*
X-0083Y-00956D03*
X-00815Y-00987D03*
X-0083Y-01019D03*
X-00815Y-0105D03*
X-0083Y-01082D03*
X-00862Y0087D03*
X-00846Y00838D03*
Y00775D03*
Y-00546D03*
Y-00924D03*
X-00862Y-00956D03*
X-00846Y-00987D03*
Y-0105D03*
X-00878Y00901D03*
X-00893Y0087D03*
X-00878Y00838D03*
Y0065D03*
Y-00546D03*
X-00893Y-00578D03*
X-00878Y-00924D03*
X-00893Y-00956D03*
X-00878Y-00987D03*
X-00909Y00712D03*
X-00925Y00681D03*
X-00909Y0065D03*
Y-00609D03*
X-00925Y-00641D03*
Y-00704D03*
X-00909Y-00735D03*
Y-00924D03*
X-00925Y-00956D03*
X-00909Y-00987D03*
X-00956Y00681D03*
X-00941Y0065D03*
X-00956Y-00641D03*
X-00941Y-00672D03*
X-00956Y-00704D03*
X-00941Y-00735D03*
X-00956Y-00767D03*
Y-0083D03*
Y-00893D03*
X-00941Y-00924D03*
X-00956Y-00956D03*
X-00941Y-00987D03*
X-00956Y-01019D03*
Y-01082D03*
X-00003Y-00896D03*
X00413Y-00678D03*
X00378Y-00669D03*
X00591Y-00766D03*
X00616D03*
X00545Y-0098D03*
X00525Y-0097D03*
X0057Y-00975D03*
X00525Y-00945D03*
Y-0092D03*
X00546Y-00903D03*
X0057Y-009D03*
Y-00925D03*
Y-0095D03*
X00546Y-00928D03*
Y-00953D03*
X00641Y-00786D03*
Y-00766D03*
X0073Y-00895D03*
Y-00875D03*
X00566Y-00766D03*
Y-00786D03*
X00541D03*
X00516D03*
X00541Y-00766D03*
X00516D03*
X00616Y-00786D03*
X00591D03*
X00615Y-01045D03*
Y-01065D03*
X0059D03*
X00565D03*
X0059Y-01045D03*
X00565D03*
X0078Y-00945D03*
X00755D03*
X0078Y-00925D03*
X00755D03*
X0073D03*
Y-00945D03*
X0086Y-00895D03*
X00835D03*
X0086Y-00875D03*
X00835D03*
X0081D03*
Y-00895D03*
X00765Y-0107D03*
X0074D03*
X00765Y-0105D03*
X0074D03*
X00715D03*
Y-0107D03*
X0074Y-0084D03*
Y-00815D03*
X0076Y-0084D03*
Y-00815D03*
Y-0079D03*
X0074D03*
X00755Y-00875D03*
Y-00895D03*
X0078D03*
Y-00875D03*
X00735Y-00975D03*
X0076D03*
X00735Y-00995D03*
X0076D03*
X00785D03*
Y-00975D03*
X00805Y-00925D03*
X0083D03*
X00805Y-00945D03*
X0083D03*
X00855D03*
Y-00925D03*
X008Y-01035D03*
X00825D03*
X008Y-01055D03*
X00825D03*
X0085D03*
Y-01035D03*
X0082Y-00715D03*
X0061Y-00965D03*
X00595Y-0099D03*
X-00855Y-0074D03*
X00415Y-0076D03*
X0043Y-00785D03*
X0044Y-0105D03*
Y-0107D03*
X00465D03*
X00435Y-0095D03*
X00445Y-0097D03*
X0046Y-0095D03*
X00447Y-009D03*
X0047D03*
X00162Y-00211D03*
X00375Y0029D03*
Y00265D03*
Y00315D03*
X00185Y0029D03*
Y00265D03*
Y00315D03*
X-00175Y0029D03*
Y00265D03*
Y00315D03*
X00415Y00265D03*
Y0029D03*
Y00315D03*
Y0034D03*
Y00365D03*
Y0039D03*
X00145Y00265D03*
Y0029D03*
Y00315D03*
Y0034D03*
Y00365D03*
Y0039D03*
X-0014Y0027D03*
Y00295D03*
Y0032D03*
Y00345D03*
Y0037D03*
Y00395D03*
X-00385Y00315D03*
X-00415Y0039D03*
Y00365D03*
Y0034D03*
Y00315D03*
Y0029D03*
Y00265D03*
X-00385D03*
Y0029D03*
X00123Y00576D03*
X-00345Y00715D03*
X00146Y-00372D03*
X00245Y-01005D03*
X00185Y-009D03*
X0026Y-01065D03*
X00485Y-00915D03*
X0046Y-0092D03*
X00435D03*
X0014Y-002D03*
X00305Y00545D03*
Y00725D03*
X0034Y0068D03*
X0038Y-005D03*
X00515Y-00594D03*
X00355Y-0053D03*
X00215Y-00745D03*
X0016Y-00645D03*
X-00125Y-00569D03*
X0007Y-00515D03*
X-003Y0042D03*
X0035Y-00575D03*
X007Y-00605D03*
X0049Y-0107D03*
Y-01045D03*
X00465D03*
X0047Y-0097D03*
X00485Y-0095D03*
X00495Y-009D03*
X00445Y-008D03*
X0047Y-00795D03*
X00455Y-0078D03*
X0044Y-00765D03*
X-0002Y-0039D03*
X00402Y-00612D03*
X0038Y-00455D03*
X00075Y-0083D03*
X-00235Y-00395D03*
X00535Y006D03*
X00495Y00575D03*
D03*
X0061Y00775D03*
X-0026Y0042D03*
X-00225D03*
X00165Y0059D03*
X00085Y0065D03*
X0013Y-00535D03*
X00155Y-00755D03*
X-0012Y00665D03*
X-00385Y-00525D03*
X-00325Y00665D03*
X00565Y-00815D03*
X0059Y-00838D03*
X00627Y-00905D03*
X00585Y-0102D03*
X-00225Y-00755D03*
X-0065Y-00765D03*
X-00255Y-0064D03*
X-00225Y-00705D03*
X-00465Y-00985D03*
X-00455Y-00915D03*
X-0055Y-00965D03*
X-00455Y-00815D03*
Y-00865D03*
X-0055Y-00815D03*
Y-00865D03*
Y-01015D03*
X-00545Y-00915D03*
X-00345Y-0098D03*
X-00255Y-0096D03*
X-0026Y-00935D03*
X-002Y-00965D03*
X-00255Y-00785D03*
X-0002Y-00835D03*
X-00055Y-00845D03*
X-0009Y-0099D03*
X-00085Y-0087D03*
X-00115Y-0088D03*
X-00145Y-00875D03*
X-0018D03*
X00195Y-0097D03*
X00105Y-0092D03*
X0016Y-00834D03*
X0061Y-00869D03*
X-0008Y-0038D03*
X-001Y-004D03*
X-00125Y-0038D03*
X0082Y-00605D03*
X0078D03*
X-00735Y-006D03*
X-00775D03*
X-00815D03*
X-00855Y-00595D03*
Y-00845D03*
X-00465Y-01065D03*
X-00515D03*
X0067Y009D03*
X-00795Y0077D03*
X-00725Y00705D03*
X-00345Y0082D03*
X00305Y00825D03*
G54D62*
X0036Y-0036D03*
X-0036D03*
X0Y0032D03*
G54D63*
X-00145Y-01003D03*
Y-00946D03*
G54D64*
X00381Y-00705D03*
X00458D03*
M02*