%FSTAX23Y23*%
%MOIN*%
%SFA1B1*%

%IPPOS*%
%ADD17C,0.003937*%
%ADD58C,0.040000*%
%LNhsmm-1*%
%LPD*%
G36*
X00094Y00643D02*
X00085D01*
Y00652*
X00094*
Y00643*
G37*
G36*
X00056Y00638D02*
X00057Y00638D01*
X00059Y00638*
X0006Y00637*
X00061Y00637*
X00062Y00637*
X00062Y00637*
X00062Y00636*
X00064Y00636*
X00065Y00635*
X00066Y00634*
X00067Y00634*
X00068Y00633*
X00068Y00632*
X00069Y00632*
X00069Y00632*
X0007Y00631*
X00071Y0063*
X00071Y00628*
X00072Y00627*
X00073Y00626*
X00073Y00625*
X00073Y00625*
X00073Y00625*
Y00625*
X00074Y00623*
X00074Y00621*
X00074Y0062*
X00075Y00618*
X00075Y00617*
Y00616*
X00075Y00616*
Y00615*
Y00615*
Y00615*
Y00615*
X00075Y00613*
X00075Y00611*
X00074Y00609*
X00074Y00608*
X00074Y00606*
X00073Y00605*
X00073Y00604*
X00072Y00603*
X00072Y00602*
X00071Y00601*
X00071Y006*
X00071Y006*
X0007Y00599*
X0007Y00599*
X0007Y00599*
X0007Y00598*
X00069Y00597*
X00068Y00597*
X00067Y00596*
X00066Y00595*
X00065Y00595*
X00064Y00594*
X00062Y00593*
X0006Y00593*
X00059Y00593*
X00058Y00593*
X00058Y00593*
X00057*
X00055Y00593*
X00054Y00593*
X00052Y00593*
X00051Y00593*
X0005Y00594*
X0005Y00594*
X00049Y00594*
X00049Y00594*
X00048Y00594*
X00047Y00595*
X00046Y00596*
X00045Y00596*
X00045Y00597*
X00044Y00597*
X00044Y00598*
X00044Y00598*
Y00595*
X00044Y00593*
X00044Y00592*
X00044Y00592*
X00044Y00591*
X00044Y00591*
X00044Y0059*
Y0059*
X00045Y00589*
X00045Y00588*
X00046Y00588*
X00046Y00587*
X00046Y00587*
X00046Y00587*
X00046Y00587*
X00047Y00586*
X00047Y00586*
X00048Y00585*
X00049Y00585*
X00049Y00585*
X0005Y00585*
X0005*
X00051Y00584*
X00052Y00584*
X00053Y00584*
X00053Y00584*
X00054*
X00055Y00584*
X00056*
X00057Y00584*
X00058Y00584*
X0006Y00584*
X00061Y00584*
X00062Y00584*
X00062Y00585*
X00063Y00585*
X00063*
X00064Y00585*
X00066Y00585*
X00067Y00586*
X00067Y00586*
X00068Y00586*
X00069Y00586*
X00069Y00586*
X0007*
Y00578*
X00069Y00577*
X00067Y00577*
X00066Y00577*
X00065Y00577*
X00064Y00576*
X00064Y00576*
X00063Y00576*
X00063*
X00061Y00576*
X00059Y00576*
X00058*
X00057Y00576*
X00056*
X00054Y00576*
X00052Y00576*
X00051Y00576*
X00049Y00576*
X00048Y00577*
X00046Y00577*
X00045Y00578*
X00044Y00578*
X00043Y00579*
X00042Y00579*
X00042Y0058*
X00041Y0058*
X00041Y00581*
X0004Y00581*
X0004Y00581*
X0004Y00581*
X00039Y00582*
X00038Y00583*
X00038Y00585*
X00037Y00586*
X00037Y00587*
X00036Y00589*
X00036Y00591*
X00035Y00593*
X00035Y00594*
X00035Y00595*
X00035Y00596*
X00035Y00597*
Y00597*
Y00598*
Y00598*
Y00637*
X00043*
X00044Y00635*
X00045Y00636*
X00047Y00637*
X00047Y00637*
X00048Y00637*
X00048Y00637*
X00048*
X00049Y00638*
X0005Y00638*
X00051Y00638*
X00052Y00638*
X00053Y00638*
X00055*
X00056Y00638*
G37*
G36*
X-00157Y00592D02*
X-00165D01*
X-00166Y00594*
X-00166Y00593*
X-00167Y00593*
X-00169Y00592*
X-00169Y00592*
X-0017Y00592*
X-0017Y00592*
X-0017*
X-00171Y00591*
X-00172Y00591*
X-00174Y00591*
X-00175Y00591*
X-00175*
X-00176Y00591*
X-00177*
X-00178Y00591*
X-0018Y00591*
X-00181Y00591*
X-00182Y00592*
X-00183Y00592*
X-00184Y00592*
X-00184Y00592*
X-00184Y00592*
X-00186Y00593*
X-00187Y00594*
X-00188Y00595*
X-00189Y00595*
X-0019Y00596*
X-0019Y00597*
X-00191Y00597*
X-00191Y00597*
X-00192Y00598*
X-00193Y006*
X-00193Y00601*
X-00194Y00602*
X-00194Y00603*
X-00195Y00604*
X-00195Y00605*
X-00195Y00605*
Y00605*
X-00196Y00606*
X-00196Y00608*
X-00196Y0061*
X-00197Y00611*
X-00197Y00613*
Y00613*
X-00197Y00614*
Y00614*
Y00615*
Y00615*
Y00615*
X-00197Y00617*
X-00197Y00619*
X-00196Y0062*
X-00196Y00622*
X-00196Y00624*
X-00195Y00625*
X-00195Y00626*
X-00194Y00627*
X-00194Y00628*
X-00193Y00629*
X-00193Y0063*
X-00193Y00631*
X-00192Y00631*
X-00192Y00632*
X-00192Y00632*
X-00192Y00632*
X-00191Y00633*
X-0019Y00634*
X-00189Y00635*
X-00188Y00635*
X-00187Y00636*
X-00186Y00637*
X-00184Y00637*
X-00182Y00638*
X-00181Y00638*
X-00181Y00638*
X-0018Y00638*
X-00179*
X-00178Y00638*
X-00176Y00638*
X-00175Y00638*
X-00173Y00637*
X-00172Y00637*
X-00172Y00637*
X-00171Y00636*
X-00171Y00636*
X-0017Y00636*
X-00169Y00635*
X-00168Y00634*
X-00167Y00634*
X-00167Y00633*
X-00166Y00633*
X-00166Y00632*
X-00166Y00632*
Y00654*
X-00157*
Y00592*
G37*
G36*
X-0022Y00595D02*
X-00212Y00576D01*
X-00221*
X-00247Y00637*
X-00237*
X-00225Y00605*
X-00212Y00637*
X-00203*
X-0022Y00595*
G37*
G36*
X00168Y00638D02*
X00169Y00638D01*
X00171Y00637*
X00173Y00637*
X00174Y00637*
X00175Y00636*
X00176Y00635*
X00177Y00635*
X00178Y00634*
X00179Y00634*
X0018Y00633*
X00181Y00633*
X00181Y00632*
X00181Y00632*
X00182Y00632*
X00182Y00632*
X00183Y0063*
X00184Y00629*
X00184Y00628*
X00185Y00626*
X00186Y00625*
X00186Y00623*
X00187Y0062*
X00187Y00619*
X00187Y00618*
X00187Y00617*
X00188Y00616*
X00188Y00615*
Y00615*
Y00614*
Y00614*
X00188Y00612*
X00187Y0061*
X00187Y00608*
X00187Y00607*
X00186Y00605*
X00186Y00604*
X00185Y00603*
X00185Y00601*
X00184Y006*
X00183Y006*
X00183Y00599*
X00182Y00598*
X00182Y00598*
X00182Y00597*
X00182Y00597*
X00181Y00597*
X0018Y00596*
X00179Y00595*
X00178Y00594*
X00176Y00594*
X00175Y00593*
X00173Y00592*
X0017Y00592*
X00169Y00592*
X00168Y00591*
X00167Y00591*
X00166Y00591*
X00165Y00591*
X00164*
X00162Y00591*
X00161Y00591*
X0016Y00591*
X00158Y00592*
X00157Y00592*
X00156Y00592*
X00156Y00592*
X00156*
X00153Y00593*
X00152Y00593*
X0015Y00594*
X00149Y00594*
X00148Y00595*
X00148Y00595*
X00148Y00595*
X00148*
Y00604*
X00149*
X0015Y00603*
X00151Y00603*
X00152Y00602*
X00153Y00602*
X00154Y00601*
X00155Y00601*
X00155Y00601*
X00156Y00601*
X00156*
X00157Y006*
X00159Y006*
X0016Y00599*
X00161Y00599*
X00163Y00599*
X00163Y00599*
X00165*
X00166Y00599*
X00167Y00599*
X00168Y00599*
X00169Y00599*
X0017Y006*
X0017Y006*
X0017*
X00171Y006*
X00172Y00601*
X00173Y00601*
X00173Y00602*
X00174Y00602*
X00175Y00602*
X00175Y00603*
X00175Y00603*
X00176Y00603*
X00176Y00604*
X00177Y00605*
X00177Y00606*
X00177Y00607*
X00177Y00607*
X00178Y00607*
X00178Y00608*
X00178Y00609*
X00178Y0061*
X00178Y00611*
X00179Y00612*
X00179Y00612*
Y00613*
Y00613*
X00147*
Y00618*
X00147Y00619*
X00147Y00621*
X00147Y00623*
X00148Y00624*
X00148Y00625*
X00148Y00627*
X00149Y00628*
X00149Y00629*
X0015Y0063*
X0015Y00631*
X00151Y00631*
X00151Y00632*
X00151Y00632*
X00152Y00632*
X00152Y00633*
X00152Y00633*
X00153Y00634*
X00154Y00635*
X00155Y00635*
X00156Y00636*
X00157Y00636*
X00158Y00637*
X00161Y00637*
X00162Y00638*
X00163Y00638*
X00164Y00638*
X00164Y00638*
X00165Y00638*
X00166*
X00168Y00638*
G37*
G36*
X-00046D02*
X-00045Y00638D01*
X-00043Y00637*
X-00041Y00637*
X-0004Y00637*
X-00039Y00636*
X-00037Y00635*
X-00036Y00635*
X-00035Y00634*
X-00035Y00634*
X-00034Y00633*
X-00033Y00633*
X-00033Y00632*
X-00032Y00632*
X-00032Y00632*
X-00032Y00632*
X-00031Y0063*
X-0003Y00629*
X-00029Y00628*
X-00029Y00626*
X-00028Y00625*
X-00028Y00623*
X-00027Y0062*
X-00027Y00619*
X-00027Y00618*
X-00026Y00617*
X-00026Y00616*
X-00026Y00615*
Y00615*
Y00614*
Y00614*
X-00026Y00612*
X-00027Y0061*
X-00027Y00608*
X-00027Y00607*
X-00028Y00605*
X-00028Y00604*
X-00029Y00603*
X-00029Y00601*
X-0003Y006*
X-00031Y006*
X-00031Y00599*
X-00031Y00598*
X-00032Y00598*
X-00032Y00597*
X-00032Y00597*
X-00032Y00597*
X-00034Y00596*
X-00035Y00595*
X-00036Y00594*
X-00038Y00594*
X-00039Y00593*
X-00041Y00592*
X-00043Y00592*
X-00045Y00592*
X-00046Y00591*
X-00047Y00591*
X-00048Y00591*
X-00049Y00591*
X-0005*
X-00051Y00591*
X-00053Y00591*
X-00054Y00591*
X-00056Y00592*
X-00057Y00592*
X-00057Y00592*
X-00058Y00592*
X-00058*
X-00061Y00593*
X-00062Y00593*
X-00064Y00594*
X-00065Y00594*
X-00066Y00595*
X-00066Y00595*
X-00066Y00595*
X-00066*
Y00604*
X-00065*
X-00064Y00603*
X-00063Y00603*
X-00062Y00602*
X-00061Y00602*
X-0006Y00601*
X-00059Y00601*
X-00058Y00601*
X-00058Y00601*
X-00058*
X-00057Y006*
X-00055Y006*
X-00054Y00599*
X-00052Y00599*
X-00051Y00599*
X-00051Y00599*
X-00049*
X-00048Y00599*
X-00047Y00599*
X-00046Y00599*
X-00045Y00599*
X-00044Y006*
X-00044Y006*
X-00044*
X-00043Y006*
X-00042Y00601*
X-00041Y00601*
X-0004Y00602*
X-0004Y00602*
X-00039Y00602*
X-00039Y00603*
X-00039Y00603*
X-00038Y00603*
X-00038Y00604*
X-00037Y00605*
X-00037Y00606*
X-00037Y00607*
X-00036Y00607*
X-00036Y00607*
X-00036Y00608*
X-00036Y00609*
X-00036Y0061*
X-00035Y00611*
X-00035Y00612*
X-00035Y00612*
Y00613*
Y00613*
X-00067*
Y00618*
X-00067Y00619*
X-00067Y00621*
X-00067Y00623*
X-00066Y00624*
X-00066Y00625*
X-00066Y00627*
X-00065Y00628*
X-00065Y00629*
X-00064Y0063*
X-00064Y00631*
X-00063Y00631*
X-00063Y00632*
X-00063Y00632*
X-00062Y00632*
X-00062Y00633*
X-00062Y00633*
X-00061Y00634*
X-0006Y00635*
X-00059Y00635*
X-00058Y00636*
X-00057Y00636*
X-00055Y00637*
X-00053Y00637*
X-00052Y00638*
X-00051Y00638*
X-0005Y00638*
X-0005Y00638*
X-00049Y00638*
X-00048*
X-00046Y00638*
G37*
G36*
X00247Y00592D02*
X00231D01*
X00228Y00592*
X00226Y00592*
X00223Y00592*
X00223Y00592*
X00222Y00593*
X00221Y00593*
X0022Y00593*
X0022Y00593*
X00219Y00593*
X00219Y00593*
X00218Y00593*
X00218*
X00216Y00594*
X00215Y00594*
X00213Y00595*
X00212Y00595*
X00211Y00596*
X0021Y00596*
X00209Y00597*
X00209Y00597*
X00207Y00598*
X00205Y006*
X00203Y00602*
X00202Y00603*
X00201Y00605*
X00201Y00605*
X002Y00606*
X002Y00606*
X002Y00607*
X002Y00607*
Y00607*
X00198Y00609*
X00198Y00612*
X00197Y00615*
X00197Y00617*
X00196Y00618*
X00196Y00619*
X00196Y0062*
Y0062*
X00196Y00621*
Y00621*
Y00622*
Y00622*
X00196Y00625*
X00197Y00628*
X00197Y0063*
X00197Y00631*
X00198Y00632*
X00198Y00633*
X00198Y00634*
X00199Y00635*
X00199Y00635*
X00199Y00636*
X00199Y00636*
X002Y00636*
Y00636*
X00201Y00639*
X00202Y00641*
X00204Y00642*
X00206Y00644*
X00207Y00645*
X00207Y00645*
X00208Y00646*
X00208Y00646*
X00209Y00646*
X00209Y00647*
X00209*
X0021Y00647*
X00212Y00648*
X00213Y00649*
X00215Y00649*
X00216Y00649*
X00217Y0065*
X00217Y0065*
X00217*
X00218Y0065*
X00218*
X0022Y0065*
X00222Y00651*
X00224Y00651*
X00226Y00651*
X00227Y00651*
X00228*
X00229Y00651*
X00247*
Y00592*
G37*
G36*
X00094D02*
X00085D01*
Y00637*
X00094*
Y00592*
G37*
G36*
X0Y00638D02*
X00001Y00638D01*
X00003Y00638*
X00004Y00637*
X00005Y00637*
X00006Y00637*
X00006Y00636*
X00006Y00636*
X00008Y00636*
X00009Y00635*
X0001Y00634*
X00011Y00634*
X00011Y00633*
X00012Y00633*
X00012Y00632*
X00012Y00632*
Y00637*
X00021*
Y00592*
X00012*
Y00625*
X0001Y00626*
X00009Y00627*
X00008Y00627*
X00008Y00628*
X00007Y00628*
X00007Y00628*
X00006Y00628*
X00005Y00629*
X00004Y00629*
X00003Y00629*
X00002Y00629*
X00002Y0063*
X00001Y0063*
X0*
X0Y0063*
X-00001Y00629*
X-00002Y00629*
X-00002Y00629*
X-00003Y00629*
X-00003Y00629*
X-00003*
X-00003Y00629*
X-00004Y00628*
X-00005Y00627*
X-00005Y00627*
X-00005Y00627*
X-00006Y00626*
X-00006Y00626*
X-00006Y00626*
X-00006Y00625*
X-00006Y00624*
X-00006Y00624*
X-00006Y00623*
X-00007Y00623*
Y00623*
X-00007Y00621*
X-00007Y0062*
X-00007Y00619*
Y00619*
Y00618*
Y00618*
Y00618*
Y00592*
X-00016*
Y00621*
Y00622*
X-00016Y00624*
X-00015Y00625*
X-00015Y00626*
X-00015Y00627*
X-00015Y00629*
X-00014Y00629*
X-00014Y0063*
X-00014Y00631*
X-00013Y00632*
X-00013Y00632*
X-00013Y00633*
X-00012Y00633*
X-00012Y00633*
X-00012Y00633*
X-00012Y00634*
X-00011Y00634*
X-0001Y00635*
X-00009Y00636*
X-00008Y00636*
X-00007Y00637*
X-00005Y00638*
X-00003Y00638*
X-00002Y00638*
X-00002*
X-00001Y00638*
X-00001*
X0Y00638*
G37*
G36*
X00122Y00638D02*
X00124Y00638D01*
X00125Y00638*
X00126Y00637*
X00127Y00637*
X00128Y00637*
X00128Y00637*
X00129Y00637*
X0013Y00636*
X00131Y00636*
X00132Y00635*
X00133Y00635*
X00133Y00634*
X00134Y00634*
X00134Y00634*
X00134Y00634*
X00135Y00633*
X00136Y00632*
X00136Y00631*
X00137Y00631*
X00137Y0063*
X00138Y0063*
X00138Y00629*
X00138Y00629*
X00138Y00628*
X00138Y00627*
X00139Y00626*
X00139Y00626*
X00139Y00625*
X00139Y00624*
Y00624*
Y00624*
X00139Y00622*
X00139Y00621*
X00138Y00619*
X00138Y00618*
X00137Y00617*
X00137Y00617*
X00137Y00616*
X00136Y00616*
X00135Y00615*
X00134Y00614*
X00133Y00613*
X00131Y00613*
X0013Y00612*
X00129Y00612*
X00129Y00612*
X00128Y00612*
X00128Y00611*
X00128*
X00126Y00611*
X00126Y00611*
X00125Y00611*
X00124Y00611*
X00124Y00611*
X00124Y0061*
X00124*
X00123Y0061*
X00122Y0061*
X00121Y0061*
X00121Y0061*
X0012Y0061*
X0012Y0061*
X00119Y0061*
X00119*
X00118Y00609*
X00117Y00609*
X00116Y00609*
X00115Y00608*
X00115Y00608*
X00114Y00608*
X00114Y00608*
X00114Y00608*
X00114Y00607*
X00113Y00607*
X00113Y00606*
X00113Y00605*
X00113Y00605*
Y00604*
Y00604*
X00113Y00603*
X00113Y00602*
X00114Y00602*
X00114Y00601*
X00115Y00601*
X00115Y006*
X00115Y006*
X00115Y006*
X00116Y006*
X00117Y00599*
X00119Y00599*
X0012Y00599*
X00121Y00599*
X00122Y00599*
X00122*
X00124Y00599*
X00125Y00599*
X00126Y00599*
X00128Y00599*
X00129Y006*
X00129Y006*
X0013Y006*
X0013Y006*
X0013*
X00132Y00601*
X00133Y00601*
X00134Y00602*
X00135Y00603*
X00136Y00603*
X00137Y00604*
X00137Y00604*
X00138Y00604*
X00139*
Y00595*
X00137Y00594*
X00135Y00593*
X00134Y00593*
X00133Y00593*
X00133Y00592*
X00132Y00592*
X00132Y00592*
X0013Y00592*
X00129Y00591*
X00127Y00591*
X00126Y00591*
X00125Y00591*
X00124Y00591*
X00123*
X00121Y00591*
X0012Y00591*
X00118Y00591*
X00117Y00592*
X00116Y00592*
X00115Y00592*
X00114Y00593*
X00113Y00593*
X00112Y00593*
X00111Y00594*
X0011Y00594*
X0011Y00594*
X00109Y00595*
X00109Y00595*
X00109Y00595*
X00109*
X00108Y00596*
X00107Y00597*
X00106Y00597*
X00106Y00598*
X00105Y00599*
X00105Y006*
X00104Y00602*
X00104Y00603*
X00104Y00604*
X00104Y00604*
X00104Y00605*
Y00605*
Y00605*
Y00605*
X00104Y00607*
X00104Y00609*
X00105Y0061*
X00105Y00611*
X00106Y00612*
X00106Y00612*
X00106Y00612*
X00106Y00613*
X00108Y00614*
X00109Y00615*
X00111Y00616*
X00112Y00617*
X00113Y00617*
X00114Y00617*
X00114Y00617*
X00115Y00618*
X00115Y00618*
X00115*
X00116Y00618*
X00117Y00618*
X00118Y00618*
X00118Y00618*
X00119Y00618*
X00119*
X00121Y00619*
X00121Y00619*
X00122Y00619*
X00123Y00619*
X00123Y00619*
X00123Y00619*
X00124*
X00125Y0062*
X00126Y0062*
X00126Y0062*
X00127Y0062*
X00128Y00621*
X00128Y00621*
X00128Y00621*
X00128*
X00129Y00622*
X00129Y00622*
X00129Y00623*
X0013Y00624*
X0013Y00624*
X0013Y00625*
Y00625*
Y00625*
X0013Y00626*
X00129Y00627*
X00129Y00627*
X00129Y00628*
X00128Y00628*
X00128Y00629*
X00127Y00629*
X00127Y00629*
X00126Y00629*
X00125Y0063*
X00124Y0063*
X00123Y0063*
X00122Y0063*
X00122Y0063*
X00121*
X0012Y0063*
X00118Y0063*
X00117Y0063*
X00116Y0063*
X00115Y00629*
X00114Y00629*
X00114Y00629*
X00114Y00629*
X00112Y00628*
X00111Y00628*
X0011Y00627*
X00109Y00627*
X00108Y00626*
X00108Y00626*
X00107Y00625*
X00107Y00625*
X00105*
Y00634*
X00108Y00635*
X00109Y00636*
X0011Y00636*
X00111Y00637*
X00112Y00637*
X00113Y00637*
X00113*
X00114Y00637*
X00116Y00637*
X00117Y00638*
X00118Y00638*
X00119*
X0012Y00638*
X00121*
X00122Y00638*
G37*
G36*
X-00105Y00635D02*
X-00105Y00636D01*
X-00104Y00636*
X-00102Y00637*
X-00102Y00637*
X-00101Y00637*
X-00101Y00637*
X-00101*
X-00099Y00638*
X-00098Y00638*
X-00097Y00638*
X-00096Y00638*
X-00095*
X-00093Y00638*
X-00092Y00638*
X-00091Y00638*
X-00089Y00637*
X-00088Y00637*
X-00088Y00637*
X-00087Y00637*
X-00087Y00636*
X-00086Y00636*
X-00084Y00635*
X-00083Y00634*
X-00082Y00633*
X-00082Y00633*
X-00081Y00632*
X-00081Y00632*
X-00081Y00632*
X-0008Y0063*
X-00079Y00629*
X-00078Y00628*
X-00077Y00627*
X-00077Y00626*
X-00076Y00625*
X-00076Y00624*
X-00076Y00624*
Y00624*
X-00076Y00623*
X-00075Y00621*
X-00075Y00619*
X-00075Y00618*
X-00075Y00616*
Y00616*
X-00075Y00615*
Y00615*
Y00614*
Y00614*
Y00614*
X-00075Y00612*
X-00075Y0061*
X-00075Y00608*
X-00075Y00607*
X-00076Y00605*
X-00076Y00604*
X-00077Y00603*
X-00077Y00601*
X-00077Y006*
X-00078Y006*
X-00078Y00599*
X-00079Y00598*
X-00079Y00598*
X-00079Y00597*
X-00079Y00597*
X-00079Y00597*
X-0008Y00596*
X-00081Y00595*
X-00082Y00594*
X-00083Y00593*
X-00084Y00593*
X-00086Y00592*
X-00088Y00592*
X-00089Y00591*
X-0009Y00591*
X-00091Y00591*
X-00091Y00591*
X-00092*
X-00094Y00591*
X-00095Y00591*
X-00097Y00591*
X-00098Y00592*
X-00099Y00592*
X-00099Y00592*
X-001Y00592*
X-001Y00592*
X-00101Y00593*
X-00102Y00594*
X-00103Y00594*
X-00104Y00595*
X-00105Y00596*
X-00105Y00596*
X-00105Y00596*
X-00105Y00597*
Y00592*
X-00114*
Y00654*
X-00105*
Y00635*
G37*
G36*
X00254Y00552D02*
X00244D01*
Y00561*
X00254*
Y00552*
G37*
G36*
X-00144D02*
X-00154D01*
Y00561*
X-00144*
Y00552*
G37*
G36*
X00095Y00502D02*
X00086D01*
Y00535*
X00084Y00536*
X00083Y00537*
X00082Y00537*
X00081Y00537*
X00081Y00538*
X0008Y00538*
X0008Y00538*
X00079Y00538*
X00078Y00539*
X00077Y00539*
X00076Y00539*
X00075Y00539*
X00075Y00539*
X00073*
X00072Y00539*
X00072Y00539*
X00071Y00539*
X0007Y00539*
X0007Y00539*
X0007Y00539*
X0007*
X00069Y00538*
X00069Y00538*
X00068Y00537*
X00068Y00537*
X00067Y00536*
X00067Y00536*
X00067Y00536*
X00067Y00536*
X00067Y00535*
X00066Y00534*
X00066Y00533*
X00066Y00533*
X00066Y00533*
Y00533*
X00066Y00531*
X00066Y0053*
X00066Y00529*
Y00528*
Y00528*
Y00527*
Y00527*
Y00502*
X00057*
Y00531*
Y00532*
X00057Y00534*
X00057Y00535*
X00058Y00536*
X00058Y00537*
X00058Y00538*
X00058Y00539*
X00059Y0054*
X00059Y00541*
X0006Y00542*
X0006Y00542*
X0006Y00543*
X0006Y00543*
X00061Y00543*
X00061Y00543*
X00061Y00543*
X00062Y00544*
X00062Y00545*
X00063Y00545*
X00064Y00546*
X00066Y00547*
X00068Y00547*
X0007Y00548*
X0007Y00548*
X00071*
X00071Y00548*
X00072*
X00074Y00548*
X00075Y00548*
X00076Y00547*
X00078Y00547*
X00079Y00547*
X00079Y00546*
X0008Y00546*
X0008Y00546*
X00081Y00546*
X00082Y00545*
X00083Y00544*
X00084Y00543*
X00085Y00543*
X00086Y00542*
X00086Y00542*
X00086Y00542*
Y00564*
X00095*
Y00502*
G37*
G36*
X00231D02*
X00222D01*
Y00533*
X00221Y00534*
X0022Y00535*
X00219Y00536*
X00218Y00536*
X00218Y00536*
X00217Y00536*
X00217Y00537*
X00216Y00537*
X00215Y00537*
X00214Y00538*
X00213Y00538*
X00212Y00538*
X00211Y00538*
X00209*
X00209Y00538*
X00208*
X00208Y00538*
X00207*
X00206Y00538*
X00205Y00537*
X00205Y00537*
X00204*
X00204Y00537*
X00203*
Y00546*
X00204Y00546*
X00204Y00546*
X00205*
X00205Y00546*
X00206Y00547*
X00206*
X00206Y00547*
X00207*
X00208Y00547*
X00209*
X0021Y00547*
X00211Y00546*
X00213Y00546*
X00214Y00546*
X00215Y00546*
X00215Y00545*
X00216Y00545*
X00216Y00545*
X00217Y00545*
X00218Y00544*
X0022Y00543*
X00221Y00542*
X00221Y00541*
X00222Y00541*
X00222Y00541*
X00222Y0054*
Y00547*
X00231*
Y00502*
G37*
G36*
X00031Y00548D02*
X00032Y00548D01*
X00033Y00547*
X00034Y00547*
X00035Y00547*
X00036Y00547*
X00036*
X00037Y00547*
X00039Y00546*
X0004Y00546*
X00041Y00546*
X00042Y00546*
X00042Y00546*
X00043Y00546*
X00043*
Y00537*
X00041*
X0004Y00537*
X00039Y00538*
X00037Y00538*
X00036Y00538*
X00035Y00539*
X00035Y00539*
X00034Y00539*
X00034*
X00033Y00539*
X00032Y00539*
X00031Y0054*
X0003Y0054*
X00029Y0054*
X00028*
X00026Y0054*
X00026*
X00025Y0054*
X00024Y0054*
X00024*
X00024Y00539*
X00024*
X00022Y00539*
X00022Y00539*
X00021Y00539*
X00021Y00539*
X0002Y00538*
X0002Y00538*
X0002*
X00019Y00538*
X00018Y00537*
X00018Y00536*
X00018Y00536*
Y00536*
X00017Y00535*
X00017Y00534*
X00017Y00533*
Y00533*
Y00532*
Y00532*
Y00532*
X00019Y00532*
X00021Y00532*
X00023Y00531*
X00025Y00531*
X00026Y00531*
X00027*
X00027Y00531*
X00028*
X00028Y00531*
X00028*
X0003Y00531*
X00032Y0053*
X00034Y0053*
X00035Y00529*
X00036Y00529*
X00037Y00529*
X00038Y00529*
X00038Y00529*
X00038*
X00039Y00528*
X00041Y00527*
X00042Y00526*
X00043Y00525*
X00043Y00525*
X00044Y00524*
X00044Y00524*
X00044Y00523*
X00045Y00522*
X00046Y00521*
X00046Y00519*
X00046Y00518*
X00046Y00517*
X00047Y00516*
Y00516*
Y00515*
Y00515*
Y00515*
X00046Y00514*
X00046Y00513*
X00046Y00511*
X00045Y00509*
X00044Y00507*
X00044Y00506*
X00043Y00505*
X00042Y00505*
X00042Y00505*
Y00505*
X00041Y00504*
X00041Y00503*
X00039Y00502*
X00037Y00502*
X00035Y00501*
X00034Y00501*
X00033Y00501*
X00033*
X00032Y00501*
X00031*
X00029Y00501*
X00028Y00501*
X00028Y00501*
X00027Y00501*
X00026Y00501*
X00026Y00501*
X00026*
X00024Y00502*
X00024Y00502*
X00023Y00502*
X00022Y00502*
X00022Y00503*
X00022Y00503*
X00022*
X00021Y00503*
X00019Y00504*
X00019Y00504*
X00019Y00504*
X00019Y00505*
X00018Y00505*
X00018Y00505*
X00018Y00505*
X00017Y00506*
X00017Y00506*
X00017Y00506*
Y00502*
X00008*
Y00532*
X00008Y00533*
X00008Y00535*
X00009Y00536*
X00009Y00537*
X00009Y00538*
X00009Y00539*
X00009Y00539*
X00009Y00539*
X0001Y0054*
X00011Y00541*
X00011Y00542*
X00012Y00543*
X00013Y00543*
X00013Y00544*
X00013Y00544*
X00013Y00544*
X00014Y00545*
X00016Y00545*
X00017Y00546*
X00018Y00546*
X00018Y00547*
X00019Y00547*
X00019Y00547*
X0002*
X00021Y00547*
X00022Y00547*
X00024Y00548*
X00025Y00548*
X00026Y00548*
X00028*
X00031Y00548*
G37*
G36*
X-00109D02*
X-00107Y00548D01*
X-00106Y00547*
X-00105Y00547*
X-00104Y00547*
X-00104Y00547*
X-00103*
X-00102Y00547*
X-00101Y00546*
X-00099Y00546*
X-00098Y00546*
X-00098Y00546*
X-00097Y00546*
X-00097Y00546*
X-00097*
Y00537*
X-00098*
X-00099Y00537*
X-00101Y00538*
X-00102Y00538*
X-00103Y00538*
X-00104Y00539*
X-00105Y00539*
X-00105Y00539*
X-00105*
X-00106Y00539*
X-00108Y00539*
X-00109Y0054*
X-0011Y0054*
X-0011Y0054*
X-00111*
X-00113Y0054*
X-00114*
X-00114Y0054*
X-00115Y0054*
X-00115*
X-00116Y00539*
X-00116*
X-00117Y00539*
X-00118Y00539*
X-00118Y00539*
X-00119Y00539*
X-00119Y00538*
X-00119Y00538*
X-00119*
X-0012Y00538*
X-00121Y00537*
X-00121Y00536*
X-00121Y00536*
Y00536*
X-00122Y00535*
X-00122Y00534*
X-00122Y00533*
Y00533*
Y00532*
Y00532*
Y00532*
X-0012Y00532*
X-00118Y00532*
X-00116Y00531*
X-00114Y00531*
X-00113Y00531*
X-00112*
X-00112Y00531*
X-00111*
X-00111Y00531*
X-00111*
X-00109Y00531*
X-00107Y0053*
X-00105Y0053*
X-00104Y00529*
X-00103Y00529*
X-00102Y00529*
X-00101Y00529*
X-00101Y00529*
X-00101*
X-001Y00528*
X-00099Y00527*
X-00097Y00526*
X-00097Y00525*
X-00096Y00525*
X-00095Y00524*
X-00095Y00524*
X-00095Y00523*
X-00094Y00522*
X-00094Y00521*
X-00093Y00519*
X-00093Y00518*
X-00093Y00517*
X-00093Y00516*
Y00516*
Y00515*
Y00515*
Y00515*
X-00093Y00514*
X-00093Y00513*
X-00093Y00511*
X-00094Y00509*
X-00095Y00507*
X-00096Y00506*
X-00096Y00505*
X-00097Y00505*
X-00097Y00505*
Y00505*
X-00098Y00504*
X-00099Y00503*
X-001Y00502*
X-00102Y00502*
X-00104Y00501*
X-00105Y00501*
X-00106Y00501*
X-00106*
X-00107Y00501*
X-00109*
X-0011Y00501*
X-00111Y00501*
X-00112Y00501*
X-00112Y00501*
X-00113Y00501*
X-00113Y00501*
X-00113*
X-00115Y00502*
X-00116Y00502*
X-00116Y00502*
X-00117Y00502*
X-00117Y00503*
X-00117Y00503*
X-00117*
X-00119Y00503*
X-0012Y00504*
X-0012Y00504*
X-0012Y00504*
X-00121Y00505*
X-00121Y00505*
X-00121Y00505*
X-00122Y00505*
X-00122Y00506*
X-00122Y00506*
X-00122Y00506*
Y00502*
X-00131*
Y00532*
X-00131Y00533*
X-00131Y00535*
X-00131Y00536*
X-00131Y00537*
X-0013Y00538*
X-0013Y00539*
X-0013Y00539*
X-0013Y00539*
X-00129Y0054*
X-00129Y00541*
X-00128Y00542*
X-00127Y00543*
X-00127Y00543*
X-00126Y00544*
X-00126Y00544*
X-00126Y00544*
X-00125Y00545*
X-00124Y00545*
X-00123Y00546*
X-00122Y00546*
X-00121Y00547*
X-0012Y00547*
X-0012Y00547*
X-0012*
X-00118Y00547*
X-00117Y00547*
X-00115Y00548*
X-00114Y00548*
X-00113Y00548*
X-00111*
X-00109Y00548*
G37*
G36*
X-00294D02*
X-00293Y00548D01*
X-00291Y00547*
X-0029Y00547*
X-0029Y00547*
X-00289Y00547*
X-00289*
X-00287Y00547*
X-00286Y00546*
X-00285Y00546*
X-00284Y00546*
X-00283Y00546*
X-00283Y00546*
X-00282Y00546*
X-00282*
Y00537*
X-00283*
X-00285Y00537*
X-00286Y00538*
X-00287Y00538*
X-00288Y00538*
X-00289Y00539*
X-0029Y00539*
X-0029Y00539*
X-00291*
X-00292Y00539*
X-00293Y00539*
X-00294Y0054*
X-00295Y0054*
X-00296Y0054*
X-00297*
X-00298Y0054*
X-00299*
X-003Y0054*
X-003Y0054*
X-00301*
X-00301Y00539*
X-00301*
X-00303Y00539*
X-00303Y00539*
X-00304Y00539*
X-00304Y00539*
X-00304Y00538*
X-00305Y00538*
X-00305*
X-00306Y00538*
X-00306Y00537*
X-00307Y00536*
X-00307Y00536*
Y00536*
X-00307Y00535*
X-00308Y00534*
X-00308Y00533*
Y00533*
Y00532*
Y00532*
Y00532*
X-00306Y00532*
X-00304Y00532*
X-00302Y00531*
X-003Y00531*
X-00298Y00531*
X-00298*
X-00297Y00531*
X-00297*
X-00297Y00531*
X-00296*
X-00294Y00531*
X-00293Y0053*
X-00291Y0053*
X-00289Y00529*
X-00288Y00529*
X-00287Y00529*
X-00287Y00529*
X-00287Y00529*
X-00287*
X-00285Y00528*
X-00284Y00527*
X-00283Y00526*
X-00282Y00525*
X-00281Y00525*
X-00281Y00524*
X-0028Y00524*
X-0028Y00523*
X-0028Y00522*
X-00279Y00521*
X-00279Y00519*
X-00278Y00518*
X-00278Y00517*
X-00278Y00516*
Y00516*
Y00515*
Y00515*
Y00515*
X-00278Y00514*
X-00278Y00513*
X-00279Y00511*
X-0028Y00509*
X-0028Y00507*
X-00281Y00506*
X-00282Y00505*
X-00282Y00505*
X-00282Y00505*
Y00505*
X-00283Y00504*
X-00284Y00503*
X-00286Y00502*
X-00288Y00502*
X-00289Y00501*
X-00291Y00501*
X-00291Y00501*
X-00292*
X-00292Y00501*
X-00294*
X-00295Y00501*
X-00296Y00501*
X-00297Y00501*
X-00298Y00501*
X-00298Y00501*
X-00299Y00501*
X-00299*
X-003Y00502*
X-00301Y00502*
X-00302Y00502*
X-00302Y00502*
X-00303Y00503*
X-00303Y00503*
X-00303*
X-00304Y00503*
X-00305Y00504*
X-00306Y00504*
X-00306Y00504*
X-00306Y00505*
X-00306Y00505*
X-00307Y00505*
X-00307Y00505*
X-00307Y00506*
X-00308Y00506*
X-00308Y00506*
Y00502*
X-00317*
Y00532*
X-00317Y00533*
X-00316Y00535*
X-00316Y00536*
X-00316Y00537*
X-00316Y00538*
X-00315Y00539*
X-00315Y00539*
X-00315Y00539*
X-00315Y0054*
X-00314Y00541*
X-00313Y00542*
X-00313Y00543*
X-00312Y00543*
X-00312Y00544*
X-00311Y00544*
X-00311Y00544*
X-0031Y00545*
X-00309Y00545*
X-00308Y00546*
X-00307Y00546*
X-00306Y00547*
X-00306Y00547*
X-00305Y00547*
X-00305*
X-00304Y00547*
X-00302Y00547*
X-00301Y00548*
X-003Y00548*
X-00299Y00548*
X-00297*
X-00294Y00548*
G37*
G36*
X-00167Y00502D02*
X-00176D01*
Y00517*
X-0018Y00521*
X-00197Y00502*
X-00208*
X-00186Y00526*
X-00206Y00547*
X-00196*
X-00176Y00525*
Y00564*
X-00167*
Y00502*
G37*
G36*
X-00223D02*
X-00231D01*
X-00241Y00535*
X-00252Y00502*
X-0026*
X-00271Y00547*
X-00262*
X-00255Y00513*
X-00245Y00547*
X-00238*
X-00228Y00513*
X-0022Y00547*
X-00211*
X-00223Y00502*
G37*
G36*
X00197Y00518D02*
X00197Y00516D01*
X00197Y00515*
X00197Y00513*
X00196Y00512*
X00196Y00511*
X00196Y0051*
X00195Y00509*
X00195Y00508*
X00195Y00507*
X00194Y00507*
X00194Y00506*
X00194Y00506*
X00193Y00505*
X00193Y00505*
X00193Y00505*
Y00505*
X00192Y00504*
X00191Y00504*
X0019Y00502*
X00188Y00502*
X00186Y00501*
X00184Y00501*
X00184Y00501*
X00183*
X00183Y00501*
X00182*
X0018Y00501*
X00179Y00501*
X00178Y00501*
X00176Y00501*
X00175Y00502*
X00175Y00502*
X00174Y00502*
X00174Y00502*
X00173Y00503*
X00172Y00504*
X00171Y00504*
X0017Y00505*
X00169Y00506*
X00169Y00506*
X00168Y00507*
X00168Y00507*
Y00502*
X00159*
Y00547*
X00168*
Y00514*
X0017Y00512*
X00171Y00512*
X00172Y00511*
X00173Y00511*
X00173Y00511*
X00174Y00511*
X00174Y0051*
X00175Y0051*
X00176Y0051*
X00177Y00509*
X00178Y00509*
X00179Y00509*
X00179Y00509*
X00181*
X00182Y00509*
X00183Y00509*
X00183Y00509*
X00184Y0051*
X00184Y0051*
X00184Y0051*
X00184*
X00185Y0051*
X00186Y00511*
X00187Y00512*
X00187Y00512*
Y00512*
X00187Y00513*
X00188Y00514*
X00188Y00515*
X00188Y00515*
X00188Y00516*
Y00516*
X00188Y00517*
X00188Y00517*
Y00518*
X00188Y00519*
Y0052*
Y00521*
Y00521*
Y00521*
Y00547*
X00197*
Y00518*
G37*
G36*
X-00059Y00562D02*
X-00056Y00562D01*
X-00054Y00561*
X-00052Y00561*
X-0005Y0056*
X-00048Y00559*
X-00046Y00559*
X-00044Y00558*
X-00043Y00557*
X-00042Y00556*
X-00041Y00556*
X-0004Y00555*
X-00039Y00555*
X-00039Y00554*
X-00039Y00554*
X-00038Y00554*
X-00037Y00552*
X-00036Y00551*
X-00035Y00549*
X-00034Y00547*
X-00033Y00545*
X-00032Y00543*
X-00032Y00541*
X-00031Y0054*
X-00031Y00538*
X-00031Y00536*
X-0003Y00535*
X-0003Y00534*
Y00533*
X-0003Y00532*
Y00532*
Y00531*
X-0003Y00529*
X-00031Y00526*
X-00031Y00524*
X-00031Y00522*
X-00031Y00521*
X-00032Y0052*
X-00032Y00519*
X-00032Y00519*
X-00032Y00518*
X-00032Y00518*
X-00032Y00518*
Y00518*
X-00033Y00516*
X-00034Y00514*
X-00035Y00512*
X-00036Y00511*
X-00037Y0051*
X-00038Y00509*
X-00039Y00508*
X-00039Y00508*
Y00508*
X-0004Y00507*
X-00042Y00506*
X-00044Y00505*
X-00045Y00504*
X-00047Y00503*
X-00047Y00503*
X-00048Y00503*
X-00048Y00503*
X-00048Y00503*
X-00049Y00502*
X-00049*
X-00051Y00502*
X-00053Y00501*
X-00055Y00501*
X-00057Y00501*
X-00059Y00501*
X-00059*
X-0006Y00501*
X-00061*
X-00063Y00501*
X-00065Y00501*
X-00067Y00501*
X-00069Y00501*
X-0007Y00502*
X-00071Y00502*
X-00071Y00502*
X-00072Y00502*
X-00072Y00502*
X-00072Y00502*
X-00072*
X-00074Y00503*
X-00076Y00504*
X-00078Y00504*
X-0008Y00505*
X-00081Y00505*
X-00082Y00506*
X-00082Y00506*
X-00083Y00506*
X-00083Y00506*
X-00083Y00506*
X-00083*
Y00532*
X-00059*
Y00524*
X-00074*
Y00511*
X-00073Y00511*
X-00072Y0051*
X-00071Y0051*
X-0007Y0051*
X-00069Y0051*
X-00069Y0051*
X-00068Y00509*
X-00068*
X-00066Y00509*
X-00064Y00509*
X-00063Y00509*
X-00062Y00509*
X-00061*
X-00059Y00509*
X-00058Y00509*
X-00056Y00509*
X-00054Y0051*
X-00053Y0051*
X-00052Y00511*
X-00051Y00511*
X-0005Y00512*
X-00049Y00512*
X-00048Y00513*
X-00047Y00513*
X-00047Y00514*
X-00046Y00514*
X-00046Y00514*
X-00046Y00515*
X-00046Y00515*
X-00045Y00516*
X-00044Y00517*
X-00043Y00519*
X-00042Y0052*
X-00042Y00521*
X-00041Y00523*
X-00041Y00525*
X-0004Y00527*
X-0004Y00528*
X-0004Y00529*
X-0004Y0053*
X-0004Y00531*
Y00531*
Y00532*
Y00532*
X-0004Y00534*
X-0004Y00535*
X-0004Y00537*
X-00041Y00539*
X-00041Y0054*
X-00042Y00541*
X-00042Y00543*
X-00043Y00544*
X-00043Y00545*
X-00044Y00546*
X-00044Y00546*
X-00044Y00547*
X-00045Y00547*
X-00045Y00548*
X-00045Y00548*
X-00045Y00548*
X-00046Y00549*
X-00047Y0055*
X-00049Y00551*
X-0005Y00551*
X-00051Y00552*
X-00052Y00552*
X-00055Y00553*
X-00056Y00553*
X-00057Y00554*
X-00058Y00554*
X-00058Y00554*
X-00059Y00554*
X-00062*
X-00063Y00554*
X-00064Y00554*
X-00065Y00554*
X-00066Y00553*
X-00067Y00553*
X-00067Y00553*
X-00067*
X-00069Y00553*
X-0007Y00552*
X-00071Y00552*
X-00072Y00552*
X-00072Y00552*
X-00073Y00551*
X-00073Y00551*
X-00073Y00551*
X-00075Y0055*
X-00076Y0055*
X-00076Y0055*
X-00077Y00549*
X-00077Y00549*
X-00078Y00549*
X-00078Y00549*
X-00079Y00548*
X-00079Y00548*
X-0008Y00547*
X-0008Y00547*
X-00081Y00547*
X-00081Y00546*
X-00081Y00546*
X-00081Y00546*
X-00083*
Y00557*
X-00081Y00558*
X-00079Y00559*
X-00077Y00559*
X-00075Y0056*
X-00073Y0056*
X-00073Y0056*
X-00072Y00561*
X-00072Y00561*
X-00072*
X-00072Y00561*
X-00071*
X-0007Y00561*
X-00068Y00562*
X-00066Y00562*
X-00064Y00562*
X-00063Y00562*
X-00062Y00562*
X-00061*
X-00059Y00562*
G37*
G36*
X00367Y00502D02*
X00358D01*
X00352Y00518*
X00328*
X00322Y00502*
X00313*
X00334Y00561*
X00345*
X00367Y00502*
G37*
G36*
X00284Y00548D02*
X00285Y00548D01*
X00287Y00547*
X00288Y00547*
X00289Y00547*
X0029Y00546*
X0029Y00546*
X0029Y00546*
X00292Y00546*
X00293Y00545*
X00294Y00544*
X00295Y00543*
X00295Y00543*
X00296Y00542*
X00296Y00542*
X00296Y00542*
Y00547*
X00305*
Y00502*
X00296*
Y00535*
X00294Y00536*
X00293Y00537*
X00292Y00537*
X00292Y00537*
X00291Y00538*
X00291Y00538*
X0029Y00538*
X00289Y00538*
X00288Y00539*
X00287Y00539*
X00286Y00539*
X00286Y00539*
X00285Y00539*
X00283*
X00283Y00539*
X00282Y00539*
X00281Y00539*
X00281Y00539*
X0028Y00539*
X0028Y00539*
X0028*
X0028Y00538*
X00279Y00538*
X00278Y00537*
X00278Y00537*
X00278Y00536*
X00277Y00536*
X00277Y00536*
X00277Y00536*
X00277Y00535*
X00277Y00534*
X00277Y00533*
X00277Y00533*
X00276Y00533*
Y00533*
X00276Y00531*
X00276Y0053*
X00276Y00529*
Y00528*
Y00528*
Y00527*
Y00527*
Y00502*
X00267*
Y00531*
Y00532*
X00267Y00534*
X00268Y00535*
X00268Y00536*
X00268Y00537*
X00268Y00538*
X00269Y00539*
X00269Y0054*
X00269Y00541*
X0027Y00542*
X0027Y00542*
X0027Y00543*
X00271Y00543*
X00271Y00543*
X00271Y00543*
X00271Y00543*
X00272Y00544*
X00273Y00545*
X00274Y00545*
X00275Y00546*
X00276Y00547*
X00278Y00547*
X0028Y00548*
X00281Y00548*
X00281*
X00282Y00548*
X00282*
X00284Y00548*
G37*
G36*
X00254Y00502D02*
X00245D01*
Y00547*
X00254*
Y00502*
G37*
G36*
X-00145D02*
X-00153D01*
Y00547*
X-00145*
Y00502*
G37*
G36*
X00118Y00545D02*
X00118Y00545D01*
X00119Y00546*
X00121Y00547*
X00121Y00547*
X00122Y00547*
X00122Y00547*
X00122*
X00124Y00548*
X00125Y00548*
X00126Y00548*
X00127Y00548*
X00128*
X0013Y00548*
X00131Y00548*
X00133Y00547*
X00134Y00547*
X00135Y00547*
X00135Y00547*
X00136Y00546*
X00136Y00546*
X00137Y00546*
X00139Y00545*
X0014Y00544*
X00141Y00543*
X00141Y00543*
X00142Y00542*
X00142Y00542*
X00142Y00542*
X00143Y0054*
X00144Y00539*
X00145Y00538*
X00146Y00537*
X00146Y00536*
X00147Y00535*
X00147Y00534*
X00147Y00534*
Y00534*
X00147Y00532*
X00148Y00531*
X00148Y00529*
X00148Y00527*
X00148Y00526*
Y00525*
X00148Y00525*
Y00524*
Y00524*
Y00524*
Y00524*
X00148Y00522*
X00148Y0052*
X00148Y00518*
X00148Y00517*
X00147Y00515*
X00147Y00514*
X00147Y00512*
X00146Y00511*
X00146Y0051*
X00145Y00509*
X00145Y00509*
X00144Y00508*
X00144Y00507*
X00144Y00507*
X00144Y00507*
X00144Y00507*
X00143Y00506*
X00142Y00505*
X00141Y00504*
X0014Y00503*
X00139Y00503*
X00138Y00502*
X00135Y00501*
X00134Y00501*
X00133Y00501*
X00132Y00501*
X00132Y00501*
X00131*
X00129Y00501*
X00128Y00501*
X00126Y00501*
X00125Y00501*
X00124Y00502*
X00124Y00502*
X00123Y00502*
X00123Y00502*
X00122Y00503*
X00121Y00503*
X0012Y00504*
X00119Y00505*
X00118Y00505*
X00118Y00506*
X00118Y00506*
X00118Y00506*
Y00502*
X00109*
Y00564*
X00118*
Y00545*
G37*
G36*
X-00358D02*
X-00357Y00545D01*
X-00356Y00546*
X-00355Y00547*
X-00354Y00547*
X-00354Y00547*
X-00353Y00547*
X-00353*
X-00351Y00548*
X-0035Y00548*
X-00349Y00548*
X-00348Y00548*
X-00347*
X-00345Y00548*
X-00344Y00548*
X-00343Y00547*
X-00342Y00547*
X-00341Y00547*
X-0034Y00547*
X-00339Y00546*
X-00339Y00546*
X-00338Y00546*
X-00337Y00545*
X-00336Y00544*
X-00335Y00543*
X-00334Y00543*
X-00333Y00542*
X-00333Y00542*
X-00333Y00542*
X-00332Y0054*
X-00331Y00539*
X-0033Y00538*
X-0033Y00537*
X-00329Y00536*
X-00329Y00535*
X-00329Y00534*
X-00328Y00534*
Y00534*
X-00328Y00532*
X-00328Y00531*
X-00327Y00529*
X-00327Y00527*
X-00327Y00526*
Y00525*
X-00327Y00525*
Y00524*
Y00524*
Y00524*
Y00524*
X-00327Y00522*
X-00327Y0052*
X-00327Y00518*
X-00328Y00517*
X-00328Y00515*
X-00328Y00514*
X-00329Y00512*
X-00329Y00511*
X-0033Y0051*
X-0033Y00509*
X-00331Y00509*
X-00331Y00508*
X-00331Y00507*
X-00331Y00507*
X-00332Y00507*
X-00332Y00507*
X-00333Y00506*
X-00334Y00505*
X-00335Y00504*
X-00336Y00503*
X-00337Y00503*
X-00338Y00502*
X-0034Y00501*
X-00342Y00501*
X-00343Y00501*
X-00343Y00501*
X-00344Y00501*
X-00345*
X-00346Y00501*
X-00348Y00501*
X-00349Y00501*
X-0035Y00501*
X-00351Y00502*
X-00352Y00502*
X-00352Y00502*
X-00352Y00502*
X-00354Y00503*
X-00355Y00503*
X-00356Y00504*
X-00356Y00505*
X-00357Y00505*
X-00357Y00506*
X-00358Y00506*
X-00358Y00506*
Y00502*
X-00367*
Y00564*
X-00358*
Y00545*
G37*
G36*
X-00085Y00487D02*
X-00083Y00487D01*
X-00082Y00487*
X-00081Y00487*
X-00079Y00486*
X-00078Y00486*
X-00078Y00486*
X-00078*
X-00078Y00486*
X-00078*
X-00076Y00486*
X-00074Y00485*
X-00073Y00485*
X-00072Y00484*
X-00071Y00484*
X-0007Y00484*
X-0007Y00483*
X-0007Y00483*
Y00474*
X-00071*
X-00073Y00475*
X-00074Y00476*
X-00075Y00476*
X-00077Y00477*
X-00078Y00477*
X-00078Y00478*
X-00079Y00478*
X-00079Y00478*
X-00081Y00478*
X-00082Y00479*
X-00083Y00479*
X-00084Y00479*
X-00085Y00479*
X-00086Y00479*
X-00087*
X-00088Y00479*
X-0009Y00479*
X-00091Y00478*
X-00092Y00478*
X-00093Y00477*
X-00094Y00477*
X-00094Y00477*
X-00094Y00477*
X-00095Y00476*
X-00096Y00475*
X-00096Y00474*
X-00097Y00473*
X-00097Y00472*
X-00097Y00471*
Y0047*
Y0047*
Y0047*
X-00097Y00469*
X-00097Y00467*
X-00096Y00465*
X-00096Y00464*
X-00095Y00463*
X-00095Y00462*
X-00094Y00462*
X-00094Y00461*
Y00461*
X-00094Y00461*
X-00093Y0046*
X-00092Y00458*
X-0009Y00456*
X-00088Y00454*
X-00087Y00453*
X-00086Y00452*
X-00086Y00451*
X-00085Y00451*
X-00085Y0045*
X-00084Y0045*
X-00084Y0045*
X-00082Y00448*
X-0008Y00446*
X-00079Y00445*
X-00078Y00444*
X-00077Y00444*
X-00077Y00443*
X-00077Y00443*
X-00077*
X-00074Y00441*
X-00072Y00439*
X-00071Y00438*
X-0007Y00437*
X-00069Y00437*
X-00069Y00436*
X-00068Y00436*
X-00068Y00436*
Y00427*
X-00109*
Y00435*
X-00078*
X-00079Y00436*
X-00081Y00437*
X-00082Y00438*
X-00083Y00439*
X-00084Y00439*
X-00085Y0044*
X-00086Y0044*
X-00086Y00441*
X-00086*
X-00088Y00442*
X-00089Y00443*
X-00091Y00445*
X-00092Y00446*
X-00093Y00447*
X-00094Y00448*
X-00094Y00448*
X-00095Y00449*
X-00096Y0045*
X-00097Y00451*
X-00097Y00452*
X-00098Y00452*
X-00099Y00453*
X-00099Y00453*
X-00099Y00454*
X-001Y00454*
X-00101Y00456*
X-00102Y00456*
X-00102Y00457*
X-00102Y00458*
X-00103Y00458*
X-00103Y00459*
X-00103Y00459*
X-00104Y00461*
X-00105Y00462*
X-00105Y00462*
X-00105Y00463*
X-00105Y00464*
X-00106Y00464*
Y00464*
X-00106Y00467*
X-00106Y00468*
X-00106Y00469*
X-00107Y00469*
Y0047*
Y0047*
Y00471*
X-00106Y00472*
X-00106Y00473*
X-00106Y00475*
X-00106Y00476*
X-00105Y00478*
X-00104Y0048*
X-00103Y0048*
X-00103Y00481*
X-00102Y00481*
X-00102Y00482*
X-00102Y00482*
X-00102Y00483*
X-00101Y00483*
X-00101Y00483*
X-001Y00484*
X-00099Y00484*
X-00098Y00485*
X-00097Y00485*
X-00094Y00486*
X-00092Y00487*
X-00091Y00487*
X-0009Y00487*
X-00089Y00487*
X-00088*
X-00088Y00487*
X-00087*
X-00085Y00487*
G37*
G36*
X00104Y00455D02*
X00102Y00455D01*
X00101Y00455*
X001Y00455*
X00099Y00455*
X00098Y00456*
X00098Y00456*
X00098*
X00095Y00456*
X00094Y00456*
X00093*
X00093Y00456*
X0009*
X00089Y00456*
X00088Y00456*
X00087Y00456*
X00086Y00456*
X00086Y00456*
X00085Y00455*
X00085*
X00084Y00455*
X00083Y00455*
X00082Y00455*
X00082Y00454*
X00081Y00454*
X00081Y00454*
X0008Y00454*
X0008Y00453*
X00079Y00453*
X00078Y00452*
X00078Y00451*
X00078Y00451*
X00078Y00451*
Y0045*
X00077Y0045*
X00077Y00449*
X00077Y00448*
Y00447*
X00077Y00446*
Y00446*
Y00446*
Y00445*
X00077Y00444*
X00077Y00443*
X00077Y00442*
X00077Y00442*
X00078Y00441*
X00078Y00441*
Y00441*
X00078Y0044*
X00078Y00439*
X00079Y00439*
X00079Y00438*
X00079Y00438*
X00079Y00438*
X00079Y00437*
Y00437*
X0008Y00437*
X00081Y00436*
X00082Y00435*
X00083Y00435*
X00083Y00435*
X00084Y00435*
X00084Y00434*
X00084*
X00086Y00434*
X00087Y00434*
X00088Y00434*
X00088Y00434*
X00089*
X00091Y00434*
X00092Y00434*
X00094Y00434*
X00095Y00435*
X00096Y00435*
X00097Y00435*
X00097Y00435*
X00098Y00435*
X00098*
X00099Y00436*
X00101Y00436*
X00102Y00437*
X00103Y00437*
X00104Y00438*
X00104Y00438*
X00105Y00439*
X00105Y00439*
X00107*
Y00429*
X00104Y00428*
X00102Y00428*
X00101Y00427*
X001Y00427*
X00099Y00427*
X00099Y00427*
X00099Y00427*
X00099*
X00097Y00426*
X00095Y00426*
X00094Y00426*
X00092Y00426*
X00091*
X0009Y00426*
X00089*
X00087Y00426*
X00086Y00426*
X00084Y00426*
X00083Y00426*
X00082Y00427*
X00081Y00427*
X0008Y00427*
X0008Y00427*
X00079Y00428*
X00077Y00428*
X00076Y00429*
X00075Y0043*
X00074Y0043*
X00074Y00431*
X00073Y00431*
X00073Y00431*
X00072Y00432*
X00071Y00434*
X00071Y00435*
X0007Y00436*
X0007Y00437*
X00069Y00437*
X00069Y00438*
X00069Y00438*
X00068Y00439*
X00068Y00441*
X00068Y00442*
X00068Y00443*
X00067Y00444*
X00067Y00445*
Y00446*
Y00446*
X00067Y00448*
X00068Y00449*
X00068Y00451*
X00068Y00452*
X00069Y00453*
X00069Y00454*
X00069Y00454*
X00069Y00455*
X0007Y00456*
X00071Y00457*
X00072Y00458*
X00072Y00459*
X00073Y0046*
X00074Y0046*
X00074Y0046*
X00074Y0046*
X00075Y00461*
X00077Y00462*
X00078Y00462*
X00079Y00463*
X0008Y00463*
X0008Y00463*
X00081Y00463*
X00081*
X00082Y00464*
X00084Y00464*
X00085Y00464*
X00087Y00464*
X00088Y00464*
X00091*
X00092Y00464*
X00093*
X00094Y00464*
X00094*
X00095Y00464*
X00095*
Y00478*
X00068*
Y00486*
X00104*
Y00455*
G37*
G36*
X-00123D02*
X-00126Y00455D01*
X-00127Y00455*
X-00128Y00455*
X-00128Y00455*
X-00129Y00456*
X-0013Y00456*
X-0013*
X-00132Y00456*
X-00133Y00456*
X-00134*
X-00135Y00456*
X-00137*
X-00139Y00456*
X-0014Y00456*
X-00141Y00456*
X-00141Y00456*
X-00142Y00456*
X-00142Y00455*
X-00142*
X-00143Y00455*
X-00144Y00455*
X-00145Y00455*
X-00146Y00454*
X-00146Y00454*
X-00147Y00454*
X-00147Y00454*
X-00147Y00453*
X-00148Y00453*
X-00149Y00452*
X-00149Y00451*
X-00149Y00451*
X-0015Y00451*
Y0045*
X-0015Y0045*
X-0015Y00449*
X-00151Y00448*
Y00447*
X-00151Y00446*
Y00446*
Y00446*
Y00445*
X-0015Y00444*
X-0015Y00443*
X-0015Y00442*
X-0015Y00442*
X-0015Y00441*
X-0015Y00441*
Y00441*
X-00149Y0044*
X-00149Y00439*
X-00149Y00439*
X-00149Y00438*
X-00148Y00438*
X-00148Y00438*
X-00148Y00437*
Y00437*
X-00147Y00437*
X-00146Y00436*
X-00145Y00435*
X-00145Y00435*
X-00144Y00435*
X-00144Y00435*
X-00143Y00434*
X-00143*
X-00141Y00434*
X-0014Y00434*
X-0014Y00434*
X-00139Y00434*
X-00138*
X-00137Y00434*
X-00135Y00434*
X-00134Y00434*
X-00133Y00435*
X-00131Y00435*
X-00131Y00435*
X-0013Y00435*
X-0013Y00435*
X-0013*
X-00128Y00436*
X-00127Y00436*
X-00126Y00437*
X-00125Y00437*
X-00124Y00438*
X-00123Y00438*
X-00123Y00439*
X-00122Y00439*
X-00121*
Y00429*
X-00124Y00428*
X-00125Y00428*
X-00126Y00427*
X-00127Y00427*
X-00128Y00427*
X-00129Y00427*
X-00129Y00427*
X-00129*
X-00131Y00426*
X-00132Y00426*
X-00134Y00426*
X-00135Y00426*
X-00136*
X-00137Y00426*
X-00138*
X-0014Y00426*
X-00142Y00426*
X-00143Y00426*
X-00145Y00426*
X-00146Y00427*
X-00147Y00427*
X-00147Y00427*
X-00147Y00427*
X-00149Y00428*
X-0015Y00428*
X-00151Y00429*
X-00152Y0043*
X-00153Y0043*
X-00154Y00431*
X-00154Y00431*
X-00154Y00431*
X-00155Y00432*
X-00156Y00434*
X-00157Y00435*
X-00157Y00436*
X-00158Y00437*
X-00158Y00437*
X-00158Y00438*
X-00159Y00438*
X-00159Y00439*
X-00159Y00441*
X-0016Y00442*
X-0016Y00443*
X-0016Y00444*
X-0016Y00445*
Y00446*
Y00446*
X-0016Y00448*
X-0016Y00449*
X-0016Y00451*
X-00159Y00452*
X-00159Y00453*
X-00159Y00454*
X-00158Y00454*
X-00158Y00455*
X-00158Y00456*
X-00157Y00457*
X-00156Y00458*
X-00155Y00459*
X-00154Y0046*
X-00154Y0046*
X-00153Y0046*
X-00153Y0046*
X-00152Y00461*
X-00151Y00462*
X-0015Y00462*
X-00149Y00463*
X-00148Y00463*
X-00147Y00463*
X-00147Y00463*
X-00146*
X-00145Y00464*
X-00144Y00464*
X-00142Y00464*
X-00141Y00464*
X-0014Y00464*
X-00136*
X-00136Y00464*
X-00134*
X-00134Y00464*
X-00133*
X-00133Y00464*
X-00133*
Y00478*
X-0016*
Y00486*
X-00123*
Y00455*
G37*
G36*
X00022Y00453D02*
Y00443D01*
X-00004*
Y00427*
X-00013*
Y00443*
X-00022*
Y00451*
X-00013*
Y00486*
X-00005*
X00022Y00453*
G37*
G36*
X00141Y00487D02*
X00143Y00487D01*
X00145Y00487*
X00146Y00486*
X00148Y00486*
X00149Y00485*
X0015Y00484*
X00151Y00483*
X00152Y00483*
X00153Y00482*
X00154Y00481*
X00154Y00481*
X00155Y0048*
X00155Y0048*
X00155Y0048*
X00155Y0048*
X00156Y00478*
X00157Y00476*
X00157Y00475*
X00158Y00473*
X00159Y00469*
X00159Y00465*
X0016Y00463*
X0016Y00462*
X0016Y0046*
X0016Y00459*
X0016Y00458*
Y00457*
Y00457*
Y00457*
Y00456*
X0016Y00454*
X0016Y00451*
X0016Y00448*
X00159Y00446*
X00159Y00444*
X00159Y00442*
X00158Y00441*
X00158Y00439*
X00157Y00438*
X00157Y00437*
X00156Y00436*
X00156Y00435*
X00156Y00434*
X00155Y00434*
X00155Y00433*
X00155Y00433*
X00154Y00432*
X00153Y00431*
X00152Y0043*
X00151Y00429*
X00149Y00428*
X00148Y00428*
X00147Y00427*
X00145Y00427*
X00144Y00426*
X00143Y00426*
X00142Y00426*
X00141Y00426*
X0014*
X0014Y00426*
X00139*
X00137Y00426*
X00136Y00426*
X00134Y00426*
X00132Y00427*
X00131Y00427*
X0013Y00428*
X00128Y00429*
X00127Y00429*
X00127Y0043*
X00126Y00431*
X00125Y00431*
X00125Y00432*
X00124Y00432*
X00124Y00433*
X00124Y00433*
X00124Y00433*
X00123Y00435*
X00122Y00436*
X00121Y00438*
X00121Y0044*
X0012Y00444*
X00119Y00448*
X00119Y00449*
X00119Y00451*
X00119Y00453*
X00119Y00454*
X00118Y00455*
Y00456*
Y00456*
Y00457*
X00119Y00459*
X00119Y00462*
X00119Y00464*
X00119Y00467*
X0012Y00469*
X0012Y0047*
X0012Y00472*
X00121Y00474*
X00121Y00475*
X00122Y00476*
X00122Y00477*
X00123Y00478*
X00123Y00479*
X00123Y00479*
X00123Y00479*
X00123Y00479*
X00124Y00481*
X00126Y00482*
X00127Y00483*
X00128Y00484*
X00129Y00485*
X00131Y00485*
X00132Y00486*
X00133Y00486*
X00135Y00487*
X00136Y00487*
X00137Y00487*
X00138Y00487*
X00138*
X00139Y00487*
X00139*
X00141Y00487*
G37*
G36*
X00063Y00415D02*
X00055D01*
X00027Y00489*
X00036*
X00063Y00415*
G37*
G36*
X-00024D02*
X-00032D01*
X-0006Y00489*
X-00052*
X-00024Y00415*
G37*
G36*
X00147Y-00553D02*
X00138D01*
Y-00557*
X00138Y-00558*
Y-00558*
X00138Y-00559*
X00138Y-00559*
X00137Y-00559*
X00137Y-0056*
Y-0056*
X00137Y-0056*
X00137Y-00561*
X00137Y-00561*
Y-00561*
X00137Y-00561*
Y-00561*
X00137Y-00562*
X00137Y-00562*
X00137Y-00563*
X00137Y-00563*
X00136Y-00563*
X00136Y-00564*
X00136Y-00564*
X00136Y-00564*
X00136Y-00564*
X00135Y-00565*
X00135Y-00565*
X00135Y-00565*
X00134Y-00566*
X00134Y-00566*
X00134Y-00566*
X00134Y-00566*
X00133Y-00566*
X00132Y-00566*
X00132Y-00567*
X00131Y-00567*
X00131Y-00567*
X0013*
X0013Y-00567*
X0013*
X0013*
X0013*
X0013*
X00129Y-00567*
X00128Y-00567*
X00127Y-00566*
X00126Y-00566*
X00126Y-00566*
X00126Y-00566*
X00125Y-00566*
X00125Y-00565*
X00125Y-00565*
X00125Y-00565*
X00125Y-00565*
X00125*
X00124Y-00565*
X00124Y-00564*
X00123Y-00563*
X00123Y-00563*
X00123Y-00562*
X00122Y-00562*
X00122Y-00562*
X00122Y-00562*
X00122Y-00562*
Y-00562*
X00122Y-00561*
X00122Y-00561*
X00122Y-00561*
X00122Y-0056*
X00122Y-00559*
X00122Y-00558*
Y-00557*
X00122Y-00557*
Y-00547*
X00147*
Y-00553*
G37*
G36*
X00136Y-0057D02*
X00137Y-0057D01*
X00138Y-0057*
X00139Y-00571*
X0014Y-00571*
X0014Y-00571*
X00141Y-00571*
X00142Y-00572*
X00142Y-00572*
X00143Y-00572*
X00143Y-00572*
X00144Y-00573*
X00144Y-00573*
X00144Y-00573*
X00144Y-00573*
X00144Y-00573*
X00145Y-00574*
X00145Y-00574*
X00146Y-00575*
X00146Y-00576*
X00146Y-00577*
X00147Y-00577*
X00147Y-00578*
X00147Y-00579*
X00147Y-00579*
X00147Y-0058*
X00147Y-0058*
X00147Y-00581*
X00148Y-00581*
X00148Y-00581*
Y-00581*
X00148Y-00582*
X00147Y-00583*
X00147Y-00584*
X00147Y-00584*
X00147Y-00585*
X00147Y-00585*
X00147Y-00586*
X00147Y-00586*
X00146Y-00587*
X00146Y-00587*
X00146Y-00587*
X00146Y-00588*
X00146Y-00588*
X00146Y-00588*
X00146Y-00588*
X00146Y-00588*
X00145Y-00589*
X00145Y-00589*
X00144Y-0059*
X00143Y-00591*
X00142Y-00591*
X00141Y-00591*
X00141Y-00591*
X0014Y-00592*
X0014Y-00592*
X0014Y-00592*
X0014Y-00592*
X00139Y-00592*
X00139*
X00138Y-00587*
X00139Y-00587*
X0014Y-00586*
X0014Y-00586*
X00141Y-00586*
X00141Y-00585*
X00142Y-00585*
X00142Y-00585*
X00142Y-00585*
X00142Y-00584*
X00143Y-00584*
X00143Y-00583*
X00143Y-00583*
X00143Y-00582*
X00143Y-00582*
X00143Y-00582*
Y-00581*
X00143Y-00581*
X00143Y-0058*
X00143Y-0058*
X00143Y-00579*
X00142Y-00578*
X00142Y-00578*
X00142Y-00577*
X00141Y-00577*
X00141Y-00577*
X00141Y-00577*
X00141Y-00577*
X00141Y-00577*
X0014Y-00576*
X0014Y-00576*
X00139Y-00576*
X00138Y-00576*
X00137Y-00575*
X00136Y-00575*
X00136Y-00575*
X00136Y-00575*
X00135*
X00135Y-00575*
X00135*
X00134*
X00134*
X00134Y-00575*
X00133Y-00575*
X00132Y-00575*
X00131Y-00576*
X00131Y-00576*
X0013Y-00576*
X0013Y-00576*
X00129Y-00576*
X00129Y-00576*
X00129Y-00576*
X00128Y-00577*
X00128Y-00577*
X00128Y-00577*
X00128Y-00577*
X00128Y-00577*
X00128*
X00127Y-00577*
X00127Y-00578*
X00127Y-00578*
X00127Y-00578*
X00126Y-00579*
X00126Y-0058*
X00126Y-00581*
X00126Y-00581*
X00126Y-00581*
X00126Y-00581*
Y-00582*
X00126Y-00582*
X00126Y-00583*
X00126Y-00583*
X00126Y-00584*
X00127Y-00584*
X00127Y-00585*
X00127Y-00585*
X00127Y-00585*
X00127Y-00585*
X00128Y-00586*
X00128Y-00586*
X00129Y-00586*
X00129Y-00587*
X0013Y-00587*
X0013Y-00587*
X0013*
X0013Y-00587*
X0013*
X00129Y-00592*
X00128Y-00591*
X00127Y-00591*
X00126Y-00591*
X00125Y-0059*
X00125Y-0059*
X00125Y-0059*
X00124Y-0059*
X00124Y-00589*
X00124Y-00589*
X00124Y-00589*
Y-00589*
X00124Y-00589*
X00123Y-00588*
X00123Y-00588*
X00123Y-00587*
X00122Y-00586*
X00122Y-00586*
X00122Y-00585*
X00122Y-00584*
X00122Y-00584*
X00122Y-00583*
X00122Y-00583*
X00121Y-00583*
X00121Y-00582*
Y-00582*
X00121Y-00581*
X00122Y-0058*
X00122Y-00579*
X00122Y-00578*
X00122Y-00577*
X00123Y-00577*
X00123Y-00576*
X00123Y-00576*
X00124Y-00575*
X00124Y-00575*
X00124Y-00574*
X00124Y-00574*
X00125Y-00574*
X00125Y-00573*
X00125Y-00573*
X00125Y-00573*
X00126Y-00573*
X00126Y-00572*
X00127Y-00572*
X00128Y-00571*
X00129Y-00571*
X0013Y-00571*
X0013Y-00571*
X00131Y-0057*
X00132Y-0057*
X00133Y-0057*
X00133Y-0057*
X00134Y-0057*
X00134*
X00134Y-0057*
X00135*
X00135*
X00135*
X00136Y-0057*
G37*
G36*
X00147Y-00612D02*
X00143D01*
Y-00602*
X00142Y-00602*
X00142Y-00603*
X00142Y-00603*
X00141Y-00603*
X00141Y-00603*
X00141Y-00603*
X00141Y-00603*
X00141Y-00603*
X00141Y-00604*
X0014Y-00604*
X0014Y-00605*
X00139Y-00605*
X00139Y-00605*
X00139Y-00606*
X00139Y-00606*
X00139Y-00606*
X00139Y-00606*
X00138Y-00607*
X00137Y-00607*
X00137Y-00608*
X00136Y-00608*
X00136Y-00609*
X00136Y-00609*
X00135Y-00609*
X00135Y-00609*
X00135Y-00609*
X00134Y-0061*
X00134Y-0061*
X00133Y-0061*
X00133Y-00611*
X00132Y-00611*
X00132Y-00611*
X00132Y-00611*
X00131Y-00611*
X00131Y-00611*
X0013Y-00611*
X0013Y-00611*
X00129Y-00612*
X00129Y-00612*
X00129*
X00129*
X00128Y-00612*
X00128Y-00611*
X00127Y-00611*
X00127Y-00611*
X00126Y-00611*
X00125Y-0061*
X00125Y-0061*
X00125Y-0061*
X00124Y-0061*
X00124Y-0061*
X00124Y-0061*
X00124Y-0061*
X00124Y-00609*
X00124Y-00609*
X00123Y-00609*
X00123Y-00609*
X00123Y-00608*
X00123Y-00608*
X00122Y-00607*
X00122Y-00606*
X00122Y-00605*
X00122Y-00605*
X00122Y-00604*
X00122Y-00604*
X00122Y-00604*
Y-00604*
X00122Y-00603*
X00122Y-00602*
X00122Y-00601*
X00122Y-006*
X00122Y-006*
X00123Y-00599*
X00123Y-00599*
X00123Y-00599*
X00123Y-00598*
X00123Y-00598*
X00123Y-00598*
X00123Y-00598*
X00123Y-00598*
X00124Y-00598*
X00124Y-00597*
X00124Y-00597*
X00125Y-00597*
X00125Y-00596*
X00126Y-00596*
X00127Y-00596*
X00127Y-00596*
X00128Y-00595*
X00128Y-00595*
X00129Y-00595*
X00129Y-00595*
X00129*
X00129Y-00595*
X00129*
X0013Y-006*
X00129Y-006*
X00128Y-006*
X00128Y-006*
X00127Y-00601*
X00127Y-00601*
X00127Y-00601*
X00127Y-00601*
X00127Y-00601*
X00126Y-00601*
X00126Y-00602*
X00126Y-00602*
X00126Y-00603*
X00126Y-00603*
X00126Y-00603*
Y-00603*
X00126Y-00604*
X00126Y-00604*
X00126Y-00605*
X00126Y-00605*
X00126Y-00605*
X00127Y-00606*
X00127Y-00606*
X00127Y-00606*
X00127Y-00606*
X00127Y-00606*
X00128Y-00606*
X00128Y-00607*
X00129Y-00607*
X00129Y-00607*
X00129*
X00129*
X00129*
X0013Y-00607*
X0013Y-00607*
X00131Y-00606*
X00131Y-00606*
X00132Y-00606*
X00132Y-00606*
X00132Y-00606*
X00132Y-00606*
X00132Y-00606*
X00133Y-00605*
X00133Y-00605*
X00133Y-00605*
X00134Y-00604*
X00135Y-00603*
X00135Y-00603*
X00136Y-00602*
X00136Y-00602*
X00136Y-00602*
X00136Y-00602*
X00136Y-00602*
X00136Y-00602*
X00137Y-00601*
X00138Y-006*
X00138Y-006*
X00139Y-00599*
X00139Y-00599*
X0014Y-00598*
X0014Y-00598*
X00141Y-00597*
X00141Y-00597*
X00141Y-00597*
X00142Y-00597*
X00142Y-00597*
X00142Y-00596*
X00142Y-00596*
X00142Y-00596*
X00142*
X00143Y-00596*
X00144Y-00595*
X00145Y-00595*
X00146Y-00595*
X00146Y-00595*
X00146Y-00595*
X00147Y-00595*
X00147Y-00595*
X00147Y-00595*
X00147*
X00147*
Y-00612*
G37*
G36*
X00147Y-00485D02*
X00146Y-00485D01*
X00146Y-00486*
X00145Y-00486*
X00144Y-00487*
X00144Y-00487*
X00143Y-00488*
X00143Y-00488*
X00143Y-00488*
X00143Y-00488*
X00143Y-00488*
X00143Y-00489*
X00142Y-00489*
X00142Y-0049*
X00141Y-00491*
X00141Y-00491*
X00141Y-00492*
X00141Y-00492*
X00141Y-00492*
X00141Y-00492*
Y-00492*
X00136*
X00137Y-00491*
X00138Y-0049*
X00138Y-00489*
X00138Y-00488*
X00138Y-00488*
X00139Y-00488*
X00139Y-00487*
X00139Y-00487*
X0014Y-00486*
X0014Y-00486*
X0014Y-00486*
X0014Y-00486*
X0014Y-00486*
X0014Y-00486*
X00122*
Y-00481*
X00147*
Y-00485*
G37*
G36*
Y-00504D02*
X00146Y-00505D01*
X00146Y-00505*
X00145Y-00506*
X00144Y-00506*
X00144Y-00507*
X00143Y-00507*
X00143Y-00507*
X00143Y-00507*
X00143Y-00507*
X00143Y-00507*
X00143Y-00508*
X00142Y-00509*
X00142Y-0051*
X00141Y-0051*
X00141Y-00511*
X00141Y-00511*
X00141Y-00511*
X00141Y-00512*
X00141Y-00512*
Y-00512*
X00136*
X00137Y-0051*
X00138Y-00509*
X00138Y-00509*
X00138Y-00508*
X00138Y-00508*
X00139Y-00507*
X00139Y-00507*
X00139Y-00506*
X0014Y-00506*
X0014Y-00506*
X0014Y-00506*
X0014Y-00505*
X0014Y-00505*
X0014Y-00505*
X00122*
Y-00501*
X00147*
Y-00504*
G37*
G36*
X00131Y-00521D02*
X0013Y-00521D01*
X00129Y-00522*
X00129Y-00522*
X00128Y-00522*
X00128Y-00523*
X00127Y-00523*
X00127Y-00523*
X00127Y-00523*
X00127Y-00524*
X00126Y-00524*
X00126Y-00525*
X00126Y-00525*
X00126Y-00526*
X00126Y-00526*
X00126Y-00527*
Y-00527*
X00126Y-00527*
X00126Y-00528*
X00126Y-00529*
X00126Y-00529*
X00127Y-0053*
X00127Y-0053*
X00127Y-00531*
X00128Y-00531*
X00128Y-00531*
X00128Y-00531*
X00128Y-00531*
X00128Y-00531*
X00129Y-00532*
X00129Y-00532*
X0013Y-00532*
X00131Y-00532*
X00132Y-00533*
X00133Y-00533*
X00133Y-00533*
X00133Y-00533*
X00134*
X00134Y-00533*
X00134*
X00135*
X00135*
X00135Y-00533*
X00136Y-00533*
X00137Y-00533*
X00138Y-00533*
X00138Y-00532*
X00139Y-00532*
X00139Y-00532*
X0014Y-00532*
X0014Y-00532*
X0014Y-00532*
X00141Y-00532*
X00141Y-00531*
X00141Y-00531*
X00141Y-00531*
X00141Y-00531*
X00141*
X00142Y-00531*
X00142Y-0053*
X00142Y-0053*
X00142Y-0053*
X00143Y-00529*
X00143Y-00528*
X00143Y-00528*
X00143Y-00527*
X00143Y-00527*
X00143Y-00527*
Y-00527*
X00143Y-00526*
X00143Y-00525*
X00143Y-00525*
X00143Y-00524*
X00142Y-00524*
X00142Y-00523*
X00142Y-00523*
X00142Y-00523*
X00142Y-00523*
X00141Y-00522*
X00141Y-00522*
X0014Y-00522*
X0014Y-00521*
X00139Y-00521*
X00139Y-00521*
X00139*
X00139Y-00521*
X00139*
X0014Y-00516*
X00141Y-00517*
X00142Y-00517*
X00143Y-00517*
X00144Y-00518*
X00144Y-00518*
X00144Y-00518*
X00145Y-00519*
X00145Y-00519*
X00145Y-00519*
X00145Y-00519*
Y-00519*
X00145Y-00519*
X00146Y-0052*
X00146Y-00521*
X00146Y-00521*
X00147Y-00522*
X00147Y-00522*
X00147Y-00523*
X00147Y-00524*
X00147Y-00524*
X00147Y-00525*
X00147Y-00525*
X00148Y-00526*
X00148Y-00526*
Y-00526*
X00148Y-00527*
X00147Y-00528*
X00147Y-00529*
X00147Y-0053*
X00147Y-00531*
X00146Y-00531*
X00146Y-00532*
X00146Y-00533*
X00145Y-00533*
X00145Y-00534*
X00145Y-00534*
X00145Y-00534*
X00144Y-00535*
X00144Y-00535*
X00144Y-00535*
X00144Y-00535*
X00143Y-00535*
X00143Y-00536*
X00142Y-00536*
X00141Y-00537*
X0014Y-00537*
X00139Y-00537*
X00139Y-00537*
X00138Y-00538*
X00137Y-00538*
X00136Y-00538*
X00136Y-00538*
X00135Y-00538*
X00135*
X00135Y-00538*
X00134*
X00134*
X00134*
X00133Y-00538*
X00132Y-00538*
X00131Y-00538*
X0013Y-00538*
X00129Y-00537*
X00129Y-00537*
X00128Y-00537*
X00127Y-00536*
X00127Y-00536*
X00126Y-00536*
X00126Y-00536*
X00125Y-00535*
X00125Y-00535*
X00125Y-00535*
X00125Y-00535*
X00125Y-00535*
X00124Y-00534*
X00124Y-00534*
X00123Y-00533*
X00123Y-00532*
X00123Y-00532*
X00122Y-00531*
X00122Y-0053*
X00122Y-0053*
X00122Y-00529*
X00122Y-00528*
X00122Y-00528*
X00122Y-00527*
X00121Y-00527*
X00121Y-00527*
Y-00527*
X00121Y-00526*
X00122Y-00525*
X00122Y-00524*
X00122Y-00524*
X00122Y-00523*
X00122Y-00523*
X00122Y-00522*
X00122Y-00522*
X00123Y-00521*
X00123Y-00521*
X00123Y-00521*
X00123Y-0052*
X00123Y-0052*
X00123Y-0052*
X00123Y-0052*
X00123Y-0052*
X00124Y-00519*
X00124Y-00519*
X00125Y-00518*
X00126Y-00518*
X00127Y-00517*
X00128Y-00517*
X00128Y-00517*
X00129Y-00517*
X00129Y-00516*
X00129Y-00516*
X00129Y-00516*
X0013Y-00516*
X0013*
X00131Y-00521*
G37*
G36*
X00137Y-00957D02*
X00137Y-00957D01*
X00138Y-00957*
X00139Y-00957*
X00139Y-00957*
X00139Y-00957*
X0014Y-00958*
X0014Y-00958*
X0014*
X0014Y-00958*
X00141Y-00958*
X00141Y-00959*
X00142Y-00959*
X00142Y-00959*
X00142Y-0096*
X00142Y-0096*
X00142Y-0096*
X00143Y-0096*
X00143Y-00961*
X00143Y-00961*
X00143Y-00962*
X00144Y-00963*
X00144Y-00963*
X00144Y-00963*
Y-00963*
X00144Y-00963*
Y-00963*
X00139Y-00964*
X00139Y-00964*
X00139Y-00963*
X00139Y-00963*
X00139Y-00962*
X00138Y-00962*
X00138Y-00962*
X00138Y-00962*
X00138Y-00962*
X00138Y-00961*
X00138Y-00961*
X00137Y-00961*
X00137Y-00961*
X00137Y-00961*
X00136Y-00961*
X00136*
X00136Y-00961*
X00135Y-00961*
X00135Y-00961*
X00135Y-00961*
X00134Y-00961*
X00134Y-00961*
X00134Y-00961*
X00134Y-00962*
X00134Y-00962*
X00134Y-00962*
X00133Y-00963*
X00133Y-00963*
X00133Y-00963*
X00133Y-00963*
Y-00963*
Y-00964*
X00133Y-00964*
X00133Y-00965*
X00134Y-00965*
X00134Y-00965*
X00134Y-00966*
X00134Y-00966*
X00134Y-00966*
X00134Y-00966*
X00135Y-00966*
X00135Y-00966*
X00136Y-00967*
X00136Y-00967*
X00137Y-00967*
X00137Y-00967*
X00137*
X00138Y-00971*
X00137Y-00971*
X00137Y-0097*
X00137Y-0097*
X00136Y-0097*
X00136Y-0097*
X00136*
X00135Y-0097*
X00135Y-00971*
X00134Y-00971*
X00134Y-00971*
X00134Y-00971*
X00133Y-00971*
X00133Y-00971*
X00133Y-00971*
X00133Y-00972*
X00133Y-00972*
X00133Y-00973*
X00132Y-00973*
X00132Y-00974*
X00132Y-00974*
Y-00974*
Y-00974*
Y-00974*
X00132Y-00975*
X00132Y-00976*
X00133Y-00976*
X00133Y-00977*
X00133Y-00977*
X00133Y-00977*
X00133Y-00977*
X00133Y-00977*
X00134Y-00978*
X00134Y-00978*
X00135Y-00978*
X00135Y-00978*
X00135Y-00978*
X00136Y-00979*
X00136Y-00979*
X00136*
X00136Y-00979*
X00137Y-00978*
X00137Y-00978*
X00138Y-00978*
X00138Y-00978*
X00138Y-00978*
X00138Y-00978*
X00138Y-00978*
X00139Y-00977*
X00139Y-00977*
X00139Y-00976*
X00139Y-00976*
X00139Y-00976*
X00139Y-00975*
X00139Y-00975*
Y-00975*
Y-00975*
X00144Y-00975*
X00144Y-00976*
X00144Y-00977*
X00144Y-00978*
X00143Y-00978*
X00143Y-00979*
X00143Y-00979*
X00142Y-0098*
X00142Y-0098*
X00142Y-0098*
X00142Y-0098*
X00142Y-0098*
X00142Y-0098*
X00142Y-00981*
X00141Y-00981*
X00141Y-00981*
X00141Y-00981*
X0014Y-00982*
X0014Y-00982*
X00139Y-00982*
X00138Y-00982*
X00137Y-00982*
X00137Y-00982*
X00137Y-00982*
X00136Y-00983*
X00136Y-00983*
X00136*
X00135Y-00983*
X00134Y-00982*
X00134Y-00982*
X00133Y-00982*
X00133Y-00982*
X00132Y-00982*
X00132Y-00982*
X00131Y-00981*
X00131Y-00981*
X00131Y-00981*
X0013Y-00981*
X0013Y-00981*
X0013Y-0098*
X0013Y-0098*
X0013Y-0098*
X0013Y-0098*
X00129Y-0098*
X00129Y-00979*
X00129Y-00979*
X00128Y-00978*
X00128Y-00978*
X00128Y-00977*
X00128Y-00977*
X00128Y-00976*
X00127Y-00976*
X00127Y-00975*
X00127Y-00975*
X00127Y-00975*
Y-00975*
Y-00975*
Y-00975*
X00127Y-00974*
X00128Y-00973*
X00128Y-00972*
X00128Y-00972*
X00128Y-00971*
X00128Y-00971*
X00129Y-00971*
X00129Y-00971*
X00129Y-0097*
X0013Y-0097*
X0013Y-00969*
X00131Y-00969*
X00131Y-00969*
X00132Y-00969*
X00132Y-00969*
X00132*
X00132Y-00969*
X00132*
X00131Y-00968*
X00131Y-00968*
X0013Y-00967*
X0013Y-00967*
X0013Y-00966*
X00129Y-00966*
X00129Y-00966*
X00129Y-00965*
X00129Y-00965*
X00129Y-00964*
X00129Y-00964*
X00129Y-00964*
X00128Y-00964*
X00128Y-00963*
Y-00963*
Y-00963*
X00128Y-00963*
X00129Y-00962*
X00129Y-00962*
X00129Y-00961*
X00129Y-0096*
X0013Y-0096*
X0013Y-00959*
X0013Y-00959*
X0013Y-00959*
X0013Y-00959*
X0013Y-00959*
X00131Y-00959*
X00131Y-00958*
X00132Y-00958*
X00132Y-00958*
X00133Y-00957*
X00133Y-00957*
X00134Y-00957*
X00134Y-00957*
X00135Y-00957*
X00135Y-00957*
X00135Y-00957*
X00136Y-00957*
X00136*
X00137Y-00957*
G37*
G36*
X00158Y-00956D02*
X00159Y-00957D01*
X0016Y-00957*
X00161Y-00957*
X00162Y-00957*
X00162Y-00958*
X00163Y-00958*
X00164Y-00958*
X00164Y-00959*
X00165Y-00959*
X00165Y-00959*
X00165Y-00959*
X00166Y-0096*
X00166Y-0096*
X00166Y-0096*
X00166Y-0096*
X00166Y-00961*
X00167Y-00961*
X00167Y-00962*
X00168Y-00963*
X00168Y-00964*
X00168Y-00965*
X00169Y-00965*
X00169Y-00966*
X00169Y-00967*
X00169Y-00968*
X00169Y-00968*
X00169Y-00969*
Y-00969*
X00169Y-00969*
Y-0097*
Y-0097*
Y-0097*
X00169Y-00971*
X00169Y-00972*
X00169Y-00973*
X00169Y-00974*
X00168Y-00975*
X00168Y-00975*
X00168Y-00976*
X00168Y-00977*
X00167Y-00977*
X00167Y-00978*
X00167Y-00978*
X00166Y-00978*
X00166Y-00979*
X00166Y-00979*
X00166Y-00979*
X00166Y-00979*
X00165Y-0098*
X00165Y-0098*
X00164Y-00981*
X00163Y-00981*
X00163Y-00981*
X00162Y-00982*
X00161Y-00982*
X00161Y-00982*
X0016Y-00982*
X00159Y-00982*
X00159Y-00982*
X00159Y-00982*
X00158Y-00982*
X00158Y-00983*
X00158*
X00157Y-00982*
X00156Y-00982*
X00156Y-00982*
X00155Y-00982*
X00154Y-00982*
X00154Y-00982*
X00153Y-00982*
X00153Y-00982*
X00152Y-00981*
X00152Y-00981*
X00152Y-00981*
X00151Y-00981*
X00151Y-00981*
X00151Y-00981*
X00151Y-00981*
X00151Y-00981*
X00151Y-0098*
X0015Y-0098*
X00149Y-00979*
X00149Y-00978*
X00148Y-00977*
X00148Y-00976*
X00148Y-00976*
X00148Y-00975*
X00147Y-00975*
X00147Y-00975*
X00147Y-00975*
X00147Y-00974*
Y-00974*
X00152Y-00973*
X00152Y-00974*
X00153Y-00975*
X00153Y-00975*
X00153Y-00976*
X00154Y-00976*
X00154Y-00977*
X00154Y-00977*
X00154Y-00977*
X00155Y-00977*
X00155Y-00978*
X00156Y-00978*
X00157Y-00978*
X00157Y-00978*
X00157Y-00978*
X00158Y-00978*
X00158*
X00158Y-00978*
X00159Y-00978*
X0016Y-00978*
X0016Y-00978*
X00161Y-00977*
X00161Y-00977*
X00162Y-00977*
X00162Y-00976*
X00162Y-00976*
X00162Y-00976*
X00162Y-00976*
X00162Y-00976*
X00163Y-00975*
X00163Y-00975*
X00163Y-00974*
X00163Y-00973*
X00164Y-00972*
X00164Y-00971*
X00164Y-00971*
X00164Y-00971*
Y-0097*
X00164Y-0097*
Y-0097*
Y-00969*
Y-00969*
X00164Y-00969*
X00164Y-00968*
X00164Y-00967*
X00164Y-00966*
X00163Y-00966*
X00163Y-00965*
X00163Y-00965*
X00163Y-00964*
X00163Y-00964*
X00163Y-00964*
X00163Y-00963*
X00162Y-00963*
X00162Y-00963*
X00162Y-00963*
X00162Y-00963*
Y-00963*
X00162Y-00962*
X00161Y-00962*
X00161Y-00962*
X00161Y-00962*
X0016Y-00961*
X00159Y-00961*
X00159Y-00961*
X00158Y-00961*
X00158Y-00961*
X00158Y-00961*
X00158*
X00157Y-00961*
X00156Y-00961*
X00156Y-00961*
X00155Y-00961*
X00155Y-00962*
X00154Y-00962*
X00154Y-00962*
X00154Y-00962*
X00154Y-00962*
X00153Y-00963*
X00153Y-00963*
X00153Y-00964*
X00153Y-00964*
X00152Y-00965*
X00152Y-00965*
Y-00965*
X00152Y-00965*
Y-00965*
X00147Y-00964*
X00148Y-00963*
X00148Y-00962*
X00148Y-00961*
X00149Y-0096*
X00149Y-0096*
X00149Y-0096*
X0015Y-00959*
X0015Y-00959*
X0015Y-00959*
X0015Y-00959*
X0015*
X0015Y-00959*
X00151Y-00958*
X00152Y-00958*
X00152Y-00958*
X00153Y-00957*
X00153Y-00957*
X00154Y-00957*
X00155Y-00957*
X00155Y-00957*
X00156Y-00957*
X00156Y-00957*
X00157Y-00956*
X00157Y-00956*
X00157*
X00158Y-00956*
G37*
G36*
X00192Y-00982D02*
X00187D01*
Y-00973*
X00182*
X00182Y-00973*
X00181*
X00181Y-00973*
X0018Y-00972*
X0018Y-00972*
X00179Y-00972*
X00179*
X00179Y-00972*
X00179Y-00972*
X00178Y-00972*
X00178*
X00178Y-00972*
X00178*
X00178Y-00972*
X00177Y-00972*
X00177Y-00972*
X00176Y-00972*
X00176Y-00971*
X00176Y-00971*
X00175Y-00971*
X00175Y-00971*
X00175Y-00971*
X00175Y-0097*
X00174Y-0097*
X00174Y-0097*
X00174Y-00969*
X00173Y-00969*
X00173Y-00969*
X00173Y-00969*
X00173Y-00968*
X00173Y-00967*
X00173Y-00967*
X00172Y-00966*
X00172Y-00965*
Y-00965*
X00172Y-00965*
Y-00965*
Y-00965*
Y-00965*
Y-00965*
X00172Y-00964*
X00173Y-00963*
X00173Y-00962*
X00173Y-00961*
X00173Y-00961*
X00173Y-00961*
X00174Y-0096*
X00174Y-0096*
X00174Y-0096*
X00174Y-0096*
X00174Y-0096*
Y-0096*
X00174Y-00959*
X00175Y-00959*
X00176Y-00958*
X00176Y-00958*
X00177Y-00958*
X00177Y-00957*
X00177Y-00957*
X00177Y-00957*
X00177Y-00957*
X00177*
X00178Y-00957*
X00178Y-00957*
X00179Y-00957*
X00179Y-00957*
X0018Y-00957*
X00181Y-00957*
X00182*
X00182Y-00957*
X00192*
Y-00982*
G37*
G36*
X-00245Y-00818D02*
X-00245Y-00818D01*
X-00244Y-00819*
X-00244Y-0082*
X-00243Y-0082*
X-00243Y-00821*
X-00243Y-00821*
X-00243Y-00821*
X-00243Y-00821*
X-00243Y-00821*
X-00242Y-00821*
X-00241Y-00822*
X-0024Y-00822*
X-0024Y-00823*
X-00239Y-00823*
X-00239Y-00823*
X-00239Y-00823*
X-00239Y-00823*
X-00239Y-00823*
X-00239*
Y-00828*
X-0024Y-00827*
X-00241Y-00826*
X-00242Y-00826*
X-00242Y-00826*
X-00243Y-00826*
X-00243Y-00825*
X-00243Y-00825*
X-00244Y-00825*
X-00244Y-00824*
X-00244Y-00824*
X-00244Y-00824*
X-00245Y-00824*
X-00245Y-00824*
X-00245Y-00824*
Y-00842*
X-0025*
Y-00817*
X-00246*
X-00245Y-00818*
G37*
G36*
X-00223Y-00816D02*
X-00222Y-00817D01*
X-00221Y-00817*
X-0022Y-00817*
X-00219Y-00817*
X-00219Y-00818*
X-00218Y-00818*
X-00218Y-00818*
X-00217Y-00819*
X-00217Y-00819*
X-00216Y-00819*
X-00216Y-00819*
X-00216Y-0082*
X-00215Y-0082*
X-00215Y-0082*
X-00215Y-0082*
X-00215Y-00821*
X-00214Y-00821*
X-00214Y-00822*
X-00213Y-00823*
X-00213Y-00824*
X-00213Y-00825*
X-00213Y-00825*
X-00212Y-00826*
X-00212Y-00827*
X-00212Y-00828*
X-00212Y-00828*
X-00212Y-00829*
Y-00829*
X-00212Y-00829*
Y-0083*
Y-0083*
Y-0083*
X-00212Y-00831*
X-00212Y-00832*
X-00212Y-00833*
X-00213Y-00834*
X-00213Y-00835*
X-00213Y-00835*
X-00213Y-00836*
X-00214Y-00837*
X-00214Y-00837*
X-00214Y-00838*
X-00214Y-00838*
X-00215Y-00839*
X-00215Y-00839*
X-00215Y-00839*
X-00215Y-00839*
X-00215Y-00839*
X-00216Y-0084*
X-00216Y-0084*
X-00217Y-00841*
X-00218Y-00841*
X-00219Y-00841*
X-00219Y-00842*
X-0022Y-00842*
X-00221Y-00842*
X-00221Y-00842*
X-00222Y-00842*
X-00222Y-00842*
X-00223Y-00842*
X-00223Y-00843*
X-00223Y-00843*
X-00223*
X-00224Y-00843*
X-00225Y-00842*
X-00226Y-00842*
X-00226Y-00842*
X-00227Y-00842*
X-00227Y-00842*
X-00228Y-00842*
X-00228Y-00842*
X-00229Y-00841*
X-00229Y-00841*
X-00229Y-00841*
X-0023Y-00841*
X-0023Y-00841*
X-0023Y-00841*
X-0023Y-00841*
X-0023Y-00841*
X-00231Y-0084*
X-00231Y-0084*
X-00232Y-00839*
X-00232Y-00838*
X-00233Y-00837*
X-00233Y-00836*
X-00233Y-00836*
X-00234Y-00835*
X-00234Y-00835*
X-00234Y-00835*
X-00234Y-00835*
X-00234Y-00834*
Y-00834*
X-00229Y-00833*
X-00229Y-00834*
X-00228Y-00835*
X-00228Y-00835*
X-00228Y-00836*
X-00227Y-00836*
X-00227Y-00837*
X-00227Y-00837*
X-00227Y-00837*
X-00226Y-00837*
X-00226Y-00838*
X-00225Y-00838*
X-00225Y-00838*
X-00224Y-00838*
X-00224Y-00838*
X-00224Y-00838*
X-00223*
X-00223Y-00838*
X-00222Y-00838*
X-00222Y-00838*
X-00221Y-00838*
X-0022Y-00837*
X-0022Y-00837*
X-00219Y-00837*
X-00219Y-00836*
X-00219Y-00836*
X-00219Y-00836*
X-00219Y-00836*
X-00219Y-00836*
X-00218Y-00835*
X-00218Y-00835*
X-00218Y-00834*
X-00218Y-00833*
X-00217Y-00832*
X-00217Y-00831*
X-00217Y-00831*
X-00217Y-00831*
Y-0083*
X-00217Y-0083*
Y-0083*
Y-00829*
Y-00829*
X-00217Y-00829*
X-00217Y-00828*
X-00217Y-00827*
X-00217Y-00826*
X-00218Y-00826*
X-00218Y-00825*
X-00218Y-00825*
X-00218Y-00824*
X-00218Y-00824*
X-00218Y-00824*
X-00219Y-00823*
X-00219Y-00823*
X-00219Y-00823*
X-00219Y-00823*
X-00219Y-00823*
Y-00823*
X-00219Y-00822*
X-0022Y-00822*
X-0022Y-00822*
X-0022Y-00822*
X-00221Y-00821*
X-00222Y-00821*
X-00223Y-00821*
X-00223Y-00821*
X-00223Y-00821*
X-00223Y-00821*
X-00224*
X-00224Y-00821*
X-00225Y-00821*
X-00225Y-00821*
X-00226Y-00821*
X-00226Y-00822*
X-00227Y-00822*
X-00227Y-00822*
X-00227Y-00822*
X-00227Y-00822*
X-00228Y-00823*
X-00228Y-00823*
X-00228Y-00824*
X-00229Y-00824*
X-00229Y-00825*
X-00229Y-00825*
Y-00825*
X-00229Y-00825*
Y-00825*
X-00234Y-00824*
X-00233Y-00823*
X-00233Y-00822*
X-00233Y-00821*
X-00232Y-0082*
X-00232Y-0082*
X-00232Y-0082*
X-00232Y-00819*
X-00231Y-00819*
X-00231Y-00819*
X-00231Y-00819*
X-00231*
X-00231Y-00819*
X-0023Y-00818*
X-0023Y-00818*
X-00229Y-00818*
X-00228Y-00817*
X-00228Y-00817*
X-00227Y-00817*
X-00226Y-00817*
X-00226Y-00817*
X-00225Y-00817*
X-00225Y-00817*
X-00225Y-00816*
X-00224Y-00816*
X-00224*
X-00223Y-00816*
G37*
G36*
X-00189Y-00842D02*
X-00195D01*
Y-00833*
X-00199*
X-002Y-00833*
X-002*
X-00201Y-00833*
X-00201Y-00833*
X-00201Y-00832*
X-00202Y-00832*
X-00202*
X-00202Y-00832*
X-00203Y-00832*
X-00203Y-00832*
X-00203*
X-00203Y-00832*
X-00203*
X-00204Y-00832*
X-00204Y-00832*
X-00205Y-00832*
X-00205Y-00832*
X-00205Y-00831*
X-00205Y-00831*
X-00206Y-00831*
X-00206Y-00831*
X-00206Y-00831*
X-00207Y-0083*
X-00207Y-0083*
X-00207Y-0083*
X-00208Y-00829*
X-00208Y-00829*
X-00208Y-00829*
X-00208Y-00829*
X-00208Y-00828*
X-00208Y-00827*
X-00209Y-00827*
X-00209Y-00826*
X-00209Y-00826*
Y-00825*
X-00209Y-00825*
Y-00825*
Y-00825*
Y-00825*
Y-00825*
X-00209Y-00824*
X-00209Y-00823*
X-00208Y-00822*
X-00208Y-00821*
X-00208Y-00821*
X-00208Y-00821*
X-00208Y-0082*
X-00207Y-0082*
X-00207Y-0082*
X-00207Y-0082*
X-00207Y-0082*
Y-0082*
X-00207Y-00819*
X-00206Y-00819*
X-00205Y-00818*
X-00205Y-00818*
X-00204Y-00818*
X-00204Y-00817*
X-00204Y-00817*
X-00204Y-00817*
X-00204Y-00817*
X-00204*
X-00203Y-00817*
X-00203Y-00817*
X-00203Y-00817*
X-00202Y-00817*
X-00201Y-00817*
X-002Y-00817*
X-00199*
X-00199Y-00817*
X-00189*
Y-00842*
G37*
G36*
X-00159Y-00897D02*
X-00159Y-00897D01*
X-00158Y-00897*
X-00157Y-00897*
X-00156Y-00898*
X-00156Y-00898*
X-00155Y-00898*
X-00155Y-00898*
X-00155Y-00898*
X-00155Y-00898*
X-00154Y-00898*
X-00154Y-00899*
X-00154Y-00899*
X-00154Y-00899*
X-00154Y-00899*
X-00153Y-00899*
X-00153Y-009*
X-00153Y-009*
X-00152Y-00901*
X-00152Y-00902*
X-00152Y-00903*
X-00152Y-00903*
X-00152Y-00903*
X-00152Y-00904*
X-00152Y-00904*
Y-00904*
X-00152Y-00904*
Y-00904*
X-00156Y-00905*
X-00156Y-00904*
X-00157Y-00903*
X-00157Y-00903*
X-00157Y-00902*
X-00157Y-00902*
X-00157Y-00902*
X-00157Y-00902*
X-00157Y-00902*
X-00158Y-00901*
X-00158Y-00901*
X-00158Y-00901*
X-00159Y-00901*
X-00159Y-00901*
X-00159Y-00901*
X-0016*
X-0016Y-00901*
X-00161Y-00901*
X-00161Y-00901*
X-00162Y-00901*
X-00162Y-00901*
X-00162Y-00902*
X-00162Y-00902*
X-00162Y-00902*
X-00162Y-00902*
X-00163Y-00902*
X-00163Y-00903*
X-00163Y-00903*
X-00163Y-00904*
X-00163Y-00904*
Y-00904*
Y-00904*
Y-00904*
X-00163Y-00905*
X-00163Y-00905*
X-00163Y-00906*
X-00163Y-00906*
X-00162Y-00907*
X-00162Y-00907*
X-00162Y-00907*
X-00162Y-00907*
X-00162Y-00907*
X-00162Y-00908*
X-00161Y-00908*
X-00161Y-00908*
X-0016Y-00909*
X-0016Y-0091*
X-00159Y-0091*
X-00159Y-00911*
X-00159Y-00911*
X-00158Y-00911*
X-00158Y-00911*
X-00158Y-00911*
X-00158Y-00911*
X-00157Y-00912*
X-00157Y-00913*
X-00156Y-00913*
X-00155Y-00914*
X-00155Y-00914*
X-00155Y-00915*
X-00154Y-00915*
X-00154Y-00916*
X-00153Y-00916*
X-00153Y-00916*
X-00153Y-00917*
X-00153Y-00917*
X-00153Y-00917*
X-00153Y-00917*
X-00153Y-00917*
Y-00917*
X-00152Y-00918*
X-00152Y-00919*
X-00151Y-0092*
X-00151Y-00921*
X-00151Y-00921*
X-00151Y-00922*
X-00151Y-00922*
X-00151Y-00922*
X-00151Y-00922*
Y-00922*
Y-00922*
X-00168*
Y-00918*
X-00158*
X-00159Y-00917*
X-00159Y-00917*
X-00159Y-00917*
X-00159Y-00916*
X-00159Y-00916*
X-00159Y-00916*
X-00159Y-00916*
X-0016Y-00916*
X-0016Y-00916*
X-0016Y-00915*
X-00161Y-00915*
X-00161Y-00914*
X-00162Y-00914*
X-00162Y-00914*
X-00162Y-00914*
X-00162Y-00914*
X-00162Y-00914*
X-00163Y-00913*
X-00164Y-00912*
X-00164Y-00912*
X-00165Y-00911*
X-00165Y-00911*
X-00165Y-00911*
X-00165Y-0091*
X-00165Y-0091*
X-00166Y-0091*
X-00166Y-00909*
X-00167Y-00909*
X-00167Y-00908*
X-00167Y-00908*
X-00167Y-00907*
X-00167Y-00907*
X-00167Y-00907*
X-00167Y-00907*
X-00168Y-00906*
X-00168Y-00905*
X-00168Y-00905*
X-00168Y-00905*
X-00168Y-00904*
Y-00904*
Y-00904*
X-00168Y-00903*
X-00168Y-00903*
X-00168Y-00902*
X-00168Y-00902*
X-00167Y-00901*
X-00167Y-009*
X-00167Y-009*
X-00166Y-009*
X-00166Y-00899*
X-00166Y-00899*
X-00166Y-00899*
X-00166Y-00899*
X-00166Y-00899*
X-00166Y-00899*
X-00165Y-00899*
X-00165Y-00898*
X-00164Y-00898*
X-00164Y-00898*
X-00163Y-00897*
X-00162Y-00897*
X-00162Y-00897*
X-00161Y-00897*
X-00161Y-00897*
X-0016Y-00897*
X-0016Y-00897*
X-0016*
X-00159Y-00897*
G37*
G36*
X-00131Y-00922D02*
X-00136D01*
Y-00911*
X-00147*
Y-00907*
X-00136*
Y-00901*
X-00148*
Y-00897*
X-00131*
Y-00922*
G37*
G36*
X0063Y-00755D02*
X00626Y-00756D01*
X00626Y-00756*
X00625Y-00755*
X00625Y-00755*
X00625Y-00755*
X00624Y-00755*
X00623Y-00754*
X00623Y-00754*
X00622Y-00754*
X00622Y-00754*
X00622*
X00622Y-00754*
X00621Y-00754*
X00621Y-00754*
X0062Y-00755*
X0062Y-00755*
X0062Y-00755*
X00619Y-00755*
X00619Y-00755*
X00619Y-00756*
X00619Y-00756*
X00619Y-00757*
X00618Y-00757*
X00618Y-00758*
X00618Y-00758*
Y-00759*
Y-00759*
Y-00759*
Y-00759*
X00618Y-0076*
X00618Y-0076*
X00619Y-00761*
X00619Y-00762*
X00619Y-00762*
X00619Y-00762*
X00619Y-00762*
X00619Y-00762*
X0062Y-00763*
X0062Y-00763*
X00621Y-00763*
X00621Y-00764*
X00621Y-00764*
X00622Y-00764*
X00622Y-00764*
X00622*
X00622Y-00764*
X00623Y-00764*
X00623Y-00763*
X00624Y-00763*
X00624Y-00763*
X00624Y-00763*
X00624Y-00763*
X00624Y-00763*
X00625Y-00762*
X00625Y-00762*
X00625Y-00762*
X00625Y-00761*
X00625Y-00761*
X00625Y-0076*
X00626Y-0076*
Y-0076*
X0063Y-00761*
X0063Y-00761*
X0063Y-00762*
X0063Y-00763*
X00629Y-00764*
X00629Y-00764*
X00629Y-00764*
X00629Y-00765*
X00628Y-00765*
X00628Y-00765*
X00628Y-00765*
X00628Y-00766*
X00628Y-00766*
X00628Y-00766*
X00628Y-00766*
X00627Y-00766*
X00627Y-00766*
X00626Y-00767*
X00626Y-00767*
X00625Y-00767*
X00624Y-00767*
X00624Y-00767*
X00623Y-00767*
X00623Y-00767*
X00623Y-00768*
X00622Y-00768*
X00622*
X00621Y-00768*
X0062Y-00767*
X0062Y-00767*
X00619Y-00767*
X00619Y-00767*
X00618Y-00767*
X00617Y-00766*
X00617Y-00766*
X00617Y-00766*
X00616Y-00765*
X00616Y-00765*
X00616Y-00765*
X00615Y-00765*
X00615Y-00764*
X00615Y-00764*
X00615Y-00764*
X00615Y-00764*
X00615Y-00763*
X00614Y-00763*
X00614Y-00762*
X00614Y-00761*
X00614Y-00761*
X00614Y-0076*
X00613Y-0076*
X00613Y-00759*
Y-00759*
X00613Y-00759*
Y-00759*
Y-00759*
Y-00759*
X00613Y-00758*
X00613Y-00757*
X00614Y-00757*
X00614Y-00756*
X00614Y-00756*
X00614Y-00755*
X00614Y-00755*
X00614Y-00754*
X00615Y-00754*
X00615Y-00754*
X00615Y-00753*
X00615Y-00753*
X00615Y-00753*
X00616Y-00753*
X00616Y-00753*
X00616Y-00753*
X00616Y-00752*
X00617Y-00752*
X00617Y-00751*
X00617Y-00751*
X00618Y-00751*
X00618Y-00751*
X00619Y-0075*
X0062Y-0075*
X0062Y-0075*
X0062Y-0075*
X00621Y-0075*
X00621Y-0075*
X00621*
X00622Y-0075*
X00622Y-0075*
X00623Y-0075*
X00623Y-00751*
X00624Y-00751*
X00624Y-00751*
X00624Y-00751*
X00624Y-00751*
X00624*
X00624Y-00747*
X00614*
Y-00742*
X00627*
X0063Y-00755*
G37*
G36*
X00645Y-00741D02*
X00646Y-00742D01*
X00647Y-00742*
X00647Y-00742*
X00648Y-00742*
X00649Y-00743*
X0065Y-00743*
X0065Y-00743*
X00651Y-00744*
X00651Y-00744*
X00651Y-00744*
X00652Y-00744*
X00652Y-00745*
X00652Y-00745*
X00652Y-00745*
X00652Y-00745*
X00653Y-00746*
X00653Y-00746*
X00654Y-00747*
X00654Y-00748*
X00655Y-00749*
X00655Y-0075*
X00655Y-0075*
X00655Y-00751*
X00655Y-00752*
X00655Y-00753*
X00656Y-00753*
X00656Y-00754*
Y-00754*
X00656Y-00754*
Y-00755*
Y-00755*
Y-00755*
X00656Y-00756*
X00655Y-00757*
X00655Y-00758*
X00655Y-00759*
X00655Y-0076*
X00655Y-0076*
X00654Y-00761*
X00654Y-00762*
X00654Y-00762*
X00653Y-00763*
X00653Y-00763*
X00653Y-00763*
X00653Y-00764*
X00653Y-00764*
X00652Y-00764*
X00652Y-00764*
X00652Y-00765*
X00651Y-00765*
X0065Y-00766*
X0065Y-00766*
X00649Y-00766*
X00648Y-00767*
X00648Y-00767*
X00647Y-00767*
X00646Y-00767*
X00646Y-00767*
X00645Y-00767*
X00645Y-00767*
X00645Y-00767*
X00644Y-00768*
X00644*
X00643Y-00767*
X00643Y-00767*
X00642Y-00767*
X00641Y-00767*
X00641Y-00767*
X0064Y-00767*
X0064Y-00767*
X00639Y-00767*
X00639Y-00766*
X00639Y-00766*
X00638Y-00766*
X00638Y-00766*
X00638Y-00766*
X00638Y-00766*
X00638Y-00766*
X00638Y-00766*
X00637Y-00765*
X00637Y-00765*
X00636Y-00764*
X00635Y-00763*
X00635Y-00762*
X00634Y-00761*
X00634Y-00761*
X00634Y-0076*
X00634Y-0076*
X00634Y-0076*
X00634Y-0076*
X00634Y-00759*
Y-00759*
X00639Y-00758*
X00639Y-00759*
X00639Y-0076*
X0064Y-0076*
X0064Y-00761*
X0064Y-00761*
X00641Y-00762*
X00641Y-00762*
X00641Y-00762*
X00641Y-00762*
X00642Y-00763*
X00643Y-00763*
X00643Y-00763*
X00644Y-00763*
X00644Y-00763*
X00644Y-00763*
X00644*
X00645Y-00763*
X00645Y-00763*
X00646Y-00763*
X00647Y-00763*
X00647Y-00762*
X00648Y-00762*
X00648Y-00762*
X00648Y-00761*
X00649Y-00761*
X00649Y-00761*
X00649Y-00761*
X00649Y-00761*
X00649Y-0076*
X00649Y-0076*
X0065Y-00759*
X0065Y-00758*
X0065Y-00757*
X0065Y-00756*
X0065Y-00756*
X0065Y-00756*
Y-00755*
X0065Y-00755*
Y-00755*
Y-00754*
Y-00754*
X0065Y-00754*
X0065Y-00753*
X0065Y-00752*
X0065Y-00751*
X0065Y-00751*
X0065Y-0075*
X0065Y-0075*
X0065Y-00749*
X00649Y-00749*
X00649Y-00749*
X00649Y-00748*
X00649Y-00748*
X00649Y-00748*
X00649Y-00748*
X00649Y-00748*
Y-00748*
X00648Y-00747*
X00648Y-00747*
X00648Y-00747*
X00647Y-00747*
X00646Y-00746*
X00646Y-00746*
X00645Y-00746*
X00645Y-00746*
X00645Y-00746*
X00644Y-00746*
X00644*
X00643Y-00746*
X00643Y-00746*
X00642Y-00746*
X00642Y-00746*
X00641Y-00747*
X00641Y-00747*
X00641Y-00747*
X00641Y-00747*
X0064Y-00747*
X0064Y-00748*
X00639Y-00748*
X00639Y-00749*
X00639Y-00749*
X00639Y-0075*
X00639Y-0075*
Y-0075*
X00639Y-0075*
Y-0075*
X00634Y-00749*
X00634Y-00748*
X00635Y-00747*
X00635Y-00746*
X00635Y-00745*
X00636Y-00745*
X00636Y-00745*
X00636Y-00744*
X00636Y-00744*
X00636Y-00744*
X00636Y-00744*
X00636*
X00637Y-00744*
X00638Y-00743*
X00638Y-00743*
X00639Y-00743*
X00639Y-00742*
X0064Y-00742*
X00641Y-00742*
X00641Y-00742*
X00642Y-00742*
X00642Y-00742*
X00643Y-00742*
X00643Y-00741*
X00643Y-00741*
X00644*
X00645Y-00741*
G37*
G36*
X00585Y-00741D02*
X00586Y-00742D01*
X00587Y-00742*
X00588Y-00742*
X00588Y-00742*
X00589Y-00743*
X0059Y-00743*
X0059Y-00743*
X00591Y-00744*
X00591Y-00744*
X00592Y-00744*
X00592Y-00744*
X00592Y-00745*
X00592Y-00745*
X00592Y-00745*
X00593Y-00745*
X00593Y-00746*
X00594Y-00746*
X00594Y-00747*
X00594Y-00748*
X00595Y-00749*
X00595Y-0075*
X00595Y-0075*
X00595Y-00751*
X00596Y-00752*
X00596Y-00753*
X00596Y-00753*
X00596Y-00754*
Y-00754*
X00596Y-00754*
Y-00755*
Y-00755*
Y-00755*
X00596Y-00756*
X00596Y-00757*
X00595Y-00758*
X00595Y-00759*
X00595Y-0076*
X00595Y-0076*
X00594Y-00761*
X00594Y-00762*
X00594Y-00762*
X00594Y-00763*
X00593Y-00763*
X00593Y-00764*
X00593Y-00764*
X00593Y-00764*
X00593Y-00764*
X00593Y-00764*
X00592Y-00765*
X00591Y-00765*
X00591Y-00766*
X0059Y-00766*
X00589Y-00766*
X00589Y-00767*
X00588Y-00767*
X00587Y-00767*
X00587Y-00767*
X00586Y-00767*
X00586Y-00767*
X00585Y-00767*
X00585Y-00768*
X00585Y-00768*
X00584*
X00584Y-00768*
X00583Y-00767*
X00582Y-00767*
X00582Y-00767*
X00581Y-00767*
X0058Y-00767*
X0058Y-00767*
X00579Y-00767*
X00579Y-00766*
X00579Y-00766*
X00578Y-00766*
X00578Y-00766*
X00578Y-00766*
X00578Y-00766*
X00578Y-00766*
X00578Y-00766*
X00577Y-00765*
X00577Y-00765*
X00576Y-00764*
X00575Y-00763*
X00575Y-00762*
X00575Y-00761*
X00574Y-00761*
X00574Y-0076*
X00574Y-0076*
X00574Y-0076*
X00574Y-0076*
X00574Y-00759*
Y-00759*
X00579Y-00758*
X00579Y-00759*
X00579Y-0076*
X0058Y-0076*
X0058Y-00761*
X0058Y-00761*
X00581Y-00762*
X00581Y-00762*
X00581Y-00762*
X00581Y-00762*
X00582Y-00763*
X00583Y-00763*
X00583Y-00763*
X00584Y-00763*
X00584Y-00763*
X00584Y-00763*
X00584*
X00585Y-00763*
X00585Y-00763*
X00586Y-00763*
X00587Y-00763*
X00588Y-00762*
X00588Y-00762*
X00588Y-00762*
X00589Y-00761*
X00589Y-00761*
X00589Y-00761*
X00589Y-00761*
X00589Y-00761*
X00589Y-0076*
X0059Y-0076*
X0059Y-00759*
X0059Y-00758*
X0059Y-00757*
X0059Y-00756*
X0059Y-00756*
X0059Y-00756*
Y-00755*
X00591Y-00755*
Y-00755*
Y-00754*
Y-00754*
X0059Y-00754*
X0059Y-00753*
X0059Y-00752*
X0059Y-00751*
X0059Y-00751*
X0059Y-0075*
X0059Y-0075*
X0059Y-00749*
X00589Y-00749*
X00589Y-00749*
X00589Y-00748*
X00589Y-00748*
X00589Y-00748*
X00589Y-00748*
X00589Y-00748*
Y-00748*
X00588Y-00747*
X00588Y-00747*
X00588Y-00747*
X00587Y-00747*
X00587Y-00746*
X00586Y-00746*
X00585Y-00746*
X00585Y-00746*
X00585Y-00746*
X00585Y-00746*
X00584*
X00584Y-00746*
X00583Y-00746*
X00582Y-00746*
X00582Y-00746*
X00581Y-00747*
X00581Y-00747*
X00581Y-00747*
X00581Y-00747*
X0058Y-00747*
X0058Y-00748*
X0058Y-00748*
X00579Y-00749*
X00579Y-00749*
X00579Y-0075*
X00579Y-0075*
Y-0075*
X00579Y-0075*
Y-0075*
X00574Y-00749*
X00574Y-00748*
X00575Y-00747*
X00575Y-00746*
X00576Y-00745*
X00576Y-00745*
X00576Y-00745*
X00576Y-00744*
X00576Y-00744*
X00576Y-00744*
X00576Y-00744*
X00577*
X00577Y-00744*
X00578Y-00743*
X00578Y-00743*
X00579Y-00743*
X0058Y-00742*
X0058Y-00742*
X00581Y-00742*
X00581Y-00742*
X00582Y-00742*
X00582Y-00742*
X00583Y-00742*
X00583Y-00741*
X00584Y-00741*
X00584*
X00585Y-00741*
G37*
G36*
X00571Y-00758D02*
Y-00762D01*
X00561*
Y-00767*
X00556*
Y-00762*
X00553*
Y-00758*
X00556*
Y-00742*
X0056*
X00571Y-00758*
G37*
G36*
X00502Y-00742D02*
X00503Y-00742D01*
X00503Y-00742*
X00504Y-00742*
X00504Y-00742*
X00505Y-00743*
X00506Y-00743*
X00506Y-00743*
X00506Y-00744*
X00507Y-00744*
X00507Y-00744*
X00507Y-00744*
X00508Y-00745*
X00508Y-00745*
X00508Y-00745*
X00508Y-00745*
X00508Y-00745*
X00509Y-00746*
X00509Y-00747*
X00509Y-00748*
X00509Y-00749*
X0051Y-00749*
X0051Y-0075*
X0051Y-00751*
X0051Y-00752*
X0051Y-00753*
X0051Y-00753*
X0051Y-00754*
X0051Y-00754*
Y-00755*
Y-00755*
Y-00755*
Y-00755*
Y-00755*
X0051Y-00756*
X0051Y-00757*
X0051Y-00758*
X0051Y-00759*
X0051Y-0076*
X0051Y-00761*
X00509Y-00762*
X00509Y-00762*
X00509Y-00763*
X00509Y-00763*
X00508Y-00764*
X00508Y-00764*
X00508Y-00764*
X00508Y-00764*
X00508Y-00765*
X00508Y-00765*
X00507Y-00765*
X00507Y-00766*
X00506Y-00766*
X00506Y-00766*
X00505Y-00767*
X00505Y-00767*
X00504Y-00767*
X00504Y-00767*
X00503Y-00767*
X00503Y-00767*
X00503Y-00767*
X00502Y-00768*
X00502*
X00502Y-00768*
X00502*
X00501Y-00768*
X005Y-00767*
X005Y-00767*
X00499Y-00767*
X00499Y-00767*
X00498Y-00767*
X00498Y-00767*
X00497Y-00766*
X00497Y-00766*
X00497Y-00766*
X00496Y-00766*
X00496Y-00766*
X00496Y-00765*
X00496Y-00765*
X00496Y-00765*
X00496Y-00765*
X00495Y-00765*
X00495Y-00764*
X00495Y-00764*
X00494Y-00763*
X00494Y-00763*
X00494Y-00762*
X00494Y-00761*
X00494Y-00761*
X00494Y-0076*
X00494Y-0076*
X00493Y-0076*
X00493Y-00759*
Y-00759*
Y-00759*
Y-00759*
X00493Y-00758*
X00494Y-00758*
X00494Y-00757*
X00494Y-00757*
X00494Y-00756*
X00494Y-00756*
X00494Y-00755*
X00495Y-00755*
X00495Y-00754*
X00495Y-00754*
X00495Y-00754*
X00495Y-00753*
X00495Y-00753*
X00496Y-00753*
X00496Y-00753*
X00496Y-00753*
X00496Y-00753*
X00496Y-00752*
X00497Y-00752*
X00497Y-00752*
X00498Y-00751*
X00498Y-00751*
X00499Y-00751*
X00499Y-00751*
X005Y-00751*
X005Y-00751*
X005Y-00751*
X00501Y-00751*
X00501*
X00501Y-00751*
X00502Y-00751*
X00502Y-00751*
X00503Y-00751*
X00503Y-00751*
X00504Y-00752*
X00505Y-00752*
X00505Y-00752*
X00505Y-00753*
X00505Y-00753*
X00505Y-00753*
X00505Y-00753*
X00505Y-00753*
X00505Y-00752*
X00505Y-00751*
X00505Y-00751*
X00505Y-0075*
X00505Y-0075*
X00505Y-00749*
X00505Y-00749*
X00505Y-00748*
X00504Y-00748*
X00504Y-00748*
X00504Y-00748*
X00504Y-00747*
X00504Y-00747*
X00504Y-00747*
X00504Y-00747*
X00504Y-00747*
X00503Y-00746*
X00503Y-00746*
X00502Y-00746*
X00502Y-00746*
X00502Y-00746*
X00501Y-00746*
X00501*
X00501Y-00746*
X00501Y-00746*
X005Y-00746*
X005Y-00746*
X005Y-00746*
X005Y-00746*
X005Y-00746*
X005Y-00746*
X00499Y-00747*
X00499Y-00747*
X00499Y-00747*
X00499Y-00748*
X00499Y-00748*
X00499Y-00748*
X00499Y-00748*
Y-00749*
X00494Y-00748*
X00494Y-00747*
X00495Y-00746*
X00495Y-00745*
X00495Y-00745*
X00496Y-00744*
X00496Y-00744*
X00496Y-00744*
X00496Y-00744*
X00496Y-00743*
X00496Y-00743*
X00496*
X00497Y-00743*
X00497Y-00743*
X00498Y-00742*
X00499Y-00742*
X00499Y-00742*
X005Y-00742*
X005Y-00742*
X00501*
X00501Y-00742*
X00501*
X00502Y-00742*
G37*
G36*
X00525Y-00741D02*
X00526Y-00742D01*
X00527Y-00742*
X00527Y-00742*
X00528Y-00742*
X00529Y-00743*
X00529Y-00743*
X0053Y-00743*
X00531Y-00744*
X00531Y-00744*
X00531Y-00744*
X00532Y-00744*
X00532Y-00745*
X00532Y-00745*
X00532Y-00745*
X00532Y-00745*
X00533Y-00746*
X00533Y-00746*
X00534Y-00747*
X00534Y-00748*
X00534Y-00749*
X00535Y-0075*
X00535Y-0075*
X00535Y-00751*
X00535Y-00752*
X00535Y-00753*
X00535Y-00753*
X00536Y-00754*
Y-00754*
X00536Y-00754*
Y-00755*
Y-00755*
Y-00755*
X00536Y-00756*
X00535Y-00757*
X00535Y-00758*
X00535Y-00759*
X00535Y-0076*
X00535Y-0076*
X00534Y-00761*
X00534Y-00762*
X00534Y-00762*
X00533Y-00763*
X00533Y-00763*
X00533Y-00763*
X00533Y-00764*
X00532Y-00764*
X00532Y-00764*
X00532Y-00764*
X00532Y-00765*
X00531Y-00765*
X0053Y-00766*
X0053Y-00766*
X00529Y-00766*
X00528Y-00767*
X00528Y-00767*
X00527Y-00767*
X00526Y-00767*
X00526Y-00767*
X00525Y-00767*
X00525Y-00767*
X00525Y-00767*
X00524Y-00768*
X00524*
X00523Y-00767*
X00523Y-00767*
X00522Y-00767*
X00521Y-00767*
X00521Y-00767*
X0052Y-00767*
X0052Y-00767*
X00519Y-00767*
X00519Y-00766*
X00518Y-00766*
X00518Y-00766*
X00518Y-00766*
X00518Y-00766*
X00518Y-00766*
X00517Y-00766*
X00517Y-00766*
X00517Y-00765*
X00517Y-00765*
X00516Y-00764*
X00515Y-00763*
X00515Y-00762*
X00514Y-00761*
X00514Y-00761*
X00514Y-0076*
X00514Y-0076*
X00514Y-0076*
X00514Y-0076*
X00514Y-00759*
Y-00759*
X00519Y-00758*
X00519Y-00759*
X00519Y-0076*
X0052Y-0076*
X0052Y-00761*
X0052Y-00761*
X0052Y-00762*
X00521Y-00762*
X00521Y-00762*
X00521Y-00762*
X00522Y-00763*
X00522Y-00763*
X00523Y-00763*
X00523Y-00763*
X00524Y-00763*
X00524Y-00763*
X00524*
X00525Y-00763*
X00525Y-00763*
X00526Y-00763*
X00527Y-00763*
X00527Y-00762*
X00528Y-00762*
X00528Y-00762*
X00528Y-00761*
X00529Y-00761*
X00529Y-00761*
X00529Y-00761*
X00529Y-00761*
X00529Y-0076*
X00529Y-0076*
X0053Y-00759*
X0053Y-00758*
X0053Y-00757*
X0053Y-00756*
X0053Y-00756*
X0053Y-00756*
Y-00755*
X0053Y-00755*
Y-00755*
Y-00754*
Y-00754*
X0053Y-00754*
X0053Y-00753*
X0053Y-00752*
X0053Y-00751*
X0053Y-00751*
X0053Y-0075*
X0053Y-0075*
X00529Y-00749*
X00529Y-00749*
X00529Y-00749*
X00529Y-00748*
X00529Y-00748*
X00529Y-00748*
X00529Y-00748*
X00529Y-00748*
Y-00748*
X00528Y-00747*
X00528Y-00747*
X00528Y-00747*
X00527Y-00747*
X00526Y-00746*
X00526Y-00746*
X00525Y-00746*
X00525Y-00746*
X00525Y-00746*
X00524Y-00746*
X00524*
X00523Y-00746*
X00523Y-00746*
X00522Y-00746*
X00522Y-00746*
X00521Y-00747*
X00521Y-00747*
X00521Y-00747*
X00521Y-00747*
X0052Y-00747*
X0052Y-00748*
X00519Y-00748*
X00519Y-00749*
X00519Y-00749*
X00519Y-0075*
X00519Y-0075*
Y-0075*
X00519Y-0075*
Y-0075*
X00514Y-00749*
X00514Y-00748*
X00514Y-00747*
X00515Y-00746*
X00515Y-00745*
X00516Y-00745*
X00516Y-00745*
X00516Y-00744*
X00516Y-00744*
X00516Y-00744*
X00516Y-00744*
X00516*
X00517Y-00744*
X00517Y-00743*
X00518Y-00743*
X00519Y-00743*
X00519Y-00742*
X0052Y-00742*
X00521Y-00742*
X00521Y-00742*
X00522Y-00742*
X00522Y-00742*
X00523Y-00742*
X00523Y-00741*
X00523Y-00741*
X00524*
X00525Y-00741*
G37*
G36*
X-00304Y-00969D02*
X-00303Y-00969D01*
X-00302Y-00969*
X-00302Y-00969*
X-00301Y-0097*
X-00301Y-0097*
X-00301Y-0097*
X-00301Y-0097*
X-003Y-00971*
X-003Y-00971*
X-00299Y-00972*
X-00299Y-00972*
X-00299Y-00973*
X-00299Y-00973*
X-00299Y-00973*
Y-00973*
X-00299Y-00974*
Y-00974*
X-00298Y-00973*
X-00298Y-00972*
X-00297Y-00972*
X-00297Y-00971*
X-00296Y-00971*
X-00296Y-00971*
X-00296Y-00971*
X-00295Y-0097*
X-00295Y-0097*
X-00294Y-0097*
X-00294Y-0097*
X-00294Y-0097*
X-00294Y-0097*
X-00293Y-0097*
X-00293*
X-00293*
X-00293Y-0097*
X-00292Y-0097*
X-00292Y-0097*
X-00291Y-0097*
X-0029Y-00971*
X-0029Y-00971*
X-00289Y-00971*
X-00289Y-00972*
X-00289Y-00972*
X-00289Y-00972*
X-00289Y-00972*
X-00289Y-00972*
X-00288Y-00973*
X-00288Y-00973*
X-00288Y-00974*
X-00287Y-00974*
X-00287Y-00974*
X-00287Y-00975*
X-00287Y-00976*
X-00287Y-00976*
X-00287Y-00977*
X-00287Y-00977*
X-00287Y-00977*
Y-00977*
X-00287Y-00978*
X-00287Y-00979*
X-00287Y-0098*
X-00287Y-0098*
X-00287Y-00981*
X-00287Y-00981*
X-00288Y-00981*
X-00288Y-00981*
Y-00981*
X-00288Y-00982*
X-00288Y-00982*
X-00289Y-00983*
X-00289Y-00983*
X-00289Y-00983*
X-0029Y-00984*
X-0029Y-00984*
X-0029Y-00984*
X-0029Y-00984*
X-00291Y-00984*
X-00291Y-00985*
X-00292Y-00985*
X-00293Y-00985*
X-00293Y-00985*
X-00293Y-00985*
X-00293*
X-00293Y-00985*
X-00293*
X-00294Y-00981*
X-00294Y-00981*
X-00293Y-00981*
X-00293Y-0098*
X-00292Y-0098*
X-00292Y-0098*
X-00292Y-0098*
X-00292Y-0098*
X-00292Y-0098*
X-00291Y-00979*
X-00291Y-00979*
X-00291Y-00979*
X-00291Y-00978*
X-00291Y-00978*
X-00291Y-00978*
Y-00978*
X-00291Y-00977*
X-00291Y-00977*
X-00291Y-00976*
X-00291Y-00976*
X-00291Y-00976*
X-00291Y-00976*
X-00291Y-00976*
X-00292Y-00976*
X-00292Y-00975*
X-00292Y-00975*
X-00293Y-00975*
X-00293Y-00975*
X-00293Y-00975*
X-00293Y-00975*
X-00293*
X-00294*
X-00294Y-00975*
X-00295Y-00975*
X-00295Y-00975*
X-00295Y-00975*
X-00296Y-00976*
X-00296Y-00976*
X-00296Y-00976*
X-00296Y-00976*
X-00296Y-00976*
X-00296Y-00977*
X-00297Y-00977*
X-00297Y-00978*
X-00297Y-00978*
X-00297Y-00979*
Y-00979*
X-00301Y-00979*
X-00301Y-00979*
X-003Y-00978*
X-003Y-00978*
X-003Y-00978*
X-003Y-00978*
Y-00977*
X-003Y-00977*
X-00301Y-00976*
X-00301Y-00976*
X-00301Y-00975*
X-00301Y-00975*
X-00301Y-00975*
X-00301Y-00975*
X-00301Y-00975*
X-00302Y-00974*
X-00302Y-00974*
X-00303Y-00974*
X-00303Y-00974*
X-00304Y-00974*
X-00304Y-00974*
X-00304*
X-00304*
X-00304*
X-00305Y-00974*
X-00306Y-00974*
X-00306Y-00974*
X-00307Y-00974*
X-00307Y-00974*
X-00307Y-00975*
X-00307Y-00975*
X-00307Y-00975*
X-00308Y-00975*
X-00308Y-00976*
X-00308Y-00976*
X-00308Y-00976*
X-00308Y-00977*
X-00309Y-00977*
X-00309Y-00977*
Y-00977*
X-00309Y-00978*
X-00308Y-00978*
X-00308Y-00979*
X-00308Y-00979*
X-00308Y-00979*
X-00308Y-0098*
X-00308Y-0098*
X-00308Y-0098*
X-00307Y-0098*
X-00307Y-0098*
X-00306Y-00981*
X-00306Y-00981*
X-00306Y-00981*
X-00305Y-00981*
X-00305Y-00981*
X-00305*
X-00305*
X-00305Y-00986*
X-00306Y-00985*
X-00307Y-00985*
X-00308Y-00985*
X-00308Y-00985*
X-00309Y-00984*
X-00309Y-00984*
X-0031Y-00984*
X-0031Y-00984*
X-0031Y-00984*
X-0031Y-00983*
X-0031Y-00983*
X-0031Y-00983*
X-00311Y-00983*
X-00311Y-00983*
X-00311Y-00983*
X-00311Y-00982*
X-00312Y-00982*
X-00312Y-00981*
X-00312Y-0098*
X-00312Y-00979*
X-00312Y-00979*
X-00312Y-00978*
X-00312Y-00978*
X-00313Y-00978*
X-00313Y-00978*
Y-00977*
X-00313Y-00977*
X-00312Y-00976*
X-00312Y-00975*
X-00312Y-00975*
X-00312Y-00974*
X-00312Y-00974*
X-00312Y-00973*
X-00311Y-00973*
X-00311Y-00973*
X-00311Y-00972*
X-00311Y-00972*
X-00311Y-00972*
X-0031Y-00972*
X-0031Y-00971*
X-0031Y-00971*
X-0031Y-00971*
X-0031Y-00971*
X-00309Y-0097*
X-00309Y-0097*
X-00308Y-0097*
X-00308Y-0097*
X-00307Y-00969*
X-00307Y-00969*
X-00306Y-00969*
X-00306Y-00969*
X-00305Y-00969*
X-00305Y-00969*
X-00305Y-00969*
X-00305*
X-00305*
X-00305*
X-00304Y-00969*
G37*
G36*
X-00287Y-00997D02*
X-00288Y-00997D01*
X-00288Y-00997*
X-00289Y-00998*
X-0029Y-00998*
X-0029Y-00999*
X-00291Y-00999*
X-00291Y-00999*
X-00291Y-01*
X-00291Y-01*
X-00291Y-01*
X-00291Y-01*
X-00292Y-01001*
X-00292Y-01002*
X-00293Y-01002*
X-00293Y-01003*
X-00293Y-01003*
X-00293Y-01004*
X-00293Y-01004*
X-00293Y-01004*
Y-01004*
X-00297*
X-00297Y-01002*
X-00296Y-01001*
X-00296Y-01001*
X-00296Y-01*
X-00296Y-01*
X-00295Y-00999*
X-00295Y-00999*
X-00295Y-00998*
X-00294Y-00998*
X-00294Y-00998*
X-00294Y-00998*
X-00294Y-00998*
X-00294Y-00997*
X-00294Y-00997*
X-00312*
Y-00993*
X-00287*
Y-00997*
G37*
G36*
X-00303Y-01013D02*
X-00304Y-01014D01*
X-00305Y-01014*
X-00305Y-01014*
X-00306Y-01015*
X-00306Y-01015*
X-00307Y-01015*
X-00307Y-01015*
X-00307Y-01015*
X-00307Y-01016*
X-00308Y-01017*
X-00308Y-01017*
X-00308Y-01018*
X-00308Y-01018*
X-00308Y-01018*
X-00308Y-01019*
Y-01019*
X-00308Y-01019*
X-00308Y-0102*
X-00308Y-01021*
X-00308Y-01021*
X-00307Y-01022*
X-00307Y-01023*
X-00307Y-01023*
X-00306Y-01023*
X-00306Y-01023*
X-00306Y-01023*
X-00306Y-01023*
X-00306Y-01024*
X-00305Y-01024*
X-00305Y-01024*
X-00304Y-01024*
X-00303Y-01025*
X-00302Y-01025*
X-00301Y-01025*
X-00301Y-01025*
X-00301Y-01025*
X-003*
X-003Y-01025*
X-003*
X-00299*
X-00299*
X-00299Y-01025*
X-00298Y-01025*
X-00297Y-01025*
X-00296Y-01025*
X-00296Y-01025*
X-00295Y-01024*
X-00295Y-01024*
X-00294Y-01024*
X-00294Y-01024*
X-00294Y-01024*
X-00293Y-01024*
X-00293Y-01023*
X-00293Y-01023*
X-00293Y-01023*
X-00293Y-01023*
X-00293*
X-00292Y-01023*
X-00292Y-01023*
X-00292Y-01022*
X-00292Y-01022*
X-00291Y-01021*
X-00291Y-0102*
X-00291Y-0102*
X-00291Y-01019*
X-00291Y-01019*
X-00291Y-01019*
Y-01019*
X-00291Y-01018*
X-00291Y-01017*
X-00291Y-01017*
X-00291Y-01016*
X-00292Y-01016*
X-00292Y-01016*
X-00292Y-01015*
X-00292Y-01015*
X-00292Y-01015*
X-00293Y-01014*
X-00293Y-01014*
X-00294Y-01014*
X-00294Y-01014*
X-00295Y-01013*
X-00295Y-01013*
X-00295*
X-00295Y-01013*
X-00295*
X-00294Y-01008*
X-00293Y-01009*
X-00292Y-01009*
X-00291Y-0101*
X-0029Y-0101*
X-0029Y-0101*
X-0029Y-0101*
X-00289Y-01011*
X-00289Y-01011*
X-00289Y-01011*
X-00289Y-01011*
Y-01011*
X-00289Y-01011*
X-00288Y-01012*
X-00288Y-01013*
X-00288Y-01013*
X-00287Y-01014*
X-00287Y-01015*
X-00287Y-01015*
X-00287Y-01016*
X-00287Y-01016*
X-00287Y-01017*
X-00287Y-01017*
X-00286Y-01018*
X-00286Y-01018*
Y-01018*
X-00286Y-01019*
X-00287Y-0102*
X-00287Y-01021*
X-00287Y-01022*
X-00287Y-01023*
X-00288Y-01023*
X-00288Y-01024*
X-00288Y-01025*
X-00289Y-01025*
X-00289Y-01026*
X-00289Y-01026*
X-00289Y-01026*
X-0029Y-01027*
X-0029Y-01027*
X-0029Y-01027*
X-0029Y-01027*
X-00291Y-01028*
X-00291Y-01028*
X-00292Y-01028*
X-00293Y-01029*
X-00294Y-01029*
X-00295Y-01029*
X-00295Y-0103*
X-00296Y-0103*
X-00297Y-0103*
X-00298Y-0103*
X-00298Y-0103*
X-00299Y-0103*
X-00299*
X-00299Y-0103*
X-003*
X-003*
X-003*
X-00301Y-0103*
X-00302Y-0103*
X-00303Y-0103*
X-00304Y-0103*
X-00305Y-01029*
X-00305Y-01029*
X-00306Y-01029*
X-00307Y-01029*
X-00307Y-01028*
X-00308Y-01028*
X-00308Y-01028*
X-00308Y-01027*
X-00309Y-01027*
X-00309Y-01027*
X-00309Y-01027*
X-00309Y-01027*
X-0031Y-01026*
X-0031Y-01026*
X-00311Y-01025*
X-00311Y-01024*
X-00311Y-01024*
X-00312Y-01023*
X-00312Y-01022*
X-00312Y-01022*
X-00312Y-01021*
X-00312Y-01021*
X-00312Y-0102*
X-00312Y-0102*
X-00312Y-01019*
X-00313Y-01019*
Y-01019*
X-00312Y-01018*
X-00312Y-01017*
X-00312Y-01017*
X-00312Y-01016*
X-00312Y-01015*
X-00312Y-01015*
X-00312Y-01014*
X-00312Y-01014*
X-00311Y-01013*
X-00311Y-01013*
X-00311Y-01013*
X-00311Y-01013*
X-00311Y-01012*
X-00311Y-01012*
X-00311Y-01012*
X-00311Y-01012*
X-0031Y-01012*
X-0031Y-01011*
X-00309Y-0101*
X-00308Y-0101*
X-00307Y-01009*
X-00306Y-01009*
X-00306Y-01009*
X-00305Y-01009*
X-00305Y-01008*
X-00305Y-01008*
X-00305Y-01008*
X-00304Y-01008*
X-00304*
X-00303Y-01013*
G37*
G36*
X00358Y-00622D02*
X00358Y-00623D01*
X00359Y-00623*
X00359Y-00624*
X00359Y-00625*
X0036Y-00625*
X0036Y-00625*
X0036Y-00625*
X0036Y-00625*
X0036Y-00625*
X00361Y-00626*
X00362Y-00626*
X00363Y-00627*
X00363Y-00627*
X00364Y-00627*
X00364Y-00627*
X00364Y-00627*
X00364Y-00628*
X00364Y-00628*
X00364*
Y-00632*
X00363Y-00631*
X00362Y-00631*
X00361Y-00631*
X00361Y-0063*
X0036Y-0063*
X0036Y-0063*
X00359Y-00629*
X00359Y-00629*
X00359Y-00629*
X00359Y-00629*
X00358Y-00628*
X00358Y-00628*
X00358Y-00628*
X00358Y-00628*
Y-00647*
X00353*
Y-00621*
X00357*
X00358Y-00622*
G37*
G36*
X0041Y-00647D02*
X00404D01*
Y-00637*
X004*
X00399Y-00637*
X00399*
X00398Y-00637*
X00398Y-00637*
X00398Y-00637*
X00397Y-00637*
X00397*
X00397Y-00637*
X00396Y-00637*
X00396Y-00637*
X00396*
X00396Y-00637*
X00396*
X00395Y-00637*
X00395Y-00636*
X00394Y-00636*
X00394Y-00636*
X00394Y-00636*
X00393Y-00636*
X00393Y-00636*
X00393Y-00635*
X00393Y-00635*
X00392Y-00635*
X00392Y-00634*
X00392Y-00634*
X00391Y-00634*
X00391Y-00633*
X00391Y-00633*
X00391Y-00633*
X00391Y-00632*
X00391Y-00632*
X0039Y-00631*
X0039Y-0063*
X0039Y-0063*
Y-0063*
X0039Y-00629*
Y-00629*
Y-00629*
Y-00629*
Y-00629*
X0039Y-00628*
X0039Y-00627*
X00391Y-00626*
X00391Y-00625*
X00391Y-00625*
X00391Y-00625*
X00391Y-00625*
X00391Y-00625*
X00392Y-00624*
X00392Y-00624*
X00392Y-00624*
Y-00624*
X00392Y-00624*
X00393Y-00623*
X00393Y-00623*
X00394Y-00622*
X00395Y-00622*
X00395Y-00622*
X00395Y-00622*
X00395Y-00622*
X00395Y-00622*
X00395*
X00396Y-00622*
X00396Y-00622*
X00396Y-00622*
X00397Y-00621*
X00398Y-00621*
X00399Y-00621*
X004*
X004Y-00621*
X0041*
Y-00647*
G37*
G36*
X00386D02*
X00368D01*
Y-00642*
X00381*
Y-00621*
X00386*
Y-00647*
G37*
G36*
X00232Y00794D02*
X00223D01*
Y00804*
X00232*
Y00794*
G37*
G36*
X-00027D02*
X-00037D01*
Y00804*
X-00027*
Y00794*
G37*
G36*
X-00197Y0079D02*
X-00196Y0079D01*
X-00194Y00789*
X-00193Y00789*
X-00192Y00789*
X-00192Y00789*
X-00191Y00788*
X-00191Y00788*
X-0019Y00788*
X-00189Y00787*
X-00188Y00786*
X-00187Y00786*
X-00186Y00785*
X-00186Y00785*
X-00185Y00784*
X-00185Y00784*
Y00789*
X-00176*
Y00744*
X-00185*
Y00777*
X-00187Y00778*
X-00188Y00779*
X-00189Y00779*
X-0019Y0078*
X-0019Y0078*
X-00191Y0078*
X-00191Y0078*
X-00192Y00781*
X-00193Y00781*
X-00194Y00781*
X-00195Y00781*
X-00195Y00781*
X-00196Y00782*
X-00197*
X-00198Y00781*
X-00199Y00781*
X-002Y00781*
X-002Y00781*
X-00201Y00781*
X-00201Y00781*
X-00201*
X-00202Y0078*
X-00203Y00779*
X-00203Y00779*
X-00203Y00779*
Y00779*
X-00203Y00778*
X-00204Y00777*
X-00204Y00776*
X-00204Y00776*
Y00775*
X-00204Y00775*
Y00775*
X-00204Y00773*
Y00772*
X-00204Y00771*
Y0077*
Y0077*
Y0077*
Y00769*
Y00744*
X-00213*
Y00772*
Y00773*
Y00774*
X-00213Y00775*
Y00775*
Y00775*
X-00213Y00776*
Y00776*
X-00213Y00776*
Y00777*
X-00215Y00778*
X-00216Y00779*
X-00217Y00779*
X-00218Y00779*
X-00218Y0078*
X-00219Y0078*
X-00219Y0078*
X-0022Y00781*
X-00221Y00781*
X-00222Y00781*
X-00223Y00781*
X-00223Y00781*
X-00224Y00782*
X-00225*
X-00226Y00781*
X-00227Y00781*
X-00228Y00781*
X-00228Y00781*
X-00229Y00781*
X-00229Y00781*
X-00229*
X-0023Y0078*
X-00231Y00779*
X-00231Y00779*
X-00231Y00779*
Y00779*
X-00231Y00778*
X-00232Y00777*
X-00232Y00776*
X-00232Y00776*
Y00775*
X-00232Y00775*
Y00775*
X-00232Y00773*
Y00772*
X-00232Y00771*
Y0077*
Y0077*
Y0077*
Y00769*
Y00744*
X-00241*
Y00773*
X-00241Y00776*
X-00241Y00778*
X-0024Y0078*
X-0024Y00781*
X-00239Y00782*
X-00239Y00783*
X-00239Y00784*
X-00238Y00784*
X-00238Y00785*
X-00238Y00785*
X-00238Y00785*
X-00238Y00785*
Y00785*
X-00237Y00786*
X-00236Y00787*
X-00235Y00788*
X-00234Y00788*
X-00233Y00789*
X-00231Y00789*
X-00229Y0079*
X-00228Y0079*
X-00228Y0079*
X-00227Y0079*
X-00227*
X-00225Y0079*
X-00223Y0079*
X-00222Y00789*
X-00221Y00789*
X-0022Y00789*
X-00219Y00789*
X-00219Y00788*
X-00218Y00788*
X-00217Y00788*
X-00216Y00787*
X-00214Y00786*
X-00213Y00785*
X-00212Y00784*
X-00212Y00784*
X-00211Y00783*
X-00211Y00783*
X-0021Y00784*
X-0021Y00785*
X-00209Y00786*
X-00208Y00787*
X-00208Y00787*
X-00207Y00788*
X-00207Y00788*
X-00206Y00788*
X-00205Y00789*
X-00204Y00789*
X-00203Y0079*
X-00201Y0079*
X-002Y0079*
X-00199Y0079*
X-00199*
X-00197Y0079*
G37*
G36*
X-00093Y00744D02*
X-00101D01*
Y00775*
X-00103Y00777*
X-00104Y00777*
X-00105Y00778*
X-00106Y00778*
X-00106Y00778*
X-00107Y00779*
X-00107Y00779*
X-00108Y00779*
X-00109Y00779*
X-0011Y0078*
X-00111Y0078*
X-00112Y0078*
X-00113Y0078*
X-00114*
X-00115Y0078*
X-00116*
X-00116Y0078*
X-00117*
X-00118Y0078*
X-00119Y0078*
X-00119Y00779*
X-00119*
X-0012Y00779*
X-00121*
Y00788*
X-0012Y00788*
X-0012Y00788*
X-00119*
X-00119Y00789*
X-00118Y00789*
X-00118*
X-00117Y00789*
X-00117*
X-00116Y00789*
X-00115*
X-00114Y00789*
X-00112Y00789*
X-00111Y00788*
X-0011Y00788*
X-00109Y00788*
X-00109Y00788*
X-00108Y00787*
X-00108Y00787*
X-00107Y00787*
X-00105Y00786*
X-00104Y00785*
X-00103Y00784*
X-00103Y00784*
X-00102Y00783*
X-00102Y00783*
X-00101Y00782*
Y00789*
X-00093*
Y00744*
G37*
G36*
X00476D02*
X00467D01*
Y00772*
X0044*
Y00744*
X0043*
Y00803*
X0044*
Y00781*
X00467*
Y00803*
X00476*
Y00744*
G37*
G36*
X00403Y0079D02*
X00404Y0079D01*
X00406Y00789*
X00407Y00789*
X00407Y00789*
X00408Y00789*
X00408*
X0041Y00789*
X00411Y00789*
X00412Y00788*
X00413Y00788*
X00414Y00788*
X00414Y00788*
X00415Y00788*
X00415*
Y00779*
X00414*
X00412Y00779*
X00411Y0078*
X0041Y0078*
X00408Y00781*
X00408Y00781*
X00407Y00781*
X00406Y00781*
X00406*
X00405Y00781*
X00404Y00782*
X00403Y00782*
X00402Y00782*
X00401Y00782*
X004*
X00398Y00782*
X00398*
X00397Y00782*
X00397Y00782*
X00396*
X00396Y00782*
X00396*
X00394Y00781*
X00394Y00781*
X00393Y00781*
X00393Y00781*
X00393Y00781*
X00392Y0078*
X00392*
X00391Y0078*
X00391Y00779*
X0039Y00778*
X0039Y00778*
Y00778*
X0039Y00777*
X00389Y00776*
X00389Y00775*
Y00775*
Y00775*
Y00774*
Y00774*
X00391Y00774*
X00393Y00774*
X00395Y00774*
X00397Y00773*
X00398Y00773*
X00399*
X004Y00773*
X004*
X004Y00773*
X00401*
X00403Y00773*
X00404Y00772*
X00406Y00772*
X00407Y00772*
X00409Y00771*
X00409Y00771*
X0041Y00771*
X0041Y00771*
X0041*
X00412Y0077*
X00413Y00769*
X00414Y00768*
X00415Y00767*
X00416Y00767*
X00416Y00766*
X00416Y00766*
X00417Y00766*
X00417Y00764*
X00418Y00763*
X00418Y00762*
X00418Y0076*
X00419Y00759*
X00419Y00758*
Y00758*
Y00758*
Y00757*
Y00757*
X00419Y00756*
X00419Y00755*
X00418Y00753*
X00417Y00751*
X00417Y0075*
X00416Y00748*
X00415Y00747*
X00415Y00747*
X00414Y00747*
Y00747*
X00414Y00746*
X00413Y00745*
X00411Y00744*
X00409Y00744*
X00408Y00743*
X00406Y00743*
X00406Y00743*
X00405*
X00405Y00743*
X00403*
X00402Y00743*
X00401Y00743*
X004Y00743*
X00399Y00743*
X00399Y00743*
X00398Y00743*
X00398*
X00397Y00744*
X00396Y00744*
X00395Y00744*
X00395Y00745*
X00394Y00745*
X00394Y00745*
X00394*
X00393Y00745*
X00392Y00746*
X00391Y00746*
X00391Y00747*
X00391Y00747*
X00391Y00747*
X0039Y00747*
X0039Y00747*
X0039Y00748*
X00389Y00748*
X00389Y00748*
Y00744*
X0038*
Y00774*
X0038Y00776*
X0038Y00777*
X00381Y00778*
X00381Y00779*
X00381Y0078*
X00381Y00781*
X00382Y00781*
X00382Y00781*
X00382Y00782*
X00383Y00783*
X00383Y00784*
X00384Y00785*
X00385Y00786*
X00385Y00786*
X00386Y00786*
X00386Y00786*
X00387Y00787*
X00388Y00788*
X00389Y00788*
X0039Y00788*
X00391Y00789*
X00391Y00789*
X00392Y00789*
X00392*
X00393Y00789*
X00395Y00789*
X00396Y0079*
X00397Y0079*
X00398Y0079*
X004*
X00403Y0079*
G37*
G36*
X00039Y00744D02*
X0003D01*
Y00794*
X00015Y0076*
X0001*
X-00004Y00794*
Y00744*
X-00013*
Y00803*
X-00001*
X00012Y00771*
X00027Y00803*
X00039*
Y00744*
G37*
G36*
X-00304Y0076D02*
X-00304Y00758D01*
X-00304Y00757*
X-00305Y00756*
X-00305Y00754*
X-00305Y00753*
X-00306Y00752*
X-00306Y00751*
X-00306Y0075*
X-00307Y0075*
X-00307Y00749*
X-00307Y00748*
X-00308Y00748*
X-00308Y00748*
X-00308Y00747*
X-00308Y00747*
Y00747*
X-00309Y00746*
X-0031Y00746*
X-00312Y00745*
X-00314Y00744*
X-00315Y00743*
X-00317Y00743*
X-00318Y00743*
X-00318*
X-00319Y00743*
X-00319*
X-00321Y00743*
X-00322Y00743*
X-00324Y00743*
X-00325Y00744*
X-00326Y00744*
X-00327Y00744*
X-00327Y00744*
X-00327Y00744*
X-00328Y00745*
X-0033Y00746*
X-00331Y00746*
X-00332Y00747*
X-00332Y00748*
X-00333Y00748*
X-00333Y00749*
X-00333Y00749*
Y00744*
X-00342*
Y00789*
X-00333*
Y00756*
X-00331Y00755*
X-0033Y00754*
X-00329Y00754*
X-00329Y00753*
X-00328Y00753*
X-00328Y00753*
X-00327Y00753*
X-00326Y00752*
X-00325Y00752*
X-00324Y00752*
X-00323Y00751*
X-00323Y00751*
X-00322Y00751*
X-0032*
X-0032Y00751*
X-00319Y00751*
X-00318Y00752*
X-00318Y00752*
X-00317Y00752*
X-00317Y00752*
X-00317*
X-00316Y00753*
X-00315Y00753*
X-00315Y00754*
X-00315Y00754*
Y00754*
X-00314Y00755*
X-00314Y00757*
X-00314Y00757*
X-00314Y00757*
X-00313Y00758*
Y00758*
X-00313Y00759*
X-00313Y0076*
Y00761*
X-00313Y00761*
Y00762*
Y00763*
Y00763*
Y00763*
Y00789*
X-00304*
Y0076*
G37*
G36*
X0015Y0079D02*
X00152Y0079D01*
X00153Y00789*
X00155Y00789*
X00156Y00788*
X00158Y00788*
X00159Y00787*
X0016Y00787*
X00161Y00786*
X00162Y00786*
X00162Y00785*
X00163Y00784*
X00163Y00784*
X00164Y00784*
X00164Y00784*
X00164Y00783*
X00165Y00782*
X00166Y00781*
X00167Y00779*
X00168Y00778*
X00168Y00777*
X00169Y00775*
X00169Y00772*
X0017Y00771*
X0017Y0077*
X0017Y00769*
X0017Y00768*
X0017Y00767*
Y00767*
Y00766*
Y00766*
X0017Y00764*
X0017Y00762*
X00169Y0076*
X00169Y00759*
X00169Y00757*
X00168Y00756*
X00167Y00755*
X00167Y00753*
X00166Y00752*
X00166Y00751*
X00165Y00751*
X00165Y0075*
X00164Y0075*
X00164Y00749*
X00164Y00749*
X00164Y00749*
X00163Y00748*
X00161Y00747*
X0016Y00746*
X00158Y00745*
X00157Y00745*
X00156Y00744*
X00153Y00744*
X00151Y00743*
X0015Y00743*
X00149Y00743*
X00148Y00743*
X00148Y00743*
X00146*
X00145Y00743*
X00143Y00743*
X00142Y00743*
X00141Y00743*
X0014Y00744*
X00139Y00744*
X00138Y00744*
X00138*
X00135Y00745*
X00134Y00745*
X00133Y00746*
X00132Y00746*
X00131Y00746*
X0013Y00747*
X0013Y00747*
X0013*
Y00756*
X00132*
X00132Y00755*
X00133Y00755*
X00135Y00754*
X00136Y00754*
X00137Y00753*
X00137Y00753*
X00138Y00753*
X00138Y00753*
X00138*
X0014Y00752*
X00141Y00752*
X00143Y00751*
X00144Y00751*
X00145Y00751*
X00146Y00751*
X00148*
X00149Y00751*
X0015Y00751*
X00151Y00751*
X00151Y00751*
X00152Y00752*
X00152Y00752*
X00152*
X00153Y00752*
X00154Y00753*
X00155Y00753*
X00156Y00754*
X00157Y00754*
X00157Y00754*
X00157Y00755*
X00157Y00755*
X00158Y00755*
X00158Y00756*
X00159Y00757*
X00159Y00758*
X0016Y00759*
X0016Y00759*
X0016Y00759*
X0016Y0076*
X00161Y00761*
X00161Y00762*
X00161Y00763*
X00161Y00764*
X00161Y00764*
Y00765*
Y00765*
X00129*
Y0077*
X00129Y00771*
X00129Y00773*
X0013Y00775*
X0013Y00776*
X0013Y00777*
X00131Y00779*
X00131Y0078*
X00132Y00781*
X00132Y00782*
X00133Y00782*
X00133Y00783*
X00133Y00784*
X00134Y00784*
X00134Y00784*
X00134Y00785*
X00134Y00785*
X00135Y00786*
X00136Y00786*
X00137Y00787*
X00138Y00788*
X0014Y00788*
X00141Y00789*
X00143Y00789*
X00144Y0079*
X00145Y0079*
X00146Y0079*
X00147Y0079*
X00147Y0079*
X00148*
X0015Y0079*
G37*
G36*
X-00067Y0079D02*
X-00066Y0079D01*
X-00064Y00789*
X-00062Y00789*
X-00061Y00788*
X-0006Y00788*
X-00059Y00787*
X-00057Y00787*
X-00056Y00786*
X-00056Y00785*
X-00055Y00785*
X-00054Y00784*
X-00054Y00784*
X-00053Y00784*
X-00053Y00784*
X-00053Y00783*
X-00052Y00782*
X-00051Y00781*
X-0005Y0078*
X-0005Y00778*
X-00049Y00777*
X-00049Y00775*
X-00048Y00773*
X-00048Y00771*
X-00048Y0077*
X-00047Y00769*
X-00047Y00768*
X-00047Y00767*
Y00767*
Y00766*
Y00766*
X-00047Y00764*
X-00047Y00762*
X-00048Y0076*
X-00048Y00759*
X-00048Y00758*
X-00048Y00757*
X-00049Y00756*
X-00049Y00756*
X-00049Y00756*
Y00756*
X-00049Y00754*
X-0005Y00753*
X-00051Y00752*
X-00052Y00751*
X-00052Y0075*
X-00053Y00749*
X-00053Y00749*
X-00053Y00749*
X-00054Y00748*
X-00056Y00747*
X-00057Y00746*
X-00058Y00745*
X-00059Y00745*
X-0006Y00745*
X-0006Y00744*
X-0006Y00744*
X-00062Y00744*
X-00063Y00743*
X-00065Y00743*
X-00066Y00743*
X-00067Y00743*
X-00068Y00743*
X-00069*
X-0007Y00743*
X-00072Y00743*
X-00073Y00743*
X-00074Y00743*
X-00075Y00744*
X-00076Y00744*
X-00076Y00744*
X-00076*
X-00077Y00744*
X-00079Y00745*
X-0008Y00745*
X-00081Y00746*
X-00082Y00746*
X-00083Y00746*
X-00084Y00747*
X-00084Y00747*
X-00084*
Y00756*
X-00082*
X-00081Y00756*
X-00081Y00755*
X-0008Y00755*
X-0008Y00754*
X-0008*
X-00079Y00754*
X-00078Y00753*
X-00078Y00753*
X-00077Y00753*
X-00077Y00753*
X-00077*
X-00076Y00752*
X-00074Y00752*
X-00074Y00752*
X-00073Y00751*
X-00073Y00751*
X-00073*
X-00072Y00751*
X-00071Y00751*
X-0007*
X-0007Y00751*
X-00069*
X-00068Y00751*
X-00067Y00751*
X-00065Y00751*
X-00063Y00752*
X-00062Y00753*
X-00061Y00754*
X-0006Y00754*
X-0006Y00755*
X-0006Y00755*
X-00059Y00756*
X-00058Y00758*
X-00057Y0076*
X-00057Y00762*
X-00057Y00764*
X-00056Y00764*
Y00765*
X-00056Y00766*
Y00766*
Y00766*
Y00766*
X-00057Y00769*
X-00057Y00771*
X-00057Y00773*
X-00058Y00775*
X-00059Y00776*
X-00059Y00777*
X-00059Y00777*
X-00059Y00778*
X-00059Y00778*
X-0006Y00778*
X-0006Y00779*
X-00061Y00779*
X-00062Y0078*
X-00064Y00781*
X-00065Y00781*
X-00067Y00782*
X-00068Y00782*
X-00068Y00782*
X-00069*
X-0007Y00782*
X-00071Y00782*
X-00072Y00781*
X-00073Y00781*
X-00074Y00781*
X-00075Y00781*
X-00075Y00781*
X-00075Y00781*
X-00077Y0078*
X-00078Y00779*
X-00079Y00779*
X-0008Y00778*
X-00081Y00777*
X-00082Y00777*
X-00082Y00777*
X-00082Y00777*
X-00084*
Y00786*
X-00081Y00787*
X-0008Y00788*
X-00079Y00788*
X-00078Y00788*
X-00077Y00789*
X-00077Y00789*
X-00077Y00789*
X-00075Y00789*
X-00074Y00789*
X-00073Y0079*
X-00071Y0079*
X-0007*
X-0007Y0079*
X-00069*
X-00067Y0079*
G37*
G36*
X-00415Y0079D02*
X-00413Y0079D01*
X-00412Y00789*
X-0041Y00789*
X-00409Y00788*
X-00408Y00788*
X-00406Y00787*
X-00405Y00787*
X-00404Y00786*
X-00404Y00786*
X-00403Y00785*
X-00402Y00784*
X-00402Y00784*
X-00401Y00784*
X-00401Y00784*
X-00401Y00783*
X-004Y00782*
X-00399Y00781*
X-00398Y00779*
X-00398Y00778*
X-00397Y00777*
X-00397Y00775*
X-00396Y00772*
X-00396Y00771*
X-00395Y0077*
X-00395Y00769*
X-00395Y00768*
X-00395Y00767*
Y00767*
Y00766*
Y00766*
X-00395Y00764*
X-00395Y00762*
X-00396Y0076*
X-00396Y00759*
X-00397Y00757*
X-00397Y00756*
X-00398Y00755*
X-00398Y00753*
X-00399Y00752*
X-00399Y00751*
X-004Y00751*
X-004Y0075*
X-00401Y0075*
X-00401Y00749*
X-00401Y00749*
X-00401Y00749*
X-00403Y00748*
X-00404Y00747*
X-00405Y00746*
X-00407Y00745*
X-00408Y00745*
X-0041Y00744*
X-00412Y00744*
X-00414Y00743*
X-00415Y00743*
X-00416Y00743*
X-00417Y00743*
X-00418Y00743*
X-00419*
X-0042Y00743*
X-00422Y00743*
X-00423Y00743*
X-00425Y00743*
X-00426Y00744*
X-00426Y00744*
X-00427Y00744*
X-00427*
X-0043Y00745*
X-00431Y00745*
X-00433Y00746*
X-00434Y00746*
X-00435Y00746*
X-00435Y00747*
X-00435Y00747*
X-00435*
Y00756*
X-00434*
X-00433Y00755*
X-00432Y00755*
X-00431Y00754*
X-0043Y00754*
X-00429Y00753*
X-00428Y00753*
X-00427Y00753*
X-00427Y00753*
X-00427*
X-00426Y00752*
X-00424Y00752*
X-00423Y00751*
X-00421Y00751*
X-0042Y00751*
X-00419Y00751*
X-00418*
X-00416Y00751*
X-00415Y00751*
X-00415Y00751*
X-00414Y00751*
X-00413Y00752*
X-00413Y00752*
X-00413*
X-00412Y00752*
X-00411Y00753*
X-0041Y00753*
X-00409Y00754*
X-00409Y00754*
X-00408Y00754*
X-00408Y00755*
X-00408Y00755*
X-00407Y00755*
X-00407Y00756*
X-00406Y00757*
X-00406Y00758*
X-00405Y00759*
X-00405Y00759*
X-00405Y00759*
X-00405Y0076*
X-00405Y00761*
X-00404Y00762*
X-00404Y00763*
X-00404Y00764*
X-00404Y00764*
Y00765*
Y00765*
X-00436*
Y0077*
X-00436Y00771*
X-00436Y00773*
X-00436Y00775*
X-00435Y00776*
X-00435Y00777*
X-00435Y00779*
X-00434Y0078*
X-00434Y00781*
X-00433Y00782*
X-00433Y00782*
X-00432Y00783*
X-00432Y00784*
X-00431Y00784*
X-00431Y00784*
X-00431Y00785*
X-00431Y00785*
X-0043Y00786*
X-00429Y00786*
X-00428Y00787*
X-00427Y00788*
X-00426Y00788*
X-00424Y00789*
X-00422Y00789*
X-00421Y0079*
X-0042Y0079*
X-00419Y0079*
X-00418Y0079*
X-00418Y0079*
X-00417*
X-00415Y0079*
G37*
G36*
X00367Y00744D02*
X00358D01*
Y00806*
X00367*
Y00744*
G37*
G36*
X0033Y00806D02*
X00331Y00806D01*
X00334Y00806*
X00336Y00805*
X00337Y00804*
X00338Y00804*
X00339Y00803*
X00339Y00803*
X0034Y00803*
X0034Y00802*
X0034Y00802*
X0034Y00802*
X0034Y00802*
X00341Y00801*
X00342Y008*
X00343Y00798*
X00343Y00796*
X00344Y00794*
X00344Y00792*
X00344Y00791*
Y00791*
X00344Y0079*
Y0079*
Y0079*
Y00789*
Y00789*
X00349*
Y00781*
X00344*
Y00744*
X00335*
Y00781*
X00322*
Y00789*
X00336*
Y0079*
X00336Y00791*
X00335Y00793*
X00335Y00794*
X00335Y00795*
X00334Y00796*
X00334Y00796*
X00334Y00796*
X00334Y00796*
X00333Y00797*
X00332Y00798*
X00331Y00798*
X0033Y00798*
X00329Y00798*
X00328Y00798*
X00328*
X00326Y00798*
X00325Y00798*
X00325Y00798*
X00325*
X00324Y00798*
X00324*
X00323Y00798*
X00322Y00798*
X00322Y00797*
X00321Y00797*
X00321Y00797*
X0032*
Y00805*
X00321Y00806*
X00322Y00806*
X00323Y00806*
X00323Y00806*
X00324*
X00324Y00806*
X00324*
X00326Y00806*
X00326*
X00327Y00806*
X00329*
X0033Y00806*
G37*
G36*
X00232Y00744D02*
X00223D01*
Y00789*
X00232*
Y00744*
G37*
G36*
X00213Y00781D02*
X00188D01*
X00213Y0075*
Y00744*
X00177*
Y00752*
X00203*
X00177Y00783*
Y00789*
X00213*
Y00781*
G37*
G36*
X-00028Y00744D02*
X-00037D01*
Y00789*
X-00028*
Y00744*
G37*
G36*
X-0037Y0079D02*
X-00368Y0079D01*
X-00367Y00789*
X-00366Y00789*
X-00365Y00789*
X-00364Y00789*
X-00364Y00789*
X-00364Y00789*
X-00362Y00788*
X-00361Y00788*
X-0036Y00787*
X-0036Y00787*
X-00359Y00786*
X-00358Y00786*
X-00358Y00786*
X-00358Y00786*
X-00357Y00785*
X-00356Y00784*
X-00356Y00783*
X-00355Y00783*
X-00355Y00782*
X-00355Y00782*
X-00354Y00781*
X-00354Y00781*
X-00354Y0078*
X-00354Y00779*
X-00354Y00778*
X-00353Y00778*
X-00353Y00777*
X-00353Y00776*
Y00776*
Y00776*
X-00353Y00774*
X-00354Y00773*
X-00354Y00771*
X-00355Y0077*
X-00355Y00769*
X-00355Y00769*
X-00356Y00768*
X-00356Y00768*
X-00357Y00767*
X-00358Y00766*
X-0036Y00765*
X-00361Y00765*
X-00362Y00764*
X-00363Y00764*
X-00364Y00764*
X-00364Y00764*
X-00364Y00763*
X-00364*
X-00366Y00763*
X-00367Y00763*
X-00367Y00763*
X-00368Y00763*
X-00368Y00763*
X-00369Y00762*
X-00369*
X-0037Y00762*
X-0037Y00762*
X-00371Y00762*
X-00372Y00762*
X-00372Y00762*
X-00373Y00762*
X-00373Y00762*
X-00373*
X-00374Y00761*
X-00375Y00761*
X-00376Y00761*
X-00377Y0076*
X-00377Y0076*
X-00378Y0076*
X-00378Y0076*
X-00378Y0076*
X-00378Y00759*
X-00379Y00759*
X-00379Y00758*
X-00379Y00757*
X-00379Y00757*
Y00756*
Y00756*
X-00379Y00755*
X-00379Y00754*
X-00378Y00754*
X-00378Y00753*
X-00378Y00753*
X-00377Y00752*
X-00377Y00752*
X-00377Y00752*
X-00376Y00751*
X-00375Y00751*
X-00374Y00751*
X-00372Y00751*
X-00371Y00751*
X-00371Y00751*
X-0037*
X-00369Y00751*
X-00367Y00751*
X-00366Y00751*
X-00365Y00751*
X-00364Y00752*
X-00363Y00752*
X-00362Y00752*
X-00362Y00752*
X-00362*
X-00361Y00753*
X-00359Y00753*
X-00358Y00754*
X-00357Y00755*
X-00356Y00755*
X-00355Y00756*
X-00355Y00756*
X-00355Y00756*
X-00353*
Y00747*
X-00356Y00746*
X-00357Y00745*
X-00358Y00745*
X-00359Y00744*
X-0036Y00744*
X-0036Y00744*
X-0036Y00744*
X-00362Y00744*
X-00363Y00743*
X-00365Y00743*
X-00366Y00743*
X-00368Y00743*
X-00369Y00743*
X-00369*
X-00371Y00743*
X-00372Y00743*
X-00374Y00743*
X-00375Y00744*
X-00376Y00744*
X-00378Y00744*
X-00379Y00745*
X-0038Y00745*
X-0038Y00745*
X-00381Y00746*
X-00382Y00746*
X-00382Y00746*
X-00383Y00746*
X-00383Y00747*
X-00383Y00747*
X-00383*
X-00384Y00748*
X-00385Y00748*
X-00386Y00749*
X-00386Y0075*
X-00387Y00751*
X-00387Y00752*
X-00388Y00754*
X-00388Y00755*
X-00388Y00756*
X-00388Y00756*
X-00388Y00757*
Y00757*
Y00757*
Y00757*
X-00388Y00759*
X-00388Y00761*
X-00388Y00762*
X-00387Y00763*
X-00387Y00764*
X-00386Y00764*
X-00386Y00764*
X-00386Y00764*
X-00384Y00766*
X-00383Y00767*
X-00382Y00768*
X-0038Y00768*
X-00379Y00769*
X-00378Y00769*
X-00378Y00769*
X-00378Y00769*
X-00377Y0077*
X-00377*
X-00376Y0077*
X-00375Y0077*
X-00374Y0077*
X-00374Y0077*
X-00373Y0077*
X-00373*
X-00372Y00771*
X-00371Y00771*
X-0037Y00771*
X-00369Y00771*
X-00369Y00771*
X-00369Y00771*
X-00369*
X-00367Y00772*
X-00367Y00772*
X-00366Y00772*
X-00365Y00772*
X-00365Y00773*
X-00364Y00773*
X-00364Y00773*
X-00364*
X-00364Y00774*
X-00363Y00774*
X-00363Y00775*
X-00363Y00775*
X-00363Y00776*
X-00362Y00776*
Y00777*
Y00777*
X-00363Y00778*
X-00363Y00779*
X-00363Y00779*
X-00364Y0078*
X-00364Y0078*
X-00364Y0078*
X-00365Y00781*
X-00365Y00781*
X-00366Y00781*
X-00367Y00782*
X-00368Y00782*
X-00369Y00782*
X-0037Y00782*
X-0037Y00782*
X-00371*
X-00372Y00782*
X-00374Y00782*
X-00375Y00782*
X-00376Y00781*
X-00377Y00781*
X-00378Y00781*
X-00378Y00781*
X-00378Y00781*
X-0038Y0078*
X-00381Y0078*
X-00382Y00779*
X-00383Y00778*
X-00384Y00778*
X-00385Y00778*
X-00385Y00777*
X-00385Y00777*
X-00387*
Y00786*
X-00384Y00787*
X-00383Y00788*
X-00382Y00788*
X-00381Y00788*
X-0038Y00789*
X-0038Y00789*
X-00379*
X-00378Y00789*
X-00376Y00789*
X-00375Y0079*
X-00374Y0079*
X-00373*
X-00372Y0079*
X-00371*
X-0037Y0079*
G37*
G36*
X00268Y00804D02*
X0027Y00804D01*
X00272Y00804*
X00273Y00804*
X00275Y00803*
X00276Y00803*
X00277Y00802*
X00278Y00802*
X00279Y00801*
X0028Y00801*
X00281Y00801*
X00281Y008*
X00282Y008*
X00282Y008*
X00283Y00799*
X00283Y00799*
X00284Y00798*
X00285Y00797*
X00286Y00796*
X00286Y00795*
X00287Y00794*
X00287Y00793*
X00288Y00792*
X00288Y00791*
X00289Y0079*
X00289Y00789*
X00289Y00788*
X00289Y00788*
Y00787*
Y00787*
Y00787*
X00289Y00785*
X00288Y00782*
X00288Y00781*
X00287Y00779*
X00286Y00778*
X00286Y00777*
X00286Y00777*
X00285Y00776*
X00285Y00776*
Y00776*
X00284Y00775*
X00282Y00773*
X0028Y00772*
X00278Y00772*
X00276Y00771*
X00276Y00771*
X00275Y00771*
X00274Y00771*
X00274Y0077*
X00274Y0077*
X00274*
X00272Y0077*
X00271Y0077*
X00269Y0077*
X00268Y00769*
X00267Y00769*
X00267Y00769*
X00266Y00769*
X00266*
X00265Y00769*
X00264Y00769*
X00263Y00768*
X00262Y00768*
X00261Y00768*
X0026Y00768*
X0026Y00768*
X0026*
X00259Y00767*
X00258Y00767*
X00257Y00767*
X00256Y00766*
X00255Y00766*
X00255Y00765*
X00255Y00765*
X00255Y00765*
X00254Y00764*
X00254Y00764*
X00253Y00763*
X00253Y00762*
X00253Y00761*
X00253Y00761*
Y0076*
Y0076*
X00253Y00759*
X00253Y00757*
X00254Y00756*
X00255Y00755*
X00255Y00755*
X00256Y00754*
X00256Y00754*
X00257Y00754*
X00258Y00753*
X0026Y00752*
X00262Y00752*
X00263Y00751*
X00265Y00751*
X00266*
X00266Y00751*
X00267*
X00269Y00751*
X00271Y00751*
X00273Y00752*
X00274Y00752*
X00276Y00752*
X00276Y00753*
X00277Y00753*
X00277Y00753*
X00277Y00753*
X00278Y00753*
X00278*
X0028Y00754*
X00282Y00755*
X00283Y00756*
X00285Y00757*
X00286Y00757*
X00287Y00758*
X00287Y00758*
X00288Y00758*
X00288Y00759*
X00289*
Y00748*
X00287Y00747*
X00285Y00746*
X00284Y00745*
X00282Y00745*
X00281Y00744*
X0028Y00744*
X0028Y00744*
X00279Y00744*
X00279*
X00279Y00744*
X00279*
X00277Y00744*
X00275Y00743*
X00273Y00743*
X00271Y00743*
X0027Y00743*
X00269Y00743*
X00267*
X00265Y00743*
X00263Y00743*
X00261Y00743*
X0026Y00744*
X00259Y00744*
X00258Y00744*
X00257Y00744*
X00257Y00744*
X00257*
X00256Y00745*
X00254Y00745*
X00253Y00746*
X00252Y00747*
X00251Y00747*
X0025Y00748*
X0025Y00748*
X0025Y00748*
X00249Y00749*
X00248Y0075*
X00247Y00751*
X00246Y00752*
X00246Y00753*
X00245Y00754*
X00245Y00754*
X00245Y00754*
X00244Y00755*
X00244Y00757*
X00244Y00758*
X00243Y00759*
X00243Y0076*
X00243Y00761*
Y00761*
Y00761*
X00243Y00763*
X00244Y00765*
X00244Y00767*
X00245Y00769*
X00246Y0077*
X00246Y00771*
X00247Y00771*
X00247Y00771*
X00248Y00773*
X0025Y00774*
X00251Y00775*
X00253Y00775*
X00254Y00776*
X00255Y00776*
X00255Y00776*
X00256Y00776*
X00256Y00776*
X00256Y00777*
X00257*
X00258Y00777*
X00259Y00777*
X00261Y00778*
X00262Y00778*
X00263Y00778*
X00264Y00778*
X00265Y00778*
X00265*
X00266Y00779*
X00268Y00779*
X00269Y00779*
X0027Y00779*
X00271Y00779*
X00271Y00779*
X00271Y0078*
X00271*
X00273Y0078*
X00274Y0078*
X00275Y00781*
X00276Y00781*
X00277Y00782*
X00277Y00782*
X00278Y00782*
X00278Y00782*
X00278Y00783*
X00279Y00784*
X00279Y00785*
X00279Y00786*
X00279Y00786*
X00279Y00787*
Y00787*
Y00788*
X00279Y00789*
X00279Y0079*
X00278Y00791*
X00278Y00792*
X00277Y00793*
X00277Y00793*
X00276Y00794*
X00276Y00794*
X00275Y00794*
X00273Y00795*
X00272Y00796*
X0027Y00796*
X00269Y00796*
X00268Y00796*
X00267*
X00265Y00796*
X00263Y00796*
X00261Y00796*
X00259Y00795*
X00258Y00795*
X00257Y00795*
X00257Y00794*
X00256Y00794*
X00256Y00794*
X00256Y00794*
X00256*
X00254Y00793*
X00252Y00793*
X00251Y00792*
X0025Y00791*
X00249Y00791*
X00248Y0079*
X00247Y0079*
X00247Y0079*
X00246*
Y008*
X00249Y00801*
X00251Y00802*
X00252Y00802*
X00253Y00803*
X00254Y00803*
X00255Y00803*
X00255*
X00255Y00803*
X00255*
X00257Y00803*
X00259Y00804*
X00261Y00804*
X00263Y00804*
X00264Y00804*
X00265Y00804*
X00267*
X00268Y00804*
G37*
G36*
X00091Y00787D02*
X00092Y00788D01*
X00092Y00788*
X00094Y00789*
X00094Y00789*
X00095Y00789*
X00095Y00789*
X00095*
X00098Y0079*
X00099Y0079*
X001Y0079*
X001Y0079*
X00102*
X00103Y0079*
X00104Y0079*
X00106Y00789*
X00107Y00789*
X00108Y00789*
X00109Y00789*
X00109Y00788*
X00109Y00788*
X00111Y00788*
X00112Y00787*
X00113Y00786*
X00114Y00785*
X00115Y00785*
X00115Y00784*
X00116Y00784*
X00116Y00784*
X00117Y00782*
X00118Y00781*
X00118Y0078*
X00119Y00779*
X00119Y00778*
X0012Y00777*
X0012Y00776*
X0012Y00776*
Y00776*
X00121Y00774*
X00121Y00773*
X00121Y00771*
X00121Y00769*
X00122Y00768*
Y00768*
X00122Y00767*
Y00767*
Y00766*
Y00766*
Y00766*
X00122Y00764*
X00121Y00762*
X00121Y0076*
X00121Y00759*
X00121Y00757*
X0012Y00756*
X0012Y00755*
X00119Y00753*
X00119Y00752*
X00118Y00751*
X00118Y00751*
X00118Y0075*
X00117Y0075*
X00117Y00749*
X00117Y00749*
X00117Y00749*
X00116Y00748*
X00115Y00747*
X00114Y00746*
X00113Y00745*
X00112Y00745*
X00111Y00744*
X00109Y00744*
X00107Y00743*
X00106Y00743*
X00105Y00743*
X00105Y00743*
X00104*
X00102Y00743*
X00101Y00743*
X001Y00743*
X00099Y00744*
X00098Y00744*
X00097Y00744*
X00096Y00744*
X00096Y00744*
X00095Y00745*
X00094Y00746*
X00093Y00746*
X00092Y00747*
X00092Y00748*
X00091Y00748*
X00091Y00748*
X00091Y00748*
Y00744*
X00082*
Y00806*
X00091*
Y00787*
G37*
G36*
X-00143Y0079D02*
X-00141Y0079D01*
X-0014Y00789*
X-00138Y00789*
X-00137Y00789*
X-00136Y00788*
X-00135Y00787*
X-00134Y00787*
X-00133Y00786*
X-00132Y00786*
X-00131Y00785*
X-00131Y00785*
X-0013Y00784*
X-0013Y00784*
X-0013Y00784*
X-0013Y00784*
X-00129Y00782*
X-00128Y00781*
X-00127Y0078*
X-00126Y00778*
X-00126Y00777*
X-00125Y00775*
X-00125Y00773*
X-00124Y00771*
X-00124Y0077*
X-00124Y00769*
X-00124Y00768*
X-00124Y00767*
Y00767*
Y00766*
Y00766*
X-00124Y00764*
X-00124Y00763*
X-00125Y00761*
X-00125Y00759*
X-00125Y00758*
X-00126Y00756*
X-00126Y00755*
X-00127Y00754*
X-00127Y00753*
X-00128Y00752*
X-00128Y00751*
X-00129Y0075*
X-00129Y0075*
X-00129Y00749*
X-00129Y00749*
X-0013Y00749*
X-00131Y00748*
X-00132Y00747*
X-00133Y00746*
X-00134Y00745*
X-00136Y00745*
X-00137Y00744*
X-00138Y00744*
X-00139Y00744*
X-0014Y00743*
X-00142Y00743*
X-00142Y00743*
X-00143Y00743*
X-00144Y00743*
X-00145*
X-00147Y00743*
X-00148Y00743*
X-0015Y00743*
X-00151Y00744*
X-00153Y00744*
X-00154Y00745*
X-00155Y00745*
X-00156Y00746*
X-00157Y00747*
X-00158Y00747*
X-00158Y00748*
X-00159Y00748*
X-00159Y00749*
X-0016Y00749*
X-0016Y00749*
X-0016Y00749*
X-00161Y0075*
X-00162Y00752*
X-00163Y00753*
X-00163Y00755*
X-00164Y00756*
X-00164Y00757*
X-00165Y0076*
X-00165Y00761*
X-00165Y00763*
X-00165Y00764*
X-00166Y00765*
X-00166Y00765*
Y00766*
Y00766*
Y00766*
X-00166Y00768*
X-00165Y0077*
X-00165Y00772*
X-00165Y00774*
X-00164Y00775*
X-00164Y00777*
X-00163Y00778*
X-00163Y00779*
X-00162Y0078*
X-00162Y00781*
X-00161Y00782*
X-00161Y00782*
X-0016Y00783*
X-0016Y00783*
X-0016Y00783*
X-0016Y00784*
X-00159Y00785*
X-00158Y00786*
X-00156Y00787*
X-00155Y00787*
X-00154Y00788*
X-00153Y00788*
X-00151Y00789*
X-0015Y00789*
X-00149Y00789*
X-00148Y0079*
X-00147Y0079*
X-00146Y0079*
X-00146Y0079*
X-00145*
X-00143Y0079*
G37*
G36*
X-00271D02*
X-0027Y0079D01*
X-00268Y00789*
X-00267Y00789*
X-00265Y00789*
X-00264Y00788*
X-00263Y00787*
X-00262Y00787*
X-00261Y00786*
X-0026Y00786*
X-00259Y00785*
X-00259Y00785*
X-00258Y00784*
X-00258Y00784*
X-00258Y00784*
X-00258Y00784*
X-00257Y00782*
X-00256Y00781*
X-00255Y0078*
X-00255Y00778*
X-00254Y00777*
X-00254Y00775*
X-00253Y00773*
X-00253Y00771*
X-00252Y0077*
X-00252Y00769*
X-00252Y00768*
X-00252Y00767*
Y00767*
Y00766*
Y00766*
X-00252Y00764*
X-00252Y00763*
X-00253Y00761*
X-00253Y00759*
X-00253Y00758*
X-00254Y00756*
X-00254Y00755*
X-00255Y00754*
X-00255Y00753*
X-00256Y00752*
X-00256Y00751*
X-00257Y0075*
X-00257Y0075*
X-00257Y00749*
X-00258Y00749*
X-00258Y00749*
X-00259Y00748*
X-0026Y00747*
X-00261Y00746*
X-00263Y00745*
X-00264Y00745*
X-00265Y00744*
X-00266Y00744*
X-00268Y00744*
X-00269Y00743*
X-0027Y00743*
X-00271Y00743*
X-00271Y00743*
X-00272Y00743*
X-00273*
X-00275Y00743*
X-00276Y00743*
X-00278Y00743*
X-00279Y00744*
X-00281Y00744*
X-00282Y00745*
X-00283Y00745*
X-00284Y00746*
X-00285Y00747*
X-00286Y00747*
X-00286Y00748*
X-00287Y00748*
X-00288Y00749*
X-00288Y00749*
X-00288Y00749*
X-00288Y00749*
X-00289Y0075*
X-0029Y00752*
X-00291Y00753*
X-00291Y00755*
X-00292Y00756*
X-00292Y00757*
X-00293Y0076*
X-00293Y00761*
X-00294Y00763*
X-00294Y00764*
X-00294Y00765*
X-00294Y00765*
Y00766*
Y00766*
Y00766*
X-00294Y00768*
X-00294Y0077*
X-00293Y00772*
X-00293Y00774*
X-00292Y00775*
X-00292Y00777*
X-00291Y00778*
X-00291Y00779*
X-0029Y0078*
X-0029Y00781*
X-00289Y00782*
X-00289Y00782*
X-00289Y00783*
X-00288Y00783*
X-00288Y00783*
X-00288Y00784*
X-00287Y00785*
X-00286Y00786*
X-00285Y00787*
X-00283Y00787*
X-00282Y00788*
X-00281Y00788*
X-0028Y00789*
X-00278Y00789*
X-00277Y00789*
X-00276Y0079*
X-00275Y0079*
X-00275Y0079*
X-00274Y0079*
X-00273*
X-00271Y0079*
G37*
G36*
X-0016Y00886D02*
X-00158Y00886D01*
X-00157Y00886*
X-00156Y00886*
X-00154Y00886*
X-00153Y00885*
X-00153Y00885*
X-00153*
X-00153Y00885*
X-00153*
X-00151Y00885*
X-00149Y00884*
X-00148Y00884*
X-00147Y00883*
X-00146Y00883*
X-00145Y00883*
X-00145Y00883*
X-00145Y00882*
Y00873*
X-00146*
X-00148Y00874*
X-00149Y00875*
X-0015Y00875*
X-00152Y00876*
X-00153Y00876*
X-00153Y00877*
X-00154Y00877*
X-00154Y00877*
X-00156Y00877*
X-00157Y00878*
X-00158Y00878*
X-00159Y00878*
X-0016Y00878*
X-00161Y00878*
X-00162*
X-00163Y00878*
X-00165Y00878*
X-00166Y00877*
X-00167Y00877*
X-00168Y00876*
X-00169Y00876*
X-00169Y00876*
X-00169Y00876*
X-0017Y00875*
X-00171Y00874*
X-00171Y00873*
X-00172Y00872*
X-00172Y00871*
X-00172Y0087*
Y00869*
Y00869*
Y00869*
X-00172Y00868*
X-00172Y00866*
X-00171Y00864*
X-00171Y00863*
X-0017Y00862*
X-0017Y00861*
X-00169Y00861*
X-00169Y0086*
Y0086*
X-00169Y0086*
X-00168Y00859*
X-00167Y00857*
X-00165Y00855*
X-00163Y00853*
X-00162Y00852*
X-00161Y00851*
X-0016Y0085*
X-0016Y0085*
X-0016Y00849*
X-00159Y00849*
X-00159Y00849*
X-00157Y00847*
X-00155Y00845*
X-00154Y00844*
X-00153Y00844*
X-00152Y00843*
X-00152Y00842*
X-00152Y00842*
X-00152*
X-00149Y0084*
X-00147Y00838*
X-00146Y00837*
X-00145Y00836*
X-00144Y00836*
X-00143Y00835*
X-00143Y00835*
X-00143Y00835*
Y00826*
X-00184*
Y00834*
X-00153*
X-00154Y00835*
X-00156Y00836*
X-00157Y00837*
X-00158Y00838*
X-00159Y00838*
X-0016Y00839*
X-00161Y0084*
X-00161Y0084*
X-00161*
X-00162Y00841*
X-00164Y00843*
X-00166Y00844*
X-00167Y00845*
X-00168Y00846*
X-00169Y00847*
X-00169Y00847*
X-00169Y00848*
X-00171Y00849*
X-00172Y0085*
X-00172Y00851*
X-00173Y00851*
X-00174Y00852*
X-00174Y00853*
X-00174Y00853*
X-00174Y00853*
X-00176Y00855*
X-00176Y00855*
X-00177Y00856*
X-00177Y00857*
X-00178Y00857*
X-00178Y00858*
X-00178Y00858*
X-00179Y0086*
X-0018Y00861*
X-0018Y00861*
X-0018Y00862*
X-0018Y00863*
X-00181Y00863*
Y00863*
X-00181Y00866*
X-00181Y00867*
X-00181Y00868*
X-00181Y00868*
Y00869*
Y00869*
Y0087*
X-00181Y00871*
X-00181Y00872*
X-00181Y00874*
X-00181Y00875*
X-0018Y00877*
X-00179Y00879*
X-00178Y00879*
X-00178Y0088*
X-00177Y0088*
X-00177Y00881*
X-00177Y00881*
X-00176Y00882*
X-00176Y00882*
X-00176Y00882*
X-00175Y00883*
X-00174Y00883*
X-00173Y00884*
X-00172Y00884*
X-00169Y00885*
X-00167Y00886*
X-00166Y00886*
X-00165Y00886*
X-00164Y00886*
X-00163*
X-00163Y00886*
X-00162*
X-0016Y00886*
G37*
G36*
X00184Y00826D02*
X00175D01*
Y00854*
X00147*
Y00826*
X00138*
Y00885*
X00147*
Y00862*
X00175*
Y00885*
X00184*
Y00826*
G37*
G36*
X00068D02*
X00059D01*
Y00876*
X00044Y00842*
X00038*
X00024Y00876*
Y00826*
X00014*
Y00885*
X00026*
X00041Y00853*
X00056Y00885*
X00068*
Y00826*
G37*
G36*
X0D02*
X-00009D01*
Y00876*
X-00023Y00842*
X-00029*
X-00044Y00876*
Y00826*
X-00053*
Y00885*
X-00041*
X-00027Y00853*
X-00012Y00885*
X0*
Y00826*
G37*
G36*
X-00109D02*
X-00117D01*
X-00135Y00871*
X-00126*
X-00114Y00836*
X-00101Y00871*
X-00091*
X-00109Y00826*
G37*
G36*
X00104Y00886D02*
X00106Y00886D01*
X00108Y00886*
X00109Y00885*
X00111Y00885*
X00112Y00885*
X00113Y00884*
X00114Y00884*
X00115Y00883*
X00116Y00883*
X00117Y00882*
X00118Y00882*
X00118Y00882*
X00119Y00881*
X00119Y00881*
X00119Y00881*
X0012Y0088*
X00121Y00879*
X00122Y00878*
X00122Y00877*
X00123Y00876*
X00124Y00875*
X00124Y00874*
X00124Y00873*
X00125Y00871*
X00125Y00871*
X00125Y0087*
X00125Y0087*
Y00869*
Y00869*
Y00869*
X00125Y00866*
X00125Y00864*
X00124Y00862*
X00123Y00861*
X00123Y0086*
X00122Y00859*
X00122Y00858*
X00122Y00858*
X00121Y00858*
Y00858*
X0012Y00857*
X00118Y00855*
X00116Y00854*
X00114Y00854*
X00112Y00853*
X00112Y00853*
X00111Y00853*
X00111Y00852*
X0011Y00852*
X0011Y00852*
X0011*
X00108Y00852*
X00107Y00852*
X00106Y00851*
X00104Y00851*
X00104Y00851*
X00103Y00851*
X00102Y00851*
X00102*
X00101Y00851*
X001Y00851*
X00099Y0085*
X00098Y0085*
X00097Y0085*
X00097Y0085*
X00096Y0085*
X00096*
X00095Y00849*
X00094Y00849*
X00093Y00848*
X00092Y00848*
X00092Y00848*
X00091Y00847*
X00091Y00847*
X00091Y00847*
X0009Y00846*
X0009Y00846*
X0009Y00845*
X00089Y00844*
X00089Y00843*
X00089Y00843*
Y00842*
Y00842*
X00089Y00841*
X0009Y00839*
X0009Y00838*
X00091Y00837*
X00092Y00836*
X00092Y00836*
X00093Y00835*
X00093Y00835*
X00094Y00835*
X00096Y00834*
X00098Y00834*
X00099Y00833*
X00101Y00833*
X00102*
X00102Y00833*
X00103*
X00105Y00833*
X00107Y00833*
X00109Y00834*
X00111Y00834*
X00112Y00834*
X00112Y00834*
X00113Y00835*
X00113Y00835*
X00114Y00835*
X00114Y00835*
X00114*
X00116Y00836*
X00118Y00837*
X0012Y00837*
X00121Y00838*
X00122Y00839*
X00123Y0084*
X00123Y0084*
X00124Y0084*
X00124Y00841*
X00126*
Y0083*
X00123Y00829*
X00122Y00828*
X0012Y00827*
X00118Y00827*
X00117Y00826*
X00116Y00826*
X00116Y00826*
X00115Y00826*
X00115*
X00115Y00826*
X00115*
X00113Y00825*
X00111Y00825*
X00109Y00825*
X00107Y00825*
X00106Y00825*
X00105Y00825*
X00103*
X00101Y00825*
X00099Y00825*
X00098Y00825*
X00096Y00825*
X00095Y00826*
X00094Y00826*
X00093Y00826*
X00093Y00826*
X00093*
X00092Y00827*
X0009Y00827*
X00089Y00828*
X00088Y00829*
X00087Y00829*
X00086Y0083*
X00086Y0083*
X00086Y0083*
X00085Y00831*
X00084Y00832*
X00083Y00833*
X00082Y00834*
X00082Y00835*
X00081Y00835*
X00081Y00836*
X00081Y00836*
X00081Y00837*
X0008Y00839*
X0008Y0084*
X0008Y00841*
X0008Y00842*
X00079Y00842*
Y00843*
Y00843*
X0008Y00845*
X0008Y00847*
X00081Y00849*
X00081Y00851*
X00082Y00852*
X00082Y00853*
X00083Y00853*
X00083Y00853*
X00084Y00854*
X00086Y00856*
X00088Y00856*
X00089Y00857*
X00091Y00858*
X00091Y00858*
X00092Y00858*
X00092Y00858*
X00092Y00858*
X00093Y00858*
X00093*
X00094Y00859*
X00095Y00859*
X00097Y00859*
X00098Y0086*
X00099Y0086*
X001Y0086*
X00101Y0086*
X00101*
X00102Y0086*
X00104Y00861*
X00105Y00861*
X00106Y00861*
X00107Y00861*
X00107Y00861*
X00108Y00861*
X00108*
X00109Y00862*
X00111Y00862*
X00112Y00863*
X00113Y00863*
X00113Y00864*
X00114Y00864*
X00114Y00864*
X00114Y00864*
X00114Y00865*
X00115Y00866*
X00115Y00867*
X00115Y00868*
X00115Y00868*
X00116Y00869*
Y00869*
Y0087*
X00115Y00871*
X00115Y00872*
X00114Y00873*
X00114Y00874*
X00113Y00875*
X00113Y00875*
X00112Y00875*
X00112Y00876*
X00111Y00876*
X00109Y00877*
X00108Y00877*
X00106Y00878*
X00105Y00878*
X00104Y00878*
X00103*
X00101Y00878*
X00099Y00878*
X00097Y00877*
X00095Y00877*
X00094Y00877*
X00093Y00877*
X00093Y00876*
X00093Y00876*
X00092Y00876*
X00092Y00876*
X00092*
X0009Y00875*
X00089Y00875*
X00087Y00874*
X00086Y00873*
X00085Y00872*
X00084Y00872*
X00084Y00872*
X00083Y00871*
X00082*
Y00882*
X00085Y00883*
X00087Y00884*
X00088Y00884*
X0009Y00884*
X00091Y00885*
X00091Y00885*
X00091*
X00091Y00885*
X00091*
X00093Y00885*
X00095Y00886*
X00097Y00886*
X00099Y00886*
X001Y00886*
X00101Y00886*
X00103*
X00104Y00886*
G37*
%LNhsmm-2*%
%LPC*%
G36*
X00054Y0063D02*
X00053D01*
X00052Y0063*
X00051Y0063*
X0005Y0063*
X0005Y0063*
X00049Y00629*
X00049Y00629*
X00049*
X00047Y00629*
X00046Y00629*
X00045Y00628*
X00045Y00628*
X00044Y00628*
X00044Y00628*
X00044Y00628*
Y00605*
X00046Y00604*
X00047Y00603*
X00047Y00603*
X00048Y00602*
X00049Y00602*
X00049Y00602*
X00049Y00602*
X0005Y00602*
X00051Y00601*
X00052Y00601*
X00053Y00601*
X00054Y00601*
X00055Y00601*
X00055*
X00057Y00601*
X00059Y00601*
X0006Y00602*
X00061Y00603*
X00062Y00603*
X00063Y00604*
X00063Y00604*
X00063Y00604*
X00064Y00606*
X00065Y00607*
X00065Y00609*
X00065Y00611*
X00065Y00613*
Y00613*
X00066Y00614*
Y00614*
Y00615*
Y00615*
Y00615*
X00065Y00618*
X00065Y0062*
X00065Y00622*
X00064Y00623*
X00063Y00625*
X00063Y00625*
X00062Y00626*
X00062Y00626*
X00061Y00627*
X0006Y00628*
X00058Y00629*
X00057Y0063*
X00055Y0063*
X00054Y0063*
X00054Y0063*
G37*
G36*
X-00177Y0063D02*
X-00177D01*
X-00179Y00629*
X-00181Y00629*
X-00182Y00628*
X-00183Y00628*
X-00184Y00627*
X-00185Y00626*
X-00185Y00626*
X-00185Y00626*
X-00186Y00624*
X-00186Y00623*
X-00187Y00621*
X-00187Y00619*
X-00187Y00617*
Y00617*
X-00187Y00616*
Y00615*
Y00615*
Y00615*
Y00615*
Y00613*
X-00187Y00612*
X-00187Y0061*
X-00187Y00609*
X-00187Y00608*
X-00186Y00607*
X-00186Y00606*
X-00186Y00606*
X-00186Y00605*
X-00185Y00604*
X-00185Y00604*
X-00185Y00603*
X-00184Y00603*
X-00184Y00603*
X-00184Y00603*
X-00183Y00601*
X-00181Y006*
X-0018Y006*
X-00179Y00599*
X-00177Y00599*
X-00176Y00599*
X-00176Y00599*
X-00175*
X-00173Y00599*
X-00173Y00599*
X-00172Y00599*
X-00171*
X-00171Y00599*
X-00171Y00599*
X-0017*
X-00169Y006*
X-00168Y006*
X-00167Y006*
X-00167Y00601*
X-00166Y00601*
X-00166Y00601*
X-00166Y00601*
Y00625*
X-00168Y00626*
X-00169Y00627*
X-00169Y00627*
X-0017Y00628*
X-00171Y00628*
X-00171Y00628*
X-00171Y00628*
X-00172Y00629*
X-00174Y00629*
X-00175Y00629*
X-00176Y00629*
X-00176Y0063*
X-00177Y0063*
G37*
G36*
X00167Y00631D02*
X00166D01*
X00164Y0063*
X00163Y0063*
X00161Y0063*
X0016Y00629*
X00159Y00629*
X00159Y00628*
X00158Y00628*
X00158Y00628*
X00157Y00626*
X00157Y00625*
X00156Y00624*
X00156Y00623*
X00156Y00622*
X00156Y00621*
X00156Y0062*
Y0062*
Y0062*
X00179*
X00178Y00622*
X00178Y00623*
X00177Y00624*
X00177Y00625*
X00176Y00626*
X00176Y00627*
X00175Y00627*
X00175Y00627*
X00174Y00628*
X00172Y00629*
X00171Y0063*
X00169Y0063*
X00168Y0063*
X00167Y0063*
X00167Y00631*
G37*
G36*
X-00047D02*
X-00048D01*
X-0005Y0063*
X-00051Y0063*
X-00053Y0063*
X-00054Y00629*
X-00055Y00629*
X-00055Y00628*
X-00056Y00628*
X-00056Y00628*
X-00057Y00626*
X-00057Y00625*
X-00058Y00624*
X-00058Y00623*
X-00058Y00622*
X-00058Y00621*
X-00058Y0062*
Y0062*
Y0062*
X-00035*
X-00036Y00622*
X-00036Y00623*
X-00037Y00624*
X-00037Y00625*
X-00038Y00626*
X-00038Y00627*
X-00039Y00627*
X-00039Y00627*
X-0004Y00628*
X-00042Y00629*
X-00043Y0063*
X-00044Y0063*
X-00046Y0063*
X-00047Y0063*
X-00047Y00631*
G37*
G36*
X00237Y00643D02*
X00229D01*
X00227Y00643*
X00226Y00643*
X00224Y00643*
X00223Y00643*
X00222Y00642*
X00222Y00642*
X00222*
X0022Y00642*
X00219Y00642*
X00218Y00641*
X00217Y00641*
X00216Y0064*
X00215Y0064*
X00215Y0064*
X00215Y0064*
X00213Y00639*
X00212Y00638*
X00211Y00636*
X0021Y00635*
X00209Y00634*
X00208Y00633*
X00208Y00633*
X00208Y00633*
Y00633*
X00207Y00631*
X00207Y00629*
X00206Y00627*
X00206Y00626*
X00206Y00624*
Y00623*
X00206Y00623*
Y00622*
Y00622*
Y00622*
Y00622*
X00206Y00619*
X00206Y00617*
X00206Y00615*
X00207Y00614*
X00207Y00613*
X00207Y00612*
X00208Y00611*
X00208Y00611*
X00208Y00611*
Y00611*
X00209Y00609*
X0021Y00608*
X00211Y00607*
X00212Y00606*
X00213Y00605*
X00213Y00604*
X00214Y00604*
X00214Y00604*
X00214*
X00215Y00603*
X00217Y00602*
X00218Y00602*
X00219Y00602*
X0022Y00601*
X00221Y00601*
X00221Y00601*
X00221*
X00223Y00601*
X00225Y006*
X00226Y006*
X00228Y006*
X00229Y006*
X00237*
Y00643*
G37*
G36*
X-00095Y0063D02*
X-00096D01*
X-00098Y0063*
X-00099Y0063*
X-00099Y0063*
X-001Y00629*
X-001Y00629*
X-00101Y00629*
X-00101*
X-00102Y00629*
X-00103Y00629*
X-00104Y00628*
X-00105Y00628*
X-00105Y00628*
X-00105Y00628*
X-00105Y00628*
Y00604*
X-00104Y00602*
X-00103Y00602*
X-00102Y00601*
X-00101Y00601*
X-001Y00601*
X-001Y00601*
X-001Y00601*
X-00099Y006*
X-00098Y006*
X-00097Y006*
X-00096Y00599*
X-00095Y00599*
X-00095Y00599*
X-00094*
X-00092Y00599*
X-00091Y006*
X-00089Y006*
X-00088Y00601*
X-00087Y00602*
X-00087Y00602*
X-00086Y00603*
X-00086Y00603*
X-00085Y00605*
X-00085Y00606*
X-00084Y00608*
X-00084Y0061*
X-00084Y00612*
Y00612*
X-00084Y00613*
Y00614*
Y00614*
Y00614*
Y00614*
X-00084Y00617*
X-00084Y00619*
X-00085Y00621*
X-00085Y00623*
X-00086Y00624*
X-00086Y00625*
X-00087Y00625*
X-00087Y00625*
X-00087Y00626*
X-00087Y00626*
X-00088Y00627*
X-00088Y00627*
X-0009Y00628*
X-00091Y00629*
X-00093Y00629*
X-00094Y0063*
X-00095Y0063*
X-00095Y0063*
G37*
G36*
X00017Y00524D02*
X00017D01*
Y00514*
X00019Y00512*
X0002Y00512*
X00021Y00511*
X00021Y00511*
X00022Y00511*
X00022Y0051*
X00022Y0051*
X00024Y0051*
X00025Y00509*
X00026Y00509*
X00027Y00509*
X00028Y00509*
X00028Y00509*
X00029*
X00031Y00509*
X00032Y00509*
X00033Y00509*
X00034Y0051*
X00035Y0051*
X00035Y0051*
X00035Y0051*
X00035Y00511*
X00036Y00511*
X00036Y00512*
X00037Y00513*
X00037Y00514*
X00037Y00514*
X00037Y00515*
Y00515*
Y00516*
X00037Y00517*
X00037Y00518*
X00037Y00518*
X00036Y00519*
X00036Y0052*
X00036Y0052*
X00036Y0052*
X00036Y0052*
X00035Y00521*
X00034Y00521*
X00033Y00522*
X00032Y00522*
X00031Y00523*
X00031Y00523*
X00031*
X0003Y00523*
X00029Y00523*
X00028Y00523*
X00026Y00524*
X00025Y00524*
X00025Y00524*
X00024Y00524*
X00024*
X00022Y00524*
X00021Y00524*
X0002Y00524*
X00019Y00524*
X00018Y00524*
X00017Y00524*
G37*
G36*
X-00122D02*
X-00122D01*
Y00514*
X-0012Y00512*
X-00119Y00512*
X-00119Y00511*
X-00118Y00511*
X-00117Y00511*
X-00117Y0051*
X-00117Y0051*
X-00116Y0051*
X-00114Y00509*
X-00113Y00509*
X-00112Y00509*
X-00111Y00509*
X-00111Y00509*
X-0011*
X-00109Y00509*
X-00107Y00509*
X-00106Y00509*
X-00105Y0051*
X-00105Y0051*
X-00104Y0051*
X-00104Y0051*
X-00104Y00511*
X-00103Y00511*
X-00103Y00512*
X-00102Y00513*
X-00102Y00514*
X-00102Y00514*
X-00102Y00515*
Y00515*
Y00516*
X-00102Y00517*
X-00102Y00518*
X-00102Y00518*
X-00103Y00519*
X-00103Y0052*
X-00103Y0052*
X-00103Y0052*
X-00104Y0052*
X-00104Y00521*
X-00105Y00521*
X-00107Y00522*
X-00107Y00522*
X-00108Y00523*
X-00108Y00523*
X-00108*
X-00109Y00523*
X-0011Y00523*
X-00112Y00523*
X-00113Y00524*
X-00114Y00524*
X-00115Y00524*
X-00115Y00524*
X-00115*
X-00117Y00524*
X-00118Y00524*
X-00119Y00524*
X-0012Y00524*
X-00121Y00524*
X-00122Y00524*
G37*
G36*
X-00307D02*
X-00308D01*
Y00514*
X-00306Y00512*
X-00305Y00512*
X-00304Y00511*
X-00303Y00511*
X-00303Y00511*
X-00302Y0051*
X-00302Y0051*
X-00301Y0051*
X-003Y00509*
X-00299Y00509*
X-00298Y00509*
X-00297Y00509*
X-00296Y00509*
X-00296*
X-00294Y00509*
X-00293Y00509*
X-00292Y00509*
X-00291Y0051*
X-0029Y0051*
X-0029Y0051*
X-00289Y0051*
X-00289Y00511*
X-00289Y00511*
X-00288Y00512*
X-00288Y00513*
X-00288Y00514*
X-00287Y00514*
X-00287Y00515*
Y00515*
Y00516*
X-00287Y00517*
X-00288Y00518*
X-00288Y00518*
X-00288Y00519*
X-00288Y0052*
X-00289Y0052*
X-00289Y0052*
X-00289Y0052*
X-0029Y00521*
X-0029Y00521*
X-00292Y00522*
X-00293Y00522*
X-00293Y00523*
X-00294Y00523*
X-00294*
X-00295Y00523*
X-00296Y00523*
X-00297Y00523*
X-00298Y00524*
X-00299Y00524*
X-003Y00524*
X-00301Y00524*
X-00301*
X-00302Y00524*
X-00304Y00524*
X-00305Y00524*
X-00306Y00524*
X-00307Y00524*
X-00307Y00524*
G37*
G36*
X0034Y00553D02*
X00331Y00526D01*
X00349*
X0034Y00553*
G37*
G36*
X00128Y0054D02*
X00127D01*
X00125Y0054*
X00124Y00539*
X00124Y00539*
X00123Y00539*
X00123Y00539*
X00122Y00539*
X00122*
X00121Y00539*
X0012Y00538*
X00119Y00538*
X00118Y00538*
X00118Y00538*
X00118Y00538*
X00118Y00538*
Y00514*
X00119Y00512*
X0012Y00512*
X00121Y00511*
X00122Y00511*
X00123Y00511*
X00123Y0051*
X00123Y0051*
X00124Y0051*
X00125Y0051*
X00126Y00509*
X00127Y00509*
X00128Y00509*
X00128Y00509*
X00129*
X00131Y00509*
X00133Y0051*
X00134Y0051*
X00135Y00511*
X00136Y00512*
X00136Y00512*
X00137Y00513*
X00137Y00513*
X00138Y00514*
X00138Y00516*
X00139Y00518*
X00139Y0052*
X00139Y00521*
Y00522*
X00139Y00523*
Y00523*
Y00524*
Y00524*
Y00524*
X00139Y00527*
X00139Y00529*
X00138Y00531*
X00138Y00533*
X00137Y00534*
X00137Y00534*
X00137Y00535*
X00136Y00535*
X00136Y00535*
X00136Y00536*
X00135Y00536*
X00135Y00537*
X00133Y00538*
X00132Y00539*
X0013Y00539*
X00129Y00539*
X00128Y0054*
X00128Y0054*
G37*
G36*
X-00348D02*
X-00348D01*
X-0035Y0054*
X-00351Y00539*
X-00352Y00539*
X-00352Y00539*
X-00353Y00539*
X-00353Y00539*
X-00353*
X-00355Y00539*
X-00356Y00538*
X-00356Y00538*
X-00357Y00538*
X-00357Y00538*
X-00358Y00538*
X-00358Y00538*
Y00514*
X-00356Y00512*
X-00355Y00512*
X-00354Y00511*
X-00353Y00511*
X-00353Y00511*
X-00352Y0051*
X-00352Y0051*
X-00351Y0051*
X-0035Y0051*
X-00349Y00509*
X-00348Y00509*
X-00347Y00509*
X-00347Y00509*
X-00346*
X-00344Y00509*
X-00343Y0051*
X-00342Y0051*
X-0034Y00511*
X-0034Y00512*
X-00339Y00512*
X-00339Y00513*
X-00339Y00513*
X-00338Y00514*
X-00337Y00516*
X-00337Y00518*
X-00336Y0052*
X-00336Y00521*
Y00522*
X-00336Y00523*
Y00523*
Y00524*
Y00524*
Y00524*
X-00336Y00527*
X-00337Y00529*
X-00337Y00531*
X-00338Y00533*
X-00338Y00534*
X-00339Y00534*
X-00339Y00535*
X-00339Y00535*
X-00339Y00535*
X-00339Y00536*
X-0034Y00536*
X-00341Y00537*
X-00342Y00538*
X-00343Y00539*
X-00345Y00539*
X-00346Y00539*
X-00347Y0054*
X-00348Y0054*
G37*
G36*
X-00004Y00475D02*
Y00451D01*
X00016*
X-00004Y00475*
G37*
G36*
X0014Y00479D02*
X00139D01*
X00138Y00479*
X00137Y00479*
X00136Y00479*
X00135Y00479*
X00135Y00478*
X00134Y00478*
X00134Y00478*
X00134Y00478*
X00133Y00477*
X00132Y00477*
X00132Y00476*
X00131Y00475*
X00131Y00475*
X00131Y00474*
X0013Y00474*
X0013Y00474*
X0013Y00473*
X0013Y00471*
X00129Y0047*
X00129Y00469*
X00129Y00468*
X00129Y00467*
X00128Y00467*
Y00467*
Y00467*
X00128Y00465*
X00128Y00463*
X00128Y00462*
Y0046*
X00128Y00459*
Y00458*
Y00458*
Y00457*
Y00457*
Y00457*
Y00457*
Y00454*
X00128Y00452*
X00128Y00451*
X00128Y00449*
X00128Y00448*
X00128Y00447*
X00128Y00447*
Y00446*
Y00446*
X00129Y00445*
X00129Y00443*
X00129Y00442*
X0013Y00441*
X0013Y0044*
X0013Y0044*
X0013Y00439*
X0013Y00439*
X00131Y00438*
X00131Y00437*
X00132Y00437*
X00133Y00436*
X00133Y00435*
X00133Y00435*
X00134Y00435*
X00134Y00435*
X00135Y00434*
X00136Y00434*
X00137Y00434*
X00137Y00434*
X00138Y00434*
X00139Y00434*
X00139*
X00141Y00434*
X00142Y00434*
X00143Y00434*
X00144Y00434*
X00144Y00434*
X00145Y00435*
X00145Y00435*
X00145Y00435*
X00146Y00436*
X00147Y00436*
X00147Y00437*
X00148Y00438*
X00148Y00438*
X00148Y00439*
X00148Y00439*
X00149Y00439*
X00149Y00442*
X0015Y00443*
X0015Y00444*
X0015Y00445*
X0015Y00446*
X0015Y00446*
Y00446*
X0015Y00448*
X0015Y0045*
X00151Y00451*
Y00453*
X00151Y00454*
Y00455*
Y00455*
Y00456*
Y00456*
Y00456*
Y00456*
Y00458*
X00151Y0046*
X0015Y00462*
X0015Y00464*
Y00465*
X0015Y00466*
X0015Y00466*
Y00466*
Y00466*
Y00466*
X0015Y00468*
X0015Y00469*
X00149Y00471*
X00149Y00472*
X00149Y00473*
X00149Y00473*
X00149Y00474*
X00148Y00474*
X00148Y00475*
X00147Y00476*
X00147Y00476*
X00146Y00477*
X00146Y00477*
X00145Y00478*
X00145Y00478*
X00145Y00478*
X00144Y00478*
X00143Y00479*
X00142Y00479*
X00141Y00479*
X00141Y00479*
X0014Y00479*
G37*
G36*
X00133Y-00553D02*
X00126D01*
Y-00556*
X00126Y-00557*
Y-00557*
X00126Y-00557*
Y-00558*
X00126Y-00558*
X00126Y-00558*
X00126Y-00559*
Y-00559*
X00126Y-00559*
X00127Y-00559*
X00127Y-0056*
X00127Y-0056*
X00127Y-0056*
X00127Y-00561*
X00127Y-00561*
X00127Y-00561*
X00128Y-00561*
X00128Y-00561*
X00129Y-00561*
X00129Y-00561*
X00129Y-00561*
X0013Y-00562*
X0013*
X0013*
X0013Y-00561*
X00131Y-00561*
X00131Y-00561*
X00131Y-00561*
X00131Y-00561*
X00132Y-00561*
X00132Y-00561*
X00132Y-00561*
X00132Y-00561*
X00132Y-0056*
X00133Y-0056*
X00133Y-0056*
X00133Y-0056*
X00133Y-0056*
X00133Y-00559*
X00133Y-00559*
X00133Y-00559*
X00133Y-00559*
X00133Y-00558*
X00133Y-00558*
X00133Y-00557*
Y-00556*
X00133Y-00556*
Y-00553*
G37*
G36*
X00187Y-00961D02*
X00183D01*
X00182Y-00961*
X00182*
X00182Y-00961*
X00181*
X00181Y-00961*
X00181Y-00961*
X00181Y-00961*
X00181*
X0018Y-00961*
X0018Y-00962*
X00179Y-00962*
X00179Y-00962*
X00179Y-00962*
X00179Y-00962*
X00179Y-00962*
X00178Y-00962*
X00178Y-00963*
X00178Y-00963*
X00178Y-00964*
X00178Y-00964*
X00178Y-00964*
X00178Y-00965*
Y-00965*
Y-00965*
X00178Y-00965*
X00178Y-00966*
X00178Y-00966*
X00178Y-00966*
X00178Y-00966*
X00178Y-00967*
X00178Y-00967*
X00178Y-00967*
X00178Y-00967*
X00179Y-00967*
X00179Y-00968*
X00179Y-00968*
X00179Y-00968*
X0018Y-00968*
X0018Y-00968*
X0018Y-00968*
X0018Y-00968*
X0018Y-00968*
X00181Y-00968*
X00182Y-00968*
X00182Y-00968*
X00183*
X00183Y-00968*
X00187*
Y-00961*
G37*
G36*
X-00195Y-00821D02*
X-00198D01*
X-00199Y-00821*
X-00199*
X-00199Y-00821*
X-002*
X-002Y-00821*
X-002Y-00821*
X-00201Y-00821*
X-00201*
X-00201Y-00821*
X-00201Y-00822*
X-00202Y-00822*
X-00202Y-00822*
X-00202Y-00822*
X-00203Y-00822*
X-00203Y-00822*
X-00203Y-00822*
X-00203Y-00823*
X-00203Y-00823*
X-00203Y-00824*
X-00203Y-00824*
X-00203Y-00824*
X-00203Y-00825*
Y-00825*
Y-00825*
X-00203Y-00825*
X-00203Y-00826*
X-00203Y-00826*
X-00203Y-00826*
X-00203Y-00826*
X-00203Y-00827*
X-00203Y-00827*
X-00203Y-00827*
X-00203Y-00827*
X-00202Y-00827*
X-00202Y-00828*
X-00202Y-00828*
X-00202Y-00828*
X-00201Y-00828*
X-00201Y-00828*
X-00201Y-00828*
X-00201Y-00828*
X-00201Y-00828*
X-002Y-00828*
X-002Y-00828*
X-00199Y-00828*
X-00198*
X-00198Y-00828*
X-00195*
Y-00821*
G37*
G36*
X00561Y-00749D02*
Y-00758D01*
X00567*
X00561Y-00749*
G37*
G36*
X00502Y-00754D02*
X00502D01*
X00501Y-00754*
X00501Y-00754*
X005Y-00755*
X005Y-00755*
X005Y-00755*
X00499Y-00755*
X00499Y-00755*
X00499Y-00755*
X00499Y-00756*
X00499Y-00757*
X00498Y-00757*
X00498Y-00758*
X00498Y-00758*
X00498Y-00759*
Y-00759*
Y-00759*
Y-00759*
Y-00759*
X00498Y-0076*
X00498Y-00761*
X00498Y-00761*
X00499Y-00762*
X00499Y-00762*
X00499Y-00762*
X00499Y-00763*
X00499Y-00763*
X00499Y-00763*
X005Y-00763*
X005Y-00763*
X00501Y-00763*
X00501Y-00763*
X00501Y-00764*
X00501*
X00502Y-00763*
X00502Y-00763*
X00503Y-00763*
X00503Y-00763*
X00503Y-00763*
X00504Y-00762*
X00504Y-00762*
X00504Y-00762*
X00504Y-00762*
X00504Y-00761*
X00505Y-00761*
X00505Y-0076*
X00505Y-00759*
X00505Y-00759*
Y-00759*
Y-00759*
Y-00759*
Y-00759*
X00505Y-00758*
X00505Y-00757*
X00505Y-00757*
X00504Y-00756*
X00504Y-00756*
X00504Y-00756*
X00504Y-00755*
X00504Y-00755*
X00504Y-00755*
X00503Y-00755*
X00503Y-00755*
X00502Y-00754*
X00502Y-00754*
X00502Y-00754*
G37*
G36*
X00404Y-00626D02*
X00401D01*
X004Y-00626*
X004*
X004Y-00626*
X00399*
X00399Y-00626*
X00399Y-00626*
X00398Y-00626*
X00398*
X00398Y-00626*
X00397Y-00626*
X00397Y-00626*
X00397Y-00626*
X00397Y-00627*
X00396Y-00627*
X00396Y-00627*
X00396Y-00627*
X00396Y-00627*
X00396Y-00628*
X00396Y-00628*
X00396Y-00628*
X00395Y-00629*
X00395Y-00629*
Y-00629*
Y-00629*
X00395Y-0063*
X00396Y-0063*
X00396Y-0063*
X00396Y-00631*
X00396Y-00631*
X00396Y-00631*
X00396Y-00631*
X00396Y-00631*
X00396Y-00631*
X00397Y-00632*
X00397Y-00632*
X00397Y-00632*
X00397Y-00632*
X00397Y-00632*
X00398Y-00632*
X00398Y-00632*
X00398Y-00632*
X00398Y-00632*
X00399Y-00633*
X00399Y-00633*
X004Y-00633*
X00401*
X00401Y-00633*
X00404*
Y-00626*
G37*
G36*
X0039Y00767D02*
X00389D01*
Y00756*
X00391Y00754*
X00392Y00754*
X00393Y00753*
X00394Y00753*
X00394Y00753*
X00395Y00753*
X00395Y00752*
X00396Y00752*
X00397Y00752*
X00398Y00751*
X00399Y00751*
X004Y00751*
X00401Y00751*
X00401*
X00403Y00751*
X00404Y00751*
X00405Y00752*
X00406Y00752*
X00407Y00752*
X00407Y00752*
X00408Y00753*
X00408Y00753*
X00408Y00753*
X00409Y00754*
X00409Y00755*
X00409Y00756*
X00409Y00757*
X0041Y00757*
Y00758*
Y00758*
X00409Y00759*
X00409Y0076*
X00409Y00761*
X00409Y00761*
X00408Y00762*
X00408Y00762*
X00408Y00762*
X00408Y00762*
X00407Y00763*
X00406Y00763*
X00405Y00764*
X00404Y00765*
X00404Y00765*
X00403Y00765*
X00403*
X00402Y00765*
X00401Y00765*
X004Y00766*
X00399Y00766*
X00398Y00766*
X00397Y00766*
X00396Y00766*
X00396*
X00395Y00766*
X00393Y00766*
X00392Y00766*
X00391Y00766*
X0039Y00767*
X0039Y00767*
G37*
G36*
X00149Y00782D02*
X00149D01*
X00147Y00782*
X00145Y00782*
X00144Y00782*
X00143Y00781*
X00142Y0078*
X00141Y0078*
X00141Y0078*
X00141Y0078*
X0014Y00778*
X00139Y00777*
X00139Y00776*
X00138Y00775*
X00138Y00774*
X00138Y00773*
X00138Y00772*
Y00772*
Y00772*
X00161*
X00161Y00773*
X0016Y00775*
X0016Y00776*
X00159Y00777*
X00158Y00778*
X00158Y00779*
X00158Y00779*
X00157Y00779*
X00156Y0078*
X00155Y00781*
X00153Y00782*
X00152Y00782*
X00151Y00782*
X0015Y00782*
X00149Y00782*
G37*
G36*
X-00416D02*
X-00417D01*
X-00418Y00782*
X-0042Y00782*
X-00421Y00782*
X-00423Y00781*
X-00423Y0078*
X-00424Y0078*
X-00424Y0078*
X-00425Y0078*
X-00425Y00778*
X-00426Y00777*
X-00427Y00776*
X-00427Y00775*
X-00427Y00774*
X-00427Y00773*
X-00427Y00772*
Y00772*
Y00772*
X-00404*
X-00404Y00773*
X-00405Y00775*
X-00405Y00776*
X-00406Y00777*
X-00407Y00778*
X-00407Y00779*
X-00408Y00779*
X-00408Y00779*
X-00409Y0078*
X-0041Y00781*
X-00412Y00782*
X-00413Y00782*
X-00415Y00782*
X-00416Y00782*
X-00416Y00782*
G37*
G36*
X00101Y00782D02*
X001D01*
X00098Y00782*
X00098Y00782*
X00097Y00781*
X00096Y00781*
X00096Y00781*
X00096Y00781*
X00096*
X00094Y00781*
X00093Y0078*
X00092Y0078*
X00092Y0078*
X00091Y0078*
X00091Y0078*
X00091Y0078*
Y00756*
X00093Y00754*
X00094Y00754*
X00095Y00753*
X00095Y00753*
X00096Y00753*
X00096Y00753*
X00096Y00753*
X00097Y00752*
X00099Y00752*
X001Y00751*
X001Y00751*
X00101Y00751*
X00102Y00751*
X00102*
X00104Y00751*
X00106Y00752*
X00107Y00752*
X00108Y00753*
X00109Y00754*
X0011Y00754*
X0011Y00755*
X0011Y00755*
X00111Y00757*
X00111Y00758*
X00112Y0076*
X00112Y00762*
X00112Y00764*
Y00764*
X00112Y00765*
Y00765*
Y00766*
Y00766*
Y00766*
X00112Y00769*
X00112Y00771*
X00111Y00773*
X00111Y00775*
X0011Y00776*
X0011Y00777*
X0011Y00777*
X0011Y00777*
X00109Y00778*
X00109Y00778*
X00109Y00778*
X00108Y00779*
X00107Y0078*
X00105Y00781*
X00104Y00781*
X00102Y00782*
X00101Y00782*
X00101Y00782*
G37*
G36*
X-00144Y00782D02*
X-00145D01*
X-00147Y00782*
X-00148Y00781*
X-0015Y00781*
X-00151Y0078*
X-00152Y00779*
X-00153Y00779*
X-00153Y00778*
X-00153Y00778*
X-00154Y00778*
X-00154Y00777*
X-00155Y00775*
X-00156Y00773*
X-00156Y00771*
X-00156Y00769*
X-00156Y00768*
X-00156Y00768*
Y00767*
Y00767*
Y00766*
Y00766*
Y00765*
X-00156Y00764*
X-00156Y00762*
X-00156Y00761*
X-00156Y0076*
X-00155Y00759*
X-00155Y00758*
X-00155Y00757*
X-00155Y00757*
X-00154Y00756*
X-00154Y00756*
X-00154Y00755*
X-00154Y00755*
X-00153Y00755*
X-00153Y00755*
Y00755*
X-00152Y00753*
X-00151Y00752*
X-00149Y00752*
X-00148Y00751*
X-00147Y00751*
X-00146Y00751*
X-00145Y00751*
X-00145*
X-00144Y00751*
X-00143Y00751*
X-00141Y00751*
X-0014Y00752*
X-00139Y00753*
X-00138Y00753*
X-00137Y00754*
X-00136Y00754*
X-00136Y00755*
X-00136Y00755*
X-00135Y00756*
X-00135Y00758*
X-00134Y0076*
X-00134Y00762*
X-00133Y00764*
X-00133Y00764*
Y00765*
X-00133Y00766*
Y00766*
Y00766*
Y00766*
Y00768*
X-00133Y00769*
X-00134Y0077*
X-00134Y00772*
X-00134Y00773*
X-00134Y00774*
X-00134Y00775*
X-00135Y00775*
X-00135Y00776*
X-00135Y00777*
X-00136Y00777*
X-00136Y00778*
X-00136Y00778*
X-00136Y00778*
X-00136Y00778*
X-00138Y0078*
X-00139Y0078*
X-0014Y00781*
X-00142Y00782*
X-00143Y00782*
X-00144Y00782*
X-00144Y00782*
G37*
G36*
X-00272D02*
X-00273D01*
X-00275Y00782*
X-00277Y00781*
X-00278Y00781*
X-00279Y0078*
X-0028Y00779*
X-00281Y00779*
X-00281Y00778*
X-00282Y00778*
X-00282Y00778*
X-00283Y00777*
X-00283Y00775*
X-00284Y00773*
X-00284Y00771*
X-00284Y00769*
X-00285Y00768*
X-00285Y00768*
Y00767*
Y00767*
Y00766*
Y00766*
Y00765*
X-00285Y00764*
X-00284Y00762*
X-00284Y00761*
X-00284Y0076*
X-00284Y00759*
X-00283Y00758*
X-00283Y00757*
X-00283Y00757*
X-00282Y00756*
X-00282Y00756*
X-00282Y00755*
X-00282Y00755*
X-00282Y00755*
X-00281Y00755*
Y00755*
X-0028Y00753*
X-00279Y00752*
X-00277Y00752*
X-00276Y00751*
X-00275Y00751*
X-00274Y00751*
X-00274Y00751*
X-00273*
X-00272Y00751*
X-00271Y00751*
X-00269Y00751*
X-00268Y00752*
X-00267Y00753*
X-00266Y00753*
X-00265Y00754*
X-00265Y00754*
X-00264Y00755*
X-00264Y00755*
X-00263Y00756*
X-00263Y00758*
X-00262Y0076*
X-00262Y00762*
X-00262Y00764*
X-00262Y00764*
Y00765*
X-00261Y00766*
Y00766*
Y00766*
Y00766*
Y00768*
X-00262Y00769*
X-00262Y0077*
X-00262Y00772*
X-00262Y00773*
X-00262Y00774*
X-00263Y00775*
X-00263Y00775*
X-00263Y00776*
X-00264Y00777*
X-00264Y00777*
X-00264Y00778*
X-00264Y00778*
X-00264Y00778*
X-00264Y00778*
X-00266Y0078*
X-00267Y0078*
X-00269Y00781*
X-0027Y00782*
X-00271Y00782*
X-00272Y00782*
X-00272Y00782*
G37*
%LNhsmm-3*%
%LPD*%
G54D17*
X00229Y-00549D02*
X00254D01*
X00155D02*
X0018D01*
X00229Y-006D02*
X00254D01*
X00155D02*
X0018D01*
X00254D02*
Y-00549D01*
X00155Y-006D02*
Y-00549D01*
X00201Y-00561D02*
X00208D01*
X00201Y-00588D02*
X00208D01*
X00229Y-00489D02*
X00254D01*
X00155D02*
X0018D01*
X00229Y-0054D02*
X00254D01*
X00155D02*
X0018D01*
X00254D02*
Y-00489D01*
X00155Y-0054D02*
Y-00489D01*
X00201Y-00501D02*
X00208D01*
X00201Y-00528D02*
X00208D01*
X00209Y-00989D02*
X00234D01*
X00135D02*
X0016D01*
X00209Y-0104D02*
X00234D01*
X00135D02*
X0016D01*
X00234D02*
Y-00989D01*
X00135Y-0104D02*
Y-00989D01*
X00181Y-01001D02*
X00188D01*
X00181Y-01028D02*
X00188D01*
X-00245Y-00875D02*
Y-0085D01*
Y-00949D02*
Y-00924D01*
X-00194Y-00875D02*
Y-0085D01*
Y-00949D02*
Y-00924D01*
X-00245Y-0085D02*
X-00194D01*
X-00245Y-00949D02*
X-00194D01*
X-00233Y-00903D02*
Y-00896D01*
X-00206Y-00903D02*
Y-00896D01*
X-00169Y-01023D02*
Y-00999D01*
X-0012Y-01023D02*
Y-00999D01*
Y-0095D02*
Y-00926D01*
X-00169Y-0095D02*
Y-00926D01*
X-0012*
X-00169Y-01023D02*
X-0012D01*
X-00132Y-00976D02*
Y-00973D01*
X-00157Y-00976D02*
Y-00973D01*
X00609Y-00665D02*
Y-0064D01*
Y-00739D02*
Y-00714D01*
X0066Y-00665D02*
Y-0064D01*
Y-00739D02*
Y-00714D01*
X00609Y-0064D02*
X0066D01*
X00609Y-00739D02*
X0066D01*
X00621Y-00693D02*
Y-00686D01*
X00648Y-00693D02*
Y-00686D01*
X00549Y-00665D02*
Y-0064D01*
Y-00739D02*
Y-00714D01*
X006Y-00665D02*
Y-0064D01*
Y-00739D02*
Y-00714D01*
X00549Y-0064D02*
X006D01*
X00549Y-00739D02*
X006D01*
X00561Y-00693D02*
Y-00686D01*
X00588Y-00693D02*
Y-00686D01*
X00489Y-00663D02*
Y-00639D01*
Y-00737D02*
Y-00713D01*
X0054Y-00663D02*
Y-00639D01*
Y-00737D02*
Y-00713D01*
X00489Y-00639D02*
X0054D01*
X00489Y-00737D02*
X0054D01*
X00501Y-00692D02*
Y-00684D01*
X00528Y-00692D02*
Y-00684D01*
X-00205Y-00974D02*
X-0018D01*
X-00279D02*
X-00254D01*
X-00205Y-01025D02*
X-0018D01*
X-00279D02*
X-00254D01*
X-0018D02*
Y-00974D01*
X-00279Y-01025D02*
Y-00974D01*
X-00233Y-00986D02*
X-00226D01*
X-00233Y-01013D02*
X-00226D01*
X00357Y-00739D02*
X00388D01*
X00451D02*
X00482D01*
X00357Y-0067D02*
X00388D01*
X00451D02*
X00482D01*
Y-00739D02*
Y-0067D01*
X00357Y-00739D02*
Y-0067D01*
X00414Y-00728D02*
X00425D01*
X00414Y-00681D02*
X00425D01*
G54D58*
X-00731Y00965D02*
D01*
X-00747Y00964*
X-00764Y00962*
X-0078Y00959*
X-00797Y00955*
X-00812Y0095*
X-00828Y00944*
X-00843Y00937*
X-00857Y00928*
X-00871Y00919*
X-00884Y00909*
X-00897Y00897*
X-00908Y00886*
X-00919Y00873*
X-00929Y00859*
X-00938Y00845*
X-00945Y0083*
X-00952Y00815*
X-00958Y008*
X-00962Y00784*
X-00966Y00767*
X-00968Y00751*
X-00969Y00734*
X-0097Y00726*
X0092Y00535D02*
D01*
X00923Y00535*
X00926Y00535*
X0093Y00536*
X00933Y00536*
X00937Y00538*
X0094Y00539*
X00943Y0054*
X00946Y00542*
X00949Y00544*
X00952Y00546*
X00954Y00549*
X00957Y00551*
X00959Y00554*
X00961Y00557*
X00963Y0056*
X00964Y00563*
X00966Y00566*
X00967Y00569*
X00968Y00572*
X00969Y00576*
X00969Y00579*
X00969Y00583*
X0097Y00585*
Y00726D02*
D01*
X00969Y00742*
X00967Y00759*
X00964Y00775*
X0096Y00791*
X00955Y00807*
X00949Y00823*
X00942Y00838*
X00933Y00852*
X00924Y00866*
X00914Y00879*
X00902Y00892*
X0089Y00903*
X00878Y00914*
X00864Y00924*
X0085Y00932*
X00835Y0094*
X0082Y00947*
X00804Y00953*
X00788Y00957*
X00772Y00961*
X00755Y00963*
X00739Y00964*
X00731Y00965*
X-00731D02*
X-0014D01*
X-0097Y0069D02*
Y00726D01*
Y00535D02*
Y0069D01*
Y00535D02*
X-00915D01*
X-0045*
Y0032D02*
Y00535D01*
Y-0053D02*
Y0032D01*
X-0051Y-0053D02*
X-0045D01*
X-00965D02*
X-0051D01*
X-00965Y-008D02*
Y-0053D01*
Y-01095D02*
Y-008D01*
Y-01095D02*
X00265D01*
X00965*
Y-0087*
Y-00535*
X0086D02*
X00965D01*
X0045D02*
X0086D01*
X0045D02*
Y00115D01*
Y00535*
X00575*
X0092*
X0097Y00585D02*
Y00726D01*
X-0014Y00965D02*
X00731D01*
M02*