%FSTAX23Y23*%
%MOIN*%
%SFA1B1*%

%IPPOS*%
%AMD23*
4,1,8,-0.010800,0.019000,-0.010800,-0.019000,-0.005400,-0.024400,0.005400,-0.024400,0.010800,-0.019000,0.010800,0.019000,0.005400,0.024400,-0.005400,0.024400,-0.010800,0.019000,0.0*
1,1,0.010827,-0.005400,0.019000*
1,1,0.010827,-0.005400,-0.019000*
1,1,0.010827,0.005400,-0.019000*
1,1,0.010827,0.005400,0.019000*
%
%AMD29*
4,1,8,-0.032900,-0.011800,0.032900,-0.011800,0.038800,-0.005900,0.038800,0.005900,0.032900,0.011800,-0.032900,0.011800,-0.038800,0.005900,-0.038800,-0.005900,-0.032900,-0.011800,0.0*
1,1,0.011811,-0.032900,-0.005900*
1,1,0.011811,0.032900,-0.005900*
1,1,0.011811,0.032900,0.005900*
1,1,0.011811,-0.032900,0.005900*
%
%AMD30*
4,1,8,0.011600,0.023000,-0.011600,0.023000,-0.013200,0.021400,-0.013200,-0.021400,-0.011600,-0.023000,0.011600,-0.023000,0.013200,-0.021400,0.013200,0.021400,0.011600,0.023000,0.0*
1,1,0.003165,0.011600,0.021400*
1,1,0.003165,-0.011600,0.021400*
1,1,0.003165,-0.011600,-0.021400*
1,1,0.003165,0.011600,-0.021400*
%
%AMD34*
4,1,8,0.023400,-0.045900,0.042200,-0.029500,0.043500,-0.011900,-0.005700,0.044700,-0.023400,0.045900,-0.042200,0.029500,-0.043500,0.011900,0.005700,-0.044700,0.023400,-0.045900,0.0*
1,1,0.025000,0.015200,-0.036500*
1,1,0.025000,0.034000,-0.020100*
1,1,0.025000,-0.015200,0.036500*
1,1,0.025000,-0.034000,0.020100*
%
%AMD35*
4,1,8,0.050000,-0.012500,0.050000,0.012500,0.037500,0.025000,-0.037500,0.025000,-0.050000,0.012500,-0.050000,-0.012500,-0.037500,-0.025000,0.037500,-0.025000,0.050000,-0.012500,0.0*
1,1,0.025000,0.037500,-0.012500*
1,1,0.025000,0.037500,0.012500*
1,1,0.025000,-0.037500,0.012500*
1,1,0.025000,-0.037500,-0.012500*
%
%AMD37*
4,1,8,0.042200,0.029500,0.023400,0.045900,0.005700,0.044700,-0.043500,-0.011900,-0.042200,-0.029500,-0.023400,-0.045900,-0.005700,-0.044700,0.043500,0.011900,0.042200,0.029500,0.0*
1,1,0.025000,0.034000,0.020100*
1,1,0.025000,0.015200,0.036500*
1,1,0.025000,-0.034000,-0.020100*
1,1,0.025000,-0.015200,-0.036500*
%
%ADD16C,0.010000*%
%ADD19C,0.020000*%
%ADD20R,0.049212X0.015748*%
%ADD21R,0.078701X0.047201*%
%ADD22R,0.061024X0.057087*%
G04~CAMADD=23~8~0.0~0.0~488.2~216.5~54.1~0.0~15~0.0~0.0~0.0~0.0~0~0.0~0.0~0.0~0.0~0~0.0~0.0~0.0~90.0~216.0~488.0*
%ADD23D23*%
%ADD24R,0.047244X0.012598*%
%ADD25R,0.012598X0.047244*%
%ADD26R,0.023622X0.033465*%
%ADD27R,0.059055X0.078740*%
%ADD28R,0.025591X0.035433*%
G04~CAMADD=29~8~0.0~0.0~775.6~236.2~59.1~0.0~15~0.0~0.0~0.0~0.0~0~0.0~0.0~0.0~0.0~0~0.0~0.0~0.0~180.0~776.0~236.0*
%ADD29D29*%
G04~CAMADD=30~8~0.0~0.0~263.8~460.6~15.8~0.0~15~0.0~0.0~0.0~0.0~0~0.0~0.0~0.0~0.0~0~0.0~0.0~0.0~0.0~263.8~460.6*
%ADD30D30*%
%ADD31R,0.023622X0.061024*%
%ADD32R,0.047244X0.070866*%
%ADD33R,0.031500X0.031500*%
G04~CAMADD=34~8~0.0~0.0~500.0~1000.0~125.0~0.0~15~0.0~0.0~0.0~0.0~0~0.0~0.0~0.0~0.0~0~0.0~0.0~0.0~221.0~930.0~978.0*
%ADD34D34*%
G04~CAMADD=35~8~0.0~0.0~500.0~1000.0~125.0~0.0~15~0.0~0.0~0.0~0.0~0~0.0~0.0~0.0~0.0~0~0.0~0.0~0.0~270.0~1000.0~500.0*
%ADD35D35*%
%ADD36R,0.035433X0.025591*%
G04~CAMADD=37~8~0.0~0.0~500.0~1000.0~125.0~0.0~15~0.0~0.0~0.0~0.0~0~0.0~0.0~0.0~0.0~0~0.0~0.0~0.0~319.0~930.0~978.0*
%ADD37D37*%
%ADD58C,0.040000*%
%ADD59C,0.059055*%
%ADD60R,0.059055X0.059055*%
%ADD61C,0.019685*%
%ADD62C,0.118110*%
%LNhsmm-1*%
%LPD*%
G36*
X00735Y00974D02*
X00739Y00973D01*
X00748Y00973*
X00753Y00973*
X00757Y00963*
X00794Y00921*
X00817Y00941*
X00806Y00953*
X00812Y00961*
X00816Y0096*
X0084Y0095*
X00863Y00937*
X00885Y00922*
X00905Y00905*
X00922Y00885*
X00937Y00863*
X0095Y0084*
X0096Y00816*
X00967Y00791*
X00969Y0078*
X0096Y00776*
X00944Y00794*
X00921Y00774*
X00958Y00732*
X00964Y00737*
X00974Y00735*
X00974Y00734*
Y00525*
X00735*
X00731Y00535*
X00741Y00543*
X00746Y0055*
X00749Y00559*
X00747Y00567*
X00743Y00575*
X00722Y006*
X00695Y00577*
X00668Y00553*
X00684Y00535*
X0068Y00525*
X0047*
X00466Y00524*
X00462Y00522*
X0046Y00518*
X00459Y00515*
Y-00515*
X0046Y-00517*
X00456Y-00522*
X00453Y-00525*
X00447Y-00524*
X00437Y-00526*
X00434Y-00528*
X0043*
Y-00531*
X00429Y-00531*
X00423Y-0054*
X00421Y-0055*
X00423Y-00559*
X00424Y-00561*
Y-00585*
X00414Y-0059*
X00412Y-00589*
X00402Y-00587*
X00392Y-00589*
X00391Y-0059*
X00379*
X00378Y-0059*
X00372*
X00366Y-00582*
X00366Y-00581*
X00368Y-00574*
X00373Y-00571*
X00374Y-00571*
X00406*
Y-00528*
X00391*
X00386Y-00522*
X00388Y-00512*
X00392Y-00508*
X00394Y-00502*
Y-00497*
X00392Y-00491*
X00388Y-00487*
X00382Y-00485*
X0038*
X00374Y-00478*
X00379Y-00469*
X00382*
X00388Y-00467*
X00392Y-00463*
X00394Y-00457*
Y-00452*
X00392Y-00446*
X00388Y-00442*
X00382Y-0044*
X00377*
X00371Y-00442*
X00367Y-00446*
X00365Y-00452*
Y-00456*
X0036Y-0046*
X00356Y-00461*
X00353Y-0046*
X0035Y-00459*
X00247*
Y-00431*
X00226*
Y-00407*
X00225Y-00404*
X00223Y-004*
X00185Y-00362*
X00182Y-0036*
X00178Y-00359*
X00168*
X00165Y-0036*
X00155*
X00154Y-00359*
X00149Y-00357*
X00143*
X00138Y-00359*
X00133Y-00364*
X00131Y-00369*
Y-00375*
X00133Y-0038*
X00138Y-00385*
X00143Y-00387*
X00149*
X00154Y-00385*
X00159Y-0038*
X00159Y-0038*
X00167*
X0017Y-0038*
X00174*
X00206Y-00412*
Y-00431*
X-00009*
Y-004*
X-00007Y-00398*
X-00005Y-00392*
Y-00387*
X-00007Y-00381*
X-00011Y-00377*
X-00017Y-00375*
X-00022*
X-00028Y-00377*
X-00032Y-00381*
X-00034Y-00387*
Y-00392*
X-00032Y-00398*
X-0003Y-004*
Y-00431*
X-00069*
Y-0039*
X-00067Y-00388*
X-00065Y-00382*
Y-00377*
X-00067Y-00371*
X-00071Y-00367*
X-00077Y-00365*
X-00082*
X-00088Y-00367*
X-00092Y-00371*
X-00094Y-00377*
X-00095Y-00379*
X-00101Y-0038*
X-0011Y-00377*
X-00112Y-00371*
X-00116Y-00367*
X-00122Y-00365*
X-00127*
X-00133Y-00367*
X-00137Y-00371*
X-00139Y-00377*
Y-00382*
X-00137Y-00388*
X-00133Y-00392*
Y-00404*
X-00132Y-00408*
X-0013Y-00412*
X-00128Y-00414*
Y-00431*
X-00208*
Y-00488*
X-00167*
Y-00537*
X-00166Y-00541*
X-00164Y-00544*
X-0014Y-00569*
Y-00572*
X-00137Y-00578*
X-00133Y-00582*
X-00128Y-00584*
X-00122*
X-00116Y-00582*
X-00112Y-00578*
X-0011Y-00572*
Y-00566*
X-00112Y-00561*
X-00116Y-00557*
X-00122Y-00554*
X-00125*
X-00147Y-00533*
Y-00488*
X00145*
X00149Y-00497*
X00142Y-00504*
X0008*
X00078Y-00502*
X00072Y-005*
X00067*
X00061Y-00502*
X00057Y-00506*
X00055Y-00512*
Y-00517*
X00057Y-00523*
X00061Y-00527*
X00067Y-00529*
X00072*
X00078Y-00527*
X0008Y-00525*
X00107*
X00115Y-00532*
Y-00537*
X00117Y-00543*
X00121Y-00547*
X00127Y-00549*
X00132*
X00138Y-00547*
X0014Y-00545*
X00147*
X00151Y-00544*
X00153Y-00543*
X00159Y-00551*
X0007Y-00639*
X-00184*
Y-00597*
X-00185Y-00593*
X-00187Y-0059*
X-00226Y-00551*
Y-00488*
X-00224*
Y-00431*
X-00225*
Y-00406*
X-00222Y-00403*
X-0022Y-00397*
Y-00392*
X-00222Y-00386*
X-00226Y-00382*
X-00232Y-0038*
X-00237*
X-00243Y-00382*
X-00247Y-00386*
X-00249Y-00392*
Y-00397*
X-00247Y-00403*
X-00245Y-00405*
Y-00431*
X-00247*
Y-00465*
X-00251*
X-00255Y-00465*
X-00258Y-00468*
X-0026Y-00469*
X-00327*
Y-00457*
X-00362*
Y-00502*
X-00327*
Y-0049*
X-00256*
X-00247Y-00495*
X-00246Y-00497*
Y-00556*
X-00245Y-0056*
X-00243Y-00563*
X-00205Y-00601*
Y-0065*
Y-00689*
X-00215Y-00693*
X-00216Y-00692*
X-00222Y-0069*
X-00227*
X-00233Y-00692*
X-00237Y-00696*
X-00239Y-00702*
Y-00707*
X-00237Y-00713*
X-00233Y-00717*
X-00227Y-00719*
X-00222*
X-00212Y-00726*
X-00212Y-00728*
X-00224Y-0074*
X-00225*
X-00247Y-00718*
X-0025Y-00716*
X-00254Y-00715*
X-00276*
Y-00714*
X-00333*
Y-00715*
X-00365*
X-00372Y-00708*
Y-00677*
X-00407*
Y-00722*
X-00386*
X-00376Y-00732*
X-00373Y-00735*
X-00369Y-00735*
X-00333*
Y-00776*
Y-00815*
Y-00863*
X-00343Y-00868*
X-0035Y-00861*
X-00353Y-00859*
X-00357Y-00858*
X-00358*
X-00359Y-00854*
X-00361Y-00851*
X-00365Y-00848*
X-00369Y-00847*
X-00435*
X-00439Y-00848*
X-00441Y-00849*
X-00455*
X-00457Y-0085*
X-00457*
X-00458Y-0085*
X-0046Y-0085*
X-00462Y-00852*
X-00463Y-00852*
X-00463Y-00852*
X-00465Y-00854*
X-0052Y-00909*
X-00524Y-00909*
X-00532Y-00907*
X-00532Y-00906*
X-00532Y-00906*
X-00534Y-00904*
X-00536Y-00902*
X-00536Y-00902*
X-00537Y-00902*
X-00539Y-009*
X-00541Y-009*
X-00542Y-009*
X-00542*
X-00545Y-00899*
X-00558*
X-0056Y-00898*
X-00564Y-00897*
X-0063*
X-00634Y-00898*
X-00638Y-00901*
X-0064Y-00904*
X-00641Y-00909*
Y-0092*
X-0064Y-00925*
X-00638Y-00928*
X-00634Y-00931*
X-0063Y-00932*
X-00564*
X-0056Y-00931*
X-00558Y-0093*
X-00545*
X-00542Y-00929*
X-00542*
X-00541Y-00929*
X-0054Y-00929*
X-00537Y-0093*
X-00531Y-00933*
X-00531Y-00933*
X-0053Y-00935*
Y-00949*
X-0054Y-00953*
X-00541Y-00952*
X-00547Y-0095*
X-00552*
X-00556Y-00951*
X-00556Y-00951*
X-0056Y-00948*
X-00564Y-00947*
X-0063*
X-00634Y-00948*
X-00638Y-00951*
X-0064Y-00954*
X-00641Y-00959*
Y-0097*
X-0064Y-00975*
X-00638Y-00978*
X-00634Y-00981*
X-0063Y-00982*
X-00564*
X-0056Y-00981*
X-00556Y-00978*
X-00556Y-00978*
X-00552Y-00979*
X-00547*
X-00541Y-00977*
X-0054Y-00976*
X-0053Y-0098*
Y-00999*
X-0054Y-01003*
X-00541Y-01002*
X-00547Y-01*
X-00552*
X-00556Y-01001*
X-00556Y-01001*
X-0056Y-00998*
X-00564Y-00997*
X-0063*
X-00634Y-00998*
X-00638Y-01001*
X-0064Y-01004*
X-00641Y-01009*
Y-0102*
X-0064Y-01025*
X-00638Y-01028*
X-00634Y-01031*
X-0063Y-01032*
X-00564*
X-0056Y-01031*
X-00556Y-01028*
X-00556Y-01028*
X-00552Y-01029*
X-00547*
X-00541Y-01027*
X-0054Y-01026*
X-0053Y-0103*
Y-01049*
X-00558*
X-0056Y-01048*
X-00564Y-01047*
X-0063*
X-00634Y-01048*
X-00638Y-01051*
X-0064Y-01054*
X-00641Y-01059*
Y-0107*
X-0064Y-01075*
X-00638Y-01078*
X-00634Y-01081*
X-0063Y-01082*
X-00564*
X-0056Y-01081*
X-00558Y-0108*
X-00515*
X-00512Y-01079*
X-00512*
X-00511Y-01079*
X-00509Y-01079*
X-00507Y-01077*
X-00506Y-01077*
X-00506Y-01077*
X-00504Y-01075*
X-00489Y-01061*
X-00483Y-01063*
X-0048Y-01065*
X-00479Y-01067*
Y-01067*
X-00479Y-01068*
X-00479Y-0107*
X-00477Y-01072*
X-00477Y-01073*
X-00477Y-01073*
X-00475Y-01075*
X-00473Y-01077*
X-00473Y-01077*
X-00472Y-01077*
X-0047Y-01079*
X-00468Y-01079*
X-00467Y-01079*
X-00467*
X-00465Y-0108*
X-00441*
X-00439Y-01081*
X-00435Y-01082*
X-00369*
X-00365Y-01081*
X-00361Y-01078*
X-00359Y-01075*
X-00358Y-0107*
Y-01059*
X-00359Y-01054*
X-00361Y-01051*
X-00365Y-01048*
X-00369Y-01047*
X-00435*
X-00439Y-01048*
X-00441Y-01049*
X-00463*
X-00465Y-01047*
X-00468Y-0104*
X-00458Y-0103*
X-00441*
X-00439Y-01031*
X-00435Y-01032*
X-00369*
X-00365Y-01031*
X-00361Y-01028*
X-00359Y-01025*
X-00358Y-0102*
Y-01009*
X-00359Y-01004*
X-00361Y-01001*
X-00365Y-00998*
X-00369Y-00997*
X-00425*
X-00429Y-00989*
X-00423Y-00982*
X-00369*
X-00363Y-00982*
X-00357Y-00988*
X-00357Y-00988*
X-00353Y-00992*
X-00347Y-00994*
X-00342*
X-00333Y-01002*
Y-01012*
X-00276*
Y-00971*
X-00264*
X-00263Y-00972*
X-00257Y-00974*
X-00252*
X-00246Y-00972*
X-00242Y-00968*
X-0024Y-00962*
Y-00957*
X-00242Y-00951*
X-00246Y-00947*
X-00245Y-00937*
Y-00932*
X-00247Y-00926*
X-00251Y-00922*
X-00257Y-0092*
X-00262*
X-00266Y-00921*
X-00273Y-00918*
X-00276Y-00916*
Y-00911*
X-00333*
X-00339Y-00903*
Y-00901*
X-00333Y-00894*
X-00276*
Y-00893*
X-00242*
X-0021Y-00925*
Y-00954*
X-00212Y-00956*
X-00214Y-00962*
Y-00967*
X-00212Y-00973*
X-00208Y-00977*
X-00208Y-00977*
Y-01068*
X-00208Y-01069*
Y-01094*
Y-01098*
X-00215Y-01104*
X-00217*
X-00224Y-01098*
Y-01094*
Y-01041*
X-00247*
Y-01094*
Y-01098*
X-00255Y-01104*
X-00974*
Y-0052*
X-0047*
X-00466Y-00519*
X-00462Y-00517*
X-0046Y-00513*
X-00459Y-0051*
Y00515*
X-0046Y00518*
X-00462Y00522*
X-00466Y00524*
X-0047Y00525*
X-00683*
X-00687Y00535*
X-0067Y00555*
X-00697Y00578*
X-00723Y00601*
X-00745Y00577*
X-00749Y00569*
X-0075Y0056*
X-00748Y00552*
X-00742Y00544*
X-00731Y00535*
X-00735Y00525*
X-00974*
Y00585*
Y00732*
X-00974Y00733*
X-00972Y00734*
X-00963Y00736*
X-0096Y00733*
X-00923Y00775*
X-00946Y00795*
X-00958Y00782*
X-00967Y00786*
X-00967Y0079*
X-00959Y00815*
X-00949Y00839*
X-00936Y00862*
X-00921Y00884*
X-00904Y00904*
X-00884Y00921*
X-00862Y00936*
X-00839Y00949*
X-00818Y00958*
X-00812Y0095*
X-00818Y00942*
X-00792Y00919*
X-00765Y00896*
X-00744Y0092*
X-00739Y00928*
X-00738Y00937*
X-0074Y00946*
X-00746Y00953*
X-00756Y00961*
X-00752Y00972*
X-00747Y00972*
X-00738Y00972*
X-00734Y00973*
X-00732Y00974*
X00734*
X00735Y00974*
G37*
G36*
X00364Y-00499D02*
X00365Y-00509D01*
X00359Y-00514*
X00353Y-00513*
X00347Y-00514*
X00343Y-00517*
X00333Y-00517*
X00276*
Y-00521*
X00192*
X00188Y-00522*
X00187Y-00523*
X00181Y-00515*
X00202Y-00494*
X00204Y-0049*
X00205Y-00488*
X00247*
Y-0048*
X00345*
X00364Y-00499*
G37*
G36*
X00333Y-0054D02*
X00343Y-0054D01*
X00344Y-0054*
X00346Y-00542*
X00346Y-00542*
X00347Y-00542*
X00349Y-00544*
X00351Y-00544*
X00352Y-00544*
X00352*
X00355Y-00545*
X00357Y-00544*
X00357*
X00358Y-00544*
X0036Y-00544*
X00362Y-00542*
X00363Y-00542*
X00365Y-00542*
X00371Y-00545*
X00373Y-00547*
Y-00566*
X00363Y-00568*
X00362Y-00566*
X00358Y-00562*
X00352Y-0056*
X00347*
X00343Y-00561*
X00342Y-0056*
X00333Y-00556*
X00276*
Y-00557*
X00236*
X00232Y-00558*
X00229Y-0056*
X0016Y-0063*
X00157*
X00151Y-00632*
X00147Y-00636*
X00145Y-00642*
Y-00647*
X00147Y-00653*
X00151Y-00657*
X00157Y-00659*
X00162*
X00168Y-00657*
X00172Y-00653*
X00174Y-00647*
Y-00644*
X00241Y-00578*
X00276*
Y-00618*
Y-00658*
Y-00697*
Y-00734*
X00226*
X00223Y-00732*
X00218Y-0073*
X00212*
X00206Y-00732*
X00202Y-00736*
X002Y-00742*
Y-00747*
X00192Y-00754*
X00171*
X00169Y-00752*
Y-00752*
X00167Y-00746*
X00163Y-00742*
X00157Y-0074*
X00152*
X00146Y-00742*
X00142Y-00746*
X0014Y-00752*
Y-00757*
X00142Y-00763*
X00146Y-00767*
X00152Y-00769*
X00157*
X00158Y-00769*
X0016Y-00772*
X00163Y-00774*
X00167Y-00775*
X00276*
Y-00795*
Y-00835*
Y-00872*
X002*
X00177Y-0085*
X00174Y-00845*
X00175Y-00837*
X00175Y-00837*
Y-00831*
X00172Y-00826*
X00168Y-00822*
X00163Y-00819*
X00157*
X00151Y-00822*
X00147Y-00826*
X00145Y-00831*
Y-00837*
X00138Y-00847*
X00106*
X00089Y-0083*
Y-00827*
X00087Y-00821*
X00083Y-00817*
X00077Y-00815*
X00072*
X00066Y-00817*
X00062Y-00821*
X0006Y-00827*
Y-00832*
X00062Y-00838*
X00066Y-00842*
X00072Y-00844*
X00075*
X00095Y-00864*
X00098Y-00866*
X00102Y-00867*
X00166*
X00175Y-00876*
X00176Y-00887*
X00172Y-00891*
X0017Y-00897*
Y-00902*
X00172Y-00908*
X00176Y-00912*
X00182Y-00914*
X00187*
X00193Y-00912*
X00197Y-00908*
X00199Y-00902*
Y-00897*
X00202Y-00893*
X00276*
Y-00933*
Y-00973*
Y-01012*
X00333*
Y-00989*
X00343Y-00984*
X00345Y-00985*
X00505*
X00508Y-00983*
X0051Y-0098*
Y-00935*
X00509Y-00932*
X0051Y-0093*
Y-0088*
X00508Y-00876*
X00505Y-00874*
X00345*
X00343Y-00875*
X00343Y-00875*
X00333Y-0087*
Y-00838*
X00338Y-00832*
X0034Y-00831*
Y-0083*
X005*
X00503Y-00828*
X00505Y-00825*
Y-0081*
X00504Y-00808*
X00509Y-00801*
X00511Y-008*
X00513Y-00801*
X00519*
X00522Y-00803*
X00524Y-00804*
X00525Y-00804*
X00542Y-00804*
X0055Y-00812*
Y-00817*
X00552Y-00823*
X00556Y-00827*
X00562Y-00829*
X00566*
X00569Y-00831*
X00575Y-00837*
Y-00841*
X00577Y-00846*
X00581Y-0085*
X00587Y-00853*
X00591*
X00595Y-00858*
X00596Y-00862*
X00595Y-00866*
Y-00872*
X00597Y-00877*
X00601Y-00882*
X00605Y-00893*
X00605Y-00893*
X00604Y-00895*
X00602Y-00905*
X00604Y-00914*
X00609Y-00923*
X00618Y-00928*
X00627Y-0093*
X00634Y-00929*
X00648*
Y-0093*
X00707*
X00709Y-00939*
Y-00946*
X00707Y-00955*
X00648*
Y-00958*
X00623*
X00622Y-00956*
X00618Y-00952*
X00612Y-0095*
X00607*
X00601Y-00952*
X00597Y-00956*
X00595Y-00962*
Y-00967*
X00592Y-00975*
X00586Y-00977*
X00582Y-00981*
X0058Y-00987*
Y-00992*
X00581Y-00995*
X00581Y-00999*
X00577Y-01007*
X00576Y-01007*
X00572Y-01011*
X0057Y-01017*
Y-01022*
X00562Y-01029*
X0055*
X00546Y-01031*
X00544Y-01035*
Y-011*
X00535Y-01104*
X00519*
X0051Y-011*
Y-01035*
X00508Y-01031*
X00505Y-01029*
X00345*
X00341Y-01031*
X00339Y-01035*
Y-011*
X0033Y-01104*
X00255*
X00247Y-01098*
Y-01094*
Y-01086*
X00257Y-01079*
X00262*
X00268Y-01077*
X00272Y-01073*
X00274Y-01067*
Y-01062*
X00272Y-01056*
X00268Y-01052*
X00262Y-0105*
X00257*
X00247Y-01043*
Y-01041*
X00237*
X00232Y-01031*
X00244Y-01019*
X00247*
X00253Y-01017*
X00257Y-01013*
X00259Y-01007*
Y-01002*
X00257Y-00996*
X00253Y-00992*
X00247Y-0099*
X00242*
X00236Y-00992*
X00232Y-00996*
X0023Y-01002*
Y-01005*
X00216Y-01019*
X00206Y-01015*
Y-00979*
X00207Y-00978*
X00209Y-00972*
Y-00967*
X00207Y-00961*
X00203Y-00957*
X00197Y-00955*
X00192*
X00186Y-00957*
X00182Y-00961*
X0018Y-00967*
Y-00972*
X00182Y-00978*
X00185Y-00981*
Y-01041*
X-00029*
Y-00913*
X-00019Y-00904*
X-00016Y-00904*
X-00011Y-00909*
X-00006Y-00911*
X0*
X00004Y-00909*
X00009Y-00904*
X00011Y-00899*
Y-00893*
X00009Y-00888*
X00004Y-00883*
X0Y-00881*
X-00006*
X-00009Y-00872*
Y-00845*
X-00007Y-00843*
X-00005Y-00837*
Y-00832*
X-00007Y-00826*
X-00011Y-00822*
X-00017Y-0082*
X-00022*
X-00028Y-00822*
X-00032Y-00826*
X-00034Y-00831*
X-00034Y-00831*
X-00038Y-00832*
X-00044Y-00834*
X-00046Y-00832*
X-00052Y-0083*
X-00057*
X-00063Y-00832*
X-00067Y-00836*
X-00069Y-00842*
Y-00847*
X-00068Y-0085*
X-00069Y-0085*
X-00071Y-00852*
X-00079Y-00856*
X-00082Y-00855*
X-00087*
X-00093Y-00857*
X-00097Y-00861*
X-00097Y-00862*
X-00105Y-00866*
X-00109Y-00866*
X-00112Y-00865*
X-00117*
X-00123Y-00867*
X-00132Y-00866*
X-00136Y-00862*
X-00142Y-0086*
X-00147*
X-00153Y-00862*
X-00156Y-00865*
X-00162Y-00866*
X-00168Y-00865*
X-00171Y-00862*
X-00177Y-0086*
X-00182*
X-00188Y-00862*
X-00192Y-00866*
X-00194Y-00872*
Y-00877*
X-00192Y-00883*
X-00188Y-00887*
Y-00904*
X-00198Y-00908*
X-00223Y-00883*
X-00217Y-00877*
X-00215Y-00873*
X-00214Y-0087*
Y-00765*
X-00212Y-00763*
X-0021Y-00757*
Y-00754*
X-00187Y-00732*
X-00185Y-00728*
X-00184Y-00725*
Y-0066*
X00075*
X00078Y-00659*
X00082Y-00657*
X00197Y-00542*
X0028*
X00284Y-00541*
X00286Y-0054*
X00303*
X00304Y-0054*
X00333*
G37*
G36*
X00355Y-00594D02*
X00357Y-00601D01*
X00351Y-0061*
X00349Y-0062*
X00351Y-00629*
X00357Y-00638*
X00359Y-00639*
X00359Y-00643*
X0036Y-00649*
X00358Y-00653*
X00353Y-00661*
X00351Y-00671*
Y-00706*
X00353Y-00716*
X00358Y-00724*
X00359Y-00725*
Y-0073*
X00359Y-00734*
X0036Y-00734*
X00355Y-00744*
X00355Y-00744*
X0034*
X00333Y-00736*
Y-00717*
Y-00677*
Y-00638*
Y-00596*
X00335*
X00339Y-00595*
X00343Y-00593*
X00345Y-00591*
X00355Y-00594*
G37*
G36*
X005Y-0081D02*
Y-00825D01*
X0034*
Y-0075*
X0044*
X005Y-0081*
G37*
G36*
X-00263Y-00797D02*
X-00257Y-00799D01*
X-00252*
X-00246Y-00797*
X-00245Y-00796*
X-00235Y-008*
Y-00865*
X-00242Y-00872*
X-00276*
Y-00835*
Y-00795*
X-00265*
X-00263Y-00797*
G37*
G36*
X00505Y-0093D02*
X00421D01*
Y-00929*
X00362*
Y-0093*
X00345*
Y-0088*
X00505*
Y-0093*
G37*
G36*
X-00473Y-00913D02*
X-0047Y-00915D01*
X-00469Y-00917*
Y-00917*
X-00469Y-00918*
X-00469Y-0092*
X-00467Y-00922*
X-00467Y-00923*
X-00467Y-00923*
X-00465Y-00925*
X-00463Y-00927*
X-00463Y-00927*
X-00462Y-00927*
X-0046Y-00929*
X-00458Y-00929*
X-00457Y-00929*
X-00457*
X-00455Y-0093*
X-00441*
X-00439Y-00931*
X-00435Y-00932*
X-00369*
X-00365Y-00931*
X-00361Y-00928*
X-0035Y-00928*
X-0035Y-00928*
X-00349Y-00929*
X-00346Y-00931*
X-00342Y-00932*
X-00333*
Y-00957*
X-00342Y-00965*
X-00347*
X-00348Y-00965*
X-00358Y-00959*
Y-00959*
X-00359Y-00954*
X-00361Y-00951*
X-00365Y-00948*
X-00369Y-00947*
X-00435*
X-00439Y-00948*
X-00443Y-00951*
X-00445Y-00954*
X-00446Y-00959*
Y-0096*
X-00455Y-00969*
X-00465*
X-00467Y-0097*
X-00467*
X-00468Y-0097*
X-0047Y-0097*
X-00472Y-00972*
X-00473Y-00972*
X-00473Y-00972*
X-00475Y-00974*
X-00477Y-00976*
X-00477Y-00976*
X-00477Y-00977*
X-00479Y-00979*
X-00479Y-00981*
X-00479Y-00982*
Y-00982*
X-0048Y-00985*
X-00479Y-00987*
Y-00987*
X-00479Y-00988*
X-00479Y-0099*
X-00477Y-00992*
X-00477Y-00993*
X-00477Y-00994*
X-00476Y-00999*
X-00477Y-01005*
X-00477Y-01005*
X-00478Y-01006*
X-0049Y-01018*
X-00499Y-01015*
Y-00931*
X-00479Y-00911*
X-00473Y-00913*
G37*
G36*
X00421Y-00935D02*
X00505D01*
Y-0098*
X00345*
Y-00935*
X00362*
X00362Y-00935*
X00421*
X00421Y-00935*
G37*
G36*
X00535Y-0075D02*
X00575D01*
Y-00685*
X00625*
Y-0075*
X00786*
Y-00783*
X00857*
Y-0075*
X00875*
Y-00805*
Y-011*
X0055*
Y-01035*
X00715*
Y-008*
X00525Y-00799*
X0043Y-00735*
Y-0067*
X00535*
Y-0075*
G37*
G36*
X00505Y-011D02*
X00345D01*
Y-01035*
X00505*
Y-011*
G37*
G36*
X00974Y-01104D02*
X00889D01*
X0088Y-011*
Y-00805*
Y-0075*
X00878Y-00746*
X00875Y-00744*
X00857*
Y-00716*
X00846*
Y-00715*
X00844Y-00705*
X00838Y-00697*
X00837Y-00697*
X00836Y-00695*
Y-00624*
X00835*
Y-00605*
X00834Y-00602*
Y-00602*
X00834Y-00601*
X00834Y-00599*
X00832Y-00597*
X00832Y-00596*
X00832Y-00596*
X0083Y-00594*
X00828Y-00592*
X00828Y-00592*
X00827Y-00592*
X00825Y-0059*
X00823Y-0059*
X00822Y-0059*
X00822*
X0082Y-00589*
X00817Y-0059*
X00817*
X00816Y-0059*
X00814Y-0059*
X00812Y-00592*
X00811Y-00592*
X00811Y-00592*
X00809Y-00594*
X00807Y-00596*
X00807Y-00596*
X00807Y-00597*
X00805Y-00599*
X00805Y-00601*
X00805Y-00601*
X00804Y-00601*
X00795Y-00601*
X00794Y-00599*
X00791Y-00594*
X0079Y-00594*
X00788Y-00592*
X00788Y-00592*
X00787Y-00592*
X00785Y-0059*
X00783Y-0059*
X00782Y-0059*
X00782*
X0078Y-00589*
X00777Y-0059*
X00777*
X00776Y-0059*
X00774Y-0059*
X00772Y-00592*
X00771Y-00592*
X00771Y-00592*
X00769Y-00594*
X00767Y-00596*
X00767Y-00596*
X00767Y-00597*
X00765Y-00599*
X00765Y-00601*
X00765Y-00602*
Y-00602*
X00764Y-00605*
X00765Y-00607*
Y-00607*
X00765Y-00608*
Y-00617*
X00758Y-00624*
X00753*
X00724*
X00717Y-00617*
Y-00606*
X00716Y-00601*
X00712Y-00596*
X0071Y-00594*
X00708Y-00592*
X00708Y-00592*
X00707Y-00592*
X00705Y-0059*
X00703Y-0059*
X00702Y-0059*
X00702*
X007Y-00589*
X00697Y-0059*
X00697*
X00696Y-0059*
X00694Y-0059*
X00692Y-00592*
X00691Y-00592*
X00691Y-00592*
X00689Y-00594*
X00687Y-00596*
X00687Y-00596*
X00687Y-00597*
X00685Y-00599*
X00685Y-00601*
X00685Y-00602*
Y-00602*
X00684Y-00605*
X00685Y-00607*
Y-00607*
X00685Y-00608*
X00685Y-0061*
X00686Y-00611*
Y-00624*
X00685*
Y-00695*
X00718*
X00724*
X0076*
X00768*
X00791*
X00797Y-00705*
X00796Y-00705*
X00795Y-00715*
Y-00716*
X00786*
Y-00744*
X0063*
Y-00685*
X00628Y-00681*
X00625Y-00679*
X00575*
X00571Y-00681*
X00569Y-00685*
Y-00744*
X0054*
Y-0067*
X00538Y-00666*
X00535Y-00664*
X0043*
X00426Y-00666*
X00419Y-00663*
X00413Y-00662*
X00413Y-00662*
X00402Y-00659*
X00396Y-00651*
X00396Y-00651*
X00395Y-0065*
X00398Y-00641*
X00399*
X00409Y-00639*
X00417Y-00633*
X00417Y-00633*
X00417Y-00633*
X00427Y-00633*
X00429Y-00634*
X00431Y-00638*
X00434Y-00639*
X00434Y-00643*
X00437Y-00646*
X0044Y-00648*
X00444Y-00649*
X00455*
X00459Y-00648*
X00462Y-00646*
X00465Y-00643*
X00465Y-00639*
X00468Y-00638*
X00473Y-00629*
X00475Y-0062*
Y-00552*
X00473Y-00543*
X00468Y-00534*
X00468Y-00531*
X00472Y-00525*
X00472Y-00525*
X00974*
Y-01104*
G37*
%LNhsmm-2*%
%LPC*%
G36*
X00267Y00957D02*
X00235D01*
Y00926*
X0029*
Y00934*
X00288Y00943*
X00283Y0095*
X00276Y00955*
X00267Y00957*
G37*
G36*
X00225D02*
X00192D01*
X00183Y00955*
X00176Y0095*
X00171Y00943*
X00169Y00934*
Y00926*
X00225*
Y00957*
G37*
G36*
X00452D02*
X0042D01*
Y00926*
X00475*
Y00934*
X00473Y00943*
X00468Y0095*
X00461Y00955*
X00452Y00957*
G37*
G36*
X0041D02*
X00377D01*
X00368Y00955*
X00361Y0095*
X00356Y00943*
X00354Y00934*
Y00926*
X0041*
Y00957*
G37*
G36*
X-00377Y00952D02*
X-0041D01*
Y00921*
X-00354*
Y00929*
X-00356Y00938*
X-00361Y00945*
X-00368Y0095*
X-00377Y00952*
G37*
G36*
X-0042D02*
X-00452D01*
X-00461Y0095*
X-00468Y00945*
X-00473Y00938*
X-00475Y00929*
Y00921*
X-0042*
Y00952*
G37*
G36*
X-00192D02*
X-00225D01*
Y00921*
X-00169*
Y00929*
X-00171Y00938*
X-00176Y00945*
X-00183Y0095*
X-00192Y00952*
G37*
G36*
X-00235D02*
X-00267D01*
X-00276Y0095*
X-00283Y00945*
X-00288Y00938*
X-0029Y00929*
Y00921*
X-00235*
Y00952*
G37*
G36*
X0075Y00956D02*
X00744Y00951D01*
X00739Y00944*
X00736Y00935*
X00737Y00926*
X00742Y00919*
X00763Y00894*
X00786Y00914*
X0075Y00956*
G37*
G36*
X0029Y00916D02*
X00235D01*
Y00886*
X00267*
X00276Y00888*
X00283Y00893*
X00288Y009*
X0029Y00909*
Y00916*
G37*
G36*
X00225D02*
X00169D01*
Y00909*
X00171Y009*
X00176Y00893*
X00183Y00888*
X00192Y00886*
X00225*
Y00916*
G37*
G36*
X00475D02*
X0042D01*
Y00886*
X00452*
X00461Y00888*
X00468Y00893*
X00473Y009*
X00475Y00909*
Y00916*
G37*
G36*
X0041D02*
X00354D01*
Y00909*
X00356Y009*
X00361Y00893*
X00368Y00888*
X00377Y00886*
X0041*
Y00916*
G37*
G36*
X-0042Y00911D02*
X-00475D01*
Y00904*
X-00473Y00895*
X-00473Y00895*
X-00479Y00886*
X-00483Y00886*
X-0058*
X-00589Y00885*
X-00598Y00879*
X-00598Y00879*
X-00602*
Y00872*
X-00603Y00871*
X-00605Y00861*
X-00603Y00851*
X-00602Y0085*
Y00843*
X-00598*
X-00598Y00843*
X-00589Y00837*
X-0058Y00835*
X-00493*
X-0047Y00812*
Y00805*
X-00468Y00799*
X-00465Y00793*
X-00459Y00789*
X-00452Y00788*
X-00377*
X-0037Y00789*
X-00364Y00793*
X-00364Y00794*
X-00345*
X-00335Y00796*
X-00326Y00801*
X-00321Y0081*
X-00319Y0082*
X-00321Y00829*
X-00326Y00838*
X-00335Y00843*
X-00345Y00845*
X-00367*
X-0037Y00847*
X-00377Y00848*
X-00434*
X-00457Y00872*
X-00452Y00881*
X-00452Y00881*
X-0042*
Y00911*
G37*
G36*
X-00354D02*
X-0041D01*
Y00881*
X-00377*
X-00368Y00883*
X-00361Y00888*
X-00356Y00895*
X-00354Y00904*
Y00911*
G37*
G36*
X-00169D02*
X-00225D01*
Y00881*
X-00192*
X-00183Y00883*
X-00176Y00888*
X-00171Y00895*
X-00169Y00904*
Y00911*
G37*
G36*
X-00235D02*
X-0029D01*
Y00904*
X-00288Y00895*
X-00283Y00888*
X-00276Y00883*
X-00267Y00881*
X-00235*
Y00911*
G37*
G36*
X-00825Y00935D02*
X-00846Y0091D01*
X-00851Y00902*
X-00852Y00894*
X-00849Y00885*
X-00844Y00878*
X-00838Y00873*
X-00802Y00915*
X-00825Y00935*
G37*
G36*
X00823Y00933D02*
X008Y00913D01*
X00836Y00871*
X00842Y00876*
X00848Y00883*
X0085Y00892*
X00849Y00901*
X00844Y00909*
X00823Y00933*
G37*
G36*
X-00794Y00908D02*
X-00831Y00866D01*
X-00825Y00861*
X-00817Y00857*
X-00808Y00856*
X-008Y00858*
X-00793Y00864*
X-00771Y00888*
X-00794Y00908*
G37*
G36*
X00793Y00907D02*
X0077Y00887D01*
X00791Y00862*
X00798Y00857*
X00807Y00854*
X00816Y00855*
X00823Y0086*
X00829Y00865*
X00793Y00907*
G37*
G36*
X00638Y00955D02*
X00583D01*
X00573Y00953*
X00572Y00952*
X00565*
Y00948*
X00565Y00948*
X00559Y00939*
X00558Y0093*
X00559Y0092*
X00565Y00911*
X00565Y00911*
Y00907*
X00571*
X00575Y00905*
X00577Y00895*
X00571Y00892*
X00565*
Y00888*
X00565Y00888*
X00559Y00879*
X00558Y0087*
Y00857*
X00559Y00847*
X00565Y00839*
X00594Y0081*
X00593Y00806*
X00594Y00799*
X00595Y00796*
X00591Y00793*
X00586Y00784*
X00584Y00775*
X00584Y00773*
X00575Y00768*
X00572Y00771*
X00565Y00777*
X00557Y00779*
X00548Y00778*
X0054Y00774*
X00534Y00769*
X00574Y00723*
X0057Y0072*
X00573Y00716*
X00547Y00693*
X00562Y00675*
X00558Y00665*
X00546*
X0054Y00664*
X00535Y0066*
X00484Y00609*
X00483Y00609*
X00475Y00614*
Y00621*
X0042*
Y00591*
X00452*
X00461Y00592*
X00468Y00597*
X00469Y00599*
X00474Y00599*
X00479Y00596*
Y00575*
X0048Y00572*
Y00572*
X0048Y00571*
X0048Y00569*
X00482Y00567*
X00482Y00566*
X00482Y00566*
X00484Y00564*
X00486Y00562*
X00486Y00562*
X00487Y00562*
X00489Y0056*
X00491Y0056*
X00492Y0056*
X00492*
X00495Y00559*
X00497Y0056*
X00497*
X00498Y0056*
X005Y0056*
X00502Y00562*
X00503Y00562*
X00503Y00562*
X00505Y00564*
X00507Y00566*
X00507Y00566*
X00507Y00567*
X00509Y00569*
X00509Y00571*
X00509Y00572*
Y00572*
X0051Y00575*
Y00584*
X00514Y00587*
X00524Y00589*
X00526Y00587*
X00526Y00587*
X00527Y00587*
X00529Y00585*
X00531Y00585*
X00532Y00585*
X00532*
X00535Y00584*
X00605*
X0061Y00585*
X00615Y00589*
X00625Y00598*
X00636Y00595*
X00636Y00593*
X0064Y00585*
X00662Y00561*
X00688Y00584*
X00715Y00607*
X00694Y00632*
X00688Y00636*
X0069Y00644*
X00691Y00646*
X00725*
X00768Y00597*
X00773Y00592*
X0078Y00591*
X00787Y00591*
X00793Y00595*
X00812Y00611*
X00816Y00617*
X00818Y00624*
X00817Y0063*
X00813Y00636*
X00764Y00693*
X00763Y00694*
X00766Y00704*
X00793*
X00798Y00705*
X00799Y00706*
X00803*
X00842Y00661*
X00847Y00657*
X00854Y00655*
X00861Y00656*
X00867Y00659*
X00886Y00676*
X0089Y00681*
X00892Y00688*
X00891Y00695*
X00888Y00701*
X00838Y00758*
X00833Y00762*
X00826Y00764*
X00819Y00763*
X00813Y00759*
X00794Y00743*
X0079Y00738*
X0079Y00736*
X00788Y00735*
X00788Y00735*
X00687*
X00683Y00745*
X0069Y00751*
X00695Y00756*
X00696Y00763*
X00695Y0077*
X00692Y00776*
X00668Y00803*
X00668Y00805*
X00663Y00813*
X00609Y00867*
Y0087*
X00607Y00879*
X00601Y00888*
X00601Y00888*
Y00892*
X00597*
X00595Y00894*
X00599Y00904*
X00628*
X00651Y00881*
X00654Y00879*
X00668Y00865*
X00668Y00864*
X00671Y00857*
X0072Y00801*
X00726Y00797*
X00733Y00795*
X0074Y00796*
X00746Y00799*
X00765Y00816*
X00769Y00821*
X00771Y00828*
X0077Y00835*
X00766Y00841*
X00717Y00897*
X00712Y00902*
X00705Y00903*
X00702Y00903*
X00688Y00918*
X00684Y0092*
X00656Y00948*
X00648Y00953*
X00638Y00955*
G37*
G36*
X-00903Y00835D02*
X-00911Y00833D01*
X-00918Y00827*
X-0094Y00803*
X-00917Y00783*
X-0088Y00825*
X-00886Y00829*
X-00894Y00834*
X-00903Y00835*
G37*
G36*
X00901Y00833D02*
X00892Y00832D01*
X00884Y00828*
X00879Y00823*
X00915Y00781*
X00938Y00801*
X00917Y00826*
X0091Y00831*
X00901Y00833*
G37*
G36*
X-00873Y00818D02*
X-00909Y00776D01*
X-00886Y00756*
X-00865Y00781*
X-0086Y00788*
X-00859Y00797*
X-00862Y00806*
X-00867Y00813*
X-00873Y00818*
G37*
G36*
X00871Y00816D02*
X00865Y00811D01*
X0086Y00804*
X00858Y00796*
X00859Y00787*
X00863Y00779*
X00884Y00755*
X00907Y00775*
X00871Y00816*
G37*
G36*
X-00916Y00769D02*
X-00952Y00727D01*
X-00946Y00722*
X-00939Y00717*
X-0093Y00716*
X-00921Y00719*
X-00914Y00724*
X-00893Y00749*
X-00916Y00769*
G37*
G36*
X00914Y00767D02*
X00891Y00747D01*
X00912Y00722*
X00919Y00717*
X00928Y00715*
X00937Y00716*
X00945Y0072*
X0095Y00725*
X00914Y00767*
G37*
G36*
X00527Y00762D02*
X00521Y00757D01*
X00516Y0075*
X00513Y00742*
X00514Y00733*
X00519Y00725*
X0054Y007*
X00563Y0072*
X00527Y00762*
G37*
G36*
X-00707Y00905D02*
X-00713Y00903D01*
X-00719Y00899*
X-00768Y00842*
X-00772Y00836*
X-00772Y00829*
X-00771Y00823*
X-00766Y00817*
X-00752Y00805*
Y00766*
X-00751Y00761*
X-00748Y00756*
X-00731Y00739*
X-00734Y00728*
X-00743Y00723*
X-00748Y00714*
X-00748Y00713*
X-00786Y00675*
X-00791Y00667*
X-00795Y00664*
X-00825Y00635*
X-00835*
X-00842Y00634*
X-0093*
X-00939Y00632*
X-00948Y00626*
X-00948Y00626*
X-00952*
Y00619*
X-00953Y00618*
X-00955Y00608*
X-00953Y00598*
X-00952Y00597*
Y0059*
X-00948*
X-00948Y0059*
X-00939Y00584*
X-0093Y00583*
X-00836*
X-00829Y00584*
X-00814*
X-00804Y00586*
X-00796Y00591*
X-00792Y00595*
X-00789Y00593*
X-00782Y00592*
X-00775Y00594*
X-00769Y00598*
X-0072Y00655*
X-00717Y00661*
X-00716Y00668*
X-00717Y00672*
X-00706Y00682*
X-00701Y00691*
X-007Y00694*
X-00689Y00697*
X-00546Y00554*
X-00541Y0055*
X-00535Y00549*
X00111*
X00117Y0055*
X00122Y00554*
X00134Y00565*
X00135Y00567*
X00136Y00568*
X00136Y00568*
X00137Y0057*
X00138Y00572*
X00138Y00573*
Y00574*
X00138Y00576*
X00145Y00582*
X00147Y00583*
X00149Y00584*
X00154Y00579*
X00156Y00577*
X00156Y00577*
X00157Y00577*
X00159Y00575*
X00161Y00575*
X00162Y00575*
X00162*
X00165Y00574*
X00167Y00575*
X00167*
X00168Y00575*
X0017Y00575*
X00172Y00577*
X00173Y00577*
X00173Y00577*
X00175Y00579*
X00177Y00581*
X00177Y00581*
X00177Y00582*
X00179Y00584*
X00179Y00584*
X0018Y00587*
X00186Y00591*
X0019Y00591*
X00192Y00591*
X00225*
Y00621*
X00169*
Y00621*
X00159Y00617*
X00153Y00623*
X00148Y00626*
X00142Y00627*
X00096*
X00093Y00634*
X00093Y00637*
X00093Y00637*
X00095Y00639*
X00097Y00641*
X00097Y00641*
X00097Y00642*
X00099Y00644*
X00099Y00646*
X00099Y00647*
Y00647*
X001Y0065*
Y00733*
X00126Y00759*
X00176*
X00179Y00752*
X00179Y00749*
X00176Y00744*
X00174Y00737*
Y00712*
X00176Y00705*
X00179Y00699*
X00185Y00696*
X00192Y00694*
X00267*
X00274Y00696*
X00279Y00699*
X00305*
X00314Y00701*
X00323Y00706*
X00328Y00715*
X0033Y00725*
X00328Y00734*
X00323Y00743*
X00314Y00748*
X00309Y00749*
X0031Y00759*
X00341*
X00347Y0076*
X00352Y00764*
X00381Y00793*
X00452*
X00459Y00794*
X00465Y00798*
X00468Y00804*
X0047Y0081*
Y00835*
X00468Y00842*
X00465Y00848*
X00459Y00852*
X00452Y00853*
X00377*
X0037Y00852*
X00364Y00848*
X00361Y00842*
X00359Y00835*
Y00814*
X00335Y0079*
X00309*
X00308Y008*
X00314Y00801*
X00323Y00806*
X00328Y00815*
X0033Y00825*
X00328Y00834*
X00323Y00843*
X00314Y00848*
X00305Y0085*
X00277*
X00274Y00852*
X00267Y00853*
X00192*
X00185Y00852*
X00179Y00848*
X00176Y00842*
X00174Y00835*
Y0081*
X00176Y00804*
X00178Y008*
X00176Y00793*
X00174Y0079*
X00119*
X00114Y00789*
X00109Y00785*
X00074Y0075*
X0007Y00745*
X00069Y0074*
Y0065*
X0007Y00647*
Y00647*
X0007Y00646*
X0007Y00644*
X00072Y00642*
X00072Y00641*
X00072Y00641*
X00074Y00639*
X00076Y00637*
X00076Y00637*
X00076Y00634*
X00073Y00627*
X00013*
X0Y00641*
Y00695*
X0Y007*
X-00004Y00705*
X-00127Y00829*
X-00132Y00832*
X-00138Y00833*
X-00175*
X-00176Y00837*
X-00179Y00843*
X-00185Y00847*
X-00192Y00848*
X-00267*
X-00274Y00847*
X-0028Y00843*
X-00283Y00837*
X-00285Y0083*
Y00805*
X-00283Y00799*
X-0028Y00793*
X-00274Y00789*
X-00267Y00788*
X-00192*
X-00185Y00789*
X-00179Y00793*
X-00176Y00799*
X-00175Y00803*
X-00144*
X-0003Y00688*
Y00635*
X-00029Y00629*
X-00025Y00624*
X-00003Y00601*
X00001Y00598*
X00007Y00597*
X00109*
X0011Y00596*
X00112Y00588*
X00112Y00587*
X00105Y0058*
X-00177*
X-0018Y0059*
X-00176Y00592*
X-00171Y006*
X-00169Y00609*
Y00616*
X-0023*
X-0029*
Y00609*
X-00288Y006*
X-00283Y00592*
X-00279Y0059*
X-00282Y0058*
X-00362*
X-00365Y0059*
X-00361Y00592*
X-00356Y006*
X-00354Y00609*
Y00616*
X-00415*
X-00475*
Y00609*
X-00473Y006*
X-00468Y00592*
X-00464Y0059*
X-00467Y0058*
X-00529*
X-00611Y00662*
X-00604Y00669*
X-00602Y00668*
X-00594Y00663*
X-00586Y00662*
X-00577Y00664*
X-0057Y0067*
X-00549Y00694*
X-00575Y00718*
X-00602Y00741*
X-00623Y00716*
X-00628Y00709*
X-00629Y007*
X-00627Y00692*
X-00627Y00692*
X-00638Y00689*
X-00674Y00725*
X-00668Y00733*
X-00667Y00733*
X-0066Y00732*
X-00654Y00734*
X-00648Y00738*
X-00605Y00787*
X-00571*
X-0057Y00785*
X-00569Y00777*
X-00574Y00773*
X-00595Y00749*
X-00569Y00725*
X-00542Y00702*
X-00525Y00722*
X-00515Y00718*
Y0069*
X-00514Y00684*
X-0051Y00679*
X-00485Y00654*
X-0048Y0065*
X-00479Y0065*
X-00474Y00644*
X-00474Y00639*
X-00475Y00634*
Y00626*
X-00415*
X-00354*
Y00634*
X-00355Y00639*
X-00349Y00649*
X-00325*
X-00322Y0065*
X-00322*
X-00321Y0065*
X-00319Y0065*
X-00317Y00652*
X-00316Y00652*
X-00316Y00652*
X-00314Y00654*
X-00312Y00656*
X-00312Y00656*
X-00312Y00657*
X-0031Y00659*
X-0031Y00661*
X-0031Y00662*
Y00662*
X-00309Y00665*
X-0031Y00667*
Y00667*
X-0031Y00668*
X-0031Y0067*
X-00312Y00672*
X-00312Y00673*
X-00312Y00673*
X-00314Y00675*
X-00316Y00677*
X-00316Y00677*
X-00317Y00677*
X-00319Y00679*
X-00321Y00679*
X-00322Y00679*
X-00322*
X-00325Y0068*
X-0034*
X-00341Y0069*
X-00335Y00691*
X-00326Y00696*
X-00321Y00705*
X-00319Y00715*
X-00321Y00724*
X-00326Y00733*
X-00335Y00738*
X-00345Y0074*
X-00361*
X-00364Y00745*
X-0037Y00748*
X-00377Y0075*
X-00452*
X-00459Y00748*
X-00465Y00745*
X-00468Y00739*
X-0047Y00732*
Y00707*
X-00468Y007*
X-00465Y00694*
X-00459Y00691*
X-00455Y0069*
X-00456Y0068*
X-00468*
X-00484Y00696*
Y0078*
X-00485Y00785*
X-00489Y0079*
X-00512Y00813*
X-00517Y00817*
X-00522Y00818*
X-00599*
X-00601Y0082*
X-00619Y00836*
X-00625Y0084*
X-00632Y0084*
X-00639Y00839*
X-00645Y00834*
X-00694Y00778*
X-00697Y00772*
X-00698Y00765*
X-00698Y00763*
X-00707Y00758*
X-00722Y00773*
Y00803*
X-00673Y00859*
X-0067Y00865*
X-00669Y00872*
X-00671Y00879*
X-00675Y00884*
X-00694Y00901*
X-007Y00904*
X-00707Y00905*
G37*
G36*
X00452Y00755D02*
X00377D01*
X0037Y00753*
X00364Y0075*
X00361Y00744*
X00359Y00737*
Y00716*
X00338Y00694*
X00337Y00694*
X00337*
X00336Y00694*
X00334Y00694*
X00332Y00692*
X00331Y00692*
X00331Y00692*
X00329Y0069*
X00327Y00688*
X00327Y00688*
X00327Y00687*
X00325Y00685*
X00325Y00683*
X00325Y00682*
Y00682*
X00324Y0068*
X00325Y00677*
Y00677*
X00325Y00676*
X00325Y00674*
X00327Y00672*
X00327Y00671*
X00327Y00671*
X00329Y00669*
X00331Y00667*
X00331Y00667*
X00332Y00667*
X00334Y00665*
X00336Y00665*
X00337Y00665*
X00337*
X0034Y00664*
X00345*
X0035Y00665*
X00355Y00669*
X00381Y00694*
X00452*
X00459Y00696*
X00465Y00699*
X00468Y00705*
X0047Y00712*
Y00737*
X00468Y00744*
X00465Y0075*
X00459Y00753*
X00452Y00755*
G37*
G36*
X-00795Y00795D02*
X-00804Y00793D01*
X-00813Y00788*
X-00813Y00787*
X-0086Y0074*
X-00866Y00732*
X-00866Y0073*
X-00889Y00703*
X-00893Y00697*
X-00894Y0069*
X-00892Y00683*
X-00888Y00677*
X-00869Y00661*
X-00863Y00658*
X-00856Y00657*
X-00849Y00659*
X-00844Y00663*
X-00794Y00719*
X-00791Y00725*
X-0079Y00732*
X-00791Y00736*
X-00776Y00751*
X-00771Y00759*
X-00769Y00769*
Y0077*
X-00771Y00779*
X-00776Y00788*
X-00785Y00793*
X-00795Y00795*
G37*
G36*
X-00192Y0075D02*
X-00267D01*
X-00274Y00748*
X-0028Y00745*
X-00283Y00739*
X-00285Y00732*
Y00707*
X-00283Y007*
X-0028Y00694*
X-00274Y00691*
X-00267Y00689*
X-00196*
X-0016Y00654*
X-00155Y0065*
X-0015Y00649*
X-0012*
X-00117Y0065*
X-00117*
X-00116Y0065*
X-00114Y0065*
X-00112Y00652*
X-00111Y00652*
X-00111Y00652*
X-00109Y00654*
X-00107Y00656*
X-00107Y00656*
X-00107Y00657*
X-00105Y00659*
X-00105Y00661*
X-00105Y00662*
Y00662*
X-00104Y00665*
X-00105Y00667*
Y00667*
X-00105Y00668*
X-00105Y0067*
X-00107Y00672*
X-00107Y00673*
X-00107Y00673*
X-00109Y00675*
X-00111Y00677*
X-00111Y00677*
X-00112Y00677*
X-00114Y00679*
X-00116Y00679*
X-00117Y00679*
X-00117*
X-0012Y0068*
X-00143*
X-00174Y00711*
Y00732*
X-00176Y00739*
X-00179Y00745*
X-00185Y00748*
X-00192Y0075*
G37*
G36*
X00452Y00662D02*
X0042D01*
Y00631*
X00475*
Y00639*
X00473Y00647*
X00468Y00655*
X00461Y0066*
X00452Y00662*
G37*
G36*
X00267D02*
X00235D01*
Y00631*
X0029*
Y00639*
X00288Y00647*
X00283Y00655*
X00276Y0066*
X00267Y00662*
G37*
G36*
X0041D02*
X00377D01*
X00368Y0066*
X00361Y00655*
X00356Y00647*
X00354Y00639*
Y00631*
X0041*
Y00662*
G37*
G36*
X00225D02*
X00192D01*
X00183Y0066*
X00176Y00655*
X00171Y00647*
X00169Y00639*
Y00631*
X00225*
Y00662*
G37*
G36*
X00415Y00626D02*
D01*
G37*
G36*
X-00192Y00657D02*
X-00225D01*
Y00626*
X-00169*
Y00634*
X-00171Y00642*
X-00176Y0065*
X-00183Y00655*
X-00192Y00657*
G37*
G36*
X-00235D02*
X-00267D01*
X-00276Y00655*
X-00283Y0065*
X-00288Y00642*
X-0029Y00634*
Y00626*
X-00235*
Y00657*
G37*
G36*
X0041Y00621D02*
X00354D01*
Y00614*
X00356Y00605*
X00361Y00597*
X00368Y00592*
X00377Y00591*
X0041*
Y00621*
G37*
G36*
X0029D02*
X00235D01*
Y00591*
X00267*
X00276Y00592*
X00283Y00597*
X00288Y00605*
X0029Y00614*
Y00621*
G37*
G36*
X-0068Y00641D02*
X-00688Y00639D01*
X-00696Y00633*
X-00717Y00609*
X-00694Y00589*
X-00658Y00631*
X-00663Y00636*
X-00671Y0064*
X-0068Y00641*
G37*
G36*
X-0065Y00624D02*
X-00686Y00582D01*
X-00663Y00562*
X-00642Y00587*
X-00638Y00595*
X-00636Y00604*
X-00639Y00612*
X-00644Y00619*
X-0065Y00624*
G37*
G36*
X00307Y00559D02*
X00302D01*
X00296Y00557*
X00292Y00553*
X0029Y00547*
Y00542*
X00292Y00536*
X00296Y00532*
X00302Y0053*
X00307*
X00313Y00532*
X00317Y00536*
X00319Y00542*
Y00547*
X00317Y00553*
X00313Y00557*
X00307Y00559*
G37*
G36*
X-00222Y00434D02*
X-00227D01*
X-00233Y00432*
X-00236Y00429*
X-00242Y00428*
X-00248Y00429*
X-00251Y00432*
X-00257Y00434*
X-00262*
X-00268Y00432*
X-00272Y00428*
X-00274Y00422*
Y00417*
X-00272Y00411*
X-00271Y0041*
X-00272Y004*
X-00278*
X-00286*
X-00288Y0041*
X-00287Y00411*
X-00285Y00417*
Y00422*
X-00287Y00428*
X-00291Y00432*
X-00297Y00434*
X-00302*
X-00308Y00432*
X-00312Y00428*
X-00314Y00422*
Y00417*
X-00312Y00411*
X-00311Y0041*
X-00312Y004*
X-00317*
Y00329*
X-0028*
X-00273*
X-00241*
X-00234*
X-00205*
Y00253*
X-00204Y00249*
X-002Y00248*
X-00125*
X-00121Y00249*
X-00119Y00253*
Y00404*
X-00121Y00407*
X-00125Y00409*
X-00136*
X-00137Y00409*
X-00142*
X-00143Y00409*
X-002*
X-00202Y00408*
X-00211Y00413*
X-0021Y00417*
Y00422*
X-00212Y00428*
X-00216Y00432*
X-00222Y00434*
G37*
G36*
X00282Y00514D02*
X00277D01*
X00271Y00512*
X00267Y00508*
X00265Y00502*
Y00497*
X00267Y00491*
X00271Y00487*
X00277Y00485*
X0028*
X00328Y00436*
Y00407*
X00321Y004*
X00302*
X00302Y00404*
X003Y00407*
X00286Y0042*
Y00445*
X00287Y00446*
X00289Y00452*
Y00457*
X00287Y00463*
X00283Y00467*
X00277Y00469*
X00272*
X00266Y00467*
X00262Y00463*
X0026Y00457*
Y00452*
X00262Y00446*
X00263Y00445*
X00262Y0044*
X00252Y00437*
X00249Y00439*
Y00442*
X00247Y00448*
X00243Y00452*
X00237Y00454*
X00232*
X00226Y00452*
X00222Y00448*
X0022Y00442*
Y00437*
X00222Y00431*
X00226Y00427*
X00232Y00425*
X00235*
X00249Y0041*
X00249Y004*
X00243*
Y00329*
X00277*
X00282*
X00319*
X00326*
X00349*
Y0025*
X00351Y00246*
X00355Y00244*
X0043*
X00433Y00246*
X00435Y0025*
Y004*
X00433Y00404*
X0043Y00405*
X00355*
X00349Y00413*
Y0044*
X00348Y00444*
X00346Y00448*
X00294Y00499*
Y00502*
X00292Y00508*
X00288Y00512*
X00282Y00514*
G37*
G36*
X-00365Y00405D02*
X-0044D01*
X-00443Y00403*
X-00445Y004*
Y00249*
X-00443Y00246*
X-0044Y00244*
X-00365*
X-00361Y00246*
X-00359Y00249*
Y004*
X-00361Y00403*
X-00365Y00405*
G37*
G36*
X00147Y00404D02*
X00142D01*
X00141Y00404*
X00129*
X00125Y00402*
X00124Y00399*
Y00248*
X00125Y00244*
X00129Y00243*
X00204*
X00208Y00244*
X0021Y00248*
Y00329*
X00209Y0033*
Y00399*
X00207Y00402*
X00204Y00404*
X00148*
X00147Y00404*
G37*
G36*
X00142Y-00185D02*
X00137D01*
X00131Y-00187*
X00127Y-00191*
X00125Y-00197*
Y-00202*
X00127Y-00208*
X00131Y-00212*
X00137Y-00214*
X00142*
X00149Y-00219*
X00153Y-00223*
X00159Y-00225*
X00165*
X0017Y-00223*
X00174Y-00219*
X00176Y-00213*
Y-00208*
X00174Y-00202*
X0017Y-00198*
X00165Y-00196*
X00159*
X00152Y-00191*
X00148Y-00187*
X00142Y-00185*
G37*
G36*
X-00382Y-0051D02*
X-00387D01*
X-00393Y-00512*
X-00397Y-00516*
X-00399Y-00522*
Y-00525*
X-00418Y-00544*
X-0042Y-00547*
X-00421Y-00551*
Y-00573*
X-00428*
Y-00616*
X-00394*
Y-00573*
X-00401*
Y-00555*
X-00385Y-00539*
X-00382*
X-00376Y-00537*
X-00372Y-00533*
X-0037Y-00527*
Y-00522*
X-00372Y-00516*
X-00376Y-00512*
X-00382Y-0051*
G37*
G36*
X-00276Y-00517D02*
X-00333D01*
Y-00559*
Y-00599*
Y-00636*
X-00396*
X-004Y-00637*
X-00404Y-00639*
X-00409Y-00644*
X-00499*
Y-00634*
X-00541*
Y-00675*
X-00499*
Y-00665*
X-00405*
X-00401Y-00664*
X-00397Y-00662*
X-00392Y-00657*
X-00333*
Y-00697*
X-00276*
Y-00652*
X-00271Y-0065*
X-00266Y-00649*
X-00263Y-00652*
X-00257Y-00654*
X-00252*
X-00246Y-00652*
X-00242Y-00648*
X-0024Y-00642*
Y-00637*
X-00242Y-00631*
X-00246Y-00627*
X-00252Y-00625*
X-00257*
X-00263Y-00627*
X-00266Y-0063*
X-00271Y-00629*
X-00276Y-00627*
Y-00579*
Y-0054*
Y-00517*
G37*
G36*
X-00561Y-00573D02*
X-00595D01*
Y-00616*
X-00594*
Y-00634*
X-006*
Y-00675*
X-00558*
Y-00634*
X-00563*
Y-00616*
X-00561*
Y-00573*
G37*
G36*
X-00855Y-00579D02*
X-00857Y-0058D01*
X-00857*
X-00858Y-0058*
X-0086Y-0058*
X-00862Y-00582*
X-00863Y-00582*
X-00863Y-00582*
X-00865Y-00584*
X-00867Y-00586*
X-00867Y-00586*
X-00867Y-00587*
X-00869Y-00589*
X-00869Y-00591*
X-00869Y-00592*
Y-00592*
X-0087Y-00595*
X-00869Y-00597*
Y-00597*
X-00869Y-00598*
X-00869Y-00599*
Y-00617*
X-00876Y-00624*
X-0088*
X-0091*
Y-00695*
X-00906*
Y-00703*
X-00905Y-00709*
X-00902Y-00714*
X-00868Y-00748*
Y-00791*
X-00834*
Y-00785*
X-00805*
Y-00791*
X-00771*
Y-00748*
X-00805*
Y-00754*
X-00834*
Y-00748*
X-00834*
Y-00745*
X-00835Y-00739*
X-00839Y-00734*
X-00867Y-00705*
X-00863Y-00695*
X-00834*
X-00827*
X-00795*
X-00787*
X-00755*
X-00748*
X-00719*
Y-00624*
X-0072*
Y-00604*
X-0072Y-00603*
X-0072Y-00602*
Y-00602*
X-00719Y-006*
X-0072Y-00597*
Y-00597*
X-0072Y-00596*
X-0072Y-00594*
X-00722Y-00592*
X-00722Y-00591*
X-00722Y-00591*
X-00724Y-00589*
X-00726Y-00587*
X-00726Y-00587*
X-00727Y-00587*
X-00729Y-00585*
X-00731Y-00585*
X-00732Y-00585*
X-00732*
X-00735Y-00584*
X-00737Y-00585*
X-00737*
X-00738Y-00585*
X-0074Y-00585*
X-00742Y-00587*
X-00743Y-00587*
X-00743Y-00587*
X-00745Y-00589*
X-00746Y-0059*
X-0075Y-00595*
X-00759Y-00596*
X-0076Y-00596*
X-0076Y-00594*
X-00762Y-00592*
X-00762Y-00591*
X-00762Y-00591*
X-00764Y-00589*
X-00766Y-00587*
X-00766Y-00587*
X-00767Y-00587*
X-00769Y-00585*
X-00771Y-00585*
X-00772Y-00585*
X-00772*
X-00775Y-00584*
X-00777Y-00585*
X-00777*
X-00778Y-00585*
X-0078Y-00585*
X-00782Y-00587*
X-00783Y-00587*
X-00783Y-00587*
X-00785Y-00589*
X-00786Y-00589*
X-00787Y-00591*
X-00787Y-00591*
X-00787Y-00591*
X-00789Y-00594*
X-00789Y-00596*
X-008*
X-008Y-00594*
X-00802Y-00591*
X-00802Y-00591*
X-00802Y-00591*
X-00803Y-00589*
X-00804Y-00589*
X-00806Y-00587*
X-00806Y-00587*
X-00807Y-00587*
X-00809Y-00585*
X-00811Y-00585*
X-00812Y-00585*
X-00812*
X-00815Y-00584*
X-00817Y-00585*
X-00817*
X-00818Y-00585*
X-0082Y-00585*
X-00822Y-00587*
X-00823Y-00587*
X-00823Y-00587*
X-00825Y-00589*
X-00827Y-00591*
X-00827Y-00591*
X-00827Y-00592*
X-00828Y-00593*
X-0083Y-00594*
X-00839Y-00593*
X-00839Y-0059*
X-00843Y-00585*
X-00844Y-00584*
X-00846Y-00582*
X-00846Y-00582*
X-00847Y-00582*
X-00849Y-0058*
X-00851Y-0058*
X-00852Y-0058*
X-00852*
X-00855Y-00579*
G37*
G36*
X-00564Y-00747D02*
X-0063D01*
X-00634Y-00748*
X-00635Y-00749*
X-0065*
X-00652Y-0075*
X-00652*
X-00653Y-0075*
X-00655Y-0075*
X-00657Y-00752*
X-00658Y-00752*
X-00658Y-00752*
X-0066Y-00754*
X-00662Y-00756*
X-00662Y-00756*
X-00662Y-00757*
X-00664Y-00759*
X-00664Y-00761*
X-00664Y-00762*
Y-00762*
X-00665Y-00765*
X-00664Y-00767*
Y-00767*
X-00664Y-00768*
X-00664Y-0077*
X-00662Y-00772*
X-00662Y-00773*
X-00662Y-00773*
X-0066Y-00775*
X-00658Y-00777*
X-00658Y-00777*
X-00657Y-00777*
X-00655Y-00779*
X-00653Y-00779*
X-00652Y-00779*
X-00652*
X-0065Y-0078*
X-00635*
X-00634Y-00781*
X-0063Y-00782*
X-00564*
X-0056Y-00781*
X-00556Y-00778*
X-00554Y-00775*
X-00553Y-0077*
Y-00759*
X-00554Y-00754*
X-00556Y-00751*
X-0056Y-00748*
X-00564Y-00747*
G37*
G36*
X-00369Y-00797D02*
X-00435D01*
X-00439Y-00798*
X-00441Y-00799*
X-00455*
X-00457Y-008*
X-00457*
X-00458Y-008*
X-0046Y-008*
X-00462Y-00802*
X-00463Y-00802*
X-00463Y-00802*
X-00465Y-00804*
X-00467Y-00806*
X-00467Y-00806*
X-00467Y-00807*
X-00469Y-00809*
X-00469Y-00811*
X-00469Y-00812*
Y-00812*
X-0047Y-00815*
X-00469Y-00817*
Y-00817*
X-00469Y-00818*
X-00469Y-0082*
X-00467Y-00822*
X-00467Y-00823*
X-00467Y-00823*
X-00465Y-00825*
X-00463Y-00827*
X-00463Y-00827*
X-00462Y-00827*
X-0046Y-00829*
X-00458Y-00829*
X-00457Y-00829*
X-00457*
X-00455Y-0083*
X-00441*
X-00439Y-00831*
X-00435Y-00832*
X-00369*
X-00365Y-00831*
X-00361Y-00828*
X-00359Y-00825*
X-00358Y-0082*
Y-00809*
X-00359Y-00804*
X-00361Y-00801*
X-00365Y-00798*
X-00369Y-00797*
G37*
G36*
X-00564D02*
X-0063D01*
X-00634Y-00798*
X-00638Y-00801*
X-0064Y-00804*
X-00641Y-00809*
Y-0082*
X-0064Y-00825*
X-00638Y-00828*
X-00634Y-00831*
X-0063Y-00832*
X-00564*
X-0056Y-00831*
X-00558Y-0083*
X-0055*
X-00547Y-00829*
X-00547*
X-00546Y-00829*
X-00544Y-00829*
X-00542Y-00827*
X-00541Y-00827*
X-00541Y-00827*
X-00539Y-00825*
X-00537Y-00823*
X-00537Y-00823*
X-00537Y-00822*
X-00535Y-0082*
X-00535Y-00818*
X-00535Y-00817*
Y-00817*
X-00534Y-00815*
X-00535Y-00812*
Y-00812*
X-00535Y-00811*
X-00535Y-00809*
X-00537Y-00807*
X-00537Y-00806*
X-00537Y-00806*
X-00539Y-00804*
X-00541Y-00802*
X-00541Y-00802*
X-00542Y-00802*
X-00544Y-008*
X-00546Y-008*
X-00547Y-008*
X-00547*
X-0055Y-00799*
X-00558*
X-0056Y-00798*
X-00564Y-00797*
G37*
G36*
Y-00847D02*
X-0063D01*
X-00634Y-00848*
X-00638Y-00851*
X-0064Y-00854*
X-00641Y-00859*
Y-0087*
X-0064Y-00875*
X-00638Y-00878*
X-00634Y-00881*
X-0063Y-00882*
X-00564*
X-0056Y-00881*
X-00558Y-0088*
X-0055*
X-00547Y-00879*
X-00547*
X-00546Y-00879*
X-00544Y-00879*
X-00542Y-00877*
X-00541Y-00877*
X-00541Y-00877*
X-00539Y-00875*
X-00537Y-00873*
X-00537Y-00873*
X-00537Y-00872*
X-00535Y-0087*
X-00535Y-00868*
X-00535Y-00867*
Y-00867*
X-00534Y-00865*
X-00535Y-00862*
Y-00862*
X-00535Y-00861*
X-00535Y-00859*
X-00537Y-00857*
X-00537Y-00856*
X-00537Y-00856*
X-00539Y-00854*
X-00541Y-00852*
X-00541Y-00852*
X-00542Y-00852*
X-00544Y-0085*
X-00546Y-0085*
X-00547Y-0085*
X-00547*
X-0055Y-00849*
X-00558*
X-0056Y-00848*
X-00564Y-00847*
G37*
G36*
X-00714Y-00748D02*
X-00748D01*
Y-0077*
X-00748Y-00771*
Y-00804*
X-00774*
Y-00893*
X-00705*
Y-0086*
X-0069*
X-00687Y-00859*
X-00687*
X-00686Y-00859*
X-00684Y-00859*
X-00682Y-00857*
X-00681Y-00857*
X-00681Y-00857*
X-00679Y-00855*
X-00677Y-00853*
X-00677Y-00853*
X-00677Y-00852*
X-00675Y-0085*
X-00675Y-00848*
X-00675Y-00847*
Y-00847*
X-00674Y-00845*
X-00675Y-00842*
Y-00842*
X-00675Y-00841*
X-00675Y-00839*
X-00677Y-00837*
X-00677Y-00836*
X-00677Y-00836*
X-00679Y-00834*
X-00681Y-00832*
X-00681Y-00832*
X-00682Y-00832*
X-00684Y-0083*
X-00686Y-0083*
X-00687Y-0083*
X-00687*
X-0069Y-00829*
X-00705*
Y-00804*
X-00717*
Y-00791*
X-00714*
Y-00748*
G37*
G36*
X-00891D02*
X-00925D01*
Y-00791*
X-00922*
Y-00804*
X-00939*
Y-00893*
X-0087*
Y-0086*
X-00855*
X-00852Y-00859*
X-00852*
X-00851Y-00859*
X-00849Y-00859*
X-00847Y-00857*
X-00846Y-00857*
X-00846Y-00857*
X-00844Y-00855*
X-00842Y-00853*
X-00842Y-00853*
X-00842Y-00852*
X-0084Y-0085*
X-0084Y-00848*
X-0084Y-00847*
Y-00847*
X-00839Y-00845*
X-0084Y-00842*
Y-00842*
X-0084Y-00841*
X-0084Y-00839*
X-00842Y-00837*
X-00842Y-00836*
X-00842Y-00836*
X-00844Y-00834*
X-00846Y-00832*
X-00846Y-00832*
X-00847Y-00832*
X-00849Y-0083*
X-00851Y-0083*
X-00852Y-0083*
X-00852*
X-00855Y-00829*
X-0087*
Y-00804*
X-00891*
Y-00771*
X-00891Y-0077*
Y-00748*
G37*
%LNhsmm-3*%
%LPD*%
G36*
X-00125Y00253D02*
X-002D01*
Y00404*
X-00125*
Y00253*
G37*
G36*
X0043Y0025D02*
X00355D01*
Y00329*
X00355*
Y004*
X0043*
Y0025*
G37*
G36*
X-00365Y00249D02*
X-0044D01*
Y004*
X-00365*
Y00249*
G37*
G36*
X00204Y00329D02*
X00204D01*
Y00248*
X00129*
Y00399*
X00204*
Y00329*
G37*
%LNhsmm-4*%
%LPC*%
G36*
X00107Y-00905D02*
X00102D01*
X00096Y-00907*
X00092Y-00911*
X0009Y-00917*
Y-00922*
X00092Y-00928*
X00096Y-00932*
X00102Y-00934*
X00107*
X00113Y-00932*
X00117Y-00928*
X00119Y-00922*
Y-00917*
X00117Y-00911*
X00113Y-00907*
X00107Y-00905*
G37*
G36*
X00603Y-00588D02*
X0058D01*
X00577Y-00589*
X00575Y-0059*
X00574Y-00592*
X00573Y-00595*
Y-00638*
X00574Y-0064*
X00575Y-00643*
X00577Y-00644*
X0058Y-00645*
X00603*
X00606Y-00644*
X00608Y-00643*
X00609Y-0064*
X0061Y-00638*
Y-00595*
X00609Y-00592*
X00608Y-0059*
X00606Y-00589*
X00603Y-00588*
G37*
G36*
X00515Y-00569D02*
X00505Y-00571D01*
X00496Y-00576*
X00491Y-00585*
X00489Y-00594*
Y-00613*
X00491Y-00623*
X00496Y-00632*
X00499Y-00634*
Y-00638*
X005Y-0064*
X00501Y-00643*
X00503Y-00644*
X00506Y-00645*
X00529*
X00532Y-00644*
X00534Y-00643*
X00535Y-0064*
X00536Y-00638*
Y-00634*
X00541Y-00626*
X00543Y-00616*
X00541Y-00607*
X0054Y-00605*
Y-00594*
X00538Y-00585*
X00533Y-00576*
X00524Y-00571*
X00515Y-00569*
G37*
%LNhsmm-5*%
%LPD*%
G54D16*
X00275Y00455D02*
X00276Y00453D01*
Y00416D02*
Y00453D01*
X0026Y00365D02*
Y00414D01*
X0028Y005D02*
X00339Y0044D01*
X00235Y0044D02*
X0026Y00414D01*
X00353Y-00528D02*
X00373D01*
X00601Y-00993D02*
X00677D01*
X00595Y-0099D02*
X00597D01*
X00601Y-00993*
X00616Y-00968D02*
X00677D01*
X0061Y-00965D02*
X00612D01*
X00616Y-00968*
X-002Y-00965D02*
Y-00921D01*
X-00238Y-00883D02*
X-002Y-00921D01*
X00276Y00416D02*
X00292Y004D01*
X00339Y00365D02*
Y0044D01*
X00292Y00371D02*
Y004D01*
Y00371D02*
X00299Y00365D01*
X00146Y-00372D02*
X00148Y-0037D01*
X00167*
X00216Y-01033D02*
X00245Y-01005D01*
X00237Y-01065D02*
X0026D01*
X00236Y-0107D02*
Y-01066D01*
X00237Y-01065*
X00236Y-00468D02*
Y-00459D01*
X0035Y-0047D02*
X0038Y-005D01*
X00236Y-00468D02*
X00237Y-0047D01*
X0035*
X00178Y-0037D02*
X00216Y-00407D01*
Y-00459D02*
Y-00407D01*
X00167Y-0037D02*
X00168Y-0037D01*
X00178*
X00305Y-00528D02*
X00353D01*
X00303Y-0053D02*
X00305Y-00528D01*
X-00345Y-0048D02*
X-00345D01*
X00215Y-00745D02*
X00304D01*
X00215Y-00745D02*
X00215Y-00745D01*
X0016Y-00645D02*
X00236Y-00568D01*
X00305*
X-00345Y-0048D02*
X-00256D01*
X00192Y-00532D02*
X0028D01*
X00282Y-0053D02*
X00303D01*
X0028Y-00532D02*
X00282Y-0053D01*
X-00195Y-0065D02*
X00075D01*
X00192Y-00532*
X-00157Y-00537D02*
X-00125Y-00569D01*
Y-00569D02*
Y-00569D01*
X0007Y-00515D02*
X00146D01*
X-003Y00365D02*
Y00419D01*
X-003Y0042*
X0026Y00365D02*
X0026Y00365D01*
X00306Y-00586D02*
X00335D01*
X00347Y-00575D02*
X0035D01*
X00335Y-00586D02*
X00347Y-00575D01*
X-00195Y-0065D02*
Y-00597D01*
Y-00725D02*
Y-0065D01*
X00373Y-00528D02*
X0039Y-00545D01*
X-0002Y-0039D02*
X-00019Y-0039D01*
Y-00459D02*
Y-0039D01*
X00075Y-0083D02*
X00102Y-00857D01*
X0017*
X-00236Y-00474D02*
Y-00459D01*
Y-00556D02*
Y-00474D01*
Y-00459D02*
X-00235Y-00459D01*
Y-00395*
X-00235Y-00395*
X-0026Y00419D02*
X-0026Y0042D01*
X-00223Y00366D02*
X-00221Y00365D01*
X-00223Y00366D02*
Y00418D01*
X-00225Y0042D02*
X-00223Y00418D01*
X0013Y-00534D02*
X00147D01*
X00167Y-00765D02*
X00305D01*
X00155Y-00755D02*
X00157D01*
X00167Y-00765*
X-00411Y-00551D02*
X-00385Y-00525D01*
X-00411Y-00595D02*
Y-00551D01*
X-00237Y-00475D02*
X-00236Y-00474D01*
X-00256Y-0048D02*
X-00251Y-00475D01*
X-00237*
X00565Y-00814D02*
X00677D01*
X00565Y-00815D02*
X00565Y-00814D01*
X0062Y-0084D02*
X00677D01*
X0059Y-00838D02*
X00618D01*
X0062Y-0084*
X00585Y-01019D02*
X00677D01*
X00585Y-0102D02*
X00585Y-01019D01*
X00677D02*
X00677Y-01019D01*
X-00225Y-00755D02*
X-00195Y-00725D01*
X-00236Y-00556D02*
X-00195Y-00597D01*
X-00305Y-00883D02*
X-00238D01*
X-00225Y-0087*
Y-00755*
X-00305Y-00725D02*
X-00254D01*
X-00225Y-00755*
X00147Y-00534D02*
X00195Y-00487D01*
Y-00461D02*
X00196Y-00459D01*
X00195Y-00487D02*
Y-00461D01*
X00146Y-00515D02*
X00175Y-00485D01*
Y-00461D02*
X00177Y-00459D01*
X00175Y-00485D02*
Y-00461D01*
X-00157Y-00537D02*
Y-00459D01*
X-003Y00365D02*
X-003Y00365D01*
X-0026Y00365D02*
Y00419D01*
X-00261Y00365D02*
X-0026Y00365D01*
X-00019Y-00459D02*
X-00019Y-00459D01*
X-00343Y-00883D02*
D01*
X-00402Y-00865D02*
X-00399Y-00868D01*
X-00357D02*
X-00343Y-00883D01*
X-00399Y-00868D02*
X-00357D01*
X-0035Y-0089D02*
X-00343Y-00883D01*
X-00305*
X-0035Y-00915D02*
Y-0089D01*
Y-00915D02*
X-00342Y-00922D01*
X-00305*
X-00344Y-0098D02*
X-00305D01*
X-00305Y-00981*
X-00345Y-0098D02*
X-00344Y-0098D01*
X-00304Y-0096D02*
X-00255D01*
X-00255Y-0096*
X-00305Y-00961D02*
X-00304Y-0096D01*
X-00305Y-00942D02*
X-00269D01*
X-00262Y-00935*
X-0026*
X-002Y-00965D02*
X-00198Y-00966D01*
Y-01068D02*
X-00196Y-0107D01*
X-00198Y-01068D02*
Y-00966D01*
X-00178Y-01068D02*
Y-00876D01*
X-0018Y-00875D02*
X-00178Y-00876D01*
Y-01068D02*
X-00177Y-0107D01*
X-00304Y-00784D02*
X-00255D01*
X-00255Y-00785*
X-00369Y-00725D02*
X-00305D01*
X-0039Y-00704D02*
X-00369Y-00725D01*
X-0039Y-00704D02*
Y-007D01*
X-00305Y-00784D02*
X-00304Y-00784D01*
X00196Y-00883D02*
X00305D01*
X0017Y-00857D02*
X00196Y-00883D01*
X-0002Y-00881D02*
Y-00835D01*
X-00039Y-0107D02*
Y-00901D01*
X-0002Y-00881*
X-00059Y-0107D02*
Y-00851D01*
X-00055Y-00847*
Y-00845*
X-00118Y-0107D02*
Y-00978D01*
X-00085Y-00945*
Y-0087*
X-00137Y-00902D02*
X-00115Y-0088D01*
X-00137Y-0107D02*
Y-00902D01*
X-00145Y-00877D02*
Y-00875D01*
X-00157Y-0107D02*
Y-0089D01*
X-00145Y-00877*
X00216Y-0107D02*
Y-01033D01*
X00195Y-01069D02*
Y-0097D01*
X00195Y-0097D02*
X00195Y-0097D01*
Y-01069D02*
X00196Y-0107D01*
X0061Y-00869D02*
X00612D01*
X00616Y-00866D02*
X00677D01*
X00612Y-00869D02*
X00616Y-00866D01*
X00304Y-00745D02*
X00305Y-00745D01*
Y-00587D02*
X00306Y-00586D01*
X-00079Y-00459D02*
Y-0038D01*
Y-00459D02*
X-00078Y-00459D01*
X-0008Y-0038D02*
X-00079Y-0038D01*
X-001Y-004D02*
X-00099Y-004D01*
X-00118Y-00459D02*
Y-00409D01*
X-00125Y-0038D02*
X-00123Y-00381D01*
Y-00404D02*
Y-00381D01*
Y-00404D02*
X-00118Y-00409D01*
X-00099Y-00459D02*
X-00098Y-00459D01*
X-00099Y-00459D02*
Y-004D01*
X-00396Y-00646D02*
X-00305D01*
X-00405Y-00655D02*
X-00396Y-00646D01*
X-0052Y-00655D02*
X-00405D01*
G54D19*
X-0074Y-00848D02*
X-00736Y-00845D01*
X-0069*
X00413Y-00678D02*
X00413Y-00678D01*
X00412Y-00711D02*
X00413Y-0071D01*
Y-00678*
X-00855Y-0074D02*
X-0085Y-00745D01*
X-00891Y-00703D02*
X-00855Y-0074D01*
X00111Y00565D02*
X00123Y00576D01*
X-00535Y00565D02*
X00111D01*
X-00737Y00766D02*
X-00535Y00565D01*
X00345Y0068D02*
X0039Y00725D01*
X0034Y0068D02*
X00345D01*
X0039Y00725D02*
X00415D01*
X00353Y-00528D02*
X00355Y-0053D01*
X00701Y-0066D02*
Y-00606D01*
X007Y-00605D02*
X00701Y-00606D01*
X00535Y006D02*
X00605D01*
X00666Y00661*
X00828Y00721D02*
X0084Y00709D01*
X00794Y00721D02*
X00828D01*
X00609Y0065D02*
X00679Y0072D01*
X00793D02*
X00794Y00721D01*
X00679Y0072D02*
X00793D01*
X00546Y0065D02*
X00609D01*
X00666Y00661D02*
X00749D01*
X00495Y00575D02*
Y00598D01*
X00546Y0065*
X00749Y00661D02*
X00766Y00645D01*
X-00015Y00635D02*
Y00695D01*
X00007Y00612D02*
X00142D01*
X00165Y0059*
X-00015Y00635D02*
X00007Y00612D01*
X00085Y0065D02*
Y0074D01*
X00119Y00774*
X-00138Y00818D02*
X-00015Y00695D01*
X-00216Y00706D02*
X-00191D01*
X-0015Y00665*
X-0012*
X-00475D02*
X-00325D01*
X-005Y0069D02*
X-00475Y00665D01*
X0039Y-0055D02*
Y-00545D01*
X-0065Y-00765D02*
X-00597D01*
X-00465Y-00985D02*
X-00449D01*
X-00455Y-00915D02*
X-00402D01*
X-00515Y-00925D02*
X-00455Y-00865D01*
X-00515Y-01065D02*
Y-00925D01*
X-00429Y-00965D02*
X-00402D01*
X-00449Y-00985D02*
X-00429Y-00965D01*
X-00455Y-00815D02*
X-00402D01*
X-00455Y-00865D02*
X-00402D01*
X-00597Y-00815D02*
X-0055D01*
X-00597Y-00865D02*
X-0055D01*
X-00597Y-00915D02*
X-00545D01*
X00449Y-0071D02*
Y-0071D01*
X0045Y-00711*
X0082Y-0066D02*
Y-00605D01*
X0078D02*
X0078Y-00605D01*
Y-0066D02*
Y-00605D01*
X00701Y-0066D02*
X00741D01*
X-00735Y-00659D02*
Y-006D01*
X-00735Y-006*
X-00775Y-006D02*
X-00775Y-006D01*
X-00775Y-00659D02*
Y-006D01*
X-00814Y-00659D02*
Y-006D01*
X-00815Y-006D02*
X-00814Y-006D01*
X-00854Y-00659D02*
Y-00595D01*
X-00855Y-00595D02*
X-00854Y-00595D01*
X-00736Y-00845D02*
X-00733Y-00841D01*
X-00901Y-00845D02*
X-00855D01*
X-00905Y-00848D02*
X-00901Y-00845D01*
X-00733Y-00841D02*
Y-00771D01*
X-00731Y-0077*
X-00906Y-00846D02*
Y-00771D01*
X-00908Y-0077D02*
X-00906Y-00771D01*
Y-00846D02*
X-00905Y-00848D01*
X-00851Y-0077D02*
X-00788D01*
X-00851D02*
X-0085Y-00768D01*
Y-00745*
X-00891Y-00703D02*
Y-00661D01*
X-00893Y-00659D02*
X-00891Y-00661D01*
X-00579Y-00654D02*
Y-00595D01*
X-00579Y-00655D02*
X-00579Y-00654D01*
Y-00595D02*
X-00578Y-00595D01*
X-00465Y-01065D02*
X-00402D01*
X-00515D02*
X-00465Y-01015D01*
X-00402*
X-00597Y-01065D02*
X-00515D01*
X00341Y00774D02*
X0039Y00823D01*
X00415*
X00119Y00774D02*
X00341D01*
X-0023Y00818D02*
X-00138D01*
X-0023Y0072D02*
X-00216Y00706D01*
X-005Y0069D02*
Y0078D01*
X-00522Y00802D02*
X-005Y0078D01*
X-00646Y00786D02*
X-0063Y00802D01*
X-00522*
X-00737Y00834D02*
X-00721Y00851D01*
X-00737Y00766D02*
Y00834D01*
G54D20*
X00392Y-00789D03*
Y-00814D03*
Y-0084D03*
Y-00866D03*
Y-00891D03*
Y-00917D03*
Y-00942D03*
Y-00968D03*
Y-00993D03*
Y-01019D03*
Y-01045D03*
Y-0107D03*
X00677Y-01019D03*
Y-00993D03*
Y-00968D03*
Y-00942D03*
Y-00917D03*
Y-00891D03*
Y-00866D03*
Y-0084D03*
Y-00814D03*
Y-00789D03*
Y-01045D03*
Y-0107D03*
G54D21*
X00815Y-00835D03*
X00925D03*
G54D22*
X00821Y-0075D03*
X00928D03*
G54D23*
X00375Y-00711D03*
X00412D03*
X0045D03*
Y-0062D03*
X00375D03*
G54D24*
X-00305Y-00528D03*
Y-00548D03*
Y-00568D03*
Y-00587D03*
Y-00607D03*
Y-00627D03*
Y-00646D03*
Y-00666D03*
Y-00686D03*
Y-00705D03*
Y-00725D03*
Y-00745D03*
Y-00765D03*
Y-00784D03*
Y-00804D03*
Y-00824D03*
Y-00843D03*
Y-00863D03*
Y-00883D03*
Y-00902D03*
Y-00922D03*
Y-00942D03*
Y-00961D03*
Y-00981D03*
Y-01001D03*
X00305D03*
Y-00981D03*
Y-00961D03*
Y-00942D03*
Y-00922D03*
Y-00902D03*
Y-00883D03*
Y-00863D03*
Y-00843D03*
Y-00824D03*
Y-00804D03*
Y-00784D03*
Y-00765D03*
Y-00745D03*
Y-00725D03*
Y-00705D03*
Y-00686D03*
Y-00666D03*
Y-00646D03*
Y-00627D03*
Y-00607D03*
Y-00587D03*
Y-00568D03*
Y-00548D03*
Y-00528D03*
G54D25*
X-00236Y-0107D03*
X-00216D03*
X-00196D03*
X-00177D03*
X-00157D03*
X-00137D03*
X-00118D03*
X-00098D03*
X-00078D03*
X-00059D03*
X-00039D03*
X-00019D03*
X0D03*
X00019D03*
X00039D03*
X00059D03*
X00078D03*
X00098D03*
X00118D03*
X00137D03*
X00157D03*
X00177D03*
X00196D03*
X00216D03*
X00236D03*
Y-00459D03*
X00216D03*
X00196D03*
X00177D03*
X00157D03*
X00137D03*
X00118D03*
X00098D03*
X00078D03*
X00059D03*
X00039D03*
X00019D03*
X0D03*
X-00019D03*
X-00039D03*
X-00059D03*
X-00078D03*
X-00098D03*
X-00118D03*
X-00137D03*
X-00157D03*
X-00177D03*
X-00196D03*
X-00216D03*
X-00236D03*
G54D26*
X-00578Y-00595D03*
X-00521D03*
X-00908Y-0077D03*
X-00851D03*
X-00731D03*
X-00788D03*
X-00411Y-00595D03*
X-00468D03*
X00447Y-0055D03*
X0039D03*
G54D27*
X-0074Y-00848D03*
Y-01061D03*
X-00905Y-00848D03*
Y-01061D03*
G54D28*
X-00345Y-0048D03*
X-00402D03*
X-0039Y-007D03*
X-00447D03*
X00526Y0087D03*
X00583D03*
X00526Y0093D03*
X00583D03*
G54D29*
X-00402Y-01065D03*
Y-01015D03*
Y-00965D03*
Y-00915D03*
Y-00865D03*
Y-00815D03*
Y-00765D03*
X-00597D03*
Y-00815D03*
Y-00865D03*
Y-00915D03*
Y-00965D03*
Y-01015D03*
Y-01065D03*
G54D30*
X00517Y-00713D03*
X00555D03*
X00592D03*
Y-00616D03*
X00517D03*
G54D31*
X-00893Y-00659D03*
X-00854D03*
X-00814D03*
X-00775D03*
X-00735D03*
X-00696D03*
X00701Y-0066D03*
X00741D03*
X0078D03*
X0082D03*
X00859D03*
X00898D03*
X-00379Y00365D03*
X-0034D03*
X-003D03*
X-00261D03*
X-00221D03*
X-00182D03*
X00181Y00365D03*
X0022D03*
X0026D03*
X00299D03*
X00339D03*
X00378D03*
G54D32*
X-00944Y-0056D03*
X-00645D03*
X0065Y-0056D03*
X00949D03*
X-0043Y00464D03*
X-00131D03*
X0013Y00464D03*
X00429D03*
G54D33*
X-0052Y-00655D03*
X-00579D03*
G54D34*
X00914Y00774D03*
X0084Y00709D03*
X00766Y00645D03*
X00692Y0058D03*
X00793Y00914D03*
X00719Y00849D03*
X00645Y00785D03*
X0057Y0072D03*
G54D35*
X00415Y00921D03*
Y00823D03*
Y00725D03*
Y00626D03*
X0023Y00921D03*
Y00823D03*
Y00725D03*
Y00626D03*
X-0023Y00916D03*
Y00818D03*
Y0072D03*
Y00621D03*
X-00415Y00916D03*
Y00818D03*
Y0072D03*
Y00621D03*
G54D36*
X-0052Y00918D03*
Y00861D03*
X-0058Y00918D03*
Y00861D03*
X-0093Y00608D03*
Y00551D03*
X-0087Y00608D03*
Y00551D03*
G54D37*
X-00795Y00915D03*
X-00721Y00851D03*
X-00646Y00786D03*
X-00572Y00722D03*
X-00916Y00776D03*
X-00842Y00711D03*
X-00768Y00646D03*
X-00693Y00582D03*
G54D58*
X00376Y-00706D02*
Y-00671D01*
X00378Y-00669*
X0082Y-00748D02*
Y-00715D01*
Y-00748D02*
X00821Y-0075D01*
X-0041Y00715D02*
X-00345D01*
X0023Y00725D02*
D01*
X00305*
X00515Y-00613D02*
Y-00594D01*
X00638Y0093D02*
X00669Y00899D01*
X00399Y-00615D02*
X00402Y-00612D01*
X00627Y00792D02*
X00637D01*
X0061Y00775D02*
X00627Y00792D01*
X00627Y-00905D02*
X00629Y-00903D01*
X00673*
X0045Y-0062D02*
Y-00552D01*
X00447Y-0055D02*
X0045Y-00552D01*
X00379Y-00615D02*
X00399D01*
X00375Y-0062D02*
X00379Y-00615D01*
X00515Y-00613D02*
X00517Y-00616D01*
X00719Y00849D02*
Y0085D01*
X0067Y009D02*
X00719Y0085D01*
X-00814Y0061D02*
X-00777Y00646D01*
X-00835Y0061D02*
X-00814D01*
X-00777Y00646D02*
X-00768D01*
X-00836Y00608D02*
X-00835Y0061D01*
X-0087Y00608D02*
X-00836D01*
X-0093D02*
X-0087D01*
X-00795Y00769D02*
Y0077D01*
X-00842Y00711D02*
Y00722D01*
X-00795Y00769*
X-00768Y00657D02*
X-00725Y007D01*
Y00705*
X-00413Y0082D02*
X-00345D01*
X-00415Y00818D02*
X-00413Y0082D01*
X0023Y00823D02*
X00231Y00825D01*
X00305*
X-00768Y00646D02*
Y00657D01*
X-00415Y0072D02*
X-0041Y00715D01*
X00583Y00857D02*
Y0087D01*
Y00857D02*
X00645Y00795D01*
X00583Y0093D02*
X00638D01*
X-0058Y00861D02*
X-0052D01*
X-00483D02*
X-0044Y00818D01*
X-0052Y00861D02*
X-00483D01*
X-0044Y00818D02*
X-00415D01*
G54D59*
X00835Y-0099D03*
G54D60*
X00935Y-0099D03*
G54D61*
X00287Y00524D03*
X00275Y00455D03*
X0028Y005D03*
X00208Y00429D03*
X00235Y0044D03*
X-0069Y-00845D03*
X00932Y00681D03*
X00948Y0065D03*
X00932Y00618D03*
X00948Y00587D03*
X00932Y00555D03*
Y-00641D03*
X00948Y-00672D03*
X00932Y-00704D03*
Y-00893D03*
X00948Y-00924D03*
Y-0105D03*
X00932Y-01082D03*
X00901Y0087D03*
X00917Y00838D03*
X00901Y00681D03*
X00917Y0065D03*
X00901Y00618D03*
X00917Y00587D03*
X00901Y00555D03*
Y-00578D03*
X00917Y-00609D03*
X00901Y-00893D03*
X00917Y-00924D03*
Y-0105D03*
X00901Y-01082D03*
X00885Y00901D03*
X00869Y0087D03*
Y00744D03*
X00885Y0065D03*
X00869Y00618D03*
X00885Y00587D03*
X00869Y00555D03*
X00885Y-00546D03*
X00869Y-00578D03*
X00885Y-00609D03*
X00838Y00933D03*
X00854Y00838D03*
X00838Y00807D03*
X00854Y00775D03*
X00838Y00618D03*
X00854Y00587D03*
X00838Y00555D03*
X00854Y-00546D03*
X00838Y-00578D03*
X00854Y-00609D03*
X00822Y00838D03*
X00806Y00807D03*
X00822Y00775D03*
X00806Y00681D03*
X00822Y0065D03*
Y00587D03*
X00806Y00555D03*
X00822Y-00546D03*
X00791Y00838D03*
X00775Y00807D03*
X00791Y00775D03*
X00775Y00555D03*
X00791Y-00546D03*
X00759Y00775D03*
Y00587D03*
X00712Y00933D03*
X00728Y00901D03*
Y00775D03*
X0068Y00807D03*
X00665Y00838D03*
X00649Y00555D03*
X00633Y00712D03*
X00617Y00555D03*
X00586D03*
X00555D03*
X00523Y00681D03*
Y00555D03*
Y-01082D03*
X00507Y00712D03*
X00492Y00681D03*
X00507Y0065D03*
X0046Y00681D03*
X00429D03*
X00444Y00524D03*
Y00209D03*
X00429Y00177D03*
X00444Y00146D03*
X00429Y00114D03*
X00444Y00083D03*
X00429Y00051D03*
X00444Y0002D03*
X00429Y-00011D03*
X00444Y-00042D03*
X00429Y-00074D03*
X00444Y-00105D03*
X00429Y-00137D03*
X00444Y-00168D03*
X00429Y-002D03*
X00444Y-00231D03*
X00429Y-00263D03*
X00444Y-00294D03*
X00429Y-00326D03*
X00444Y-00357D03*
X00429Y-00389D03*
X00444Y-0042D03*
X00429Y-00452D03*
X00444Y-00483D03*
X00397Y00681D03*
X00413Y00524D03*
Y00209D03*
X00397Y00177D03*
X00413Y00146D03*
X00397Y00114D03*
X00413Y00083D03*
Y0002D03*
X00397Y-00011D03*
X00413Y-00042D03*
X00397Y-00074D03*
X00413Y-00105D03*
X00397Y-00137D03*
X00413Y-00168D03*
X00397Y-002D03*
X00413Y-00231D03*
X00397Y-00263D03*
X00413Y-00294D03*
Y-0042D03*
X00381Y00524D03*
X00366Y00492D03*
X00381Y00461D03*
X00366Y00429D03*
X00381Y00146D03*
X00366Y00114D03*
X00381Y00083D03*
Y-00042D03*
X00366Y-00074D03*
X00381Y-00105D03*
X00366Y-00137D03*
X00381Y-00168D03*
X00366Y-002D03*
X00381Y-00231D03*
X00366Y-00263D03*
X00334Y00933D03*
Y00555D03*
X0035Y00524D03*
Y00461D03*
Y00146D03*
Y-00042D03*
X00334Y-00074D03*
X0035Y-00105D03*
X00334Y-00137D03*
X0035Y-00168D03*
X00334Y-002D03*
X0035Y-00231D03*
X00334Y-00263D03*
X00303Y00933D03*
X00318Y00901D03*
Y-00105D03*
Y-00168D03*
Y-00231D03*
Y-00294D03*
X00303Y-01082D03*
X00271Y0087D03*
Y00555D03*
X0024Y0087D03*
Y00555D03*
X00255Y00524D03*
X0024Y00492D03*
X00208Y0087D03*
Y00555D03*
X00224Y00524D03*
X00208Y00492D03*
Y-00704D03*
X00224Y-00798D03*
X00177Y0087D03*
Y00555D03*
X00192Y00524D03*
X00177Y00492D03*
X00192Y00461D03*
X00177Y00429D03*
X00192Y-00672D03*
X00177Y-00704D03*
X00192Y-00798D03*
X00145Y00933D03*
Y0087D03*
X00161Y00524D03*
Y00209D03*
X00145Y00177D03*
X00161Y00146D03*
X00145Y00114D03*
Y-00263D03*
X00161Y-0042D03*
Y-00609D03*
Y-00672D03*
Y-00798D03*
X00114Y00933D03*
X00129Y00901D03*
X00114Y0087D03*
Y-0083D03*
Y-01019D03*
X00082Y00933D03*
X00098Y00901D03*
X00082Y0087D03*
Y00051D03*
Y-00578D03*
Y-00704D03*
X00098Y-00735D03*
X00082Y-01019D03*
X00051Y00933D03*
X00066Y00901D03*
X00051Y0087D03*
X00066Y00775D03*
X00051Y00492D03*
Y00429D03*
Y0024D03*
Y00177D03*
X00066Y00083D03*
Y0002D03*
Y-00105D03*
Y-00168D03*
Y-00357D03*
Y-00609D03*
Y-00672D03*
X00051Y-00767D03*
Y-01019D03*
X00019Y00933D03*
X00035Y00901D03*
X00019Y0087D03*
X00035Y00775D03*
Y00524D03*
X00019Y00492D03*
X00035Y00461D03*
X00019Y00429D03*
X00035Y00398D03*
X00019Y0024D03*
X00035Y00209D03*
X00019Y00177D03*
X00035Y00146D03*
X00019Y-01019D03*
X-00011Y00933D03*
X00003Y00901D03*
X-00011Y0087D03*
X00003Y00775D03*
Y00524D03*
X-00011Y00492D03*
X00003Y00461D03*
X-00011Y00429D03*
X00003Y00398D03*
X-00011Y0024D03*
X00003Y00209D03*
X-00011Y00177D03*
X00003Y00146D03*
X-00011Y00114D03*
Y-00074D03*
Y-00263D03*
Y-00578D03*
X00003Y-00924D03*
X-00011Y-01019D03*
X-00043Y00933D03*
X-00027Y00901D03*
X-00043Y0087D03*
X-00027Y00775D03*
X-00043Y00618D03*
X-00027Y00524D03*
X-00043Y00492D03*
X-00027Y00461D03*
X-00043Y00429D03*
X-00027Y00398D03*
X-00043Y0024D03*
X-00027Y00209D03*
X-00043Y00177D03*
X-00027Y00146D03*
Y-00042D03*
Y-00231D03*
Y-00294D03*
Y-00609D03*
X-00074Y00933D03*
X-00059Y00901D03*
X-00074Y0087D03*
X-00059Y00775D03*
Y0065D03*
X-00074Y00618D03*
X-00059Y00461D03*
Y00398D03*
Y00272D03*
Y00209D03*
Y00146D03*
X-00106Y00933D03*
X-0009Y00901D03*
X-00106Y0087D03*
X-0009Y0065D03*
X-00106Y00051D03*
X-0009Y0002D03*
X-00106Y-00011D03*
Y-00137D03*
X-0009Y-00168D03*
X-00106Y-002D03*
X-0009Y-00231D03*
X-00106Y-00263D03*
X-0009Y-00294D03*
X-00106Y-00326D03*
X-00137Y00933D03*
X-00122Y00901D03*
X-00137Y0087D03*
X-00122Y00083D03*
Y0002D03*
Y-00105D03*
Y-00168D03*
Y-00231D03*
Y-00294D03*
X-00137Y-00704D03*
Y-00767D03*
X-00153Y00901D03*
X-00169Y0087D03*
X-00153Y00775D03*
Y00524D03*
X-002Y0087D03*
X-00185Y00775D03*
X-002Y-00767D03*
X-00232Y0087D03*
X-00216Y00775D03*
X-00263Y0087D03*
X-00248Y00775D03*
X-00263Y00492D03*
X-00295Y0087D03*
X-00279Y00775D03*
X-00295Y00492D03*
X-00279Y00461D03*
X-00326Y00933D03*
X-00311Y00901D03*
X-00326Y0087D03*
X-00311Y00775D03*
Y00524D03*
X-00326Y00492D03*
X-00311Y00461D03*
X-00326Y00429D03*
Y00303D03*
Y0024D03*
X-00311Y00209D03*
Y00083D03*
X-00326Y00051D03*
X-00311Y0002D03*
X-00326Y-00011D03*
X-00311Y-00042D03*
X-00326Y-00074D03*
X-00311Y-00105D03*
X-00326Y-00137D03*
X-00311Y-00168D03*
X-00326Y-002D03*
X-00311Y-00231D03*
X-00326Y-00263D03*
X-00311Y-00294D03*
Y-0042D03*
X-00342Y00901D03*
X-00358Y0087D03*
X-00342Y00775D03*
Y00524D03*
X-00358Y00492D03*
X-00342Y00461D03*
X-00358Y00429D03*
X-00342Y00272D03*
X-00358Y00114D03*
X-00342Y00083D03*
X-00358Y00051D03*
X-00342Y0002D03*
X-00358Y-00011D03*
X-00342Y-00042D03*
X-00358Y-00074D03*
X-00342Y-00105D03*
X-00358Y-00137D03*
X-00342Y-00168D03*
X-00358Y-002D03*
X-00342Y-00231D03*
X-00358Y-00263D03*
X-00389Y0087D03*
X-00374Y00775D03*
Y00524D03*
X-00389Y00492D03*
X-00374Y00461D03*
X-00389Y00429D03*
X-00374Y00146D03*
X-00389Y00114D03*
X-00374Y00083D03*
X-00389Y00051D03*
X-00374Y0002D03*
X-00389Y-00011D03*
X-00374Y-00042D03*
X-00389Y-00074D03*
X-00374Y-00105D03*
X-00389Y-00137D03*
X-00374Y-00168D03*
X-00389Y-002D03*
X-00374Y-00231D03*
X-00389Y-00263D03*
X-00374Y-00483D03*
X-00421Y0087D03*
X-00405Y00775D03*
Y00524D03*
X-00421Y00177D03*
X-00405Y00146D03*
X-00421Y00114D03*
X-00405Y00083D03*
X-00421Y00051D03*
X-00405Y0002D03*
X-00421Y-00011D03*
X-00405Y-00042D03*
X-00421Y-00074D03*
X-00405Y-00105D03*
X-00421Y-00137D03*
X-00405Y-00168D03*
X-00421Y-002D03*
X-00405Y-00231D03*
X-00421Y-00263D03*
X-00405Y-00294D03*
Y-0042D03*
X-00421Y-00515D03*
X-00437Y00775D03*
Y00524D03*
Y00209D03*
Y00146D03*
Y00083D03*
Y0002D03*
Y-00042D03*
Y-00105D03*
Y-00168D03*
Y-00231D03*
Y-00294D03*
Y-00357D03*
Y-0042D03*
Y-00483D03*
X-00468Y00775D03*
X-00484Y-01082D03*
X-00515Y-00704D03*
X-00531Y00775D03*
X-00547Y-00704D03*
X-00578Y00555D03*
Y-00704D03*
X-00594Y00775D03*
Y00587D03*
X-0061Y00555D03*
Y-00641D03*
Y-00704D03*
X-00641Y00933D03*
X-00626Y00901D03*
X-00641Y0087D03*
X-00626Y00587D03*
X-00641Y00555D03*
Y-00641D03*
X-00626Y-00672D03*
X-00641Y-00704D03*
X-00673Y00933D03*
X-00657Y00901D03*
Y-00672D03*
X-00673Y-00704D03*
X-00657Y-00861D03*
X-00673Y-00893D03*
X-00657Y-00924D03*
X-00673Y-00956D03*
X-00657Y-00987D03*
X-00673Y-01019D03*
X-00657Y-0105D03*
X-00673Y-01082D03*
X-00704Y00933D03*
X-00689Y-00924D03*
X-00704Y-00956D03*
X-00689Y-00987D03*
Y-0105D03*
X-0072Y-00924D03*
X-00736Y-00956D03*
X-0072Y-00987D03*
X-00767Y0087D03*
Y00744D03*
X-00752Y00587D03*
X-00767Y00555D03*
X-00752Y-00924D03*
X-00767Y-00956D03*
X-00752Y-00987D03*
X-00783Y00838D03*
X-00799Y00555D03*
Y-0083D03*
Y-00893D03*
X-00783Y-00924D03*
X-00799Y-00956D03*
X-00783Y-00987D03*
X-00799Y-01019D03*
Y-01082D03*
X-00815Y00838D03*
X-0083Y00807D03*
Y00555D03*
X-00815Y-00735D03*
X-0083Y-0083D03*
X-00815Y-00861D03*
X-0083Y-00893D03*
X-00815Y-00924D03*
X-0083Y-00956D03*
X-00815Y-00987D03*
X-0083Y-01019D03*
X-00815Y-0105D03*
X-0083Y-01082D03*
X-00862Y0087D03*
X-00846Y00838D03*
Y00775D03*
Y-00546D03*
Y-00924D03*
X-00862Y-00956D03*
X-00846Y-00987D03*
Y-0105D03*
X-00878Y00901D03*
X-00893Y0087D03*
X-00878Y00838D03*
Y0065D03*
Y-00546D03*
X-00893Y-00578D03*
X-00878Y-00924D03*
X-00893Y-00956D03*
X-00878Y-00987D03*
X-00909Y00712D03*
X-00925Y00681D03*
X-00909Y0065D03*
Y-00609D03*
X-00925Y-00641D03*
Y-00704D03*
X-00909Y-00735D03*
Y-00924D03*
X-00925Y-00956D03*
X-00909Y-00987D03*
X-00956Y00681D03*
X-00941Y0065D03*
X-00956Y-00641D03*
X-00941Y-00672D03*
X-00956Y-00704D03*
X-00941Y-00735D03*
X-00956Y-00767D03*
Y-0083D03*
Y-00893D03*
X-00941Y-00924D03*
X-00956Y-00956D03*
X-00941Y-00987D03*
X-00956Y-01019D03*
Y-01082D03*
X-00003Y-00896D03*
X00413Y-00678D03*
X00378Y-00669D03*
X00591Y-00766D03*
X00616D03*
X00545Y-0098D03*
X00525Y-0097D03*
X0057Y-00975D03*
X00525Y-00945D03*
Y-0092D03*
X00546Y-00903D03*
X0057Y-009D03*
Y-00925D03*
Y-0095D03*
X00546Y-00928D03*
Y-00953D03*
X00641Y-00786D03*
Y-00766D03*
X0073Y-00895D03*
Y-00875D03*
X00566Y-00766D03*
Y-00786D03*
X00541D03*
X00516D03*
X00541Y-00766D03*
X00516D03*
X00616Y-00786D03*
X00591D03*
X00615Y-01045D03*
Y-01065D03*
X0059D03*
X00565D03*
X0059Y-01045D03*
X00565D03*
X0078Y-00945D03*
X00755D03*
X0078Y-00925D03*
X00755D03*
X0073D03*
Y-00945D03*
X0086Y-00895D03*
X00835D03*
X0086Y-00875D03*
X00835D03*
X0081D03*
Y-00895D03*
X00765Y-0107D03*
X0074D03*
X00765Y-0105D03*
X0074D03*
X00715D03*
Y-0107D03*
X0074Y-0084D03*
Y-00815D03*
X0076Y-0084D03*
Y-00815D03*
Y-0079D03*
X0074D03*
X00755Y-00875D03*
Y-00895D03*
X0078D03*
Y-00875D03*
X00735Y-00975D03*
X0076D03*
X00735Y-00995D03*
X0076D03*
X00785D03*
Y-00975D03*
X00805Y-00925D03*
X0083D03*
X00805Y-00945D03*
X0083D03*
X00855D03*
Y-00925D03*
X008Y-01035D03*
X00825D03*
X008Y-01055D03*
X00825D03*
X0085D03*
Y-01035D03*
X0082Y-00715D03*
X0061Y-00965D03*
X00595Y-0099D03*
X-00855Y-0074D03*
X00415Y-0076D03*
X0043Y-00785D03*
X0044Y-0105D03*
Y-0107D03*
X00465D03*
X00435Y-0095D03*
X00445Y-0097D03*
X0046Y-0095D03*
X00447Y-009D03*
X0047D03*
X00162Y-00211D03*
X00375Y0029D03*
Y00265D03*
Y00315D03*
X00185Y0029D03*
Y00265D03*
Y00315D03*
X-00175Y0029D03*
Y00265D03*
Y00315D03*
X00415Y00265D03*
Y0029D03*
Y00315D03*
Y0034D03*
Y00365D03*
Y0039D03*
X00145Y00265D03*
Y0029D03*
Y00315D03*
Y0034D03*
Y00365D03*
Y0039D03*
X-0014Y0027D03*
Y00295D03*
Y0032D03*
Y00345D03*
Y0037D03*
Y00395D03*
X-00385Y00315D03*
X-00415Y0039D03*
Y00365D03*
Y0034D03*
Y00315D03*
Y0029D03*
Y00265D03*
X-00385D03*
Y0029D03*
X00123Y00576D03*
X-00345Y00715D03*
X00146Y-00372D03*
X00245Y-01005D03*
X00185Y-009D03*
X0026Y-01065D03*
X00485Y-00915D03*
X0046Y-0092D03*
X00435D03*
X0014Y-002D03*
X00305Y00545D03*
Y00725D03*
X0034Y0068D03*
X0038Y-005D03*
X00515Y-00594D03*
X00355Y-0053D03*
X00215Y-00745D03*
X0016Y-00645D03*
X-00125Y-00569D03*
X0007Y-00515D03*
X-003Y0042D03*
X0035Y-00575D03*
X007Y-00605D03*
X0049Y-0107D03*
Y-01045D03*
X00465D03*
X0047Y-0097D03*
X00485Y-0095D03*
X00495Y-009D03*
X00445Y-008D03*
X0047Y-00795D03*
X00455Y-0078D03*
X0044Y-00765D03*
X-0002Y-0039D03*
X00402Y-00612D03*
X0038Y-00455D03*
X00075Y-0083D03*
X-00235Y-00395D03*
X00535Y006D03*
X00495Y00575D03*
D03*
X0061Y00775D03*
X-0026Y0042D03*
X-00225D03*
X00165Y0059D03*
X00085Y0065D03*
X0013Y-00535D03*
X00155Y-00755D03*
X-0012Y00665D03*
X-00385Y-00525D03*
X-00325Y00665D03*
X00565Y-00815D03*
X0059Y-00838D03*
X00627Y-00905D03*
X00585Y-0102D03*
X-00225Y-00755D03*
X-0065Y-00765D03*
X-00255Y-0064D03*
X-00225Y-00705D03*
X-00465Y-00985D03*
X-00455Y-00915D03*
X-0055Y-00965D03*
X-00455Y-00815D03*
Y-00865D03*
X-0055Y-00815D03*
Y-00865D03*
Y-01015D03*
X-00545Y-00915D03*
X-00345Y-0098D03*
X-00255Y-0096D03*
X-0026Y-00935D03*
X-002Y-00965D03*
X-00255Y-00785D03*
X-0002Y-00835D03*
X-00055Y-00845D03*
X-0009Y-0099D03*
X-00085Y-0087D03*
X-00115Y-0088D03*
X-00145Y-00875D03*
X-0018D03*
X00195Y-0097D03*
X00105Y-0092D03*
X0016Y-00834D03*
X0061Y-00869D03*
X-0008Y-0038D03*
X-001Y-004D03*
X-00125Y-0038D03*
X0082Y-00605D03*
X0078D03*
X-00735Y-006D03*
X-00775D03*
X-00815D03*
X-00855Y-00595D03*
Y-00845D03*
X-00465Y-01065D03*
X-00515D03*
X0067Y009D03*
X-00795Y0077D03*
X-00725Y00705D03*
X-00345Y0082D03*
X00305Y00825D03*
G54D62*
X0036Y-0036D03*
X-0036D03*
X0Y0032D03*
M02*