%FSTAX23Y23*%
%MOIN*%
%SFA1B1*%

%IPPOS*%
%AMD41*
4,1,8,-0.014800,0.019000,-0.014800,-0.019000,-0.005400,-0.028400,0.005400,-0.028400,0.014800,-0.019000,0.014800,0.019000,0.005400,0.028400,-0.005400,0.028400,-0.014800,0.019000,0.0*
1,1,0.018827,-0.005400,0.019000*
1,1,0.018827,-0.005400,-0.019000*
1,1,0.018827,0.005400,-0.019000*
1,1,0.018827,0.005400,0.019000*
%
%AMD47*
4,1,8,-0.032900,-0.015800,0.032900,-0.015800,0.042800,-0.005900,0.042800,0.005900,0.032900,0.015800,-0.032900,0.015800,-0.042800,0.005900,-0.042800,-0.005900,-0.032900,-0.015800,0.0*
1,1,0.019811,-0.032900,-0.005900*
1,1,0.019811,0.032900,-0.005900*
1,1,0.019811,0.032900,0.005900*
1,1,0.019811,-0.032900,0.005900*
%
%AMD48*
4,1,8,0.011600,0.027000,-0.011600,0.027000,-0.017200,0.021400,-0.017200,-0.021400,-0.011600,-0.027000,0.011600,-0.027000,0.017200,-0.021400,0.017200,0.021400,0.011600,0.027000,0.0*
1,1,0.011165,0.011600,0.021400*
1,1,0.011165,-0.011600,0.021400*
1,1,0.011165,-0.011600,-0.021400*
1,1,0.011165,0.011600,-0.021400*
%
%AMD52*
4,1,8,0.026000,-0.049000,0.044900,-0.032600,0.046500,-0.009300,-0.002700,0.047300,-0.026000,0.049000,-0.044900,0.032600,-0.046500,0.009300,0.002700,-0.047300,0.026000,-0.049000,0.0*
1,1,0.033000,0.015200,-0.036500*
1,1,0.033000,0.034000,-0.020100*
1,1,0.033000,-0.015200,0.036500*
1,1,0.033000,-0.034000,0.020100*
%
%AMD53*
4,1,8,0.054000,-0.012500,0.054000,0.012500,0.037500,0.029000,-0.037500,0.029000,-0.054000,0.012500,-0.054000,-0.012500,-0.037500,-0.029000,0.037500,-0.029000,0.054000,-0.012500,0.0*
1,1,0.033000,0.037500,-0.012500*
1,1,0.033000,0.037500,0.012500*
1,1,0.033000,-0.037500,0.012500*
1,1,0.033000,-0.037500,-0.012500*
%
%AMD55*
4,1,8,0.044900,0.032600,0.026000,0.049000,0.002700,0.047300,-0.046500,-0.009300,-0.044900,-0.032600,-0.026000,-0.049000,-0.002700,-0.047300,0.046500,0.009300,0.044900,0.032600,0.0*
1,1,0.033000,0.034000,0.020100*
1,1,0.033000,0.015200,0.036500*
1,1,0.033000,-0.034000,-0.020100*
1,1,0.033000,-0.015200,-0.036500*
%
%ADD38R,0.057212X0.023748*%
%ADD39R,0.086701X0.055201*%
%ADD40R,0.069023X0.065086*%
G04~CAMADD=41~8~0.0~0.0~568.2~296.5~94.1~0.0~15~0.0~0.0~0.0~0.0~0~0.0~0.0~0.0~0.0~0~0.0~0.0~0.0~90.0~296.0~568.0*
%ADD41D41*%
%ADD42R,0.055244X0.020598*%
%ADD43R,0.020598X0.055244*%
%ADD44R,0.031622X0.041464*%
%ADD45R,0.067055X0.086740*%
%ADD46R,0.033590X0.043433*%
G04~CAMADD=47~8~0.0~0.0~855.6~316.2~99.1~0.0~15~0.0~0.0~0.0~0.0~0~0.0~0.0~0.0~0.0~0~0.0~0.0~0.0~180.0~856.0~316.0*
%ADD47D47*%
G04~CAMADD=48~8~0.0~0.0~343.8~540.6~55.8~0.0~15~0.0~0.0~0.0~0.0~0~0.0~0.0~0.0~0.0~0~0.0~0.0~0.0~0.0~343.8~540.6*
%ADD48D48*%
%ADD49R,0.031622X0.069023*%
%ADD50R,0.055244X0.078866*%
%ADD51R,0.039500X0.039500*%
G04~CAMADD=52~8~0.0~0.0~580.0~1080.0~165.0~0.0~15~0.0~0.0~0.0~0.0~0~0.0~0.0~0.0~0.0~0~0.0~0.0~0.0~221.0~1010.0~1059.0*
%ADD52D52*%
G04~CAMADD=53~8~0.0~0.0~580.0~1080.0~165.0~0.0~15~0.0~0.0~0.0~0.0~0~0.0~0.0~0.0~0.0~0~0.0~0.0~0.0~270.0~1080.0~580.0*
%ADD53D53*%
%ADD54R,0.043433X0.033590*%
G04~CAMADD=55~8~0.0~0.0~580.0~1080.0~165.0~0.0~15~0.0~0.0~0.0~0.0~0~0.0~0.0~0.0~0.0~0~0.0~0.0~0.0~319.0~1010.0~1059.0*
%ADD55D55*%
%ADD56C,0.067055*%
%ADD57R,0.067055X0.067055*%
%LNhsmm-1*%
%LPD*%
G54D38*
X00392Y-00789D03*
Y-00814D03*
Y-0084D03*
Y-00866D03*
Y-00891D03*
Y-00917D03*
Y-00942D03*
Y-00968D03*
Y-00993D03*
Y-01019D03*
Y-01045D03*
Y-0107D03*
X00677Y-01019D03*
Y-00993D03*
Y-00968D03*
Y-00942D03*
Y-00917D03*
Y-00891D03*
Y-00866D03*
Y-0084D03*
Y-00814D03*
Y-00789D03*
Y-01045D03*
Y-0107D03*
G54D39*
X00815Y-00835D03*
X00925D03*
G54D40*
X00821Y-0075D03*
X00928D03*
G54D41*
X00375Y-00711D03*
X00412D03*
X0045D03*
Y-0062D03*
X00375D03*
G54D42*
X-00305Y-00528D03*
Y-00548D03*
Y-00568D03*
Y-00587D03*
Y-00607D03*
Y-00627D03*
Y-00646D03*
Y-00666D03*
Y-00686D03*
Y-00705D03*
Y-00725D03*
Y-00745D03*
Y-00765D03*
Y-00784D03*
Y-00804D03*
Y-00824D03*
Y-00843D03*
Y-00863D03*
Y-00883D03*
Y-00902D03*
Y-00922D03*
Y-00942D03*
Y-00961D03*
Y-00981D03*
Y-01001D03*
X00305D03*
Y-00981D03*
Y-00961D03*
Y-00942D03*
Y-00922D03*
Y-00902D03*
Y-00883D03*
Y-00863D03*
Y-00843D03*
Y-00824D03*
Y-00804D03*
Y-00784D03*
Y-00765D03*
Y-00745D03*
Y-00725D03*
Y-00705D03*
Y-00686D03*
Y-00666D03*
Y-00646D03*
Y-00627D03*
Y-00607D03*
Y-00587D03*
Y-00568D03*
Y-00548D03*
Y-00528D03*
G54D43*
X-00236Y-0107D03*
X-00216D03*
X-00196D03*
X-00177D03*
X-00157D03*
X-00137D03*
X-00118D03*
X-00098D03*
X-00078D03*
X-00059D03*
X-00039D03*
X-00019D03*
X0D03*
X00019D03*
X00039D03*
X00059D03*
X00078D03*
X00098D03*
X00118D03*
X00137D03*
X00157D03*
X00177D03*
X00196D03*
X00216D03*
X00236D03*
Y-00459D03*
X00216D03*
X00196D03*
X00177D03*
X00157D03*
X00137D03*
X00118D03*
X00098D03*
X00078D03*
X00059D03*
X00039D03*
X00019D03*
X0D03*
X-00019D03*
X-00039D03*
X-00059D03*
X-00078D03*
X-00098D03*
X-00118D03*
X-00137D03*
X-00157D03*
X-00177D03*
X-00196D03*
X-00216D03*
X-00236D03*
G54D44*
X-00578Y-00595D03*
X-00521D03*
X-00908Y-0077D03*
X-00851D03*
X-00731D03*
X-00788D03*
X-00411Y-00595D03*
X-00468D03*
X00447Y-0055D03*
X0039D03*
G54D45*
X-0074Y-00848D03*
Y-01061D03*
X-00905Y-00848D03*
Y-01061D03*
G54D46*
X-00345Y-0048D03*
X-00402D03*
X-0039Y-007D03*
X-00447D03*
X00526Y0087D03*
X00583D03*
X00526Y0093D03*
X00583D03*
G54D47*
X-00402Y-01065D03*
Y-01015D03*
Y-00965D03*
Y-00915D03*
Y-00865D03*
Y-00815D03*
Y-00765D03*
X-00597D03*
Y-00815D03*
Y-00865D03*
Y-00915D03*
Y-00965D03*
Y-01015D03*
Y-01065D03*
G54D48*
X00517Y-00713D03*
X00555D03*
X00592D03*
Y-00616D03*
X00517D03*
G54D49*
X-00893Y-00659D03*
X-00854D03*
X-00814D03*
X-00775D03*
X-00735D03*
X-00696D03*
X00701Y-0066D03*
X00741D03*
X0078D03*
X0082D03*
X00859D03*
X00898D03*
X-00379Y00365D03*
X-0034D03*
X-003D03*
X-00261D03*
X-00221D03*
X-00182D03*
X00181Y00365D03*
X0022D03*
X0026D03*
X00299D03*
X00339D03*
X00378D03*
G54D50*
X-00944Y-0056D03*
X-00645D03*
X0065Y-0056D03*
X00949D03*
X-0043Y00464D03*
X-00131D03*
X0013Y00464D03*
X00429D03*
G54D51*
X-0052Y-00655D03*
X-00579D03*
G54D52*
X00914Y00774D03*
X0084Y00709D03*
X00766Y00645D03*
X00692Y0058D03*
X00793Y00914D03*
X00719Y00849D03*
X00645Y00785D03*
X0057Y0072D03*
G54D53*
X00415Y00921D03*
Y00823D03*
Y00725D03*
Y00626D03*
X0023Y00921D03*
Y00823D03*
Y00725D03*
Y00626D03*
X-0023Y00916D03*
Y00818D03*
Y0072D03*
Y00621D03*
X-00415Y00916D03*
Y00818D03*
Y0072D03*
Y00621D03*
G54D54*
X-0052Y00918D03*
Y00861D03*
X-0058Y00918D03*
Y00861D03*
X-0093Y00608D03*
Y00551D03*
X-0087Y00608D03*
Y00551D03*
G54D55*
X-00795Y00915D03*
X-00721Y00851D03*
X-00646Y00786D03*
X-00572Y00722D03*
X-00916Y00776D03*
X-00842Y00711D03*
X-00768Y00646D03*
X-00693Y00582D03*
G54D56*
X00835Y-0099D03*
G54D57*
X00935Y-0099D03*
M02*